<svg width="500" height="200" viewBox="0 0 500 200" fill="none" xmlns="http://www.w3.org/2000/svg">
<g clip-path="url(#clip0_394_57)">
<path d="M165.25 53L445.737 61.1385C475.846 61.1385 500 70.9764 500 83.2408L482.728 152.662C482.728 164.927 463.468 173.831 433.359 173.831L372.065 174.267L386.487 200L295.946 174.764L202.505 175.823C172.395 175.823 133.344 164.916 133.344 152.652L106 79.1941C106 66.9295 135.142 53 165.25 53Z" fill="white" stroke="black" stroke-width="2" stroke-linecap="round" stroke-linejoin="round"/>
<path d="M168.944 89.152V110.896H170.936V89.152H168.944ZM159.488 90.832C156.296 90.832 153.992 93.784 153.992 98.392C153.992 103.024 156.296 105.976 159.488 105.976C162.704 105.976 165.008 103.024 165.008 98.392C165.008 93.784 162.704 90.832 159.488 90.832ZM159.488 92.632C161.624 92.632 163.088 94.888 163.088 98.392C163.088 101.92 161.624 104.224 159.488 104.224C157.376 104.224 155.888 101.92 155.888 98.392C155.888 94.888 157.376 92.632 159.488 92.632ZM184.356 90.208V91.816H198.324V90.208H184.356ZM182.028 99.352V100.96H201.612V99.352H182.028ZM190.068 94.984V99.592H192.036V94.984H190.068ZM197.172 90.208V91.744C197.172 93.352 197.172 95.128 196.62 97.624L198.564 97.84C199.116 95.32 199.116 93.376 199.116 91.744V90.208H197.172ZM190.74 102.664V103.624C190.74 106.48 187.404 108.664 183.42 109.216L184.188 110.8C188.628 110.056 192.444 107.488 192.444 103.624V102.664H190.74ZM191.028 102.664V103.624C191.028 107.488 194.82 110.056 199.308 110.8L200.052 109.216C196.092 108.664 192.732 106.48 192.732 103.624V102.664H191.028ZM212.89 97.6V99.256H216.994V97.6H212.89ZM220.618 89.176V110.872H222.538V89.176H220.618ZM216.322 89.632V109.792H218.218V89.632H216.322ZM208.978 90.976C206.17 90.976 204.37 93.88 204.37 98.536C204.37 103.192 206.17 106.096 208.978 106.096C211.786 106.096 213.61 103.192 213.61 98.536C213.61 93.88 211.786 90.976 208.978 90.976ZM208.978 92.824C210.706 92.824 211.786 95.032 211.786 98.536C211.786 102.04 210.706 104.248 208.978 104.248C207.274 104.248 206.194 102.04 206.194 98.536C206.194 95.032 207.274 92.824 208.978 92.824ZM238.238 91.264V93.064C238.238 96.16 236.078 98.968 232.814 100.096L233.822 101.68C237.494 100.36 239.87 97.048 239.87 93.064V91.264H238.238ZM238.598 91.264V93.04C238.598 96.76 240.926 99.952 244.55 101.176L245.51 99.592C242.318 98.512 240.23 95.92 240.23 93.04V91.264H238.598ZM233.39 90.688V92.296H245.006V90.688H233.39ZM247.766 89.176V101.944H249.758V89.176H247.766ZM249.206 94.576V96.232H252.974V94.576H249.206ZM236.126 102.928V110.584H249.758V102.928H236.126ZM247.814 104.512V108.976H238.07V104.512H247.814ZM260.725 91.048V94.936C260.725 99.04 258.109 103.192 254.893 104.728L256.117 106.36C259.669 104.56 262.357 99.928 262.357 94.936V91.048H260.725ZM261.061 91.048V94.936C261.061 99.76 263.773 104.224 267.301 105.952L268.501 104.368C265.285 102.88 262.693 98.896 262.693 94.936V91.048H261.061ZM270.757 89.152V110.896H272.749V89.152H270.757ZM284.729 90.688V99.688H294.689V90.688H284.729ZM292.745 92.296V98.08H286.673V92.296H292.745ZM298.673 89.176V100.864H300.665V89.176H298.673ZM300.113 94.168V95.848H303.881V94.168H300.113ZM287.057 102.04V109.888H289.049V103.504H300.785V102.04H287.057ZM287.057 109.12V110.584H301.289V109.12H287.057ZM288.377 105.52V106.96H300.569V105.52H288.377ZM314.871 91.504V91.84C314.871 97.552 312.063 102.16 305.919 105.208L306.975 106.768C314.127 103.24 316.815 97.696 316.815 91.504H314.871ZM306.855 91.504V93.136H315.855V91.504H306.855ZM321.759 89.152V110.848H323.751V89.152H321.759ZM316.023 95.104V96.712H322.167V95.104H316.023ZM315.783 100.936V102.568H321.927V100.936H315.783ZM330.685 97.24V98.872H345.181V97.24H330.685ZM327.973 101.68V103.336H347.653V101.68H327.973ZM336.757 102.592V110.8H338.725V102.592H336.757ZM330.685 90.448V98.032H332.701V92.08H344.893V90.448H330.685ZM355.859 90.832C352.691 90.832 350.459 93.784 350.459 98.392C350.459 103.024 352.691 105.976 355.859 105.976C359.003 105.976 361.259 103.024 361.259 98.392C361.259 93.784 359.003 90.832 355.859 90.832ZM355.859 92.632C357.947 92.632 359.363 94.888 359.363 98.392C359.363 101.92 357.947 104.224 355.859 104.224C353.771 104.224 352.355 101.92 352.355 98.392C352.355 94.888 353.771 92.632 355.859 92.632ZM365.963 89.152V110.896H367.931V89.152H365.963ZM360.611 97.432V99.064H366.827V97.432H360.611ZM374.625 99.304V100.936H389.529V99.304H374.625ZM372.153 106.48V108.16H391.809V106.48H372.153ZM380.937 100V107.152H382.929V100H380.937ZM374.625 90.904V100.024H376.617V92.536H389.313V90.904H374.625ZM409.765 95.608V98.92H411.733V95.608H409.765ZM409.477 90.496V91.168C409.477 93.448 405.901 95.128 401.989 95.44L402.637 96.952C407.197 96.52 411.229 94.432 411.229 91.168V90.496H409.477ZM410.341 90.496V91.168C410.341 94.432 414.373 96.52 418.909 96.952L419.557 95.44C415.645 95.128 412.069 93.424 412.069 91.168V90.496H410.341ZM402.757 89.848V91.408H418.813V89.848H402.757ZM402.781 102.64V104.224H418.765V102.64H402.781ZM400.957 98.176V99.784H420.637V98.176H400.957ZM410.773 105.28C406.597 105.28 404.245 106.264 404.245 108.136C404.245 110.032 406.597 110.992 410.773 110.992C414.949 110.992 417.277 110.032 417.277 108.136C417.277 106.264 414.949 105.28 410.773 105.28ZM410.773 106.648C413.629 106.648 415.261 107.152 415.261 108.136C415.261 109.12 413.629 109.624 410.773 109.624C407.893 109.624 406.285 109.12 406.285 108.136C406.285 107.152 407.893 106.648 410.773 106.648ZM409.789 100.648V103.648H411.757V100.648H409.789ZM437.891 89.152V104.872H439.883V89.152H437.891ZM439.283 95.608V97.264H443.099V95.608H439.283ZM424.043 99.4V101.056H425.723C430.283 101.056 432.851 100.912 435.827 100.288L435.611 98.68C432.707 99.28 430.187 99.4 425.723 99.4H424.043ZM424.043 91.024V100.288H426.011V92.68H433.619V91.024H424.043ZM426.371 108.76V110.392H440.867V108.76H426.371ZM426.371 103.312V109.504H428.363V103.312H426.371ZM459.802 89.152V110.896H461.818V89.152H459.802ZM461.338 97.72V99.4H465.37V97.72H461.338ZM446.05 103.816V105.496H447.754C451.834 105.496 454.69 105.376 458.026 104.752L457.81 103.072C454.57 103.672 451.762 103.816 447.754 103.816H446.05ZM446.05 91.264V104.56H448.018V92.896H456.13V91.264H446.05ZM470.516 91.5455L470.345 104.091H468.368L468.197 91.5455H470.516ZM469.357 109.136C468.936 109.136 468.575 108.986 468.274 108.685C467.973 108.384 467.822 108.023 467.822 107.602C467.822 107.182 467.973 106.821 468.274 106.52C468.575 106.219 468.936 106.068 469.357 106.068C469.777 106.068 470.138 106.219 470.439 106.52C470.74 106.821 470.891 107.182 470.891 107.602C470.891 107.881 470.82 108.136 470.678 108.369C470.541 108.602 470.357 108.79 470.124 108.932C469.896 109.068 469.641 109.136 469.357 109.136ZM161.984 128.424V131.76H163.952V128.424H161.984ZM153.176 127.32V128.928H172.784V127.32H153.176ZM155.72 118.896V125.496H170.24V118.896H155.72ZM168.296 120.48V123.912H157.688V120.48H168.296ZM155.552 131.04V132.576H168.32V134.472H155.6V138.552H157.568V135.912H170.288V131.04H155.552ZM155.6 138.072V139.632H170.936V138.072H155.6ZM175.254 130.56V132.192H194.934V130.56H175.254ZM177.846 138.024V139.656H192.87V138.024H177.846ZM177.846 133.632V138.504H179.838V133.632H177.846ZM184.086 127.44V131.256H186.078V127.44H184.086ZM177.75 118.872V120.432H190.446V122.784H177.798V127.176H179.766V124.248H192.39V118.872H177.75ZM177.798 126.648V128.208H192.87V126.648H177.798ZM214.906 124.2V125.808H220.858V124.2H214.906ZM219.946 118.2V134.16H221.938V118.2H219.946ZM208.09 137.76V139.392H222.538V137.76H208.09ZM208.09 132.552V138.456H210.082V132.552H208.09ZM210.01 119.568C206.818 119.568 204.418 121.8 204.418 124.944C204.418 128.088 206.818 130.32 210.01 130.32C213.202 130.32 215.602 128.088 215.602 124.944C215.602 121.8 213.202 119.568 210.01 119.568ZM210.01 121.32C212.098 121.32 213.682 122.808 213.682 124.944C213.682 127.08 212.098 128.568 210.01 128.568C207.898 128.568 206.338 127.08 206.338 124.944C206.338 122.808 207.898 121.32 210.01 121.32ZM242.672 118.176V139.872H244.592V118.176H242.672ZM234.776 125.952V127.608H238.928V125.952H234.776ZM238.328 118.68V138.768H240.2V118.68H238.328ZM230.6 121.536V124.296C230.6 128.28 228.92 132.24 225.896 134.064L227.12 135.552C230.312 133.536 232.136 129.048 232.136 124.296V121.536H230.6ZM231.008 121.536V124.296C231.008 128.832 232.76 133.104 235.928 135.024L237.152 133.56C234.176 131.832 232.544 128.064 232.544 124.296V121.536H231.008ZM226.496 120.696V122.352H236.408V120.696H226.496ZM248.263 129.12V130.752H267.871V129.12H248.263ZM250.735 125.112V126.768H265.615V125.112H250.735ZM250.735 119.112V125.664H252.727V120.72H265.423V119.112H250.735ZM250.759 137.736V139.392H265.807V137.736H250.759ZM250.759 133.032V138.168H252.751V133.032H250.759ZM282.491 121.752V122.688C282.491 125.52 280.307 127.992 277.091 128.976L278.027 130.536C281.675 129.384 284.123 126.384 284.123 122.688V121.752H282.491ZM282.851 121.752V122.688C282.851 126.144 285.227 129.024 288.851 130.104L289.787 128.568C286.595 127.632 284.483 125.28 284.483 122.688V121.752H282.851ZM277.691 120.696V122.304H289.259V120.696H277.691ZM282.491 118.08V121.368H284.483V118.08H282.491ZM291.923 118.176V130.776H293.915V118.176H291.923ZM293.363 123.528V125.184H297.131V123.528H293.363ZM286.139 132.576V133.152C286.139 135.576 282.971 137.688 279.227 138.264L279.995 139.8C284.243 139.08 287.843 136.56 287.843 133.152V132.576H286.139ZM286.523 132.576V133.152C286.523 136.488 290.123 139.104 294.371 139.824L295.115 138.288C291.443 137.688 288.227 135.528 288.227 133.152V132.576H286.523ZM280.067 131.952V133.56H294.299V131.952H280.067ZM304.929 119.832C301.737 119.832 299.481 122.784 299.481 127.392C299.481 132.024 301.737 134.976 304.929 134.976C308.121 134.976 310.377 132.024 310.377 127.392C310.377 122.784 308.121 119.832 304.929 119.832ZM304.929 121.632C307.017 121.632 308.481 123.888 308.481 127.392C308.481 130.92 307.017 133.224 304.929 133.224C302.817 133.224 301.377 130.92 301.377 127.392C301.377 123.888 302.817 121.632 304.929 121.632ZM313.833 118.176V139.872H315.849V118.176H313.833ZM315.369 126.84V128.52H319.401V126.84H315.369ZM335.911 118.152V139.872H337.927V118.152H335.911ZM337.375 126.96V128.616H341.383V126.96H337.375ZM330.367 120.504V120.816C330.367 126.552 327.367 131.184 321.367 134.232L322.471 135.768C329.479 132.24 332.311 126.672 332.311 120.504H330.367ZM322.375 120.504V122.136H331.399V120.504H322.375ZM345.797 128.304V129.936H360.701V128.304H345.797ZM343.325 135.48V137.16H362.981V135.48H343.325ZM352.109 129V136.152H354.101V129H352.109ZM345.797 119.904V129.024H347.789V121.536H360.485V119.904H345.797ZM380.937 124.608V127.92H382.905V124.608H380.937ZM380.649 119.496V120.168C380.649 122.448 377.073 124.128 373.161 124.44L373.809 125.952C378.369 125.52 382.401 123.432 382.401 120.168V119.496H380.649ZM381.513 119.496V120.168C381.513 123.432 385.545 125.52 390.081 125.952L390.729 124.44C386.817 124.128 383.241 122.424 383.241 120.168V119.496H381.513ZM373.929 118.848V120.408H389.985V118.848H373.929ZM373.953 131.64V133.224H389.937V131.64H373.953ZM372.129 127.176V128.784H391.809V127.176H372.129ZM381.945 134.28C377.769 134.28 375.417 135.264 375.417 137.136C375.417 139.032 377.769 139.992 381.945 139.992C386.121 139.992 388.449 139.032 388.449 137.136C388.449 135.264 386.121 134.28 381.945 134.28ZM381.945 135.648C384.801 135.648 386.433 136.152 386.433 137.136C386.433 138.12 384.801 138.624 381.945 138.624C379.065 138.624 377.457 138.12 377.457 137.136C377.457 136.152 379.065 135.648 381.945 135.648ZM380.961 129.648V132.648H382.929V129.648H380.961ZM396.295 120.336V121.992H410.263V120.336H396.295ZM394.231 135.192V136.848H413.839V135.192H394.231ZM401.839 127.44V136.008H403.831V127.44H401.839ZM409.519 120.336V122.496C409.519 125.088 409.519 128.136 408.703 132.288L410.695 132.552C411.487 128.16 411.487 125.184 411.487 122.496V120.336H409.519ZM419.609 120.545L419.439 133.091H417.462L417.291 120.545H419.609ZM418.45 138.136C418.03 138.136 417.669 137.986 417.368 137.685C417.067 137.384 416.916 137.023 416.916 136.602C416.916 136.182 417.067 135.821 417.368 135.52C417.669 135.219 418.03 135.068 418.45 135.068C418.871 135.068 419.232 135.219 419.533 135.52C419.834 135.821 419.984 136.182 419.984 136.602C419.984 136.881 419.913 137.136 419.771 137.369C419.635 137.602 419.45 137.79 419.217 137.932C418.99 138.068 418.734 138.136 418.45 138.136Z" fill="black"/>
</g>
<defs>
<clipPath id="clip0_394_57">
<rect width="500" height="200" fill="white"/>
</clipPath>
</defs>
</svg>
