<svg width="500" height="200" viewBox="0 0 500 200" fill="none" xmlns="http://www.w3.org/2000/svg">
<g clip-path="url(#clip0_394_51)">
<path d="M180.543 56L448.216 64.1385C476.95 64.1385 500 73.9764 500 86.2408L483.517 155.662C483.517 167.927 465.137 176.831 436.404 176.831L377.91 177.267L403.5 200L305.269 177.764L216.096 178.823C187.362 178.823 150.094 167.916 150.094 155.652L124 82.1941C124 69.9295 151.811 56 180.543 56Z" fill="white" stroke="black" stroke-width="2" stroke-linecap="round" stroke-linejoin="round"/>
<path d="M168.2 113.408V115.064H187.856V113.408H168.2ZM176.936 108.152V113.96H178.904V108.152H176.936ZM176.888 97.616V99.296C176.888 102.872 172.784 106.064 168.968 106.76L169.808 108.416C174.176 107.504 178.616 103.928 178.616 99.296V97.616H176.888ZM177.248 97.616V99.296C177.248 103.928 181.688 107.504 186.056 108.416L186.92 106.76C183.104 106.064 178.976 102.896 178.976 99.296V97.616H177.248ZM199.062 107.024V110.816H201.054V107.024H199.062ZM190.254 106.328V107.936H209.862V106.328H190.254ZM200.046 110.216C195.39 110.216 192.606 111.584 192.606 114.032C192.606 116.456 195.39 117.824 200.046 117.824C204.702 117.824 207.486 116.456 207.486 114.032C207.486 111.584 204.702 110.216 200.046 110.216ZM200.046 111.752C203.454 111.752 205.47 112.568 205.47 114.032C205.47 115.472 203.454 116.288 200.046 116.288C196.662 116.288 194.622 115.472 194.622 114.032C194.622 112.568 196.662 111.752 200.046 111.752ZM198.774 97.952V98.6C198.774 101.072 195.246 103.016 191.358 103.424L192.078 105.008C196.566 104.456 200.55 102.104 200.55 98.6V97.952H198.774ZM199.614 97.952V98.6C199.614 102.104 203.574 104.456 208.062 105.008L208.782 103.424C204.894 103.016 201.366 101.072 201.366 98.6V97.952H199.614ZM192.054 97.16V98.768H208.11V97.16H192.054ZM228.1 96.176V117.872H230.092V96.176H228.1ZM212.836 99.68V101.288H225.844V99.68H212.836ZM219.364 103.064C216.244 103.064 214.012 105.128 214.012 108.056C214.012 110.984 216.244 113.048 219.364 113.048C222.484 113.048 224.74 110.984 224.74 108.056C224.74 105.128 222.484 103.064 219.364 103.064ZM219.364 104.72C221.356 104.72 222.82 106.088 222.82 108.056C222.82 110 221.356 111.392 219.364 111.392C217.372 111.392 215.908 110 215.908 108.056C215.908 106.088 217.372 104.72 219.364 104.72ZM218.332 96.392V100.664H220.324V96.392H218.332ZM256.016 96.176V112.04H258.008V96.176H256.016ZM257.384 102.752V104.408H261.224V102.752H257.384ZM250.088 97.856V98.72C250.088 102.896 246.656 106.256 241.184 107.936L242.048 109.568C248.264 107.576 252.2 103.472 252.2 97.856H250.088ZM242.072 97.856V99.488H251.096V97.856H242.072ZM244.472 115.76V117.392H258.968V115.76H244.472ZM244.472 110.432V116.408H246.464V110.432H244.472ZM269.023 98.408V100.136C269.023 103.208 266.815 106.04 263.551 107.192L264.583 108.752C268.23 107.456 270.679 104.12 270.679 100.136V98.408H269.023ZM269.407 98.408V100.136C269.407 103.928 271.903 107.12 275.503 108.344L276.535 106.784C273.319 105.704 271.063 103.064 271.063 100.136V98.408H269.407ZM279.031 96.176V109.304H281.047V96.176H279.031ZM266.551 110.456V112.088H279.031V117.872H281.047V110.456H266.551ZM264.079 97.688V99.296H275.959V97.688H264.079ZM285.293 99.872V101.504H296.045V99.872H285.293ZM290.669 102.944C287.981 102.944 286.013 104.984 286.013 107.912C286.013 110.816 287.981 112.856 290.669 112.856C293.381 112.856 295.349 110.816 295.349 107.912C295.349 104.984 293.381 102.944 290.669 102.944ZM290.669 104.648C292.349 104.648 293.573 105.992 293.573 107.912C293.573 109.832 292.349 111.176 290.669 111.176C289.013 111.176 287.813 109.832 287.813 107.912C287.813 105.992 289.013 104.648 290.669 104.648ZM301.781 96.176V117.872H303.701V96.176H301.781ZM298.325 105.296V106.952H302.429V105.296H298.325ZM297.149 96.656V116.816H299.021V96.656H297.149ZM289.709 96.8V100.88H291.677V96.8H289.709ZM313.059 105.224V109.712H315.051V105.224H313.059ZM323.187 96.152V109.88H325.179V96.152H323.187ZM307.515 106.376C311.451 106.376 316.635 106.328 321.315 105.56L321.195 104.168C316.635 104.768 311.283 104.816 307.275 104.816L307.515 106.376ZM318.723 107.192V108.608H323.715V107.192H318.723ZM309.459 101.528V103.088H319.275V101.528H309.459ZM309.459 96.752V102.392H311.451V98.312H319.203V96.752H309.459ZM312.915 110.6V111.008C312.915 113.12 311.283 115.256 308.571 116.12L309.531 117.608C312.675 116.528 314.451 113.864 314.451 111.008V110.6H312.915ZM313.347 110.6V111.008C313.347 113.696 314.763 116.6 317.859 117.8L318.675 116.312C316.131 115.304 314.835 113 314.835 111.008V110.6H313.347ZM320.907 110.6V111.008C320.907 112.952 319.635 115.256 317.067 116.312L317.859 117.8C320.955 116.6 322.371 113.648 322.371 111.008V110.6H320.907ZM321.339 110.6V111.008C321.339 113.864 323.091 116.528 326.259 117.608L327.195 116.12C324.459 115.256 322.851 113.12 322.851 111.008V110.6H321.339ZM344.161 96.152V117.896H346.177V96.152H344.161ZM345.697 104.72V106.4H349.729V104.72H345.697ZM330.409 110.816V112.496H332.113C336.193 112.496 339.049 112.376 342.385 111.752L342.169 110.072C338.929 110.672 336.121 110.816 332.113 110.816H330.409ZM330.409 98.264V111.56H332.377V99.896H340.489V98.264H330.409ZM366.239 96.152V117.872H368.255V96.152H366.239ZM367.703 104.96V106.616H371.711V104.96H367.703ZM360.695 98.504V98.816C360.695 104.552 357.695 109.184 351.695 112.232L352.799 113.768C359.807 110.24 362.639 104.672 362.639 98.504H360.695ZM352.703 98.504V100.136H361.727V98.504H352.703ZM382.515 98.48V100.088H396.483V98.48H382.515ZM380.403 113.048V114.704H400.011V113.048H380.403ZM395.427 98.48V100.64C395.427 103.328 395.427 106.568 394.563 111.008L396.555 111.2C397.371 106.52 397.371 103.424 397.371 100.64V98.48H395.427ZM414.535 98.048V101.936C414.535 105.896 412.063 110.072 408.919 111.656L410.143 113.24C413.575 111.416 416.167 106.736 416.167 101.936V98.048H414.535ZM414.895 98.048V101.936C414.895 106.592 417.415 111.032 420.775 112.832L421.999 111.248C418.927 109.712 416.503 105.752 416.503 101.936V98.048H414.895ZM423.895 96.176V117.872H425.911V96.176H423.895ZM425.431 104.96V106.64H429.463V104.96H425.431ZM446.141 96.2V109.112H448.133V96.2H446.141ZM447.533 101.72V103.4H451.349V101.72H447.533ZM434.453 110.192V117.584H448.133V110.192H434.453ZM446.189 111.776V115.976H436.421V111.776H446.189ZM432.245 106.352V108.008H433.949C437.957 108.008 440.813 107.864 444.245 107.288L444.077 105.656C440.693 106.256 437.885 106.352 433.949 106.352H432.245ZM432.197 97.352V98.984H439.997V101.768H432.245V107.288H434.189V103.304H441.965V97.352H432.197ZM469.132 96.152V117.896H471.124V96.152H469.132ZM459.676 97.832C456.484 97.832 454.18 100.784 454.18 105.392C454.18 110.024 456.484 112.976 459.676 112.976C462.892 112.976 465.196 110.024 465.196 105.392C465.196 100.784 462.892 97.832 459.676 97.832ZM459.676 99.632C461.812 99.632 463.276 101.888 463.276 105.392C463.276 108.92 461.812 111.224 459.676 111.224C457.564 111.224 456.076 108.92 456.076 105.392C456.076 101.888 457.564 99.632 459.676 99.632ZM176.696 127.216V127.864C176.696 130.504 173.216 132.664 169.376 133.168L170.12 134.776C174.56 134.104 178.472 131.536 178.472 127.864V127.216H176.696ZM177.536 127.216V127.864C177.536 131.536 181.448 134.104 185.864 134.776L186.632 133.168C182.792 132.664 179.288 130.504 179.288 127.864V127.216H177.536ZM169.976 126.256V127.864H186.032V126.256H169.976ZM168.176 136.336V137.968H187.832V136.336H168.176ZM177.152 137.344V142.336H179.144V137.344H177.152ZM170.672 144.76V146.392H185.648V144.76H170.672ZM170.672 140.248V145.384H172.64V140.248H170.672ZM206.022 125.152V146.896H208.014V125.152H206.022ZM191.502 127V141.664H201.726V127H199.734V132.736H193.47V127H191.502ZM193.47 134.32H199.734V140.032H193.47V134.32ZM227.02 125.152V146.872H229.036V125.152H227.02ZM228.484 133.96V135.616H232.492V133.96H228.484ZM221.476 127.504V127.816C221.476 133.552 218.476 138.184 212.476 141.232L213.58 142.768C220.588 139.24 223.42 133.672 223.42 127.504H221.476ZM213.484 127.504V129.136H222.508V127.504H213.484ZM242.888 134.512V136.144H254V134.512H242.888ZM247.328 135.808V140.8H249.344V135.808H247.328ZM242.888 127.216V135.088H244.88V128.848H253.88V127.216H242.888ZM256.856 125.152V146.896H258.848V125.152H256.856ZM241.568 142.192C245.672 142.216 250.856 142.12 255.608 141.4L255.44 139.912C250.856 140.464 245.528 140.512 241.28 140.536L241.568 142.192ZM273.655 128.992V130.624H279.727V128.992H273.655ZM273.655 133.624V135.28H279.775V133.624H273.655ZM264.247 127.048V137.224H274.159V127.048H264.247ZM272.191 128.656V135.616H266.191V128.656H272.191ZM279.103 125.2V141.04H281.095V125.2H279.103ZM267.151 144.76V146.392H281.623V144.76H267.151ZM267.151 139.6V145.504H269.143V139.6H267.151ZM300.899 131.728V135.616H302.867V131.728H300.899ZM294.683 130.936V132.544H309.371V130.936H294.683ZM294.683 126.016V131.8H296.651V127.624H309.131V126.016H294.683ZM292.067 134.584V136.192H311.675V134.584H292.067ZM294.443 138.016V139.552H307.211V141.448H294.491V145.528H296.459V142.912H309.179V138.016H294.443ZM294.491 145.072V146.632H309.827V145.072H294.491ZM330.009 125.152V146.896H332.001V125.152H330.009ZM325.737 130.12V131.752H330.537V130.12H325.737ZM314.961 140.176V141.856H316.569C320.001 141.856 322.785 141.736 326.193 141.208L326.001 139.552C322.689 140.08 319.929 140.176 316.569 140.176H314.961ZM314.913 127.12V128.776H322.425V133.264H314.961V140.56H316.929V134.896H324.393V127.12H314.913ZM325.593 136.048V137.68H330.393V136.048H325.593ZM344.743 127.216V127.864C344.743 130.504 341.263 132.664 337.423 133.168L338.167 134.776C342.607 134.104 346.519 131.536 346.519 127.864V127.216H344.743ZM345.583 127.216V127.864C345.583 131.536 349.495 134.104 353.911 134.776L354.679 133.168C350.839 132.664 347.335 130.504 347.335 127.864V127.216H345.583ZM338.023 126.256V127.864H354.079V126.256H338.023ZM336.223 136.336V137.968H355.879V136.336H336.223ZM345.199 137.344V142.336H347.191V137.344H345.199ZM338.719 144.76V146.392H353.695V144.76H338.719ZM338.719 140.248V145.384H340.687V140.248H338.719ZM373.157 125.152V140.872H375.149V125.152H373.157ZM374.549 131.608V133.264H378.365V131.608H374.549ZM359.309 135.4V137.056H360.989C365.549 137.056 368.117 136.912 371.093 136.288L370.877 134.68C367.973 135.28 365.453 135.4 360.989 135.4H359.309ZM359.309 127.024V136.288H361.277V128.68H368.885V127.024H359.309ZM361.637 144.76V146.392H376.133V144.76H361.637ZM361.637 139.312V145.504H363.629V139.312H361.637ZM395.067 125.152V146.896H397.083V125.152H395.067ZM396.603 133.72V135.4H400.635V133.72H396.603ZM381.315 139.816V141.496H383.019C387.099 141.496 389.955 141.376 393.291 140.752L393.075 139.072C389.835 139.672 387.027 139.816 383.019 139.816H381.315ZM381.315 127.264V140.56H383.283V128.896H391.395V127.264H381.315ZM405.781 127.545L405.611 140.091H403.634L403.463 127.545H405.781ZM404.622 145.136C404.202 145.136 403.841 144.986 403.54 144.685C403.239 144.384 403.088 144.023 403.088 143.602C403.088 143.182 403.239 142.821 403.54 142.52C403.841 142.219 404.202 142.068 404.622 142.068C405.043 142.068 405.403 142.219 405.705 142.52C406.006 142.821 406.156 143.182 406.156 143.602C406.156 143.881 406.085 144.136 405.943 144.369C405.807 144.602 405.622 144.79 405.389 144.932C405.162 145.068 404.906 145.136 404.622 145.136Z" fill="black"/>
</g>
<defs>
<clipPath id="clip0_394_51">
<rect width="500" height="200" fill="white"/>
</clipPath>
</defs>
</svg>
