<svg width="500" height="200" viewBox="0 0 500 200" fill="none" xmlns="http://www.w3.org/2000/svg">
<g clip-path="url(#clip0_394_26)">
<path d="M200.934 53.0003L451.521 61.1388C478.421 61.1388 500 70.9766 500 83.241L484.569 152.662C484.569 164.927 467.362 173.831 440.463 173.831L385.703 174.267L398.587 200L317.698 174.764L234.217 175.823C207.318 175.823 172.429 164.916 172.429 152.652L148 79.1943C148 66.9298 174.036 53 200.935 53L200.934 53.0003Z" fill="white" stroke="black" stroke-width="2" stroke-linecap="round" stroke-linejoin="round"/>
<path d="M201.968 98V99.656H208.52V98H201.968ZM201.968 104.864V106.52H208.52V104.864H201.968ZM197.984 94.832C194.816 94.832 192.584 97.784 192.584 102.392C192.584 107.024 194.816 109.976 197.984 109.976C201.128 109.976 203.384 107.024 203.384 102.392C203.384 97.784 201.128 94.832 197.984 94.832ZM197.984 96.632C200.072 96.632 201.512 98.888 201.512 102.392C201.512 105.92 200.072 108.224 197.984 108.224C195.896 108.224 194.456 105.92 194.456 102.392C194.456 98.888 195.896 96.632 197.984 96.632ZM208.088 93.152V114.896H210.056V93.152H208.088ZM230.07 93.176V114.872H232.062V93.176H230.07ZM223.71 95.504V95.84C223.71 101.6 220.806 106.208 214.542 109.232L215.598 110.84C222.846 107.288 225.678 101.792 225.678 95.504H223.71ZM215.526 95.504V97.136H224.574V95.504H215.526ZM238.996 99.68V101.312H253.732V99.68H238.996ZM236.332 104.216V105.848H256.012V104.216H236.332ZM238.996 93.968V100.496H240.964V93.968H238.996ZM238.852 112.712V114.344H253.852V112.712H238.852ZM238.852 108.008V113.144H240.82V108.008H238.852ZM270.488 95.048V98.936C270.488 102.896 268.016 107.072 264.872 108.656L266.096 110.24C269.528 108.416 272.12 103.736 272.12 98.936V95.048H270.488ZM270.848 95.048V98.936C270.848 103.592 273.368 108.032 276.728 109.832L277.952 108.248C274.88 106.712 272.456 102.752 272.456 98.936V95.048H270.848ZM279.848 93.176V114.872H281.864V93.176H279.848ZM281.384 101.96V103.64H285.416V101.96H281.384ZM302.095 93.2V106.112H304.087V93.2H302.095ZM303.487 98.72V100.4H307.303V98.72H303.487ZM290.407 107.192V114.584H304.087V107.192H290.407ZM302.143 108.776V112.976H292.375V108.776H302.143ZM288.199 103.352V105.008H289.903C293.911 105.008 296.767 104.864 300.199 104.288L300.031 102.656C296.647 103.256 293.839 103.352 289.903 103.352H288.199ZM288.151 94.352V95.984H295.951V98.768H288.199V104.288H290.143V100.304H297.919V94.352H288.151ZM309.341 102.224V103.856H328.949V102.224H309.341ZM311.933 98.864V100.472H326.621V98.864H311.933ZM311.933 93.872V100.16H313.901V95.504H326.381V93.872H311.933ZM311.693 105.728V107.288H324.461V109.352H311.741V113.576H313.709V110.84H326.429V105.728H311.693ZM311.741 113.048V114.632H327.077V113.048H311.741ZM347.163 93.152V114.896H349.155V93.152H347.163ZM337.707 94.832C334.515 94.832 332.211 97.784 332.211 102.392C332.211 107.024 334.515 109.976 337.707 109.976C340.923 109.976 343.227 107.024 343.227 102.392C343.227 97.784 340.923 94.832 337.707 94.832ZM337.707 96.632C339.843 96.632 341.307 98.888 341.307 102.392C341.307 105.92 339.843 108.224 337.707 108.224C335.595 108.224 334.107 105.92 334.107 102.392C334.107 98.888 335.595 96.632 337.707 96.632ZM375.991 93.152V114.896H377.983V93.152H375.991ZM366.535 94.832C363.343 94.832 361.039 97.784 361.039 102.392C361.039 107.024 363.343 109.976 366.535 109.976C369.751 109.976 372.055 107.024 372.055 102.392C372.055 97.784 369.751 94.832 366.535 94.832ZM366.535 96.632C368.671 96.632 370.135 98.888 370.135 102.392C370.135 105.92 368.671 108.224 366.535 108.224C364.423 108.224 362.935 105.92 362.935 102.392C362.935 98.888 364.423 96.632 366.535 96.632ZM384.653 94.04V95.648H397.589V98.168H384.701V103.448H386.717V99.704H399.581V94.04H384.653ZM384.701 102.464V104.096H400.085V102.464H384.701ZM382.301 106.328V107.984H401.981V106.328H382.301ZM391.109 106.952V114.896H393.077V106.952H391.109ZM410.139 96.272V99.8C410.139 103.544 407.523 107.624 404.379 109.112L405.531 110.696C408.987 108.992 411.747 104.384 411.747 99.8V96.272H410.139ZM410.523 96.272V99.8C410.523 104.312 413.307 108.536 416.811 110.168L417.939 108.584C414.747 107.216 412.131 103.472 412.131 99.8V96.272H410.523ZM405.099 95.384V97.064H417.219V95.384H405.099ZM420.147 93.176V114.872H422.139V93.176H420.147ZM435.727 94.064V101.384H450.319V94.064H435.727ZM448.351 95.672V99.776H437.671V95.672H448.351ZM433.207 103.928V105.536H452.815V103.928H433.207ZM442.039 100.88V104.624H444.007V100.88H442.039ZM442.015 106.904V107.576C442.015 110.456 438.679 112.616 434.719 113.192L435.487 114.752C439.927 114.008 443.719 111.464 443.719 107.576V106.904H442.015ZM442.327 106.904V107.576C442.327 111.464 446.095 114.008 450.535 114.752L451.303 113.192C447.343 112.616 444.031 110.456 444.031 107.576V106.904H442.327ZM470.141 93.2V109.472H472.133V93.2H470.141ZM471.509 100.304V101.984H475.349V100.304H471.509ZM455.357 95.816V97.424H468.173V95.816H455.357ZM461.765 98.624C458.669 98.624 456.557 100.232 456.557 102.68C456.557 105.104 458.669 106.712 461.765 106.712C464.837 106.712 466.949 105.104 466.949 102.68C466.949 100.232 464.837 98.624 461.765 98.624ZM461.765 100.184C463.709 100.184 465.053 101.168 465.053 102.68C465.053 104.168 463.709 105.152 461.765 105.152C459.797 105.152 458.453 104.168 458.453 102.68C458.453 101.168 459.797 100.184 461.765 100.184ZM460.757 93.176V96.656H462.749V93.176H460.757ZM458.621 112.76V114.392H473.117V112.76H458.621ZM458.621 108.176V113.456H460.613V108.176H458.621ZM194.072 123.184V124.816H199.808V123.184H194.072ZM199.112 123.184V123.832C199.112 125.152 199.112 127.624 198.08 131.272L200.024 131.512C201.032 127.816 201.032 125.128 201.032 123.832V123.184H199.112ZM202.64 123.184V124.816H208.496V123.184H202.64ZM207.584 123.184V124.072C207.584 125.488 207.584 127.84 206.696 131.344L208.64 131.608C209.504 128.032 209.504 125.488 209.504 124.072V123.184H207.584ZM192.176 130.696V132.304H211.856V130.696H192.176ZM200.984 131.944V136.696H202.952V131.944H200.984ZM194.648 135.952V143.584H209.336V135.952H194.648ZM207.392 137.56V141.952H196.592V137.56H207.392ZM230.022 122.152V143.896H232.014V122.152H230.022ZM220.566 123.832C217.374 123.832 215.07 126.784 215.07 131.392C215.07 136.024 217.374 138.976 220.566 138.976C223.782 138.976 226.086 136.024 226.086 131.392C226.086 126.784 223.782 123.832 220.566 123.832ZM220.566 125.632C222.702 125.632 224.166 127.888 224.166 131.392C224.166 134.92 222.702 137.224 220.566 137.224C218.454 137.224 216.966 134.92 216.966 131.392C216.966 127.888 218.454 125.632 220.566 125.632ZM243.106 139.456V141.112H262.762V139.456H243.106ZM251.89 133.84V139.912H253.882V133.84H251.89ZM245.386 123.976V134.2H260.362V123.976H245.386ZM258.442 125.584V132.592H247.33V125.584H258.442ZM280.952 122.2V138.04H282.968V122.2H280.952ZM269.024 141.76V143.392H283.616V141.76H269.024ZM269.024 136.408V142.312H270.992V136.408H269.024ZM271.328 123.688C268.088 123.688 265.664 125.896 265.664 129.04C265.664 132.16 268.088 134.392 271.328 134.392C274.568 134.392 276.968 132.16 276.968 129.04C276.968 125.896 274.568 123.688 271.328 123.688ZM271.328 125.416C273.44 125.416 275.048 126.904 275.048 129.04C275.048 131.152 273.44 132.64 271.328 132.64C269.216 132.64 267.608 131.152 267.608 129.04C267.608 126.904 269.216 125.416 271.328 125.416ZM310.381 122.176V135.904H312.277V122.176H310.381ZM306.853 128.056V129.712H310.957V128.056H306.853ZM305.749 122.608V135.136H307.621V122.608H305.749ZM293.893 124.768V126.352H304.885V124.768H293.893ZM299.413 127.456C296.677 127.456 294.781 128.944 294.781 131.176C294.781 133.432 296.677 134.896 299.413 134.896C302.125 134.896 304.021 133.432 304.021 131.176C304.021 128.944 302.125 127.456 299.413 127.456ZM299.413 128.944C301.093 128.944 302.245 129.832 302.245 131.176C302.245 132.544 301.093 133.408 299.413 133.408C297.709 133.408 296.557 132.544 296.557 131.176C296.557 129.832 297.709 128.944 299.413 128.944ZM298.429 122.344V125.656H300.373V122.344H298.429ZM305.173 136.288C300.613 136.288 297.925 137.632 297.925 140.056C297.925 142.456 300.613 143.824 305.173 143.824C309.685 143.824 312.397 142.456 312.397 140.056C312.397 137.632 309.685 136.288 305.173 136.288ZM305.173 137.824C308.461 137.824 310.429 138.616 310.429 140.056C310.429 141.496 308.461 142.312 305.173 142.312C301.837 142.312 299.893 141.496 299.893 140.056C299.893 138.616 301.837 137.824 305.173 137.824ZM321.539 123.4V125.632C321.539 128.944 319.379 131.848 316.067 133.024L317.099 134.656C320.819 133.264 323.195 129.832 323.195 125.632V123.4H321.539ZM321.899 123.4V125.56C321.899 129.496 324.227 132.688 327.731 134.008L328.811 132.448C325.643 131.344 323.531 128.632 323.531 125.56V123.4H321.899ZM331.931 122.176V135.016H333.923V122.176H331.931ZM326.795 135.64C322.307 135.64 319.547 137.152 319.547 139.744C319.547 142.336 322.307 143.824 326.795 143.824C331.259 143.824 334.019 142.336 334.019 139.744C334.019 137.152 331.259 135.64 326.795 135.64ZM326.795 137.224C330.059 137.224 332.051 138.16 332.051 139.744C332.051 141.328 330.059 142.264 326.795 142.264C323.531 142.264 321.539 141.328 321.539 139.744C321.539 138.16 323.531 137.224 326.795 137.224ZM327.227 126.76V128.416H332.363V126.76H327.227ZM353.913 122.152V143.896H355.905V122.152H353.913ZM344.457 123.832C341.265 123.832 338.961 126.784 338.961 131.392C338.961 136.024 341.265 138.976 344.457 138.976C347.673 138.976 349.977 136.024 349.977 131.392C349.977 126.784 347.673 123.832 344.457 123.832ZM344.457 125.632C346.593 125.632 348.057 127.888 348.057 131.392C348.057 134.92 346.593 137.224 344.457 137.224C342.345 137.224 340.857 134.92 340.857 131.392C340.857 127.888 342.345 125.632 344.457 125.632ZM366.007 123.832C362.815 123.832 360.559 126.784 360.559 131.392C360.559 136.024 362.815 138.976 366.007 138.976C369.199 138.976 371.455 136.024 371.455 131.392C371.455 126.784 369.199 123.832 366.007 123.832ZM366.007 125.632C368.095 125.632 369.559 127.888 369.559 131.392C369.559 134.92 368.095 137.224 366.007 137.224C363.895 137.224 362.455 134.92 362.455 131.392C362.455 127.888 363.895 125.632 366.007 125.632ZM376.375 127.624V129.304H380.359V127.624H376.375ZM376.375 134.08V135.76H380.359V134.08H376.375ZM374.911 122.176V143.872H376.927V122.176H374.911ZM385.625 124.545L385.455 137.091H383.477L383.307 124.545H385.625ZM384.466 142.136C384.045 142.136 383.685 141.986 383.384 141.685C383.082 141.384 382.932 141.023 382.932 140.602C382.932 140.182 383.082 139.821 383.384 139.52C383.685 139.219 384.045 139.068 384.466 139.068C384.886 139.068 385.247 139.219 385.548 139.52C385.849 139.821 386 140.182 386 140.602C386 140.881 385.929 141.136 385.787 141.369C385.651 141.602 385.466 141.79 385.233 141.932C385.006 142.068 384.75 142.136 384.466 142.136Z" fill="black"/>
</g>
<defs>
<clipPath id="clip0_394_26">
<rect width="500" height="200" fill="white"/>
</clipPath>
</defs>
</svg>
