<svg width="500" height="300" viewBox="0 0 500 300" fill="none" xmlns="http://www.w3.org/2000/svg">
<path d="M43.5329 46.6016L386.666 53.2028C423.501 53.2028 453.049 61.1825 453.049 71.1304L431.92 127.439C431.92 137.387 408.357 144.61 371.524 144.61L209.049 145.701H169.549L107.549 164.102L125.549 144.61L49.5493 151.102C12.715 151.102 4.5 137.379 4.5 127.431L10.0493 84.1016C10.0493 74.1535 6.70033 46.6016 43.5329 46.6016Z" fill="white" stroke="black" stroke-width="2" stroke-linecap="round" stroke-linejoin="round"/>
<path d="M46.088 74.176V95.92H48.08V74.176H46.088ZM39.416 81.328V82.96H46.736V81.328H39.416ZM31.376 76.6V90.04H33.344V76.6H31.376ZM31.376 88.984V90.664H33.056C36.488 90.664 39.536 90.448 42.992 89.776L42.752 88.096C39.416 88.792 36.416 88.984 33.056 88.984H31.376ZM54.7501 84.304V85.936H69.6541V84.304H54.7501ZM52.2781 91.48V93.16H71.9341V91.48H52.2781ZM61.0621 85V92.152H63.0541V85H61.0621ZM54.7501 75.904V85.024H56.7421V77.536H69.4381V75.904H54.7501ZM82.1143 76.648V78.256H99.5623V76.648H82.1143ZM81.1063 88.24V89.872H100.762V88.24H81.1063ZM89.8903 89.56V95.896H91.8823V89.56H89.8903ZM90.8983 79.504C86.4583 79.504 83.8423 80.8 83.8423 83.128C83.8423 85.432 86.4583 86.752 90.8983 86.752C95.3143 86.752 97.9303 85.432 97.9303 83.128C97.9303 80.8 95.3143 79.504 90.8983 79.504ZM90.8983 81.04C94.0663 81.04 95.8903 81.784 95.8903 83.128C95.8903 84.472 94.0663 85.216 90.8983 85.216C87.7303 85.216 85.9062 84.472 85.9062 83.128C85.9062 81.784 87.7303 81.04 90.8983 81.04ZM89.8903 74.056V77.728H91.8823V74.056H89.8903ZM109.352 87.184V90.76H111.368V87.184H109.352ZM118.856 74.176V95.872H120.848V74.176H118.856ZM103.568 91.744C107.576 91.744 112.808 91.696 117.632 90.88L117.488 89.416C112.808 90.016 107.408 90.064 103.304 90.088L103.568 91.744ZM103.76 76.816V78.424H116.936V76.816H103.76ZM110.336 79.672C107.24 79.672 105.128 81.256 105.128 83.68C105.128 86.128 107.24 87.688 110.336 87.688C113.456 87.688 115.568 86.128 115.568 83.68C115.568 81.256 113.456 79.672 110.336 79.672ZM110.336 81.208C112.304 81.208 113.672 82.192 113.672 83.68C113.672 85.168 112.304 86.152 110.336 86.152C108.392 86.152 107.024 85.168 107.024 83.68C107.024 82.192 108.392 81.208 110.336 81.208ZM109.352 74.176V77.704H111.344V74.176H109.352ZM126.967 83.512V85.144H138.079V83.512H126.967ZM131.407 84.808V89.8H133.423V84.808H131.407ZM126.967 76.216V84.088H128.959V77.848H137.959V76.216H126.967ZM140.935 74.152V95.896H142.927V74.152H140.935ZM125.646 91.192C129.751 91.216 134.935 91.12 139.687 90.4L139.519 88.912C134.935 89.464 129.607 89.512 125.359 89.536L125.646 91.192ZM149.981 80.68V82.312H164.717V80.68H149.981ZM147.317 85.216V86.848H166.997V85.216H147.317ZM149.981 74.968V81.496H151.949V74.968H149.981ZM149.837 93.712V95.344H164.837V93.712H149.837ZM149.837 89.008V94.144H151.805V89.008H149.837ZM182.241 74.968C179.025 74.968 176.649 76.936 176.649 79.792C176.649 82.624 179.025 84.592 182.241 84.592C185.481 84.592 187.857 82.624 187.857 79.792C187.857 76.936 185.481 74.968 182.241 74.968ZM182.241 76.6C184.353 76.6 185.913 77.92 185.913 79.792C185.913 81.664 184.353 82.96 182.241 82.96C180.153 82.96 178.569 81.664 178.569 79.792C178.569 77.92 180.153 76.6 182.241 76.6ZM191.937 74.176V85.288H193.953V74.176H191.937ZM179.913 86.344V87.952H191.985V90.136H179.961V94.888H181.905V91.624H193.953V86.344H179.913ZM179.961 94V95.584H194.673V94H179.961ZM213.991 74.152V95.896H215.983V74.152H213.991ZM204.535 75.832C201.343 75.832 199.039 78.784 199.039 83.392C199.039 88.024 201.343 90.976 204.535 90.976C207.751 90.976 210.055 88.024 210.055 83.392C210.055 78.784 207.751 75.832 204.535 75.832ZM204.535 77.632C206.671 77.632 208.135 79.888 208.135 83.392C208.135 86.92 206.671 89.224 204.535 89.224C202.423 89.224 200.935 86.92 200.935 83.392C200.935 79.888 202.423 77.632 204.535 77.632ZM232.475 87.52V88.696C232.475 90.784 230.843 93.112 228.107 94.096L229.115 95.584C232.235 94.384 234.011 91.528 234.011 88.696V87.52H232.475ZM232.907 87.52V88.696C232.907 91.576 234.323 94.552 237.443 95.776L238.283 94.264C235.691 93.208 234.395 90.88 234.395 88.696V87.52H232.907ZM240.491 87.52V88.696C240.491 90.568 239.171 93.088 236.603 94.264L237.443 95.776C240.539 94.456 241.979 91.24 241.979 88.696V87.52H240.491ZM240.899 87.52V88.696C240.899 91.696 242.627 94.432 245.795 95.584L246.803 94.096C244.043 93.16 242.435 90.928 242.435 88.696V87.52H240.899ZM242.843 74.2V86.584H244.859V74.2H242.843ZM233.219 75.448C229.931 75.448 227.555 77.512 227.555 80.512C227.555 83.512 229.931 85.552 233.219 85.552C236.507 85.552 238.859 83.512 238.859 80.512C238.859 77.512 236.507 75.448 233.219 75.448ZM233.219 77.104C235.379 77.104 236.939 78.496 236.939 80.512C236.939 82.528 235.379 83.896 233.219 83.896C231.059 83.896 229.499 82.528 229.499 80.512C229.499 78.496 231.059 77.104 233.219 77.104ZM263.817 74.152V95.896H265.833V74.152H263.817ZM265.353 82.72V84.4H269.385V82.72H265.353ZM250.065 88.816V90.496H251.769C255.849 90.496 258.705 90.376 262.041 89.752L261.825 88.072C258.585 88.672 255.777 88.816 251.769 88.816H250.065ZM250.065 76.264V89.56H252.033V77.896H260.145V76.264H250.065ZM281.623 77.992V79.624H287.695V77.992H281.623ZM281.623 82.624V84.28H287.743V82.624H281.623ZM272.215 76.048V86.224H282.127V76.048H272.215ZM280.159 77.656V84.616H274.159V77.656H280.159ZM287.071 74.2V90.04H289.063V74.2H287.071ZM275.119 93.76V95.392H289.591V93.76H275.119ZM275.119 88.6V94.504H277.111V88.6H275.119ZM296.95 91.6136L296.814 92.5341C296.717 93.1818 296.57 93.875 296.371 94.6136C296.178 95.3523 295.976 96.0483 295.766 96.7017C295.555 97.3551 295.382 97.875 295.246 98.2614H293.712C293.786 97.8977 293.882 97.4176 294.001 96.821C294.121 96.2244 294.24 95.5568 294.359 94.8182C294.484 94.0852 294.587 93.3352 294.666 92.5682L294.768 91.6136H296.95ZM39.968 108V109.656H46.52V108H39.968ZM39.968 114.864V116.52H46.52V114.864H39.968ZM35.984 104.832C32.816 104.832 30.584 107.784 30.584 112.392C30.584 117.024 32.816 119.976 35.984 119.976C39.128 119.976 41.384 117.024 41.384 112.392C41.384 107.784 39.128 104.832 35.984 104.832ZM35.984 106.632C38.072 106.632 39.512 108.888 39.512 112.392C39.512 115.92 38.072 118.224 35.984 118.224C33.896 118.224 32.456 115.92 32.456 112.392C32.456 108.888 33.896 106.632 35.984 106.632ZM46.088 103.152V124.896H48.056V103.152H46.088ZM68.0701 103.176V124.872H70.0621V103.176H68.0701ZM61.7101 105.504V105.84C61.7101 111.6 58.8061 116.208 52.5421 119.232L53.5981 120.84C60.8461 117.288 63.6781 111.792 63.6781 105.504H61.7101ZM53.5261 105.504V107.136H62.5741V105.504H53.5261ZM86.5063 116.52V117.696C86.5063 119.784 84.8743 122.112 82.1383 123.096L83.1463 124.584C86.2663 123.384 88.0423 120.528 88.0423 117.696V116.52H86.5063ZM86.9383 116.52V117.696C86.9383 120.576 88.3543 123.552 91.4743 124.776L92.3143 123.264C89.7223 122.208 88.4263 119.88 88.4263 117.696V116.52H86.9383ZM94.5223 116.52V117.696C94.5223 119.568 93.2023 122.088 90.6343 123.264L91.4743 124.776C94.5703 123.456 96.0103 120.24 96.0103 117.696V116.52H94.5223ZM94.9303 116.52V117.696C94.9303 120.696 96.6583 123.432 99.8263 124.584L100.834 123.096C98.0743 122.16 96.4663 119.928 96.4663 117.696V116.52H94.9303ZM96.8743 103.2V115.584H98.8903V103.2H96.8743ZM87.2503 104.448C83.9623 104.448 81.5863 106.512 81.5863 109.512C81.5863 112.512 83.9623 114.552 87.2503 114.552C90.5383 114.552 92.8903 112.512 92.8903 109.512C92.8903 106.512 90.5383 104.448 87.2503 104.448ZM87.2503 106.104C89.4103 106.104 90.9703 107.496 90.9703 109.512C90.9703 111.528 89.4103 112.896 87.2503 112.896C85.0903 112.896 83.5303 111.528 83.5303 109.512C83.5303 107.496 85.0903 106.104 87.2503 106.104ZM105.824 109.68V111.312H120.56V109.68H105.824ZM103.16 114.216V115.848H122.84V114.216H103.16ZM105.824 103.968V110.496H107.792V103.968H105.824ZM105.68 122.712V124.344H120.68V122.712H105.68ZM105.68 118.008V123.144H107.648V118.008H105.68ZM133.021 105.648V107.256H150.469V105.648H133.021ZM132.013 117.24V118.872H151.669V117.24H132.013ZM140.797 118.56V124.896H142.789V118.56H140.797ZM141.805 108.504C137.365 108.504 134.749 109.8 134.749 112.128C134.749 114.432 137.365 115.752 141.805 115.752C146.221 115.752 148.837 114.432 148.837 112.128C148.837 109.8 146.221 108.504 141.805 108.504ZM141.805 110.04C144.973 110.04 146.797 110.784 146.797 112.128C146.797 113.472 144.973 114.216 141.805 114.216C138.637 114.216 136.812 113.472 136.812 112.128C136.812 110.784 138.637 110.04 141.805 110.04ZM140.797 103.056V106.728H142.789V103.056H140.797ZM160.259 116.184V119.76H162.275V116.184H160.259ZM169.763 103.176V124.872H171.755V103.176H169.763ZM154.475 120.744C158.483 120.744 163.715 120.696 168.539 119.88L168.395 118.416C163.715 119.016 158.315 119.064 154.211 119.088L154.475 120.744ZM154.667 105.816V107.424H167.843V105.816H154.667ZM161.243 108.672C158.147 108.672 156.035 110.256 156.035 112.68C156.035 115.128 158.147 116.688 161.243 116.688C164.363 116.688 166.475 115.128 166.475 112.68C166.475 110.256 164.363 108.672 161.243 108.672ZM161.243 110.208C163.211 110.208 164.579 111.192 164.579 112.68C164.579 114.168 163.211 115.152 161.243 115.152C159.299 115.152 157.931 114.168 157.931 112.68C157.931 111.192 159.299 110.208 161.243 110.208ZM160.259 103.176V106.704H162.251V103.176H160.259ZM187.431 104.904V107.664C187.431 110.064 185.871 112.992 183.087 114.288L184.143 115.776C187.287 114.312 188.991 110.832 188.991 107.664V104.904H187.431ZM187.863 104.904V107.664C187.863 110.688 189.375 114.48 192.687 116.04L193.575 114.432C190.791 113.04 189.423 109.944 189.423 107.664V104.904H187.863ZM195.975 104.904V107.664C195.975 110.088 194.607 113.088 191.823 114.432L192.687 116.04C196.023 114.528 197.511 110.832 197.511 107.664V104.904H195.975ZM196.431 104.904V107.664C196.431 111.096 198.087 114.36 201.255 115.776L202.335 114.288C199.503 113.064 197.967 110.304 197.967 107.664V104.904H196.431ZM182.895 120.312V121.968H202.575V120.312H182.895ZM205.693 117.888V119.544H207.133C209.869 119.544 212.317 119.448 215.365 118.92L215.197 117.288C212.221 117.792 209.773 117.888 207.133 117.888H205.693ZM205.645 105.552V107.184H211.477V111.504H205.693V118.56H207.637V113.112H213.397V105.552H205.645ZM221.485 103.176V124.872H223.405V103.176H221.485ZM214.429 110.952V112.608H217.933V110.952H214.429ZM217.117 103.704V123.744H218.965V103.704H217.117ZM242.867 103.176V124.872H244.859V103.176H242.867ZM236.507 105.504V105.84C236.507 111.6 233.603 116.208 227.339 119.232L228.395 120.84C235.643 117.288 238.475 111.792 238.475 105.504H236.507ZM228.323 105.504V107.136H237.371V105.504H228.323ZM249.129 114.672V116.28H268.737V114.672H249.129ZM257.937 111.864V115.344H259.905V111.864H257.937ZM251.721 110.976V112.536H266.433V110.976H251.721ZM251.721 103.8V111.816H253.689V105.36H266.337V103.8H251.721ZM253.113 107.352V108.888H265.761V107.352H253.113ZM258.921 117.888C254.193 117.888 251.481 119.088 251.481 121.368C251.481 123.624 254.193 124.824 258.921 124.824C263.649 124.824 266.361 123.624 266.361 121.368C266.361 119.088 263.649 117.888 258.921 117.888ZM258.921 119.4C262.401 119.4 264.345 120.096 264.345 121.368C264.345 122.664 262.401 123.336 258.921 123.336C255.441 123.336 253.497 122.664 253.497 121.368C253.497 120.096 255.441 119.4 258.921 119.4ZM280.015 111.6V113.256H284.119V111.6H280.015ZM287.743 103.176V124.872H289.663V103.176H287.743ZM283.447 103.632V123.792H285.343V103.632H283.447ZM276.103 104.976C273.295 104.976 271.495 107.88 271.495 112.536C271.495 117.192 273.295 120.096 276.103 120.096C278.911 120.096 280.735 117.192 280.735 112.536C280.735 107.88 278.911 104.976 276.103 104.976ZM276.103 106.824C277.831 106.824 278.911 109.032 278.911 112.536C278.911 116.04 277.831 118.248 276.103 118.248C274.399 118.248 273.319 116.04 273.319 112.536C273.319 109.032 274.399 106.824 276.103 106.824ZM315.947 103.152V124.896H317.915V103.152H315.947ZM310.211 111.216V112.848H316.523V111.216H310.211ZM300.923 104.88V119.448H310.883V104.88H308.915V110.52H302.891V104.88H300.923ZM302.891 112.104H308.915V117.792H302.891V112.104ZM337.93 103.152V124.896H339.922V103.152H337.93ZM323.386 118.008V119.664H325.186C328.906 119.664 332.17 119.52 336.106 118.872L335.89 117.24C332.05 117.864 328.81 118.008 325.186 118.008H323.386ZM323.338 105.192V106.824H331.354V111.312H323.386V118.632H325.378V112.944H333.37V105.192H323.338ZM346.28 105.336V106.992H360.248V105.336H346.28ZM344.216 120.192V121.848H363.824V120.192H344.216ZM351.824 112.44V121.008H353.816V112.44H351.824ZM359.504 105.336V107.496C359.504 110.088 359.504 113.136 358.688 117.288L360.68 117.552C361.472 113.16 361.472 110.184 361.472 107.496V105.336H359.504ZM387.708 103.152V124.872H389.724V103.152H387.708ZM389.172 111.96V113.616H393.18V111.96H389.172ZM382.164 105.504V105.816C382.164 111.552 379.164 116.184 373.164 119.232L374.268 120.768C381.276 117.24 384.108 111.672 384.108 105.504H382.164ZM374.172 105.504V107.136H383.196V105.504H374.172ZM398.794 117.096V124.584H412.954V117.096H398.794ZM411.01 118.68V122.952H400.738V118.68H411.01ZM410.962 103.2V115.92H412.954V103.2H410.962ZM406.762 106.176V107.808H411.418V106.176H406.762ZM396.01 113.472V115.128H397.57C401.962 115.128 404.098 115.08 406.762 114.624L406.57 112.992C403.978 113.424 401.89 113.472 397.57 113.472H396.01ZM395.962 104.304V105.936H403.354V108.792H396.01V114.576H397.978V110.304H405.322V104.304H395.962ZM406.762 110.592V112.224H411.418V110.592H406.762ZM420.5 105.545L420.33 118.091H418.352L418.182 105.545H420.5ZM419.341 123.136C418.92 123.136 418.56 122.986 418.259 122.685C417.957 122.384 417.807 122.023 417.807 121.602C417.807 121.182 417.957 120.821 418.259 120.52C418.56 120.219 418.92 120.068 419.341 120.068C419.761 120.068 420.122 120.219 420.423 120.52C420.724 120.821 420.875 121.182 420.875 121.602C420.875 121.881 420.804 122.136 420.662 122.369C420.526 122.602 420.341 122.79 420.108 122.932C419.881 123.068 419.625 123.136 419.341 123.136Z" fill="black"/>
<g clip-path="url(#clip0_516_328)">
<g opacity="0.2">
<path d="M42.0997 299.955C60.0431 299.955 74.5891 298.275 74.5891 296.204C74.5891 294.132 60.0431 292.453 42.0997 292.453C24.1562 292.453 9.61023 294.132 9.61023 296.204C9.61023 298.275 24.1562 299.955 42.0997 299.955Z" fill="#371A45"/>
</g>
<path d="M54.3957 221.509H23.4891C18.8954 221.509 15.1715 225.233 15.1715 229.826V260.733C15.1715 265.327 18.8954 269.051 23.4891 269.051H54.3957C58.9894 269.051 62.7133 265.327 62.7133 260.733V229.826C62.7133 225.233 58.9894 221.509 54.3957 221.509Z" fill="white"/>
<path d="M54.3957 269.884H23.489C18.4435 269.884 14.3387 265.779 14.3387 260.733V229.827C14.3387 224.781 18.4435 220.677 23.489 220.677H54.3952C59.4408 220.677 63.5455 224.781 63.5455 229.827V260.733C63.5455 265.779 59.4408 269.884 54.3952 269.884H54.3957ZM23.489 222.342C19.3615 222.342 16.0038 225.699 16.0038 229.827V260.733C16.0038 264.861 19.3615 268.219 23.489 268.219H54.3952C58.5228 268.219 61.8805 264.861 61.8805 260.733V229.827C61.8805 225.7 58.5228 222.342 54.3952 222.342H23.489Z" fill="#371A45"/>
<path d="M59.9856 256.603C59.5881 261.303 59.1406 265.882 58.7013 270.053C57.5464 281.053 56.445 289.209 56.445 289.209L55.7042 294.567C55.5252 295.863 54.4159 296.829 53.1066 296.829H40.9517C40.9517 296.829 39.2427 296.917 39.1952 293.89C39.16 291.732 39.5346 283.582 39.2867 274.086C39.2264 271.73 39.1262 269.291 38.9723 266.839L59.9856 256.603V256.603Z" fill="white"/>
<g opacity="0.2">
<path d="M59.9856 256.603C59.5881 261.303 59.1406 265.882 58.7013 270.053C53.2064 273.501 40.038 274.057 39.2867 274.086C39.2264 271.73 39.1262 269.291 38.9723 266.839L59.9856 256.603V256.603Z" fill="#371A45"/>
</g>
<path d="M40.9366 297.663C40.7115 297.663 40.0578 297.609 39.4431 297.033C38.7489 296.384 38.3853 295.331 38.3624 293.905C38.3523 293.247 38.3778 292.086 38.4134 290.479C38.5233 285.505 38.7287 276.245 38.1421 266.893C38.1136 266.434 38.4622 266.039 38.9208 266.01C39.3776 265.979 39.7751 266.33 39.8036 266.789C40.3945 276.212 40.1883 285.517 40.078 290.516C40.0428 292.105 40.0173 293.253 40.0274 293.879C40.0529 295.49 40.5946 295.966 40.9252 295.997C40.9402 295.995 40.9226 295.998 40.9525 295.998H53.1074C53.996 295.998 54.7579 295.334 54.8793 294.454L55.6192 289.097C55.6399 288.944 57.727 273.404 59.1559 256.533C59.1946 256.075 59.5956 255.732 60.0555 255.774C60.5136 255.813 60.8534 256.215 60.8148 256.674C59.3823 273.587 57.2895 289.166 57.2689 289.322L56.5285 294.682C56.2937 296.381 54.823 297.663 53.107 297.663H40.9635C40.9551 297.663 40.9459 297.663 40.9358 297.663L40.9366 297.663Z" fill="#371A45"/>
<path d="M47.6059 279.705C43.3764 279.705 39.5878 279.238 39.2853 279.2C38.9432 279.156 38.7005 278.844 38.7441 278.502C38.7876 278.16 39.0993 277.92 39.4418 277.961C39.5821 277.979 53.4966 279.692 57.5494 276.633C57.8242 276.425 58.2159 276.48 58.4239 276.755C58.6314 277.03 58.5769 277.422 58.3017 277.63C56.1209 279.276 51.661 279.705 47.6064 279.705H47.6059Z" fill="#371A45"/>
<path d="M56.0076 293.196C55.589 293.196 55.2285 292.882 55.1814 292.456C55.035 291.138 54.6732 290.69 54.1364 290.394C52.4291 289.453 44.9509 288.945 42.3054 289.82C40.2073 290.514 40.0543 291.748 40.0491 291.8L39.219 291.735L38.3876 291.69C38.3928 291.593 38.5524 289.307 41.7827 288.239C44.9188 287.202 52.8675 287.794 54.9401 288.936C56.372 289.725 56.7022 291.065 56.8359 292.271C56.8869 292.728 56.5576 293.14 56.1003 293.191C56.0691 293.194 56.0379 293.196 56.0076 293.196V293.196Z" fill="#371A45"/>
<path d="M55.6105 295.56C54.6573 297.171 51.4143 297.252 49.9243 296.035C47.7994 294.299 48.0887 290.161 48.0887 290.161C48.0887 290.161 36.0542 289.341 30.0871 284.668C26.6256 281.958 23.9823 277.991 22.0074 273.81C18.3089 265.974 16.9539 257.378 16.9539 254.857L37.2927 264.581C37.2927 264.581 40.6729 271.891 42.2297 272.99C42.3027 273.042 42.3735 273.08 42.4377 273.103C43.878 273.606 56.2431 276.314 56.1622 279.078C56.0246 283.713 56.8574 293.448 55.6105 295.56V295.56Z" fill="white"/>
<g opacity="0.2">
<path d="M42.2297 272.99C32.5307 273.642 26.3117 270.443 22.0074 273.81C18.3089 265.974 16.9539 257.378 16.9539 254.857L37.2927 264.581C37.2927 264.581 40.6729 271.891 42.2297 272.99Z" fill="#371A45"/>
</g>
<path d="M52.6247 297.703C51.3963 297.703 50.2017 297.336 49.398 296.68C47.5717 295.189 47.2744 292.333 47.2454 290.924C44.4223 290.652 34.846 289.451 29.5736 285.324C19.4855 277.427 16.1216 259.078 16.1216 254.856C16.1216 254.396 16.4944 254.023 16.9543 254.023C17.4142 254.023 17.787 254.396 17.787 254.856C17.787 256.475 18.4694 261.822 20.5793 268.024C22.3019 273.088 25.4385 279.972 30.6002 284.013C36.3013 288.476 48.0285 289.322 48.1463 289.33C48.3666 289.345 48.5723 289.448 48.7174 289.614C48.8625 289.781 48.9355 289.999 48.9201 290.219C48.8502 291.252 48.9891 294.196 50.4515 295.39C51.1057 295.923 52.3139 296.163 53.3911 295.97C54.1081 295.843 54.6564 295.538 54.8943 295.136C55.636 293.881 55.494 288.438 55.3906 284.464C55.3374 282.428 55.2878 280.504 55.3309 279.053C55.3309 279.044 55.3102 278.147 51.2336 276.607C48.7007 275.65 45.6494 274.838 43.8262 274.354C42.993 274.132 42.443 273.986 42.1642 273.888C40.6223 273.348 37.9764 268.044 36.537 264.93C36.3439 264.513 36.526 264.018 36.9432 263.825C37.36 263.631 37.8555 263.813 38.0485 264.231C39.7047 267.812 41.9756 271.907 42.7292 272.321C42.9578 272.399 43.532 272.551 44.2544 272.743C52.1745 274.849 57.0684 276.647 56.9954 279.101C56.9537 280.507 57.0033 282.408 57.0557 284.42C57.2113 290.397 57.2447 294.431 56.3285 295.982C55.8356 296.816 54.8965 297.393 53.6834 297.609C53.3339 297.672 52.9782 297.701 52.6256 297.701L52.6247 297.703Z" fill="#371A45"/>
<path d="M61.4655 257.095C61.3406 257.67 61.1969 258.221 61.0368 258.752C60.4538 260.7 59.6444 262.365 58.664 263.789C55.975 267.693 52.0017 269.77 47.8618 270.83C44.8356 271.604 41.7219 271.833 38.9516 271.833C36.8201 271.833 34.4829 271.698 32.1394 271.281C27.7727 270.507 23.3853 268.761 20.261 265.114C18.8396 263.455 17.678 261.403 16.9016 258.868C16.7266 258.302 16.5727 257.711 16.4373 257.095C16.0939 255.517 15.9295 253.844 15.9334 252.087C15.9479 245.489 18.3393 237.713 22.5666 229.38C22.5666 229.38 22.5895 228.507 22.8603 227.165C23.6931 223.036 26.8709 214.456 38.9428 213.205C52.4506 211.807 54.834 224.307 55.2504 228.226C55.3252 228.949 55.3357 229.38 55.3357 229.38C59.2984 237.187 61.6462 244.503 61.9399 250.819C62.0419 253.042 61.8898 255.14 61.4655 257.095V257.095Z" fill="white"/>
<g opacity="0.2">
<path d="M61.4655 257.095C61.3407 257.669 61.1969 258.221 61.0369 258.751C58.7559 258.294 56.6473 258.079 55.126 257.977C53.8312 257.892 52.7386 258.93 52.7554 260.229L52.7593 260.587C52.7822 262.477 51.2543 264.023 49.3647 264.023H28.6741C26.8363 264.023 25.3335 262.562 25.2794 260.726L25.2627 260.131C25.2231 258.818 24.0659 257.823 22.7632 257.983C21.1127 258.187 18.8792 258.495 16.902 258.868C16.7271 258.302 16.5732 257.711 16.4378 257.095C16.0944 255.517 15.93 253.844 15.9339 252.087L61.9399 250.819C62.0419 253.042 61.8898 255.14 61.4655 257.095V257.095Z" fill="#371A45"/>
</g>
<g opacity="0.2">
<path d="M55.2504 228.226C51.173 230.855 45.7532 232.46 39.8046 232.46C33.0944 232.46 27.0565 230.418 22.8604 227.165C23.6931 223.036 26.871 214.456 38.9428 213.205C52.4506 211.807 54.8341 224.307 55.2504 228.226V228.226Z" fill="#371A45"/>
</g>
<path d="M25.071 224.337L24.1675 228.1C23.2723 227.511 22.4462 226.87 21.6948 226.187C22.7316 225.501 23.8553 224.88 25.0706 224.337H25.071Z" fill="#D8D8D8"/>
<path d="M57.9065 226.193C56.9093 227.1 55.7772 227.931 54.5325 228.667L52.7839 223.491C54.7488 224.039 56.4534 225.023 57.906 226.193L57.9065 226.193Z" fill="#D8D8D8"/>
<g opacity="0.2">
<path d="M61.4655 257.095C60.8825 259.774 59.9109 261.978 58.664 263.788C55.975 267.693 52.0018 269.77 47.8619 270.83C44.8357 271.604 41.722 271.833 38.9517 271.833C36.8202 271.833 34.4829 271.698 32.1395 271.281C27.7727 270.507 23.3853 268.761 20.2611 265.114C18.5209 263.085 17.1724 260.464 16.4378 257.095C16.0152 255.159 15.8631 253.077 15.9612 250.878C16.0196 252.183 16.1775 253.436 16.4378 254.635C17.1724 258.004 18.5213 260.625 20.2611 262.654C23.3853 266.301 27.7727 268.045 32.1395 268.821C34.4829 269.235 36.8206 269.373 38.9517 269.373C41.722 269.373 44.8357 269.144 47.8619 268.37C52.0018 267.31 55.975 265.231 58.664 261.329C59.9109 259.516 60.8825 257.311 61.4655 254.635C61.7258 253.436 61.8841 252.181 61.9443 250.876C62.0402 253.078 61.8881 255.157 61.4655 257.095V257.095Z" fill="#371A45"/>
</g>
<path d="M19.9441 265.387C18.0381 263.795 16.8409 261.507 16.0979 259.168C14.2069 253.319 15.0291 246.959 16.8035 241.199C17.1474 240.047 17.5519 238.917 17.977 237.796C18.1401 237.366 18.6207 237.15 19.0507 237.313C19.4732 237.473 19.6886 237.941 19.5422 238.364C18.8049 240.577 18.1419 242.812 17.6728 245.079C16.8493 248.993 16.509 253.073 17.3184 257.01C17.8869 259.823 19.1157 262.377 20.5759 264.844C20.8181 265.241 20.3028 265.691 19.9436 265.386L19.9441 265.387Z" fill="#371A45"/>
<path d="M47.9643 271.234C43.4225 273.112 36.7651 273.005 32.066 271.692C31.5951 271.551 31.7187 270.841 32.2115 270.872C36.103 271.13 39.9958 271.085 43.878 270.779C45.1697 270.691 46.4518 270.544 47.7624 270.427C48.2324 270.384 48.4017 271.051 47.9643 271.234V271.234Z" fill="#371A45"/>
<path d="M59.6492 237.046C62.5743 244.518 64.5001 253.464 60.9709 261.059C60.4481 262.13 59.7987 263.143 59.006 264.025C58.8508 264.197 58.5857 264.211 58.4133 264.057C58.2687 263.926 58.2353 263.718 58.3206 263.553C58.8271 262.547 59.2733 261.535 59.6462 260.497C61.9403 254.438 61.1322 247.771 59.3802 241.664C58.9924 240.308 58.5417 238.943 58.0827 237.608C57.764 236.582 59.2333 236.042 59.6492 237.046V237.046Z" fill="#371A45"/>
<path d="M51.0627 250.738C51.0627 250.738 58.3444 250.183 61.4098 252.39C64.6672 254.735 61.3851 257.449 61.3851 257.449C61.3851 257.449 55.5205 256.168 50.5953 256.351L51.0627 250.738V250.738Z" fill="white"/>
<path d="M27.4369 250.738C27.4369 250.738 20.1552 250.183 17.0898 252.39C13.8324 254.735 17.1145 257.449 17.1145 257.449C17.1145 257.449 22.9792 256.168 27.9043 256.351L27.4369 250.738V250.738Z" fill="white"/>
<path d="M61.3842 257.448C61.3842 257.448 55.5208 256.169 50.5944 256.349L50.7693 254.264C55.6584 254.116 61.3842 255.367 61.3842 255.367C61.3842 255.367 62.2002 254.69 62.6143 253.723C63.5552 255.654 61.3842 257.448 61.3842 257.448Z" fill="#D8D8D8"/>
<g opacity="0.2">
<path d="M27.9038 256.35C22.9792 256.169 17.114 257.449 17.114 257.449C17.114 257.449 14.9434 255.655 15.8839 253.724C16.298 254.691 17.114 255.368 17.114 255.368C17.114 255.368 22.8442 254.117 27.731 254.265L27.9038 256.35Z" fill="#371A45"/>
</g>
<path d="M61.6037 258.348L61.208 258.261C61.1508 258.249 55.3846 257.008 50.6265 257.182L49.6879 257.217L50.2924 249.961L50.9998 249.907C51.3098 249.884 58.6227 249.356 61.8965 251.713C63.0444 252.54 63.6455 253.52 63.6824 254.627C63.7466 256.553 61.991 258.027 61.9163 258.089L61.6041 258.347L61.6037 258.348ZM51.5986 255.499C55.5732 255.499 59.7782 256.273 61.1271 256.544C61.5157 256.129 62.0438 255.398 62.0174 254.677C61.9963 254.115 61.6283 253.572 60.9231 253.065C58.6693 251.442 53.6813 251.462 51.8317 251.531L51.5015 255.499C51.534 255.499 51.5661 255.499 51.5986 255.499V255.499Z" fill="#371944"/>
<path d="M16.8955 258.347L16.5833 258.089C16.5086 258.027 14.7525 256.553 14.8172 254.627C14.8541 253.52 15.4551 252.54 16.6031 251.714C19.8773 249.356 27.1902 249.883 27.5002 249.908L28.2076 249.962L28.8121 257.217L27.8734 257.182C23.1141 257.008 17.3496 258.249 17.292 258.262L16.8963 258.348L16.8955 258.347ZM25.3977 251.508C23.111 251.508 19.424 251.734 17.5756 253.065C16.8704 253.573 16.5024 254.115 16.4813 254.677C16.4545 255.398 16.9821 256.127 17.3716 256.544C18.7209 256.273 22.9255 255.5 26.9 255.5C26.9326 255.5 26.9647 255.5 26.9972 255.5L26.667 251.532C26.3342 251.519 25.8993 251.508 25.3977 251.508V251.508Z" fill="#371944"/>
<path d="M51.533 248.568V258.938C51.533 260.862 50.0171 262.436 48.1665 262.436H29.7802C27.9275 262.436 26.4137 260.861 26.4137 258.938V248.568C26.4137 246.646 27.9275 245.072 29.7802 245.072H48.1665C49.6451 245.072 50.9109 246.077 51.3594 247.463C51.471 247.811 51.533 248.182 51.533 248.569V248.568Z" fill="white"/>
<g opacity="0.2">
<path d="M51.533 248.568V258.937C51.533 260.862 50.0171 262.436 48.1665 262.436H29.7802C27.9275 262.436 26.4137 260.861 26.4137 258.937V255.447C29.5859 257.27 35.8704 260.009 42.1779 257.749C45.259 256.645 48.7917 252.859 48.7917 252.859C48.7917 252.859 48.928 256.831 49.4952 256.768C51.0727 256.594 51.0613 248.558 51.3594 247.462C51.471 247.81 51.533 248.181 51.533 248.568V248.568Z" fill="#371A45"/>
</g>
<path d="M48.3627 263.267H29.5829C27.3758 263.267 25.5802 261.471 25.5802 259.264V248.242C25.5802 246.035 27.3758 244.239 29.5829 244.239H48.3627C50.5698 244.239 52.3654 246.035 52.3654 248.242V259.264C52.3654 261.471 50.5698 263.267 48.3627 263.267ZM29.5829 245.904C28.2938 245.904 27.2452 246.953 27.2452 248.242V259.264C27.2452 260.553 28.2938 261.602 29.5829 261.602H48.3627C49.6518 261.602 50.7004 260.553 50.7004 259.264V248.242C50.7004 246.953 49.6518 245.904 48.3627 245.904H29.5829Z" fill="#371944"/>
<path d="M45.4864 256.769C47.09 256.769 48.39 255.419 48.39 253.753C48.39 252.088 47.09 250.738 45.4864 250.738C43.8828 250.738 42.5829 252.088 42.5829 253.753C42.5829 255.419 43.8828 256.769 45.4864 256.769Z" fill="#22A7F0"/>
<path d="M48.3904 253.754C48.3904 253.959 48.3715 254.159 48.3333 254.352C48.0651 252.971 46.8912 251.932 45.4856 251.932C44.0799 251.932 42.906 252.971 42.64 254.352C42.6018 254.159 42.5829 253.959 42.5829 253.754C42.5829 252.088 43.8821 250.737 45.4856 250.737C47.089 250.737 48.3904 252.088 48.3904 253.754Z" fill="white"/>
<path d="M48.39 253.753C48.39 255.42 47.0894 256.768 45.4864 256.768C43.8834 256.768 42.5829 255.419 42.5829 253.753C42.5829 253.474 42.6203 253.201 42.6884 252.945C43.0296 254.217 44.1547 255.151 45.4864 255.151C46.8182 255.151 47.9433 254.217 48.2845 252.945C48.3526 253.201 48.39 253.474 48.39 253.753V253.753Z" fill="#1C7AEA"/>
<path d="M45.4864 257.393C43.5413 257.393 41.9585 255.76 41.9585 253.753C41.9585 251.746 43.5413 250.113 45.4864 250.113C47.4314 250.113 49.0142 251.746 49.0142 253.753C49.0142 255.76 47.4314 257.393 45.4864 257.393ZM45.4864 251.362C44.2298 251.362 43.2076 252.435 43.2076 253.753C43.2076 255.072 44.2298 256.144 45.4864 256.144C46.7429 256.144 47.7656 255.072 47.7656 253.753C47.7656 252.435 46.7434 251.362 45.4864 251.362Z" fill="#371944"/>
<path d="M36.2965 263.267C35.8366 263.267 35.4638 262.894 35.4638 262.434V257.127C35.4638 256.074 34.9832 255.07 34.1786 254.442L33.7117 254.076C32.5066 253.134 31.7869 251.64 31.7869 250.079V245.071C31.7869 244.611 32.1597 244.238 32.6196 244.238C33.0795 244.238 33.4523 244.611 33.4523 245.071V250.079C33.4523 251.131 33.9329 252.135 34.7375 252.764L35.2044 253.13C36.4095 254.072 37.1288 255.566 37.1288 257.127V262.434C37.1288 262.894 36.756 263.267 36.2961 263.267H36.2965Z" fill="#371944"/>
<path d="M66.1945 250.445C65.6199 251.671 64.7731 252.805 63.5825 253.777C55.4861 260.376 39.2638 250.683 30.237 246.174C27.931 245.021 26.0932 244.207 24.9817 244.093C24.9817 244.093 23.2939 239.448 24.4282 237.803C25.2315 236.64 28.2599 235.458 31.3863 236.839C33.1265 237.753 35.9092 239.196 38.4878 239.63C38.7793 239.681 39.0747 239.726 39.3702 239.77C43.3562 240.363 47.679 240.519 50.7553 240.542C53.2592 240.559 54.9365 240.486 54.9365 240.486L56.1768 233.538L52.7844 223.491C59.6902 225.412 63.3618 232.745 64.3027 234.445C65.5891 236.768 68.9231 244.634 66.1945 250.445V250.445Z" fill="white"/>
<g opacity="0.2">
<path d="M57.9065 226.193C56.9093 227.101 55.7772 227.931 54.5325 228.668L52.7839 223.492C54.7488 224.04 56.4534 225.024 57.906 226.194L57.9065 226.193Z" fill="#371A45"/>
</g>
<g opacity="0.2">
<path d="M66.1946 250.446C65.6199 251.671 64.7731 252.806 63.5825 253.778C55.4861 260.376 39.2638 250.683 30.2371 246.175L39.3702 239.771C43.3562 240.364 47.679 240.52 50.7553 240.543C48.6467 244.185 43.3479 248.735 48.5636 252.123C54.5953 256.042 62.6605 254.126 66.1946 250.446V250.446Z" fill="#371A45"/>
</g>
<path d="M56.5871 233.611C56.4147 236.005 56.2947 238.429 55.7209 240.764C55.6303 241.108 55.3129 241.332 54.9713 241.318C50.1517 241.463 45.351 241.348 40.5622 240.767C38.9504 240.573 37.2585 240.32 35.7355 239.746C34.1813 239.19 32.7106 238.472 31.298 237.732C29.4734 236.77 26.6349 236.716 25.1383 238.243C24.9084 238.576 24.882 238.986 24.8688 239.45C24.8653 240.141 24.9822 240.888 25.1431 241.624C25.3054 242.357 25.5208 243.114 25.7639 243.809L25.068 243.265C26.0216 243.387 26.8029 243.703 27.6483 244.046C36.388 247.81 52.0299 258.436 61.4181 254.173C68.7943 250.467 66.6602 240.482 63.4076 234.543C61.0409 230.105 57.5653 225.713 52.5593 224.291C51.5102 223.969 51.9389 222.421 53.0077 222.688C58.701 224.293 62.5608 229.271 65.1693 234.298C68.6783 241.105 70.3301 251.557 62.1453 255.671C52.6151 260.083 37.8362 250.743 29.199 246.59C27.8097 245.948 26.3777 245.163 24.8811 244.919C24.5584 244.884 24.3003 244.664 24.1992 244.377C23.5278 242.289 22.2457 238.249 24.3689 236.672C26.6033 235.009 29.6585 235.032 32.063 236.252C34.1325 237.324 36.1998 238.337 38.4601 238.776C43.868 239.665 49.432 239.806 54.9001 239.654C54.9009 239.654 54.1166 240.339 54.1166 240.339C54.2296 239.164 54.5299 238.023 54.8139 236.878C55.1067 235.733 55.4145 234.593 55.768 233.463C55.9122 233.002 56.6108 233.12 56.5875 233.61L56.5871 233.611Z" fill="#371A45"/>
<path d="M50.164 240.248C50.1473 240.398 50.1139 240.486 50.1139 240.486C44.6585 241.054 25.8141 258.618 15.984 253.752C12.2812 251.921 10.7599 246.011 12.221 239.774V239.77C13.6028 233.859 17.6618 227.652 25.071 224.337L22.8626 233.539L24.3403 240.132C24.3403 240.132 37.386 235.158 44.5108 236.5C49.9723 237.529 50.2409 239.558 50.1635 240.249L50.164 240.248Z" fill="white"/>
<g opacity="0.2">
<path d="M25.071 224.337L24.1675 228.1C23.2723 227.511 22.4462 226.87 21.6948 226.187C22.7316 225.501 23.8553 224.88 25.0706 224.337H25.071Z" fill="#371A45"/>
</g>
<g opacity="0.2">
<path d="M50.164 240.249C50.1473 240.399 50.1139 240.486 50.1139 240.486C44.6585 241.054 25.8141 258.619 15.984 253.753C12.2812 251.921 10.7599 246.012 12.221 239.774C12.221 240.001 12.2627 250.398 19.7304 251.316C29.0443 252.458 43.5743 239.991 50.164 240.249V240.249Z" fill="#371A45"/>
</g>
<path d="M23.2684 233.446C23.6443 234.515 23.9855 235.593 24.3157 236.674C24.6336 237.756 24.9954 238.83 25.1532 239.949L24.0444 239.354C28.5532 237.721 33.1142 236.404 37.8723 235.727C41.5356 235.216 45.3602 235.264 48.7456 237.005C50.0338 237.645 51.4355 239.182 50.8921 240.783C50.6393 241.463 49.891 241.261 49.2701 241.549C46.8177 242.504 44.6225 244.016 42.3701 245.395C37.1183 248.68 31.8577 252.195 25.9591 254.278C21.3853 255.93 15.2489 256.401 12.5081 251.463C10.126 247.112 10.5546 241.8 12.0772 237.282C14.1432 231.21 18.8665 226.142 24.7316 223.577C25.1519 223.388 25.6461 223.577 25.8334 223.998C26.0203 224.418 25.8316 224.91 25.4113 225.097C19.945 227.492 15.5773 232.177 13.6503 237.828C12.1207 242.243 11.6485 248.739 15.2221 252.23C16.8137 253.635 19.0059 253.91 21.1096 253.71C25.5942 253.18 29.6893 251.003 33.6264 248.809C38.3449 246.179 42.7187 242.891 47.5744 240.452C48.3662 240.095 49.1154 239.771 50.0281 239.658L49.3365 240.19L49.3269 240.218C49.326 240.221 49.3269 240.218 49.3269 240.218C49.3295 240.203 49.3348 240.186 49.3357 240.166C49.3563 239.361 48.6366 238.868 47.9437 238.464C44.9584 236.939 41.4446 236.905 38.0952 237.377C33.524 238.023 28.9748 239.337 24.6384 240.91C24.1574 241.147 23.6241 240.827 23.5296 240.314C23.1941 239.234 23.0626 238.109 22.8885 236.995C22.7254 235.876 22.5733 234.755 22.4572 233.629C22.4119 233.14 23.1035 232.983 23.2697 233.447L23.2684 233.446Z" fill="#371A45"/>
<path d="M16.546 254.627C16.24 254.627 15.9731 254.403 15.9287 254.091C15.9129 253.98 15.5497 251.33 16.3609 248.21C17.118 245.298 19.0793 241.431 24.1223 239.547C24.4463 239.427 24.8051 239.591 24.926 239.914C25.0465 240.237 24.8825 240.596 24.5597 240.717C20.9277 242.074 18.5794 244.687 17.5801 248.484C16.8212 251.368 17.1615 253.891 17.165 253.916C17.213 254.257 16.9751 254.573 16.6339 254.621C16.6045 254.626 16.5746 254.627 16.5455 254.627H16.546Z" fill="#371A45"/>
<path d="M63.5812 254.401C63.2558 254.401 62.9815 254.149 62.9586 253.819C62.3536 244.999 54.7334 241.084 54.6564 241.045C54.3482 240.891 54.2229 240.516 54.3768 240.208C54.5311 239.9 54.9049 239.774 55.2135 239.928C55.5534 240.097 63.5491 244.184 64.2046 253.734C64.2284 254.078 63.9685 254.376 63.6243 254.4C63.6098 254.401 63.5953 254.401 63.5808 254.401H63.5812Z" fill="#371A45"/>
<path d="M31.5521 286.298C31.4703 286.298 31.3873 286.281 31.3072 286.248C30.9902 286.112 30.8429 285.745 30.9779 285.428C31.1296 285.072 34.7806 276.652 41.8398 272.403C42.1357 272.225 42.5187 272.32 42.6967 272.616C42.8744 272.911 42.7794 273.295 42.4839 273.473C35.7773 277.509 32.1619 285.835 32.1263 285.918C32.0252 286.155 31.7944 286.298 31.5517 286.298H31.5521Z" fill="#371A45"/>
<path d="M70.6391 186.696C70.6391 186.696 77.7313 189.385 78.4603 190.698C79.8114 193.132 79.5608 207.439 75.8227 211.169C74.3591 212.629 63.6053 213.994 63.6053 213.994L70.6395 186.697L70.6391 186.696Z" fill="white"/>
<g opacity="0.2">
<path d="M63.605 213.994C63.605 213.994 74.3587 212.628 75.8219 211.168C77.2807 209.713 78.2097 206.643 78.7162 203.299C78.5975 203.406 74.7993 206.684 67.2221 200.021C67.2181 200.017 67.2124 200.013 67.2085 200.009L63.605 213.994V213.994Z" fill="#371A45"/>
</g>
<path d="M39.8952 201.628V201.75L39.8174 201.69L39.8952 201.628Z" fill="#D8D8D8"/>
<path d="M39.8173 201.69L39.7395 201.75V201.628L39.8173 201.69Z" fill="#D8D8D8"/>
<path d="M16.3942 213.995C16.3942 213.995 5.64049 212.629 4.17729 211.168C2.71848 209.714 1.78947 206.644 1.28297 203.299L1.28122 203.298C0.488501 198.077 0.716247 192.183 1.54018 190.699C2.2687 189.386 9.36049 186.696 9.36049 186.696L12.7908 200.01L16.3942 213.995V213.995Z" fill="white"/>
<g opacity="0.2">
<path d="M16.3942 213.994C16.3942 213.994 5.64047 212.628 4.17727 211.168C2.71846 209.713 1.78945 206.643 1.28296 203.299C1.40167 203.406 5.19993 206.684 12.7771 200.021C12.7811 200.017 12.7868 200.013 12.7907 200.009L16.3942 213.994Z" fill="#371A45"/>
</g>
<path d="M62.5642 214.911L70.1023 185.659L70.9161 185.968C73.1285 186.807 78.3592 188.91 79.1418 190.32C80.6393 193.018 80.4493 207.653 76.3736 211.72C74.8009 213.289 65.5434 214.533 63.7038 214.767L62.5646 214.911L62.5642 214.911ZM71.175 187.739L64.6478 213.069C69.4876 212.399 74.5328 211.355 75.2727 210.617C78.725 207.172 78.9901 193.257 77.7792 191.076C77.4156 190.477 74.2197 188.943 71.175 187.739V187.739Z" fill="#371A45"/>
<path d="M17.4358 214.911L16.2966 214.767C14.4566 214.533 5.19903 213.289 3.62679 211.72C-0.448902 207.653 -0.638837 193.018 0.85866 190.32C1.64126 188.91 6.87195 186.807 9.08434 185.968L9.89816 185.659L17.4358 214.911V214.911ZM8.82494 187.74C5.7807 188.944 2.58478 190.478 2.2203 191.078C1.01034 193.257 1.27546 207.172 4.72815 210.618C5.46766 211.355 10.5124 212.4 15.3526 213.07L8.82494 187.74Z" fill="#371A45"/>
<path d="M39.9972 228.544C58.1574 228.544 72.8792 213.823 72.8792 195.662C72.8792 177.502 58.1574 162.78 39.9972 162.78C21.8369 162.78 7.11511 177.502 7.11511 195.662C7.11511 213.823 21.8369 228.544 39.9972 228.544Z" fill="white"/>
<g opacity="0.2">
<path d="M72.8801 195.662C72.8801 213.822 58.1584 228.544 39.9981 228.544C21.8377 228.544 7.11426 213.822 7.11426 195.662C7.11426 193.744 7.27781 191.864 7.59525 190.038C10.2631 205.518 23.7556 217.294 39.9985 217.294C56.2415 217.294 69.7317 205.518 72.3996 190.038C72.7166 191.864 72.8806 193.744 72.8806 195.662H72.8801Z" fill="#371A45"/>
</g>
<path d="M39.9972 229.324C21.4363 229.324 6.33557 214.223 6.33557 195.663C6.33557 177.102 21.4363 162.001 39.9972 162.001C58.558 162.001 73.6583 177.101 73.6583 195.663C73.6583 214.224 58.558 229.324 39.9972 229.324V229.324ZM39.9972 163.56C22.2954 163.56 7.89374 177.961 7.89374 195.663C7.89374 213.364 22.2954 227.766 39.9972 227.766C57.6989 227.766 72.1001 213.364 72.1001 195.663C72.1001 177.961 57.6989 163.559 39.9972 163.559V163.56Z" fill="#371A45"/>
<path d="M39.9972 229.324C21.4363 229.324 6.33557 214.223 6.33557 195.663C6.33557 177.102 21.4363 162.001 39.9972 162.001C58.558 162.001 73.6583 177.101 73.6583 195.663C73.6583 214.224 58.558 229.324 39.9972 229.324V229.324ZM39.9972 163.56C22.2954 163.56 7.89374 177.961 7.89374 195.663C7.89374 213.364 22.2954 227.766 39.9972 227.766C57.6989 227.766 72.1001 213.364 72.1001 195.663C72.1001 177.961 57.6989 163.559 39.9972 163.559V163.56Z" fill="#371A45"/>
<path d="M39.9972 229.324C21.4363 229.324 6.33557 214.223 6.33557 195.663C6.33557 177.102 21.4363 162.001 39.9972 162.001C58.558 162.001 73.6583 177.101 73.6583 195.663C73.6583 214.224 58.558 229.324 39.9972 229.324V229.324ZM39.9972 163.56C22.2954 163.56 7.89374 177.961 7.89374 195.663C7.89374 213.364 22.2954 227.766 39.9972 227.766C57.6989 227.766 72.1001 213.364 72.1001 195.663C72.1001 177.961 57.6989 163.559 39.9972 163.559V163.56Z" fill="#371A45"/>
<path d="M39.9963 229.322C24.6595 229.322 11.2717 218.976 7.41978 204.156C7.41363 204.138 7.40835 204.12 7.40308 204.101C6.69478 201.367 6.33557 198.528 6.33557 195.662C6.33557 194.391 6.4068 193.122 6.54749 191.892C8.44332 174.852 22.8234 162.001 39.9963 162.001C57.1691 162.001 71.5558 174.856 73.4481 191.903C73.5866 193.14 73.6574 194.405 73.6574 195.662C73.6574 198.523 73.2995 201.362 72.593 204.101C72.5882 204.12 72.5824 204.138 72.5763 204.157C68.7217 218.977 55.3326 229.323 39.9967 229.323L39.9963 229.322ZM8.91684 203.722C12.5748 217.878 25.3537 227.764 39.9963 227.764C54.6389 227.764 67.4181 217.878 71.0788 203.722C71.0841 203.7 71.0902 203.679 71.0972 203.658C71.762 201.063 72.0992 198.374 72.0992 195.662C72.0992 194.462 72.032 193.256 71.8996 192.076C70.0948 175.818 56.3795 163.559 39.9963 163.559C23.6131 163.559 9.90433 175.815 8.09643 192.066C7.96189 193.24 7.89418 194.45 7.89418 195.662C7.89418 198.378 8.23228 201.068 8.89881 203.658C8.90585 203.679 8.912 203.7 8.91728 203.721L8.91684 203.722Z" fill="#371A45"/>
<path d="M71.7335 187.818C71.4305 187.818 71.1443 187.639 71.0181 187.346C65.8222 175.283 53.6457 167.489 39.9972 167.489C26.3487 167.489 14.1827 175.277 8.98148 187.329C8.81969 187.705 8.39453 187.891 8.00939 187.756C7.62336 187.621 7.40749 187.211 7.51432 186.816C11.4788 172.205 24.8358 162 39.9972 162C55.1585 162 68.5279 172.213 72.4857 186.835C72.5926 187.23 72.3762 187.639 71.9902 187.774C71.9054 187.803 71.8188 187.818 71.7339 187.818H71.7335ZM39.9972 165.931C50.2985 165.931 59.801 170.185 66.3379 177.303C60.4552 168.887 50.6982 163.558 39.9972 163.558C29.2962 163.558 19.5475 168.883 13.6639 177.295C20.2013 170.182 29.7015 165.931 39.9972 165.931Z" fill="#371A45"/>
<path d="M72.8775 195.663C72.8775 198.509 72.517 201.274 71.8377 203.907C71.8377 203.907 71.8346 203.907 71.8346 203.91C66.1304 214.93 54.0159 224.413 39.9959 224.413C25.9759 224.413 13.864 214.93 8.16022 203.91C8.16022 203.907 8.15714 203.907 8.15714 203.907C7.47478 201.274 7.11426 198.509 7.11426 195.663C7.11426 194.419 7.18329 193.189 7.32178 191.981C11.7576 179.707 24.7079 170.826 39.9963 170.826C55.2848 170.826 68.2408 179.713 72.6735 191.99C72.8089 193.195 72.8779 194.421 72.8779 195.662L72.8775 195.663Z" fill="#371A45"/>
<g opacity="0.35">
<path d="M72.8788 195.664C72.8788 198.51 72.5183 201.275 71.839 203.907C71.839 203.907 71.8359 203.907 71.8359 203.91C66.1317 214.931 54.0172 224.413 39.9972 224.413C25.9772 224.413 13.8657 214.931 8.16153 203.91C8.16153 203.907 8.15845 203.907 8.15845 203.907C7.75264 202.339 7.46114 200.725 7.28967 199.072C14.662 207.355 25.3819 213.38 37.3161 213.38C52.5201 213.38 65.7619 203.601 72.6141 191.832C72.6352 191.886 72.6563 191.937 72.6744 191.991C72.8098 193.196 72.8788 194.423 72.8788 195.664V195.664Z" fill="#111A28"/>
</g>
<path d="M39.9958 224.852C33.3199 224.852 26.6515 222.71 20.7117 218.657C15.3236 214.981 10.7331 209.825 7.78335 204.138C7.76048 204.101 7.74246 204.061 7.73103 204.017C7.02976 201.31 6.67407 198.5 6.67407 195.663C6.67407 194.406 6.74486 193.15 6.88423 191.931C6.88819 191.897 6.8961 191.864 6.90753 191.832C9.14411 185.644 13.4458 180.319 19.3465 176.434C25.3558 172.478 32.496 170.387 39.9954 170.387C47.4947 170.387 54.6371 172.479 60.6477 176.437C66.5498 180.324 70.851 185.651 73.0862 191.841C73.0981 191.874 73.1056 191.907 73.1096 191.941C73.2467 193.164 73.3166 194.417 73.3166 195.663C73.3166 198.496 72.9623 201.307 72.2632 204.017C72.2518 204.061 72.2342 204.102 72.2109 204.139C69.2616 209.825 64.6706 214.981 59.2812 218.657C53.34 222.711 46.6712 224.853 39.9958 224.853V224.852ZM8.56859 203.743C13.7988 213.819 25.5361 223.973 39.9958 223.973C54.4555 223.973 66.1954 213.819 71.4256 203.743C72.097 201.121 72.4377 198.403 72.4377 195.663C72.4377 194.467 72.3718 193.266 72.2421 192.091C67.7179 179.633 54.7668 171.266 39.9958 171.266C25.2248 171.266 12.2785 179.629 7.75257 192.082C7.62067 193.252 7.55384 194.457 7.55384 195.663C7.55384 198.407 7.89546 201.125 8.56903 203.743L8.56859 203.743Z" fill="#371A45"/>
<g opacity="0.5">
<path d="M67.5813 195.753C68.084 192.618 66.6501 189.782 64.3786 189.418C62.1072 189.053 59.8583 191.299 59.3557 194.434C58.853 197.568 60.2869 200.405 62.5584 200.769C64.8299 201.133 67.0787 198.887 67.5813 195.753Z" fill="white"/>
</g>
<g opacity="0.5">
<path d="M60.7608 207.243C61.1881 205.85 60.5652 204.423 59.3697 204.056C58.1741 203.69 56.8586 204.522 56.4313 205.915C56.0041 207.308 56.6269 208.735 57.8225 209.101C59.018 209.468 60.3336 208.636 60.7608 207.243Z" fill="white"/>
</g>
<g opacity="0.5">
<path d="M14.6931 205.429C14.6931 205.429 9.15113 188.953 17.9541 182.164C26.7571 175.375 39.6146 175.141 39.3306 175.972C39.3306 175.972 25.1663 179.706 19.8253 191.072C15.7065 199.836 14.6931 205.43 14.6931 205.43V205.429Z" fill="white"/>
</g>
</g>
<defs>
<clipPath id="clip0_516_328">
<rect width="80" height="137.954" fill="white" transform="translate(0 162)"/>
</clipPath>
</defs>
</svg>
