<svg width="500" height="300" viewBox="0 0 500 300" fill="none" xmlns="http://www.w3.org/2000/svg">
<g clip-path="url(#clip0_516_210)">
<path d="M65.2653 69L374.228 74.1125C407.394 74.1125 434 80.2925 434 87.9968L414.975 131.606C414.975 139.311 393.759 144.904 360.594 144.904L214.299 145.75H178.732L97 162.5L115.5 144.904L73 145.75C39.8338 145.75 30.1195 139.304 30.1195 131.6L0 85.4547C0 77.7503 32.1007 69 65.2653 69Z" fill="white" stroke="black" stroke-width="2" stroke-linecap="round" stroke-linejoin="round"/>
<g clip-path="url(#clip1_516_210)">
<g opacity="0.2">
<path d="M42.0995 299.955C60.043 299.955 74.589 298.275 74.589 296.204C74.589 294.132 60.043 292.453 42.0995 292.453C24.1561 292.453 9.61011 294.132 9.61011 296.204C9.61011 298.275 24.1561 299.955 42.0995 299.955Z" fill="#371A45"/>
</g>
<path d="M54.3958 221.509H23.4892C18.8955 221.509 15.1716 225.233 15.1716 229.826V260.733C15.1716 265.327 18.8955 269.051 23.4892 269.051H54.3958C58.9895 269.051 62.7134 265.327 62.7134 260.733V229.826C62.7134 225.233 58.9895 221.509 54.3958 221.509Z" fill="white"/>
<path d="M54.3958 269.884H23.4892C18.4436 269.884 14.3389 265.779 14.3389 260.733V229.827C14.3389 224.781 18.4436 220.677 23.4892 220.677H54.3954C59.441 220.677 63.5457 224.781 63.5457 229.827V260.733C63.5457 265.779 59.441 269.884 54.3954 269.884H54.3958ZM23.4892 222.342C19.3616 222.342 16.0039 225.699 16.0039 229.827V260.733C16.0039 264.861 19.3616 268.219 23.4892 268.219H54.3954C58.5229 268.219 61.8807 264.861 61.8807 260.733V229.827C61.8807 225.7 58.5229 222.342 54.3954 222.342H23.4892Z" fill="#371A45"/>
<path d="M59.9855 256.603C59.588 261.303 59.1405 265.882 58.7012 270.053C57.5462 281.053 56.4449 289.209 56.4449 289.209L55.704 294.567C55.5251 295.863 54.4158 296.829 53.1065 296.829H40.9515C40.9515 296.829 39.2426 296.917 39.1951 293.89C39.1599 291.732 39.5345 283.582 39.2865 274.086C39.2263 271.73 39.1261 269.291 38.9722 266.839L59.9855 256.603V256.603Z" fill="white"/>
<g opacity="0.2">
<path d="M59.9855 256.603C59.588 261.303 59.1405 265.882 58.7012 270.053C53.2063 273.501 40.0379 274.057 39.2865 274.086C39.2263 271.73 39.1261 269.291 38.9722 266.839L59.9855 256.603V256.603Z" fill="#371A45"/>
</g>
<path d="M40.9368 297.663C40.7117 297.663 40.0579 297.609 39.4432 297.033C38.749 296.384 38.3854 295.331 38.3625 293.905C38.3524 293.247 38.3779 292.086 38.4135 290.479C38.5235 285.505 38.7288 276.245 38.1423 266.893C38.1137 266.434 38.4623 266.039 38.9209 266.01C39.3777 265.979 39.7752 266.33 39.8038 266.789C40.3947 276.212 40.1885 285.517 40.0781 290.516C40.0429 292.105 40.0174 293.253 40.0275 293.879C40.053 295.49 40.5947 295.966 40.9253 295.997C40.9403 295.995 40.9227 295.998 40.9526 295.998H53.1076C53.9961 295.998 54.7581 295.334 54.8794 294.454L55.6194 289.097C55.64 288.944 57.7271 273.404 59.156 256.533C59.1947 256.075 59.5957 255.732 60.0556 255.774C60.5137 255.813 60.8536 256.215 60.8149 256.674C59.3824 273.587 57.2896 289.166 57.269 289.322L56.5286 294.682C56.2938 296.381 54.8231 297.663 53.1071 297.663H40.9636C40.9552 297.663 40.946 297.663 40.9359 297.663L40.9368 297.663Z" fill="#371A45"/>
<path d="M47.6059 279.705C43.3764 279.705 39.5878 279.238 39.2853 279.2C38.9432 279.156 38.7005 278.844 38.7441 278.502C38.7876 278.16 39.0993 277.92 39.4418 277.961C39.5821 277.979 53.4966 279.692 57.5494 276.633C57.8242 276.425 58.2159 276.48 58.4239 276.755C58.6314 277.03 58.5769 277.422 58.3017 277.63C56.1209 279.276 51.661 279.705 47.6064 279.705H47.6059Z" fill="#371A45"/>
<path d="M56.0074 293.196C55.5889 293.196 55.2284 292.882 55.1813 292.456C55.0349 291.138 54.6731 290.69 54.1362 290.394C52.429 289.453 44.9508 288.945 42.3053 289.82C40.2072 290.514 40.0542 291.748 40.0489 291.8L39.2189 291.735L38.3875 291.69C38.3927 291.593 38.5523 289.307 41.7825 288.239C44.9187 287.202 52.8674 287.794 54.9399 288.936C56.3719 289.725 56.7021 291.065 56.8358 292.271C56.8868 292.728 56.5575 293.14 56.1002 293.191C56.069 293.194 56.0378 293.196 56.0074 293.196V293.196Z" fill="#371A45"/>
<path d="M55.6105 295.56C54.6573 297.171 51.4143 297.252 49.9243 296.035C47.7994 294.299 48.0887 290.161 48.0887 290.161C48.0887 290.161 36.0542 289.341 30.0871 284.668C26.6256 281.958 23.9823 277.991 22.0074 273.81C18.3089 265.974 16.9539 257.378 16.9539 254.857L37.2927 264.581C37.2927 264.581 40.6729 271.891 42.2297 272.99C42.3027 273.042 42.3735 273.08 42.4377 273.103C43.878 273.606 56.2431 276.314 56.1622 279.078C56.0246 283.713 56.8574 293.448 55.6105 295.56V295.56Z" fill="white"/>
<g opacity="0.2">
<path d="M42.2297 272.99C32.5307 273.642 26.3117 270.443 22.0074 273.81C18.3089 265.974 16.9539 257.378 16.9539 254.857L37.2927 264.581C37.2927 264.581 40.6729 271.891 42.2297 272.99Z" fill="#371A45"/>
</g>
<path d="M52.6247 297.703C51.3963 297.703 50.2017 297.336 49.398 296.68C47.5717 295.189 47.2744 292.333 47.2454 290.924C44.4223 290.652 34.846 289.451 29.5736 285.324C19.4855 277.427 16.1216 259.078 16.1216 254.856C16.1216 254.396 16.4944 254.023 16.9543 254.023C17.4142 254.023 17.787 254.396 17.787 254.856C17.787 256.475 18.4694 261.822 20.5793 268.024C22.3019 273.088 25.4385 279.972 30.6002 284.013C36.3013 288.476 48.0285 289.322 48.1463 289.33C48.3666 289.345 48.5723 289.448 48.7174 289.614C48.8625 289.781 48.9355 289.999 48.9201 290.219C48.8502 291.252 48.9891 294.196 50.4515 295.39C51.1057 295.923 52.3139 296.163 53.3911 295.97C54.1081 295.843 54.6564 295.538 54.8943 295.136C55.636 293.881 55.494 288.438 55.3906 284.464C55.3374 282.428 55.2878 280.504 55.3309 279.053C55.3309 279.044 55.3102 278.147 51.2336 276.607C48.7007 275.65 45.6494 274.838 43.8262 274.354C42.993 274.132 42.443 273.986 42.1642 273.888C40.6223 273.348 37.9764 268.044 36.537 264.93C36.3439 264.513 36.526 264.018 36.9432 263.825C37.36 263.631 37.8555 263.813 38.0485 264.231C39.7047 267.812 41.9756 271.907 42.7292 272.321C42.9578 272.399 43.532 272.551 44.2544 272.743C52.1745 274.849 57.0684 276.647 56.9954 279.101C56.9537 280.507 57.0033 282.408 57.0557 284.42C57.2113 290.397 57.2447 294.431 56.3285 295.982C55.8356 296.816 54.8965 297.393 53.6834 297.609C53.3339 297.672 52.9782 297.701 52.6256 297.701L52.6247 297.703Z" fill="#371A45"/>
<path d="M61.4655 257.095C61.3406 257.67 61.1969 258.221 61.0368 258.752C60.4538 260.7 59.6444 262.365 58.664 263.789C55.975 267.693 52.0017 269.77 47.8618 270.83C44.8356 271.604 41.7219 271.833 38.9516 271.833C36.8201 271.833 34.4829 271.698 32.1394 271.281C27.7727 270.507 23.3853 268.761 20.261 265.114C18.8396 263.455 17.678 261.403 16.9016 258.868C16.7266 258.302 16.5727 257.711 16.4373 257.095C16.0939 255.517 15.9295 253.844 15.9334 252.087C15.9479 245.489 18.3393 237.713 22.5666 229.38C22.5666 229.38 22.5895 228.507 22.8603 227.165C23.6931 223.036 26.8709 214.456 38.9428 213.205C52.4506 211.807 54.834 224.307 55.2504 228.226C55.3252 228.949 55.3357 229.38 55.3357 229.38C59.2984 237.187 61.6462 244.503 61.9399 250.819C62.0419 253.042 61.8898 255.14 61.4655 257.095V257.095Z" fill="white"/>
<g opacity="0.2">
<path d="M61.4655 257.095C61.3407 257.669 61.1969 258.221 61.0369 258.751C58.7559 258.294 56.6473 258.079 55.126 257.977C53.8312 257.892 52.7386 258.93 52.7554 260.229L52.7593 260.587C52.7822 262.477 51.2543 264.023 49.3647 264.023H28.6741C26.8363 264.023 25.3335 262.562 25.2794 260.726L25.2627 260.131C25.2231 258.818 24.0659 257.823 22.7632 257.983C21.1127 258.187 18.8792 258.495 16.902 258.868C16.7271 258.302 16.5732 257.711 16.4378 257.095C16.0944 255.517 15.93 253.844 15.9339 252.087L61.9399 250.819C62.0419 253.042 61.8898 255.14 61.4655 257.095V257.095Z" fill="#371A45"/>
</g>
<g opacity="0.2">
<path d="M55.2504 228.226C51.173 230.855 45.7532 232.46 39.8046 232.46C33.0944 232.46 27.0565 230.418 22.8604 227.165C23.6931 223.036 26.871 214.456 38.9428 213.205C52.4506 211.807 54.8341 224.307 55.2504 228.226V228.226Z" fill="#371A45"/>
</g>
<path d="M25.071 224.337L24.1675 228.1C23.2723 227.511 22.4462 226.87 21.6948 226.187C22.7316 225.501 23.8553 224.88 25.0706 224.337H25.071Z" fill="#D8D8D8"/>
<path d="M57.9065 226.193C56.9093 227.1 55.7772 227.931 54.5325 228.667L52.7839 223.491C54.7488 224.039 56.4534 225.023 57.906 226.193L57.9065 226.193Z" fill="#D8D8D8"/>
<g opacity="0.2">
<path d="M61.4654 257.095C60.8824 259.774 59.9108 261.978 58.6639 263.788C55.9749 267.693 52.0016 269.77 47.8618 270.83C44.8356 271.604 41.7219 271.833 38.9515 271.833C36.82 271.833 34.4828 271.698 32.1394 271.281C27.7726 270.507 23.3852 268.761 20.261 265.114C18.5208 263.085 17.1723 260.464 16.4376 257.095C16.0151 255.159 15.863 253.077 15.961 250.878C16.0195 252.183 16.1774 253.436 16.4376 254.635C17.1723 258.004 18.5212 260.625 20.261 262.654C23.3852 266.301 27.7726 268.045 32.1394 268.821C34.4828 269.235 36.8205 269.373 38.9515 269.373C41.7219 269.373 44.8356 269.144 47.8618 268.37C52.0016 267.31 55.9749 265.231 58.6639 261.329C59.9108 259.516 60.8824 257.311 61.4654 254.635C61.7257 253.436 61.884 252.181 61.9442 250.876C62.0401 253.078 61.8879 255.157 61.4654 257.095V257.095Z" fill="#371A45"/>
</g>
<path d="M19.9441 265.387C18.0381 263.795 16.8409 261.507 16.0979 259.168C14.2069 253.319 15.0291 246.959 16.8035 241.199C17.1474 240.047 17.5519 238.917 17.977 237.796C18.1401 237.366 18.6207 237.15 19.0507 237.313C19.4732 237.473 19.6886 237.941 19.5422 238.364C18.8049 240.577 18.1419 242.812 17.6728 245.079C16.8493 248.993 16.509 253.073 17.3184 257.01C17.8869 259.823 19.1157 262.377 20.5759 264.844C20.8181 265.241 20.3028 265.691 19.9436 265.386L19.9441 265.387Z" fill="#371A45"/>
<path d="M47.9644 271.234C43.4226 273.112 36.7652 273.005 32.0661 271.692C31.5952 271.551 31.7188 270.841 32.2116 270.872C36.1031 271.13 39.9959 271.085 43.8781 270.779C45.1699 270.691 46.4519 270.544 47.7626 270.427C48.2326 270.384 48.4018 271.051 47.9644 271.234V271.234Z" fill="#371A45"/>
<path d="M59.6492 237.046C62.5743 244.518 64.5001 253.464 60.9709 261.059C60.4481 262.13 59.7987 263.143 59.006 264.025C58.8508 264.197 58.5857 264.211 58.4133 264.057C58.2687 263.926 58.2353 263.718 58.3206 263.553C58.8271 262.547 59.2733 261.535 59.6462 260.497C61.9403 254.438 61.1322 247.771 59.3802 241.664C58.9924 240.308 58.5417 238.943 58.0827 237.608C57.764 236.582 59.2333 236.042 59.6492 237.046V237.046Z" fill="#371A45"/>
<path d="M51.0626 250.738C51.0626 250.738 58.3443 250.183 61.4096 252.39C64.6671 254.735 61.385 257.449 61.385 257.449C61.385 257.449 55.5203 256.168 50.5952 256.351L51.0626 250.738V250.738Z" fill="white"/>
<path d="M27.4369 250.738C27.4369 250.738 20.1552 250.183 17.0898 252.39C13.8324 254.735 17.1145 257.449 17.1145 257.449C17.1145 257.449 22.9792 256.168 27.9043 256.351L27.4369 250.738V250.738Z" fill="white"/>
<path d="M61.3843 257.448C61.3843 257.448 55.5209 256.169 50.5945 256.349L50.7695 254.264C55.6585 254.116 61.3843 255.367 61.3843 255.367C61.3843 255.367 62.2003 254.69 62.6145 253.723C63.5553 255.654 61.3843 257.448 61.3843 257.448Z" fill="#D8D8D8"/>
<g opacity="0.2">
<path d="M27.9037 256.35C22.979 256.169 17.1139 257.449 17.1139 257.449C17.1139 257.449 14.9433 255.655 15.8837 253.724C16.2979 254.691 17.1139 255.368 17.1139 255.368C17.1139 255.368 22.8441 254.117 27.7309 254.265L27.9037 256.35Z" fill="#371A45"/>
</g>
<path d="M61.6035 258.348L61.2078 258.261C61.1507 258.249 55.3845 257.008 50.6264 257.182L49.6877 257.217L50.2923 249.961L50.9997 249.907C51.3097 249.884 58.6226 249.356 61.8963 251.713C63.0443 252.54 63.6453 253.52 63.6823 254.627C63.7465 256.553 61.9909 258.027 61.9161 258.089L61.604 258.347L61.6035 258.348ZM51.5985 255.499C55.5731 255.499 59.778 256.273 61.1269 256.544C61.5156 256.129 62.0436 255.398 62.0173 254.677C61.9961 254.115 61.6282 253.572 60.9229 253.065C58.6692 251.442 53.6812 251.462 51.8315 251.531L51.5014 255.499C51.5339 255.499 51.566 255.499 51.5985 255.499V255.499Z" fill="#371944"/>
<path d="M16.8955 258.347L16.5833 258.089C16.5086 258.027 14.7525 256.553 14.8172 254.627C14.8541 253.52 15.4551 252.54 16.6031 251.714C19.8773 249.356 27.1902 249.883 27.5002 249.908L28.2076 249.962L28.8121 257.217L27.8734 257.182C23.1141 257.008 17.3496 258.249 17.292 258.262L16.8963 258.348L16.8955 258.347ZM25.3977 251.508C23.111 251.508 19.424 251.734 17.5756 253.065C16.8704 253.573 16.5024 254.115 16.4813 254.677C16.4545 255.398 16.9821 256.127 17.3716 256.544C18.7209 256.273 22.9255 255.5 26.9 255.5C26.9326 255.5 26.9647 255.5 26.9972 255.5L26.667 251.532C26.3342 251.519 25.8993 251.508 25.3977 251.508V251.508Z" fill="#371944"/>
<path d="M51.5332 248.568V258.938C51.5332 260.862 50.0172 262.436 48.1667 262.436H29.7803C27.9276 262.436 26.4138 260.861 26.4138 258.938V248.568C26.4138 246.646 27.9276 245.072 29.7803 245.072H48.1667C49.6452 245.072 50.911 246.077 51.3595 247.463C51.4712 247.811 51.5332 248.182 51.5332 248.569V248.568Z" fill="white"/>
<g opacity="0.2">
<path d="M51.5332 248.568V258.937C51.5332 260.862 50.0172 262.436 48.1667 262.436H29.7803C27.9276 262.436 26.4138 260.861 26.4138 258.937V255.447C29.586 257.27 35.8706 260.009 42.178 257.749C45.2592 256.645 48.7919 252.859 48.7919 252.859C48.7919 252.859 48.9281 256.831 49.4953 256.768C51.0728 256.594 51.0614 248.558 51.3595 247.462C51.4712 247.81 51.5332 248.181 51.5332 248.568V248.568Z" fill="#371A45"/>
</g>
<path d="M48.3626 263.267H29.5828C27.3757 263.267 25.5801 261.471 25.5801 259.264V248.242C25.5801 246.035 27.3757 244.239 29.5828 244.239H48.3626C50.5697 244.239 52.3653 246.035 52.3653 248.242V259.264C52.3653 261.471 50.5697 263.267 48.3626 263.267ZM29.5828 245.904C28.2937 245.904 27.2451 246.953 27.2451 248.242V259.264C27.2451 260.553 28.2937 261.602 29.5828 261.602H48.3626C49.6517 261.602 50.7003 260.553 50.7003 259.264V248.242C50.7003 246.953 49.6517 245.904 48.3626 245.904H29.5828Z" fill="#371944"/>
<path d="M45.4863 256.769C47.0899 256.769 48.3898 255.419 48.3898 253.753C48.3898 252.088 47.0899 250.738 45.4863 250.738C43.8827 250.738 42.5828 252.088 42.5828 253.753C42.5828 255.419 43.8827 256.769 45.4863 256.769Z" fill="#22A7F0"/>
<path d="M48.3903 253.754C48.3903 253.959 48.3714 254.159 48.3331 254.352C48.0649 252.971 46.891 251.932 45.4854 251.932C44.0798 251.932 42.9059 252.971 42.6399 254.352C42.6017 254.159 42.5828 253.959 42.5828 253.754C42.5828 252.088 43.882 250.737 45.4854 250.737C47.0889 250.737 48.3903 252.088 48.3903 253.754Z" fill="white"/>
<path d="M48.3898 253.753C48.3898 255.42 47.0893 256.768 45.4863 256.768C43.8833 256.768 42.5828 255.419 42.5828 253.753C42.5828 253.474 42.6201 253.201 42.6883 252.945C43.0295 254.217 44.1546 255.151 45.4863 255.151C46.818 255.151 47.9431 254.217 48.2843 252.945C48.3525 253.201 48.3898 253.474 48.3898 253.753V253.753Z" fill="#1C7AEA"/>
<path d="M45.4864 257.393C43.5413 257.393 41.9585 255.76 41.9585 253.753C41.9585 251.746 43.5413 250.113 45.4864 250.113C47.4314 250.113 49.0142 251.746 49.0142 253.753C49.0142 255.76 47.4314 257.393 45.4864 257.393ZM45.4864 251.362C44.2298 251.362 43.2076 252.435 43.2076 253.753C43.2076 255.072 44.2298 256.144 45.4864 256.144C46.7429 256.144 47.7656 255.072 47.7656 253.753C47.7656 252.435 46.7434 251.362 45.4864 251.362Z" fill="#371944"/>
<path d="M36.2965 263.267C35.8366 263.267 35.4638 262.894 35.4638 262.434V257.127C35.4638 256.074 34.9832 255.07 34.1786 254.442L33.7117 254.076C32.5066 253.134 31.7869 251.64 31.7869 250.079V245.071C31.7869 244.611 32.1597 244.238 32.6196 244.238C33.0795 244.238 33.4523 244.611 33.4523 245.071V250.079C33.4523 251.131 33.9329 252.135 34.7375 252.764L35.2044 253.13C36.4095 254.072 37.1288 255.566 37.1288 257.127V262.434C37.1288 262.894 36.756 263.267 36.2961 263.267H36.2965Z" fill="#371944"/>
<path d="M66.1945 250.445C65.6199 251.671 64.7731 252.805 63.5825 253.777C55.4861 260.376 39.2638 250.683 30.237 246.174C27.931 245.021 26.0932 244.207 24.9817 244.093C24.9817 244.093 23.2939 239.448 24.4282 237.803C25.2315 236.64 28.2599 235.458 31.3863 236.839C33.1265 237.753 35.9092 239.196 38.4878 239.63C38.7793 239.681 39.0747 239.726 39.3702 239.77C43.3562 240.363 47.679 240.519 50.7553 240.542C53.2592 240.559 54.9365 240.486 54.9365 240.486L56.1768 233.538L52.7844 223.491C59.6902 225.412 63.3618 232.745 64.3027 234.445C65.5891 236.768 68.9231 244.634 66.1945 250.445V250.445Z" fill="white"/>
<g opacity="0.2">
<path d="M57.9065 226.193C56.9093 227.101 55.7772 227.931 54.5325 228.668L52.7839 223.492C54.7488 224.04 56.4534 225.024 57.906 226.194L57.9065 226.193Z" fill="#371A45"/>
</g>
<g opacity="0.2">
<path d="M66.1946 250.446C65.6199 251.671 64.7731 252.806 63.5825 253.778C55.4861 260.376 39.2638 250.683 30.2371 246.175L39.3702 239.771C43.3562 240.364 47.679 240.52 50.7553 240.543C48.6467 244.185 43.3479 248.735 48.5636 252.123C54.5953 256.042 62.6605 254.126 66.1946 250.446V250.446Z" fill="#371A45"/>
</g>
<path d="M56.5869 233.611C56.4146 236.005 56.2946 238.429 55.7208 240.764C55.6302 241.108 55.3128 241.332 54.9712 241.318C50.1516 241.463 45.3509 241.348 40.562 240.767C38.9502 240.573 37.2584 240.32 35.7354 239.746C34.1812 239.19 32.7105 238.472 31.2979 237.732C29.4733 236.77 26.6348 236.716 25.1382 238.243C24.9082 238.576 24.8819 238.986 24.8687 239.45C24.8651 240.141 24.9821 240.888 25.143 241.624C25.3053 242.357 25.5207 243.114 25.7638 243.809L25.0678 243.265C26.0215 243.387 26.8027 243.703 27.6482 244.046C36.3879 247.81 52.0298 258.436 61.418 254.173C68.7942 250.467 66.6601 240.482 63.4074 234.543C61.0407 230.105 57.5652 225.713 52.5592 224.291C51.5101 223.969 51.9388 222.421 53.0076 222.688C58.7008 224.293 62.5607 229.271 65.1692 234.298C68.6781 241.105 70.33 251.557 62.1452 255.671C52.615 260.083 37.8361 250.743 29.1989 246.59C27.8096 245.948 26.3776 245.163 24.881 244.919C24.5583 244.884 24.3002 244.664 24.1991 244.377C23.5277 242.289 22.2456 238.249 24.3688 236.672C26.6031 235.009 29.6584 235.032 32.0629 236.252C34.1324 237.324 36.1997 238.337 38.46 238.776C43.8679 239.665 49.4318 239.806 54.8999 239.654C54.9008 239.654 54.1165 240.339 54.1165 240.339C54.2295 239.164 54.5297 238.023 54.8138 236.878C55.1066 235.733 55.4143 234.593 55.7678 233.463C55.912 233.002 56.6107 233.12 56.5874 233.61L56.5869 233.611Z" fill="#371A45"/>
<path d="M50.1639 240.248C50.1472 240.398 50.1137 240.486 50.1137 240.486C44.6584 241.054 25.8139 258.618 15.9839 253.752C12.2811 251.921 10.7598 246.011 12.2208 239.774V239.77C13.6027 233.859 17.6617 227.652 25.0709 224.337L22.8625 233.539L24.3402 240.132C24.3402 240.132 37.3859 235.158 44.5107 236.5C49.9722 237.529 50.2408 239.558 50.1634 240.249L50.1639 240.248Z" fill="white"/>
<g opacity="0.2">
<path d="M25.071 224.337L24.1675 228.1C23.2723 227.511 22.4462 226.87 21.6948 226.187C22.7316 225.501 23.8553 224.88 25.0706 224.337H25.071Z" fill="#371A45"/>
</g>
<g opacity="0.2">
<path d="M50.1639 240.249C50.1472 240.399 50.1137 240.486 50.1137 240.486C44.6584 241.054 25.8139 258.619 15.9839 253.753C12.2811 251.921 10.7598 246.012 12.2208 239.774C12.2208 240.001 12.2626 250.398 19.7303 251.316C29.0441 252.458 43.5742 239.991 50.1639 240.249V240.249Z" fill="#371A45"/>
</g>
<path d="M23.2684 233.446C23.6443 234.515 23.9855 235.593 24.3157 236.674C24.6336 237.756 24.9954 238.83 25.1532 239.949L24.0444 239.354C28.5532 237.721 33.1142 236.404 37.8723 235.727C41.5356 235.216 45.3602 235.264 48.7456 237.005C50.0338 237.645 51.4355 239.182 50.8921 240.783C50.6393 241.463 49.891 241.261 49.2701 241.549C46.8177 242.504 44.6225 244.016 42.3701 245.395C37.1183 248.68 31.8577 252.195 25.9591 254.278C21.3853 255.93 15.2489 256.401 12.5081 251.463C10.126 247.112 10.5546 241.8 12.0772 237.282C14.1432 231.21 18.8665 226.142 24.7316 223.577C25.1519 223.388 25.6461 223.577 25.8334 223.998C26.0203 224.418 25.8316 224.91 25.4113 225.097C19.945 227.492 15.5773 232.177 13.6503 237.828C12.1207 242.243 11.6485 248.739 15.2221 252.23C16.8137 253.635 19.0059 253.91 21.1096 253.71C25.5942 253.18 29.6893 251.003 33.6264 248.809C38.3449 246.179 42.7187 242.891 47.5744 240.452C48.3662 240.095 49.1154 239.771 50.0281 239.658L49.3365 240.19L49.3269 240.218C49.326 240.221 49.3269 240.218 49.3269 240.218C49.3295 240.203 49.3348 240.186 49.3357 240.166C49.3563 239.361 48.6366 238.868 47.9437 238.464C44.9584 236.939 41.4446 236.905 38.0952 237.377C33.524 238.023 28.9748 239.337 24.6384 240.91C24.1574 241.147 23.6241 240.827 23.5296 240.314C23.1941 239.234 23.0626 238.109 22.8885 236.995C22.7254 235.876 22.5733 234.755 22.4572 233.629C22.4119 233.14 23.1035 232.983 23.2697 233.447L23.2684 233.446Z" fill="#371A45"/>
<path d="M16.5459 254.627C16.2399 254.627 15.973 254.403 15.9286 254.091C15.9127 253.98 15.5496 251.33 16.3608 248.21C17.1179 245.298 19.0792 241.431 24.1222 239.547C24.4462 239.427 24.805 239.591 24.9259 239.914C25.0463 240.237 24.8823 240.596 24.5596 240.717C20.9276 242.074 18.5793 244.687 17.58 248.484C16.8211 251.368 17.1614 253.891 17.1649 253.916C17.2128 254.257 16.975 254.573 16.6338 254.621C16.6043 254.626 16.5744 254.627 16.5454 254.627H16.5459Z" fill="#371A45"/>
<path d="M63.5812 254.401C63.2558 254.401 62.9815 254.149 62.9586 253.819C62.3536 244.999 54.7334 241.084 54.6564 241.045C54.3482 240.891 54.2229 240.516 54.3768 240.208C54.5311 239.9 54.9049 239.774 55.2135 239.928C55.5534 240.097 63.5491 244.184 64.2046 253.734C64.2284 254.078 63.9685 254.376 63.6243 254.4C63.6098 254.401 63.5953 254.401 63.5808 254.401H63.5812Z" fill="#371A45"/>
<path d="M31.552 286.298C31.4702 286.298 31.3871 286.281 31.3071 286.248C30.9901 286.112 30.8428 285.745 30.9778 285.428C31.1295 285.072 34.7805 276.652 41.8397 272.403C42.1356 272.225 42.5186 272.32 42.6966 272.616C42.8742 272.911 42.7793 273.295 42.4838 273.473C35.7772 277.509 32.1618 285.835 32.1262 285.918C32.0251 286.155 31.7943 286.298 31.5516 286.298H31.552Z" fill="#371A45"/>
<path d="M70.6392 186.696C70.6392 186.696 77.7314 189.385 78.4604 190.698C79.8115 193.132 79.5609 207.439 75.8229 211.169C74.3592 212.629 63.6055 213.994 63.6055 213.994L70.6397 186.697L70.6392 186.696Z" fill="white"/>
<g opacity="0.2">
<path d="M63.605 213.994C63.605 213.994 74.3587 212.628 75.8219 211.168C77.2807 209.713 78.2097 206.643 78.7162 203.299C78.5975 203.406 74.7993 206.684 67.2221 200.021C67.2181 200.017 67.2124 200.013 67.2085 200.009L63.605 213.994V213.994Z" fill="#371A45"/>
</g>
<path d="M39.8952 201.628V201.75L39.8174 201.69L39.8952 201.628Z" fill="#D8D8D8"/>
<path d="M39.8173 201.69L39.7395 201.75V201.628L39.8173 201.69Z" fill="#D8D8D8"/>
<path d="M16.3941 213.995C16.3941 213.995 5.64037 212.629 4.17716 211.168C2.71836 209.714 1.78935 206.644 1.28285 203.299L1.28109 203.298C0.488379 198.077 0.716125 192.183 1.54006 190.699C2.26858 189.386 9.36037 186.696 9.36037 186.696L12.7906 200.01L16.3941 213.995V213.995Z" fill="white"/>
<g opacity="0.2">
<path d="M16.3942 213.994C16.3942 213.994 5.64047 212.628 4.17727 211.168C2.71846 209.713 1.78945 206.643 1.28296 203.299C1.40167 203.406 5.19993 206.684 12.7771 200.021C12.7811 200.017 12.7868 200.013 12.7907 200.009L16.3942 213.994Z" fill="#371A45"/>
</g>
<path d="M62.5642 214.911L70.1023 185.659L70.9161 185.968C73.1285 186.807 78.3592 188.91 79.1418 190.32C80.6393 193.018 80.4493 207.653 76.3736 211.72C74.8009 213.289 65.5434 214.533 63.7038 214.767L62.5646 214.911L62.5642 214.911ZM71.175 187.739L64.6478 213.069C69.4876 212.399 74.5328 211.355 75.2727 210.617C78.725 207.172 78.9901 193.257 77.7792 191.076C77.4156 190.477 74.2197 188.943 71.175 187.739V187.739Z" fill="#371A45"/>
<path d="M17.4358 214.911L16.2966 214.767C14.4566 214.533 5.19903 213.289 3.62679 211.72C-0.448902 207.653 -0.638837 193.018 0.85866 190.32C1.64126 188.91 6.87195 186.807 9.08434 185.968L9.89816 185.659L17.4358 214.911V214.911ZM8.82494 187.74C5.7807 188.944 2.58478 190.478 2.2203 191.078C1.01034 193.257 1.27546 207.172 4.72815 210.618C5.46766 211.355 10.5124 212.4 15.3526 213.07L8.82494 187.74Z" fill="#371A45"/>
<path d="M39.997 228.544C58.1573 228.544 72.8791 213.823 72.8791 195.662C72.8791 177.502 58.1573 162.78 39.997 162.78C21.8368 162.78 7.11499 177.502 7.11499 195.662C7.11499 213.823 21.8368 228.544 39.997 228.544Z" fill="white"/>
<g opacity="0.2">
<path d="M72.8801 195.662C72.8801 213.822 58.1584 228.544 39.9981 228.544C21.8377 228.544 7.11426 213.822 7.11426 195.662C7.11426 193.744 7.27781 191.864 7.59525 190.038C10.2631 205.518 23.7556 217.294 39.9985 217.294C56.2415 217.294 69.7317 205.518 72.3996 190.038C72.7166 191.864 72.8806 193.744 72.8806 195.662H72.8801Z" fill="#371A45"/>
</g>
<path d="M39.997 229.324C21.4362 229.324 6.33545 214.223 6.33545 195.663C6.33545 177.102 21.4362 162.001 39.997 162.001C58.5579 162.001 73.6582 177.101 73.6582 195.663C73.6582 214.224 58.5579 229.324 39.997 229.324V229.324ZM39.997 163.56C22.2953 163.56 7.89362 177.961 7.89362 195.663C7.89362 213.364 22.2953 227.766 39.997 227.766C57.6988 227.766 72.1 213.364 72.1 195.663C72.1 177.961 57.6988 163.559 39.997 163.559V163.56Z" fill="#371A45"/>
<path d="M39.997 229.324C21.4362 229.324 6.33545 214.223 6.33545 195.663C6.33545 177.102 21.4362 162.001 39.997 162.001C58.5579 162.001 73.6582 177.101 73.6582 195.663C73.6582 214.224 58.5579 229.324 39.997 229.324V229.324ZM39.997 163.56C22.2953 163.56 7.89362 177.961 7.89362 195.663C7.89362 213.364 22.2953 227.766 39.997 227.766C57.6988 227.766 72.1 213.364 72.1 195.663C72.1 177.961 57.6988 163.559 39.997 163.559V163.56Z" fill="#371A45"/>
<path d="M39.997 229.324C21.4362 229.324 6.33545 214.223 6.33545 195.663C6.33545 177.102 21.4362 162.001 39.997 162.001C58.5579 162.001 73.6582 177.101 73.6582 195.663C73.6582 214.224 58.5579 229.324 39.997 229.324V229.324ZM39.997 163.56C22.2953 163.56 7.89362 177.961 7.89362 195.663C7.89362 213.364 22.2953 227.766 39.997 227.766C57.6988 227.766 72.1 213.364 72.1 195.663C72.1 177.961 57.6988 163.559 39.997 163.559V163.56Z" fill="#371A45"/>
<path d="M39.9962 229.322C24.6593 229.322 11.2716 218.976 7.41966 204.156C7.41351 204.138 7.40823 204.12 7.40295 204.101C6.69465 201.367 6.33545 198.528 6.33545 195.662C6.33545 194.391 6.40667 193.122 6.54737 191.892C8.4432 174.852 22.8233 162.001 39.9962 162.001C57.169 162.001 71.5557 174.856 73.448 191.903C73.5865 193.14 73.6573 194.405 73.6573 195.662C73.6573 198.523 73.2994 201.362 72.5929 204.101C72.588 204.12 72.5823 204.138 72.5762 204.157C68.7216 218.977 55.3325 229.323 39.9966 229.323L39.9962 229.322ZM8.91672 203.722C12.5747 217.878 25.3536 227.764 39.9962 227.764C54.6387 227.764 67.418 217.878 71.0787 203.722C71.0839 203.7 71.0901 203.679 71.0971 203.658C71.7619 201.063 72.0991 198.374 72.0991 195.662C72.0991 194.462 72.0319 193.256 71.8995 192.076C70.0947 175.818 56.3794 163.559 39.9962 163.559C23.6129 163.559 9.9042 175.815 8.0963 192.066C7.96177 193.24 7.89406 194.45 7.89406 195.662C7.89406 198.378 8.23216 201.068 8.89869 203.658C8.90573 203.679 8.91188 203.7 8.91716 203.721L8.91672 203.722Z" fill="#371A45"/>
<path d="M71.7335 187.818C71.4305 187.818 71.1443 187.639 71.0181 187.346C65.8222 175.283 53.6457 167.489 39.9972 167.489C26.3487 167.489 14.1827 175.277 8.98148 187.329C8.81969 187.705 8.39453 187.891 8.00939 187.756C7.62336 187.621 7.40749 187.211 7.51432 186.816C11.4788 172.205 24.8358 162 39.9972 162C55.1585 162 68.5279 172.213 72.4857 186.835C72.5926 187.23 72.3762 187.639 71.9902 187.774C71.9054 187.803 71.8188 187.818 71.7339 187.818H71.7335ZM39.9972 165.931C50.2985 165.931 59.801 170.185 66.3379 177.303C60.4552 168.887 50.6982 163.558 39.9972 163.558C29.2962 163.558 19.5475 168.883 13.6639 177.295C20.2013 170.182 29.7015 165.931 39.9972 165.931Z" fill="#371A45"/>
<path d="M72.8775 195.663C72.8775 198.509 72.517 201.274 71.8377 203.907C71.8377 203.907 71.8346 203.907 71.8346 203.91C66.1304 214.93 54.0159 224.413 39.9959 224.413C25.9759 224.413 13.864 214.93 8.16022 203.91C8.16022 203.907 8.15714 203.907 8.15714 203.907C7.47478 201.274 7.11426 198.509 7.11426 195.663C7.11426 194.419 7.18329 193.189 7.32178 191.981C11.7576 179.707 24.7079 170.826 39.9963 170.826C55.2848 170.826 68.2408 179.713 72.6735 191.99C72.8089 193.195 72.8779 194.421 72.8779 195.662L72.8775 195.663Z" fill="#371A45"/>
<g opacity="0.35">
<path d="M72.8787 195.664C72.8787 198.51 72.5181 201.275 71.8389 203.907C71.8389 203.907 71.8358 203.907 71.8358 203.91C66.1316 214.931 54.0171 224.413 39.9971 224.413C25.977 224.413 13.8656 214.931 8.16141 203.91C8.16141 203.907 8.15833 203.907 8.15833 203.907C7.75252 202.339 7.46102 200.725 7.28955 199.072C14.6618 207.355 25.3817 213.38 37.316 213.38C52.52 213.38 65.7618 203.601 72.614 191.832C72.6351 191.886 72.6562 191.937 72.6742 191.991C72.8096 193.196 72.8787 194.423 72.8787 195.664V195.664Z" fill="#111A28"/>
</g>
<path d="M39.9958 224.852C33.3199 224.852 26.6515 222.71 20.7117 218.657C15.3236 214.981 10.7331 209.825 7.78335 204.138C7.76048 204.101 7.74246 204.061 7.73103 204.017C7.02976 201.31 6.67407 198.5 6.67407 195.663C6.67407 194.406 6.74486 193.15 6.88423 191.931C6.88819 191.897 6.8961 191.864 6.90753 191.832C9.14411 185.644 13.4458 180.319 19.3465 176.434C25.3558 172.478 32.496 170.387 39.9954 170.387C47.4947 170.387 54.6371 172.479 60.6477 176.437C66.5498 180.324 70.851 185.651 73.0862 191.841C73.0981 191.874 73.1056 191.907 73.1096 191.941C73.2467 193.164 73.3166 194.417 73.3166 195.663C73.3166 198.496 72.9623 201.307 72.2632 204.017C72.2518 204.061 72.2342 204.102 72.2109 204.139C69.2616 209.825 64.6706 214.981 59.2812 218.657C53.34 222.711 46.6712 224.853 39.9958 224.853V224.852ZM8.56859 203.743C13.7988 213.819 25.5361 223.973 39.9958 223.973C54.4555 223.973 66.1954 213.819 71.4256 203.743C72.097 201.121 72.4377 198.403 72.4377 195.663C72.4377 194.467 72.3718 193.266 72.2421 192.091C67.7179 179.633 54.7668 171.266 39.9958 171.266C25.2248 171.266 12.2785 179.629 7.75257 192.082C7.62067 193.252 7.55384 194.457 7.55384 195.663C7.55384 198.407 7.89546 201.125 8.56903 203.743L8.56859 203.743Z" fill="#371A45"/>
<g opacity="0.5">
<path d="M67.5813 195.753C68.084 192.618 66.6501 189.782 64.3786 189.418C62.1072 189.053 59.8583 191.299 59.3557 194.434C58.853 197.568 60.2869 200.405 62.5584 200.769C64.8299 201.133 67.0787 198.887 67.5813 195.753Z" fill="white"/>
</g>
<g opacity="0.5">
<path d="M60.7608 207.243C61.1881 205.85 60.5652 204.423 59.3697 204.056C58.1741 203.69 56.8586 204.522 56.4313 205.915C56.0041 207.308 56.6269 208.735 57.8225 209.101C59.018 209.468 60.3336 208.636 60.7608 207.243Z" fill="white"/>
</g>
<g opacity="0.5">
<path d="M14.6932 205.429C14.6932 205.429 9.15125 188.953 17.9542 182.164C26.7572 175.375 39.6147 175.141 39.3307 175.972C39.3307 175.972 25.1665 179.706 19.8254 191.072C15.7067 199.836 14.6932 205.43 14.6932 205.43V205.429Z" fill="white"/>
</g>
</g>
<path d="M42.968 101V102.656H49.52V101H42.968ZM42.968 107.864V109.52H49.52V107.864H42.968ZM38.984 97.832C35.816 97.832 33.584 100.784 33.584 105.392C33.584 110.024 35.816 112.976 38.984 112.976C42.128 112.976 44.384 110.024 44.384 105.392C44.384 100.784 42.128 97.832 38.984 97.832ZM38.984 99.632C41.072 99.632 42.512 101.888 42.512 105.392C42.512 108.92 41.072 111.224 38.984 111.224C36.896 111.224 35.456 108.92 35.456 105.392C35.456 101.888 36.896 99.632 38.984 99.632ZM49.088 96.152V117.896H51.056V96.152H49.088ZM71.0701 96.176V117.872H73.0621V96.176H71.0701ZM64.7101 98.504V98.84C64.7101 104.6 61.8061 109.208 55.5421 112.232L56.5981 113.84C63.8461 110.288 66.6781 104.792 66.6781 98.504H64.7101ZM56.5261 98.504V100.136H65.5741V98.504H56.5261ZM79.9963 102.68V104.312H94.7323V102.68H79.9963ZM77.3323 107.216V108.848H97.0123V107.216H77.3323ZM79.9963 96.968V103.496H81.9643V96.968H79.9963ZM79.8523 115.712V117.344H94.8523V115.712H79.8523ZM79.8523 111.008V116.144H81.8203V111.008H79.8523ZM111.488 98.048V101.936C111.488 105.896 109.016 110.072 105.872 111.656L107.096 113.24C110.528 111.416 113.12 106.736 113.12 101.936V98.048H111.488ZM111.848 98.048V101.936C111.848 106.592 114.368 111.032 117.728 112.832L118.952 111.248C115.88 109.712 113.456 105.752 113.456 101.936V98.048H111.848ZM120.848 96.176V117.872H122.864V96.176H120.848ZM122.384 104.96V106.64H126.416V104.96H122.384ZM143.095 96.2V109.112H145.087V96.2H143.095ZM144.487 101.72V103.4H148.303V101.72H144.487ZM131.407 110.192V117.584H145.087V110.192H131.407ZM143.143 111.776V115.976H133.375V111.776H143.143ZM129.199 106.352V108.008H130.903C134.911 108.008 137.767 107.864 141.199 107.288L141.031 105.656C137.647 106.256 134.839 106.352 130.903 106.352H129.199ZM129.151 97.352V98.984H136.951V101.768H129.199V107.288H131.143V103.304H138.919V97.352H129.151ZM150.341 105.224V106.856H169.949V105.224H150.341ZM152.933 101.864V103.472H167.621V101.864H152.933ZM152.933 96.872V103.16H154.901V98.504H167.381V96.872H152.933ZM152.693 108.728V110.288H165.461V112.352H152.741V116.576H154.709V113.84H167.429V108.728H152.693ZM152.741 116.048V117.632H168.077V116.048H152.741ZM179.451 97.736C176.067 97.736 173.619 99.824 173.619 102.848C173.619 105.896 176.067 107.984 179.451 107.984C182.835 107.984 185.259 105.896 185.259 102.848C185.259 99.824 182.835 97.736 179.451 97.736ZM179.451 99.464C181.683 99.464 183.315 100.832 183.315 102.848C183.315 104.864 181.683 106.256 179.451 106.256C177.195 106.256 175.563 104.864 175.563 102.848C175.563 100.832 177.195 99.464 179.451 99.464ZM188.091 96.152V117.896H190.083V96.152H188.091ZM172.803 113.144C176.667 113.144 181.971 113.12 186.843 112.184L186.675 110.72C181.947 111.464 176.475 111.488 172.515 111.488L172.803 113.144ZM202.255 98.648V100.256H219.703V98.648H202.255ZM201.247 110.24V111.872H220.903V110.24H201.247ZM210.031 111.56V117.896H212.023V111.56H210.031ZM211.039 101.504C206.599 101.504 203.983 102.8 203.983 105.128C203.983 107.432 206.599 108.752 211.039 108.752C215.455 108.752 218.071 107.432 218.071 105.128C218.071 102.8 215.455 101.504 211.039 101.504ZM211.039 103.04C214.207 103.04 216.031 103.784 216.031 105.128C216.031 106.472 214.207 107.216 211.039 107.216C207.871 107.216 206.047 106.472 206.047 105.128C206.047 103.784 207.871 103.04 211.039 103.04ZM210.031 96.056V99.728H212.023V96.056H210.031ZM229.493 109.184V112.76H231.509V109.184H229.493ZM238.997 96.176V117.872H240.989V96.176H238.997ZM223.709 113.744C227.717 113.744 232.949 113.696 237.773 112.88L237.629 111.416C232.949 112.016 227.549 112.064 223.445 112.088L223.709 113.744ZM223.901 98.816V100.424H237.077V98.816H223.901ZM230.477 101.672C227.381 101.672 225.269 103.256 225.269 105.68C225.269 108.128 227.381 109.688 230.477 109.688C233.597 109.688 235.709 108.128 235.709 105.68C235.709 103.256 233.597 101.672 230.477 101.672ZM230.477 103.208C232.445 103.208 233.813 104.192 233.813 105.68C233.813 107.168 232.445 108.152 230.477 108.152C228.533 108.152 227.165 107.168 227.165 105.68C227.165 104.192 228.533 103.208 230.477 103.208ZM229.493 96.176V99.704H231.485V96.176H229.493ZM260.067 96.152V117.872H262.083V96.152H260.067ZM261.531 104.96V106.616H265.539V104.96H261.531ZM254.523 98.504V98.816C254.523 104.552 251.523 109.184 245.523 112.232L246.627 113.768C253.635 110.24 256.467 104.672 256.467 98.504H254.523ZM246.531 98.504V100.136H255.555V98.504H246.531ZM274.231 113.456V115.112H293.887V113.456H274.231ZM283.015 107.84V113.912H285.007V107.84H283.015ZM276.511 97.976V108.2H291.487V97.976H276.511ZM289.567 99.584V106.592H278.455V99.584H289.567ZM312.077 96.2V112.04H314.093V96.2H312.077ZM300.149 115.76V117.392H314.741V115.76H300.149ZM300.149 110.408V116.312H302.117V110.408H300.149ZM302.453 97.688C299.213 97.688 296.789 99.896 296.789 103.04C296.789 106.16 299.213 108.392 302.453 108.392C305.693 108.392 308.093 106.16 308.093 103.04C308.093 99.896 305.693 97.688 302.453 97.688ZM302.453 99.416C304.565 99.416 306.173 100.904 306.173 103.04C306.173 105.152 304.565 106.64 302.453 106.64C300.341 106.64 298.733 105.152 298.733 103.04C298.733 100.904 300.341 99.416 302.453 99.416ZM341.506 96.176V109.904H343.402V96.176H341.506ZM337.978 102.056V103.712H342.082V102.056H337.978ZM336.874 96.608V109.136H338.746V96.608H336.874ZM325.018 98.768V100.352H336.01V98.768H325.018ZM330.538 101.456C327.802 101.456 325.906 102.944 325.906 105.176C325.906 107.432 327.802 108.896 330.538 108.896C333.25 108.896 335.146 107.432 335.146 105.176C335.146 102.944 333.25 101.456 330.538 101.456ZM330.538 102.944C332.218 102.944 333.37 103.832 333.37 105.176C333.37 106.544 332.218 107.408 330.538 107.408C328.834 107.408 327.682 106.544 327.682 105.176C327.682 103.832 328.834 102.944 330.538 102.944ZM329.554 96.344V99.656H331.498V96.344H329.554ZM336.298 110.288C331.738 110.288 329.05 111.632 329.05 114.056C329.05 116.456 331.738 117.824 336.298 117.824C340.81 117.824 343.522 116.456 343.522 114.056C343.522 111.632 340.81 110.288 336.298 110.288ZM336.298 111.824C339.586 111.824 341.554 112.616 341.554 114.056C341.554 115.496 339.586 116.312 336.298 116.312C332.962 116.312 331.018 115.496 331.018 114.056C331.018 112.616 332.962 111.824 336.298 111.824ZM352.664 97.4V99.632C352.664 102.944 350.504 105.848 347.192 107.024L348.224 108.656C351.944 107.264 354.32 103.832 354.32 99.632V97.4H352.664ZM353.024 97.4V99.56C353.024 103.496 355.352 106.688 358.856 108.008L359.936 106.448C356.768 105.344 354.656 102.632 354.656 99.56V97.4H353.024ZM363.056 96.176V109.016H365.048V96.176H363.056ZM357.92 109.64C353.432 109.64 350.672 111.152 350.672 113.744C350.672 116.336 353.432 117.824 357.92 117.824C362.384 117.824 365.144 116.336 365.144 113.744C365.144 111.152 362.384 109.64 357.92 109.64ZM357.92 111.224C361.184 111.224 363.176 112.16 363.176 113.744C363.176 115.328 361.184 116.264 357.92 116.264C354.656 116.264 352.664 115.328 352.664 113.744C352.664 112.16 354.656 111.224 357.92 111.224ZM358.352 100.76V102.416H363.488V100.76H358.352ZM385.038 96.152V117.896H387.03V96.152H385.038ZM375.582 97.832C372.39 97.832 370.086 100.784 370.086 105.392C370.086 110.024 372.39 112.976 375.582 112.976C378.798 112.976 381.102 110.024 381.102 105.392C381.102 100.784 378.798 97.832 375.582 97.832ZM375.582 99.632C377.718 99.632 379.182 101.888 379.182 105.392C379.182 108.92 377.718 111.224 375.582 111.224C373.47 111.224 371.982 108.92 371.982 105.392C371.982 101.888 373.47 99.632 375.582 99.632ZM397.132 97.832C393.94 97.832 391.684 100.784 391.684 105.392C391.684 110.024 393.94 112.976 397.132 112.976C400.324 112.976 402.58 110.024 402.58 105.392C402.58 100.784 400.324 97.832 397.132 97.832ZM397.132 99.632C399.22 99.632 400.684 101.888 400.684 105.392C400.684 108.92 399.22 111.224 397.132 111.224C395.02 111.224 393.58 108.92 393.58 105.392C393.58 101.888 395.02 99.632 397.132 99.632ZM407.5 101.624V103.304H411.484V101.624H407.5ZM407.5 108.08V109.76H411.484V108.08H407.5ZM406.036 96.176V117.872H408.052V96.176H406.036Z" fill="black"/>
</g>
<defs>
<clipPath id="clip0_516_210">
<rect width="500" height="300" fill="white"/>
</clipPath>
<clipPath id="clip1_516_210">
<rect width="80" height="137.954" fill="white" transform="translate(0 162)"/>
</clipPath>
</defs>
</svg>
