<svg width="500" height="200" viewBox="0 0 500 200" fill="none" xmlns="http://www.w3.org/2000/svg">
<g clip-path="url(#clip0_448_26)">
<path d="M200.934 53.0003L451.521 61.1388C478.421 61.1388 500 70.9766 500 83.241L484.569 152.662C484.569 164.927 467.362 173.831 440.463 173.831L385.703 174.267L398.587 200L317.698 174.764L234.217 175.823C207.318 175.823 172.429 164.916 172.429 152.652L148 79.1943C148 66.9298 174.036 53 200.935 53L200.934 53.0003Z" fill="white" stroke="black" stroke-width="2" stroke-linecap="round" stroke-linejoin="round"/>
<path d="M196.2 105.408V107.064H215.856V105.408H196.2ZM204.936 100.152V105.96H206.904V100.152H204.936ZM204.888 89.616V91.296C204.888 94.872 200.784 98.064 196.968 98.76L197.808 100.416C202.176 99.504 206.616 95.928 206.616 91.296V89.616H204.888ZM205.248 89.616V91.296C205.248 95.928 209.688 99.504 214.056 100.416L214.92 98.76C211.104 98.064 206.976 94.896 206.976 91.296V89.616H205.248ZM224.422 99.096V103.92H226.414V99.096H224.422ZM234.046 88.176V104.688H236.038V88.176H234.046ZM221.23 107.76V109.392H236.566V107.76H221.23ZM221.23 103.08V108.216H223.222V103.08H221.23ZM218.422 99.84C222.358 99.84 227.614 99.768 232.294 99.024L232.15 97.56C227.542 98.16 222.166 98.208 218.158 98.208L218.422 99.84ZM229.63 100.992V102.456H234.55V100.992H229.63ZM225.214 89.064C222.022 89.064 219.862 90.552 219.862 92.832C219.862 95.136 222.022 96.624 225.214 96.624C228.382 96.624 230.542 95.136 230.542 92.832C230.542 90.552 228.382 89.064 225.214 89.064ZM225.214 90.552C227.23 90.552 228.646 91.44 228.646 92.832C228.646 94.224 227.23 95.112 225.214 95.112C223.174 95.112 221.758 94.224 221.758 92.832C221.758 91.44 223.174 90.552 225.214 90.552ZM250.148 88.536C245.348 88.536 242.516 89.88 242.516 92.304C242.516 94.728 245.348 96.072 250.148 96.072C254.924 96.072 257.78 94.728 257.78 92.304C257.78 89.88 254.924 88.536 250.148 88.536ZM250.148 90.048C253.676 90.048 255.716 90.864 255.716 92.304C255.716 93.744 253.676 94.56 250.148 94.56C246.596 94.56 244.556 93.744 244.556 92.304C244.556 90.864 246.596 90.048 250.148 90.048ZM240.332 97.512V99.12H259.94V97.512H240.332ZM242.708 100.968V102.504H255.476V104.424H242.756V108.504H244.724V105.864H257.444V100.968H242.708ZM242.756 108.072V109.632H258.092V108.072H242.756ZM284.016 88.176V99.216H286.008V88.176H284.016ZM285.144 92.832V94.488H289.2V92.832H285.144ZM270.072 89.4V98.088H280.032V89.4H270.072ZM278.088 90.984V96.504H272.016V90.984H278.088ZM272.232 100.248V101.832H284.064V104.064H272.28V108.816H274.248V105.576H286.008V100.248H272.232ZM272.28 107.976V109.584H286.8V107.976H272.28ZM291.215 91.872V93.504H301.967V91.872H291.215ZM296.591 94.944C293.903 94.944 291.935 96.984 291.935 99.912C291.935 102.816 293.903 104.856 296.591 104.856C299.303 104.856 301.271 102.816 301.271 99.912C301.271 96.984 299.303 94.944 296.591 94.944ZM296.591 96.648C298.271 96.648 299.495 97.992 299.495 99.912C299.495 101.832 298.271 103.176 296.591 103.176C294.935 103.176 293.735 101.832 293.735 99.912C293.735 97.992 294.935 96.648 296.591 96.648ZM307.703 88.176V109.872H309.623V88.176H307.703ZM304.247 97.296V98.952H308.351V97.296H304.247ZM303.071 88.656V108.816H304.943V88.656H303.071ZM295.631 88.8V92.88H297.599V88.8H295.631ZM314.493 89.976V99.744H325.269V89.976H323.301V93.216H316.485V89.976H314.493ZM316.485 94.8H323.301V98.112H316.485V94.8ZM318.885 99.168V104.232H320.877V99.168H318.885ZM328.005 88.176V109.872H329.997V88.176H328.005ZM329.421 97.272V98.952H333.429V97.272H329.421ZM313.365 105.432C317.157 105.456 322.221 105.384 326.805 104.592L326.637 103.128C322.221 103.728 316.989 103.752 313.077 103.752L313.365 105.432ZM336.196 102.818C336.179 101.875 336.332 101.116 336.656 100.543C336.98 99.9688 337.401 99.5511 337.918 99.2898C338.44 99.0284 338.991 98.8977 339.571 98.8977C340.151 98.8977 340.679 99.0256 341.156 99.2812C341.639 99.5312 342.19 99.9261 342.81 100.466C343.23 100.83 343.565 101.085 343.815 101.233C344.071 101.381 344.349 101.455 344.651 101.455C345.139 101.455 345.526 101.278 345.81 100.926C346.094 100.568 346.23 100.051 346.219 99.375H348.06C348.077 100.318 347.923 101.077 347.599 101.651C347.281 102.224 346.861 102.642 346.338 102.903C345.815 103.165 345.264 103.295 344.685 103.295C344.105 103.295 343.577 103.17 343.099 102.92C342.622 102.665 342.071 102.267 341.446 101.727C341.031 101.364 340.696 101.108 340.44 100.96C340.185 100.812 339.906 100.739 339.605 100.739C339.145 100.739 338.764 100.901 338.463 101.224C338.168 101.543 338.026 102.074 338.037 102.818H336.196ZM199.227 119.545V137H197.114V119.545H199.227ZM204.965 119.545V121.08C204.965 121.545 204.88 122.043 204.71 122.571C204.545 123.094 204.3 123.602 203.977 124.097C203.658 124.585 203.272 125.011 202.817 125.375L201.727 124.489C202.085 123.977 202.394 123.446 202.656 122.895C202.923 122.338 203.056 121.744 203.056 121.114V119.545H204.965ZM207.107 137V123.909H209.05V125.955H209.22C209.493 125.256 209.933 124.713 210.541 124.327C211.149 123.935 211.879 123.739 212.732 123.739C213.595 123.739 214.314 123.935 214.888 124.327C215.467 124.713 215.919 125.256 216.243 125.955H216.379C216.714 125.278 217.217 124.741 217.888 124.344C218.558 123.94 219.362 123.739 220.3 123.739C221.47 123.739 222.428 124.105 223.172 124.838C223.916 125.565 224.288 126.699 224.288 128.239V137H222.277V128.239C222.277 127.273 222.013 126.582 221.484 126.168C220.956 125.753 220.334 125.545 219.618 125.545C218.697 125.545 217.984 125.824 217.479 126.381C216.973 126.932 216.72 127.631 216.72 128.477V137H214.675V128.034C214.675 127.29 214.433 126.69 213.95 126.236C213.467 125.776 212.845 125.545 212.084 125.545C211.561 125.545 211.072 125.685 210.618 125.963C210.169 126.241 209.805 126.628 209.527 127.122C209.254 127.611 209.118 128.176 209.118 128.818V137H207.107ZM240 142.182C239.028 142.182 238.193 142.057 237.494 141.807C236.795 141.562 236.213 141.239 235.747 140.835C235.287 140.438 234.92 140.011 234.648 139.557L236.25 138.432C236.432 138.67 236.662 138.943 236.94 139.25C237.219 139.562 237.599 139.832 238.082 140.06C238.571 140.293 239.21 140.409 240 140.409C241.057 140.409 241.929 140.153 242.616 139.642C243.304 139.131 243.648 138.33 243.648 137.239V134.58H243.477C243.33 134.818 243.119 135.114 242.847 135.466C242.58 135.812 242.193 136.122 241.688 136.395C241.188 136.662 240.511 136.795 239.659 136.795C238.602 136.795 237.653 136.545 236.812 136.045C235.977 135.545 235.315 134.818 234.827 133.864C234.344 132.909 234.102 131.75 234.102 130.386C234.102 129.045 234.338 127.878 234.81 126.884C235.281 125.884 235.938 125.111 236.778 124.565C237.619 124.014 238.591 123.739 239.693 123.739C240.545 123.739 241.222 123.881 241.722 124.165C242.227 124.443 242.614 124.761 242.881 125.119C243.153 125.472 243.364 125.761 243.511 125.989H243.716V123.909H245.659V137.375C245.659 138.5 245.403 139.415 244.892 140.119C244.386 140.83 243.705 141.349 242.847 141.679C241.994 142.014 241.045 142.182 240 142.182ZM239.932 134.989C240.739 134.989 241.42 134.804 241.977 134.435C242.534 134.065 242.957 133.534 243.247 132.841C243.537 132.148 243.682 131.318 243.682 130.352C243.682 129.409 243.54 128.577 243.256 127.855C242.972 127.134 242.551 126.568 241.994 126.159C241.438 125.75 240.75 125.545 239.932 125.545C239.08 125.545 238.369 125.761 237.801 126.193C237.239 126.625 236.815 127.205 236.531 127.932C236.253 128.659 236.114 129.466 236.114 130.352C236.114 131.261 236.256 132.065 236.54 132.764C236.83 133.457 237.256 134.003 237.818 134.401C238.386 134.793 239.091 134.989 239.932 134.989ZM254.83 137.273C253.568 137.273 252.48 136.994 251.565 136.438C250.656 135.875 249.955 135.091 249.46 134.085C248.972 133.074 248.727 131.898 248.727 130.557C248.727 129.216 248.972 128.034 249.46 127.011C249.955 125.983 250.642 125.182 251.523 124.608C252.409 124.028 253.443 123.739 254.625 123.739C255.307 123.739 255.98 123.852 256.645 124.08C257.31 124.307 257.915 124.676 258.46 125.188C259.006 125.693 259.44 126.364 259.764 127.199C260.088 128.034 260.25 129.062 260.25 130.284V131.136H250.159V129.398H258.205C258.205 128.659 258.057 128 257.761 127.42C257.472 126.841 257.057 126.384 256.517 126.048C255.983 125.713 255.352 125.545 254.625 125.545C253.824 125.545 253.131 125.744 252.545 126.142C251.966 126.534 251.52 127.045 251.207 127.676C250.895 128.307 250.739 128.983 250.739 129.705V130.864C250.739 131.852 250.909 132.69 251.25 133.378C251.597 134.06 252.077 134.58 252.69 134.938C253.304 135.29 254.017 135.466 254.83 135.466C255.358 135.466 255.835 135.392 256.261 135.244C256.693 135.091 257.065 134.864 257.378 134.562C257.69 134.256 257.932 133.875 258.102 133.42L260.045 133.966C259.841 134.625 259.497 135.205 259.014 135.705C258.531 136.199 257.935 136.585 257.224 136.864C256.514 137.136 255.716 137.273 254.83 137.273ZM265.321 129.125V137H263.31V123.909H265.253V125.955H265.423C265.73 125.29 266.196 124.756 266.821 124.352C267.446 123.943 268.253 123.739 269.241 123.739C270.128 123.739 270.903 123.92 271.568 124.284C272.233 124.642 272.75 125.188 273.119 125.92C273.489 126.648 273.673 127.568 273.673 128.682V137H271.662V128.818C271.662 127.79 271.395 126.989 270.861 126.415C270.327 125.835 269.594 125.545 268.662 125.545C268.02 125.545 267.446 125.685 266.94 125.963C266.44 126.241 266.045 126.648 265.756 127.182C265.466 127.716 265.321 128.364 265.321 129.125ZM277.349 137V123.909H279.36V137H277.349ZM278.371 121.727C277.979 121.727 277.641 121.594 277.357 121.327C277.079 121.06 276.94 120.739 276.94 120.364C276.94 119.989 277.079 119.668 277.357 119.401C277.641 119.134 277.979 119 278.371 119C278.763 119 279.099 119.134 279.377 119.401C279.661 119.668 279.803 119.989 279.803 120.364C279.803 120.739 279.661 121.06 279.377 121.327C279.099 121.594 278.763 121.727 278.371 121.727ZM288.533 137.273C287.271 137.273 286.183 136.994 285.268 136.438C284.359 135.875 283.658 135.091 283.163 134.085C282.675 133.074 282.43 131.898 282.43 130.557C282.43 129.216 282.675 128.034 283.163 127.011C283.658 125.983 284.345 125.182 285.226 124.608C286.112 124.028 287.146 123.739 288.328 123.739C289.01 123.739 289.683 123.852 290.348 124.08C291.013 124.307 291.618 124.676 292.163 125.188C292.709 125.693 293.143 126.364 293.467 127.199C293.791 128.034 293.953 129.062 293.953 130.284V131.136H283.862V129.398H291.908C291.908 128.659 291.76 128 291.464 127.42C291.175 126.841 290.76 126.384 290.22 126.048C289.686 125.713 289.055 125.545 288.328 125.545C287.527 125.545 286.834 125.744 286.249 126.142C285.669 126.534 285.223 127.045 284.911 127.676C284.598 128.307 284.442 128.983 284.442 129.705V130.864C284.442 131.852 284.612 132.69 284.953 133.378C285.3 134.06 285.78 134.58 286.393 134.938C287.007 135.29 287.72 135.466 288.533 135.466C289.061 135.466 289.538 135.392 289.964 135.244C290.396 135.091 290.768 134.864 291.081 134.562C291.393 134.256 291.635 133.875 291.805 133.42L293.749 133.966C293.544 134.625 293.2 135.205 292.717 135.705C292.234 136.199 291.638 136.585 290.928 136.864C290.217 137.136 289.419 137.273 288.533 137.273ZM309.592 123.909V125.614H302.536V123.909H309.592ZM304.649 137V122.102C304.649 121.352 304.825 120.727 305.178 120.227C305.53 119.727 305.987 119.352 306.55 119.102C307.112 118.852 307.706 118.727 308.331 118.727C308.825 118.727 309.229 118.767 309.541 118.847C309.854 118.926 310.087 119 310.24 119.068L309.661 120.807C309.558 120.773 309.416 120.73 309.234 120.679C309.058 120.628 308.825 120.602 308.536 120.602C307.871 120.602 307.391 120.77 307.095 121.105C306.805 121.44 306.661 121.932 306.661 122.58V137H304.649ZM317.19 137.273C316.009 137.273 314.972 136.991 314.08 136.429C313.193 135.866 312.5 135.08 312 134.068C311.506 133.057 311.259 131.875 311.259 130.523C311.259 129.159 311.506 127.969 312 126.952C312.5 125.935 313.193 125.145 314.08 124.582C314.972 124.02 316.009 123.739 317.19 123.739C318.372 123.739 319.406 124.02 320.293 124.582C321.185 125.145 321.878 125.935 322.372 126.952C322.872 127.969 323.122 129.159 323.122 130.523C323.122 131.875 322.872 133.057 322.372 134.068C321.878 135.08 321.185 135.866 320.293 136.429C319.406 136.991 318.372 137.273 317.19 137.273ZM317.19 135.466C318.088 135.466 318.827 135.236 319.406 134.776C319.986 134.315 320.415 133.71 320.693 132.96C320.972 132.21 321.111 131.398 321.111 130.523C321.111 129.648 320.972 128.832 320.693 128.077C320.415 127.321 319.986 126.71 319.406 126.244C318.827 125.778 318.088 125.545 317.19 125.545C316.293 125.545 315.554 125.778 314.974 126.244C314.395 126.71 313.966 127.321 313.688 128.077C313.409 128.832 313.27 129.648 313.27 130.523C313.27 131.398 313.409 132.21 313.688 132.96C313.966 133.71 314.395 134.315 314.974 134.776C315.554 135.236 316.293 135.466 317.19 135.466ZM326.192 137V123.909H328.136V125.886H328.272C328.511 125.239 328.942 124.713 329.567 124.31C330.192 123.906 330.897 123.705 331.681 123.705C331.829 123.705 332.013 123.707 332.235 123.713C332.457 123.719 332.624 123.727 332.738 123.739V125.784C332.67 125.767 332.513 125.741 332.269 125.707C332.031 125.668 331.778 125.648 331.511 125.648C330.874 125.648 330.306 125.781 329.806 126.048C329.312 126.31 328.92 126.673 328.63 127.139C328.346 127.599 328.204 128.125 328.204 128.716V137H326.192ZM343.168 141.909C342.827 141.909 342.523 141.881 342.256 141.824C341.989 141.773 341.804 141.722 341.702 141.67L342.213 139.898C342.702 140.023 343.134 140.068 343.509 140.034C343.884 140 344.216 139.832 344.506 139.531C344.801 139.236 345.071 138.756 345.315 138.091L345.69 137.068L340.849 123.909H343.031L346.645 134.341H346.781L350.395 123.909H352.577L347.02 138.909C346.77 139.585 346.46 140.145 346.091 140.588C345.722 141.037 345.293 141.369 344.804 141.585C344.321 141.801 343.776 141.909 343.168 141.909ZM360.081 137.273C358.899 137.273 357.862 136.991 356.97 136.429C356.084 135.866 355.391 135.08 354.891 134.068C354.396 133.057 354.149 131.875 354.149 130.523C354.149 129.159 354.396 127.969 354.891 126.952C355.391 125.935 356.084 125.145 356.97 124.582C357.862 124.02 358.899 123.739 360.081 123.739C361.263 123.739 362.297 124.02 363.183 124.582C364.075 125.145 364.768 125.935 365.263 126.952C365.763 127.969 366.013 129.159 366.013 130.523C366.013 131.875 365.763 133.057 365.263 134.068C364.768 135.08 364.075 135.866 363.183 136.429C362.297 136.991 361.263 137.273 360.081 137.273ZM360.081 135.466C360.979 135.466 361.717 135.236 362.297 134.776C362.876 134.315 363.305 133.71 363.584 132.96C363.862 132.21 364.001 131.398 364.001 130.523C364.001 129.648 363.862 128.832 363.584 128.077C363.305 127.321 362.876 126.71 362.297 126.244C361.717 125.778 360.979 125.545 360.081 125.545C359.183 125.545 358.445 125.778 357.865 126.244C357.286 126.71 356.857 127.321 356.578 128.077C356.3 128.832 356.161 129.648 356.161 130.523C356.161 131.398 356.3 132.21 356.578 132.96C356.857 133.71 357.286 134.315 357.865 134.776C358.445 135.236 359.183 135.466 360.081 135.466ZM377.333 131.648V123.909H379.344V137H377.333V134.784H377.197C376.89 135.449 376.413 136.014 375.765 136.48C375.117 136.94 374.299 137.17 373.31 137.17C372.492 137.17 371.765 136.991 371.129 136.634C370.492 136.27 369.992 135.724 369.629 134.997C369.265 134.264 369.083 133.341 369.083 132.227V123.909H371.094V132.091C371.094 133.045 371.362 133.807 371.896 134.375C372.435 134.943 373.123 135.227 373.958 135.227C374.458 135.227 374.967 135.099 375.484 134.844C376.006 134.588 376.444 134.196 376.796 133.668C377.154 133.139 377.333 132.466 377.333 131.648ZM383.028 137V123.909H384.972V125.886H385.108C385.347 125.239 385.778 124.713 386.403 124.31C387.028 123.906 387.733 123.705 388.517 123.705C388.665 123.705 388.849 123.707 389.071 123.713C389.293 123.719 389.46 123.727 389.574 123.739V125.784C389.506 125.767 389.349 125.741 389.105 125.707C388.866 125.668 388.614 125.648 388.347 125.648C387.71 125.648 387.142 125.781 386.642 126.048C386.148 126.31 385.756 126.673 385.466 127.139C385.182 127.599 385.04 128.125 385.04 128.716V137H383.028ZM401.674 137L397.685 123.909H399.799L402.629 133.932H402.765L405.56 123.909H407.708L410.469 133.898H410.606L413.435 123.909H415.549L411.56 137H409.583L406.719 126.943H406.515L403.651 137H401.674ZM418.208 137V123.909H420.219V137H418.208ZM419.231 121.727C418.839 121.727 418.501 121.594 418.217 121.327C417.938 121.06 417.799 120.739 417.799 120.364C417.799 119.989 417.938 119.668 418.217 119.401C418.501 119.134 418.839 119 419.231 119C419.623 119 419.958 119.134 420.237 119.401C420.521 119.668 420.663 119.989 420.663 120.364C420.663 120.739 420.521 121.06 420.237 121.327C419.958 121.594 419.623 121.727 419.231 121.727ZM433.176 126.841L431.369 127.352C431.256 127.051 431.088 126.759 430.866 126.474C430.651 126.185 430.355 125.946 429.98 125.759C429.605 125.571 429.125 125.477 428.54 125.477C427.739 125.477 427.071 125.662 426.537 126.031C426.009 126.395 425.744 126.858 425.744 127.42C425.744 127.92 425.926 128.315 426.29 128.605C426.653 128.895 427.222 129.136 427.994 129.33L429.938 129.807C431.108 130.091 431.98 130.526 432.554 131.111C433.128 131.69 433.415 132.437 433.415 133.352C433.415 134.102 433.199 134.773 432.767 135.364C432.341 135.955 431.744 136.42 430.977 136.761C430.21 137.102 429.318 137.273 428.301 137.273C426.966 137.273 425.861 136.983 424.986 136.403C424.111 135.824 423.557 134.977 423.324 133.864L425.233 133.386C425.415 134.091 425.759 134.619 426.264 134.972C426.776 135.324 427.443 135.5 428.267 135.5C429.205 135.5 429.949 135.301 430.5 134.903C431.057 134.5 431.335 134.017 431.335 133.455C431.335 133 431.176 132.619 430.858 132.312C430.54 132 430.051 131.767 429.392 131.614L427.21 131.102C426.011 130.818 425.131 130.378 424.568 129.781C424.011 129.179 423.733 128.426 423.733 127.523C423.733 126.784 423.94 126.131 424.355 125.562C424.776 124.994 425.347 124.548 426.068 124.224C426.795 123.901 427.619 123.739 428.54 123.739C429.835 123.739 430.852 124.023 431.591 124.591C432.335 125.159 432.864 125.909 433.176 126.841ZM438.454 129.125V137H436.442V119.545H438.454V125.955H438.624C438.931 125.278 439.391 124.741 440.005 124.344C440.624 123.94 441.448 123.739 442.477 123.739C443.369 123.739 444.15 123.918 444.82 124.276C445.491 124.628 446.011 125.17 446.38 125.903C446.755 126.631 446.942 127.557 446.942 128.682V137H444.931V128.818C444.931 127.778 444.661 126.974 444.121 126.406C443.587 125.832 442.846 125.545 441.897 125.545C441.238 125.545 440.647 125.685 440.124 125.963C439.607 126.241 439.198 126.648 438.897 127.182C438.602 127.716 438.454 128.364 438.454 129.125ZM450.759 131.818C450.741 130.875 450.895 130.116 451.219 129.543C451.543 128.969 451.963 128.551 452.48 128.29C453.003 128.028 453.554 127.898 454.134 127.898C454.713 127.898 455.241 128.026 455.719 128.281C456.202 128.531 456.753 128.926 457.372 129.466C457.793 129.83 458.128 130.085 458.378 130.233C458.634 130.381 458.912 130.455 459.213 130.455C459.702 130.455 460.088 130.278 460.372 129.926C460.656 129.568 460.793 129.051 460.781 128.375H462.622C462.639 129.318 462.486 130.077 462.162 130.651C461.844 131.224 461.423 131.642 460.901 131.903C460.378 132.165 459.827 132.295 459.247 132.295C458.668 132.295 458.139 132.17 457.662 131.92C457.185 131.665 456.634 131.267 456.009 130.727C455.594 130.364 455.259 130.108 455.003 129.96C454.747 129.812 454.469 129.739 454.168 129.739C453.707 129.739 453.327 129.901 453.026 130.224C452.73 130.543 452.588 131.074 452.599 131.818H450.759Z" fill="black"/>
</g>
<defs>
<clipPath id="clip0_448_26">
<rect width="500" height="200" fill="white"/>
</clipPath>
</defs>
</svg>
