<svg width="500" height="200" viewBox="0 0 500 200" fill="none" xmlns="http://www.w3.org/2000/svg">
<g clip-path="url(#clip0_448_41)">
<path d="M230.671 131L456.342 134.82C480.567 134.82 500 139.438 500 145.195L486.104 177.78C486.104 183.537 470.607 187.717 446.383 187.717L397.068 187.921L408.671 200L335.825 188.155L260.645 188.651C236.42 188.651 205 183.532 205 177.775L183 143.295C183 137.538 206.447 131 230.671 131Z" fill="white" stroke="black" stroke-width="2" stroke-linecap="round" stroke-linejoin="round"/>
<path d="M213.176 162.776V164.408H232.856V162.776H213.176ZM221.96 163.76V171.872H223.928V163.76H221.96ZM215.672 151.376V159.848H230.312V151.376H215.672ZM228.368 152.984V158.24H217.64V152.984H228.368ZM251.118 150.176V165.056H253.11V150.176H251.118ZM245.934 156.104V157.736H251.67V156.104H245.934ZM241.182 151.64C237.966 151.64 235.59 153.8 235.59 156.896C235.59 159.968 237.966 162.152 241.182 162.152C244.374 162.152 246.774 159.968 246.774 156.896C246.774 153.8 244.374 151.64 241.182 151.64ZM241.182 153.344C243.294 153.344 244.854 154.808 244.854 156.896C244.854 158.96 243.294 160.448 241.182 160.448C239.07 160.448 237.51 158.96 237.51 156.896C237.51 154.808 239.07 153.344 241.182 153.344ZM245.118 163.352V164.192C245.118 167.144 241.686 169.544 237.846 170.192L238.614 171.776C243.03 170.984 246.822 168.104 246.822 164.192V163.352H245.118ZM245.454 163.352V164.192C245.454 168.2 249.27 170.96 253.662 171.776L254.454 170.192C250.566 169.544 247.158 167.216 247.158 164.192V163.352H245.454ZM273.1 150.152V171.896H275.092V150.152H273.1ZM263.644 151.832C260.452 151.832 258.148 154.784 258.148 159.392C258.148 164.024 260.452 166.976 263.644 166.976C266.86 166.976 269.164 164.024 269.164 159.392C269.164 154.784 266.86 151.832 263.644 151.832ZM263.644 153.632C265.78 153.632 267.244 155.888 267.244 159.392C267.244 162.92 265.78 165.224 263.644 165.224C261.532 165.224 260.044 162.92 260.044 159.392C260.044 155.888 261.532 153.632 263.644 153.632ZM279.434 161.12V162.752H299.042V161.12H279.434ZM281.906 157.112V158.768H296.786V157.112H281.906ZM281.906 151.112V157.664H283.898V152.72H296.594V151.112H281.906ZM281.93 169.736V171.392H296.978V169.736H281.93ZM281.93 165.032V170.168H283.922V165.032H281.93ZM317.047 156.608V159.92H319.015V156.608H317.047ZM316.759 151.496V152.168C316.759 154.448 313.183 156.128 309.271 156.44L309.919 157.952C314.479 157.52 318.511 155.432 318.511 152.168V151.496H316.759ZM317.623 151.496V152.168C317.623 155.432 321.655 157.52 326.191 157.952L326.839 156.44C322.927 156.128 319.351 154.424 319.351 152.168V151.496H317.623ZM310.039 150.848V152.408H326.095V150.848H310.039ZM310.062 163.64V165.224H326.047V163.64H310.062ZM308.239 159.176V160.784H327.919V159.176H308.239ZM318.055 166.28C313.879 166.28 311.527 167.264 311.527 169.136C311.527 171.032 313.879 171.992 318.055 171.992C322.231 171.992 324.559 171.032 324.559 169.136C324.559 167.264 322.231 166.28 318.055 166.28ZM318.055 167.648C320.911 167.648 322.543 168.152 322.543 169.136C322.543 170.12 320.911 170.624 318.055 170.624C315.175 170.624 313.567 170.12 313.567 169.136C313.567 168.152 315.175 167.648 318.055 167.648ZM317.071 161.648V164.648H319.039V161.648H317.071ZM340.133 151.544C335.621 151.544 332.237 153.944 332.237 157.544C332.237 161.168 335.621 163.544 340.133 163.544C344.645 163.544 348.005 161.168 348.005 157.544C348.005 153.944 344.645 151.544 340.133 151.544ZM340.133 153.176C343.565 153.176 346.109 154.928 346.109 157.544C346.109 160.136 343.565 161.912 340.133 161.912C336.701 161.912 334.157 160.136 334.157 157.544C334.157 154.928 336.701 153.176 340.133 153.176ZM330.341 167.336V169.016H349.997V167.336H330.341ZM368.187 150.176V171.872H370.179V150.176H368.187ZM353.787 152.288V165.728H355.755V152.288H353.787ZM353.787 164.552V166.28H355.563C358.995 166.28 362.427 166.016 366.195 165.248L365.955 163.544C362.283 164.312 358.851 164.552 355.563 164.552H353.787ZM386.767 152.384V154.136C386.767 157.208 384.535 160.088 381.295 161.24L382.327 162.824C385.951 161.48 388.399 158.096 388.399 154.136V152.384H386.767ZM387.151 152.384V154.136C387.151 157.76 389.479 161.024 393.007 162.32L394.015 160.736C390.871 159.632 388.759 156.92 388.759 154.136V152.384H387.151ZM392.839 155.816V157.472H397.663V155.816H392.839ZM381.919 151.664V153.272H393.511V151.664H381.919ZM384.607 164.336V165.968H397.087V171.872H399.079V164.336H384.607ZM397.087 150.176V163.16H399.079V150.176H397.087ZM409.109 151.832C405.941 151.832 403.709 154.784 403.709 159.392C403.709 164.024 405.941 166.976 409.109 166.976C412.253 166.976 414.509 164.024 414.509 159.392C414.509 154.784 412.253 151.832 409.109 151.832ZM409.109 153.632C411.197 153.632 412.613 155.888 412.613 159.392C412.613 162.92 411.197 165.224 409.109 165.224C407.021 165.224 405.605 162.92 405.605 159.392C405.605 155.888 407.021 153.632 409.109 153.632ZM419.213 150.152V171.896H421.181V150.152H419.213ZM413.861 158.432V160.064H420.077V158.432H413.861ZM427.995 150.512V157.664H442.443V150.512H440.451V152.528H429.963V150.512H427.995ZM429.963 154.064H440.451V156.128H429.963V154.064ZM425.379 159.752V161.36H444.987V159.752H425.379ZM434.187 156.944V160.256H436.155V156.944H434.187ZM427.755 163.16V164.672H440.523V166.544H427.803V170.672H429.771V167.984H442.491V163.16H427.755ZM427.803 170.096V171.632H443.139V170.096H427.803ZM448.177 165.032V166.688H449.617C452.305 166.688 454.753 166.616 457.753 166.088L457.585 164.432C454.657 164.936 452.257 165.032 449.617 165.032H448.177ZM448.129 152.528V154.16H454.321V158.528H448.177V165.656H450.121V160.16H456.265V152.528H448.129ZM463.969 150.176V171.872H465.889V150.176H463.969ZM460.297 158.744V160.376H464.473V158.744H460.297ZM459.049 150.656V170.768H460.921V150.656H459.049ZM472.825 165.091V164.989C472.837 163.903 472.95 163.04 473.166 162.398C473.382 161.756 473.689 161.236 474.087 160.838C474.484 160.44 474.962 160.074 475.518 159.739C475.854 159.534 476.155 159.293 476.422 159.014C476.689 158.73 476.899 158.403 477.053 158.034C477.212 157.665 477.291 157.256 477.291 156.807C477.291 156.25 477.161 155.767 476.899 155.358C476.638 154.949 476.288 154.634 475.851 154.412C475.413 154.19 474.928 154.08 474.393 154.08C473.928 154.08 473.479 154.176 473.047 154.369C472.615 154.562 472.254 154.866 471.964 155.281C471.675 155.696 471.507 156.239 471.462 156.909H469.314C469.359 155.943 469.609 155.116 470.064 154.429C470.524 153.741 471.129 153.216 471.879 152.852C472.635 152.489 473.473 152.307 474.393 152.307C475.393 152.307 476.263 152.506 477.001 152.903C477.746 153.301 478.32 153.847 478.723 154.54C479.132 155.233 479.337 156.023 479.337 156.909C479.337 157.534 479.24 158.099 479.047 158.605C478.859 159.111 478.587 159.562 478.229 159.96C477.876 160.358 477.45 160.71 476.95 161.017C476.45 161.33 476.05 161.659 475.749 162.006C475.447 162.347 475.229 162.753 475.092 163.224C474.956 163.696 474.882 164.284 474.871 164.989V165.091H472.825ZM473.916 170.136C473.496 170.136 473.135 169.986 472.834 169.685C472.533 169.384 472.382 169.023 472.382 168.602C472.382 168.182 472.533 167.821 472.834 167.52C473.135 167.219 473.496 167.068 473.916 167.068C474.337 167.068 474.697 167.219 474.999 167.52C475.3 167.821 475.45 168.182 475.45 168.602C475.45 168.881 475.379 169.136 475.237 169.369C475.101 169.602 474.916 169.79 474.683 169.932C474.456 170.068 474.2 170.136 473.916 170.136Z" fill="black"/>
</g>
<defs>
<clipPath id="clip0_448_41">
<rect width="500" height="200" fill="white"/>
</clipPath>
</defs>
</svg>
