<svg width="500" height="200" viewBox="0 0 500 200" fill="none" xmlns="http://www.w3.org/2000/svg">
<g clip-path="url(#clip0_448_31)">
<path d="M133.814 99L440.641 104.426C473.578 104.426 500 110.984 500 119.161L494 165.435C494 173.611 485.936 179.844 453 179.844H422.5L371.5 172L398 198.5L276.784 180.176L174.567 180.882C141.63 180.882 98.9113 173.611 98.9113 165.435L69 116.463C69 108.286 100.879 99 133.814 99Z" fill="white" stroke="black" stroke-width="2" stroke-linecap="round" stroke-linejoin="round"/>
<path d="M128.088 129.176V150.92H130.08V129.176H128.088ZM121.416 136.328V137.96H128.736V136.328H121.416ZM113.376 131.6V145.04H115.344V131.6H113.376ZM113.376 143.984V145.664H115.056C118.488 145.664 121.536 145.448 124.992 144.776L124.752 143.096C121.416 143.792 118.416 143.984 115.056 143.984H113.376ZM148.942 129.152V150.872H150.958V129.152H148.942ZM150.406 137.96V139.616H154.414V137.96H150.406ZM143.398 131.504V131.816C143.398 137.552 140.398 142.184 134.398 145.232L135.502 146.768C142.51 143.24 145.342 137.672 145.342 131.504H143.398ZM135.406 131.504V133.136H144.43V131.504H135.406ZM178.85 129.152V150.896H180.842V129.152H178.85ZM169.394 130.832C166.202 130.832 163.898 133.784 163.898 138.392C163.898 143.024 166.202 145.976 169.394 145.976C172.61 145.976 174.914 143.024 174.914 138.392C174.914 133.784 172.61 130.832 169.394 130.832ZM169.394 132.632C171.53 132.632 172.994 134.888 172.994 138.392C172.994 141.92 171.53 144.224 169.394 144.224C167.282 144.224 165.794 141.92 165.794 138.392C165.794 134.888 167.282 132.632 169.394 132.632ZM187.512 130.04V131.648H200.448V134.168H187.56V139.448H189.576V135.704H202.44V130.04H187.512ZM187.56 138.464V140.096H202.944V138.464H187.56ZM185.16 142.328V143.984H204.84V142.328H185.16ZM193.968 142.952V150.896H195.936V142.952H193.968ZM212.999 132.272V135.8C212.999 139.544 210.383 143.624 207.239 145.112L208.391 146.696C211.847 144.992 214.607 140.384 214.607 135.8V132.272H212.999ZM213.383 132.272V135.8C213.383 140.312 216.167 144.536 219.671 146.168L220.799 144.584C217.607 143.216 214.991 139.472 214.991 135.8V132.272H213.383ZM207.959 131.384V133.064H220.079V131.384H207.959ZM223.007 129.176V150.872H224.999V129.176H223.007ZM238.587 130.064V137.384H253.179V130.064H238.587ZM251.211 131.672V135.776H240.531V131.672H251.211ZM236.067 139.928V141.536H255.675V139.928H236.067ZM244.899 136.88V140.624H246.867V136.88H244.899ZM244.875 142.904V143.576C244.875 146.456 241.539 148.616 237.579 149.192L238.347 150.752C242.787 150.008 246.579 147.464 246.579 143.576V142.904H244.875ZM245.187 142.904V143.576C245.187 147.464 248.955 150.008 253.395 150.752L254.163 149.192C250.203 148.616 246.891 146.456 246.891 143.576V142.904H245.187ZM273.001 129.2V145.472H274.993V129.2H273.001ZM274.369 136.304V137.984H278.209V136.304H274.369ZM258.217 131.816V133.424H271.033V131.816H258.217ZM264.625 134.624C261.529 134.624 259.417 136.232 259.417 138.68C259.417 141.104 261.529 142.712 264.625 142.712C267.697 142.712 269.809 141.104 269.809 138.68C269.809 136.232 267.697 134.624 264.625 134.624ZM264.625 136.184C266.569 136.184 267.913 137.168 267.913 138.68C267.913 140.168 266.569 141.152 264.625 141.152C262.657 141.152 261.313 140.168 261.313 138.68C261.313 137.168 262.657 136.184 264.625 136.184ZM263.617 129.176V132.656H265.609V129.176H263.617ZM261.481 148.76V150.392H275.977V148.76H261.481ZM261.481 144.176V149.456H263.473V144.176H261.481ZM288.869 130.184V131.816H294.605V130.184H288.869ZM293.909 130.184V130.832C293.909 132.152 293.909 134.624 292.877 138.272L294.821 138.512C295.829 134.816 295.829 132.128 295.829 130.832V130.184H293.909ZM297.437 130.184V131.816H303.293V130.184H297.437ZM302.381 130.184V131.072C302.381 132.488 302.381 134.84 301.493 138.344L303.437 138.608C304.301 135.032 304.301 132.488 304.301 131.072V130.184H302.381ZM286.973 137.696V139.304H306.653V137.696H286.973ZM295.781 138.944V143.696H297.749V138.944H295.781ZM289.445 142.952V150.584H304.133V142.952H289.445ZM302.189 144.56V148.952H291.389V144.56H302.189ZM309.051 140.576V142.208H328.659V140.576H309.051ZM311.595 148.76V150.392H326.499V148.76H311.595ZM311.595 144.104V149.264H313.587V144.104H311.595ZM318.867 129.896C314.211 129.896 311.235 131.528 311.235 134.24C311.235 136.928 314.211 138.56 318.867 138.56C323.499 138.56 326.499 136.928 326.499 134.24C326.499 131.528 323.499 129.896 318.867 129.896ZM318.867 131.528C322.275 131.528 324.459 132.536 324.459 134.24C324.459 135.944 322.275 136.952 318.867 136.952C315.459 136.952 313.275 135.944 313.275 134.24C313.275 132.536 315.459 131.528 318.867 131.528ZM337.879 141.776V143.408H357.559V141.776H337.879ZM346.663 142.76V150.872H348.631V142.76H346.663ZM340.375 130.376V138.848H355.015V130.376H340.375ZM353.071 131.984V137.24H342.343V131.984H353.071ZM375.821 129.176V144.056H377.813V129.176H375.821ZM370.637 135.104V136.736H376.373V135.104H370.637ZM365.885 130.64C362.669 130.64 360.293 132.8 360.293 135.896C360.293 138.968 362.669 141.152 365.885 141.152C369.077 141.152 371.477 138.968 371.477 135.896C371.477 132.8 369.077 130.64 365.885 130.64ZM365.885 132.344C367.997 132.344 369.557 133.808 369.557 135.896C369.557 137.96 367.997 139.448 365.885 139.448C363.773 139.448 362.213 137.96 362.213 135.896C362.213 133.808 363.773 132.344 365.885 132.344ZM369.821 142.352V143.192C369.821 146.144 366.389 148.544 362.549 149.192L363.317 150.776C367.733 149.984 371.525 147.104 371.525 143.192V142.352H369.821ZM370.157 142.352V143.192C370.157 147.2 373.973 149.96 378.365 150.776L379.157 149.192C375.269 148.544 371.861 146.216 371.861 143.192V142.352H370.157ZM397.803 129.152V150.896H399.795V129.152H397.803ZM388.347 130.832C385.155 130.832 382.851 133.784 382.851 138.392C382.851 143.024 385.155 145.976 388.347 145.976C391.563 145.976 393.867 143.024 393.867 138.392C393.867 133.784 391.563 130.832 388.347 130.832ZM388.347 132.632C390.483 132.632 391.947 134.888 391.947 138.392C391.947 141.92 390.483 144.224 388.347 144.224C386.235 144.224 384.747 141.92 384.747 138.392C384.747 134.888 386.235 132.632 388.347 132.632ZM416.288 142.52V143.696C416.288 145.784 414.656 148.112 411.92 149.096L412.928 150.584C416.048 149.384 417.824 146.528 417.824 143.696V142.52H416.288ZM416.72 142.52V143.696C416.72 146.576 418.136 149.552 421.256 150.776L422.096 149.264C419.504 148.208 418.208 145.88 418.208 143.696V142.52H416.72ZM424.304 142.52V143.696C424.304 145.568 422.984 148.088 420.416 149.264L421.256 150.776C424.352 149.456 425.792 146.24 425.792 143.696V142.52H424.304ZM424.712 142.52V143.696C424.712 146.696 426.44 149.432 429.608 150.584L430.616 149.096C427.856 148.16 426.248 145.928 426.248 143.696V142.52H424.712ZM426.656 129.2V141.584H428.672V129.2H426.656ZM417.032 130.448C413.744 130.448 411.368 132.512 411.368 135.512C411.368 138.512 413.744 140.552 417.032 140.552C420.32 140.552 422.672 138.512 422.672 135.512C422.672 132.512 420.32 130.448 417.032 130.448ZM417.032 132.104C419.192 132.104 420.752 133.496 420.752 135.512C420.752 137.528 419.192 138.896 417.032 138.896C414.872 138.896 413.312 137.528 413.312 135.512C413.312 133.496 414.872 132.104 417.032 132.104ZM448.734 129.176V150.872H450.726V129.176H448.734ZM434.334 131.288V144.728H436.302V131.288H434.334ZM434.334 143.552V145.28H436.11C439.542 145.28 442.974 145.016 446.742 144.248L446.502 142.544C442.83 143.312 439.398 143.552 436.11 143.552H434.334ZM458.31 144.091V143.989C458.321 142.903 458.435 142.04 458.651 141.398C458.866 140.756 459.173 140.236 459.571 139.838C459.969 139.44 460.446 139.074 461.003 138.739C461.338 138.534 461.639 138.293 461.906 138.014C462.173 137.73 462.384 137.403 462.537 137.034C462.696 136.665 462.776 136.256 462.776 135.807C462.776 135.25 462.645 134.767 462.384 134.358C462.122 133.949 461.773 133.634 461.335 133.412C460.898 133.19 460.412 133.08 459.878 133.08C459.412 133.08 458.963 133.176 458.531 133.369C458.099 133.562 457.739 133.866 457.449 134.281C457.159 134.696 456.991 135.239 456.946 135.909H454.798C454.844 134.943 455.094 134.116 455.548 133.429C456.009 132.741 456.614 132.216 457.364 131.852C458.119 131.489 458.957 131.307 459.878 131.307C460.878 131.307 461.747 131.506 462.486 131.903C463.23 132.301 463.804 132.847 464.207 133.54C464.616 134.233 464.821 135.023 464.821 135.909C464.821 136.534 464.724 137.099 464.531 137.605C464.344 138.111 464.071 138.562 463.713 138.96C463.361 139.358 462.935 139.71 462.435 140.017C461.935 140.33 461.534 140.659 461.233 141.006C460.932 141.347 460.713 141.753 460.577 142.224C460.44 142.696 460.366 143.284 460.355 143.989V144.091H458.31ZM459.401 149.136C458.98 149.136 458.619 148.986 458.318 148.685C458.017 148.384 457.866 148.023 457.866 147.602C457.866 147.182 458.017 146.821 458.318 146.52C458.619 146.219 458.98 146.068 459.401 146.068C459.821 146.068 460.182 146.219 460.483 146.52C460.784 146.821 460.935 147.182 460.935 147.602C460.935 147.881 460.864 148.136 460.722 148.369C460.585 148.602 460.401 148.79 460.168 148.932C459.94 149.068 459.685 149.136 459.401 149.136Z" fill="black"/>
</g>
<defs>
<clipPath id="clip0_448_31">
<rect width="500" height="200" fill="white"/>
</clipPath>
</defs>
</svg>
