<svg width="500" height="200" viewBox="0 0 500 200" fill="none" xmlns="http://www.w3.org/2000/svg">
<g clip-path="url(#clip0_448_35)">
<path d="M195.836 103L450.695 108.482C478.053 108.482 500 115.109 500 123.371L484.306 170.134C484.306 178.395 466.806 184.393 439.448 184.393L383.755 184.687L408.12 200L314.591 185.022L229.687 185.735C202.329 185.735 166.845 178.388 166.845 170.127L142 120.645C142 112.383 168.479 103 195.836 103Z" fill="white" stroke="black" stroke-width="2" stroke-linecap="round" stroke-linejoin="round"/>
<path d="M189.576 147.392V153.584H204.384V147.392H189.576ZM202.44 148.928V152.072H191.544V148.928H202.44ZM188.208 133.976V135.56H205.656V133.976H188.208ZM196.992 136.4C192.504 136.4 189.984 137.48 189.984 139.52C189.984 141.56 192.504 142.64 196.992 142.64C201.456 142.64 204 141.56 204 139.52C204 137.48 201.456 136.4 196.992 136.4ZM196.992 137.792C200.112 137.792 201.864 138.416 201.864 139.52C201.864 140.624 200.112 141.224 196.992 141.224C193.848 141.224 192.096 140.624 192.096 139.52C192.096 138.416 193.848 137.792 196.992 137.792ZM196.008 131.864V134.96H197.976V131.864H196.008ZM187.176 144.032V145.616H206.784V144.032H187.176ZM211.654 147.392V153.584H226.462V147.392H211.654ZM224.518 148.928V152.072H213.622V148.928H224.518ZM210.286 133.976V135.56H227.734V133.976H210.286ZM219.07 136.4C214.582 136.4 212.062 137.48 212.062 139.52C212.062 141.56 214.582 142.64 219.07 142.64C223.534 142.64 226.078 141.56 226.078 139.52C226.078 137.48 223.534 136.4 219.07 136.4ZM219.07 137.792C222.19 137.792 223.942 138.416 223.942 139.52C223.942 140.624 222.19 141.224 219.07 141.224C215.926 141.224 214.174 140.624 214.174 139.52C214.174 138.416 215.926 137.792 219.07 137.792ZM218.086 131.864V134.96H220.054V131.864H218.086ZM209.254 144.032V145.616H228.862V144.032H209.254ZM233.463 152.136C233.043 152.136 232.682 151.986 232.381 151.685C232.08 151.384 231.929 151.023 231.929 150.602C231.929 150.182 232.08 149.821 232.381 149.52C232.682 149.219 233.043 149.068 233.463 149.068C233.884 149.068 234.244 149.219 234.545 149.52C234.847 149.821 234.997 150.182 234.997 150.602C234.997 150.881 234.926 151.136 234.784 151.369C234.648 151.602 234.463 151.79 234.23 151.932C234.003 152.068 233.747 152.136 233.463 152.136ZM240.072 152.136C239.652 152.136 239.291 151.986 238.99 151.685C238.689 151.384 238.538 151.023 238.538 150.602C238.538 150.182 238.689 149.821 238.99 149.52C239.291 149.219 239.652 149.068 240.072 149.068C240.493 149.068 240.854 149.219 241.155 149.52C241.456 149.821 241.607 150.182 241.607 150.602C241.607 150.881 241.536 151.136 241.393 151.369C241.257 151.602 241.072 151.79 240.839 151.932C240.612 152.068 240.357 152.136 240.072 152.136ZM267.213 132.176V153.92H269.205V132.176H267.213ZM260.541 139.328V140.96H267.861V139.328H260.541ZM252.501 134.6V148.04H254.469V134.6H252.501ZM252.501 146.984V148.664H254.181C257.613 148.664 260.661 148.448 264.117 147.776L263.877 146.096C260.541 146.792 257.541 146.984 254.181 146.984H252.501ZM280.435 133.736C277.051 133.736 274.603 135.824 274.603 138.848C274.603 141.896 277.051 143.984 280.435 143.984C283.819 143.984 286.243 141.896 286.243 138.848C286.243 135.824 283.819 133.736 280.435 133.736ZM280.435 135.464C282.667 135.464 284.299 136.832 284.299 138.848C284.299 140.864 282.667 142.256 280.435 142.256C278.179 142.256 276.547 140.864 276.547 138.848C276.547 136.832 278.179 135.464 280.435 135.464ZM289.075 132.152V153.896H291.067V132.152H289.075ZM273.787 149.144C277.651 149.144 282.955 149.12 287.827 148.184L287.659 146.72C282.931 147.464 277.459 147.488 273.499 147.488L273.787 149.144ZM302.231 149.408V151.064H321.887V149.408H302.231ZM310.967 144.152V149.96H312.935V144.152H310.967ZM310.919 133.616V135.296C310.919 138.872 306.815 142.064 302.999 142.76L303.839 144.416C308.207 143.504 312.647 139.928 312.647 135.296V133.616H310.919ZM311.279 133.616V135.296C311.279 139.928 315.719 143.504 320.087 144.416L320.951 142.76C317.135 142.064 313.007 138.896 313.007 135.296V133.616H311.279ZM330.453 143.096V147.92H332.445V143.096H330.453ZM340.077 132.176V148.688H342.069V132.176H340.077ZM327.261 151.76V153.392H342.597V151.76H327.261ZM327.261 147.08V152.216H329.253V147.08H327.261ZM324.453 143.84C328.389 143.84 333.645 143.768 338.325 143.024L338.181 141.56C333.573 142.16 328.197 142.208 324.189 142.208L324.453 143.84ZM335.661 144.992V146.456H340.581V144.992H335.661ZM331.245 133.064C328.053 133.064 325.893 134.552 325.893 136.832C325.893 139.136 328.053 140.624 331.245 140.624C334.413 140.624 336.573 139.136 336.573 136.832C336.573 134.552 334.413 133.064 331.245 133.064ZM331.245 134.552C333.261 134.552 334.677 135.44 334.677 136.832C334.677 138.224 333.261 139.112 331.245 139.112C329.205 139.112 327.789 138.224 327.789 136.832C327.789 135.44 329.205 134.552 331.245 134.552ZM346.364 143.576V145.208H365.972V143.576H346.364ZM348.908 151.76V153.392H363.812V151.76H348.908ZM348.908 147.104V152.264H350.9V147.104H348.908ZM356.18 132.896C351.523 132.896 348.548 134.528 348.548 137.24C348.548 139.928 351.523 141.56 356.18 141.56C360.812 141.56 363.812 139.928 363.812 137.24C363.812 134.528 360.812 132.896 356.18 132.896ZM356.18 134.528C359.588 134.528 361.772 135.536 361.772 137.24C361.772 138.944 359.588 139.952 356.18 139.952C352.772 139.952 350.588 138.944 350.588 137.24C350.588 135.536 352.772 134.528 356.18 134.528ZM375.192 144.776V146.408H394.872V144.776H375.192ZM383.976 145.76V153.872H385.944V145.76H383.976ZM377.688 133.376V141.848H392.328V133.376H377.688ZM390.384 134.984V140.24H379.656V134.984H390.384ZM413.134 132.176V147.056H415.126V132.176H413.134ZM407.95 138.104V139.736H413.686V138.104H407.95ZM403.198 133.64C399.982 133.64 397.606 135.8 397.606 138.896C397.606 141.968 399.982 144.152 403.198 144.152C406.39 144.152 408.79 141.968 408.79 138.896C408.79 135.8 406.39 133.64 403.198 133.64ZM403.198 135.344C405.31 135.344 406.87 136.808 406.87 138.896C406.87 140.96 405.31 142.448 403.198 142.448C401.086 142.448 399.526 140.96 399.526 138.896C399.526 136.808 401.086 135.344 403.198 135.344ZM407.134 145.352V146.192C407.134 149.144 403.702 151.544 399.862 152.192L400.63 153.776C405.046 152.984 408.838 150.104 408.838 146.192V145.352H407.134ZM407.47 145.352V146.192C407.47 150.2 411.286 152.96 415.678 153.776L416.47 152.192C412.582 151.544 409.174 149.216 409.174 146.192V145.352H407.47ZM435.116 132.152V153.896H437.108V132.152H435.116ZM425.66 133.832C422.468 133.832 420.164 136.784 420.164 141.392C420.164 146.024 422.468 148.976 425.66 148.976C428.876 148.976 431.18 146.024 431.18 141.392C431.18 136.784 428.876 133.832 425.66 133.832ZM425.66 135.632C427.796 135.632 429.26 137.888 429.26 141.392C429.26 144.92 427.796 147.224 425.66 147.224C423.548 147.224 422.06 144.92 422.06 141.392C422.06 137.888 423.548 135.632 425.66 135.632ZM457.218 132.176V153.872H459.21V132.176H457.218ZM442.818 134.288V147.728H444.786V134.288H442.818ZM442.818 146.552V148.28H444.594C448.026 148.28 451.458 148.016 455.226 147.248L454.986 145.544C451.314 146.312 447.882 146.552 444.594 146.552H442.818ZM466.794 147.091V146.989C466.805 145.903 466.919 145.04 467.135 144.398C467.351 143.756 467.658 143.236 468.055 142.838C468.453 142.44 468.93 142.074 469.487 141.739C469.822 141.534 470.124 141.293 470.391 141.014C470.658 140.73 470.868 140.403 471.021 140.034C471.18 139.665 471.26 139.256 471.26 138.807C471.26 138.25 471.129 137.767 470.868 137.358C470.607 136.949 470.257 136.634 469.82 136.412C469.382 136.19 468.896 136.08 468.362 136.08C467.896 136.08 467.447 136.176 467.016 136.369C466.584 136.562 466.223 136.866 465.933 137.281C465.643 137.696 465.476 138.239 465.43 138.909H463.283C463.328 137.943 463.578 137.116 464.033 136.429C464.493 135.741 465.098 135.216 465.848 134.852C466.604 134.489 467.442 134.307 468.362 134.307C469.362 134.307 470.232 134.506 470.97 134.903C471.714 135.301 472.288 135.847 472.692 136.54C473.101 137.233 473.305 138.023 473.305 138.909C473.305 139.534 473.209 140.099 473.016 140.605C472.828 141.111 472.555 141.562 472.197 141.96C471.845 142.358 471.419 142.71 470.919 143.017C470.419 143.33 470.018 143.659 469.717 144.006C469.416 144.347 469.197 144.753 469.061 145.224C468.925 145.696 468.851 146.284 468.839 146.989V147.091H466.794ZM467.885 152.136C467.464 152.136 467.104 151.986 466.803 151.685C466.501 151.384 466.351 151.023 466.351 150.602C466.351 150.182 466.501 149.821 466.803 149.52C467.104 149.219 467.464 149.068 467.885 149.068C468.305 149.068 468.666 149.219 468.967 149.52C469.268 149.821 469.419 150.182 469.419 150.602C469.419 150.881 469.348 151.136 469.206 151.369C469.07 151.602 468.885 151.79 468.652 151.932C468.425 152.068 468.169 152.136 467.885 152.136Z" fill="black"/>
</g>
<defs>
<clipPath id="clip0_448_35">
<rect width="500" height="200" fill="white"/>
</clipPath>
</defs>
</svg>
