<svg width="500" height="200" viewBox="0 0 500 200" fill="none" xmlns="http://www.w3.org/2000/svg">
<g clip-path="url(#clip0_448_45)">
<path d="M267.204 105L462.264 110.26C483.203 110.26 500 116.617 500 124.543L487.989 169.408C487.989 177.334 474.594 183.088 453.656 183.088L411.03 183.37L421.059 200L358.095 183.691L293.112 184.375C272.173 184.375 245.016 177.327 245.016 169.401L226 121.928C226 114.002 246.266 105 267.204 105Z" fill="white" stroke="black" stroke-width="2" stroke-linecap="round" stroke-linejoin="round"/>
<path d="M264.208 120.024V121.584H281.656V120.024H264.208ZM272.992 122.472C268.528 122.472 265.984 123.552 265.984 125.616C265.984 127.68 268.528 128.76 272.992 128.76C277.456 128.76 280 127.68 280 125.616C280 123.552 277.456 122.472 272.992 122.472ZM272.992 123.864C276.184 123.864 277.96 124.488 277.96 125.616C277.96 126.72 276.184 127.32 272.992 127.32C269.8 127.32 268.024 126.72 268.024 125.616C268.024 124.488 269.8 123.864 272.992 123.864ZM272.008 117.84V120.96H273.976V117.84H272.008ZM263.176 130.488V132.096H282.784V130.488H263.176ZM272.008 128.208V131.232H273.976V128.208H272.008ZM265.312 133.824V135.384H278.224V139.872H280.192V133.824H265.312ZM290.99 120.048V123.936C290.99 128.04 288.374 132.192 285.158 133.728L286.382 135.36C289.934 133.56 292.622 128.928 292.622 123.936V120.048H290.99ZM291.326 120.048V123.936C291.326 128.76 294.038 133.224 297.566 134.952L298.766 133.368C295.55 131.88 292.958 127.896 292.958 123.936V120.048H291.326ZM301.022 118.152V139.896H303.014V118.152H301.022ZM314.082 127.632V129.24H333.69V127.632H314.082ZM322.89 124.872V128.184H324.858V124.872H322.89ZM316.626 118.896V125.496H331.146V118.896H316.626ZM329.202 120.48V123.912H318.594V120.48H329.202ZM316.458 131.04V132.576H329.226V134.472H316.506V138.552H318.474V135.912H331.194V131.04H316.458ZM316.506 138.072V139.632H331.842V138.072H316.506ZM350.872 118.152V139.896H352.864V118.152H350.872ZM352.384 126.792V128.472H356.416V126.792H352.384ZM337.048 133.008V134.664H338.776C342.928 134.664 345.808 134.496 349.192 133.896L348.976 132.24C345.688 132.864 342.856 133.008 338.776 133.008H337.048ZM337 120.192V121.824H344.848V126.336H337.048V133.68H339.016V127.968H346.816V120.192H337ZM361.528 133.091V132.989C361.54 131.903 361.653 131.04 361.869 130.398C362.085 129.756 362.392 129.236 362.79 128.838C363.188 128.44 363.665 128.074 364.222 127.739C364.557 127.534 364.858 127.293 365.125 127.014C365.392 126.73 365.602 126.403 365.756 126.034C365.915 125.665 365.994 125.256 365.994 124.807C365.994 124.25 365.864 123.767 365.602 123.358C365.341 122.949 364.991 122.634 364.554 122.412C364.116 122.19 363.631 122.08 363.097 122.08C362.631 122.08 362.182 122.176 361.75 122.369C361.318 122.562 360.957 122.866 360.668 123.281C360.378 123.696 360.21 124.239 360.165 124.909H358.017C358.062 123.943 358.312 123.116 358.767 122.429C359.227 121.741 359.832 121.216 360.582 120.852C361.338 120.489 362.176 120.307 363.097 120.307C364.097 120.307 364.966 120.506 365.705 120.903C366.449 121.301 367.023 121.847 367.426 122.54C367.835 123.233 368.04 124.023 368.04 124.909C368.04 125.534 367.943 126.099 367.75 126.605C367.562 127.111 367.29 127.562 366.932 127.96C366.58 128.358 366.153 128.71 365.653 129.017C365.153 129.33 364.753 129.659 364.452 130.006C364.151 130.347 363.932 130.753 363.795 131.224C363.659 131.696 363.585 132.284 363.574 132.989V133.091H361.528ZM362.619 138.136C362.199 138.136 361.838 137.986 361.537 137.685C361.236 137.384 361.085 137.023 361.085 136.602C361.085 136.182 361.236 135.821 361.537 135.52C361.838 135.219 362.199 135.068 362.619 135.068C363.04 135.068 363.401 135.219 363.702 135.52C364.003 135.821 364.153 136.182 364.153 136.602C364.153 136.881 364.082 137.136 363.94 137.369C363.804 137.602 363.619 137.79 363.386 137.932C363.159 138.068 362.903 138.136 362.619 138.136ZM274.768 152.792V154.448H279.664V152.792H274.768ZM279.04 147.176V160.112H281.032V147.176H279.04ZM273.904 160.76C269.416 160.76 266.656 162.272 266.656 164.816C266.656 167.384 269.416 168.848 273.904 168.848C278.368 168.848 281.128 167.384 281.128 164.816C281.128 162.272 278.368 160.76 273.904 160.76ZM273.904 162.32C277.168 162.32 279.16 163.232 279.16 164.816C279.16 166.376 277.168 167.288 273.904 167.288C270.64 167.288 268.648 166.376 268.648 164.816C268.648 163.232 270.64 162.32 273.904 162.32ZM268.72 149.36V151.112C268.72 154.232 266.488 157.136 263.272 158.312L264.304 159.896C267.904 158.552 270.352 155.12 270.352 151.112V149.36H268.72ZM269.104 149.36V151.112C269.104 154.76 271.432 158.024 274.96 159.296L275.968 157.712C272.824 156.608 270.712 153.92 270.712 151.112V149.36H269.104ZM263.872 148.76V150.392H275.464V148.76H263.872ZM300.11 147.176V158.216H302.102V147.176H300.11ZM301.238 151.832V153.488H305.294V151.832H301.238ZM286.166 148.4V157.088H296.126V148.4H286.166ZM294.182 149.984V155.504H288.11V149.984H294.182ZM288.326 159.248V160.832H300.158V163.064H288.374V167.816H290.342V164.576H302.102V159.248H288.326ZM288.374 166.976V168.584H302.894V166.976H288.374ZM329.85 147.152V168.896H331.842V147.152H329.85ZM320.394 148.832C317.202 148.832 314.898 151.784 314.898 156.392C314.898 161.024 317.202 163.976 320.394 163.976C323.61 163.976 325.914 161.024 325.914 156.392C325.914 151.784 323.61 148.832 320.394 148.832ZM320.394 150.632C322.53 150.632 323.994 152.888 323.994 156.392C323.994 159.92 322.53 162.224 320.394 162.224C318.282 162.224 316.794 159.92 316.794 156.392C316.794 152.888 318.282 150.632 320.394 150.632ZM338.512 148.04V149.648H351.448V152.168H338.56V157.448H340.576V153.704H353.44V148.04H338.512ZM338.56 156.464V158.096H353.944V156.464H338.56ZM336.16 160.328V161.984H355.84V160.328H336.16ZM344.968 160.952V168.896H346.936V160.952H344.968ZM364.047 148.832C360.879 148.832 358.646 151.784 358.646 156.392C358.646 161.024 360.879 163.976 364.047 163.976C367.191 163.976 369.447 161.024 369.447 156.392C369.447 151.784 367.191 148.832 364.047 148.832ZM364.047 150.632C366.135 150.632 367.551 152.888 367.551 156.392C367.551 159.92 366.135 162.224 364.047 162.224C361.959 162.224 360.543 159.92 360.543 156.392C360.543 152.888 361.959 150.632 364.047 150.632ZM374.151 147.152V168.896H376.119V147.152H374.151ZM368.799 155.432V157.064H375.015V155.432H368.799ZM396.109 147.176V158.408H398.101V147.176H396.109ZM384.085 159.464V161.048H396.157V163.232H384.133V167.768H386.077V164.672H398.125V159.464H384.085ZM384.133 167.048V168.632H398.845V167.048H384.133ZM386.101 149.096V150.224C386.101 153.176 383.869 155.84 380.629 156.896L381.565 158.456C385.237 157.232 387.733 154.064 387.733 150.224V149.096H386.101ZM386.509 149.096V150.224C386.509 153.872 389.029 156.872 392.677 158L393.613 156.464C390.397 155.48 388.141 152.984 388.141 150.224V149.096H386.509ZM381.157 148.4V150.008H393.037V148.4H381.157ZM408.155 150.272V153.8C408.155 157.544 405.539 161.624 402.395 163.112L403.547 164.696C407.003 162.992 409.763 158.384 409.763 153.8V150.272H408.155ZM408.539 150.272V153.8C408.539 158.312 411.323 162.536 414.827 164.168L415.955 162.584C412.763 161.216 410.147 157.472 410.147 153.8V150.272H408.539ZM403.115 149.384V151.064H415.235V149.384H403.115ZM418.163 147.176V168.872H420.155V147.176H418.163ZM426.969 157.304V158.936H441.873V157.304H426.969ZM424.497 164.48V166.16H444.153V164.48H424.497ZM433.281 158V165.152H435.273V158H433.281ZM426.969 148.904V158.024H428.961V150.536H441.657V148.904H426.969ZM447.352 160.011C447.335 159.068 447.489 158.31 447.812 157.736C448.136 157.162 448.557 156.744 449.074 156.483C449.597 156.222 450.148 156.091 450.727 156.091C451.307 156.091 451.835 156.219 452.312 156.474C452.795 156.724 453.347 157.119 453.966 157.659C454.386 158.023 454.722 158.278 454.972 158.426C455.227 158.574 455.506 158.648 455.807 158.648C456.295 158.648 456.682 158.472 456.966 158.119C457.25 157.761 457.386 157.244 457.375 156.568H459.216C459.233 157.511 459.08 158.27 458.756 158.844C458.438 159.418 458.017 159.835 457.494 160.097C456.972 160.358 456.42 160.489 455.841 160.489C455.261 160.489 454.733 160.364 454.256 160.114C453.778 159.858 453.227 159.46 452.602 158.92C452.188 158.557 451.852 158.301 451.597 158.153C451.341 158.006 451.063 157.932 450.761 157.932C450.301 157.932 449.92 158.094 449.619 158.418C449.324 158.736 449.182 159.267 449.193 160.011H447.352ZM465.661 162.091V161.989C465.673 160.903 465.786 160.04 466.002 159.398C466.218 158.756 466.525 158.236 466.923 157.838C467.32 157.44 467.798 157.074 468.354 156.739C468.69 156.534 468.991 156.293 469.258 156.014C469.525 155.73 469.735 155.403 469.888 155.034C470.048 154.665 470.127 154.256 470.127 153.807C470.127 153.25 469.996 152.767 469.735 152.358C469.474 151.949 469.124 151.634 468.687 151.412C468.249 151.19 467.763 151.08 467.229 151.08C466.763 151.08 466.315 151.176 465.883 151.369C465.451 151.562 465.09 151.866 464.8 152.281C464.511 152.696 464.343 153.239 464.298 153.909H462.15C462.195 152.943 462.445 152.116 462.9 151.429C463.36 150.741 463.965 150.216 464.715 149.852C465.471 149.489 466.309 149.307 467.229 149.307C468.229 149.307 469.099 149.506 469.837 149.903C470.582 150.301 471.156 150.847 471.559 151.54C471.968 152.233 472.173 153.023 472.173 153.909C472.173 154.534 472.076 155.099 471.883 155.605C471.695 156.111 471.423 156.562 471.065 156.96C470.712 157.358 470.286 157.71 469.786 158.017C469.286 158.33 468.886 158.659 468.585 159.006C468.283 159.347 468.065 159.753 467.928 160.224C467.792 160.696 467.718 161.284 467.707 161.989V162.091H465.661ZM466.752 167.136C466.332 167.136 465.971 166.986 465.67 166.685C465.369 166.384 465.218 166.023 465.218 165.602C465.218 165.182 465.369 164.821 465.67 164.52C465.971 164.219 466.332 164.068 466.752 164.068C467.173 164.068 467.533 164.219 467.835 164.52C468.136 164.821 468.286 165.182 468.286 165.602C468.286 165.881 468.215 166.136 468.073 166.369C467.937 166.602 467.752 166.79 467.519 166.932C467.292 167.068 467.036 167.136 466.752 167.136Z" fill="black"/>
</g>
<defs>
<clipPath id="clip0_448_45">
<rect width="500" height="200" fill="white"/>
</clipPath>
</defs>
</svg>
