<svg width="500" height="200" viewBox="0 0 500 200" fill="none" xmlns="http://www.w3.org/2000/svg">
<g clip-path="url(#clip0_448_41)">
<path d="M194.987 100L450.557 105.536C477.992 105.536 500 112.229 500 120.572L484.263 167.797C484.263 176.141 466.713 182.198 439.279 182.198L383.43 182.494L396.57 200L314.073 182.833L228.932 183.553C201.497 183.553 165.915 176.134 165.915 167.79L141 117.819C141 109.476 167.553 100 194.987 100Z" fill="white" stroke="black" stroke-width="2" stroke-linecap="round" stroke-linejoin="round"/>
<path d="M195.176 142.776V144.408H214.856V142.776H195.176ZM203.96 143.76V151.872H205.928V143.76H203.96ZM197.672 131.376V139.848H212.312V131.376H197.672ZM210.368 132.984V138.24H199.64V132.984H210.368ZM233.118 130.176V145.056H235.11V130.176H233.118ZM227.934 136.104V137.736H233.67V136.104H227.934ZM223.182 131.64C219.966 131.64 217.59 133.8 217.59 136.896C217.59 139.968 219.966 142.152 223.182 142.152C226.374 142.152 228.774 139.968 228.774 136.896C228.774 133.8 226.374 131.64 223.182 131.64ZM223.182 133.344C225.294 133.344 226.854 134.808 226.854 136.896C226.854 138.96 225.294 140.448 223.182 140.448C221.07 140.448 219.51 138.96 219.51 136.896C219.51 134.808 221.07 133.344 223.182 133.344ZM227.118 143.352V144.192C227.118 147.144 223.686 149.544 219.846 150.192L220.614 151.776C225.03 150.984 228.822 148.104 228.822 144.192V143.352H227.118ZM227.454 143.352V144.192C227.454 148.2 231.27 150.96 235.662 151.776L236.454 150.192C232.566 149.544 229.158 147.216 229.158 144.192V143.352H227.454ZM255.1 130.152V151.896H257.092V130.152H255.1ZM245.644 131.832C242.452 131.832 240.148 134.784 240.148 139.392C240.148 144.024 242.452 146.976 245.644 146.976C248.86 146.976 251.164 144.024 251.164 139.392C251.164 134.784 248.86 131.832 245.644 131.832ZM245.644 133.632C247.78 133.632 249.244 135.888 249.244 139.392C249.244 142.92 247.78 145.224 245.644 145.224C243.532 145.224 242.044 142.92 242.044 139.392C242.044 135.888 243.532 133.632 245.644 133.632ZM261.434 141.12V142.752H281.042V141.12H261.434ZM263.906 137.112V138.768H278.786V137.112H263.906ZM263.906 131.112V137.664H265.898V132.72H278.594V131.112H263.906ZM263.93 149.736V151.392H278.978V149.736H263.93ZM263.93 145.032V150.168H265.922V145.032H263.93ZM299.047 136.608V139.92H301.015V136.608H299.047ZM298.759 131.496V132.168C298.759 134.448 295.183 136.128 291.271 136.44L291.919 137.952C296.479 137.52 300.511 135.432 300.511 132.168V131.496H298.759ZM299.623 131.496V132.168C299.623 135.432 303.655 137.52 308.191 137.952L308.839 136.44C304.927 136.128 301.351 134.424 301.351 132.168V131.496H299.623ZM292.039 130.848V132.408H308.095V130.848H292.039ZM292.062 143.64V145.224H308.047V143.64H292.062ZM290.239 139.176V140.784H309.919V139.176H290.239ZM300.055 146.28C295.879 146.28 293.527 147.264 293.527 149.136C293.527 151.032 295.879 151.992 300.055 151.992C304.231 151.992 306.559 151.032 306.559 149.136C306.559 147.264 304.231 146.28 300.055 146.28ZM300.055 147.648C302.911 147.648 304.543 148.152 304.543 149.136C304.543 150.12 302.911 150.624 300.055 150.624C297.175 150.624 295.567 150.12 295.567 149.136C295.567 148.152 297.175 147.648 300.055 147.648ZM299.071 141.648V144.648H301.039V141.648H299.071ZM322.133 131.544C317.621 131.544 314.237 133.944 314.237 137.544C314.237 141.168 317.621 143.544 322.133 143.544C326.645 143.544 330.005 141.168 330.005 137.544C330.005 133.944 326.645 131.544 322.133 131.544ZM322.133 133.176C325.565 133.176 328.109 134.928 328.109 137.544C328.109 140.136 325.565 141.912 322.133 141.912C318.701 141.912 316.157 140.136 316.157 137.544C316.157 134.928 318.701 133.176 322.133 133.176ZM312.341 147.336V149.016H331.997V147.336H312.341ZM350.187 130.176V151.872H352.179V130.176H350.187ZM335.787 132.288V145.728H337.755V132.288H335.787ZM335.787 144.552V146.28H337.563C340.995 146.28 344.427 146.016 348.195 145.248L347.955 143.544C344.283 144.312 340.851 144.552 337.563 144.552H335.787ZM368.767 132.384V134.136C368.767 137.208 366.535 140.088 363.295 141.24L364.327 142.824C367.951 141.48 370.399 138.096 370.399 134.136V132.384H368.767ZM369.151 132.384V134.136C369.151 137.76 371.479 141.024 375.007 142.32L376.015 140.736C372.871 139.632 370.759 136.92 370.759 134.136V132.384H369.151ZM374.839 135.816V137.472H379.663V135.816H374.839ZM363.919 131.664V133.272H375.511V131.664H363.919ZM366.607 144.336V145.968H379.087V151.872H381.079V144.336H366.607ZM379.087 130.176V143.16H381.079V130.176H379.087ZM391.109 131.832C387.941 131.832 385.709 134.784 385.709 139.392C385.709 144.024 387.941 146.976 391.109 146.976C394.253 146.976 396.509 144.024 396.509 139.392C396.509 134.784 394.253 131.832 391.109 131.832ZM391.109 133.632C393.197 133.632 394.613 135.888 394.613 139.392C394.613 142.92 393.197 145.224 391.109 145.224C389.021 145.224 387.605 142.92 387.605 139.392C387.605 135.888 389.021 133.632 391.109 133.632ZM401.213 130.152V151.896H403.181V130.152H401.213ZM395.861 138.432V140.064H402.077V138.432H395.861ZM409.995 130.512V137.664H424.443V130.512H422.451V132.528H411.963V130.512H409.995ZM411.963 134.064H422.451V136.128H411.963V134.064ZM407.379 139.752V141.36H426.987V139.752H407.379ZM416.187 136.944V140.256H418.155V136.944H416.187ZM409.755 143.16V144.672H422.523V146.544H409.803V150.672H411.771V147.984H424.491V143.16H409.755ZM409.803 150.096V151.632H425.139V150.096H409.803ZM430.177 145.032V146.688H431.617C434.305 146.688 436.753 146.616 439.753 146.088L439.585 144.432C436.657 144.936 434.257 145.032 431.617 145.032H430.177ZM430.129 132.528V134.16H436.321V138.528H430.177V145.656H432.121V140.16H438.265V132.528H430.129ZM445.969 130.176V151.872H447.889V130.176H445.969ZM442.297 138.744V140.376H446.473V138.744H442.297ZM441.049 130.656V150.768H442.921V130.656H441.049ZM454.825 145.091V144.989C454.837 143.903 454.95 143.04 455.166 142.398C455.382 141.756 455.689 141.236 456.087 140.838C456.484 140.44 456.962 140.074 457.518 139.739C457.854 139.534 458.155 139.293 458.422 139.014C458.689 138.73 458.899 138.403 459.053 138.034C459.212 137.665 459.291 137.256 459.291 136.807C459.291 136.25 459.161 135.767 458.899 135.358C458.638 134.949 458.288 134.634 457.851 134.412C457.413 134.19 456.928 134.08 456.393 134.08C455.928 134.08 455.479 134.176 455.047 134.369C454.615 134.562 454.254 134.866 453.964 135.281C453.675 135.696 453.507 136.239 453.462 136.909H451.314C451.359 135.943 451.609 135.116 452.064 134.429C452.524 133.741 453.129 133.216 453.879 132.852C454.635 132.489 455.473 132.307 456.393 132.307C457.393 132.307 458.263 132.506 459.001 132.903C459.746 133.301 460.32 133.847 460.723 134.54C461.132 135.233 461.337 136.023 461.337 136.909C461.337 137.534 461.24 138.099 461.047 138.605C460.859 139.111 460.587 139.562 460.229 139.96C459.876 140.358 459.45 140.71 458.95 141.017C458.45 141.33 458.05 141.659 457.749 142.006C457.447 142.347 457.229 142.753 457.092 143.224C456.956 143.696 456.882 144.284 456.871 144.989V145.091H454.825ZM455.916 150.136C455.496 150.136 455.135 149.986 454.834 149.685C454.533 149.384 454.382 149.023 454.382 148.602C454.382 148.182 454.533 147.821 454.834 147.52C455.135 147.219 455.496 147.068 455.916 147.068C456.337 147.068 456.697 147.219 456.999 147.52C457.3 147.821 457.45 148.182 457.45 148.602C457.45 148.881 457.379 149.136 457.237 149.369C457.101 149.602 456.916 149.79 456.683 149.932C456.456 150.068 456.2 150.136 455.916 150.136Z" fill="black"/>
</g>
<defs>
<clipPath id="clip0_448_41">
<rect width="500" height="200" fill="white"/>
</clipPath>
</defs>
</svg>
