<svg width="500" height="200" viewBox="0 0 500 200" fill="none" xmlns="http://www.w3.org/2000/svg">
<g clip-path="url(#clip0_448_26)">
<path d="M223.874 100L455.24 105.537C480.076 105.537 500 112.229 500 120.572L485.753 167.797C485.753 176.141 469.865 182.198 445.03 182.198L394.47 182.494L406.366 200L331.682 182.833L254.604 183.553C229.768 183.553 197.555 176.134 197.555 167.791L175 117.819C175 109.476 199.039 100 223.874 100L223.874 100Z" fill="white" stroke="black" stroke-width="2" stroke-linecap="round" stroke-linejoin="round"/>
<path d="M212.2 133.408V135.064H231.856V133.408H212.2ZM220.936 128.152V133.96H222.904V128.152H220.936ZM220.888 117.616V119.296C220.888 122.872 216.784 126.064 212.968 126.76L213.808 128.416C218.176 127.504 222.616 123.928 222.616 119.296V117.616H220.888ZM221.248 117.616V119.296C221.248 123.928 225.688 127.504 230.056 128.416L230.92 126.76C227.104 126.064 222.976 122.896 222.976 119.296V117.616H221.248ZM240.422 127.096V131.92H242.414V127.096H240.422ZM250.046 116.176V132.688H252.038V116.176H250.046ZM237.23 135.76V137.392H252.566V135.76H237.23ZM237.23 131.08V136.216H239.222V131.08H237.23ZM234.422 127.84C238.358 127.84 243.614 127.768 248.294 127.024L248.15 125.56C243.542 126.16 238.166 126.208 234.158 126.208L234.422 127.84ZM245.63 128.992V130.456H250.55V128.992H245.63ZM241.214 117.064C238.022 117.064 235.862 118.552 235.862 120.832C235.862 123.136 238.022 124.624 241.214 124.624C244.382 124.624 246.542 123.136 246.542 120.832C246.542 118.552 244.382 117.064 241.214 117.064ZM241.214 118.552C243.23 118.552 244.646 119.44 244.646 120.832C244.646 122.224 243.23 123.112 241.214 123.112C239.174 123.112 237.758 122.224 237.758 120.832C237.758 119.44 239.174 118.552 241.214 118.552ZM266.148 116.536C261.348 116.536 258.516 117.88 258.516 120.304C258.516 122.728 261.348 124.072 266.148 124.072C270.924 124.072 273.78 122.728 273.78 120.304C273.78 117.88 270.924 116.536 266.148 116.536ZM266.148 118.048C269.676 118.048 271.716 118.864 271.716 120.304C271.716 121.744 269.676 122.56 266.148 122.56C262.596 122.56 260.556 121.744 260.556 120.304C260.556 118.864 262.596 118.048 266.148 118.048ZM256.332 125.512V127.12H275.94V125.512H256.332ZM258.708 128.968V130.504H271.476V132.424H258.756V136.504H260.724V133.864H273.444V128.968H258.708ZM258.756 136.072V137.632H274.092V136.072H258.756ZM300.016 116.176V127.216H302.008V116.176H300.016ZM301.144 120.832V122.488H305.2V120.832H301.144ZM286.072 117.4V126.088H296.032V117.4H286.072ZM294.088 118.984V124.504H288.016V118.984H294.088ZM288.232 128.248V129.832H300.064V132.064H288.28V136.816H290.248V133.576H302.008V128.248H288.232ZM288.28 135.976V137.584H302.8V135.976H288.28ZM307.215 119.872V121.504H317.967V119.872H307.215ZM312.591 122.944C309.903 122.944 307.935 124.984 307.935 127.912C307.935 130.816 309.903 132.856 312.591 132.856C315.303 132.856 317.271 130.816 317.271 127.912C317.271 124.984 315.303 122.944 312.591 122.944ZM312.591 124.648C314.271 124.648 315.495 125.992 315.495 127.912C315.495 129.832 314.271 131.176 312.591 131.176C310.935 131.176 309.735 129.832 309.735 127.912C309.735 125.992 310.935 124.648 312.591 124.648ZM323.703 116.176V137.872H325.623V116.176H323.703ZM320.247 125.296V126.952H324.351V125.296H320.247ZM319.071 116.656V136.816H320.943V116.656H319.071ZM311.631 116.8V120.88H313.599V116.8H311.631ZM330.493 117.976V127.744H341.269V117.976H339.301V121.216H332.485V117.976H330.493ZM332.485 122.8H339.301V126.112H332.485V122.8ZM334.885 127.168V132.232H336.877V127.168H334.885ZM344.005 116.176V137.872H345.997V116.176H344.005ZM345.421 125.272V126.952H349.429V125.272H345.421ZM329.365 133.432C333.157 133.456 338.221 133.384 342.805 132.592L342.637 131.128C338.221 131.728 332.989 131.752 329.077 131.752L329.365 133.432ZM352.196 130.818C352.179 129.875 352.332 129.116 352.656 128.543C352.98 127.969 353.401 127.551 353.918 127.29C354.44 127.028 354.991 126.898 355.571 126.898C356.151 126.898 356.679 127.026 357.156 127.281C357.639 127.531 358.19 127.926 358.81 128.466C359.23 128.83 359.565 129.085 359.815 129.233C360.071 129.381 360.349 129.455 360.651 129.455C361.139 129.455 361.526 129.278 361.81 128.926C362.094 128.568 362.23 128.051 362.219 127.375H364.06C364.077 128.318 363.923 129.077 363.599 129.651C363.281 130.224 362.861 130.642 362.338 130.903C361.815 131.165 361.264 131.295 360.685 131.295C360.105 131.295 359.577 131.17 359.099 130.92C358.622 130.665 358.071 130.267 357.446 129.727C357.031 129.364 356.696 129.108 356.44 128.96C356.185 128.812 355.906 128.739 355.605 128.739C355.145 128.739 354.764 128.901 354.463 129.224C354.168 129.543 354.026 130.074 354.037 130.818H352.196ZM215.227 147.545V165H213.114V147.545H215.227ZM220.965 147.545V149.08C220.965 149.545 220.88 150.043 220.71 150.571C220.545 151.094 220.3 151.602 219.977 152.097C219.658 152.585 219.272 153.011 218.817 153.375L217.727 152.489C218.085 151.977 218.394 151.446 218.656 150.895C218.923 150.338 219.056 149.744 219.056 149.114V147.545H220.965ZM223.107 165V151.909H225.05V153.955H225.22C225.493 153.256 225.933 152.713 226.541 152.327C227.149 151.935 227.879 151.739 228.732 151.739C229.595 151.739 230.314 151.935 230.888 152.327C231.467 152.713 231.919 153.256 232.243 153.955H232.379C232.714 153.278 233.217 152.741 233.888 152.344C234.558 151.94 235.362 151.739 236.3 151.739C237.47 151.739 238.428 152.105 239.172 152.838C239.916 153.565 240.288 154.699 240.288 156.239V165H238.277V156.239C238.277 155.273 238.013 154.582 237.484 154.168C236.956 153.753 236.334 153.545 235.618 153.545C234.697 153.545 233.984 153.824 233.479 154.381C232.973 154.932 232.72 155.631 232.72 156.477V165H230.675V156.034C230.675 155.29 230.433 154.69 229.95 154.236C229.467 153.776 228.845 153.545 228.084 153.545C227.561 153.545 227.072 153.685 226.618 153.963C226.169 154.241 225.805 154.628 225.527 155.122C225.254 155.611 225.118 156.176 225.118 156.818V165H223.107ZM256 170.182C255.028 170.182 254.193 170.057 253.494 169.807C252.795 169.562 252.213 169.239 251.747 168.835C251.287 168.438 250.92 168.011 250.648 167.557L252.25 166.432C252.432 166.67 252.662 166.943 252.94 167.25C253.219 167.562 253.599 167.832 254.082 168.06C254.571 168.293 255.21 168.409 256 168.409C257.057 168.409 257.929 168.153 258.616 167.642C259.304 167.131 259.648 166.33 259.648 165.239V162.58H259.477C259.33 162.818 259.119 163.114 258.847 163.466C258.58 163.812 258.193 164.122 257.688 164.395C257.188 164.662 256.511 164.795 255.659 164.795C254.602 164.795 253.653 164.545 252.812 164.045C251.977 163.545 251.315 162.818 250.827 161.864C250.344 160.909 250.102 159.75 250.102 158.386C250.102 157.045 250.338 155.878 250.81 154.884C251.281 153.884 251.938 153.111 252.778 152.565C253.619 152.014 254.591 151.739 255.693 151.739C256.545 151.739 257.222 151.881 257.722 152.165C258.227 152.443 258.614 152.761 258.881 153.119C259.153 153.472 259.364 153.761 259.511 153.989H259.716V151.909H261.659V165.375C261.659 166.5 261.403 167.415 260.892 168.119C260.386 168.83 259.705 169.349 258.847 169.679C257.994 170.014 257.045 170.182 256 170.182ZM255.932 162.989C256.739 162.989 257.42 162.804 257.977 162.435C258.534 162.065 258.957 161.534 259.247 160.841C259.537 160.148 259.682 159.318 259.682 158.352C259.682 157.409 259.54 156.577 259.256 155.855C258.972 155.134 258.551 154.568 257.994 154.159C257.438 153.75 256.75 153.545 255.932 153.545C255.08 153.545 254.369 153.761 253.801 154.193C253.239 154.625 252.815 155.205 252.531 155.932C252.253 156.659 252.114 157.466 252.114 158.352C252.114 159.261 252.256 160.065 252.54 160.764C252.83 161.457 253.256 162.003 253.818 162.401C254.386 162.793 255.091 162.989 255.932 162.989ZM270.83 165.273C269.568 165.273 268.48 164.994 267.565 164.438C266.656 163.875 265.955 163.091 265.46 162.085C264.972 161.074 264.727 159.898 264.727 158.557C264.727 157.216 264.972 156.034 265.46 155.011C265.955 153.983 266.642 153.182 267.523 152.608C268.409 152.028 269.443 151.739 270.625 151.739C271.307 151.739 271.98 151.852 272.645 152.08C273.31 152.307 273.915 152.676 274.46 153.188C275.006 153.693 275.44 154.364 275.764 155.199C276.088 156.034 276.25 157.062 276.25 158.284V159.136H266.159V157.398H274.205C274.205 156.659 274.057 156 273.761 155.42C273.472 154.841 273.057 154.384 272.517 154.048C271.983 153.713 271.352 153.545 270.625 153.545C269.824 153.545 269.131 153.744 268.545 154.142C267.966 154.534 267.52 155.045 267.207 155.676C266.895 156.307 266.739 156.983 266.739 157.705V158.864C266.739 159.852 266.909 160.69 267.25 161.378C267.597 162.06 268.077 162.58 268.69 162.938C269.304 163.29 270.017 163.466 270.83 163.466C271.358 163.466 271.835 163.392 272.261 163.244C272.693 163.091 273.065 162.864 273.378 162.562C273.69 162.256 273.932 161.875 274.102 161.42L276.045 161.966C275.841 162.625 275.497 163.205 275.014 163.705C274.531 164.199 273.935 164.585 273.224 164.864C272.514 165.136 271.716 165.273 270.83 165.273ZM281.321 157.125V165H279.31V151.909H281.253V153.955H281.423C281.73 153.29 282.196 152.756 282.821 152.352C283.446 151.943 284.253 151.739 285.241 151.739C286.128 151.739 286.903 151.92 287.568 152.284C288.233 152.642 288.75 153.188 289.119 153.92C289.489 154.648 289.673 155.568 289.673 156.682V165H287.662V156.818C287.662 155.79 287.395 154.989 286.861 154.415C286.327 153.835 285.594 153.545 284.662 153.545C284.02 153.545 283.446 153.685 282.94 153.963C282.44 154.241 282.045 154.648 281.756 155.182C281.466 155.716 281.321 156.364 281.321 157.125ZM293.349 165V151.909H295.36V165H293.349ZM294.371 149.727C293.979 149.727 293.641 149.594 293.357 149.327C293.079 149.06 292.94 148.739 292.94 148.364C292.94 147.989 293.079 147.668 293.357 147.401C293.641 147.134 293.979 147 294.371 147C294.763 147 295.099 147.134 295.377 147.401C295.661 147.668 295.803 147.989 295.803 148.364C295.803 148.739 295.661 149.06 295.377 149.327C295.099 149.594 294.763 149.727 294.371 149.727ZM304.533 165.273C303.271 165.273 302.183 164.994 301.268 164.438C300.359 163.875 299.658 163.091 299.163 162.085C298.675 161.074 298.43 159.898 298.43 158.557C298.43 157.216 298.675 156.034 299.163 155.011C299.658 153.983 300.345 153.182 301.226 152.608C302.112 152.028 303.146 151.739 304.328 151.739C305.01 151.739 305.683 151.852 306.348 152.08C307.013 152.307 307.618 152.676 308.163 153.188C308.709 153.693 309.143 154.364 309.467 155.199C309.791 156.034 309.953 157.062 309.953 158.284V159.136H299.862V157.398H307.908C307.908 156.659 307.76 156 307.464 155.42C307.175 154.841 306.76 154.384 306.22 154.048C305.686 153.713 305.055 153.545 304.328 153.545C303.527 153.545 302.834 153.744 302.249 154.142C301.669 154.534 301.223 155.045 300.911 155.676C300.598 156.307 300.442 156.983 300.442 157.705V158.864C300.442 159.852 300.612 160.69 300.953 161.378C301.3 162.06 301.78 162.58 302.393 162.938C303.007 163.29 303.72 163.466 304.533 163.466C305.061 163.466 305.538 163.392 305.964 163.244C306.396 163.091 306.768 162.864 307.081 162.562C307.393 162.256 307.635 161.875 307.805 161.42L309.749 161.966C309.544 162.625 309.2 163.205 308.717 163.705C308.234 164.199 307.638 164.585 306.928 164.864C306.217 165.136 305.419 165.273 304.533 165.273ZM325.592 151.909V153.614H318.536V151.909H325.592ZM320.649 165V150.102C320.649 149.352 320.825 148.727 321.178 148.227C321.53 147.727 321.987 147.352 322.55 147.102C323.112 146.852 323.706 146.727 324.331 146.727C324.825 146.727 325.229 146.767 325.541 146.847C325.854 146.926 326.087 147 326.24 147.068L325.661 148.807C325.558 148.773 325.416 148.73 325.234 148.679C325.058 148.628 324.825 148.602 324.536 148.602C323.871 148.602 323.391 148.77 323.095 149.105C322.805 149.44 322.661 149.932 322.661 150.58V165H320.649ZM333.19 165.273C332.009 165.273 330.972 164.991 330.08 164.429C329.193 163.866 328.5 163.08 328 162.068C327.506 161.057 327.259 159.875 327.259 158.523C327.259 157.159 327.506 155.969 328 154.952C328.5 153.935 329.193 153.145 330.08 152.582C330.972 152.02 332.009 151.739 333.19 151.739C334.372 151.739 335.406 152.02 336.293 152.582C337.185 153.145 337.878 153.935 338.372 154.952C338.872 155.969 339.122 157.159 339.122 158.523C339.122 159.875 338.872 161.057 338.372 162.068C337.878 163.08 337.185 163.866 336.293 164.429C335.406 164.991 334.372 165.273 333.19 165.273ZM333.19 163.466C334.088 163.466 334.827 163.236 335.406 162.776C335.986 162.315 336.415 161.71 336.693 160.96C336.972 160.21 337.111 159.398 337.111 158.523C337.111 157.648 336.972 156.832 336.693 156.077C336.415 155.321 335.986 154.71 335.406 154.244C334.827 153.778 334.088 153.545 333.19 153.545C332.293 153.545 331.554 153.778 330.974 154.244C330.395 154.71 329.966 155.321 329.688 156.077C329.409 156.832 329.27 157.648 329.27 158.523C329.27 159.398 329.409 160.21 329.688 160.96C329.966 161.71 330.395 162.315 330.974 162.776C331.554 163.236 332.293 163.466 333.19 163.466ZM342.192 165V151.909H344.136V153.886H344.272C344.511 153.239 344.942 152.713 345.567 152.31C346.192 151.906 346.897 151.705 347.681 151.705C347.829 151.705 348.013 151.707 348.235 151.713C348.457 151.719 348.624 151.727 348.738 151.739V153.784C348.67 153.767 348.513 153.741 348.269 153.707C348.031 153.668 347.778 153.648 347.511 153.648C346.874 153.648 346.306 153.781 345.806 154.048C345.312 154.31 344.92 154.673 344.63 155.139C344.346 155.599 344.204 156.125 344.204 156.716V165H342.192ZM359.168 169.909C358.827 169.909 358.523 169.881 358.256 169.824C357.989 169.773 357.804 169.722 357.702 169.67L358.213 167.898C358.702 168.023 359.134 168.068 359.509 168.034C359.884 168 360.216 167.832 360.506 167.531C360.801 167.236 361.071 166.756 361.315 166.091L361.69 165.068L356.849 151.909H359.031L362.645 162.341H362.781L366.395 151.909H368.577L363.02 166.909C362.77 167.585 362.46 168.145 362.091 168.588C361.722 169.037 361.293 169.369 360.804 169.585C360.321 169.801 359.776 169.909 359.168 169.909ZM376.081 165.273C374.899 165.273 373.862 164.991 372.97 164.429C372.084 163.866 371.391 163.08 370.891 162.068C370.396 161.057 370.149 159.875 370.149 158.523C370.149 157.159 370.396 155.969 370.891 154.952C371.391 153.935 372.084 153.145 372.97 152.582C373.862 152.02 374.899 151.739 376.081 151.739C377.263 151.739 378.297 152.02 379.183 152.582C380.075 153.145 380.768 153.935 381.263 154.952C381.763 155.969 382.013 157.159 382.013 158.523C382.013 159.875 381.763 161.057 381.263 162.068C380.768 163.08 380.075 163.866 379.183 164.429C378.297 164.991 377.263 165.273 376.081 165.273ZM376.081 163.466C376.979 163.466 377.717 163.236 378.297 162.776C378.876 162.315 379.305 161.71 379.584 160.96C379.862 160.21 380.001 159.398 380.001 158.523C380.001 157.648 379.862 156.832 379.584 156.077C379.305 155.321 378.876 154.71 378.297 154.244C377.717 153.778 376.979 153.545 376.081 153.545C375.183 153.545 374.445 153.778 373.865 154.244C373.286 154.71 372.857 155.321 372.578 156.077C372.3 156.832 372.161 157.648 372.161 158.523C372.161 159.398 372.3 160.21 372.578 160.96C372.857 161.71 373.286 162.315 373.865 162.776C374.445 163.236 375.183 163.466 376.081 163.466ZM393.333 159.648V151.909H395.344V165H393.333V162.784H393.197C392.89 163.449 392.413 164.014 391.765 164.48C391.117 164.94 390.299 165.17 389.31 165.17C388.492 165.17 387.765 164.991 387.129 164.634C386.492 164.27 385.992 163.724 385.629 162.997C385.265 162.264 385.083 161.341 385.083 160.227V151.909H387.094V160.091C387.094 161.045 387.362 161.807 387.896 162.375C388.435 162.943 389.123 163.227 389.958 163.227C390.458 163.227 390.967 163.099 391.484 162.844C392.006 162.588 392.444 162.196 392.796 161.668C393.154 161.139 393.333 160.466 393.333 159.648ZM399.028 165V151.909H400.972V153.886H401.108C401.347 153.239 401.778 152.713 402.403 152.31C403.028 151.906 403.733 151.705 404.517 151.705C404.665 151.705 404.849 151.707 405.071 151.713C405.293 151.719 405.46 151.727 405.574 151.739V153.784C405.506 153.767 405.349 153.741 405.105 153.707C404.866 153.668 404.614 153.648 404.347 153.648C403.71 153.648 403.142 153.781 402.642 154.048C402.148 154.31 401.756 154.673 401.466 155.139C401.182 155.599 401.04 156.125 401.04 156.716V165H399.028ZM417.674 165L413.685 151.909H415.799L418.629 161.932H418.765L421.56 151.909H423.708L426.469 161.898H426.606L429.435 151.909H431.549L427.56 165H425.583L422.719 154.943H422.515L419.651 165H417.674ZM434.208 165V151.909H436.219V165H434.208ZM435.231 149.727C434.839 149.727 434.501 149.594 434.217 149.327C433.938 149.06 433.799 148.739 433.799 148.364C433.799 147.989 433.938 147.668 434.217 147.401C434.501 147.134 434.839 147 435.231 147C435.623 147 435.958 147.134 436.237 147.401C436.521 147.668 436.663 147.989 436.663 148.364C436.663 148.739 436.521 149.06 436.237 149.327C435.958 149.594 435.623 149.727 435.231 149.727ZM449.176 154.841L447.369 155.352C447.256 155.051 447.088 154.759 446.866 154.474C446.651 154.185 446.355 153.946 445.98 153.759C445.605 153.571 445.125 153.477 444.54 153.477C443.739 153.477 443.071 153.662 442.537 154.031C442.009 154.395 441.744 154.858 441.744 155.42C441.744 155.92 441.926 156.315 442.29 156.605C442.653 156.895 443.222 157.136 443.994 157.33L445.938 157.807C447.108 158.091 447.98 158.526 448.554 159.111C449.128 159.69 449.415 160.437 449.415 161.352C449.415 162.102 449.199 162.773 448.767 163.364C448.341 163.955 447.744 164.42 446.977 164.761C446.21 165.102 445.318 165.273 444.301 165.273C442.966 165.273 441.861 164.983 440.986 164.403C440.111 163.824 439.557 162.977 439.324 161.864L441.233 161.386C441.415 162.091 441.759 162.619 442.264 162.972C442.776 163.324 443.443 163.5 444.267 163.5C445.205 163.5 445.949 163.301 446.5 162.903C447.057 162.5 447.335 162.017 447.335 161.455C447.335 161 447.176 160.619 446.858 160.312C446.54 160 446.051 159.767 445.392 159.614L443.21 159.102C442.011 158.818 441.131 158.378 440.568 157.781C440.011 157.179 439.733 156.426 439.733 155.523C439.733 154.784 439.94 154.131 440.355 153.562C440.776 152.994 441.347 152.548 442.068 152.224C442.795 151.901 443.619 151.739 444.54 151.739C445.835 151.739 446.852 152.023 447.591 152.591C448.335 153.159 448.864 153.909 449.176 154.841ZM454.454 157.125V165H452.442V147.545H454.454V153.955H454.624C454.931 153.278 455.391 152.741 456.005 152.344C456.624 151.94 457.448 151.739 458.477 151.739C459.369 151.739 460.15 151.918 460.82 152.276C461.491 152.628 462.011 153.17 462.38 153.903C462.755 154.631 462.942 155.557 462.942 156.682V165H460.931V156.818C460.931 155.778 460.661 154.974 460.121 154.406C459.587 153.832 458.846 153.545 457.897 153.545C457.238 153.545 456.647 153.685 456.124 153.963C455.607 154.241 455.198 154.648 454.897 155.182C454.602 155.716 454.454 156.364 454.454 157.125ZM466.759 159.818C466.741 158.875 466.895 158.116 467.219 157.543C467.543 156.969 467.963 156.551 468.48 156.29C469.003 156.028 469.554 155.898 470.134 155.898C470.713 155.898 471.241 156.026 471.719 156.281C472.202 156.531 472.753 156.926 473.372 157.466C473.793 157.83 474.128 158.085 474.378 158.233C474.634 158.381 474.912 158.455 475.213 158.455C475.702 158.455 476.088 158.278 476.372 157.926C476.656 157.568 476.793 157.051 476.781 156.375H478.622C478.639 157.318 478.486 158.077 478.162 158.651C477.844 159.224 477.423 159.642 476.901 159.903C476.378 160.165 475.827 160.295 475.247 160.295C474.668 160.295 474.139 160.17 473.662 159.92C473.185 159.665 472.634 159.267 472.009 158.727C471.594 158.364 471.259 158.108 471.003 157.96C470.747 157.812 470.469 157.739 470.168 157.739C469.707 157.739 469.327 157.901 469.026 158.224C468.73 158.543 468.588 159.074 468.599 159.818H466.759Z" fill="black"/>
</g>
<defs>
<clipPath id="clip0_448_26">
<rect width="500" height="200" fill="white"/>
</clipPath>
</defs>
</svg>
