<svg width="500" height="200" viewBox="0 0 500 200" fill="none" xmlns="http://www.w3.org/2000/svg">
<g clip-path="url(#clip0_448_31)">
<path d="M154.205 121L443.946 125.253C475.049 125.253 500 130.395 500 136.804L494.334 173.079C494.334 179.489 486.719 184.376 455.617 184.376H426.816L378.655 178.226L403.68 199L289.214 184.636L192.689 185.189C161.586 185.189 121.246 179.489 121.246 173.079L93 134.689C93 128.28 123.104 121 154.205 121Z" fill="white" stroke="black" stroke-width="2" stroke-linecap="round" stroke-linejoin="round"/>
<path d="M146.088 140.176V161.92H148.08V140.176H146.088ZM139.416 147.328V148.96H146.736V147.328H139.416ZM131.376 142.6V156.04H133.344V142.6H131.376ZM131.376 154.984V156.664H133.056C136.488 156.664 139.536 156.448 142.992 155.776L142.752 154.096C139.416 154.792 136.416 154.984 133.056 154.984H131.376ZM166.942 140.152V161.872H168.958V140.152H166.942ZM168.406 148.96V150.616H172.414V148.96H168.406ZM161.398 142.504V142.816C161.398 148.552 158.398 153.184 152.398 156.232L153.502 157.768C160.51 154.24 163.342 148.672 163.342 142.504H161.398ZM153.406 142.504V144.136H162.43V142.504H153.406ZM196.85 140.152V161.896H198.842V140.152H196.85ZM187.394 141.832C184.202 141.832 181.898 144.784 181.898 149.392C181.898 154.024 184.202 156.976 187.394 156.976C190.61 156.976 192.914 154.024 192.914 149.392C192.914 144.784 190.61 141.832 187.394 141.832ZM187.394 143.632C189.53 143.632 190.994 145.888 190.994 149.392C190.994 152.92 189.53 155.224 187.394 155.224C185.282 155.224 183.794 152.92 183.794 149.392C183.794 145.888 185.282 143.632 187.394 143.632ZM205.512 141.04V142.648H218.448V145.168H205.56V150.448H207.576V146.704H220.44V141.04H205.512ZM205.56 149.464V151.096H220.944V149.464H205.56ZM203.16 153.328V154.984H222.84V153.328H203.16ZM211.968 153.952V161.896H213.936V153.952H211.968ZM230.999 143.272V146.8C230.999 150.544 228.383 154.624 225.239 156.112L226.391 157.696C229.847 155.992 232.607 151.384 232.607 146.8V143.272H230.999ZM231.383 143.272V146.8C231.383 151.312 234.167 155.536 237.671 157.168L238.799 155.584C235.607 154.216 232.991 150.472 232.991 146.8V143.272H231.383ZM225.959 142.384V144.064H238.079V142.384H225.959ZM241.007 140.176V161.872H242.999V140.176H241.007ZM256.587 141.064V148.384H271.179V141.064H256.587ZM269.211 142.672V146.776H258.531V142.672H269.211ZM254.067 150.928V152.536H273.675V150.928H254.067ZM262.899 147.88V151.624H264.867V147.88H262.899ZM262.875 153.904V154.576C262.875 157.456 259.539 159.616 255.579 160.192L256.347 161.752C260.787 161.008 264.579 158.464 264.579 154.576V153.904H262.875ZM263.187 153.904V154.576C263.187 158.464 266.955 161.008 271.395 161.752L272.163 160.192C268.203 159.616 264.891 157.456 264.891 154.576V153.904H263.187ZM291.001 140.2V156.472H292.993V140.2H291.001ZM292.369 147.304V148.984H296.209V147.304H292.369ZM276.217 142.816V144.424H289.033V142.816H276.217ZM282.625 145.624C279.529 145.624 277.417 147.232 277.417 149.68C277.417 152.104 279.529 153.712 282.625 153.712C285.697 153.712 287.809 152.104 287.809 149.68C287.809 147.232 285.697 145.624 282.625 145.624ZM282.625 147.184C284.569 147.184 285.913 148.168 285.913 149.68C285.913 151.168 284.569 152.152 282.625 152.152C280.657 152.152 279.313 151.168 279.313 149.68C279.313 148.168 280.657 147.184 282.625 147.184ZM281.617 140.176V143.656H283.609V140.176H281.617ZM279.481 159.76V161.392H293.977V159.76H279.481ZM279.481 155.176V160.456H281.473V155.176H279.481ZM306.869 141.184V142.816H312.605V141.184H306.869ZM311.909 141.184V141.832C311.909 143.152 311.909 145.624 310.877 149.272L312.821 149.512C313.829 145.816 313.829 143.128 313.829 141.832V141.184H311.909ZM315.437 141.184V142.816H321.293V141.184H315.437ZM320.381 141.184V142.072C320.381 143.488 320.381 145.84 319.493 149.344L321.437 149.608C322.301 146.032 322.301 143.488 322.301 142.072V141.184H320.381ZM304.973 148.696V150.304H324.653V148.696H304.973ZM313.781 149.944V154.696H315.749V149.944H313.781ZM307.445 153.952V161.584H322.133V153.952H307.445ZM320.189 155.56V159.952H309.389V155.56H320.189ZM327.051 151.576V153.208H346.659V151.576H327.051ZM329.595 159.76V161.392H344.499V159.76H329.595ZM329.595 155.104V160.264H331.587V155.104H329.595ZM336.867 140.896C332.211 140.896 329.235 142.528 329.235 145.24C329.235 147.928 332.211 149.56 336.867 149.56C341.499 149.56 344.499 147.928 344.499 145.24C344.499 142.528 341.499 140.896 336.867 140.896ZM336.867 142.528C340.275 142.528 342.459 143.536 342.459 145.24C342.459 146.944 340.275 147.952 336.867 147.952C333.459 147.952 331.275 146.944 331.275 145.24C331.275 143.536 333.459 142.528 336.867 142.528ZM355.879 152.776V154.408H375.559V152.776H355.879ZM364.663 153.76V161.872H366.631V153.76H364.663ZM358.375 141.376V149.848H373.015V141.376H358.375ZM371.071 142.984V148.24H360.343V142.984H371.071ZM393.821 140.176V155.056H395.813V140.176H393.821ZM388.637 146.104V147.736H394.373V146.104H388.637ZM383.885 141.64C380.669 141.64 378.293 143.8 378.293 146.896C378.293 149.968 380.669 152.152 383.885 152.152C387.077 152.152 389.477 149.968 389.477 146.896C389.477 143.8 387.077 141.64 383.885 141.64ZM383.885 143.344C385.997 143.344 387.557 144.808 387.557 146.896C387.557 148.96 385.997 150.448 383.885 150.448C381.773 150.448 380.213 148.96 380.213 146.896C380.213 144.808 381.773 143.344 383.885 143.344ZM387.821 153.352V154.192C387.821 157.144 384.389 159.544 380.549 160.192L381.317 161.776C385.733 160.984 389.525 158.104 389.525 154.192V153.352H387.821ZM388.157 153.352V154.192C388.157 158.2 391.973 160.96 396.365 161.776L397.157 160.192C393.269 159.544 389.861 157.216 389.861 154.192V153.352H388.157ZM415.803 140.152V161.896H417.795V140.152H415.803ZM406.347 141.832C403.155 141.832 400.851 144.784 400.851 149.392C400.851 154.024 403.155 156.976 406.347 156.976C409.563 156.976 411.867 154.024 411.867 149.392C411.867 144.784 409.563 141.832 406.347 141.832ZM406.347 143.632C408.483 143.632 409.947 145.888 409.947 149.392C409.947 152.92 408.483 155.224 406.347 155.224C404.235 155.224 402.747 152.92 402.747 149.392C402.747 145.888 404.235 143.632 406.347 143.632ZM434.288 153.52V154.696C434.288 156.784 432.656 159.112 429.92 160.096L430.928 161.584C434.048 160.384 435.824 157.528 435.824 154.696V153.52H434.288ZM434.72 153.52V154.696C434.72 157.576 436.136 160.552 439.256 161.776L440.096 160.264C437.504 159.208 436.208 156.88 436.208 154.696V153.52H434.72ZM442.304 153.52V154.696C442.304 156.568 440.984 159.088 438.416 160.264L439.256 161.776C442.352 160.456 443.792 157.24 443.792 154.696V153.52H442.304ZM442.712 153.52V154.696C442.712 157.696 444.44 160.432 447.608 161.584L448.616 160.096C445.856 159.16 444.248 156.928 444.248 154.696V153.52H442.712ZM444.656 140.2V152.584H446.672V140.2H444.656ZM435.032 141.448C431.744 141.448 429.368 143.512 429.368 146.512C429.368 149.512 431.744 151.552 435.032 151.552C438.32 151.552 440.672 149.512 440.672 146.512C440.672 143.512 438.32 141.448 435.032 141.448ZM435.032 143.104C437.192 143.104 438.752 144.496 438.752 146.512C438.752 148.528 437.192 149.896 435.032 149.896C432.872 149.896 431.312 148.528 431.312 146.512C431.312 144.496 432.872 143.104 435.032 143.104ZM466.734 140.176V161.872H468.726V140.176H466.734ZM452.334 142.288V155.728H454.302V142.288H452.334ZM452.334 154.552V156.28H454.11C457.542 156.28 460.974 156.016 464.742 155.248L464.502 153.544C460.83 154.312 457.398 154.552 454.11 154.552H452.334ZM476.31 155.091V154.989C476.321 153.903 476.435 153.04 476.651 152.398C476.866 151.756 477.173 151.236 477.571 150.838C477.969 150.44 478.446 150.074 479.003 149.739C479.338 149.534 479.639 149.293 479.906 149.014C480.173 148.73 480.384 148.403 480.537 148.034C480.696 147.665 480.776 147.256 480.776 146.807C480.776 146.25 480.645 145.767 480.384 145.358C480.122 144.949 479.773 144.634 479.335 144.412C478.898 144.19 478.412 144.08 477.878 144.08C477.412 144.08 476.963 144.176 476.531 144.369C476.099 144.562 475.739 144.866 475.449 145.281C475.159 145.696 474.991 146.239 474.946 146.909H472.798C472.844 145.943 473.094 145.116 473.548 144.429C474.009 143.741 474.614 143.216 475.364 142.852C476.119 142.489 476.957 142.307 477.878 142.307C478.878 142.307 479.747 142.506 480.486 142.903C481.23 143.301 481.804 143.847 482.207 144.54C482.616 145.233 482.821 146.023 482.821 146.909C482.821 147.534 482.724 148.099 482.531 148.605C482.344 149.111 482.071 149.562 481.713 149.96C481.361 150.358 480.935 150.71 480.435 151.017C479.935 151.33 479.534 151.659 479.233 152.006C478.932 152.347 478.713 152.753 478.577 153.224C478.44 153.696 478.366 154.284 478.355 154.989V155.091H476.31ZM477.401 160.136C476.98 160.136 476.619 159.986 476.318 159.685C476.017 159.384 475.866 159.023 475.866 158.602C475.866 158.182 476.017 157.821 476.318 157.52C476.619 157.219 476.98 157.068 477.401 157.068C477.821 157.068 478.182 157.219 478.483 157.52C478.784 157.821 478.935 158.182 478.935 158.602C478.935 158.881 478.864 159.136 478.722 159.369C478.585 159.602 478.401 159.79 478.168 159.932C477.94 160.068 477.685 160.136 477.401 160.136Z" fill="black"/>
</g>
<defs>
<clipPath id="clip0_448_31">
<rect width="500" height="200" fill="white"/>
</clipPath>
</defs>
</svg>
