<svg width="500" height="200" viewBox="0 0 500 200" fill="none" xmlns="http://www.w3.org/2000/svg">
<g clip-path="url(#clip0_448_35)">
<path d="M211.13 128L453.174 132.069C479.157 132.069 500 136.988 500 143.12L485.095 177.831C485.095 183.963 468.475 188.415 442.493 188.415L389.6 188.633L412.739 200L323.913 188.882L243.278 189.411C217.295 189.411 183.596 183.958 183.596 177.826L160 141.097C160 134.965 185.148 128 211.13 128Z" fill="white" stroke="black" stroke-width="2" stroke-linecap="round" stroke-linejoin="round"/>
<path d="M196.576 163.392V169.584H211.384V163.392H196.576ZM209.44 164.928V168.072H198.544V164.928H209.44ZM195.208 149.976V151.56H212.656V149.976H195.208ZM203.992 152.4C199.504 152.4 196.984 153.48 196.984 155.52C196.984 157.56 199.504 158.64 203.992 158.64C208.456 158.64 211 157.56 211 155.52C211 153.48 208.456 152.4 203.992 152.4ZM203.992 153.792C207.112 153.792 208.864 154.416 208.864 155.52C208.864 156.624 207.112 157.224 203.992 157.224C200.848 157.224 199.096 156.624 199.096 155.52C199.096 154.416 200.848 153.792 203.992 153.792ZM203.008 147.864V150.96H204.976V147.864H203.008ZM194.176 160.032V161.616H213.784V160.032H194.176ZM218.654 163.392V169.584H233.462V163.392H218.654ZM231.518 164.928V168.072H220.622V164.928H231.518ZM217.286 149.976V151.56H234.734V149.976H217.286ZM226.07 152.4C221.582 152.4 219.062 153.48 219.062 155.52C219.062 157.56 221.582 158.64 226.07 158.64C230.534 158.64 233.078 157.56 233.078 155.52C233.078 153.48 230.534 152.4 226.07 152.4ZM226.07 153.792C229.19 153.792 230.942 154.416 230.942 155.52C230.942 156.624 229.19 157.224 226.07 157.224C222.926 157.224 221.174 156.624 221.174 155.52C221.174 154.416 222.926 153.792 226.07 153.792ZM225.086 147.864V150.96H227.054V147.864H225.086ZM216.254 160.032V161.616H235.862V160.032H216.254ZM240.463 168.136C240.043 168.136 239.682 167.986 239.381 167.685C239.08 167.384 238.929 167.023 238.929 166.602C238.929 166.182 239.08 165.821 239.381 165.52C239.682 165.219 240.043 165.068 240.463 165.068C240.884 165.068 241.244 165.219 241.545 165.52C241.847 165.821 241.997 166.182 241.997 166.602C241.997 166.881 241.926 167.136 241.784 167.369C241.648 167.602 241.463 167.79 241.23 167.932C241.003 168.068 240.747 168.136 240.463 168.136ZM247.072 168.136C246.652 168.136 246.291 167.986 245.99 167.685C245.689 167.384 245.538 167.023 245.538 166.602C245.538 166.182 245.689 165.821 245.99 165.52C246.291 165.219 246.652 165.068 247.072 165.068C247.493 165.068 247.854 165.219 248.155 165.52C248.456 165.821 248.607 166.182 248.607 166.602C248.607 166.881 248.536 167.136 248.393 167.369C248.257 167.602 248.072 167.79 247.839 167.932C247.612 168.068 247.357 168.136 247.072 168.136ZM274.213 148.176V169.92H276.205V148.176H274.213ZM267.541 155.328V156.96H274.861V155.328H267.541ZM259.501 150.6V164.04H261.469V150.6H259.501ZM259.501 162.984V164.664H261.181C264.613 164.664 267.661 164.448 271.117 163.776L270.877 162.096C267.541 162.792 264.541 162.984 261.181 162.984H259.501ZM287.435 149.736C284.051 149.736 281.603 151.824 281.603 154.848C281.603 157.896 284.051 159.984 287.435 159.984C290.819 159.984 293.243 157.896 293.243 154.848C293.243 151.824 290.819 149.736 287.435 149.736ZM287.435 151.464C289.667 151.464 291.299 152.832 291.299 154.848C291.299 156.864 289.667 158.256 287.435 158.256C285.179 158.256 283.547 156.864 283.547 154.848C283.547 152.832 285.179 151.464 287.435 151.464ZM296.075 148.152V169.896H298.067V148.152H296.075ZM280.787 165.144C284.651 165.144 289.955 165.12 294.827 164.184L294.659 162.72C289.931 163.464 284.459 163.488 280.499 163.488L280.787 165.144ZM309.231 165.408V167.064H328.887V165.408H309.231ZM317.967 160.152V165.96H319.935V160.152H317.967ZM317.919 149.616V151.296C317.919 154.872 313.815 158.064 309.999 158.76L310.839 160.416C315.207 159.504 319.647 155.928 319.647 151.296V149.616H317.919ZM318.279 149.616V151.296C318.279 155.928 322.719 159.504 327.087 160.416L327.951 158.76C324.135 158.064 320.007 154.896 320.007 151.296V149.616H318.279ZM337.453 159.096V163.92H339.445V159.096H337.453ZM347.077 148.176V164.688H349.069V148.176H347.077ZM334.261 167.76V169.392H349.597V167.76H334.261ZM334.261 163.08V168.216H336.253V163.08H334.261ZM331.453 159.84C335.389 159.84 340.645 159.768 345.325 159.024L345.181 157.56C340.573 158.16 335.197 158.208 331.189 158.208L331.453 159.84ZM342.661 160.992V162.456H347.581V160.992H342.661ZM338.245 149.064C335.053 149.064 332.893 150.552 332.893 152.832C332.893 155.136 335.053 156.624 338.245 156.624C341.413 156.624 343.573 155.136 343.573 152.832C343.573 150.552 341.413 149.064 338.245 149.064ZM338.245 150.552C340.261 150.552 341.677 151.44 341.677 152.832C341.677 154.224 340.261 155.112 338.245 155.112C336.205 155.112 334.789 154.224 334.789 152.832C334.789 151.44 336.205 150.552 338.245 150.552ZM353.364 159.576V161.208H372.972V159.576H353.364ZM355.908 167.76V169.392H370.812V167.76H355.908ZM355.908 163.104V168.264H357.9V163.104H355.908ZM363.18 148.896C358.523 148.896 355.548 150.528 355.548 153.24C355.548 155.928 358.523 157.56 363.18 157.56C367.812 157.56 370.812 155.928 370.812 153.24C370.812 150.528 367.812 148.896 363.18 148.896ZM363.18 150.528C366.588 150.528 368.772 151.536 368.772 153.24C368.772 154.944 366.588 155.952 363.18 155.952C359.772 155.952 357.588 154.944 357.588 153.24C357.588 151.536 359.772 150.528 363.18 150.528ZM382.192 160.776V162.408H401.872V160.776H382.192ZM390.976 161.76V169.872H392.944V161.76H390.976ZM384.688 149.376V157.848H399.328V149.376H384.688ZM397.384 150.984V156.24H386.656V150.984H397.384ZM420.134 148.176V163.056H422.126V148.176H420.134ZM414.95 154.104V155.736H420.686V154.104H414.95ZM410.198 149.64C406.982 149.64 404.606 151.8 404.606 154.896C404.606 157.968 406.982 160.152 410.198 160.152C413.39 160.152 415.79 157.968 415.79 154.896C415.79 151.8 413.39 149.64 410.198 149.64ZM410.198 151.344C412.31 151.344 413.87 152.808 413.87 154.896C413.87 156.96 412.31 158.448 410.198 158.448C408.086 158.448 406.526 156.96 406.526 154.896C406.526 152.808 408.086 151.344 410.198 151.344ZM414.134 161.352V162.192C414.134 165.144 410.702 167.544 406.862 168.192L407.63 169.776C412.046 168.984 415.838 166.104 415.838 162.192V161.352H414.134ZM414.47 161.352V162.192C414.47 166.2 418.286 168.96 422.678 169.776L423.47 168.192C419.582 167.544 416.174 165.216 416.174 162.192V161.352H414.47ZM442.116 148.152V169.896H444.108V148.152H442.116ZM432.66 149.832C429.468 149.832 427.164 152.784 427.164 157.392C427.164 162.024 429.468 164.976 432.66 164.976C435.876 164.976 438.18 162.024 438.18 157.392C438.18 152.784 435.876 149.832 432.66 149.832ZM432.66 151.632C434.796 151.632 436.26 153.888 436.26 157.392C436.26 160.92 434.796 163.224 432.66 163.224C430.548 163.224 429.06 160.92 429.06 157.392C429.06 153.888 430.548 151.632 432.66 151.632ZM464.218 148.176V169.872H466.21V148.176H464.218ZM449.818 150.288V163.728H451.786V150.288H449.818ZM449.818 162.552V164.28H451.594C455.026 164.28 458.458 164.016 462.226 163.248L461.986 161.544C458.314 162.312 454.882 162.552 451.594 162.552H449.818ZM473.794 163.091V162.989C473.805 161.903 473.919 161.04 474.135 160.398C474.351 159.756 474.658 159.236 475.055 158.838C475.453 158.44 475.93 158.074 476.487 157.739C476.822 157.534 477.124 157.293 477.391 157.014C477.658 156.73 477.868 156.403 478.021 156.034C478.18 155.665 478.26 155.256 478.26 154.807C478.26 154.25 478.129 153.767 477.868 153.358C477.607 152.949 477.257 152.634 476.82 152.412C476.382 152.19 475.896 152.08 475.362 152.08C474.896 152.08 474.447 152.176 474.016 152.369C473.584 152.562 473.223 152.866 472.933 153.281C472.643 153.696 472.476 154.239 472.43 154.909H470.283C470.328 153.943 470.578 153.116 471.033 152.429C471.493 151.741 472.098 151.216 472.848 150.852C473.604 150.489 474.442 150.307 475.362 150.307C476.362 150.307 477.232 150.506 477.97 150.903C478.714 151.301 479.288 151.847 479.692 152.54C480.101 153.233 480.305 154.023 480.305 154.909C480.305 155.534 480.209 156.099 480.016 156.605C479.828 157.111 479.555 157.562 479.197 157.96C478.845 158.358 478.419 158.71 477.919 159.017C477.419 159.33 477.018 159.659 476.717 160.006C476.416 160.347 476.197 160.753 476.061 161.224C475.925 161.696 475.851 162.284 475.839 162.989V163.091H473.794ZM474.885 168.136C474.464 168.136 474.104 167.986 473.803 167.685C473.501 167.384 473.351 167.023 473.351 166.602C473.351 166.182 473.501 165.821 473.803 165.52C474.104 165.219 474.464 165.068 474.885 165.068C475.305 165.068 475.666 165.219 475.967 165.52C476.268 165.821 476.419 166.182 476.419 166.602C476.419 166.881 476.348 167.136 476.206 167.369C476.07 167.602 475.885 167.79 475.652 167.932C475.425 168.068 475.169 168.136 474.885 168.136Z" fill="black"/>
</g>
<defs>
<clipPath id="clip0_448_35">
<rect width="500" height="200" fill="white"/>
</clipPath>
</defs>
</svg>
