<svg width="500" height="200" viewBox="0 0 500 200" fill="none" xmlns="http://www.w3.org/2000/svg">
<g clip-path="url(#clip0_448_45)">
<path d="M239.167 85L457.719 91.3669C481.18 91.3669 500 99.0632 500 108.658L486.542 162.967C486.542 172.562 471.534 179.528 448.074 179.528L400.315 179.868L411.552 200L341.004 180.258L268.195 181.086C244.734 181.086 214.306 172.554 214.306 162.959L193 105.492C193 95.8973 215.707 85 239.167 85Z" fill="white" stroke="black" stroke-width="2" stroke-linecap="round" stroke-linejoin="round"/>
<path d="M244.208 109.024V110.584H261.656V109.024H244.208ZM252.992 111.472C248.528 111.472 245.984 112.552 245.984 114.616C245.984 116.68 248.528 117.76 252.992 117.76C257.456 117.76 260 116.68 260 114.616C260 112.552 257.456 111.472 252.992 111.472ZM252.992 112.864C256.184 112.864 257.96 113.488 257.96 114.616C257.96 115.72 256.184 116.32 252.992 116.32C249.8 116.32 248.024 115.72 248.024 114.616C248.024 113.488 249.8 112.864 252.992 112.864ZM252.008 106.84V109.96H253.976V106.84H252.008ZM243.176 119.488V121.096H262.784V119.488H243.176ZM252.008 117.208V120.232H253.976V117.208H252.008ZM245.312 122.824V124.384H258.224V128.872H260.192V122.824H245.312ZM270.99 109.048V112.936C270.99 117.04 268.374 121.192 265.158 122.728L266.382 124.36C269.934 122.56 272.622 117.928 272.622 112.936V109.048H270.99ZM271.326 109.048V112.936C271.326 117.76 274.038 122.224 277.566 123.952L278.766 122.368C275.55 120.88 272.958 116.896 272.958 112.936V109.048H271.326ZM281.022 107.152V128.896H283.014V107.152H281.022ZM294.082 116.632V118.24H313.69V116.632H294.082ZM302.89 113.872V117.184H304.858V113.872H302.89ZM296.626 107.896V114.496H311.146V107.896H296.626ZM309.202 109.48V112.912H298.594V109.48H309.202ZM296.458 120.04V121.576H309.226V123.472H296.506V127.552H298.474V124.912H311.194V120.04H296.458ZM296.506 127.072V128.632H311.842V127.072H296.506ZM330.872 107.152V128.896H332.864V107.152H330.872ZM332.384 115.792V117.472H336.416V115.792H332.384ZM317.048 122.008V123.664H318.776C322.928 123.664 325.808 123.496 329.192 122.896L328.976 121.24C325.688 121.864 322.856 122.008 318.776 122.008H317.048ZM317 109.192V110.824H324.848V115.336H317.048V122.68H319.016V116.968H326.816V109.192H317ZM341.528 122.091V121.989C341.54 120.903 341.653 120.04 341.869 119.398C342.085 118.756 342.392 118.236 342.79 117.838C343.188 117.44 343.665 117.074 344.222 116.739C344.557 116.534 344.858 116.293 345.125 116.014C345.392 115.73 345.602 115.403 345.756 115.034C345.915 114.665 345.994 114.256 345.994 113.807C345.994 113.25 345.864 112.767 345.602 112.358C345.341 111.949 344.991 111.634 344.554 111.412C344.116 111.19 343.631 111.08 343.097 111.08C342.631 111.08 342.182 111.176 341.75 111.369C341.318 111.562 340.957 111.866 340.668 112.281C340.378 112.696 340.21 113.239 340.165 113.909H338.017C338.062 112.943 338.312 112.116 338.767 111.429C339.227 110.741 339.832 110.216 340.582 109.852C341.338 109.489 342.176 109.307 343.097 109.307C344.097 109.307 344.966 109.506 345.705 109.903C346.449 110.301 347.023 110.847 347.426 111.54C347.835 112.233 348.04 113.023 348.04 113.909C348.04 114.534 347.943 115.099 347.75 115.605C347.562 116.111 347.29 116.562 346.932 116.96C346.58 117.358 346.153 117.71 345.653 118.017C345.153 118.33 344.753 118.659 344.452 119.006C344.151 119.347 343.932 119.753 343.795 120.224C343.659 120.696 343.585 121.284 343.574 121.989V122.091H341.528ZM342.619 127.136C342.199 127.136 341.838 126.986 341.537 126.685C341.236 126.384 341.085 126.023 341.085 125.602C341.085 125.182 341.236 124.821 341.537 124.52C341.838 124.219 342.199 124.068 342.619 124.068C343.04 124.068 343.401 124.219 343.702 124.52C344.003 124.821 344.153 125.182 344.153 125.602C344.153 125.881 344.082 126.136 343.94 126.369C343.804 126.602 343.619 126.79 343.386 126.932C343.159 127.068 342.903 127.136 342.619 127.136ZM254.768 141.792V143.448H259.664V141.792H254.768ZM259.04 136.176V149.112H261.032V136.176H259.04ZM253.904 149.76C249.416 149.76 246.656 151.272 246.656 153.816C246.656 156.384 249.416 157.848 253.904 157.848C258.368 157.848 261.128 156.384 261.128 153.816C261.128 151.272 258.368 149.76 253.904 149.76ZM253.904 151.32C257.168 151.32 259.16 152.232 259.16 153.816C259.16 155.376 257.168 156.288 253.904 156.288C250.64 156.288 248.648 155.376 248.648 153.816C248.648 152.232 250.64 151.32 253.904 151.32ZM248.72 138.36V140.112C248.72 143.232 246.488 146.136 243.272 147.312L244.304 148.896C247.904 147.552 250.352 144.12 250.352 140.112V138.36H248.72ZM249.104 138.36V140.112C249.104 143.76 251.432 147.024 254.96 148.296L255.968 146.712C252.824 145.608 250.712 142.92 250.712 140.112V138.36H249.104ZM243.872 137.76V139.392H255.464V137.76H243.872ZM280.11 136.176V147.216H282.102V136.176H280.11ZM281.238 140.832V142.488H285.294V140.832H281.238ZM266.166 137.4V146.088H276.126V137.4H266.166ZM274.182 138.984V144.504H268.11V138.984H274.182ZM268.326 148.248V149.832H280.158V152.064H268.374V156.816H270.342V153.576H282.102V148.248H268.326ZM268.374 155.976V157.584H282.894V155.976H268.374ZM309.85 136.152V157.896H311.842V136.152H309.85ZM300.394 137.832C297.202 137.832 294.898 140.784 294.898 145.392C294.898 150.024 297.202 152.976 300.394 152.976C303.61 152.976 305.914 150.024 305.914 145.392C305.914 140.784 303.61 137.832 300.394 137.832ZM300.394 139.632C302.53 139.632 303.994 141.888 303.994 145.392C303.994 148.92 302.53 151.224 300.394 151.224C298.282 151.224 296.794 148.92 296.794 145.392C296.794 141.888 298.282 139.632 300.394 139.632ZM318.512 137.04V138.648H331.448V141.168H318.56V146.448H320.576V142.704H333.44V137.04H318.512ZM318.56 145.464V147.096H333.944V145.464H318.56ZM316.16 149.328V150.984H335.84V149.328H316.16ZM324.968 149.952V157.896H326.936V149.952H324.968ZM344.047 137.832C340.879 137.832 338.646 140.784 338.646 145.392C338.646 150.024 340.879 152.976 344.047 152.976C347.191 152.976 349.447 150.024 349.447 145.392C349.447 140.784 347.191 137.832 344.047 137.832ZM344.047 139.632C346.135 139.632 347.551 141.888 347.551 145.392C347.551 148.92 346.135 151.224 344.047 151.224C341.959 151.224 340.543 148.92 340.543 145.392C340.543 141.888 341.959 139.632 344.047 139.632ZM354.151 136.152V157.896H356.119V136.152H354.151ZM348.799 144.432V146.064H355.015V144.432H348.799ZM376.109 136.176V147.408H378.101V136.176H376.109ZM364.085 148.464V150.048H376.157V152.232H364.133V156.768H366.077V153.672H378.125V148.464H364.085ZM364.133 156.048V157.632H378.845V156.048H364.133ZM366.101 138.096V139.224C366.101 142.176 363.869 144.84 360.629 145.896L361.565 147.456C365.237 146.232 367.733 143.064 367.733 139.224V138.096H366.101ZM366.509 138.096V139.224C366.509 142.872 369.029 145.872 372.677 147L373.613 145.464C370.397 144.48 368.141 141.984 368.141 139.224V138.096H366.509ZM361.157 137.4V139.008H373.037V137.4H361.157ZM388.155 139.272V142.8C388.155 146.544 385.539 150.624 382.395 152.112L383.547 153.696C387.003 151.992 389.763 147.384 389.763 142.8V139.272H388.155ZM388.539 139.272V142.8C388.539 147.312 391.323 151.536 394.827 153.168L395.955 151.584C392.763 150.216 390.147 146.472 390.147 142.8V139.272H388.539ZM383.115 138.384V140.064H395.235V138.384H383.115ZM398.163 136.176V157.872H400.155V136.176H398.163ZM406.969 146.304V147.936H421.873V146.304H406.969ZM404.497 153.48V155.16H424.153V153.48H404.497ZM413.281 147V154.152H415.273V147H413.281ZM406.969 137.904V147.024H408.961V139.536H421.657V137.904H406.969ZM427.352 149.011C427.335 148.068 427.489 147.31 427.812 146.736C428.136 146.162 428.557 145.744 429.074 145.483C429.597 145.222 430.148 145.091 430.727 145.091C431.307 145.091 431.835 145.219 432.312 145.474C432.795 145.724 433.347 146.119 433.966 146.659C434.386 147.023 434.722 147.278 434.972 147.426C435.227 147.574 435.506 147.648 435.807 147.648C436.295 147.648 436.682 147.472 436.966 147.119C437.25 146.761 437.386 146.244 437.375 145.568H439.216C439.233 146.511 439.08 147.27 438.756 147.844C438.438 148.418 438.017 148.835 437.494 149.097C436.972 149.358 436.42 149.489 435.841 149.489C435.261 149.489 434.733 149.364 434.256 149.114C433.778 148.858 433.227 148.46 432.602 147.92C432.188 147.557 431.852 147.301 431.597 147.153C431.341 147.006 431.063 146.932 430.761 146.932C430.301 146.932 429.92 147.094 429.619 147.418C429.324 147.736 429.182 148.267 429.193 149.011H427.352ZM445.661 151.091V150.989C445.673 149.903 445.786 149.04 446.002 148.398C446.218 147.756 446.525 147.236 446.923 146.838C447.32 146.44 447.798 146.074 448.354 145.739C448.69 145.534 448.991 145.293 449.258 145.014C449.525 144.73 449.735 144.403 449.888 144.034C450.048 143.665 450.127 143.256 450.127 142.807C450.127 142.25 449.996 141.767 449.735 141.358C449.474 140.949 449.124 140.634 448.687 140.412C448.249 140.19 447.763 140.08 447.229 140.08C446.763 140.08 446.315 140.176 445.883 140.369C445.451 140.562 445.09 140.866 444.8 141.281C444.511 141.696 444.343 142.239 444.298 142.909H442.15C442.195 141.943 442.445 141.116 442.9 140.429C443.36 139.741 443.965 139.216 444.715 138.852C445.471 138.489 446.309 138.307 447.229 138.307C448.229 138.307 449.099 138.506 449.837 138.903C450.582 139.301 451.156 139.847 451.559 140.54C451.968 141.233 452.173 142.023 452.173 142.909C452.173 143.534 452.076 144.099 451.883 144.605C451.695 145.111 451.423 145.562 451.065 145.96C450.712 146.358 450.286 146.71 449.786 147.017C449.286 147.33 448.886 147.659 448.585 148.006C448.283 148.347 448.065 148.753 447.928 149.224C447.792 149.696 447.718 150.284 447.707 150.989V151.091H445.661ZM446.752 156.136C446.332 156.136 445.971 155.986 445.67 155.685C445.369 155.384 445.218 155.023 445.218 154.602C445.218 154.182 445.369 153.821 445.67 153.52C445.971 153.219 446.332 153.068 446.752 153.068C447.173 153.068 447.533 153.219 447.835 153.52C448.136 153.821 448.286 154.182 448.286 154.602C448.286 154.881 448.215 155.136 448.073 155.369C447.937 155.602 447.752 155.79 447.519 155.932C447.292 156.068 447.036 156.136 446.752 156.136Z" fill="black"/>
</g>
<defs>
<clipPath id="clip0_448_45">
<rect width="500" height="200" fill="white"/>
</clipPath>
</defs>
</svg>
