<svg width="500" height="301" viewBox="0 0 500 301" fill="none" xmlns="http://www.w3.org/2000/svg">
<path d="M90.0249 95L416.785 99.1855C451.861 99.1855 480 104.245 480 110.552L459.879 146.255C459.879 152.562 437.441 157.141 402.365 157.141L247.643 157.834H210.028L119.5 174L137 157.834L97.5 157.141C62.4233 157.141 52.8545 152.557 52.8545 146.249L21 108.471C21 102.164 54.9499 95 90.0249 95Z" fill="white" stroke="black" stroke-width="2" stroke-linecap="round" stroke-linejoin="round"/>
<path d="M78.088 115.176V136.92H80.08V115.176H78.088ZM71.416 122.328V123.96H78.736V122.328H71.416ZM63.376 117.6V131.04H65.344V117.6H63.376ZM63.376 129.984V131.664H65.056C68.488 131.664 71.536 131.448 74.992 130.776L74.752 129.096C71.416 129.792 68.416 129.984 65.056 129.984H63.376ZM86.7501 125.304V126.936H101.654V125.304H86.7501ZM84.2781 132.48V134.16H103.934V132.48H84.2781ZM93.0621 126V133.152H95.0541V126H93.0621ZM86.7501 116.904V126.024H88.7421V118.536H101.438V116.904H86.7501ZM127.77 115.152V136.872H129.786V115.152H127.77ZM129.234 123.96V125.616H133.242V123.96H129.234ZM122.226 117.504V117.816C122.226 123.552 119.226 128.184 113.226 131.232L114.33 132.768C121.338 129.24 124.17 123.672 124.17 117.504H122.226ZM114.234 117.504V119.136H123.258V117.504H114.234ZM140.512 117.504V119.256C140.512 122.352 138.352 125.16 135.088 126.312L136.096 127.896C139.744 126.576 142.144 123.24 142.144 119.256V117.504H140.512ZM140.872 117.504V119.232C140.872 122.928 143.176 126.024 146.8 127.224L147.76 125.664C144.568 124.608 142.504 122.064 142.504 119.232V117.504H140.872ZM135.688 116.784V118.416H147.28V116.784H135.688ZM150.016 115.176V128.256H152.008V115.176H150.016ZM151.456 120.672V122.352H155.224V120.672H151.456ZM145.096 128.832C140.68 128.832 137.968 130.296 137.968 132.816C137.968 135.36 140.68 136.824 145.096 136.824C149.512 136.824 152.224 135.36 152.224 132.816C152.224 130.296 149.512 128.832 145.096 128.832ZM145.096 130.44C148.312 130.44 150.28 131.304 150.28 132.816C150.28 134.352 148.312 135.264 145.096 135.264C141.88 135.264 139.912 134.352 139.912 132.816C139.912 131.304 141.88 130.44 145.096 130.44ZM164.013 132.408V134.064H183.669V132.408H164.013ZM172.749 127.152V132.96H174.717V127.152H172.749ZM172.701 116.616V118.296C172.701 121.872 168.597 125.064 164.781 125.76L165.621 127.416C169.989 126.504 174.429 122.928 174.429 118.296V116.616H172.701ZM173.061 116.616V118.296C173.061 122.928 177.501 126.504 181.869 127.416L182.733 125.76C178.917 125.064 174.789 121.896 174.789 118.296V116.616H173.061ZM194.875 126.024V129.816H196.867V126.024H194.875ZM186.067 125.328V126.936H205.675V125.328H186.067ZM195.859 129.216C191.203 129.216 188.419 130.584 188.419 133.032C188.419 135.456 191.203 136.824 195.859 136.824C200.515 136.824 203.299 135.456 203.299 133.032C203.299 130.584 200.515 129.216 195.859 129.216ZM195.859 130.752C199.267 130.752 201.283 131.568 201.283 133.032C201.283 134.472 199.267 135.288 195.859 135.288C192.475 135.288 190.435 134.472 190.435 133.032C190.435 131.568 192.475 130.752 195.859 130.752ZM194.587 116.952V117.6C194.587 120.072 191.059 122.016 187.171 122.424L187.891 124.008C192.379 123.456 196.363 121.104 196.363 117.6V116.952H194.587ZM195.427 116.952V117.6C195.427 121.104 199.387 123.456 203.875 124.008L204.595 122.424C200.707 122.016 197.179 120.072 197.179 117.6V116.952H195.427ZM187.867 116.16V117.768H203.923V116.16H187.867ZM223.913 115.176V136.872H225.905V115.176H223.913ZM208.649 118.68V120.288H221.657V118.68H208.649ZM215.177 122.064C212.057 122.064 209.825 124.128 209.825 127.056C209.825 129.984 212.057 132.048 215.177 132.048C218.297 132.048 220.553 129.984 220.553 127.056C220.553 124.128 218.297 122.064 215.177 122.064ZM215.177 123.72C217.169 123.72 218.633 125.088 218.633 127.056C218.633 129 217.169 130.392 215.177 130.392C213.185 130.392 211.721 129 211.721 127.056C211.721 125.088 213.185 123.72 215.177 123.72ZM214.145 115.392V119.664H216.137V115.392H214.145ZM246.765 120V121.656H253.317V120H246.765ZM246.765 126.864V128.52H253.317V126.864H246.765ZM242.781 116.832C239.613 116.832 237.381 119.784 237.381 124.392C237.381 129.024 239.613 131.976 242.781 131.976C245.925 131.976 248.181 129.024 248.181 124.392C248.181 119.784 245.925 116.832 242.781 116.832ZM242.781 118.632C244.869 118.632 246.309 120.888 246.309 124.392C246.309 127.92 244.869 130.224 242.781 130.224C240.693 130.224 239.253 127.92 239.253 124.392C239.253 120.888 240.693 118.632 242.781 118.632ZM252.885 115.152V136.896H254.853V115.152H252.885ZM274.867 115.176V136.872H276.859V115.176H274.867ZM268.507 117.504V117.84C268.507 123.6 265.603 128.208 259.339 131.232L260.395 132.84C267.643 129.288 270.475 123.792 270.475 117.504H268.507ZM260.323 117.504V119.136H269.371V117.504H260.323ZM283.793 121.68V123.312H298.529V121.68H283.793ZM281.129 126.216V127.848H300.809V126.216H281.129ZM283.793 115.968V122.496H285.761V115.968H283.793ZM283.649 134.712V136.344H298.649V134.712H283.649ZM283.649 130.008V135.144H285.617V130.008H283.649ZM318.765 125.424V128.76H320.733V125.424H318.765ZM309.957 124.32V125.928H329.565V124.32H309.957ZM312.501 115.896V122.496H327.021V115.896H312.501ZM325.077 117.48V120.912H314.469V117.48H325.077ZM312.333 128.04V129.576H325.101V131.472H312.381V135.552H314.349V132.912H327.069V128.04H312.333ZM312.381 135.072V136.632H327.717V135.072H312.381ZM347.899 115.176V131.208H349.891V115.176H347.899ZM343.219 121.872V123.528H348.283V121.872H343.219ZM341.203 116.856V117.648C341.203 121.944 337.675 125.352 332.371 127.128L333.235 128.736C339.355 126.696 343.291 122.448 343.291 116.856H341.203ZM333.451 116.856V118.488H342.499V116.856H333.451ZM336.187 134.76V136.392H350.443V134.76H336.187ZM336.187 129.6V135.576H338.179V129.6H336.187ZM369.882 115.152V136.896H371.874V115.152H369.882ZM360.426 116.832C357.234 116.832 354.93 119.784 354.93 124.392C354.93 129.024 357.234 131.976 360.426 131.976C363.642 131.976 365.946 129.024 365.946 124.392C365.946 119.784 363.642 116.832 360.426 116.832ZM360.426 118.632C362.562 118.632 364.026 120.888 364.026 124.392C364.026 127.92 362.562 130.224 360.426 130.224C358.314 130.224 356.826 127.92 356.826 124.392C356.826 120.888 358.314 118.632 360.426 118.632ZM388.366 128.52V129.696C388.366 131.784 386.734 134.112 383.998 135.096L385.006 136.584C388.126 135.384 389.902 132.528 389.902 129.696V128.52H388.366ZM388.798 128.52V129.696C388.798 132.576 390.214 135.552 393.334 136.776L394.174 135.264C391.582 134.208 390.286 131.88 390.286 129.696V128.52H388.798ZM396.382 128.52V129.696C396.382 131.568 395.062 134.088 392.494 135.264L393.334 136.776C396.43 135.456 397.87 132.24 397.87 129.696V128.52H396.382ZM396.79 128.52V129.696C396.79 132.696 398.518 135.432 401.686 136.584L402.694 135.096C399.934 134.16 398.326 131.928 398.326 129.696V128.52H396.79ZM398.734 115.2V127.584H400.75V115.2H398.734ZM389.11 116.448C385.822 116.448 383.446 118.512 383.446 121.512C383.446 124.512 385.822 126.552 389.11 126.552C392.398 126.552 394.75 124.512 394.75 121.512C394.75 118.512 392.398 116.448 389.11 116.448ZM389.11 118.104C391.27 118.104 392.83 119.496 392.83 121.512C392.83 123.528 391.27 124.896 389.11 124.896C386.95 124.896 385.39 123.528 385.39 121.512C385.39 119.496 386.95 118.104 389.11 118.104ZM420.812 115.176V136.872H422.804V115.176H420.812ZM406.412 117.288V130.728H408.38V117.288H406.412ZM406.412 129.552V131.28H408.188C411.62 131.28 415.052 131.016 418.82 130.248L418.58 128.544C414.908 129.312 411.476 129.552 408.188 129.552H406.412ZM430.388 130.091V129.989C430.399 128.903 430.513 128.04 430.729 127.398C430.945 126.756 431.251 126.236 431.649 125.838C432.047 125.44 432.524 125.074 433.081 124.739C433.416 124.534 433.717 124.293 433.984 124.014C434.251 123.73 434.462 123.403 434.615 123.034C434.774 122.665 434.854 122.256 434.854 121.807C434.854 121.25 434.723 120.767 434.462 120.358C434.2 119.949 433.851 119.634 433.413 119.412C432.976 119.19 432.49 119.08 431.956 119.08C431.49 119.08 431.041 119.176 430.609 119.369C430.178 119.562 429.817 119.866 429.527 120.281C429.237 120.696 429.07 121.239 429.024 121.909H426.876C426.922 120.943 427.172 120.116 427.626 119.429C428.087 118.741 428.692 118.216 429.442 117.852C430.197 117.489 431.036 117.307 431.956 117.307C432.956 117.307 433.825 117.506 434.564 117.903C435.308 118.301 435.882 118.847 436.286 119.54C436.695 120.233 436.899 121.023 436.899 121.909C436.899 122.534 436.803 123.099 436.609 123.605C436.422 124.111 436.149 124.562 435.791 124.96C435.439 125.358 435.013 125.71 434.513 126.017C434.013 126.33 433.612 126.659 433.311 127.006C433.01 127.347 432.791 127.753 432.655 128.224C432.518 128.696 432.445 129.284 432.433 129.989V130.091H430.388ZM431.479 135.136C431.058 135.136 430.697 134.986 430.396 134.685C430.095 134.384 429.945 134.023 429.945 133.602C429.945 133.182 430.095 132.821 430.396 132.52C430.697 132.219 431.058 132.068 431.479 132.068C431.899 132.068 432.26 132.219 432.561 132.52C432.862 132.821 433.013 133.182 433.013 133.602C433.013 133.881 432.942 134.136 432.8 134.369C432.663 134.602 432.479 134.79 432.246 134.932C432.018 135.068 431.763 135.136 431.479 135.136Z" fill="black"/>
<g opacity="0.2">
<path d="M45.7795 300.282C64.9583 300.282 80.5057 298.323 80.5057 295.906C80.5057 293.489 64.9583 291.529 45.7795 291.529C26.6008 291.529 11.0533 293.489 11.0533 295.906C11.0533 298.323 26.6008 300.282 45.7795 300.282Z" fill="#371A45"/>
</g>
<path d="M14.7278 224.52C14.5985 224.649 14.4692 224.783 14.3399 224.919C9.17904 230.329 4.47369 240.307 1.41981 249.184C-0.989957 238.45 2.25648 229.004 8.76926 220.299L14.7274 224.52H14.7278Z" fill="#AFB5BC"/>
<path d="M25.352 227.643L20.9283 228.004C19.142 228.15 17.771 229.651 17.7869 231.443L17.9818 253.69C17.9981 255.541 19.4841 257.044 21.3353 257.08L28.1632 257.213" fill="white"/>
<g opacity="0.6">
<path d="M2.14509 247.142C1.89524 247.828 1.65215 248.509 1.41981 249.184C-0.989957 238.45 2.25648 229.004 8.76926 220.299L9.99145 221.164C4.08141 229.074 0.865606 237.598 2.14469 247.142H2.14509Z" fill="white"/>
</g>
<path d="M25.887 266.4C19.0834 267.405 19.5473 262.473 19.5473 262.473L19.0321 256.125L20.3414 257.07L25.005 257.214" fill="white"/>
<path d="M28.1636 257.837C28.1596 257.837 28.1552 257.837 28.1512 257.837L21.3234 257.703C19.1197 257.66 17.3783 255.9 17.3588 253.696L17.1639 231.449C17.1452 229.341 18.7767 227.555 20.8778 227.383L25.3014 227.021C25.6412 226.995 25.9456 227.249 25.9734 227.592C26.0013 227.935 25.7462 228.236 25.4029 228.264L20.9792 228.626C19.5259 228.745 18.3976 229.979 18.4103 231.438L18.6053 253.685C18.6188 255.209 19.8231 256.427 21.3476 256.457L28.1755 256.591C28.5196 256.597 28.7934 256.882 28.7866 257.226C28.7798 257.566 28.5021 257.837 28.1636 257.837V257.837Z" fill="#371A45"/>
<path d="M9.49728 217.117L7.91743 215.658C7.38988 215.171 7.33299 214.358 7.78733 213.802L8.98565 212.336C9.44198 211.778 10.2548 211.674 10.8368 212.099L12.5372 213.34" fill="#E86B34"/>
<g opacity="0.6">
<path d="M12.5373 213.341L12.4673 213.429L11.7969 212.938C11.2141 212.513 10.4017 212.618 9.94573 213.177L8.74741 214.643C8.29188 215.197 8.34877 216.012 8.87671 216.498L9.51844 217.092L9.49656 217.118L7.9171 215.659C7.38916 215.171 7.33227 214.358 7.7878 213.802L8.98612 212.336C9.44166 211.777 10.2545 211.674 10.8373 212.099L12.5373 213.341V213.341Z" fill="white"/>
</g>
<path d="M17.1921 222.404L16.914 222.809L16.1386 223.944C15.7181 224.559 14.8766 224.706 14.2723 224.27L12.8595 223.251C12.8595 223.249 12.8575 223.249 12.8551 223.247L8.76964 220.299C8.16491 219.863 8.03999 219.013 8.49592 218.421L12.1346 213.69C12.5838 213.105 13.4229 213 14.0009 213.455C14.4808 213.832 14.9431 214.204 14.9582 214.237L18.1847 216.608C18.1847 216.608 19.876 218.844 20.209 218.711C20.5396 218.575 17.1925 222.404 17.1925 222.404L17.1921 222.404Z" fill="#AFB5BC"/>
<g opacity="0.6">
<path d="M18.1847 216.607C18.1847 216.607 18.4127 216.91 18.7191 217.286L16.3467 215.543C16.3312 215.508 15.8669 215.137 15.3871 214.761C14.8086 214.305 13.9699 214.41 13.5208 214.993L9.88206 219.724C9.60157 220.088 9.54031 220.55 9.67836 220.953L8.76928 220.299C8.16455 219.863 8.03962 219.013 8.49556 218.421L12.1343 213.69C12.5834 213.105 13.4225 213 14.0006 213.455C14.4804 213.832 14.9427 214.204 14.9578 214.237L18.1844 216.608L18.1847 216.607Z" fill="white"/>
</g>
<path d="M15.0417 225.144C14.6371 225.144 14.244 225.018 13.9083 224.776L8.40443 220.804C7.97396 220.494 7.69427 220.033 7.61748 219.508C7.5407 218.982 7.67676 218.461 8.00021 218.04L11.6401 213.309C11.9592 212.894 12.4215 212.629 12.9411 212.564C13.4603 212.499 13.9739 212.642 14.3857 212.966C15.4479 213.802 15.4555 213.819 15.5295 213.989C15.6671 214.305 15.5227 214.672 15.2072 214.81C14.9526 214.921 14.665 214.848 14.4911 214.651C14.4426 214.608 14.2615 214.454 13.6146 213.945C13.4666 213.829 13.282 213.778 13.0955 213.801C12.9089 213.825 12.7426 213.919 12.628 214.068L8.98847 218.8C8.8723 218.951 8.82336 219.139 8.85081 219.328C8.87827 219.516 8.97892 219.682 9.13329 219.793L14.6371 223.765C14.7911 223.876 14.9797 223.919 15.1667 223.887C15.354 223.854 15.516 223.749 15.6234 223.592L16.6769 222.052C16.6908 222.031 16.7059 222.012 16.7222 221.993C17.7216 220.85 18.8026 219.579 19.3381 218.907C18.9562 218.561 18.433 217.97 17.6866 216.983C17.4789 216.709 17.5331 216.317 17.808 216.11C18.0825 215.903 18.4732 215.957 18.6808 216.231C19.2454 216.978 19.9914 217.854 20.2941 218.087C20.4684 218.108 20.6299 218.198 20.7365 218.348C21.0385 218.773 20.7684 219.112 20.2782 219.727C20.026 220.043 19.6691 220.473 19.2179 221.005C18.5297 221.817 17.8243 222.627 17.685 222.786L16.6522 224.297C16.3538 224.734 15.9023 225.024 15.3811 225.115C15.2673 225.135 15.1539 225.144 15.0409 225.144L15.0417 225.144ZM14.3873 214.487C14.3873 214.487 14.3873 214.487 14.3873 214.487C14.3873 214.487 14.3873 214.487 14.3873 214.487Z" fill="#371A45"/>
<path d="M82.5263 232.389C82.5263 232.389 82.8549 246.446 72.1759 248.747C72.1759 248.747 69.6917 249.246 67.6237 248.558C67.6106 248.554 67.5994 248.549 67.5887 248.545C67.5449 248.529 67.4988 248.514 67.455 248.497C67.4483 248.494 67.4463 248.492 67.4463 248.492C67.2712 248.429 67.1025 248.354 66.9358 248.271C66.9358 248.271 66.9796 248.552 67.0058 248.99C67.0627 249.932 67.0389 251.603 66.316 252.799C66.316 252.799 66.1342 259.552 65.4769 264.957C64.8197 270.361 64.3072 286.863 64.3072 286.863C68.489 286.979 71.0738 290.935 69.5712 294.74C69.2819 295.476 68.5634 295.954 67.7749 295.954H51.1397C49.6652 295.954 48.4761 294.751 48.4936 293.277L48.5441 288.871L48.6273 281.605L46.2044 270.282L46.1081 269.831L44.3007 281.605V293.307C44.3007 294.768 43.1155 295.953 41.6546 295.953H25.35C24.2809 295.953 23.2995 295.362 22.8002 294.416C21.3611 291.693 22.3752 289.121 24.4301 287.721C25.313 287.116 26.3883 286.731 27.5429 286.643C27.5429 286.643 27.3237 276.183 26.2833 269.283C25.2429 262.382 24.8769 255.173 24.8769 255.173C14.5814 253.199 15.8585 236.713 28.7476 227.497L57.2053 226.391C59.2601 226.312 61.3015 226.798 63.0803 227.828C65.0297 228.956 67.5095 230.796 69.6018 233.631L70.4779 231.769C70.4779 231.769 67.685 226.237 69.7661 223.007C71.8473 219.776 75.0412 219.32 76.2833 220.159C77.5253 220.998 77.5978 223.517 76.2833 224.796L78.6206 224.502C78.6206 224.502 80.0732 222.895 81.6459 223.33L81.6482 223.333C81.9395 223.412 82.2355 223.565 82.5267 223.81C82.7041 223.959 82.8684 224.128 83.0172 224.31C84.4212 226.042 84.4742 229.186 82.5267 232.388L82.5263 232.389Z" fill="white"/>
<path d="M58.8826 258.498C58.8421 258.498 58.8015 258.497 58.7605 258.496L36.0044 257.788C34.446 257.74 33.1546 256.534 33.001 254.984L32.8805 253.773C32.8407 253.373 33.1323 253.017 33.5322 252.978C33.9332 252.939 34.2881 253.23 34.3279 253.629L34.4484 254.841C34.5304 255.667 35.2186 256.309 36.0493 256.335L58.8051 257.042C59.4874 257.063 60.118 256.812 60.5986 256.336C61.0788 255.861 61.3358 255.227 61.3214 254.551L61.0891 243.09C61.076 242.435 60.8082 241.825 60.3344 241.373C59.8609 240.921 59.2427 240.68 58.5847 240.698L36.0529 241.287L33.4422 244.724L33.749 247.811C33.7888 248.211 33.4971 248.567 33.0973 248.607C32.6947 248.647 32.3414 248.355 32.3016 247.955L31.9666 244.584C31.9483 244.401 32 244.218 32.111 244.072L35.1056 240.129C35.2389 239.953 35.4454 239.848 35.6658 239.842L58.5465 239.244C59.5904 239.214 60.5826 239.599 61.339 240.321C62.0949 241.043 62.5226 242.016 62.5432 243.06L62.7756 254.521C62.7975 255.599 62.3877 256.611 61.6218 257.369C60.8842 258.1 59.9155 258.498 58.8822 258.498H58.8826Z" fill="#371A45"/>
<path d="M50.3849 257.639C50.0408 257.639 49.7615 257.36 49.7615 257.016V251.758C49.7615 251.414 50.0408 251.135 50.3849 251.135C50.729 251.135 51.0083 251.414 51.0083 251.758V257.016C51.0083 257.36 50.729 257.639 50.3849 257.639Z" fill="#371A45"/>
<path d="M33.817 254.326H30.0072C29.6631 254.326 29.3838 254.047 29.3838 253.702C29.3838 253.358 29.6631 253.079 30.0072 253.079H33.817C34.0223 253.079 34.2141 252.998 34.3569 252.85C34.4997 252.702 34.5745 252.508 34.5681 252.303L34.4428 248.447C33.8202 248.469 32.7806 248.517 31.8198 248.567C31.4705 248.585 31.1829 248.32 31.165 247.976C31.1471 247.633 31.4116 247.339 31.755 247.322C34.8932 247.16 35.0686 247.187 35.143 247.199C35.4382 247.246 35.6586 247.495 35.6686 247.794L35.8142 252.262C35.8317 252.808 35.6324 253.324 35.2528 253.717C34.8729 254.109 34.3633 254.325 33.8174 254.325L33.817 254.326Z" fill="#371A45"/>
<path d="M57.2797 248.869C58.7617 248.869 59.9632 247.413 59.9632 245.617C59.9632 243.821 58.7617 242.365 57.2797 242.365C55.7976 242.365 54.5962 243.821 54.5962 245.617C54.5962 247.413 55.7976 248.869 57.2797 248.869Z" fill="#22A7F0"/>
<path d="M57.2797 249.493C55.4564 249.493 53.9728 247.754 53.9728 245.617C53.9728 243.48 55.4564 241.742 57.2797 241.742C59.103 241.742 60.5866 243.481 60.5866 245.617C60.5866 247.754 59.103 249.493 57.2797 249.493V249.493ZM57.2797 242.989C56.1438 242.989 55.2196 244.168 55.2196 245.617C55.2196 247.067 56.1438 248.246 57.2797 248.246C58.4155 248.246 59.3397 247.067 59.3397 245.617C59.3397 244.168 58.4155 242.989 57.2797 242.989V242.989Z" fill="#371A45"/>
<path d="M57.4134 242.718C56.6479 243.493 56.3905 244.745 56.6587 245.814C56.92 246.958 57.9107 247.999 59.1683 247.927C57.0589 248.294 55.6346 245.892 55.886 244C55.9533 243.318 56.188 242.631 56.6224 242.043C57.0796 241.466 57.9127 242.175 57.413 242.718H57.4134Z" fill="#371A45"/>
<path d="M67.7737 296.577H51.14C50.2596 296.577 49.4333 296.232 48.8142 295.606C48.1951 294.979 47.8598 294.149 47.8697 293.269L48.0026 281.668L46.2087 273.282L44.924 281.653V293.307C44.924 295.11 43.4568 296.577 41.6537 296.577H25.3495C24.0458 296.577 22.8578 295.861 22.2487 294.708C21.2783 292.87 21.2521 290.938 22.1751 289.267C23.0973 287.598 24.8757 286.416 26.9055 286.092C26.8422 283.826 26.5522 275.246 25.667 269.377C24.7866 263.537 24.3839 257.411 24.2821 255.683C20.8256 254.853 18.4914 252.393 17.6846 248.71C16.9688 245.442 17.5529 241.532 19.3301 237.7C21.2513 233.557 24.3823 229.854 28.3855 226.991C28.4846 226.921 28.6019 226.88 28.7237 226.876L57.1813 225.77C59.3791 225.684 61.527 226.21 63.3934 227.29C65.0564 228.252 67.3929 229.903 69.4709 232.447L69.7884 231.772C69.2294 230.558 67.2489 225.765 69.2421 222.67C70.3991 220.874 72.078 219.636 73.8484 219.274C74.9409 219.05 75.955 219.185 76.6329 219.644C77.3156 220.106 77.7589 220.954 77.8488 221.972C77.9112 222.676 77.797 223.386 77.5376 224.012L78.3238 223.913C79.2552 222.996 81.2026 221.879 82.9285 223.334C85.1676 225.222 85.2515 228.998 83.1517 232.561C83.1509 233.349 83.0717 236.492 81.9482 239.901C80.2359 245.097 76.9023 248.367 72.3075 249.356C72.1842 249.381 69.7888 249.849 67.6432 249.216C67.6798 250.221 67.5998 251.764 66.9346 252.974C66.902 254.027 66.6927 260.119 66.0951 265.032C65.5194 269.766 65.05 283.274 64.9505 286.284C66.8853 286.507 68.5562 287.506 69.599 289.086C70.7428 290.818 70.9441 292.963 70.152 294.969C69.7724 295.931 68.8168 296.577 67.7745 296.577H67.7737ZM46.1076 269.208C46.4005 269.208 46.6551 269.412 46.7171 269.7L49.2363 281.475C49.2459 281.52 49.2506 281.566 49.2498 281.612L49.1162 293.283C49.1098 293.828 49.3175 294.342 49.7006 294.729C50.0837 295.117 50.595 295.33 51.1396 295.33H67.7733C68.3084 295.33 68.7981 295.001 68.9915 294.511C69.6324 292.888 69.4741 291.161 68.5574 289.772C67.6312 288.369 66.0756 287.536 64.2897 287.485C64.1242 287.481 63.967 287.411 63.8537 287.29C63.7399 287.17 63.6794 287.009 63.6842 286.843C63.7053 286.168 64.2038 270.251 64.8566 264.882C65.5027 259.57 65.6901 252.849 65.6921 252.782C65.6949 252.674 65.7255 252.569 65.7816 252.476C66.7078 250.943 66.3243 248.394 66.3203 248.369C66.2845 248.138 66.3808 247.905 66.5702 247.768C66.7595 247.631 67.0098 247.61 67.2187 247.717C69.1498 248.698 72.0243 248.141 72.0529 248.136C76.2315 247.236 79.1617 244.344 80.7531 239.542C81.9653 235.884 81.9036 232.439 81.9028 232.405C81.9004 232.286 81.9315 232.168 81.9935 232.066C84.0759 228.643 83.6355 225.561 82.1244 224.287C80.7499 223.129 79.1485 224.85 79.0809 224.923C78.981 225.033 78.8438 225.105 78.697 225.123L76.3604 225.415C76.0935 225.447 75.8372 225.307 75.7215 225.066C75.6057 224.825 75.6566 224.536 75.8488 224.349C76.3934 223.82 76.6839 222.951 76.6067 222.082C76.5506 221.448 76.2991 220.923 75.9339 220.676C75.6284 220.47 74.9862 220.314 74.0982 220.495C72.6545 220.791 71.2664 221.829 70.29 223.345C68.4241 226.243 71.0082 231.437 71.0344 231.489C71.1208 231.66 71.1239 231.862 71.042 232.035L70.1659 233.897C70.0724 234.096 69.8815 234.231 69.663 234.252C69.4434 234.272 69.2306 234.179 69.1005 234.002C67.005 231.162 64.5006 229.371 62.7687 228.368C61.1069 227.407 59.1889 226.939 57.2299 227.015L28.9596 228.114C20.7373 234.072 17.673 242.832 18.9024 248.443C19.6324 251.776 21.7963 253.949 24.995 254.562C25.2771 254.616 25.4856 254.856 25.5003 255.143C25.5039 255.215 25.8759 262.402 26.8999 269.19C27.9343 276.051 28.1643 286.526 28.1663 286.631C28.1734 286.962 27.92 287.24 27.5902 287.265C25.7334 287.406 24.0764 288.403 23.2664 289.869C22.5534 291.16 22.5837 292.671 23.3511 294.125C23.7438 294.868 24.5097 295.33 25.3495 295.33H41.6537C42.7697 295.33 43.6772 294.422 43.6772 293.306V281.605C43.6772 281.573 43.6796 281.542 43.6847 281.511L45.4918 269.736C45.5375 269.439 45.789 269.217 46.0897 269.208C46.0961 269.208 46.1021 269.208 46.108 269.208L46.1076 269.208Z" fill="#371A45"/>
<path d="M64.2619 287.484C62.8113 287.288 61.3078 287.564 59.9631 288.144C59.4937 288.339 59.0513 288.596 58.6124 288.87C58.9856 288.516 59.3763 288.167 59.8103 287.872C61.1372 286.947 62.7258 286.335 64.3538 286.24L64.2619 287.484Z" fill="#371A45"/>
<path d="M56.6359 284.113C53.8478 284.113 50.9498 283.526 48.8042 282.454C48.4963 282.3 48.3718 281.925 48.5253 281.617C48.6793 281.309 49.0537 281.185 49.3616 281.338C53.8848 283.6 61.3683 283.272 63.6607 280.713C63.8902 280.457 64.2841 280.435 64.5407 280.665C64.7973 280.894 64.8188 281.289 64.5893 281.545C63.0086 283.31 59.8974 284.112 56.6355 284.112L56.6359 284.113Z" fill="#371A45"/>
<path d="M37.1991 282.787C33.8576 282.787 30.1962 282.267 27.1133 281.249C26.7862 281.141 26.6088 280.788 26.7166 280.461C26.8248 280.134 27.1777 279.957 27.5039 280.065C32.8896 281.843 40.0696 282.057 43.8507 280.551C44.1702 280.424 44.533 280.58 44.6604 280.9C44.7877 281.22 44.6317 281.582 44.3118 281.709C42.4957 282.433 39.9558 282.787 37.1987 282.787L37.1991 282.787Z" fill="#371A45"/>
<path d="M27.5417 286.02C29.6706 286.277 31.7597 286.834 33.64 287.863C31.6841 287.248 29.5716 287.107 27.5441 287.266L27.5417 286.02V286.02Z" fill="#371A45"/>
<path d="M36.7065 266.708C41.8985 269.583 47.7894 269.275 53.3358 267.727C55.1926 267.237 57.0294 266.634 58.9029 266.051C57.2494 267.104 55.4794 267.973 53.6306 268.662C48.1896 270.768 41.1959 270.918 36.7065 266.708V266.708Z" fill="#371A45"/>
<path d="M25.3241 255.766C25.0591 255.766 24.7874 255.753 24.5077 255.726C24.1651 255.692 23.9145 255.388 23.9475 255.045C23.9809 254.703 24.2857 254.452 24.6282 254.485C28.7611 254.886 30.9799 251.56 31.0722 251.418C31.26 251.13 31.6455 251.048 31.9339 251.235C32.2223 251.422 32.3055 251.806 32.1193 252.095C32.0175 252.253 29.7 255.766 25.3241 255.766V255.766Z" fill="#371A45"/>
<path d="M40.9352 257.837C40.9285 257.837 40.9221 257.837 40.9154 257.837L40.1817 257.814C38.6146 257.766 37.3693 256.499 37.3474 254.931L37.205 244.804C37.2002 244.46 37.4752 244.177 37.8193 244.172H37.828C38.1682 244.172 38.4463 244.445 38.4511 244.787L38.5935 254.914C38.6062 255.814 39.3208 256.541 40.2203 256.568L40.9539 256.591C41.2981 256.602 41.5682 256.889 41.5575 257.234C41.5471 257.571 41.2702 257.838 40.9348 257.838L40.9352 257.837Z" fill="#371A45"/>
<path d="M66.9358 248.895C66.6438 248.895 66.3832 248.689 66.3247 248.392C66.232 247.924 65.7928 246.556 65.0162 246.4C63.1045 246.018 62.1 246.369 62.09 246.373C61.7686 246.489 61.4105 246.326 61.2908 246.006C61.171 245.687 61.3278 245.331 61.6464 245.207C61.7777 245.157 62.9947 244.725 65.2605 245.178C66.9899 245.523 67.4964 247.885 67.5481 248.153C67.6138 248.491 67.3929 248.818 67.0552 248.884C67.015 248.892 66.9748 248.895 66.9354 248.895H66.9358Z" fill="#371A45"/>
<path d="M66.316 253.421H62.0495C61.7053 253.421 61.426 253.142 61.426 252.797C61.426 252.453 61.7053 252.174 62.0495 252.174H66.316C66.6601 252.174 66.9394 252.453 66.9394 252.797C66.9394 253.142 66.6601 253.421 66.316 253.421Z" fill="#371A45"/>
<path d="M62.0494 232.828C63.6965 235.735 64.6772 238.985 65.4121 242.232C65.6567 243.325 65.8437 244.428 66.0235 245.533C66.0808 245.874 65.8517 246.195 65.5115 246.253C65.1714 246.31 64.8495 246.081 64.7918 245.741C64.6486 243.527 64.4111 241.316 63.973 239.139C63.5278 236.986 62.9713 234.835 62.0494 232.828V232.828Z" fill="#371A45"/>
<path d="M70.1839 233.853L67.2653 239.728L69.0198 233.407C69.3003 232.546 70.5507 233.024 70.1839 233.853V233.853Z" fill="#371A45"/>
<path d="M69.0325 236.346C70.0868 238.279 71.6937 239.929 73.6399 240.959C75.5003 241.952 77.8345 242.414 79.7974 241.565L80.2896 242.71C75.4808 244.562 70.2781 241.052 68.09 236.849L69.0325 236.346Z" fill="#371A45"/>
<path d="M76.6362 225.31L74.1472 226.266L75.9296 224.283C76.6946 223.55 77.5938 224.858 76.6362 225.31Z" fill="#371A45"/>
<path d="M79.116 224.88C78.1953 225.978 78.0306 227.574 78.4866 228.915C78.6131 229.294 78.8104 229.712 78.9998 230.063C79.1458 230.305 79.3049 230.54 79.4597 230.782C79.1764 230.486 78.8486 230.148 78.6083 229.807C77.4712 228.356 77.1279 226.308 77.883 224.594C77.9737 224.366 78.1098 224.136 78.2546 223.93C78.4575 223.627 78.8681 223.546 79.1713 223.748C79.5842 224.009 79.5476 224.661 79.1167 224.88H79.116Z" fill="#371A45"/>
<path d="M18.8137 197.758L15.9369 199.276C14.2516 200.165 13.2852 201.998 13.5033 203.891L14.5102 212.641C14.7581 214.794 16.4684 216.485 18.6236 216.709L22.5499 217.116" fill="white"/>
<path d="M67.2991 189.982L70.4325 190.856C72.2678 191.367 73.601 192.953 73.7896 194.849L74.6617 203.614C74.8761 205.77 73.5636 207.786 71.5047 208.462L67.7542 209.693" fill="white"/>
<g opacity="0.25">
<path d="M23.0962 217.116L19.169 216.709C17.0159 216.485 15.3039 214.793 15.0564 212.641L14.4847 207.674C14.7326 209.826 16.4441 211.518 18.5973 211.742L22.1306 212.109L23.0958 217.116H23.0962Z" fill="#371A45"/>
</g>
<g opacity="0.25">
<path d="M74.1659 198.639L74.6609 203.614C74.8753 205.77 73.564 207.786 71.5047 208.462L67.7534 209.692L67.6368 204.592L71.0098 203.487C73.0687 202.811 74.3804 200.795 74.1659 198.639Z" fill="#371A45"/>
</g>
<path d="M44.2537 229.552C58.976 229.552 70.9107 217.618 70.9107 202.895C70.9107 188.173 58.976 176.238 44.2537 176.238C29.5314 176.238 17.5967 188.173 17.5967 202.895C17.5967 217.618 29.5314 229.552 44.2537 229.552Z" fill="white"/>
<g opacity="0.25">
<path d="M47.3013 229.377C41.2345 230.075 35.4112 228.678 30.5503 225.761C33.3826 226.396 36.366 226.573 39.4104 226.222C54.0349 224.54 64.5277 211.319 62.8452 196.693C61.8586 188.133 56.9217 180.988 50.0628 176.873C60.8345 179.275 69.4037 188.264 70.7361 199.848C72.4186 214.474 61.9274 227.695 47.3013 229.378V229.377Z" fill="#371A45"/>
</g>
<path d="M70.836 200.717C72.1756 212.357 61.4062 223.159 46.7793 224.842C33.4439 226.377 21.5072 219.802 18.4927 209.804C18.1991 208.838 17.9903 207.839 17.8721 206.811C16.5325 195.171 27.3023 184.372 41.9292 182.689C52.9197 181.424 62.959 185.668 67.8398 192.793V192.796C69.4555 195.153 70.5038 197.826 70.8364 200.717H70.836Z" fill="#371A45"/>
<g opacity="0.7">
<path d="M70.836 200.716C72.1755 212.357 61.4062 223.159 46.7793 224.842C33.4438 226.376 21.5072 219.801 18.4927 209.803C18.6586 209.531 18.7561 209.382 18.7561 209.382C33.4112 228.133 69.6898 215.283 67.8398 192.795C69.455 195.153 70.5034 197.826 70.836 200.716Z" fill="#111A28"/>
</g>
<path d="M44.2338 230.177C30.5737 230.177 18.7509 219.904 17.1527 206.014C16.3196 198.774 18.3554 191.645 22.8853 185.937C27.4148 180.229 33.8965 176.627 41.1354 175.794C48.3738 174.961 55.5045 176.997 61.2124 181.527C66.9203 186.056 70.5224 192.538 71.3555 199.777C73.075 214.721 62.3164 228.277 47.3728 229.996C46.3193 230.118 45.2702 230.177 44.2342 230.177H44.2338ZM44.305 176.858C43.3009 176.858 42.2907 176.915 41.2778 177.032C34.3696 177.827 28.1842 181.264 23.8616 186.711C19.539 192.158 17.5959 198.963 18.3912 205.871C20.0319 220.131 32.9684 230.398 47.23 228.758C61.4909 227.117 71.7577 214.18 70.1166 199.919C69.3217 193.011 65.8843 186.825 60.4374 182.503C55.7889 178.814 50.1514 176.858 44.305 176.858Z" fill="#371A45"/>
<path d="M17.7217 206.032C17.4615 206.032 17.2367 205.837 17.2065 205.572C15.7539 192.949 26.6836 181.286 41.5703 179.573C48.7658 178.746 55.8073 180.337 61.397 184.056C67.0146 187.793 70.497 193.227 71.2024 199.359C71.2354 199.643 71.0309 199.901 70.7461 199.934C70.4612 199.967 70.2034 199.762 70.1708 199.477C69.5008 193.655 66.1808 188.485 60.8217 184.921C55.4357 181.338 48.6408 179.805 41.6892 180.605C27.3715 182.253 16.8516 193.4 18.2385 205.453C18.2715 205.738 18.067 205.996 17.7821 206.028C17.7619 206.031 17.742 206.032 17.7221 206.032H17.7217Z" fill="#371A45"/>
<path d="M23.0974 217.925C23.0695 217.925 23.0413 217.923 23.013 217.921L18.1008 217.411C16.1012 217.204 14.4366 215.751 13.9588 213.796C13.0028 209.883 12.593 206.37 12.7064 203.053C12.7645 201.358 13.738 199.811 15.247 199.015L18.9828 197.043C19.3787 196.834 19.8669 196.986 20.0753 197.381C20.2838 197.776 20.1326 198.265 19.7376 198.473L16.0018 200.445C15.0044 200.971 14.3606 201.992 14.3224 203.108C14.2142 206.274 14.6093 209.645 15.5299 213.411C15.8454 214.704 16.9459 215.665 18.2675 215.802L23.1797 216.312C23.6237 216.358 23.9468 216.755 23.9006 217.199C23.8577 217.615 23.5064 217.925 23.0974 217.925V217.925Z" fill="#371A45"/>
<path d="M67.7546 210.501C67.4148 210.501 67.0981 210.285 66.9864 209.945C66.8471 209.521 67.0783 209.064 67.5024 208.924L71.2529 207.693C72.9648 207.132 74.0358 205.487 73.8572 203.694L72.9851 194.929C72.8284 193.353 71.741 192.06 70.2153 191.635L67.0818 190.761C66.6518 190.642 66.4003 190.196 66.5201 189.766C66.6398 189.335 67.0858 189.084 67.5163 189.204L70.6497 190.077C72.8228 190.683 74.3712 192.525 74.5944 194.769L75.4665 203.534C75.7207 206.088 74.1954 208.43 71.7569 209.23L68.0064 210.461C67.9229 210.489 67.8377 210.502 67.7542 210.502L67.7546 210.501Z" fill="#371A45"/>
<g opacity="0.5">
<path d="M30.3371 215.966C26.6192 206.822 28.499 198.459 35.3118 190.783C35.7741 190.262 35.1486 189.497 34.5463 189.846C20.84 197.789 19.991 210.69 29.3838 216.739C29.9122 217.08 30.5738 216.549 30.3371 215.966Z" fill="white"/>
</g>
<g opacity="0.5">
<path d="M59.3632 200.379C59.5923 201.741 59.7722 203.758 59.4634 206.071C59.3047 207.26 60.1068 208.365 61.2852 208.588C62.3387 208.788 63.3914 208.222 63.7996 207.23C64.8292 204.729 65.2708 201.86 64.4274 199.15C63.9512 197.619 62.1927 196.901 60.762 197.625C59.7443 198.14 59.1742 199.254 59.3632 200.379V200.379Z" fill="white"/>
</g>
<g opacity="0.5">
<path d="M54.7001 190.13C54.276 190.868 54.379 191.795 54.9551 192.42L56.4709 194.068C57.1206 194.774 58.188 194.901 58.9857 194.368L59.1146 194.282C60.1009 193.624 60.2803 192.239 59.4822 191.362C59.0012 190.833 58.387 190.226 57.6306 189.601C56.7009 188.833 55.3016 189.085 54.7001 190.13Z" fill="white"/>
</g>
<path d="M74.1472 225.531C82.5581 225.531 89.3764 218.712 89.3764 210.301C89.3764 201.891 82.5581 195.072 74.1472 195.072C65.7363 195.072 58.918 201.891 58.918 210.301C58.918 218.712 65.7363 225.531 74.1472 225.531Z" fill="#FFD243"/>
<g opacity="0.6">
<path d="M60.1887 211.405C60.1887 215.688 61.9587 219.559 64.8041 222.327C61.2227 219.543 58.918 215.19 58.918 210.301C58.918 201.889 65.7351 195.072 74.1468 195.072C78.2693 195.072 82.0087 196.711 84.7514 199.37C82.173 197.366 78.9353 196.174 75.4175 196.174C67.0078 196.174 60.1887 202.993 60.1887 211.406V211.405Z" fill="white"/>
</g>
<path d="M74.1472 226.154C65.4061 226.154 58.2949 219.042 58.2949 210.301C58.2949 201.561 65.4065 194.449 74.1472 194.449C82.8879 194.449 89.9998 201.561 89.9998 210.301C89.9998 219.042 82.8883 226.154 74.1472 226.154ZM74.1472 195.696C66.0935 195.696 59.5418 202.248 59.5418 210.301C59.5418 218.355 66.0939 224.907 74.1472 224.907C82.2004 224.907 88.753 218.355 88.753 210.301C88.753 202.248 82.2008 195.696 74.1472 195.696V195.696Z" fill="#371A45"/>
<path d="M74.1473 222.367C80.8113 222.367 86.2136 216.965 86.2136 210.301C86.2136 203.637 80.8113 198.234 74.1473 198.234C67.4832 198.234 62.0809 203.637 62.0809 210.301C62.0809 216.965 67.4832 222.367 74.1473 222.367Z" fill="#FFD243"/>
<g opacity="0.6">
<path d="M87.2817 211.014C87.2817 217.677 81.8797 223.079 75.2138 223.079C72.5064 223.079 70.0068 222.188 67.9937 220.683C69.7943 221.754 71.8993 222.367 74.1472 222.367C80.8107 222.367 86.2127 216.965 86.2127 210.302C86.2127 206.348 84.3114 202.836 81.3717 200.637C84.9094 202.737 87.2817 206.599 87.2817 211.013V211.014Z" fill="white"/>
</g>
<path d="M74.1472 223.025C67.1315 223.025 61.4236 217.317 61.4236 210.302C61.4236 203.286 67.1315 197.578 74.1472 197.578C81.1628 197.578 86.8707 203.286 86.8707 210.302C86.8707 217.317 81.1628 223.025 74.1472 223.025ZM74.1472 198.893C67.8564 198.893 62.7381 204.011 62.7381 210.302C62.7381 216.592 67.8564 221.711 74.1472 221.711C80.4379 221.711 85.5567 216.593 85.5567 210.302C85.5567 204.011 80.4383 198.893 74.1472 198.893V198.893Z" fill="#371A45"/>
<g opacity="0.25">
<path d="M64.2173 211.906C64.2173 215.376 65.683 218.504 68.0267 220.703C64.4692 218.604 62.0817 214.731 62.0817 210.302C62.0817 203.638 67.4836 198.236 74.1472 198.236C77.3411 198.236 80.2458 199.476 82.4033 201.505C80.6095 200.447 78.5172 199.84 76.2829 199.84C69.6193 199.84 64.2173 205.242 64.2173 211.905V211.906Z" fill="#371A45"/>
</g>
<path d="M86.2136 221.656C86.2136 223.007 84.9878 224.102 83.4752 224.102C81.9626 224.102 80.7368 223.007 80.7368 221.656C80.7368 220.305 81.9626 219.791 83.4752 219.791C84.9878 219.791 86.2136 220.305 86.2136 221.656Z" fill="white"/>
<path d="M83.4756 224.47C81.5277 224.47 80.1138 223.287 80.1138 221.656C80.1138 220.025 81.3706 219.168 83.4756 219.168C85.5806 219.168 86.8374 220.098 86.8374 221.656C86.8374 223.214 85.4234 224.47 83.4756 224.47ZM83.4756 220.414C82.5108 220.414 81.3606 220.63 81.3606 221.656C81.3606 222.733 82.4567 223.223 83.4756 223.223C84.4945 223.223 85.5905 222.733 85.5905 221.656C85.5905 220.58 84.4404 220.414 83.4756 220.414Z" fill="#371A45"/>
<path d="M82.5262 232.389L79.3892 232.691L69.6017 233.631L70.4778 231.769C70.4778 231.769 67.6849 226.237 69.7661 223.007C71.8472 219.776 75.0411 219.32 76.2832 220.159C77.5253 220.998 77.5977 223.517 76.2832 224.796L78.6206 224.502C78.6206 224.502 80.0731 222.895 81.6458 223.33L81.6482 223.333C81.9394 223.412 82.2354 223.565 82.5266 223.81C82.7041 223.959 82.8684 224.128 83.0172 224.31C84.4212 226.042 84.4741 229.186 82.5266 232.388L82.5262 232.389Z" fill="white"/>
<path d="M72.1751 249.37C71.8878 249.37 71.6292 249.17 71.5664 248.878C71.4939 248.541 71.708 248.21 72.0446 248.138C76.2323 247.236 79.1625 244.344 80.7535 239.542C81.9657 235.884 81.904 232.439 81.9032 232.405C81.9009 232.286 81.9319 232.168 81.994 232.066C84.0763 228.643 83.6359 225.561 82.1249 224.287C80.7503 223.129 79.1489 224.85 79.0813 224.923C78.9815 225.033 78.8442 225.105 78.6974 225.123L76.3608 225.415C76.0939 225.447 75.8377 225.307 75.7219 225.066C75.6061 224.825 75.657 224.536 75.8492 224.349C76.3938 223.82 76.6843 222.951 76.6071 222.082C76.551 221.448 76.2996 220.923 75.9343 220.676C75.6288 220.47 74.9867 220.314 74.0987 220.495C72.6549 220.791 71.2668 221.829 70.2905 223.345C68.4289 226.236 71.009 231.437 71.0352 231.49C71.1212 231.661 71.1244 231.862 71.0428 232.035L70.1667 233.897C70.0732 234.096 69.8823 234.231 69.6639 234.252C69.4442 234.272 69.2314 234.179 69.1013 234.002C65.1093 228.592 59.6222 226.907 59.5673 226.891C59.2374 226.793 59.0497 226.445 59.1479 226.115C59.2462 225.786 59.5927 225.597 59.9233 225.696C60.1521 225.765 65.3213 227.352 69.4717 232.446L69.7888 231.772C69.2298 230.558 67.2493 225.765 69.2425 222.67C70.3995 220.874 72.0784 219.636 73.8488 219.274C74.9405 219.05 75.955 219.185 76.633 219.644C77.3157 220.106 77.7589 220.954 77.8488 221.972C77.9112 222.676 77.7971 223.386 77.5377 224.012L78.3238 223.913C79.2552 222.996 81.2026 221.879 82.9285 223.334C85.1676 225.222 85.2515 228.998 83.1517 232.561C83.1509 233.349 83.0717 236.492 81.9482 239.901C80.2359 245.097 76.9023 248.367 72.3075 249.356C72.2634 249.366 72.2192 249.37 72.1755 249.37L72.1751 249.37Z" fill="#371A45"/>
<path d="M70.1839 233.853L67.2653 239.728L69.0198 233.407C69.3003 232.546 70.5507 233.024 70.1839 233.853V233.853Z" fill="#371A45"/>
<path d="M76.6362 225.31L74.1472 226.266L75.9296 224.283C76.6946 223.55 77.5938 224.858 76.6362 225.31Z" fill="#371A45"/>
<path d="M79.116 224.88C78.1953 225.978 78.0306 227.574 78.4866 228.915C78.6131 229.294 78.8104 229.712 78.9998 230.063C79.1458 230.305 79.3049 230.54 79.4597 230.782C79.1764 230.486 78.8486 230.148 78.6083 229.807C77.4712 228.356 77.1279 226.308 77.883 224.594C77.9737 224.366 78.1098 224.136 78.2546 223.93C78.4575 223.627 78.8681 223.546 79.1713 223.748C79.5842 224.009 79.5476 224.661 79.1167 224.88H79.116Z" fill="#371A45"/>
<path d="M1.42023 249.806C1.40869 249.806 1.39715 249.806 1.38562 249.806C1.10712 249.79 0.87279 249.592 0.811919 249.32C-1.44587 239.267 0.994134 229.653 8.27038 219.926C8.47646 219.65 8.86715 219.594 9.14286 219.8C9.41857 220.006 9.47466 220.397 9.26858 220.672C2.77013 229.359 0.250954 237.931 1.60443 246.802C5.26304 236.824 9.93298 228.432 14.287 224.08C14.5301 223.837 14.9252 223.836 15.1683 224.08C15.4118 224.323 15.4118 224.718 15.1683 224.961C10.6288 229.499 5.70943 238.63 2.00944 249.386C1.92271 249.639 1.6852 249.806 1.42023 249.806V249.806Z" fill="#371A45"/>
<path d="M1.4202 249.183C2.26204 239.657 5.21288 229.977 11.5232 222.592C12.067 221.98 12.9916 222.753 12.4748 223.398C5.94214 230.409 2.67143 239.792 1.4198 249.183H1.4202Z" fill="#371A45"/>
<g opacity="0.25">
<path d="M14.3399 224.918C9.17903 230.329 4.47368 240.307 1.4198 249.183C2.65074 238.25 6.18443 229.553 11.9894 223.006L14.3399 224.918V224.918Z" fill="#371A45"/>
</g>
<path d="M9.49685 217.741C9.34567 217.741 9.19409 217.686 9.07434 217.575L7.49448 216.117C6.72624 215.407 6.64309 214.217 7.30471 213.408L8.50303 211.942C9.16823 211.128 10.3546 210.976 11.2044 211.596L12.9048 212.837C13.1829 213.04 13.2438 213.43 13.0405 213.708C12.8376 213.986 12.4477 214.047 12.1696 213.844L10.4692 212.603C10.1545 212.373 9.71487 212.43 9.46821 212.731L8.26989 214.197C8.02442 214.497 8.05545 214.938 8.34031 215.2L9.92016 216.659C10.1732 216.892 10.1887 217.287 9.95517 217.54C9.83224 217.673 9.66475 217.74 9.49725 217.74L9.49685 217.741Z" fill="#371A45"/>
<path d="M24.1763 267.159C22.4695 267.159 21.1447 266.719 20.2229 265.845C18.8813 264.573 18.902 262.834 18.9219 262.478L18.4103 256.176C18.3824 255.833 18.6378 255.532 18.9812 255.504C19.3237 255.475 19.6253 255.732 19.6528 256.075L20.168 262.424C20.1708 262.46 20.1708 262.496 20.1676 262.532C20.1668 262.543 20.059 263.982 21.091 264.951C22.0239 265.827 23.6074 266.107 25.7955 265.783C26.1361 265.732 26.4532 265.968 26.5033 266.309C26.5534 266.649 26.3183 266.966 25.9778 267.017C25.3368 267.111 24.7357 267.159 24.1763 267.159Z" fill="#371A45"/>
<path d="M63.7967 184.232C58.386 181.069 52.2635 179.744 46.0595 179.93C36.64 180.208 27.032 183.963 19.4375 190.037C17.9129 190.123 16.7035 187.483 19.4419 185.803C19.7705 159.954 52.6972 160.027 58.9183 174.484C62.787 175.323 65.7068 177.895 65.8648 180.5C65.9479 181.808 65.3348 183.122 63.7967 184.232V184.232Z" fill="#FFD243"/>
<g opacity="0.6">
<path d="M65.7443 179.749C64.5197 178.237 62.4342 176.993 59.9588 176.456C53.7377 161.998 20.811 161.926 20.4823 187.775C19.4245 188.423 18.9554 189.216 18.8679 189.941C17.6652 189.455 17.0585 187.266 19.442 185.803C19.7706 159.954 52.6973 160.027 58.9184 174.484C62.4147 175.242 65.1352 177.415 65.7443 179.748V179.749Z" fill="white"/>
</g>
<path d="M63.7968 184.232C58.3861 181.069 52.2636 179.744 46.0596 179.93C50.2151 175.415 62.0793 174.594 65.8645 180.5C65.9476 181.808 65.3345 183.122 63.7964 184.232H63.7968Z" fill="#FF9D33"/>
<path d="M53.1217 168.025C53.1217 168.025 56.6224 170.98 48.7362 172.623C40.8501 174.266 37.1811 176.465 35.4286 178.405L43.4241 176.873C43.4241 176.873 51.8486 172.25 58.9179 174.244" fill="#FF9D33"/>
<path d="M19.3652 190.767C18.4056 190.767 17.5291 190.078 17.2084 189.053C16.8834 188.015 17.1301 186.546 18.7219 185.409C19.0043 174.382 25.3651 166.579 35.7995 164.499C40.5526 163.551 45.5881 163.963 49.9784 165.659C54.4283 167.378 57.771 170.28 59.4345 173.858C63.0716 174.758 65.9536 177.164 66.5042 179.8C66.8993 181.691 66.0893 183.474 64.2229 184.822C63.9894 184.991 63.6783 185.006 63.43 184.861C51.0617 177.631 33.1586 179.992 19.8919 190.605C19.7742 190.7 19.6297 190.755 19.479 190.764C19.4412 190.766 19.4034 190.767 19.3652 190.767V190.767ZM40.9274 165.448C39.3284 165.448 37.7028 165.602 36.0839 165.925C26.2515 167.885 20.3021 175.32 20.1688 185.813C20.1657 186.063 20.0348 186.294 19.8219 186.424C18.8173 187.04 18.3594 187.861 18.5965 188.619C18.7036 188.96 18.9447 189.216 19.2092 189.29C25.5899 184.25 33.3607 180.83 41.1227 179.651C49.3936 178.394 57.2001 179.676 63.736 183.359C64.8655 182.41 65.3298 181.29 65.0803 180.097C64.6323 177.953 61.9759 175.891 58.7641 175.195C58.5345 175.146 58.3428 174.988 58.2501 174.772C55.8057 169.09 48.6918 165.448 40.9274 165.448V165.448Z" fill="#371A45"/>
<path d="M39.1835 181.462C38.9806 181.462 38.7793 181.378 38.6353 181.214C38.3711 180.911 38.4021 180.452 38.7049 180.188C43.3967 176.09 47.4488 172.551 58.9944 173.763C59.3938 173.804 59.6834 174.163 59.6417 174.562C59.5999 174.961 59.241 175.251 58.8424 175.209C47.9266 174.064 44.2799 177.25 39.6617 181.283C39.5241 181.403 39.3534 181.462 39.1839 181.462H39.1835Z" fill="#371A45"/>
<path d="M65.8664 181.125C65.6611 181.125 65.4602 181.024 65.3408 180.838C63.9499 178.667 61.2378 177.302 57.7033 176.993C53.2928 176.607 48.6924 177.988 46.5166 180.352C46.2839 180.605 45.8888 180.622 45.6362 180.388C45.3828 180.155 45.3664 179.761 45.6 179.507C48.0201 176.879 53.0405 175.335 57.8119 175.751C61.7399 176.094 64.7866 177.662 66.3903 180.165C66.5761 180.455 66.4914 180.841 66.2017 181.026C66.0975 181.093 65.9809 181.125 65.866 181.125L65.8664 181.125Z" fill="#371A45"/>
<path d="M19.442 186.428C19.2542 186.428 19.0688 186.343 18.9463 186.183C18.7374 185.909 18.7895 185.518 19.0632 185.309C19.4324 185.027 28.2841 178.379 43.7787 176.452C44.1201 176.409 44.432 176.652 44.4742 176.994C44.5167 177.335 44.2745 177.647 43.9327 177.689C28.7703 179.575 19.9079 186.232 19.8203 186.3C19.7073 186.386 19.5745 186.428 19.4424 186.428H19.442Z" fill="#371A45"/>
<path d="M46.3905 176.353C46.1335 176.353 45.8928 176.193 45.8025 175.936C44.2573 171.543 41.0268 168.934 36.1993 168.182C32.5231 167.61 29.254 168.379 29.2214 168.387C28.8876 168.468 28.5502 168.262 28.4695 167.927C28.3887 167.592 28.594 167.255 28.9286 167.175C29.0698 167.14 32.4384 166.344 36.352 166.944C41.614 167.752 45.2885 170.718 46.9782 175.523C47.0923 175.847 46.9217 176.203 46.597 176.318C46.5286 176.342 46.459 176.353 46.3901 176.353H46.3905Z" fill="#371A45"/>
<g opacity="0.25">
<path d="M17.3651 217.595L15.3715 221.071C15.3715 221.071 16.3243 222.037 16.9135 222.808L16.1381 223.943C15.7176 224.559 14.8762 224.705 14.2718 224.269L12.8591 223.251C12.8591 223.248 12.8571 223.248 12.8547 223.247C12.3574 222.714 11.9894 222.311 11.9894 222.311L16.0399 215.693L17.3651 216.762V217.595V217.595Z" fill="#371A45"/>
</g>
<g opacity="0.25">
<path d="M22.4592 256.705C22.4592 256.705 22.1314 262.547 22.9748 263.697C23.8182 264.847 25.8508 266.119 25.8103 265.782C25.7697 265.445 24.5674 257.214 24.5674 257.214" fill="#371A45"/>
</g>
<g opacity="0.25">
<path d="M26.6927 247.81C26.6927 247.81 19.547 252.11 18.3972 246.102C18.3972 246.102 18.9944 257.377 26.0824 255.142C26.2981 255.074 28.8753 254.733 31.0205 251.922" fill="#371A45"/>
</g>
<g opacity="0.25">
<path d="M28.1636 234.742C28.1636 234.742 24.2846 237.584 24.7087 241.44L28.2547 238.091" fill="#371A45"/>
</g>
<g opacity="0.25">
<path d="M39.3816 231.652C39.3816 231.652 56.0172 237.098 62.7548 227.642L57.6938 226.383C49.9306 230.124 41.9008 230.672 33.5448 227.31L31.5953 227.642L35.3192 231.075L37.6741 231.33" fill="#371A45"/>
</g>
<g opacity="0.25">
<path d="M76.7758 221.473C76.7758 221.473 70.9525 223.846 72.6684 227.278C74.3843 230.709 76.7408 230.165 77.9538 227.863C79.1669 225.562 77.9538 224.586 77.9538 224.586L76.9035 224.503" fill="#371A45"/>
</g>
<g opacity="0.25">
<path d="M82.5263 232.389C82.5263 232.389 82.8549 246.445 72.1759 248.746C72.1759 248.746 69.6917 249.245 67.6237 248.557C67.6106 248.553 67.5994 248.548 67.5887 248.544C67.5187 248.518 67.4725 248.502 67.455 248.496C67.4482 248.494 67.4462 248.492 67.4462 248.492L65.8055 245.164L64.8372 240.312C73.1613 248.855 76.7758 234.507 76.7758 234.507C77.9172 233.955 78.767 233.339 79.3892 232.691C82.7519 229.194 79.4593 224.796 79.4593 224.796L81.6454 223.33L81.6478 223.332C81.696 223.365 82.2808 223.782 83.0168 224.31C84.4208 226.042 84.4738 229.186 82.5263 232.388V232.389Z" fill="#371A45"/>
</g>
<g opacity="0.25">
<path d="M69.5712 294.74C69.282 295.476 68.5635 295.953 67.7749 295.953H51.1397C49.6653 295.953 48.4761 294.751 48.4936 293.277L48.5442 288.871C52.6054 295.316 68.8356 293.005 60.9495 287.253C60.9495 287.253 59.9636 274.869 60.3471 269.064C60.7306 263.259 59.4162 260.631 59.4162 260.631C59.4162 260.631 42.3843 260.576 37.4557 260.302C32.5268 260.028 34.115 255.437 34.115 255.437L37.8301 255.143C50.4873 257.014 61.8717 249.787 61.8717 249.787C63.3855 250.074 65.0525 249.853 66.9363 248.922L67.0063 248.99C67.0632 249.932 67.0393 251.603 66.3164 252.799C66.3164 252.799 66.1346 259.553 65.4774 264.957C64.8201 270.361 64.3077 286.863 64.3077 286.863C68.4895 286.979 71.0743 290.935 69.5716 294.74L69.5712 294.74Z" fill="#371A45"/>
</g>
<path d="M58.0663 254.915C57.5097 255.471 56.7805 255.751 56.0464 255.751C55.4417 255.751 54.835 255.558 54.3269 255.173C54.3269 255.173 54.3269 255.17 54.3245 255.17C54.274 255.133 54.2239 255.092 54.1757 255.05L43.8779 246.103V246.101L40.9863 243.591L18.0838 223.693L16.0902 221.963C15.1966 221.187 15.1286 219.825 15.939 218.964L16.6093 218.25C17.3672 217.446 18.6205 217.374 19.4659 218.085L21.5578 219.844L43.8643 238.609L45.3212 239.835L47.1418 241.41L57.9151 250.734C58.0026 250.81 58.0858 250.891 58.1626 250.977C59.1747 252.088 59.1548 253.825 58.0663 254.913V254.915Z" fill="#E86B34"/>
<g opacity="0.25">
<path d="M21.5582 219.847C20.4124 220.305 18.6185 221.376 18.0838 223.695L16.0902 221.965C15.1966 221.189 15.1286 219.827 15.939 218.966L16.6093 218.252C17.3672 217.448 18.6205 217.376 19.4659 218.087L21.5578 219.846L21.5582 219.847Z" fill="#371A45"/>
</g>
<path d="M56.046 256.37C55.2336 256.37 54.4196 256.089 53.7663 255.521L15.6807 222.434C15.1197 221.947 14.7903 221.27 14.7529 220.528C14.7155 219.786 14.9753 219.079 15.4846 218.538L16.1557 217.825C17.1388 216.781 18.7688 216.686 19.8669 217.609L45.723 239.361C45.725 239.363 45.7274 239.365 45.7298 239.367L58.3245 250.265C59.0529 250.895 59.4902 251.808 59.5248 252.77C59.5594 253.732 59.1886 254.675 58.5079 255.355C57.8339 256.029 56.9411 256.37 56.046 256.37V256.37ZM18.1259 218.221C17.7368 218.221 17.3493 218.376 17.0636 218.679L16.3925 219.392C16.1183 219.684 15.9779 220.065 15.9982 220.465C16.0185 220.865 16.1959 221.23 16.4983 221.493L54.5839 254.58C55.4647 255.345 56.8015 255.298 57.6262 254.473C58.0694 254.03 58.3014 253.441 58.2787 252.814C58.256 252.188 57.9827 251.617 57.5085 251.207L44.9174 240.312L19.0644 218.563C18.7919 218.334 18.4585 218.221 18.1263 218.221H18.1259Z" fill="#371A45"/>
<path d="M54.3285 255.798C54.1379 255.798 53.9501 255.711 53.828 255.547C52.5051 253.77 52.9754 251.909 54.0285 250.853C55.2817 249.597 57.1369 249.445 58.5389 250.484C58.8158 250.689 58.8739 251.079 58.669 251.355C58.4641 251.632 58.0738 251.691 57.7973 251.486C56.7545 250.713 55.5701 251.073 54.9113 251.734C54.2561 252.391 53.8896 253.542 54.8282 254.802C55.0338 255.078 54.9766 255.469 54.7005 255.674C54.5887 255.758 54.4582 255.798 54.3289 255.798H54.3285Z" fill="#371A45"/>
<g opacity="0.25">
<path d="M58.0663 254.914C57.5097 255.471 56.7805 255.751 56.0464 255.751C55.4417 255.751 54.835 255.558 54.3269 255.172C54.3269 255.172 54.3269 255.17 54.3246 255.17C52.136 252.223 55.6585 249.135 58.1626 250.977C59.1747 252.088 59.1548 253.825 58.0663 254.913V254.914Z" fill="#371A45"/>
</g>
<path d="M45.3215 239.836L43.8252 238.412C43.8252 238.412 40.2852 239.654 41.3805 243.197C41.3805 243.197 40.3576 244.765 36.2677 244.949C36.2677 244.949 34.7169 249.129 31.5954 251.757C29.3873 251.122 27.5493 249.604 26.2352 247.795C24.9382 246.014 24.1453 243.95 24.0009 242.174L28.1631 238.559C28.1631 238.559 27.4335 234.616 28.6386 232.936L31.0853 234.982C31.0853 234.982 33.9614 228.827 40.2856 232.06C40.5112 232.176 40.728 232.294 40.9361 232.412H40.9384C46.5465 235.628 45.3219 239.836 45.3219 239.836H45.3215Z" fill="white"/>
<path d="M31.5954 252.381C31.5378 252.381 31.4797 252.373 31.4232 252.357C26.8603 251.045 23.6954 246.076 23.3803 242.225C23.364 242.027 23.4431 241.833 23.5927 241.703L27.4916 238.317C27.3269 237.228 26.9919 234.162 28.1318 232.573C28.2328 232.432 28.388 232.34 28.5599 232.318C28.7321 232.296 28.9048 232.347 29.0381 232.458L30.9119 234.025C31.4988 233.105 32.7544 231.521 34.7667 230.83C36.5475 230.22 38.4993 230.447 40.5685 231.505C47.3021 234.95 45.9796 239.806 45.92 240.011C45.8595 240.219 45.694 240.382 45.4839 240.438C45.2743 240.495 45.0495 240.438 44.8915 240.288L43.6928 239.146C42.9178 239.526 41.2437 240.646 41.9753 243.011C42.0302 243.188 42.0032 243.38 41.9021 243.536C41.7835 243.718 40.6572 245.275 36.699 245.548C36.228 246.669 34.6831 249.972 31.9965 252.234C31.8827 252.33 31.7399 252.38 31.595 252.38L31.5954 252.381ZM24.6546 242.432C25.0612 245.73 27.6874 249.8 31.449 251.059C34.2352 248.562 35.6698 244.77 35.6845 244.731C35.7717 244.497 35.9909 244.337 36.2407 244.326C39.0444 244.2 40.2693 243.394 40.6871 243.026C39.9546 239.994 42.2514 238.305 43.62 237.825C43.84 237.748 44.0863 237.8 44.2562 237.962L44.8076 238.487C44.7129 237.065 43.9132 234.617 40.0008 232.615C38.2487 231.719 36.627 231.514 35.1812 232.006C32.824 232.809 31.6599 235.222 31.6484 235.246C31.5656 235.421 31.4069 235.548 31.2183 235.589C31.0285 235.631 30.832 235.583 30.6844 235.46L28.8403 233.918C28.3705 235.305 28.6148 237.569 28.7763 238.446C28.8165 238.663 28.7385 238.885 28.5722 239.03L24.6546 242.432V242.432Z" fill="#371A45"/>
<path d="M28.5877 238.104L31.0202 241.216L27.7391 239.017L28.5877 238.104Z" fill="#371A45"/>
<g opacity="0.25">
<path d="M30.5507 227.41C30.5507 227.41 32.6879 231.128 26.6927 231.174L30.9211 234.741L34.7181 231.33L32.5813 229.03" fill="#371A45"/>
</g>
<g opacity="0.25">
<path d="M45.3216 239.837L43.8253 238.413C43.8253 238.413 40.2852 239.655 41.3805 243.197C41.3805 243.197 40.3576 244.766 36.2678 244.95C36.2678 244.95 34.717 249.13 31.5954 251.758C29.3874 251.123 27.5493 249.605 26.2352 247.796C26.3908 247.793 26.544 247.798 26.6932 247.811C29.4578 248.046 34.187 243.964 34.7174 242.576C35.2497 241.189 36.7066 238.999 39.3833 237.428C42.058 235.86 40.9365 232.414 40.9365 232.414H40.9389C46.547 235.63 45.3224 239.838 45.3224 239.838L45.3216 239.837Z" fill="#371A45"/>
</g>
<g opacity="0.25">
<path d="M47.1417 241.413C46.1077 242.156 44.2569 243.737 43.8778 246.103L40.9862 243.593C41.0936 243.428 41.1613 243.343 41.1613 243.343C41.1613 243.343 40.7121 239.993 43.8642 238.611L45.3212 239.838L47.1417 241.413V241.413Z" fill="#371A45"/>
</g>
<g opacity="0.25">
<path d="M57.6632 266.535C57.6632 266.535 48.0353 271.758 51.9366 282.304C51.9366 282.304 48.9738 288.061 49.0836 287.863C49.193 287.666 48.3297 280.215 48.3297 280.215L46.1992 269.511L51.9314 268.608" fill="#371A45"/>
</g>
<g opacity="0.25">
<path d="M46.2044 270.281L46.1081 269.83L44.3007 281.605V293.307C44.3007 294.768 43.1155 295.953 41.6546 295.953H25.35C24.281 295.953 23.2995 295.361 22.8002 294.415C21.3612 291.692 22.3753 289.12 24.4302 287.72C26.4457 294.765 36.9998 293.004 36.9998 293.004C43.4246 287.755 37.291 267 37.291 267C40.43 269.848 46.2 269.51 46.2 269.51C46.2 269.51 46.2024 269.784 46.2044 270.281V270.281Z" fill="#371A45"/>
</g>
<g opacity="0.25">
<path d="M74.9333 218.158H73.8516C73.4048 218.158 73.0423 217.796 73.0423 217.349V216.359C72.1671 216.233 71.3344 215.932 70.7543 215.518C70.4599 215.307 70.341 214.927 70.4627 214.586L70.8749 213.436C70.9588 213.202 71.1462 213.019 71.3825 212.941C71.6192 212.863 71.8782 212.898 72.0855 213.036C72.6517 213.413 73.4084 213.638 74.1094 213.638C74.6787 213.638 75.3435 213.409 75.3435 212.765C75.3435 212.421 75.2329 212.008 73.9085 211.471C72.2622 210.826 70.5705 209.876 70.5705 207.751C70.5705 206.158 71.587 204.858 73.1629 204.351V203.253C73.1629 202.806 73.5253 202.443 73.9721 202.443H75.0368C75.4835 202.443 75.846 202.806 75.846 203.253V204.181C76.5199 204.285 77.1243 204.496 77.6781 204.821C78.0186 205.02 78.1654 205.436 78.0254 205.806L77.5961 206.939C77.5122 207.16 77.3359 207.334 77.1127 207.414C76.8899 207.494 76.6433 207.472 76.4376 207.355C76.1667 207.2 75.6025 206.878 74.6759 206.878C74.0334 206.878 73.665 207.121 73.665 207.545C73.665 207.859 73.7819 208.129 75.2926 208.754C76.7654 209.356 78.4555 210.341 78.4555 212.645C78.4555 214.314 77.3904 215.675 75.7425 216.2V217.349C75.7425 217.796 75.3801 218.158 74.9333 218.158V218.158Z" fill="#371A45"/>
</g>
</svg>
