<svg width="500" height="300" viewBox="0 0 500 300" fill="none" xmlns="http://www.w3.org/2000/svg">
<path d="M64.8516 75L348.186 80.9339C378.601 80.9339 403 88.1068 403 97.0489L385.553 147.665C385.553 156.607 366.097 163.099 335.683 163.099L201.523 164.08H168.907L90.4096 187L105.584 164.08L71.3333 163.099C40.9183 163.099 32.6211 156.599 32.6211 147.657L5 94.0984C5 85.1562 34.438 75 64.8516 75Z" fill="white" stroke="black" stroke-width="2" stroke-linecap="round" stroke-linejoin="round"/>
<g clip-path="url(#clip0_509_2229)">
<g opacity="0.2">
<path d="M36.6234 300.159C55.1905 300.159 70.2422 298.192 70.2422 295.766C70.2422 293.34 55.1905 291.373 36.6234 291.373C18.0563 291.373 3.00464 293.34 3.00464 295.766C3.00464 298.192 18.0563 300.159 36.6234 300.159Z" fill="#371A45"/>
</g>
<path d="M53.2137 233.293H27.7537C23.838 233.293 20.6637 236.467 20.6637 240.383V265.2C20.6637 269.116 23.838 272.29 27.7537 272.29H53.2137C57.1294 272.29 60.3037 269.116 60.3037 265.2V240.383C60.3037 236.467 57.1294 233.293 53.2137 233.293Z" fill="white"/>
<path d="M53.2132 273H27.7536C23.4529 273 19.9539 269.501 19.9539 265.201V240.384C19.9539 236.083 23.4529 232.584 27.7536 232.584H53.2132C57.5139 232.584 61.0129 236.083 61.0129 240.384V265.201C61.0129 269.501 57.5139 273 53.2132 273ZM27.7536 234.003C24.2355 234.003 21.373 236.865 21.373 240.384V265.201C21.373 268.719 24.2351 271.581 27.7536 271.581H53.2132C56.7313 271.581 59.5935 268.719 59.5935 265.201V240.384C59.5935 236.866 56.7313 234.003 53.2132 234.003H27.7536V234.003Z" fill="#371A45"/>
<path d="M65.1258 258.665C65.1258 258.665 66.8753 264.121 61.125 265.292C60.0891 265.505 59.0989 265.418 58.2136 265.095C54.3975 263.688 52.5523 257.805 57.5642 251.918C57.8286 251.606 58.1125 251.295 58.4159 250.983C58.43 250.971 58.4426 250.958 58.4548 250.944C58.4548 250.944 58.1888 250.504 57.3372 249.884C56.803 249.495 56.0368 249.034 54.9634 248.567L52.9018 242.26L52.8983 242.249L52.5328 241.131L50.3044 234.322C50.3044 234.322 52.3466 235.016 54.9562 236.198C55.8185 236.588 56.7446 237.033 57.6794 237.525C57.9366 237.659 58.1957 237.8 58.4548 237.942C58.4548 237.942 59.0207 238.247 59.9078 238.797C64.4443 241.621 77.3357 250.895 65.1258 258.666V258.665Z" fill="white"/>
<g opacity="0.2">
<path d="M57.6793 237.526C56.5155 238.935 54.7412 240.168 52.5323 241.133L50.3039 234.324C50.3039 234.324 52.3461 235.018 54.9556 236.2C55.818 236.59 56.7441 237.035 57.6789 237.527L57.6793 237.526Z" fill="#371A45"/>
</g>
<path d="M35.1917 233.287L28.4215 240.7C26.3954 239.688 24.8038 238.434 23.814 237.023C26.9509 235.118 30.751 233.683 35.1917 233.287Z" fill="#D8D8D8"/>
<path d="M54.6401 240.049C51.2922 242.065 46.3955 243.335 40.9382 243.335C35.0727 243.335 29.8532 241.868 26.5106 239.586C26.6083 239.379 26.7056 239.173 26.8071 238.965C26.8071 238.965 24.9408 228.235 34.2798 224.587C36.3433 224.16 38.5893 223.924 40.9382 223.924C43.2872 223.924 45.6842 224.176 47.8042 224.634C55.8359 228.318 54.1273 238.965 54.1273 238.965C54.3028 239.327 54.4749 239.689 54.6401 240.049V240.049Z" fill="#D8D8D8"/>
<g opacity="0.2">
<path d="M54.3469 243.438L54.962 248.57C57.749 249.779 58.4549 250.947 58.4549 250.947C58.4416 250.961 58.4286 250.974 58.4168 250.987C59.1639 250.371 60.1663 249.666 61.2187 249.271C61.2187 249.271 59.2364 248.24 58.6312 247.444C56.6917 244.894 56.6512 243.974 55.9091 242.925C55.6691 242.585 54.0745 242.874 54.3469 243.438V243.438Z" fill="#371A45"/>
</g>
<g opacity="0.2">
<path d="M61.1253 265.294C66.8072 264.136 65.1657 258.794 65.1276 258.667L65.1257 258.665C65.1257 258.665 64.1389 263.953 59.0022 262.503C55.7172 261.573 55.9954 256.944 56.6223 253.729C56.5666 253.602 56.5216 253.47 56.485 253.336H56.4831C51.9492 260.081 55.9794 266.343 61.1245 265.294H61.1253Z" fill="#371A45"/>
</g>
<path d="M60.0167 266.118C57.8189 266.118 55.8149 264.926 54.7003 262.873C53.2087 260.124 53.1999 255.586 57.4922 250.928C57.1183 250.58 56.4097 250.034 55.183 249.45C54.8293 249.281 54.6789 248.858 54.8472 248.504C55.0155 248.15 55.439 247.999 55.7931 248.168C58.2645 249.345 58.988 250.456 59.0624 250.578L59.3482 251.05L58.9609 251.443C54.7556 255.716 54.6469 259.799 55.9476 262.195C56.9817 264.101 58.9113 265.022 60.9821 264.6C62.4962 264.291 63.5562 263.635 64.1335 262.649C65.1069 260.987 64.4567 258.905 64.4498 258.884L64.2827 258.363L64.7444 258.069C68.0103 255.989 69.6194 253.66 69.5278 251.146C69.2908 244.657 58.231 238.628 58.1192 238.568C54.2 236.406 50.1168 235.011 50.076 234.997C49.7048 234.871 49.506 234.468 49.6319 234.097C49.7578 233.726 50.1611 233.527 50.5316 233.653C50.7029 233.711 54.7713 235.1 58.7984 237.322C59.2769 237.579 70.6778 243.793 70.9461 251.092C71.0541 254.027 69.3683 256.681 65.9349 258.986C66.1162 259.88 66.315 261.733 65.3584 263.366C64.5689 264.715 63.1918 265.598 61.2656 265.99C60.8455 266.076 60.4273 266.118 60.0163 266.118L60.0167 266.118Z" fill="#371A45"/>
<path d="M65.2324 259.233C64.2006 259.617 63.109 259.875 62.0032 259.856C62.3969 259.581 62.9479 259.218 63.3478 258.949C63.782 258.661 64.2296 258.366 64.6707 258.102L65.232 259.233H65.2324Z" fill="#371A45"/>
<path d="M68.964 255.733H68.9628C68.6686 255.732 68.4313 255.493 68.4321 255.199C68.4351 253.949 67.3011 252.607 65.5432 251.783C63.43 250.791 60.2206 250.525 57.5523 252.754C57.3268 252.942 56.991 252.912 56.8025 252.686C56.614 252.461 56.6442 252.125 56.8701 251.937C59.9223 249.388 63.5853 249.688 65.9953 250.819C68.1264 251.819 69.5005 253.539 69.4963 255.202C69.4955 255.495 69.2574 255.733 68.964 255.733V255.733Z" fill="#371A45"/>
<path d="M57.8997 250.444C58.9578 249.909 60.0606 249.434 61.2186 249.199C60.2563 249.808 59.4329 250.608 58.6758 251.441L57.8997 250.444Z" fill="#371A45"/>
<path d="M39.9288 271.929C39.819 273.701 39.748 275.472 39.7018 277.198C39.6911 277.635 39.6804 278.069 39.6717 278.498C39.5244 286.071 39.8102 292.53 39.2439 294.163C38.4705 296.384 36.4619 296.577 36.4619 296.577H29.5924C29.5924 296.577 24.8465 296.815 23.585 295.655C22.3235 294.496 22.4479 292.846 23.3686 291.705C24.1562 290.726 25.5688 290.315 25.5688 290.315C25.5688 290.315 24.6141 283.25 23.6384 273.845C23.5995 273.463 23.5587 273.078 23.5197 272.69C23.2217 269.784 22.9272 266.682 22.6593 263.514L39.9292 271.928L39.9288 271.929Z" fill="white"/>
<g opacity="0.2">
<path d="M39.9288 271.927C39.8189 273.699 39.748 275.47 39.7018 277.196C39.6911 277.633 39.6804 278.067 39.6716 278.496C31.8796 278.956 26.6455 276.208 23.6384 273.843C23.5995 273.461 23.5586 273.076 23.5197 272.688C23.2217 269.782 22.9271 266.68 22.6593 263.512L39.9292 271.927L39.9288 271.927Z" fill="#371A45"/>
</g>
<g opacity="0.2">
<path d="M23.5844 295.659C24.8455 296.817 29.5918 296.581 29.5918 296.581H36.4605C36.4605 296.581 38.4699 296.386 39.2433 294.165C39.3406 293.887 39.4127 293.468 39.4661 292.925C38.5862 293.607 37.6945 293.693 37.6945 293.693H29.9288C29.9288 293.693 24.5631 293.96 23.1364 292.649C23.0601 292.578 22.988 292.508 22.9231 292.434C22.4526 293.479 22.5728 294.727 23.584 295.658L23.5844 295.659Z" fill="#371A45"/>
</g>
<path d="M28.4898 297.316C26.8707 297.316 24.1696 297.159 23.105 296.18C21.6898 294.878 21.568 292.811 22.8154 291.263C23.3954 290.543 24.2348 290.092 24.7919 289.851C24.4489 287.233 22.9894 275.83 21.9515 263.577C21.9183 263.186 22.2083 262.843 22.5987 262.81C22.9902 262.774 23.3324 263.066 23.3656 263.457C24.5397 277.322 26.2553 290.095 26.2724 290.222C26.3194 290.57 26.1049 290.9 25.7676 290.998C25.7573 291.001 24.5557 291.365 23.9204 292.153C23.2641 292.968 23.0546 294.205 24.0658 295.134C24.7832 295.794 27.7087 295.961 29.5574 295.871C29.5692 295.871 29.581 295.87 29.5925 295.87H36.4173C36.6226 295.839 38.0023 295.574 38.5739 293.931C38.9109 292.963 38.9112 289.571 38.9116 285.643C38.9124 281.703 38.9131 276.799 39.2211 271.886C39.2455 271.495 39.5797 271.198 39.9739 271.222C40.365 271.246 40.6623 271.583 40.6378 271.975C40.3326 276.844 40.3318 281.723 40.3311 285.644C40.3303 290.195 40.3299 293.203 39.9144 294.397C39.0024 297.019 36.6298 297.276 36.5291 297.286C36.5066 297.288 36.4837 297.289 36.4612 297.289H29.61C29.3994 297.299 28.9976 297.314 28.4898 297.314V297.316Z" fill="#371A45"/>
<path d="M33.0154 283.71C30.212 283.71 26.9732 283.357 24.1911 282.128C23.8325 281.97 23.6703 281.551 23.8286 281.192C23.987 280.834 24.406 280.672 24.7646 280.83C30.7469 283.472 39.396 281.699 39.4826 281.681C39.8665 281.6 40.2423 281.846 40.3232 282.229C40.4037 282.613 40.1584 282.989 39.7745 283.07C39.5643 283.114 36.6575 283.71 33.015 283.71L33.0154 283.71Z" fill="#371A45"/>
<path d="M25.4029 289.627C27.2684 289.317 29.1011 289.47 30.9292 289.773C31.1226 289.807 31.2524 289.991 31.2188 290.184C31.1879 290.363 31.0288 290.487 30.8529 290.479C29.1457 290.421 27.3512 290.508 25.7356 291.006C24.7668 291.272 24.4173 289.834 25.4029 289.627Z" fill="#371A45"/>
<path d="M41.0062 271.929C41.1161 273.701 41.1871 275.472 41.2332 277.198C41.2439 277.635 41.2546 278.069 41.2634 278.498C41.4107 286.071 41.1249 292.53 41.6911 294.163C42.4646 296.384 44.4732 296.577 44.4732 296.577H51.3426C51.3426 296.577 56.0886 296.815 57.3501 295.655C58.6115 294.496 58.4872 292.846 57.5664 291.705C56.7789 290.726 55.3663 290.315 55.3663 290.315C55.3663 290.315 56.321 283.25 57.2966 273.845C57.3356 273.463 57.3764 273.078 57.4153 272.69C57.7133 269.784 58.0079 266.682 58.2758 263.514L41.0058 271.928L41.0062 271.929Z" fill="white"/>
<g opacity="0.2">
<path d="M41.0062 271.927C41.1161 273.699 41.1871 275.47 41.2333 277.196C41.244 277.633 41.2546 278.067 41.2634 278.496C49.0555 278.956 54.2895 276.208 57.2967 273.843C57.3356 273.461 57.3764 273.076 57.4153 272.688C57.7134 269.782 58.0079 266.68 58.2758 263.512L41.0059 271.927L41.0062 271.927Z" fill="#371A45"/>
</g>
<g opacity="0.2">
<path d="M57.351 295.655C56.09 296.813 51.3436 296.577 51.3436 296.577H44.4749C44.4749 296.577 42.4656 296.382 41.6921 294.161C41.5948 293.883 41.5227 293.464 41.4693 292.921C42.3492 293.603 43.2405 293.689 43.2405 293.689H51.0063C51.0063 293.689 56.3719 293.956 57.7986 292.645C57.8749 292.574 57.9471 292.504 58.0119 292.43C58.4824 293.476 58.3622 294.723 57.351 295.654V295.655Z" fill="#371A45"/>
</g>
<path d="M52.4458 297.313C51.9379 297.313 51.5365 297.297 51.3255 297.287H44.4744C44.4519 297.287 44.429 297.286 44.4065 297.284C44.3061 297.275 41.9331 297.017 41.0212 294.395C40.6056 293.201 40.6052 290.194 40.6045 285.642C40.6037 281.721 40.603 276.842 40.2977 271.973C40.2733 271.582 40.5705 271.245 40.9616 271.22C41.3512 271.195 41.6897 271.493 41.7145 271.884C42.0228 276.797 42.0235 281.702 42.0239 285.642C42.0247 289.569 42.0251 292.961 42.3616 293.929C42.9298 295.563 44.2981 295.835 44.5198 295.869H51.3431C51.3549 295.869 51.3667 295.869 51.3782 295.869C53.2265 295.96 56.1524 295.793 56.8697 295.133C57.8805 294.203 57.671 292.966 57.0151 292.152C56.3798 291.363 55.1782 291 55.166 290.996C54.8306 290.896 54.6162 290.567 54.6627 290.22C54.6799 290.093 56.3954 277.32 57.5695 263.455C57.6027 263.065 57.9462 262.771 58.3365 262.808C58.7269 262.841 59.0168 263.184 58.9837 263.575C57.9458 275.829 56.4863 287.231 56.1432 289.849C56.7003 290.089 57.5398 290.541 58.1198 291.261C59.3671 292.809 59.2454 294.877 57.8302 296.178C56.7656 297.157 54.064 297.314 52.4454 297.314L52.4458 297.313Z" fill="#371A45"/>
<path d="M47.92 283.708C44.2771 283.708 41.3707 283.112 41.1605 283.068C40.777 282.987 40.5316 282.611 40.6121 282.227C40.6927 281.844 41.0689 281.599 41.4524 281.679C41.539 281.697 50.1968 283.467 56.1707 280.828C56.529 280.67 56.9484 280.832 57.1067 281.191C57.2651 281.549 57.1029 281.968 56.7442 282.127C53.9626 283.355 50.7234 283.708 47.92 283.708V283.708Z" fill="#371A45"/>
<path d="M55.2 291.004C53.584 290.506 51.7899 290.419 50.0827 290.477C49.6439 290.492 49.5745 289.849 50.006 289.771C51.8345 289.468 53.6668 289.315 55.5323 289.625C56.5156 289.831 56.1714 291.269 55.1996 291.004H55.2Z" fill="#371A45"/>
<path d="M52.446 297.315C51.9381 297.315 51.5367 297.3 51.3257 297.29H44.4746C44.452 297.29 44.4291 297.288 44.4066 297.287C44.3063 297.277 41.9333 297.019 41.0213 294.398C40.6058 293.203 40.6054 290.196 40.6047 285.644C40.6039 281.724 40.6031 276.845 40.2979 271.975C40.2734 271.584 40.5707 271.247 40.9618 271.223C41.3514 271.197 41.6898 271.495 41.7146 271.887C42.023 276.8 42.0237 281.704 42.0241 285.644C42.0249 289.571 42.0252 292.963 42.3622 293.931C42.9303 295.565 44.2986 295.837 44.5203 295.871H51.3432C51.3551 295.871 51.3669 295.871 51.3783 295.871C53.227 295.962 56.1526 295.795 56.8699 295.135C57.8807 294.205 57.6712 292.968 57.0149 292.154C56.3796 291.365 55.178 291.002 55.1658 290.998C54.8304 290.898 54.616 290.569 54.6625 290.222C54.6797 290.095 56.3952 277.322 57.5697 263.457C57.6029 263.066 57.9463 262.773 58.3367 262.81C58.727 262.842 59.017 263.186 58.9838 263.577C57.9459 275.831 56.4864 287.233 56.1434 289.851C56.7005 290.091 57.54 290.543 58.1199 291.263C59.3673 292.811 59.2456 294.878 57.8303 296.18C56.7657 297.159 54.0642 297.316 52.4456 297.316L52.446 297.315Z" fill="#371A45"/>
<path d="M54.1287 238.967C58.5934 248.204 60.6016 256.657 59.239 263.229C58.7529 265.573 57.9432 267.503 56.9031 269.089C54.6613 272.507 51.3489 274.326 47.8964 275.253C45.3739 275.93 42.7769 276.131 40.4676 276.131C38.6899 276.131 36.7408 276.012 34.7872 275.648C34.2392 275.546 33.6909 275.424 33.1456 275.281C30.069 274.472 27.0954 272.961 24.8827 270.25C23.432 268.473 22.3079 266.179 21.6962 263.229C20.3336 256.658 22.3418 248.205 26.8066 238.967" fill="white"/>
<path d="M59.658 258.669C59.674 260.271 59.5374 261.795 59.2394 263.23C59.1718 263.559 59.0974 263.878 59.0158 264.19C58.5224 266.108 57.7986 267.726 56.9026 269.09C54.662 272.507 51.3496 274.326 47.8968 275.254C45.3738 275.931 42.7765 276.132 40.4683 276.132C38.6906 276.132 36.7408 276.013 34.7875 275.649C34.2392 275.546 33.6909 275.426 33.1464 275.282C30.0682 274.473 27.0965 272.962 24.8823 270.251C23.5834 268.659 22.5474 266.653 21.9033 264.134C21.8289 263.839 21.7595 263.539 21.6958 263.23C21.3978 261.795 21.2612 260.271 21.2772 258.669C21.3268 252.931 23.3155 246.188 26.8073 238.969C26.8073 238.969 24.2115 224.041 40.4683 223.414C56.7233 222.788 54.1278 238.969 54.1278 238.969C57.6192 246.188 59.6084 252.931 59.658 258.669Z" fill="white"/>
<g opacity="0.2">
<path d="M54.6403 240.049C51.2924 242.065 46.3957 243.335 40.9385 243.335C35.073 243.335 29.8534 241.868 26.5109 239.586C26.6085 239.379 26.7058 239.173 26.8073 238.965C26.8073 238.965 24.9411 228.235 34.28 224.587C36.3436 224.16 38.5895 223.924 40.9385 223.924C43.2874 223.924 45.6845 224.176 47.8045 224.634C55.8362 228.318 54.1275 238.965 54.1275 238.965C54.303 239.327 54.4751 239.689 54.6403 240.049V240.049Z" fill="#371A45"/>
</g>
<g opacity="0.2">
<path d="M59.239 263.232C58.7529 265.576 57.9439 267.506 56.9022 269.093C54.6616 272.51 51.3492 274.328 47.8964 275.256C45.3734 275.934 42.7761 276.134 40.4679 276.134C38.6902 276.134 36.7404 276.016 34.7871 275.652C34.2388 275.549 33.6905 275.428 33.146 275.285C30.0678 274.476 27.0961 272.964 24.8819 270.253C23.4323 268.476 22.3074 266.182 21.6954 263.233C21.3191 261.42 21.2005 259.462 21.3191 257.385C21.3775 258.389 21.5019 259.358 21.6954 260.289C22.3074 263.24 23.4323 265.532 24.8819 267.31C27.0961 270.021 30.0678 271.532 33.146 272.341C33.6905 272.485 34.2388 272.606 34.7871 272.708C36.7404 273.072 38.6902 273.191 40.4679 273.191C42.7761 273.191 45.3734 272.991 47.8964 272.313C51.3488 271.387 54.6613 269.566 56.9022 266.149C57.9435 264.563 58.7529 262.633 59.239 260.289C59.4324 259.357 59.5564 258.389 59.6152 257.385C59.7343 259.462 59.6152 261.419 59.239 263.232V263.232Z" fill="#371A45"/>
</g>
<path d="M24.6079 270.474C23.243 269.363 22.3726 267.771 21.7625 266.148C19.8955 261.287 20.282 255.862 21.6087 250.922C21.7106 250.544 22.1002 250.319 22.4787 250.421C22.8465 250.52 23.0682 250.891 22.9877 251.257C22.8206 252.062 22.6603 252.866 22.5249 253.673C22.0185 256.867 21.8308 260.156 22.5016 263.328C22.9507 265.731 24.0382 267.867 25.157 270.025C25.3378 270.365 24.9059 270.723 24.6071 270.474H24.6079Z" fill="#371A45"/>
<path d="M47.9883 275.596C44.0185 277.107 38.9821 277.178 34.8707 276.202C34.2575 276.031 33.6508 275.836 33.0551 275.625C32.8701 275.559 32.7735 275.356 32.8388 275.171C32.8979 275.003 33.0681 274.913 33.2356 274.939C33.8526 274.991 34.4528 275.089 35.0569 275.159C38.0816 275.472 41.1349 275.496 44.168 275.305C45.3814 275.221 46.5887 275.085 47.8059 274.91C48.2165 274.852 48.3779 275.442 47.988 275.596H47.9883Z" fill="#371A45"/>
<path d="M56.2372 242.79C59.8125 250.109 62.3496 259.815 58.5331 267.496C57.9573 268.598 57.2308 269.631 56.3276 270.477C56.0269 270.753 55.5614 270.385 55.7778 270.028C61.09 261.754 58.5323 251.729 55.5816 243.063C55.4473 242.656 56.0323 242.393 56.2372 242.79V242.79Z" fill="#371A45"/>
<g opacity="0.2">
<path d="M51.7626 258.671V254.426C51.7626 253.163 50.7289 252.129 49.4655 252.129H31.3271C30.0637 252.129 29.03 253.163 29.03 254.426V258.671H21.2769L21.903 264.135C24.112 263.837 26.5784 263.517 29.0297 263.228V265.998C29.0297 267.261 30.0633 268.295 31.3267 268.295H49.4651C50.7285 268.295 51.7622 267.261 51.7622 265.998V263.191C54.2809 263.508 56.8081 263.865 59.0155 264.192C59.0971 263.88 59.1715 263.56 59.2391 263.232C59.5371 261.797 59.6737 260.273 59.6577 258.671H51.7622L51.7626 258.671Z" fill="#371A45"/>
</g>
<path d="M50.5697 256.778C50.5697 256.778 56.6413 256.316 59.1971 258.156C61.9131 260.111 59.1768 262.373 59.1768 262.373C59.1768 262.373 54.287 261.306 50.1805 261.458L50.5701 256.778H50.5697Z" fill="white"/>
<g opacity="0.2">
<path d="M59.1771 262.372C59.1771 262.372 54.2857 261.304 50.1804 261.457L50.3277 259.679C53.1818 259.592 56.3805 260.078 58.04 260.377C58.9222 260.536 59.8166 260.092 60.1833 259.274C60.1867 259.266 60.1902 259.258 60.194 259.25C60.9976 260.866 59.1775 262.372 59.1775 262.372H59.1771Z" fill="#371A45"/>
</g>
<path d="M30.8706 256.778C30.8706 256.778 24.7991 256.316 22.2433 258.156C19.5273 260.111 22.2635 262.373 22.2635 262.373C22.2635 262.373 27.1534 261.306 31.2598 261.458L30.8703 256.778H30.8706Z" fill="white"/>
<path d="M59.3627 263.141L59.0254 263.067C58.9773 263.057 54.171 262.021 50.2065 262.168L49.4067 262.198L49.9131 256.117L50.5163 256.071C50.7746 256.051 56.8779 255.611 59.6122 257.58C60.5734 258.272 61.0767 259.094 61.1076 260.022C61.1614 261.635 59.692 262.869 59.6294 262.921L59.3634 263.141H59.3627ZM51.0166 260.734C54.324 260.734 57.8215 261.376 58.9559 261.604C59.278 261.259 59.7103 260.657 59.6882 260.065C59.671 259.601 59.3661 259.153 58.7819 258.732C57.0603 257.492 53.1812 257.376 51.2253 257.453L50.9521 260.734C50.9734 260.734 50.9952 260.734 51.0162 260.734L51.0166 260.734Z" fill="#371944"/>
<path d="M22.0774 263.141L21.811 262.921C21.7485 262.869 20.279 261.635 20.3328 260.021C20.3637 259.093 20.867 258.272 21.8282 257.58C24.5626 255.611 30.6654 256.051 30.9241 256.071L31.5274 256.117L32.0337 262.198L31.234 262.168C27.2683 262.022 22.4631 263.057 22.4151 263.067L22.0778 263.141H22.0774ZM29.2452 257.435C27.1691 257.435 24.1253 257.675 22.6577 258.732C22.0739 259.153 21.7691 259.601 21.7519 260.065C21.7298 260.657 22.1617 261.257 22.4841 261.603C23.6189 261.376 27.1164 260.734 30.4231 260.734C30.4445 260.734 30.4662 260.734 30.4872 260.734L30.214 257.453C29.9278 257.442 29.6004 257.434 29.2448 257.434L29.2452 257.435Z" fill="#371944"/>
<path d="M50.962 254.968V263.614C50.962 265.218 49.6982 266.531 48.1548 266.531H32.8244C31.2794 266.531 30.0171 265.218 30.0171 263.614V254.968C30.0171 253.365 31.2794 252.053 32.8244 252.053H48.1548C49.3876 252.053 50.4431 252.891 50.817 254.046C50.9101 254.336 50.962 254.646 50.962 254.968V254.968Z" fill="white"/>
<g opacity="0.2">
<path d="M50.962 254.969V263.614C50.962 265.219 49.6982 266.532 48.1548 266.532H32.8244C31.2794 266.532 30.0171 265.219 30.0171 263.614V260.705C32.6622 262.225 37.9023 264.508 43.1611 262.624C45.7303 261.703 48.676 258.547 48.676 258.547C48.676 258.547 48.7893 261.859 49.2625 261.807C50.5781 261.661 50.5682 254.961 50.817 254.047C50.9101 254.337 50.962 254.647 50.962 254.969V254.969Z" fill="#371A45"/>
</g>
<path d="M48.2592 267.24H32.7185C30.837 267.24 29.3065 265.71 29.3065 263.828V254.756C29.3065 252.874 30.837 251.344 32.7185 251.344H48.2592C50.1407 251.344 51.6712 252.874 51.6712 254.756V263.828C51.6712 265.71 50.1407 267.24 48.2592 267.24ZM32.7185 252.763C31.62 252.763 30.726 253.657 30.726 254.756V263.828C30.726 264.927 31.62 265.821 32.7185 265.821H48.2592C49.3577 265.821 50.2518 264.927 50.2518 263.828V254.756C50.2518 253.657 49.3577 252.763 48.2592 252.763H32.7185Z" fill="#371944"/>
<path d="M45.9202 261.806C47.2574 261.806 48.3413 260.68 48.3413 259.292C48.3413 257.903 47.2574 256.777 45.9202 256.777C44.5831 256.777 43.4992 257.903 43.4992 259.292C43.4992 260.68 44.5831 261.806 45.9202 261.806Z" fill="#22A7F0"/>
<path d="M48.3416 259.293C48.3416 259.464 48.3255 259.63 48.2939 259.792C48.0703 258.641 47.0915 257.774 45.9197 257.774C44.7479 257.774 43.7692 258.641 43.5471 259.792C43.5154 259.63 43.4994 259.464 43.4994 259.293C43.4994 257.904 44.5827 256.777 45.9197 256.777C47.2568 256.777 48.3416 257.904 48.3416 259.293Z" fill="white"/>
<path d="M48.3408 259.291C48.3408 260.68 47.2564 261.805 45.9201 261.805C44.5838 261.805 43.4994 260.68 43.4994 259.291C43.4994 259.058 43.5303 258.83 43.5872 258.617C43.8718 259.677 44.8097 260.456 45.9201 260.456C47.0305 260.456 47.9684 259.678 48.253 258.617C48.3099 258.83 48.3408 259.058 48.3408 259.291Z" fill="#1C7AEA"/>
<path d="M45.9203 262.337C44.2917 262.337 42.9669 260.97 42.9669 259.291C42.9669 257.611 44.2917 256.244 45.9203 256.244C47.5488 256.244 48.8737 257.611 48.8737 259.291C48.8737 260.97 47.5488 262.337 45.9203 262.337ZM45.9203 257.309C44.879 257.309 44.0315 258.198 44.0315 259.291C44.0315 260.383 44.879 261.272 45.9203 261.272C46.9616 261.272 47.8091 260.383 47.8091 259.291C47.8091 258.198 46.962 257.309 45.9203 257.309Z" fill="#371944"/>
<path d="M38.258 267.24C37.8661 267.24 37.5483 266.922 37.5483 266.53V262.105C37.5483 261.233 37.1499 260.4 36.4825 259.878L36.0933 259.574C35.0844 258.785 34.4823 257.535 34.4823 256.229V252.053C34.4823 251.662 34.8002 251.344 35.1921 251.344C35.5839 251.344 35.9018 251.662 35.9018 252.053V256.229C35.9018 257.102 36.3001 257.934 36.9675 258.455L37.3567 258.76C38.3656 259.548 38.9677 260.799 38.9677 262.105V266.53C38.9677 266.922 38.6499 267.24 38.258 267.24V267.24Z" fill="#371944"/>
<path d="M40.637 251.326C41.0079 253.508 40.7221 254.853 40.2112 255.777C39.8758 256.389 39.4393 256.817 39.0314 257.18C37.4436 258.596 32.4493 258.972 32.4493 258.972C32.4493 258.972 22.7959 263.108 16.8311 260.211C12.8552 258.279 11.8688 252.693 13.6145 248.327C13.7492 247.992 13.9072 247.639 14.0899 247.271C14.0918 247.268 14.0918 247.266 14.0918 247.266C16.643 242.121 23.8196 234.308 35.192 233.291L25.6081 243.785L24.1089 247.882C28.0848 247.841 30.8703 247.737 31.6705 247.371C32.4706 247.005 32.2329 244.222 33.0083 243.155C33.4429 242.556 35.1248 242.586 35.659 243.748C36.2871 245.123 35.3965 246.72 36.2337 247.339C36.8564 247.8 39.0936 247.044 40.4046 248.24C41.1426 248.914 40.9476 250.456 40.637 251.326V251.326Z" fill="white"/>
<g opacity="0.2">
<path d="M35.1921 233.291L28.4218 240.703C26.3957 239.692 24.8042 238.438 23.8144 237.027C26.9513 235.122 30.7513 233.687 35.1921 233.291Z" fill="#371A45"/>
</g>
<g opacity="0.2">
<path d="M40.2111 255.775C39.8757 256.387 39.4392 256.815 39.0313 257.179C37.4436 258.594 32.4492 258.97 32.4492 258.97C32.4492 258.97 22.7958 263.106 16.8311 260.209C12.8551 258.277 11.8687 252.691 13.6144 248.325C13.7491 247.99 13.9071 247.637 14.0898 247.27C14.0223 247.532 11.5348 257.384 18.5539 259.288C24.8574 261 29.8659 256.989 31.8921 256.774C33.5706 256.596 37.3157 258.287 40.2111 255.775V255.775Z" fill="#371A45"/>
</g>
<path d="M35.255 233.999C28.3088 234.585 21.7454 238.166 17.3654 243.57C15.936 245.343 14.6489 247.296 13.9659 249.477C13.046 252.586 13.3817 256.427 15.844 258.697C18.3788 260.878 22.3487 260.714 25.4841 260.22C27.7575 259.834 30.0343 259.185 32.1703 258.321C32.2428 258.291 32.3218 258.272 32.3962 258.265C33.454 258.173 34.5456 258.018 35.5877 257.795C36.5439 257.58 37.6409 257.3 38.4167 256.764C40.1689 255.464 40.2929 253.497 39.938 251.444C39.9174 251.32 39.9296 251.198 39.9693 251.087C40.1769 250.472 40.2986 249.711 40.1185 249.095C40.0586 248.933 40.017 248.837 39.8857 248.731C39.5999 248.48 39.1993 248.34 38.7311 248.273C37.4639 248.067 35.5724 248.71 35.192 246.893C34.9409 245.704 35.801 243.639 34.0599 243.482C33.8611 243.472 33.6661 243.516 33.5787 243.579C33.5379 243.634 33.4833 243.734 33.4402 243.84C32.9732 244.984 33.1724 246.476 32.4622 247.6C32.1387 248.104 31.3538 248.219 30.849 248.296C29.6821 248.454 28.5744 248.488 27.4545 248.529C26.3002 248.557 25.1506 248.597 24.0024 248.584C23.5449 248.561 23.2442 248.049 23.4427 247.638L25.275 243.665C25.4627 243.273 26.0522 243.492 25.9416 243.908L24.7759 248.126L24.102 247.173C25.207 247.161 26.3117 247.145 27.4102 247.111C28.7415 247.036 30.1316 247.076 31.3679 246.729C31.3828 246.723 31.3645 246.729 31.3576 246.734C31.3465 246.737 31.3015 246.778 31.3171 246.762C31.4541 246.533 31.5079 246.196 31.5705 245.878C31.7747 244.844 31.7876 243.711 32.4298 242.744C32.8026 242.216 33.5616 242.032 34.119 242.064C35.8193 242.137 36.6748 243.522 36.6103 245.1C36.6332 245.641 36.4634 246.286 36.626 246.739C36.6324 246.753 36.6691 246.775 36.6298 246.751C36.7156 246.793 37.0281 246.799 37.1777 246.801C38.4316 246.775 40.0807 246.801 41.0274 247.865C41.8836 248.908 41.686 250.383 41.3059 251.565L41.3372 251.207C41.6341 252.922 41.6597 255.011 40.5684 256.548C40.1959 257.075 39.7579 257.521 39.2538 257.91C38.6952 258.31 38.1309 258.528 37.5703 258.727C35.9139 259.269 34.2305 259.519 32.5031 259.681L32.729 259.625C30.4582 260.545 28.1299 261.207 25.7164 261.62C22.1236 262.185 17.819 262.283 14.8962 259.754C11.9875 257.088 11.5365 252.679 12.6064 249.067C14.8401 242.407 21.518 236.595 28.0062 234.206C30.2907 233.336 32.7 232.815 35.1279 232.585C35.5183 232.548 35.8643 232.835 35.9014 233.225C35.9387 233.617 35.6476 233.966 35.2542 233.999L35.255 233.999Z" fill="#371A45"/>
<path d="M17.5583 249.523C17.5583 249.523 19.2368 248.187 24.1095 247.883Z" fill="white"/>
<path d="M17.337 249.245C18.3112 248.52 19.4685 248.135 20.6189 247.812C21.7137 247.508 22.9359 247.31 24.0649 247.174C25.0463 247.084 25.1619 248.526 24.1748 248.59C22.5291 248.616 20.8208 248.747 19.2384 249.206C18.7233 249.359 18.2002 249.543 17.743 249.822C17.3699 250.044 17.0016 249.52 17.337 249.245V249.245Z" fill="#371A45"/>
<path d="M18.3925 261.328C18.2258 261.328 18.0613 261.25 17.9575 261.103C16.3255 258.798 15.9127 256.444 16.7304 254.107C18.0823 250.243 22.262 247.864 23.9612 247.373C24.2435 247.291 24.5389 247.454 24.6205 247.736C24.7022 248.018 24.5396 248.314 24.2573 248.395C22.5501 248.89 18.8843 251.176 17.7354 254.459C17.0383 256.452 17.4054 258.481 18.8267 260.488C18.9965 260.728 18.9397 261.061 18.6997 261.23C18.6062 261.296 18.499 261.328 18.3925 261.328V261.328Z" fill="#371A45"/>
<path d="M68.4734 201.493C68.4734 201.493 74.9334 203.941 75.5974 205.137C76.8283 207.354 76.5998 220.386 73.195 223.783C71.8618 225.113 62.0665 226.356 62.0665 226.356L68.4734 201.492V201.493Z" fill="white"/>
<g opacity="0.2">
<path d="M62.0667 226.36C62.0667 226.36 71.862 225.116 73.1944 223.785C74.5235 222.46 75.3694 219.664 75.8307 216.618C75.7224 216.715 72.263 219.701 65.3612 213.632C65.3577 213.628 65.3524 213.625 65.3486 213.621L62.0663 226.36H62.0667Z" fill="#371A45"/>
</g>
<path d="M40.4703 215.096V215.207L40.3993 215.152L40.4703 215.096Z" fill="#D8D8D8"/>
<path d="M40.3994 215.152L40.3288 215.207V215.096L40.3994 215.152Z" fill="#D8D8D8"/>
<path d="M19.0646 226.358C19.0646 226.358 9.26926 225.114 7.93681 223.783C6.60779 222.458 5.76185 219.662 5.30053 216.615L5.29862 216.613C4.57669 211.859 4.78426 206.49 5.53443 205.138C6.19798 203.942 12.6576 201.492 12.6576 201.492L15.7819 213.619L19.0642 226.357L19.0646 226.358Z" fill="white"/>
<g opacity="0.2">
<path d="M19.0646 226.36C19.0646 226.36 9.26923 225.116 7.93679 223.785C6.60777 222.46 5.76183 219.664 5.30051 216.618C5.40887 216.715 8.8682 219.701 15.7701 213.632C15.7735 213.628 15.7788 213.625 15.7827 213.621L19.0649 226.36H19.0646Z" fill="#371A45"/>
</g>
<path d="M61.1182 227.193L67.9842 200.549L68.7252 200.83C70.7403 201.594 75.505 203.509 76.2178 204.794C77.5819 207.251 77.4086 220.582 73.6963 224.286C72.2643 225.715 63.8319 226.849 62.1561 227.062L61.1186 227.193H61.1182ZM68.9614 202.444L63.0161 225.516C67.4244 224.905 72.0197 223.954 72.6936 223.282C75.8381 220.144 76.0796 207.47 74.9769 205.483C74.6457 204.938 71.7343 203.541 68.9618 202.444L68.9614 202.444Z" fill="#371A45"/>
<path d="M20.0135 227.195L18.976 227.063C17.3001 226.851 8.86779 225.717 7.43575 224.288C3.72344 220.584 3.54982 207.253 4.91432 204.796C5.6271 203.511 10.3914 201.596 12.4069 200.832L13.1479 200.551L20.0139 227.195L20.0135 227.195ZM12.1703 202.445C9.39741 203.542 6.4864 204.94 6.15443 205.486C5.05245 207.471 5.29399 220.146 8.43852 223.284C9.11199 223.956 13.7076 224.907 18.1159 225.517L12.1707 202.446L12.1703 202.445Z" fill="#371A45"/>
<path d="M40.5635 239.61C57.1048 239.61 70.5142 226.201 70.5142 209.66C70.5142 193.118 57.1048 179.709 40.5635 179.709C24.0222 179.709 10.6128 193.118 10.6128 209.66C10.6128 226.201 24.0222 239.61 40.5635 239.61Z" fill="white"/>
<g opacity="0.2">
<path d="M70.5147 209.657C70.5147 226.199 57.1055 239.608 40.564 239.608C24.0225 239.608 10.6114 226.199 10.6114 209.657C10.6114 207.911 10.7606 206.198 11.0494 204.535C13.4793 218.635 25.769 229.362 40.564 229.362C55.3591 229.362 67.6468 218.635 70.0767 204.535C70.3655 206.198 70.5147 207.911 70.5147 209.657V209.657Z" fill="#371A45"/>
</g>
<path d="M40.5633 240.323C23.657 240.323 9.90289 226.569 9.90289 209.662C9.90289 192.756 23.657 179.002 40.5633 179.002C57.4696 179.002 71.2238 192.756 71.2238 209.662C71.2238 226.569 57.4696 240.323 40.5633 240.323ZM40.5633 180.421C24.4396 180.421 11.322 193.539 11.322 209.662C11.322 225.786 24.4396 238.903 40.5633 238.903C56.687 238.903 69.8043 225.786 69.8043 209.662C69.8043 193.539 56.687 180.421 40.5633 180.421V180.421Z" fill="#371A45"/>
<path d="M40.5633 240.323C23.657 240.323 9.90289 226.569 9.90289 209.662C9.90289 192.756 23.657 179.002 40.5633 179.002C57.4696 179.002 71.2238 192.756 71.2238 209.662C71.2238 226.569 57.4696 240.323 40.5633 240.323ZM40.5633 180.421C24.4396 180.421 11.322 193.539 11.322 209.662C11.322 225.786 24.4396 238.903 40.5633 238.903C56.687 238.903 69.8043 225.786 69.8043 209.662C69.8043 193.539 56.687 180.421 40.5633 180.421V180.421Z" fill="#371A45"/>
<path d="M40.5633 240.323C23.657 240.323 9.90289 226.569 9.90289 209.662C9.90289 192.756 23.657 179.002 40.5633 179.002C57.4696 179.002 71.2238 192.756 71.2238 209.662C71.2238 226.569 57.4696 240.323 40.5633 240.323ZM40.5633 180.421C24.4396 180.421 11.322 193.539 11.322 209.662C11.322 225.786 24.4396 238.903 40.5633 238.903C56.687 238.903 69.8043 225.786 69.8043 209.662C69.8043 193.539 56.687 180.421 40.5633 180.421V180.421Z" fill="#371A45"/>
<path d="M40.5627 240.322C26.5918 240.322 14.3972 230.899 10.8902 217.399C10.8844 217.382 10.8795 217.366 10.8753 217.349C10.2301 214.859 9.90266 212.272 9.90266 209.662C9.90266 208.505 9.96791 207.35 10.0961 206.228C11.8227 190.707 24.9206 179.002 40.5627 179.002C56.2049 179.002 69.3084 190.711 71.0324 206.239C71.1587 207.365 71.2231 208.517 71.2231 209.662C71.2231 212.268 70.8969 214.854 70.2536 217.348C70.249 217.366 70.244 217.383 70.2379 217.4C66.7271 230.898 54.5317 240.322 40.5631 240.322H40.5627ZM12.2543 217.004C15.5858 229.899 27.2256 238.903 40.5627 238.903C53.8998 238.903 65.54 229.898 68.8742 217.003C68.8792 216.984 68.8845 216.965 68.891 216.946C69.4962 214.582 69.8033 212.132 69.8033 209.662C69.8033 208.57 69.7423 207.471 69.6217 206.397C67.9779 191.588 55.4852 180.421 40.5627 180.421C25.6402 180.421 13.1533 191.584 11.5068 206.387C11.3843 207.458 11.3225 208.559 11.3225 209.662C11.3225 212.136 11.6304 214.586 12.2375 216.946C12.244 216.965 12.2497 216.984 12.2543 217.004V217.004Z" fill="#371A45"/>
<path d="M69.4704 202.516C69.1942 202.516 68.9335 202.354 68.8183 202.087C64.0857 191.1 52.9945 184 40.5625 184C28.1306 184 17.0505 191.093 12.3129 202.071C12.1656 202.413 11.7787 202.582 11.4273 202.46C11.0758 202.337 10.8789 201.963 10.9766 201.604C14.5871 188.295 26.7535 179 40.5629 179C54.3724 179 66.5499 188.302 70.1553 201.621C70.2526 201.98 70.0558 202.354 69.7039 202.476C69.6269 202.503 69.5479 202.516 69.4704 202.516V202.516ZM40.5629 182.581C47.0142 182.581 53.2311 184.413 58.5414 187.879C60.8015 189.354 62.8364 191.081 64.6111 193.019C59.2596 185.305 50.3449 180.419 40.5629 180.419C30.781 180.419 21.9361 185.27 16.5769 192.932C22.5318 186.453 31.1854 182.581 40.5629 182.581Z" fill="#371A45"/>
<path d="M70.5123 209.663C70.5123 212.256 70.1837 214.774 69.5652 217.172C69.5652 217.172 69.5626 217.172 69.5626 217.175C64.3671 227.213 53.3324 235.85 40.562 235.85C27.7915 235.85 16.7599 227.213 11.564 217.175C11.564 217.172 11.5613 217.172 11.5613 217.172C10.9402 214.774 10.6116 212.256 10.6116 209.663C10.6116 208.53 10.6746 207.41 10.8005 206.31C14.841 195.13 26.6365 187.041 40.562 187.041C54.4874 187.041 66.2883 195.136 70.3261 206.318C70.4493 207.416 70.5123 208.533 70.5123 209.663V209.663Z" fill="#371A45"/>
<g opacity="0.35">
<path d="M70.5133 209.664C70.5133 212.256 70.1848 214.774 69.5663 217.173C69.5663 217.173 69.5636 217.173 69.5636 217.175C64.3681 227.214 53.3335 235.85 40.563 235.85C27.7926 235.85 16.7609 227.214 11.5651 217.175C11.5651 217.173 11.5624 217.173 11.5624 217.173C11.1927 215.744 10.9275 214.274 10.7714 212.768C17.4863 220.313 27.2507 225.801 38.1213 225.801C51.9701 225.801 64.0312 216.893 70.2726 206.174C70.2916 206.223 70.3107 206.27 70.3271 206.319C70.4504 207.417 70.5133 208.533 70.5133 209.664V209.664Z" fill="#111A28"/>
</g>
<path d="M40.5619 236.228C34.485 236.228 28.4149 234.278 23.0073 230.589C18.1014 227.241 13.9225 222.548 11.2373 217.37C11.2175 217.338 11.2019 217.303 11.1919 217.264C10.5536 214.801 10.23 212.242 10.23 209.66C10.23 208.516 10.2945 207.373 10.4212 206.263C10.4246 206.234 10.4315 206.205 10.4414 206.177C12.4771 200.544 16.3928 195.698 21.7645 192.161C27.2351 188.56 33.7352 186.656 40.5619 186.656C47.3886 186.656 53.891 188.561 59.3627 192.164C64.7352 195.703 68.6505 200.551 70.6851 206.185C70.6954 206.213 70.7019 206.242 70.7053 206.272C70.8305 207.387 70.8938 208.527 70.8938 209.66C70.8938 212.238 70.571 214.797 69.9345 217.264C69.9246 217.302 69.909 217.338 69.8891 217.37C67.204 222.547 63.0246 227.241 58.1176 230.588C52.7096 234.278 46.6388 236.228 40.5619 236.228V236.228ZM11.9188 217.026C16.685 226.21 27.3828 235.465 40.5619 235.465C53.741 235.465 64.4414 226.21 69.2076 217.026C69.8201 214.636 70.1307 212.157 70.1307 209.66C70.1307 208.57 70.0704 207.474 69.9521 206.402C65.8292 195.045 54.0249 187.419 40.5623 187.419C27.0997 187.419 15.2992 195.042 11.1744 206.394C11.0542 207.461 10.9931 208.56 10.9931 209.66C10.9931 212.161 11.3045 214.639 11.9188 217.026V217.026Z" fill="#371A45"/>
<g opacity="0.5">
<path d="M65.4203 208.986C65.8751 206.149 64.5776 203.583 62.5222 203.253C60.4668 202.924 58.4319 204.956 57.9771 207.792C57.5223 210.628 58.8198 213.195 60.8752 213.525C62.9306 213.854 64.9655 211.822 65.4203 208.986Z" fill="white"/>
</g>
<g opacity="0.5">
<path d="M59.2483 219.382C59.6349 218.121 59.0714 216.83 57.9897 216.498C56.908 216.167 55.7177 216.92 55.331 218.18C54.9444 219.441 55.5079 220.732 56.5896 221.064C57.6713 221.395 58.8617 220.642 59.2483 219.382Z" fill="white"/>
</g>
<g opacity="0.5">
<path d="M17.6152 218.642C17.6152 218.642 12.6098 203.76 20.5606 197.628C28.511 191.497 40.1241 191.286 39.8677 192.036C39.8677 192.036 27.0751 195.409 22.2505 205.674C18.5306 213.59 17.6152 218.642 17.6152 218.642V218.642Z" fill="white"/>
</g>
<path d="M16.1148 296.552C24.607 296.552 31.4914 289.668 31.4914 281.175C31.4914 272.683 24.607 265.799 16.1148 265.799C7.62253 265.799 0.738205 272.683 0.738205 281.175C0.738205 289.668 7.62253 296.552 16.1148 296.552Z" fill="#FFD62C"/>
<path d="M31.4907 281.177C31.4907 289.667 24.6079 296.552 16.1153 296.552C10.1834 296.552 5.03595 293.194 2.47217 288.274C5.23055 292.392 9.92541 295.101 15.2541 295.101C23.7463 295.101 30.631 288.217 30.631 279.725C30.631 277.17 30.0083 274.76 28.9036 272.641C30.5379 275.082 31.4903 278.018 31.4903 281.177L31.4907 281.177Z" fill="#FFB42E"/>
<g opacity="0.7">
<path d="M30.7636 276.495C28.6538 271.573 24.049 267.973 18.5388 267.29V267.298C18.5632 267.875 17.4276 268.391 16.0044 268.453C14.5796 268.513 13.4062 268.095 13.3814 267.518V267.513C6.44637 269 1.24669 275.168 1.24669 282.547C1.24669 284.173 1.49852 285.739 1.96748 287.209C1.17648 285.358 0.738815 283.318 0.738815 281.178C0.738815 272.685 7.62313 265.801 16.1158 265.801C22.9757 265.801 28.7851 270.293 30.7639 276.494L30.7636 276.495Z" fill="white"/>
</g>
<path d="M16.1149 297.29C7.22926 297.29 0 290.061 0 281.175C0 272.29 7.22926 265.061 16.1149 265.061C25.0006 265.061 32.2298 272.29 32.2298 281.175C32.2298 290.061 25.0006 297.29 16.1149 297.29ZM16.1149 266.538C8.04353 266.538 1.47706 273.104 1.47706 281.175C1.47706 289.247 8.04353 295.813 16.1149 295.813C24.1863 295.813 30.7528 289.247 30.7528 281.175C30.7528 273.104 24.1863 266.538 16.1149 266.538V266.538Z" fill="#371A45"/>
<path d="M16.1149 292.734C22.4983 292.734 27.6731 287.559 27.6731 281.175C27.6731 274.792 22.4983 269.617 16.1149 269.617C9.73149 269.617 4.55672 274.792 4.55672 281.175C4.55672 287.559 9.73149 292.734 16.1149 292.734Z" fill="#FF9C43"/>
<path d="M16.1149 292.734C22.4983 292.734 27.6731 287.559 27.6731 281.175C27.6731 274.792 22.4983 269.617 16.1149 269.617C9.73149 269.617 4.55672 274.792 4.55672 281.175C4.55672 287.559 9.73149 292.734 16.1149 292.734Z" fill="#FF9C43"/>
<path d="M27.6734 281.177C27.6734 287.56 22.4982 292.735 16.1152 292.735C10.8911 292.735 6.47902 289.271 5.04736 284.514C6.78123 288.706 10.9106 291.655 15.7295 291.655C22.1139 291.655 27.2877 286.48 27.2877 280.097C27.2877 278.937 27.1179 277.818 26.7989 276.762C27.3624 278.121 27.673 279.613 27.673 281.177H27.6734Z" fill="#FF7A45"/>
<path d="M4.55672 281.175C4.55672 274.792 9.73197 269.617 16.1149 269.617C21.339 269.617 25.7511 273.081 27.1828 277.839C25.4489 273.647 21.3195 270.697 16.5007 270.697C10.1162 270.697 4.94249 275.873 4.94249 282.256C4.94249 283.416 5.11229 284.535 5.43128 285.591C4.8677 284.231 4.5571 282.739 4.5571 281.175H4.55672Z" fill="#FF7A45"/>
<path d="M19.501 283.492C19.501 284.881 18.4303 285.952 16.9914 286.287V287.96H15.1175V286.253C13.6618 285.868 12.5244 284.714 12.4072 284.597L13.7458 283.258C13.8461 283.375 14.8836 284.463 16.0882 284.463C16.9918 284.463 17.5775 284.012 17.5775 283.509C17.5775 282.003 12.6251 281.719 12.6251 278.841C12.6251 277.453 13.6794 276.382 15.1179 276.064V274.391H16.9918V276.097C18.4475 276.482 19.585 277.619 19.7021 277.737L18.3804 279.075C18.2632 278.941 17.2093 277.904 16.0215 277.904C15.1179 277.904 14.5326 278.322 14.5326 278.824C14.5326 280.33 19.5018 280.615 19.5018 283.492H19.501Z" fill="#FFD62C"/>
</g>
<path d="M75.088 98.176V119.92H77.08V98.176H75.088ZM68.416 105.328V106.96H75.736V105.328H68.416ZM60.376 100.6V114.04H62.344V100.6H60.376ZM60.376 112.984V114.664H62.056C65.488 114.664 68.536 114.448 71.992 113.776L71.752 112.096C68.416 112.792 65.416 112.984 62.056 112.984H60.376ZM95.9421 98.152V119.872H97.9581V98.152H95.9421ZM97.4061 106.96V108.616H101.414V106.96H97.4061ZM90.3981 100.504V100.816C90.3981 106.552 87.3981 111.184 81.3981 114.232L82.5021 115.768C89.5101 112.24 92.3421 106.672 92.3421 100.504H90.3981ZM82.4061 100.504V102.136H91.4301V100.504H82.4061ZM124.77 98.152V119.872H126.786V98.152H124.77ZM126.234 106.96V108.616H130.242V106.96H126.234ZM119.226 100.504V100.816C119.226 106.552 116.226 111.184 110.226 114.232L111.33 115.768C118.338 112.24 121.17 106.672 121.17 100.504H119.226ZM111.234 100.504V102.136H120.258V100.504H111.234ZM137.512 100.504V102.256C137.512 105.352 135.352 108.16 132.088 109.312L133.096 110.896C136.744 109.576 139.144 106.24 139.144 102.256V100.504H137.512ZM137.872 100.504V102.232C137.872 105.928 140.176 109.024 143.8 110.224L144.76 108.664C141.568 107.608 139.504 105.064 139.504 102.232V100.504H137.872ZM132.688 99.784V101.416H144.28V99.784H132.688ZM147.016 98.176V111.256H149.008V98.176H147.016ZM148.456 103.672V105.352H152.224V103.672H148.456ZM142.096 111.832C137.68 111.832 134.968 113.296 134.968 115.816C134.968 118.36 137.68 119.824 142.096 119.824C146.512 119.824 149.224 118.36 149.224 115.816C149.224 113.296 146.512 111.832 142.096 111.832ZM142.096 113.44C145.312 113.44 147.28 114.304 147.28 115.816C147.28 117.352 145.312 118.264 142.096 118.264C138.88 118.264 136.912 117.352 136.912 115.816C136.912 114.304 138.88 113.44 142.096 113.44ZM161.013 115.408V117.064H180.669V115.408H161.013ZM169.749 110.152V115.96H171.717V110.152H169.749ZM169.701 99.616V101.296C169.701 104.872 165.597 108.064 161.781 108.76L162.621 110.416C166.989 109.504 171.429 105.928 171.429 101.296V99.616H169.701ZM170.061 99.616V101.296C170.061 105.928 174.501 109.504 178.869 110.416L179.733 108.76C175.917 108.064 171.789 104.896 171.789 101.296V99.616H170.061ZM191.875 109.024V112.816H193.867V109.024H191.875ZM183.067 108.328V109.936H202.675V108.328H183.067ZM192.859 112.216C188.203 112.216 185.419 113.584 185.419 116.032C185.419 118.456 188.203 119.824 192.859 119.824C197.515 119.824 200.299 118.456 200.299 116.032C200.299 113.584 197.515 112.216 192.859 112.216ZM192.859 113.752C196.267 113.752 198.283 114.568 198.283 116.032C198.283 117.472 196.267 118.288 192.859 118.288C189.475 118.288 187.435 117.472 187.435 116.032C187.435 114.568 189.475 113.752 192.859 113.752ZM191.587 99.952V100.6C191.587 103.072 188.059 105.016 184.171 105.424L184.891 107.008C189.379 106.456 193.363 104.104 193.363 100.6V99.952H191.587ZM192.427 99.952V100.6C192.427 104.104 196.387 106.456 200.875 107.008L201.595 105.424C197.707 105.016 194.179 103.072 194.179 100.6V99.952H192.427ZM184.867 99.16V100.768H200.923V99.16H184.867ZM220.913 98.176V119.872H222.905V98.176H220.913ZM205.649 101.68V103.288H218.657V101.68H205.649ZM212.177 105.064C209.057 105.064 206.825 107.128 206.825 110.056C206.825 112.984 209.057 115.048 212.177 115.048C215.297 115.048 217.553 112.984 217.553 110.056C217.553 107.128 215.297 105.064 212.177 105.064ZM212.177 106.72C214.169 106.72 215.633 108.088 215.633 110.056C215.633 112 214.169 113.392 212.177 113.392C210.185 113.392 208.721 112 208.721 110.056C208.721 108.088 210.185 106.72 212.177 106.72ZM211.145 98.392V102.664H213.137V98.392H211.145ZM243.765 103V104.656H250.317V103H243.765ZM243.765 109.864V111.52H250.317V109.864H243.765ZM239.781 99.832C236.613 99.832 234.381 102.784 234.381 107.392C234.381 112.024 236.613 114.976 239.781 114.976C242.925 114.976 245.181 112.024 245.181 107.392C245.181 102.784 242.925 99.832 239.781 99.832ZM239.781 101.632C241.869 101.632 243.309 103.888 243.309 107.392C243.309 110.92 241.869 113.224 239.781 113.224C237.693 113.224 236.253 110.92 236.253 107.392C236.253 103.888 237.693 101.632 239.781 101.632ZM249.885 98.152V119.896H251.853V98.152H249.885ZM271.867 98.176V119.872H273.859V98.176H271.867ZM265.507 100.504V100.84C265.507 106.6 262.603 111.208 256.339 114.232L257.395 115.84C264.643 112.288 267.475 106.792 267.475 100.504H265.507ZM257.323 100.504V102.136H266.371V100.504H257.323ZM280.793 104.68V106.312H295.529V104.68H280.793ZM278.129 109.216V110.848H297.809V109.216H278.129ZM280.793 98.968V105.496H282.761V98.968H280.793ZM280.649 117.712V119.344H295.649V117.712H280.649ZM280.649 113.008V118.144H282.617V113.008H280.649ZM315.765 108.424V111.76H317.733V108.424H315.765ZM306.957 107.32V108.928H326.565V107.32H306.957ZM309.501 98.896V105.496H324.021V98.896H309.501ZM322.077 100.48V103.912H311.469V100.48H322.077ZM309.333 111.04V112.576H322.101V114.472H309.381V118.552H311.349V115.912H324.069V111.04H309.333ZM309.381 118.072V119.632H324.717V118.072H309.381ZM344.899 98.176V114.208H346.891V98.176H344.899ZM340.219 104.872V106.528H345.283V104.872H340.219ZM338.203 99.856V100.648C338.203 104.944 334.675 108.352 329.371 110.128L330.235 111.736C336.355 109.696 340.291 105.448 340.291 99.856H338.203ZM330.451 99.856V101.488H339.499V99.856H330.451ZM333.187 117.76V119.392H347.443V117.76H333.187ZM333.187 112.6V118.576H335.179V112.6H333.187ZM351.114 109.576V111.208H370.722V109.576H351.114ZM353.658 117.76V119.392H368.562V117.76H353.658ZM353.658 113.104V118.264H355.65V113.104H353.658ZM360.93 98.896C356.273 98.896 353.298 100.528 353.298 103.24C353.298 105.928 356.273 107.56 360.93 107.56C365.562 107.56 368.562 105.928 368.562 103.24C368.562 100.528 365.562 98.896 360.93 98.896ZM360.93 100.528C364.338 100.528 366.522 101.536 366.522 103.24C366.522 104.944 364.338 105.952 360.93 105.952C357.522 105.952 355.338 104.944 355.338 103.24C355.338 101.536 357.522 100.528 360.93 100.528ZM59.176 139.776V141.408H78.856V139.776H59.176ZM67.96 140.76V148.872H69.928V140.76H67.96ZM61.672 128.376V136.848H76.312V128.376H61.672ZM74.368 129.984V135.24H63.64V129.984H74.368ZM97.1181 127.176V142.056H99.1101V127.176H97.1181ZM91.9341 133.104V134.736H97.6701V133.104H91.9341ZM87.1821 128.64C83.9661 128.64 81.5901 130.8 81.5901 133.896C81.5901 136.968 83.9661 139.152 87.1821 139.152C90.3741 139.152 92.7741 136.968 92.7741 133.896C92.7741 130.8 90.3741 128.64 87.1821 128.64ZM87.1821 130.344C89.2941 130.344 90.8541 131.808 90.8541 133.896C90.8541 135.96 89.2941 137.448 87.1821 137.448C85.0701 137.448 83.5101 135.96 83.5101 133.896C83.5101 131.808 85.0701 130.344 87.1821 130.344ZM91.1181 140.352V141.192C91.1181 144.144 87.6861 146.544 83.8461 147.192L84.6141 148.776C89.0301 147.984 92.8221 145.104 92.8221 141.192V140.352H91.1181ZM91.4541 140.352V141.192C91.4541 145.2 95.2701 147.96 99.6621 148.776L100.454 147.192C96.5661 146.544 93.1581 144.216 93.1581 141.192V140.352H91.4541ZM119.124 127.2V143.04H121.14V127.2H119.124ZM107.196 146.76V148.392H121.788V146.76H107.196ZM107.196 141.408V147.312H109.164V141.408H107.196ZM109.5 128.688C106.26 128.688 103.836 130.896 103.836 134.04C103.836 137.16 106.26 139.392 109.5 139.392C112.74 139.392 115.14 137.16 115.14 134.04C115.14 130.896 112.74 128.688 109.5 128.688ZM109.5 130.416C111.612 130.416 113.22 131.904 113.22 134.04C113.22 136.152 111.612 137.64 109.5 137.64C107.388 137.64 105.78 136.152 105.78 134.04C105.78 131.904 107.388 130.416 109.5 130.416ZM131.17 130.272V133.8C131.17 137.544 128.554 141.624 125.41 143.112L126.562 144.696C130.018 142.992 132.778 138.384 132.778 133.8V130.272H131.17ZM131.554 130.272V133.8C131.554 138.312 134.338 142.536 137.842 144.168L138.97 142.584C135.778 141.216 133.162 137.472 133.162 133.8V130.272H131.554ZM126.13 129.384V131.064H138.25V129.384H126.13ZM141.178 127.176V148.872H143.17V127.176H141.178ZM159.783 129.384V131.136C159.783 134.208 157.551 137.088 154.311 138.24L155.343 139.824C158.967 138.48 161.415 135.096 161.415 131.136V129.384H159.783ZM160.167 129.384V131.136C160.167 134.76 162.495 138.024 166.023 139.32L167.031 137.736C163.887 136.632 161.775 133.92 161.775 131.136V129.384H160.167ZM165.855 132.816V134.472H170.679V132.816H165.855ZM154.935 128.664V130.272H166.527V128.664H154.935ZM157.623 141.336V142.968H170.103V148.872H172.095V141.336H157.623ZM170.103 127.176V140.16H172.095V127.176H170.103ZM182.125 128.832C178.957 128.832 176.725 131.784 176.725 136.392C176.725 141.024 178.957 143.976 182.125 143.976C185.269 143.976 187.525 141.024 187.525 136.392C187.525 131.784 185.269 128.832 182.125 128.832ZM182.125 130.632C184.213 130.632 185.629 132.888 185.629 136.392C185.629 139.92 184.213 142.224 182.125 142.224C180.037 142.224 178.621 139.92 178.621 136.392C178.621 132.888 180.037 130.632 182.125 130.632ZM192.229 127.152V148.896H194.197V127.152H192.229ZM186.877 135.432V137.064H193.093V135.432H186.877ZM207.107 129.312V130.224C207.107 133.08 203.387 135.576 199.571 136.128L200.339 137.712C204.707 136.968 208.835 134.112 208.835 130.224V129.312H207.107ZM207.611 129.312V130.224C207.611 134.112 211.715 136.968 216.107 137.712L216.851 136.128C213.059 135.576 209.315 133.08 209.315 130.224V129.312H207.611ZM207.179 140.592V148.872H209.147V140.592H207.179ZM198.419 139.536V141.168H218.027V139.536H198.419ZM200.243 128.52V130.128H216.131V128.52H200.243ZM228.009 128.76V129.408C228.009 133.512 225.465 136.704 220.689 138.672L221.697 140.136C227.121 137.832 230.001 133.944 230.001 128.76H228.009ZM221.625 128.76V130.416H228.777V128.76H221.625ZM236.865 127.176V139.704H238.761V127.176H236.865ZM227.769 133.344V134.952H233.001V133.344H227.769ZM232.569 127.632V139.368H234.441V127.632H232.569ZM226.113 140.448V141.864C226.113 143.976 224.457 146.328 221.745 147.312L222.729 148.8C225.849 147.6 227.649 144.72 227.649 141.864V140.448H226.113ZM226.545 140.448V141.864C226.545 144.768 227.937 147.744 231.081 148.992L231.921 147.504C229.305 146.4 228.033 144.072 228.033 141.864V140.448H226.545ZM234.081 140.448V141.864C234.081 143.736 232.809 146.304 230.193 147.504L231.081 148.992C234.153 147.672 235.569 144.432 235.569 141.864V140.448H234.081ZM234.489 140.448V141.864C234.489 144.888 236.265 147.648 239.409 148.8L240.393 147.312C237.657 146.4 236.025 144.144 236.025 141.864V140.448H234.489ZM258.343 127.176V148.872H260.335V127.176H258.343ZM243.943 129.288V142.728H245.911V129.288H243.943ZM243.943 141.552V143.28H245.719C249.151 143.28 252.583 143.016 256.351 142.248L256.111 140.544C252.439 141.312 249.007 141.552 245.719 141.552H243.943ZM267.919 142.091V141.989C267.93 140.903 268.044 140.04 268.26 139.398C268.476 138.756 268.783 138.236 269.18 137.838C269.578 137.44 270.055 137.074 270.612 136.739C270.947 136.534 271.249 136.293 271.516 136.014C271.783 135.73 271.993 135.403 272.146 135.034C272.305 134.665 272.385 134.256 272.385 133.807C272.385 133.25 272.254 132.767 271.993 132.358C271.732 131.949 271.382 131.634 270.945 131.412C270.507 131.19 270.021 131.08 269.487 131.08C269.021 131.08 268.572 131.176 268.141 131.369C267.709 131.562 267.348 131.866 267.058 132.281C266.768 132.696 266.601 133.239 266.555 133.909H264.408C264.453 132.943 264.703 132.116 265.158 131.429C265.618 130.741 266.223 130.216 266.973 129.852C267.729 129.489 268.567 129.307 269.487 129.307C270.487 129.307 271.357 129.506 272.095 129.903C272.839 130.301 273.413 130.847 273.817 131.54C274.226 132.233 274.43 133.023 274.43 133.909C274.43 134.534 274.334 135.099 274.141 135.605C273.953 136.111 273.68 136.562 273.322 136.96C272.97 137.358 272.544 137.71 272.044 138.017C271.544 138.33 271.143 138.659 270.842 139.006C270.541 139.347 270.322 139.753 270.186 140.224C270.05 140.696 269.976 141.284 269.964 141.989V142.091H267.919ZM269.01 147.136C268.589 147.136 268.229 146.986 267.928 146.685C267.626 146.384 267.476 146.023 267.476 145.602C267.476 145.182 267.626 144.821 267.928 144.52C268.229 144.219 268.589 144.068 269.01 144.068C269.43 144.068 269.791 144.219 270.092 144.52C270.393 144.821 270.544 145.182 270.544 145.602C270.544 145.881 270.473 146.136 270.331 146.369C270.195 146.602 270.01 146.79 269.777 146.932C269.55 147.068 269.294 147.136 269.01 147.136Z" fill="black"/>
<defs>
<clipPath id="clip0_509_2229">
<rect width="130" height="152.65" fill="white" transform="translate(0 147)"/>
</clipPath>
</defs>
</svg>
