<svg width="500" height="304" viewBox="0 0 500 304" fill="none" xmlns="http://www.w3.org/2000/svg">
<path d="M99.3471 104L280.88 108.185C300.367 108.185 316 113.245 316 119.552L304.822 155.255C304.822 161.562 292.356 166.141 272.87 166.141L186.913 166.834H166.016L115.722 183L125.444 166.834L103.5 166.141C84.013 166.141 78.697 161.557 78.697 155.249L61 117.471C61 111.164 79.861 104 99.3471 104Z" fill="white" stroke="black" stroke-width="2" stroke-linecap="round" stroke-linejoin="round"/>
<path d="M102.608 125.856V135.984H107.696V125.856H106.16V129.24H104.144V125.856H102.608ZM104.144 130.824H106.16V134.376H104.144V130.824ZM108.872 125.856V135.984H113.96V125.856H112.424V129.24H110.408V125.856H108.872ZM110.408 130.824H112.424V134.376H110.408V130.824ZM119.312 124.2V138.984H121.064V124.2H119.312ZM116.48 129.888V131.52H120.032V129.888H116.48ZM115.496 124.584V137.304H117.224V124.584H115.496ZM112.4 138.024V138.576C112.4 141.456 108.68 143.712 104.72 144.24L105.44 145.8C109.952 145.104 114.128 142.464 114.128 138.576V138.024H112.4ZM112.712 138.024V138.576C112.712 142.464 116.888 145.104 121.4 145.8L122.12 144.24C118.136 143.712 114.44 141.456 114.44 138.576V138.024H112.712ZM130.062 125.832C126.894 125.832 124.662 128.784 124.662 133.392C124.662 138.024 126.894 140.976 130.062 140.976C133.206 140.976 135.462 138.024 135.462 133.392C135.462 128.784 133.206 125.832 130.062 125.832ZM130.062 127.632C132.15 127.632 133.566 129.888 133.566 133.392C133.566 136.92 132.15 139.224 130.062 139.224C127.974 139.224 126.558 136.92 126.558 133.392C126.558 129.888 127.974 127.632 130.062 127.632ZM140.166 124.152V145.896H142.134V124.152H140.166ZM134.814 132.432V134.064H141.03V132.432H134.814ZM161.02 124.152V145.872H163.036V124.152H161.02ZM162.484 132.96V134.616H166.492V132.96H162.484ZM155.476 126.504V126.816C155.476 132.552 152.476 137.184 146.476 140.232L147.58 141.768C154.588 138.24 157.42 132.672 157.42 126.504H155.476ZM147.484 126.504V128.136H156.508V126.504H147.484ZM171.074 130.68V132.312H185.81V130.68H171.074ZM168.41 135.216V136.848H188.09V135.216H168.41ZM171.074 124.968V131.496H173.042V124.968H171.074ZM170.93 143.712V145.344H185.93V143.712H170.93ZM170.93 139.008V144.144H172.898V139.008H170.93ZM213.103 124.176V145.872H215.095V124.176H213.103ZM208.039 132.864V134.52H213.991V132.864H208.039ZM206.143 126.504V126.84C206.143 132.504 203.551 137.112 197.239 140.208L198.343 141.768C205.543 138.168 208.111 132.696 208.111 126.504H206.143ZM198.175 126.504V128.136H207.199V126.504H198.175ZM235.397 129.624V131.304H239.381V129.624H235.397ZM235.397 136.056V137.736H239.381V136.056H235.397ZM234.005 124.152V145.872H236.021V124.152H234.005ZM220.181 126.288V139.728H222.173V126.288H220.181ZM220.181 138.696V140.424H221.933C225.221 140.424 228.533 140.184 232.229 139.416L231.989 137.736C228.413 138.48 225.125 138.696 221.933 138.696H220.181ZM243.867 125.592V127.2H257.427V125.592H243.867ZM241.419 134.904V136.536H261.027V134.904H241.419ZM250.179 135.984V145.896H252.171V135.984H250.179ZM256.491 125.592V127.464C256.491 129.648 256.491 132.168 255.651 135.672L257.619 135.936C258.435 132.264 258.435 129.72 258.435 127.464V125.592H256.491ZM266.763 139.091V138.989C266.774 137.903 266.888 137.04 267.104 136.398C267.32 135.756 267.626 135.236 268.024 134.838C268.422 134.44 268.899 134.074 269.456 133.739C269.791 133.534 270.092 133.293 270.359 133.014C270.626 132.73 270.837 132.403 270.99 132.034C271.149 131.665 271.229 131.256 271.229 130.807C271.229 130.25 271.098 129.767 270.837 129.358C270.575 128.949 270.226 128.634 269.788 128.412C269.351 128.19 268.865 128.08 268.331 128.08C267.865 128.08 267.416 128.176 266.984 128.369C266.553 128.562 266.192 128.866 265.902 129.281C265.612 129.696 265.445 130.239 265.399 130.909H263.251C263.297 129.943 263.547 129.116 264.001 128.429C264.462 127.741 265.067 127.216 265.817 126.852C266.572 126.489 267.411 126.307 268.331 126.307C269.331 126.307 270.2 126.506 270.939 126.903C271.683 127.301 272.257 127.847 272.661 128.54C273.07 129.233 273.274 130.023 273.274 130.909C273.274 131.534 273.178 132.099 272.984 132.605C272.797 133.111 272.524 133.562 272.166 133.96C271.814 134.358 271.388 134.71 270.888 135.017C270.388 135.33 269.987 135.659 269.686 136.006C269.385 136.347 269.166 136.753 269.03 137.224C268.893 137.696 268.82 138.284 268.808 138.989V139.091H266.763ZM267.854 144.136C267.433 144.136 267.072 143.986 266.771 143.685C266.47 143.384 266.32 143.023 266.32 142.602C266.32 142.182 266.47 141.821 266.771 141.52C267.072 141.219 267.433 141.068 267.854 141.068C268.274 141.068 268.635 141.219 268.936 141.52C269.237 141.821 269.388 142.182 269.388 142.602C269.388 142.881 269.317 143.136 269.175 143.369C269.038 143.602 268.854 143.79 268.621 143.932C268.393 144.068 268.138 144.136 267.854 144.136Z" fill="black"/>
<g clip-path="url(#clip0_509_1560)">
<g opacity="0.2">
<path d="M61.701 303.286C88.4247 303.286 110.089 301.423 110.089 299.125C110.089 296.826 88.4247 294.963 61.701 294.963C34.9772 294.963 13.3134 296.826 13.3134 299.125C13.3134 301.423 34.9772 303.286 61.701 303.286Z" fill="#371A45"/>
</g>
<path d="M66.2454 256.203C65.724 250.515 63.0105 247.676 63.0105 247.676C60.0228 247.824 58.2813 246.52 57.6538 243.918H53.0029C53.0029 243.918 49.8466 245.075 51.02 247.281C52.1935 249.487 55.8662 249.487 55.8662 249.487C55.8662 249.487 59.9828 249.297 60.4456 251.218C60.9083 253.139 62.5312 257.603 62.5312 257.603L65.8152 257.84L66.2454 256.202V256.203Z" fill="#AFB5BC"/>
<path d="M12.591 257.79C-4.59765 238.386 6.35544 196.472 24.1229 193.625C13.0333 211.599 9.27119 233.027 12.591 257.79V257.79Z" fill="#AFB5BC"/>
<g opacity="0.6">
<path d="M24.1229 193.625C23.7975 194.154 23.4763 194.686 23.1638 195.22C7.20807 200.848 -2.06765 238.03 12.5107 257.18C12.5369 257.384 12.5627 257.586 12.591 257.79C-4.59765 238.386 6.35544 196.472 24.1229 193.625Z" fill="white"/>
</g>
<path d="M24.1229 193.625C12.6783 206.348 7.47434 224.291 8.5421 241.205C8.96529 246.885 10.2066 252.54 12.5909 257.79C11.1474 255.295 10.0497 252.597 9.21413 249.824C8.60452 247.738 8.11766 245.608 7.80765 243.456C5.30552 226.124 11.0659 205.659 24.1233 193.625L24.1229 193.625Z" fill="#371A45"/>
<g opacity="0.25">
<path d="M12.5909 257.79C2.82712 238.866 8.61825 208.924 24.1229 193.625C13.0333 211.599 9.27115 233.027 12.5909 257.79V257.79Z" fill="#371A45"/>
</g>
<path d="M4.15087 220.036L3.1759 219.891C2.01326 219.717 0.933848 220.529 0.779467 221.695L0.669196 222.525C0.523138 223.627 1.25967 224.652 2.35073 224.866L3.24414 225.041" fill="#E86B34"/>
<path d="M66.4052 246.053L63.4391 248.204L66.2454 252.923L66.6582 250.397" fill="white"/>
<path d="M12.5914 258.441C12.4092 258.441 12.2306 258.365 12.1041 258.222C7.25093 252.743 4.28067 245.127 3.5146 236.198C2.83133 228.233 3.95444 219.655 6.67669 212.044C10.5449 201.229 17.0285 194.103 24.0205 192.983C24.2719 192.943 24.5236 193.052 24.6651 193.264C24.8062 193.476 24.8112 193.75 24.6776 193.967C13.7832 211.624 9.93407 233.068 13.2368 257.704C13.2747 257.988 13.1232 258.263 12.8627 258.382C12.7758 258.422 12.6834 258.441 12.5922 258.441H12.5914ZM22.7759 194.597C16.8134 196.347 11.3322 202.893 7.90258 212.482C3.34149 225.234 2.73978 243.757 11.663 255.625C10.3019 244.034 10.5196 233.085 12.313 223.047C14.1423 212.809 17.6606 203.245 22.7759 194.597V194.597Z" fill="#371A45"/>
<path d="M15.2749 222.25L14.2184 227.013L13.9645 228.156C13.7149 229.287 12.5564 229.964 11.4479 229.63L4.83239 227.631C3.81914 227.328 3.15502 226.36 3.22701 225.305C3.25322 224.932 3.2811 224.565 3.31814 224.205C3.45712 222.756 3.6914 221.397 4.08837 220.2C4.43542 219.15 5.50942 218.52 6.59882 218.701L13.657 219.857C14.7831 220.041 15.5229 221.137 15.2757 222.25L15.2749 222.25Z" fill="#AFB5BC"/>
<g opacity="0.6">
<path d="M15.275 222.25L15.1298 222.908C14.9604 222.139 14.34 221.51 13.5111 221.374L6.45534 220.215C5.36386 220.037 4.29193 220.667 3.94489 221.715C3.60659 222.739 3.38521 223.878 3.24207 225.09C3.37023 223.307 3.61324 221.638 4.08845 220.2C4.4355 219.15 5.5095 218.52 6.5989 218.701L13.6571 219.857C14.7831 220.041 15.523 221.137 15.2758 222.25H15.275Z" fill="white"/>
</g>
<path d="M12.0209 230.364C11.765 230.364 11.5087 230.327 11.2598 230.252L4.64394 228.255C3.33566 227.86 2.48511 226.628 2.57583 225.261C2.72147 223.075 3.00568 221.401 3.47048 219.995C3.91906 218.638 5.27727 217.824 6.70456 218.057L13.7607 219.215C14.4839 219.333 15.1089 219.733 15.5196 220.34C15.9303 220.947 16.0693 221.676 15.9104 222.392L14.6 228.297C14.4415 229.012 13.9883 229.634 13.3566 230.003C12.9493 230.242 12.4861 230.365 12.0213 230.365L12.0209 230.364ZM6.23268 219.32C5.55066 219.32 4.92149 219.752 4.70677 220.403C4.27734 221.703 4.0131 223.274 3.87495 225.347C3.82418 226.106 4.29523 226.789 5.02011 227.008L11.636 229.006C11.9964 229.115 12.3738 229.07 12.6988 228.88C13.0238 228.689 13.2476 228.382 13.3292 228.015L14.6395 222.11C14.7199 221.747 14.6495 221.377 14.4415 221.07C14.2334 220.762 13.9163 220.56 13.5497 220.499L6.49317 219.342C6.4062 219.328 6.31882 219.32 6.23227 219.32L6.23268 219.32Z" fill="#371A45"/>
<path d="M10.6802 230.048C10.6177 230.048 10.5545 230.039 10.4917 230.02L9.80131 229.812C8.51092 229.422 7.74651 228.134 8.02323 226.814L9.24953 220.971C9.53374 219.617 10.825 218.733 12.1898 218.956L12.7399 219.047C13.0949 219.105 13.335 219.44 13.2767 219.794C13.2185 220.149 12.8831 220.389 12.529 220.331L11.9789 220.241C11.3031 220.13 10.6639 220.568 10.5233 221.238L9.29697 227.081C9.16007 227.734 9.53874 228.372 10.1775 228.565L10.8678 228.773C11.212 228.877 11.4067 229.241 11.3027 229.585C11.2174 229.866 10.9594 230.047 10.6797 230.047L10.6802 230.048Z" fill="#371A45"/>
<path d="M12.2972 224.191L12.1283 225.072C11.9539 225.981 12.5148 226.869 13.4103 227.103L35.3061 232.817L36.1508 227.438L14.3886 222.803C13.4257 222.597 12.4824 223.223 12.2972 224.19V224.191Z" fill="#E86B34"/>
<g opacity="0.6">
<path d="M36.15 227.438L35.3062 232.816L35.2887 232.812L35.9332 228.703L14.1731 224.068C13.2314 223.866 12.3093 224.461 12.0967 225.389C12.0967 225.283 12.1075 225.178 12.1291 225.07L12.2985 224.189C12.4828 223.224 13.4266 222.597 14.3899 222.803L36.15 227.437V227.438Z" fill="white"/>
</g>
<path d="M35.3057 233.467C35.2508 233.467 35.1955 233.459 35.1414 233.445L13.2456 227.731C12.0226 227.412 11.2511 226.189 11.4887 224.948L11.6577 224.067C11.7804 223.426 12.1474 222.875 12.6909 222.514C13.2348 222.153 13.8856 222.029 14.5239 222.165L36.2861 226.8C36.6244 226.872 36.8475 227.196 36.7938 227.538L35.9486 232.917C35.9199 233.099 35.8159 233.26 35.6623 233.361C35.5554 233.431 35.4314 233.467 35.3057 233.467V233.467ZM12.9364 224.312L12.7675 225.193C12.6584 225.764 13.0125 226.325 13.5743 226.472L34.7743 232.004L35.4118 227.945L14.253 223.438C13.9601 223.376 13.6609 223.433 13.4112 223.599C13.1615 223.764 12.993 224.018 12.9364 224.312V224.312Z" fill="#371A45"/>
<path d="M38.1936 233.842L35.451 263.988L29.7705 270.639C29.6644 270.652 29.56 270.665 29.4559 270.676C26.6484 270.997 24.4766 270.819 22.7951 270.329C16.1426 268.389 17.2079 261.556 17.2407 261.353C17.2428 261.351 17.2428 261.348 17.2428 261.348L17.2362 261.342C14.858 259.385 15.9408 253.75 16.2121 250.116C16.4834 246.477 18.2365 245.766 18.2365 245.766C18.2365 245.766 18.4533 243.52 19.7553 236.536C20.506 232.515 23.4155 231.046 25.7525 230.523C27.4752 230.139 28.8854 230.269 28.8854 230.269L29.5192 230.512L38.1936 233.843V233.842Z" fill="white"/>
<path d="M64.628 231.107L86.7243 236.423C88.4708 236.843 89.3796 238.772 88.591 240.386C88.0076 241.58 86.6682 242.202 85.3798 241.876L59.3932 235.313" fill="#E86B34"/>
<path d="M86.0586 242.613C85.7806 242.613 85.4989 242.579 85.2205 242.509L59.2338 235.946C58.8851 235.858 58.6742 235.504 58.762 235.155C58.8502 234.807 59.2039 234.596 59.5522 234.684L85.5388 241.247C86.5242 241.495 87.5603 241.014 88.006 240.102C88.2948 239.511 88.2998 238.83 88.0193 238.235C87.7393 237.64 87.2116 237.211 86.5721 237.057L64.4757 231.741C64.1262 231.657 63.911 231.306 63.9951 230.956C64.0791 230.606 64.4312 230.391 64.7803 230.475L86.8767 235.79C87.902 236.037 88.7479 236.725 89.1974 237.68C89.6468 238.634 89.6389 239.725 89.1757 240.672C88.5877 241.876 87.356 242.612 86.0586 242.612V242.613Z" fill="#371A45"/>
<path d="M74.53 236.195C74.53 236.195 75.7708 237.916 74.7222 239.435V244.045H66.6582C66.6582 244.045 63.2635 238.947 57.4753 239.706L45.6912 245.293L39.6429 237.243L62.753 234.986C62.753 234.986 67.9603 238.288 69.6597 240.94L70.3829 239.705C70.3829 239.705 69.1304 234.149 74.53 236.195V236.195Z" fill="white"/>
<path d="M64.1349 247.408C62.5986 247.974 60.8867 247.727 59.496 246.863C58.3484 246.15 57.6085 245.208 57.834 243.72H53.8484C52.3146 243.72 51.0733 244.963 51.0733 246.495C51.0733 247.263 51.3838 247.955 51.8848 248.458C52.3883 248.959 53.0803 249.27 53.8484 249.27H56.7971C58.4786 249.27 60.0232 250.224 60.7415 251.743C61.3773 253.084 62.076 255.108 62.6315 258.133L63.1479 268.335C62.857 274.56 60.1864 283.3 60.1864 283.3L59.5701 291.545C63.1849 291.844 63.7317 294.545 63.6514 296.47C63.606 297.557 62.7097 298.414 61.6207 298.414H47.9275L47.8929 298.535C47.6566 299.384 46.8838 299.97 46.0054 299.97H38.6738C36.7755 299.97 34.9246 299.358 33.4078 298.217C32.1104 297.243 30.6564 295.943 29.845 294.546C28.3586 291.983 30.329 288.123 31.7675 285.55C31.9714 285.181 32.1665 284.836 32.3405 284.528C32.9305 283.476 33.1735 282.489 33.2584 281.703C33.3496 280.87 33.2281 280.028 32.9351 279.242C32.0022 276.734 28.9104 268.39 27.5672 264.423C25.9768 259.721 26.9164 248.076 29.086 239.706C31.2557 231.335 39.6438 230.463 39.6438 230.463L39.3662 236.855C41.9612 239.669 44.1504 242.481 45.9384 245.293L54.0748 241.075C54.0748 241.075 61.235 237.482 64.8694 242.689C66.8892 245.581 65.6417 246.851 64.1362 247.409L64.1349 247.408Z" fill="white"/>
<path d="M52.6395 255.096C53.0777 255.566 53.3511 256.226 53.3511 256.955C53.3511 258.383 52.3054 259.542 51.0187 259.542C49.7321 259.542 48.7318 258.433 48.6885 257.049" fill="#22A7F0"/>
<path d="M46.0042 300.621H38.6725C36.639 300.621 34.6299 299.952 33.0154 298.738C31.261 297.418 30.0052 296.118 29.2824 294.872C27.496 291.793 30.0131 287.33 31.5174 284.664C31.6064 284.506 31.6917 284.355 31.772 284.211C32.2319 283.389 32.514 282.521 32.6109 281.633C32.6879 280.928 32.5889 280.18 32.3246 279.47C31.4038 276.994 28.2949 268.605 26.95 264.632C25.2573 259.63 26.3612 247.621 28.4552 239.543C30.7122 230.835 39.4865 229.825 39.5751 229.816C39.9296 229.779 40.2526 230.039 40.2896 230.396C40.3266 230.754 40.067 231.074 39.7095 231.111C39.3862 231.146 31.7421 232.051 29.7152 239.87C27.4178 248.733 26.7162 259.882 28.1826 264.215C29.5217 268.171 32.6251 276.545 33.5443 279.017C33.8789 279.916 34.0033 280.87 33.9042 281.774C33.7881 282.837 33.4532 283.871 32.9072 284.847C32.8261 284.992 32.7399 285.145 32.6501 285.305C31.2827 287.728 28.9944 291.785 30.4072 294.22C31.0326 295.298 32.2048 296.501 33.7969 297.698C35.1871 298.744 36.9182 299.32 38.6713 299.32H46.0029C46.588 299.32 47.1069 298.926 47.2642 298.363L47.2983 298.241C47.3769 297.96 47.6333 297.765 47.9254 297.765H61.6199C62.3635 297.765 62.9698 297.185 63.0001 296.444C63.1087 293.824 61.9365 292.394 59.516 292.194C59.1598 292.164 58.8939 291.853 58.9205 291.497L59.5351 283.252C59.5389 283.203 59.5476 283.156 59.5617 283.11C59.588 283.023 62.2037 274.407 62.4958 268.337L61.9836 258.21C61.5142 255.678 60.8983 253.597 60.1526 252.023C59.548 250.747 58.2306 249.923 56.7966 249.923H53.8472C51.9576 249.923 50.4208 248.385 50.4208 246.496C50.4208 244.607 51.958 243.07 53.8472 243.07H57.834C58.0238 243.07 58.2044 243.153 58.3279 243.297C58.4515 243.441 58.5065 243.631 58.4778 243.819C58.3167 244.873 58.7241 245.619 59.8397 246.311C61.0976 247.093 62.6194 247.275 63.9094 246.798C64.6288 246.532 65.0666 246.164 65.2106 245.704C65.4066 245.079 65.1032 244.165 64.3338 243.062C61.0598 238.371 54.4318 241.623 54.3652 241.657L46.2364 245.871C45.9367 246.026 45.5685 245.927 45.3871 245.642C43.6289 242.876 41.4418 240.068 38.886 237.297C38.6426 237.033 38.6588 236.621 38.9231 236.378C39.1877 236.134 39.5992 236.151 39.8427 236.415C42.2974 239.076 44.4208 241.774 46.1627 244.443L53.7731 240.497C53.8576 240.455 61.4892 236.713 65.4007 242.317C66.424 243.784 66.7781 245.054 66.4523 246.093C66.181 246.958 65.4773 247.606 64.36 248.019C62.6702 248.643 60.7722 248.424 59.1519 247.417C57.8453 246.606 57.1824 245.604 57.1424 244.371H53.8468C52.6754 244.371 51.7225 245.324 51.7225 246.496C51.7225 247.667 52.6754 248.62 53.8468 248.62H56.7962C58.7308 248.62 60.5097 249.737 61.3286 251.465C62.1267 253.15 62.7804 255.353 63.271 258.015C63.276 258.044 63.2794 258.072 63.281 258.101L63.797 268.302C63.7978 268.323 63.7978 268.345 63.797 268.365C63.5153 274.377 61.0997 282.519 60.8276 283.419L60.2642 290.977C62.9656 291.449 64.4278 293.429 64.3005 296.497C64.2406 297.937 63.063 299.065 61.6195 299.065H48.3906C47.9774 299.997 47.0428 300.62 46.0029 300.62L46.0042 300.621Z" fill="#371A45"/>
<path d="M53.848 249.921C53.4884 249.921 53.1971 249.63 53.1971 249.27C53.1971 248.911 53.4888 248.619 53.848 248.619C54.6373 248.619 55.0493 247.899 55.1716 247.226C55.361 246.182 54.9561 244.831 53.6195 244.329C53.2829 244.203 53.1127 243.827 53.2388 243.491C53.3653 243.154 53.741 242.984 54.0768 243.11C56.1125 243.874 56.7354 245.9 56.4524 247.458C56.1807 248.954 55.1587 249.921 53.848 249.921V249.921Z" fill="#371A45"/>
<path d="M66.2446 256.854C65.9121 256.854 65.6283 256.6 65.5971 256.262C65.1049 250.897 62.564 248.151 62.5387 248.124C62.2923 247.864 62.3027 247.452 62.5628 247.205C62.8229 246.958 63.2327 246.967 63.4812 247.226C63.5985 247.349 66.3574 250.297 66.8938 256.143C66.9266 256.501 66.6628 256.818 66.305 256.851C66.2846 256.853 66.2646 256.854 66.2446 256.854V256.854Z" fill="#371A45"/>
<path d="M109.365 248.898H66.6582V257.84H109.365V248.898Z" fill="#FFD243"/>
<g opacity="0.6">
<path d="M109.365 248.898H66.6582V250.255H109.365V248.898Z" fill="white"/>
</g>
<g opacity="0.6">
<path d="M109.365 253.482H66.6582V254.839H109.365V253.482Z" fill="white"/>
</g>
<path d="M103.012 239.434H74.5299V244.207H103.012V239.434Z" fill="#FFD243"/>
<g opacity="0.6">
<path d="M103.012 239.598H74.5299V240.682H103.012V239.598Z" fill="white"/>
</g>
<path d="M105.388 244.207H66.6582V248.898H105.388V244.207Z" fill="#FFD243"/>
<g opacity="0.6">
<path d="M105.388 244.207V248.898H105.08V245.58H66.6582V244.207H105.388Z" fill="white"/>
</g>
<path d="M109.365 254.02H81.3842C81.0247 254.02 80.7334 253.729 80.7334 253.37C80.7334 253.01 81.0251 252.719 81.3842 252.719H109.365C109.725 252.719 110.016 253.01 110.016 253.37C110.016 253.729 109.724 254.02 109.365 254.02Z" fill="#371A45"/>
<path d="M109.365 258.492H66.6583C66.2987 258.492 66.0074 258.2 66.0074 257.841V248.899C66.0074 248.539 66.2991 248.248 66.6583 248.248H109.365C109.725 248.248 110.016 248.539 110.016 248.899V257.841C110.016 258.2 109.725 258.492 109.365 258.492V258.492ZM67.3091 257.19H108.714V249.55H67.3091V257.19V257.19Z" fill="#371A45"/>
<path d="M103.012 244.858H74.53C74.1704 244.858 73.8792 244.567 73.8792 244.207V239.434C73.8792 239.074 74.1708 238.783 74.53 238.783H103.012C103.372 238.783 103.663 239.074 103.663 239.434V244.207C103.663 244.567 103.371 244.858 103.012 244.858ZM75.1812 243.557H102.361V240.085H75.1812V243.557Z" fill="#371A45"/>
<path d="M105.388 249.55H66.6583C66.2987 249.55 66.0074 249.258 66.0074 248.899V244.207C66.0074 243.848 66.2991 243.557 66.6583 243.557H105.388C105.747 243.557 106.039 243.848 106.039 244.207V248.899C106.039 249.258 105.747 249.55 105.388 249.55ZM67.3091 248.248H104.737V244.859H67.3091V248.248Z" fill="#371A45"/>
<path d="M86.728 244.75C86.4284 244.75 86.1854 244.507 86.1854 244.208V239.435C86.1854 239.135 86.4284 238.893 86.728 238.893C87.0277 238.893 87.2707 239.135 87.2707 239.435V244.208C87.2707 244.508 87.0277 244.75 86.728 244.75Z" fill="#371A45"/>
<path d="M97.9562 244.75C97.6566 244.75 97.4136 244.507 97.4136 244.208V239.435C97.4136 239.135 97.6566 238.893 97.9562 238.893C98.2558 238.893 98.4988 239.135 98.4988 239.435V244.208C98.4988 244.508 98.2558 244.75 97.9562 244.75Z" fill="#371A45"/>
<path d="M81.2224 244.262C80.9228 244.262 80.6798 244.019 80.6798 243.72V239.706C80.6798 239.407 80.9228 239.164 81.2224 239.164C81.522 239.164 81.765 239.407 81.765 239.706V243.72C81.765 244.02 81.522 244.262 81.2224 244.262Z" fill="#371A45"/>
<path d="M92.2608 244.262C91.9612 244.262 91.7181 244.019 91.7181 243.72V239.706C91.7181 239.407 91.9612 239.164 92.2608 239.164C92.5604 239.164 92.8034 239.407 92.8034 239.706V243.72C92.8034 244.02 92.5604 244.262 92.2608 244.262Z" fill="#371A45"/>
<path d="M89.7117 249.372C89.4121 249.372 89.1691 249.129 89.1691 248.83V244.208C89.1691 243.909 89.4121 243.666 89.7117 243.666C90.0113 243.666 90.2543 243.909 90.2543 244.208V248.83C90.2543 249.13 90.0113 249.372 89.7117 249.372Z" fill="#371A45"/>
<path d="M83.5822 249.372C83.2826 249.372 83.0396 249.129 83.0396 248.83V244.208C83.0396 243.909 83.2826 243.666 83.5822 243.666C83.8818 243.666 84.1248 243.909 84.1248 244.208V248.83C84.1248 249.13 83.8818 249.372 83.5822 249.372Z" fill="#371A45"/>
<path d="M77.8052 249.372C77.5056 249.372 77.2626 249.129 77.2626 248.83V244.208C77.2626 243.909 77.5056 243.666 77.8052 243.666C78.1048 243.666 78.3478 243.909 78.3478 244.208V248.83C78.3478 249.13 78.1048 249.372 77.8052 249.372Z" fill="#371A45"/>
<path d="M72.0282 249.372C71.7286 249.372 71.4856 249.129 71.4856 248.83V244.208C71.4856 243.909 71.7286 243.666 72.0282 243.666C72.3278 243.666 72.5708 243.909 72.5708 244.208V248.83C72.5708 249.13 72.3278 249.372 72.0282 249.372Z" fill="#371A45"/>
<path d="M95.1358 249.372C94.8362 249.372 94.5931 249.129 94.5931 248.83V244.208C94.5931 243.909 94.8362 243.666 95.1358 243.666C95.4354 243.666 95.6784 243.909 95.6784 244.208V248.83C95.6784 249.13 95.4354 249.372 95.1358 249.372Z" fill="#371A45"/>
<path d="M95.1358 253.913C94.8362 253.913 94.5931 253.67 94.5931 253.371V249.388C94.5931 249.088 94.8362 248.846 95.1358 248.846C95.4354 248.846 95.6784 249.088 95.6784 249.388V253.371C95.6784 253.67 95.4354 253.913 95.1358 253.913Z" fill="#371A45"/>
<path d="M100.614 253.913C100.315 253.913 100.072 253.67 100.072 253.371V249.388C100.072 249.088 100.315 248.846 100.614 248.846C100.914 248.846 101.157 249.088 101.157 249.388V253.371C101.157 253.67 100.914 253.913 100.614 253.913Z" fill="#371A45"/>
<path d="M105.388 253.913C105.088 253.913 104.845 253.67 104.845 253.371V249.388C104.845 249.088 105.088 248.846 105.388 248.846C105.687 248.846 105.93 249.088 105.93 249.388V253.371C105.93 253.67 105.687 253.913 105.388 253.913Z" fill="#371A45"/>
<path d="M105.388 258.383C105.088 258.383 104.845 258.14 104.845 257.841V253.37C104.845 253.071 105.088 252.828 105.388 252.828C105.687 252.828 105.93 253.071 105.93 253.37V257.841C105.93 258.14 105.687 258.383 105.388 258.383Z" fill="#371A45"/>
<path d="M100.614 258.383C100.315 258.383 100.072 258.14 100.072 257.841V253.37C100.072 253.071 100.315 252.828 100.614 252.828C100.914 252.828 101.157 253.071 101.157 253.37V257.841C101.157 258.14 100.914 258.383 100.614 258.383Z" fill="#371A45"/>
<path d="M95.1358 258.383C94.8362 258.383 94.5931 258.14 94.5931 257.841V253.37C94.5931 253.071 94.8362 252.828 95.1358 252.828C95.4354 252.828 95.6784 253.071 95.6784 253.37V257.841C95.6784 258.14 95.4354 258.383 95.1358 258.383Z" fill="#371A45"/>
<path d="M100.614 249.372C100.315 249.372 100.072 249.129 100.072 248.83V244.208C100.072 243.909 100.315 243.666 100.614 243.666C100.914 243.666 101.157 243.909 101.157 244.208V248.83C101.157 249.13 100.914 249.372 100.614 249.372Z" fill="#371A45"/>
<path d="M80.5986 275.933C88.9292 275.933 95.6825 269.18 95.6825 260.85C95.6825 252.519 88.9292 245.766 80.5986 245.766C72.2679 245.766 65.5146 252.519 65.5146 260.85C65.5146 269.18 72.2679 275.933 80.5986 275.933Z" fill="#FFD243"/>
<g opacity="0.6">
<path d="M66.6581 261.841C66.6581 266.12 68.4395 269.982 71.3012 272.731C67.7775 269.969 65.5146 265.673 65.5146 260.85C65.5146 252.52 72.267 245.766 80.5986 245.766C84.6561 245.766 88.338 247.367 91.0477 249.971C88.4853 247.957 85.2545 246.757 81.7416 246.757C73.4122 246.757 66.6577 253.509 66.6577 261.841H66.6581Z" fill="white"/>
</g>
<path d="M80.5986 276.478C71.982 276.478 64.972 269.468 64.972 260.851C64.972 252.235 71.982 245.225 80.5986 245.225C89.2152 245.225 96.2251 252.235 96.2251 260.851C96.2251 269.468 89.2152 276.478 80.5986 276.478ZM80.5986 246.309C72.5804 246.309 66.0573 252.833 66.0573 260.851C66.0573 268.869 72.5804 275.393 80.5986 275.393C88.6168 275.393 95.1403 268.869 95.1403 260.851C95.1403 252.833 88.6168 246.309 80.5986 246.309V246.309Z" fill="#371A45"/>
<path d="M80.5986 272.801C87.1991 272.801 92.55 267.45 92.55 260.85C92.55 254.249 87.1991 248.898 80.5986 248.898C73.998 248.898 68.6472 254.249 68.6472 260.85C68.6472 267.45 73.998 272.801 80.5986 272.801Z" fill="#FFD243"/>
<path d="M90.2626 253.817C88.1275 251.828 85.2659 250.61 82.1175 250.61C75.5174 250.61 70.1665 255.961 70.1665 262.561C70.1665 265.189 71.015 267.621 72.4535 269.595C70.1124 267.415 68.6477 264.304 68.6477 260.849C68.6477 254.249 73.9982 248.898 80.5987 248.898C84.5713 248.898 88.0909 250.836 90.2626 253.817Z" fill="#FF9D33"/>
<path d="M80.5986 273.343C73.7093 273.343 68.1046 267.739 68.1046 260.849C68.1046 253.96 73.7093 248.355 80.5986 248.355C87.4879 248.355 93.0926 253.96 93.0926 260.849C93.0926 267.739 87.4879 273.343 80.5986 273.343V273.343ZM80.5986 249.44C74.3077 249.44 69.1899 254.559 69.1899 260.849C69.1899 267.14 74.3077 272.259 80.5986 272.259C86.8895 272.259 92.0078 267.14 92.0078 260.849C92.0078 254.559 86.8899 249.44 80.5986 249.44V249.44Z" fill="#371A45"/>
<path d="M105.266 294.184C105.266 296.447 103.831 298.294 102.028 298.409H102.024C101.965 298.413 101.907 298.415 101.849 298.415C101.79 298.415 101.731 298.413 101.673 298.409H98.8608C97.0557 298.296 95.6213 296.447 95.6213 294.184C95.6213 291.921 97.151 289.953 99.0385 289.953H101.848C103.736 289.953 105.265 291.847 105.265 294.184H105.266Z" fill="#979EA5"/>
<path d="M101.849 299.067C101.782 299.067 101.717 299.064 101.65 299.06H98.8609C98.8471 299.06 98.8338 299.06 98.8201 299.059C96.6613 298.924 94.9706 296.783 94.9706 294.185C94.9706 291.586 96.7957 289.303 99.039 289.303H101.849C104.092 289.303 105.917 291.493 105.917 294.185C105.917 296.877 104.227 298.921 102.07 299.059C102.065 299.059 102.06 299.059 102.055 299.059C101.986 299.064 101.918 299.067 101.849 299.067V299.067ZM98.8825 297.758H101.673C101.689 297.758 101.705 297.759 101.721 297.76C101.806 297.767 101.891 297.766 101.976 297.76C101.984 297.76 101.993 297.759 102.001 297.759C103.468 297.656 104.615 296.09 104.615 294.185C104.615 292.28 103.374 290.604 101.849 290.604H99.039C97.5135 290.604 96.2726 292.211 96.2726 294.185C96.2726 296.159 97.4174 297.654 98.8825 297.758V297.758Z" fill="#371A45"/>
<path d="M99.039 299.067C96.7957 299.067 94.9706 296.877 94.9706 294.185C94.9706 291.493 96.7957 289.303 99.039 289.303C101.282 289.303 103.107 291.493 103.107 294.185C103.107 296.877 101.282 299.067 99.039 299.067ZM99.039 290.605C97.5135 290.605 96.2726 292.211 96.2726 294.185C96.2726 296.159 97.5135 297.765 99.039 297.765C100.564 297.765 101.805 296.159 101.805 294.185C101.805 292.211 100.564 290.605 99.039 290.605Z" fill="#371A45"/>
<g opacity="0.25">
<path d="M99.0389 295.883C99.7971 295.883 100.412 295.122 100.412 294.184C100.412 293.245 99.7971 292.484 99.0389 292.484C98.2808 292.484 97.6661 293.245 97.6661 294.184C97.6661 295.122 98.2808 295.883 99.0389 295.883Z" fill="#371A45"/>
</g>
<path d="M104.687 287.671L104.277 289.955C104.01 291.451 102.71 292.537 101.192 292.537H68.3114C67.3981 292.537 66.6582 291.798 66.6582 290.882V287.367L104.687 287.671V287.671Z" fill="#AFB5BC"/>
<path d="M96.2205 292.537H97.8567C98.4609 292.537 98.9507 293.027 98.9507 293.631C98.9507 294.235 98.4609 294.725 97.8567 294.725H76.4578V292.742" fill="#AFB5BC"/>
<path d="M97.8568 295.376H76.4578C76.0983 295.376 75.807 295.085 75.807 294.725V292.743C75.807 292.383 76.0987 292.092 76.4578 292.092C76.8169 292.092 77.1086 292.383 77.1086 292.743V294.074H97.8563C98.1006 294.074 98.2991 293.875 98.2991 293.632C98.2991 293.388 98.1002 293.188 97.8563 293.188H96.2202C95.8606 293.188 95.5693 292.897 95.5693 292.538C95.5693 292.178 95.8611 291.887 96.2202 291.887H97.8563C98.8184 291.887 99.6011 292.669 99.6011 293.632C99.6011 294.594 98.8184 295.376 97.8563 295.376L97.8568 295.376Z" fill="#371A45"/>
<g opacity="0.25">
<path d="M81.2918 272.051H79.9857C79.4459 272.051 79.0086 271.614 79.0086 271.074V269.879C77.9517 269.727 76.9459 269.363 76.2452 268.863C75.8894 268.609 75.7458 268.15 75.8931 267.738L76.3908 266.349C76.4923 266.066 76.7183 265.845 77.0037 265.75C77.2896 265.657 77.6025 265.698 77.8526 265.865C78.5363 266.32 79.4501 266.592 80.2969 266.592C80.9843 266.592 81.787 266.316 81.787 265.538C81.787 265.122 81.653 264.624 80.0539 263.975C78.0657 263.196 76.0225 262.049 76.0225 259.483C76.0225 257.558 77.2505 255.988 79.1534 255.376V254.049C79.1534 253.51 79.5912 253.072 80.1309 253.072H81.4163C81.956 253.072 82.3933 253.51 82.3933 254.049V255.17C83.2072 255.296 83.9371 255.552 84.6062 255.943C85.0174 256.184 85.1951 256.687 85.0261 257.133L84.5076 258.501C84.4065 258.769 84.193 258.978 83.9242 259.075C83.655 259.171 83.357 259.146 83.109 259.004C82.7816 258.816 82.1008 258.427 80.9814 258.427C80.2054 258.427 79.7605 258.721 79.7605 259.233C79.7605 259.612 79.9016 259.938 81.7263 260.693C83.5052 261.419 85.5458 262.609 85.5458 265.392C85.5458 267.408 84.2596 269.053 82.2693 269.686V271.074C82.2693 271.614 81.832 272.051 81.2923 272.051H81.2918Z" fill="#371A45"/>
</g>
<path d="M114.234 259.363L112.548 262.687L107.514 284.801C107.117 286.545 105.566 287.782 103.776 287.782H68.3918C66.4065 287.782 64.7511 286.268 64.573 284.291L62.3123 258.981C62.2582 258.37 62.7396 257.84 63.3559 257.84H113.299C114.082 257.84 114.587 258.667 114.234 259.363V259.363Z" fill="#FFB774"/>
<g opacity="0.6">
<path d="M63.9937 260.283L66.2545 285.593C66.3194 286.311 66.5778 286.968 66.9794 287.513C65.669 286.992 64.7057 285.771 64.5734 284.291L62.3126 258.981C62.2585 258.37 62.74 257.84 63.3563 257.84H113.299C114 257.84 114.479 258.504 114.316 259.141H65.0374C64.4211 259.141 63.9397 259.671 63.9937 260.283V260.283Z" fill="white"/>
</g>
<path d="M103.775 288.433H68.3926C66.0544 288.433 64.134 286.677 63.926 284.348L61.664 259.04C61.6215 258.566 61.7813 258.093 62.1025 257.742C62.4238 257.391 62.8807 257.189 63.3567 257.189H113.3C113.895 257.189 114.436 257.492 114.747 258C115.059 258.507 115.084 259.127 114.815 259.658L113.165 262.909L108.148 284.945C107.681 286.999 105.882 288.434 103.776 288.434L103.775 288.433ZM63.3563 258.491C63.204 258.491 63.1071 258.572 63.0629 258.62C63.0188 258.669 62.9469 258.772 62.9606 258.924L65.2226 284.232C65.3703 285.885 66.7331 287.132 68.3926 287.132H103.775C105.27 287.132 106.547 286.113 106.879 284.656L111.913 262.542C111.925 262.49 111.943 262.44 111.967 262.392L113.654 259.069C113.745 258.89 113.673 258.738 113.638 258.681C113.603 258.624 113.5 258.491 113.3 258.491H63.3563V258.491Z" fill="#371A45"/>
<path d="M88.8395 288.433H68.3918C68.0323 288.433 67.741 288.142 67.741 287.782C67.741 287.423 68.0327 287.131 68.3918 287.131H88.8395C90.3355 287.131 91.6117 286.113 91.9429 284.657L96.9767 262.543C96.9888 262.491 97.0067 262.44 97.0308 262.393L98.7165 259.069C98.8081 258.89 98.7369 258.738 98.702 258.681C98.667 258.624 98.5638 258.491 98.3641 258.491H63.3555C62.996 258.491 62.7047 258.2 62.7047 257.84C62.7047 257.481 62.9964 257.189 63.3555 257.189H98.3641C98.9599 257.189 99.5009 257.493 99.8126 258.002C100.123 258.51 100.148 259.13 99.8767 259.66L98.228 262.911L93.2121 284.946C92.7448 287 90.9463 288.434 88.8391 288.434L88.8395 288.433Z" fill="#371A45"/>
<g opacity="0.6">
<path d="M95.6826 262.688L95.3247 263.749L90.8747 283.411C90.6796 284.273 89.9135 284.884 89.0305 284.884H71.2193C70.3122 284.884 69.5419 284.24 69.3663 283.366C69.6701 283.576 70.0388 283.698 70.4337 283.698H88.2448C89.1278 283.698 89.8939 283.086 90.0891 282.225L94.5391 262.562H95.3247L95.6826 262.688Z" fill="white"/>
</g>
<g opacity="0.25">
<path d="M114.234 259.363L112.548 262.687L107.514 284.801C107.117 286.545 105.566 287.782 103.776 287.782H88.8395C90.6296 287.782 92.1809 286.545 92.5779 284.801L97.6117 262.687L99.2974 259.363C99.6532 258.666 99.1455 257.84 98.3645 257.84H113.299C114.082 257.84 114.587 258.667 114.234 259.363V259.363Z" fill="#371A45"/>
</g>
<path d="M112.548 263.214H62.6323C62.2727 263.214 61.9814 262.922 61.9814 262.563C61.9814 262.203 62.2731 261.912 62.6323 261.912H112.548C112.907 261.912 113.199 262.203 113.199 262.563C113.199 262.922 112.907 263.214 112.548 263.214Z" fill="#371A45"/>
<path d="M88.2448 284.347H70.4345C69.1204 284.347 68.0331 283.36 67.9053 282.052L66.0103 262.624C65.9754 262.266 66.2371 261.948 66.595 261.913C66.9553 261.879 67.2712 262.14 67.3057 262.498L69.2007 281.926C69.2631 282.564 69.7933 283.045 70.4341 283.045H88.2444C88.8274 283.045 89.3243 282.648 89.4528 282.079L93.9036 262.418C93.9831 262.067 94.3323 261.847 94.6822 261.927C95.033 262.006 95.2527 262.354 95.1736 262.705L90.7228 282.367C90.459 283.532 89.4399 284.347 88.2444 284.347H88.2448Z" fill="#371A45"/>
<path d="M93.1176 269.491H67.2703C66.9108 269.491 66.6195 269.2 66.6195 268.84C66.6195 268.481 66.9112 268.189 67.2703 268.189H93.1176C93.4771 268.189 93.7684 268.481 93.7684 268.84C93.7684 269.2 93.4767 269.491 93.1176 269.491Z" fill="#371A45"/>
<path d="M90.5614 278.602H68.1596C67.8001 278.602 67.5088 278.311 67.5088 277.952C67.5088 277.592 67.8005 277.301 68.1596 277.301H90.5614C90.9209 277.301 91.2122 277.592 91.2122 277.952C91.2122 278.311 90.9205 278.602 90.5614 278.602Z" fill="#371A45"/>
<path d="M104.183 284.817H96.9114C96.4158 284.817 95.9535 284.595 95.643 284.209C95.3326 283.822 95.2161 283.323 95.3226 282.839L99.8338 262.421C99.9112 262.07 100.259 261.848 100.61 261.926C100.961 262.003 101.182 262.351 101.105 262.702L96.5939 283.119C96.5647 283.252 96.6213 283.348 96.658 283.393C96.6946 283.439 96.7757 283.515 96.9114 283.515H104.183C104.334 283.515 104.464 283.412 104.499 283.265L109.456 262.411C109.539 262.061 109.891 261.845 110.24 261.928C110.589 262.011 110.806 262.362 110.722 262.712L105.766 283.566C105.59 284.303 104.94 284.817 104.183 284.817V284.817Z" fill="#371A45"/>
<path d="M108.411 270.272H98.9103C98.5508 270.272 98.2595 269.981 98.2595 269.622C98.2595 269.262 98.5512 268.971 98.9103 268.971H108.411C108.771 268.971 109.062 269.262 109.062 269.622C109.062 269.981 108.77 270.272 108.411 270.272Z" fill="#371A45"/>
<path d="M106.35 278.602H97.0695C96.71 278.602 96.4187 278.311 96.4187 277.952C96.4187 277.592 96.7104 277.301 97.0695 277.301H106.35C106.709 277.301 107.001 277.592 107.001 277.952C107.001 278.311 106.709 278.602 106.35 278.602Z" fill="#371A45"/>
<path d="M101.192 293.188H68.3127C67.0414 293.188 66.007 292.154 66.007 290.883V287.368C66.007 287.008 66.2987 286.717 66.6578 286.717C67.0169 286.717 67.3086 287.008 67.3086 287.368V290.883C67.3086 291.436 67.7588 291.887 68.3123 291.887H101.192C102.396 291.887 103.424 291.027 103.636 289.841L104.045 287.557C104.109 287.203 104.447 286.968 104.801 287.031C105.154 287.094 105.39 287.433 105.326 287.787L104.917 290.071C104.594 291.878 103.027 293.188 101.192 293.188H101.192Z" fill="#371A45"/>
<path d="M89.1262 293.189C88.7666 293.189 88.4753 292.898 88.4753 292.538C88.4753 292.179 88.767 291.887 89.1262 291.887C90.33 291.887 91.3578 291.027 91.5704 289.842L91.9799 287.558C92.0436 287.204 92.3823 286.969 92.7352 287.032C93.0893 287.095 93.3244 287.433 93.2611 287.787L92.8517 290.072C92.5284 291.878 90.9617 293.189 89.1262 293.189V293.189Z" fill="#371A45"/>
<g opacity="0.25">
<path d="M104.687 287.672L104.277 289.956C104.01 291.451 102.71 292.538 101.192 292.538H89.1257C90.6446 292.538 91.9441 291.451 92.2113 289.956L92.6211 287.672H104.687Z" fill="#371A45"/>
</g>
<path d="M77.3874 295.196C77.3874 297.459 75.9531 299.306 74.15 299.42H74.1459C74.0872 299.425 74.0285 299.427 73.9703 299.427C73.912 299.427 73.8529 299.425 73.7947 299.42H70.9825C69.1774 299.308 67.743 297.459 67.743 295.196C67.743 292.933 69.2727 290.965 71.1602 290.965H73.9699C75.8574 290.965 77.387 292.859 77.387 295.196H77.3874Z" fill="#979EA5"/>
<g opacity="0.25">
<path d="M77.3874 295.195C77.3874 297.458 75.9531 299.305 74.15 299.42H74.1459C74.0872 299.424 74.0285 299.427 73.9703 299.427C73.912 299.427 73.8529 299.424 73.7947 299.42H70.9825C70.0671 299.363 69.2469 298.86 68.661 298.081H71.3362C71.3949 298.085 71.4536 298.088 71.5118 298.088C71.5701 298.088 71.6292 298.086 71.6874 298.081H71.6916C73.4947 297.966 74.929 296.12 74.929 293.857C74.929 292.739 74.5799 291.724 74.0069 290.967C75.8774 290.988 77.3874 292.874 77.3874 295.195Z" fill="#371A45"/>
</g>
<g opacity="0.6">
<path d="M76.8385 292.898C76.2614 292.349 75.5411 292.024 74.7579 292.024H71.9483C70.0583 292.024 68.5286 293.916 68.5286 296.255C68.5286 297.099 68.7284 297.884 69.0733 298.546C68.264 297.774 67.7434 296.561 67.7434 295.196C67.7434 292.859 69.2731 290.965 71.1606 290.965H73.9702C75.1745 290.965 76.231 291.735 76.8385 292.898V292.898Z" fill="white"/>
</g>
<path d="M73.9703 300.078C73.9042 300.078 73.838 300.076 73.7718 300.072H70.9826C70.9689 300.072 70.9555 300.072 70.9418 300.07C68.783 299.936 67.0923 297.795 67.0923 295.196C67.0923 292.598 68.9174 290.314 71.1603 290.314H73.9699C76.2132 290.314 78.0383 292.504 78.0383 295.196C78.0383 297.888 76.3484 299.933 74.1917 300.07C74.1867 300.07 74.1817 300.071 74.1763 300.071C74.1076 300.076 74.039 300.078 73.9699 300.078H73.9703ZM71.0042 298.77H73.7943C73.8105 298.77 73.8268 298.77 73.8426 298.772C73.9275 298.778 74.0124 298.778 74.0972 298.772C74.1056 298.771 74.1139 298.77 74.1218 298.77C75.589 298.668 76.7363 297.101 76.7363 295.196C76.7363 293.291 75.4954 291.616 73.9699 291.616H71.1603C69.6348 291.616 68.3943 293.222 68.3943 295.196C68.3943 297.17 69.5391 298.666 71.0042 298.77V298.77Z" fill="#371A45"/>
<path d="M71.1603 300.078C68.917 300.078 67.0923 297.888 67.0923 295.196C67.0923 292.504 68.9174 290.314 71.1603 290.314C73.4032 290.314 75.2287 292.504 75.2287 295.196C75.2287 297.888 73.4036 300.078 71.1603 300.078ZM71.1603 291.616C69.6348 291.616 68.3943 293.223 68.3943 295.197C68.3943 297.171 69.6352 298.777 71.1603 298.777C72.6853 298.777 73.9266 297.171 73.9266 295.197C73.9266 293.223 72.6858 291.616 71.1603 291.616Z" fill="#371A45"/>
<g opacity="0.25">
<path d="M71.1603 296.895C71.9184 296.895 72.533 296.134 72.533 295.196C72.533 294.257 71.9184 293.496 71.1603 293.496C70.4021 293.496 69.7875 294.257 69.7875 295.196C69.7875 296.134 70.4021 296.895 71.1603 296.895Z" fill="#371A45"/>
</g>
<g opacity="0.6">
<path d="M72.8592 295.538C72.8592 296.478 72.2429 297.239 71.4856 297.239C71.0711 297.239 70.6979 297.011 70.4507 296.649C70.6567 296.805 70.8997 296.894 71.1602 296.894C71.9175 296.894 72.5338 296.135 72.5338 295.195C72.5338 294.772 72.4081 294.384 72.1976 294.084C72.5945 294.384 72.8592 294.922 72.8592 295.537V295.538Z" fill="white"/>
</g>
<path d="M89.7549 295.196C89.7549 297.459 88.3205 299.306 86.5175 299.42H86.5133C86.4546 299.425 86.396 299.427 86.3377 299.427C86.2794 299.427 86.2204 299.425 86.1621 299.42H83.35C81.5448 299.308 80.1105 297.459 80.1105 295.196C80.1105 292.933 81.6401 290.965 83.5276 290.965H86.3373C88.2248 290.965 89.7545 292.859 89.7545 295.196H89.7549Z" fill="#979EA5"/>
<g opacity="0.25">
<path d="M89.7549 295.196C89.7549 297.459 88.3206 299.305 86.5175 299.42H86.5134C86.4547 299.424 86.396 299.427 86.3378 299.427C86.2795 299.427 86.2204 299.425 86.1622 299.42H83.35C82.5473 299.37 81.8183 298.975 81.2561 298.355C81.3863 298.383 81.5166 298.4 81.651 298.409H84.4631C84.5218 298.413 84.5805 298.416 84.6387 298.416C84.697 298.416 84.7561 298.414 84.8143 298.409H84.8185C86.6215 298.294 88.0559 296.447 88.0559 294.185C88.0559 292.928 87.6132 291.8 86.9103 291.025C88.5245 291.362 89.7549 293.1 89.7549 295.196V295.196Z" fill="#371A45"/>
</g>
<g opacity="0.6">
<path d="M89.2385 292.961C88.6506 292.364 87.8978 292.008 87.0776 292.008H84.268C82.3805 292.008 80.8508 293.903 80.8508 296.24C80.8508 297.058 81.0372 297.821 81.3651 298.47C80.5991 297.696 80.111 296.515 80.111 295.196C80.111 292.859 81.6406 290.965 83.5281 290.965H86.3378C87.5616 290.965 88.6356 291.761 89.2385 292.961Z" fill="white"/>
</g>
<path d="M86.3373 300.078C86.2711 300.078 86.2049 300.076 86.1388 300.072H83.3495C83.3358 300.072 83.3225 300.072 83.3087 300.07C81.1499 299.936 79.4592 297.795 79.4592 295.196C79.4592 292.598 81.2843 290.314 83.5276 290.314H86.3373C88.5806 290.314 90.4057 292.504 90.4057 295.196C90.4057 297.888 88.7158 299.933 86.5591 300.07C86.5541 300.07 86.5491 300.071 86.5437 300.071C86.475 300.076 86.4063 300.078 86.3373 300.078ZM83.3712 298.77H86.1612C86.1775 298.77 86.1937 298.77 86.2095 298.772C86.2944 298.778 86.3793 298.778 86.4642 298.772C86.4725 298.771 86.4808 298.77 86.4887 298.77C87.956 298.668 89.1032 297.101 89.1032 295.196C89.1032 293.291 87.8623 291.616 86.3369 291.616H83.5272C82.0017 291.616 80.7609 293.222 80.7609 295.196C80.7609 297.17 81.9056 298.666 83.3708 298.77H83.3712Z" fill="#371A45"/>
<path d="M83.5276 300.078C81.2843 300.078 79.4592 297.888 79.4592 295.196C79.4592 292.504 81.2843 290.314 83.5276 290.314C85.7709 290.314 87.5956 292.504 87.5956 295.196C87.5956 297.888 85.7705 300.078 83.5276 300.078ZM83.5276 291.616C82.0021 291.616 80.7613 293.223 80.7613 295.197C80.7613 297.171 82.0021 298.777 83.5276 298.777C85.0531 298.777 86.2936 297.171 86.2936 295.197C86.2936 293.223 85.0527 291.616 83.5276 291.616Z" fill="#371A45"/>
<g opacity="0.25">
<path d="M83.5277 296.895C84.2858 296.895 84.9005 296.134 84.9005 295.196C84.9005 294.257 84.2858 293.496 83.5277 293.496C82.7695 293.496 82.1549 294.257 82.1549 295.196C82.1549 296.134 82.7695 296.895 83.5277 296.895Z" fill="#371A45"/>
</g>
<g opacity="0.6">
<path d="M85.1726 295.484C85.1726 296.423 84.5564 297.185 83.799 297.185C83.3954 297.185 83.0309 296.968 82.7816 296.623C82.9963 296.794 83.2522 296.894 83.5281 296.894C84.2855 296.894 84.9017 296.135 84.9017 295.195C84.9017 294.759 84.7694 294.362 84.546 294.061C84.9234 294.36 85.1731 294.887 85.1731 295.484H85.1726Z" fill="white"/>
</g>
<g opacity="0.25">
<path d="M99.1497 294.436C99.2853 294.49 102.168 295.884 102.168 295.884H104.687L105.442 292.755L104.123 291.025L102.296 292.337L99.3806 292.538" fill="#371A45"/>
</g>
<g opacity="0.25">
<path d="M94.3426 263.431L69.5515 264.386L70.7087 280.081C70.7087 280.081 70.4195 283.046 73.421 283.552L70.4349 283.697L68.8649 282.431L66.6591 262.361L94.3435 262.563" fill="#371A45"/>
</g>
<path d="M41.8954 258.012C41.8846 258.107 41.8758 258.199 41.865 258.29C41.7718 259.169 41.0602 259.861 40.1747 259.913C33.568 260.297 25.9043 258.194 25.9043 258.194C24.8066 254.649 26.1386 251.477 26.1386 251.477C28.9287 252.588 31.8906 252.928 34.9803 252.67C34.9803 252.67 37.3322 257.057 41.8954 258.012V258.012Z" fill="white"/>
<path d="M46.2326 245.872L42.8458 246.865L45.6426 244.712C46.5077 244.128 47.2142 245.517 46.2326 245.872Z" fill="#371A45"/>
<path d="M38.4782 260.61C32.3288 260.61 26.0213 258.902 25.7317 258.822C25.5169 258.764 25.3476 258.599 25.2818 258.387C24.1279 254.658 25.4803 251.363 25.5386 251.224C25.6759 250.897 26.0492 250.741 26.3796 250.872C28.9824 251.908 31.7783 252.284 34.9262 252.021C35.1826 251.999 35.4314 252.133 35.5542 252.362C35.6653 252.568 37.8258 256.473 41.9557 257.364C41.9587 257.364 41.9612 257.365 41.9641 257.365C42.0103 257.37 42.0548 257.38 42.0972 257.393C43.1092 257.593 44.2365 257.61 45.479 257.351C52.2102 255.944 58.8797 249.705 58.9463 249.642C59.2081 249.396 59.62 249.408 59.8664 249.669C60.1131 249.93 60.1015 250.342 59.8401 250.589C59.5576 250.855 52.841 257.143 45.7449 258.625C44.5511 258.874 43.4467 258.898 42.4359 258.76C42.158 259.766 41.2779 260.499 40.213 260.561C39.64 260.594 39.0596 260.61 38.4782 260.61V260.61ZM26.427 257.658C27.9933 258.054 34.5055 259.59 40.1377 259.262C40.6083 259.235 41.0024 258.926 41.1564 258.493C37.5166 257.456 35.3082 254.412 34.6304 253.349C31.7304 253.542 29.0144 253.197 26.541 252.323C26.256 253.306 25.8274 255.39 26.4274 257.658H26.427Z" fill="#371A45"/>
<path d="M34.25 253.025L31.9069 248.004L35.3569 252.34C35.9232 253.126 34.7015 253.883 34.25 253.025V253.025Z" fill="#371A45"/>
<path d="M52.7406 255.688C52.6528 255.688 52.5634 255.67 52.4777 255.632C44.9293 252.293 46.4177 244.649 46.4335 244.572C46.5063 244.22 46.8505 243.993 47.2029 244.067C47.5546 244.139 47.7805 244.483 47.7085 244.835C47.6532 245.108 46.4327 251.534 53.0045 254.441C53.3332 254.587 53.4818 254.971 53.3365 255.3C53.2288 255.543 52.9907 255.688 52.7406 255.688V255.688Z" fill="#371A45"/>
<path d="M62.6323 264.64H43.3085C41.6399 264.64 40.2821 263.282 40.2821 261.613V259.694C40.2821 259.334 40.5738 259.043 40.9329 259.043C41.292 259.043 41.5837 259.334 41.5837 259.694V261.613C41.5837 262.564 42.3573 263.338 43.3085 263.338H62.6323C62.9918 263.338 63.2831 263.629 63.2831 263.989C63.2831 264.348 62.9914 264.64 62.6323 264.64V264.64Z" fill="#371A45"/>
<path d="M47.131 264.639C45.4732 264.639 44.1245 263.29 44.1245 261.632V258.125C44.1245 257.766 44.4162 257.475 44.7753 257.475C45.1344 257.475 45.4261 257.766 45.4261 258.125V261.632C45.4261 262.572 46.1905 263.337 47.1306 263.337C47.4901 263.337 47.7814 263.628 47.7814 263.988C47.7814 264.347 47.4897 264.639 47.1306 264.639L47.131 264.639Z" fill="#371A45"/>
<path d="M51.0188 260.192C49.4021 260.192 48.0926 258.82 48.0377 257.069C48.0264 256.709 48.3086 256.409 48.6681 256.398C49.0247 256.387 49.3276 256.669 49.3389 257.029C49.3718 258.073 50.1095 258.891 51.0188 258.891C51.928 258.891 52.7003 258.023 52.7003 256.956C52.7003 256.415 52.5097 255.912 52.1631 255.54C51.9184 255.277 51.933 254.865 52.196 254.62C52.4598 254.375 52.8713 254.39 53.116 254.653C53.6873 255.266 54.0019 256.084 54.0019 256.955C54.0019 258.741 52.6637 260.193 51.0188 260.193V260.192Z" fill="#371A45"/>
<path d="M55.8661 264.48C55.5066 264.48 55.2153 264.188 55.2153 263.829V258.491C55.2153 258.298 55.3015 258.114 55.45 257.991L58.4336 255.51V250.397C58.4336 250.037 58.7253 249.746 59.0844 249.746C59.4435 249.746 59.7352 250.037 59.7352 250.397V255.816C59.7352 256.009 59.6491 256.193 59.5005 256.316L56.5169 258.797V263.829C56.5169 264.188 56.2253 264.48 55.8661 264.48V264.48Z" fill="#371A45"/>
<path d="M47.9262 299.065C47.8538 299.065 47.7802 299.053 47.7082 299.027C47.3695 298.906 47.1926 298.534 47.3133 298.196C48.3927 295.164 45.8914 292.372 45.866 292.344C45.6883 292.149 45.6451 291.866 45.757 291.628C45.7699 291.6 47.0748 288.795 48.2716 284.008C49.4642 279.237 49.1958 272.894 49.1929 272.83C49.1842 272.632 49.2661 272.44 49.4159 272.31C49.5657 272.18 49.7671 272.125 49.9623 272.162C58.1178 273.681 62.4363 268.067 62.6165 267.827C62.8316 267.54 63.2394 267.481 63.527 267.696C63.8145 267.91 63.874 268.317 63.6597 268.605C63.4674 268.864 58.9808 274.746 50.5161 273.57C50.5519 275.465 50.5299 280.34 49.5341 284.324C48.5462 288.274 47.5059 290.869 47.1044 291.801C47.8359 292.74 49.6527 295.505 48.5392 298.633C48.4443 298.899 48.1934 299.065 47.9258 299.065L47.9262 299.065Z" fill="#371A45"/>
<path d="M46.1131 292.514C44.8282 291.957 43.3813 291.642 41.9761 291.76C40.5138 291.869 39.1652 292.672 38.3975 293.949C39.3662 291.625 41.8425 290.768 44.2169 290.919C45.0242 290.963 45.7986 291.075 46.5825 291.3C47.4585 291.604 46.9679 292.879 46.1127 292.515L46.1131 292.514Z" fill="#371A45"/>
<path d="M43.8973 287.925C41.0336 287.925 38.6563 287.1 36.9614 286.243C34.2338 284.866 32.6721 283.149 32.6071 283.076C32.3666 282.809 32.3887 282.397 32.6558 282.157C32.923 281.917 33.3341 281.939 33.5746 282.205C33.8114 282.467 39.4781 288.593 48.0485 285.993C48.3926 285.889 48.7559 286.083 48.8603 286.427C48.9644 286.771 48.7705 287.135 48.4263 287.239C46.8155 287.727 45.2984 287.925 43.8977 287.925L43.8973 287.925Z" fill="#371A45"/>
<path d="M55.3609 287.326C51.1802 287.326 48.4713 285.822 48.321 285.736C48.0085 285.559 47.8995 285.161 48.0772 284.849C48.2549 284.537 48.6514 284.427 48.9639 284.604C49.0214 284.636 53.555 287.122 59.8093 285.417C60.1555 285.323 60.5138 285.527 60.6086 285.874C60.7031 286.221 60.4988 286.579 60.1517 286.673C58.4107 287.148 56.7982 287.326 55.3609 287.326V287.326Z" fill="#371A45"/>
<path d="M59.9807 292.049C59.6907 292.281 59.2808 292.217 58.9533 292.168C57.5822 291.916 56.0996 292.033 54.9956 292.972C55.9593 291.577 57.65 291.133 59.2529 290.989C59.2875 290.981 59.3557 290.969 59.3465 290.958C59.3403 290.957 59.354 290.954 59.3316 290.957C59.2687 290.967 59.2092 290.999 59.1597 291.039C59.8392 290.514 60.6336 291.49 59.9807 292.049Z" fill="#371A45"/>
<path d="M84.3413 235.39L82.7683 235.095C80.3274 238.638 75.4392 237.111 73.2758 235.39C72.6446 232.65 73.3299 230.213 77.8061 230.463C77.8061 230.463 83.1478 230.643 84.3413 235.39V235.39Z" fill="white"/>
<path d="M76.9642 210.251C76.9642 219.995 72.0236 228.587 64.5077 233.654L64.5035 233.656C60.0078 236.687 54.5899 238.457 48.758 238.457C33.1793 238.457 20.5518 225.83 20.5518 210.251C20.5518 194.672 33.1793 182.045 48.758 182.045C56.7167 182.045 63.9047 185.341 69.0338 190.644C73.944 195.719 76.9642 202.631 76.9642 210.251V210.251Z" fill="white"/>
<g opacity="0.25">
<path d="M70.8306 227.813C69.0363 230.067 66.9032 232.039 64.5081 233.654L64.5039 233.656C60.0081 236.687 54.5903 238.457 48.7584 238.457C33.1797 238.457 20.5521 225.83 20.5521 210.251C20.5521 200.709 25.2909 192.273 32.5422 187.172C28.7039 191.988 26.4107 198.092 26.4107 204.731C26.4107 220.31 39.0382 232.938 54.6169 232.938C60.4492 232.938 65.8667 231.167 70.3624 228.136L70.3666 228.134C70.5227 228.03 70.677 227.921 70.831 227.813H70.8306Z" fill="#371A45"/>
</g>
<path d="M76.9643 210.251C76.9643 219.996 72.0237 228.588 64.5078 233.654L64.5036 233.656C49.6952 239.326 31.8819 230.705 29.5017 213.519C29.7468 200.492 40.7299 186.269 56.569 190.888H62.6053C62.6053 190.888 65.8643 190.708 69.0343 190.643C73.9445 195.718 76.9647 202.631 76.9647 210.251L76.9643 210.251Z" fill="#371A45"/>
<g opacity="0.7">
<path d="M74.5299 221.734C72.3645 226.586 68.8711 230.715 64.5081 233.655L64.504 233.657C49.6955 239.327 31.8823 230.706 29.5021 213.52C29.5499 211.018 29.9923 208.471 30.7908 206.023C33.9716 218.115 44.9784 227.033 58.0708 227.033C63.9031 227.033 69.3205 225.262 73.8163 222.231L73.8205 222.229C74.0593 222.069 74.2957 221.904 74.5299 221.734V221.734Z" fill="#111A28"/>
</g>
<g opacity="0.5">
<path d="M54.5596 193.207C65.1673 199.106 70.931 208.145 71.0658 220.833C77.4049 205.585 73.203 195.712 54.5596 193.207V193.207Z" fill="white"/>
</g>
<g opacity="0.5">
<path d="M40.3636 216.354C40.6175 217.98 41.2479 220.48 42.8121 222.754C43.4209 223.639 43.1541 224.82 42.2041 225.333L42.16 225.357C41.5188 225.702 40.724 225.646 40.1219 225.225C37.1171 223.122 35.7776 220.201 36.2553 216.389C36.3581 215.568 37.0326 214.927 37.8877 214.837L38.2781 214.796C39.2901 214.689 40.2118 215.382 40.3636 216.354Z" fill="white"/>
</g>
<g opacity="0.5">
<path d="M41.709 209.664C42.0119 207.959 41.1252 206.375 39.7286 206.127C38.332 205.879 36.9544 207.061 36.6516 208.766C36.3488 210.471 37.2354 212.055 38.632 212.303C40.0286 212.551 41.4062 211.369 41.709 209.664Z" fill="white"/>
</g>
<path d="M27.3436 205.225C27.2908 205.225 27.2367 205.218 27.183 205.204C26.8347 205.116 26.6237 204.761 26.7124 204.413C29.0668 195.147 35.4284 188.723 44.1665 186.785C55.0376 184.375 67.2715 189.194 75.3351 199.06C75.5623 199.339 75.5211 199.748 75.2427 199.976C74.9643 200.204 74.5544 200.162 74.3268 199.884C66.5716 190.394 54.8437 185.751 44.4482 188.056C36.0863 189.91 30.2356 195.832 27.974 204.734C27.8991 205.028 27.6345 205.224 27.3436 205.224V205.225Z" fill="#371A45"/>
<path d="M48.758 239.109C32.846 239.109 19.9005 226.164 19.9005 210.252C19.9005 194.34 32.846 181.395 48.758 181.395C56.6476 181.395 64.0146 184.519 69.5019 190.191C74.7338 195.599 77.6154 202.723 77.6154 210.252C77.6154 219.865 72.8513 228.815 64.8718 234.194C64.863 234.2 64.8543 234.205 64.8456 234.21C60.0835 237.415 54.5208 239.109 48.758 239.109V239.109ZM48.758 182.696C33.5638 182.696 21.2026 195.057 21.2026 210.252C21.2026 225.446 33.5638 237.807 48.758 237.807C54.2695 237.807 59.5883 236.185 64.1394 233.117C64.1482 233.111 64.1565 233.105 64.1652 233.1C71.7727 227.962 76.313 219.422 76.313 210.252C76.313 203.063 73.5616 196.26 68.5657 191.096C63.3259 185.679 56.2914 182.696 48.7576 182.696H48.758Z" fill="#371A45"/>
<path d="M70.4553 199.332C64.8573 200.278 60.0298 200.007 56.0855 198.629H56.0834C53.0977 197.588 50.6176 195.915 48.6869 193.656C38.9534 192.627 33.0691 189.848 30.8711 188.62C29.9057 188.08 29.3456 186.991 29.5412 185.902C29.691 185.064 30.1899 184.352 31.075 184.216C35.0714 169.37 52.2601 166.101 62.9177 173.389C68.4592 177.177 72.2346 183.823 71.4686 193.183C75.988 195.39 76.3679 198.084 70.4553 199.332Z" fill="#FFD243"/>
<path d="M70.4553 199.332C64.8572 200.278 60.0298 200.007 56.0854 198.629C72.3756 199.373 65.5738 193.626 65.5738 193.626C56.1353 194.646 47.8908 193.183 47.8908 193.183C54.9619 193.608 52.2692 190.406 52.2692 190.406L43.623 188.555C60.8312 188.928 62.7254 176.815 62.9185 173.389C68.46 177.177 72.2354 183.823 71.4693 193.183C75.9888 195.39 76.3687 198.085 70.4561 199.332H70.4553Z" fill="#FF9D33"/>
<g opacity="0.6">
<path d="M70.1166 182.513C62.4405 166.848 36.7963 167.31 31.7974 185.878C30.9123 186.015 30.413 186.725 30.2636 187.564C30.2312 187.75 30.2178 187.935 30.2291 188.117C29.6736 187.534 29.396 186.716 29.5412 185.9C29.691 185.062 30.19 184.351 31.0751 184.214C36.2453 165.01 63.4949 165.175 70.117 182.513H70.1166Z" fill="white"/>
</g>
<path d="M64.1615 200.542C57.4062 200.542 52.017 198.42 48.3618 194.274C38.5947 193.205 32.6612 190.365 30.5523 189.186C29.3227 188.499 28.6586 187.133 28.8995 185.786C29.0872 184.734 29.691 183.973 30.5486 183.677C32.0687 178.382 35.324 174.232 39.9812 171.662C44.2918 169.282 49.4737 168.461 54.5728 169.348C59.7514 170.25 64.3362 172.855 67.4825 176.682C70.9654 180.919 72.5746 186.484 72.1485 192.797C74.5199 194.033 75.6813 195.401 75.512 196.769C75.3297 198.241 73.6731 199.317 70.5884 199.967C70.5801 199.969 70.5714 199.97 70.5626 199.972C68.3139 200.352 66.1763 200.541 64.1606 200.541L64.1615 200.542ZM50.6784 170.317C42.6439 170.317 34.292 174.769 31.7029 184.384C31.6359 184.633 31.4287 184.819 31.1744 184.858C30.47 184.968 30.2494 185.63 30.1808 186.015C30.0372 186.816 30.4417 187.634 31.1869 188.05C33.2442 189.2 39.0741 191.985 48.7534 193.007C48.919 193.025 49.0717 193.105 49.1795 193.232C53.5958 198.394 60.9095 200.282 70.3329 198.691C72.6665 198.198 74.1192 197.42 74.2195 196.609C74.2965 195.99 73.5383 194.919 71.181 193.768C70.9401 193.651 70.7957 193.397 70.8177 193.13C71.9883 178.844 62.6776 172.082 54.349 170.632C53.148 170.422 51.9155 170.317 50.6775 170.317H50.6784Z" fill="#371A45"/>
<path d="M69.3705 191.405C69.0076 191.405 68.6465 191.351 68.2973 191.244C67.9711 191.145 67.7772 190.811 67.8525 190.478C67.9278 190.146 68.2495 189.928 68.5836 189.978L69.467 190.11C69.8041 190.161 70.045 190.463 70.0201 190.802C69.9947 191.142 69.7117 191.405 69.3709 191.405H69.3705Z" fill="#371A45"/>
<path d="M73.7098 185.385C73.7098 188.424 71.8893 190.889 69.6414 190.889L68.7584 190.757L66.2696 190.386L66.2459 190.381C64.1998 190.093 62.6052 187.751 62.6052 184.907C62.6052 181.865 64.4257 179.4 66.6736 179.4L67.5633 179.535L69.9414 179.893C72.0482 180.099 73.7102 182.479 73.7102 185.384L73.7098 185.385Z" fill="#AFB5BC"/>
<g opacity="0.25">
<path d="M73.7098 185.385C73.7098 188.425 71.8892 190.89 69.6414 190.89L68.7584 190.757L66.2696 190.386L66.2458 190.382C64.5514 190.143 63.167 188.496 62.7417 186.322C63.3971 187.646 64.4644 188.563 65.697 188.737L65.7207 188.741L68.2095 189.112L69.0925 189.245C71.3404 189.245 73.1609 186.78 73.1609 183.74C73.1609 183.254 73.1156 182.781 73.0265 182.332C73.4584 183.206 73.7098 184.257 73.7098 185.385V185.385Z" fill="#371A45"/>
</g>
<g opacity="0.6">
<path d="M73.4322 183.38C72.751 182.358 71.7898 181.685 70.7112 181.579L68.3331 181.221L67.4434 181.087C65.1976 181.087 63.3775 183.551 63.3775 186.593C63.3775 187.303 63.4774 187.98 63.6576 188.602C63.0047 187.626 62.6052 186.329 62.6052 184.907C62.6052 181.865 64.4257 179.4 66.6736 179.4L67.5633 179.535L69.9414 179.893C71.536 180.049 72.875 181.449 73.4326 183.379L73.4322 183.38Z" fill="white"/>
</g>
<path d="M69.6413 191.54C69.6089 191.54 69.5768 191.537 69.5448 191.533L66.1738 191.03C66.1667 191.029 66.1601 191.028 66.153 191.026L66.1413 191.024C63.7532 190.678 61.9543 188.052 61.9543 184.908C61.9543 181.512 64.0711 178.75 66.6736 178.75C66.706 178.75 66.7385 178.752 66.7709 178.757L70.0221 179.248C72.4967 179.502 74.3609 182.136 74.3609 185.385C74.3609 188.635 72.2437 191.541 69.6417 191.541L69.6413 191.54ZM66.376 189.743L69.6871 190.238C71.5505 190.203 73.0589 188.039 73.0589 185.385C73.0589 182.73 71.6616 180.715 69.8777 180.541C69.8664 180.54 69.8552 180.538 69.844 180.537L66.6274 180.052C64.7644 180.087 63.2564 182.252 63.2564 184.907C63.2564 187.372 64.6092 189.493 66.3369 189.737C66.3457 189.738 66.354 189.739 66.3627 189.741L66.3764 189.743H66.376Z" fill="#371A45"/>
<path d="M69.6418 191.54C67.0398 191.54 64.9226 188.778 64.9226 185.383C64.9226 181.988 67.0398 179.227 69.6418 179.227C70.0013 179.227 70.2926 179.518 70.2926 179.877C70.2926 180.237 70.0009 180.528 69.6418 180.528C67.7576 180.528 66.2246 182.706 66.2246 185.383C66.2246 188.06 67.7576 190.238 69.6418 190.238C70.0013 190.238 70.2926 190.529 70.2926 190.889C70.2926 191.248 70.0009 191.54 69.6418 191.54Z" fill="#371A45"/>
<g opacity="0.25">
<path d="M69.9401 187.992C71.0926 187.992 72.027 186.728 72.027 185.168C72.027 183.608 71.0926 182.344 69.9401 182.344C68.7876 182.344 67.8533 183.608 67.8533 185.168C67.8533 186.728 68.7876 187.992 69.9401 187.992Z" fill="#371A45"/>
</g>
<path d="M58.464 191.052C54.0073 191.052 49.254 190.682 44.8793 189.967C40.6798 189.281 33.2384 187.676 30.5848 184.644C30.348 184.373 30.3755 183.962 30.646 183.725C30.9164 183.489 31.3276 183.516 31.5648 183.787C33.307 185.778 38.2368 187.562 45.0895 188.683C51.7382 189.77 59.2691 190.047 65.2351 189.425C65.5925 189.388 65.9125 189.647 65.9499 190.005C65.9874 190.362 65.7277 190.682 65.3699 190.72C63.2289 190.943 60.8904 191.052 58.4644 191.052H58.464Z" fill="#371A45"/>
<path d="M58.0591 194.715C52.5239 194.715 48.6802 194.309 48.6157 194.303C48.2583 194.264 48.0003 193.943 48.0386 193.585C48.0773 193.228 48.401 192.969 48.7559 193.008C48.8654 193.02 59.8102 194.172 71.3766 192.54C71.7332 192.49 72.062 192.737 72.1123 193.093C72.1627 193.449 71.9147 193.778 71.5589 193.828C66.7069 194.513 61.9623 194.715 58.0595 194.715H58.0591Z" fill="#371A45"/>
<path d="M61.57 190.991C61.2237 190.991 60.9362 190.719 60.92 190.37C60.4552 180.133 54.2467 176.035 50.5873 174.503C45.6929 172.453 39.9388 172.764 37.202 175.226C36.9344 175.466 36.5233 175.444 36.2828 175.177C36.0423 174.91 36.0643 174.498 36.3315 174.258C39.4682 171.437 45.675 171.035 51.09 173.302C57.8003 176.111 61.8571 182.311 62.2204 190.311C62.237 190.67 61.959 190.974 61.5995 190.991C61.5895 190.991 61.5795 190.991 61.5695 190.991H61.57Z" fill="#371A45"/>
<path d="M68.6835 198.683C62.909 198.683 55.2453 197.133 52.1569 194.424C51.8868 194.187 51.8598 193.775 52.097 193.505C52.3337 193.235 52.7449 193.208 53.0158 193.445C57.4861 197.367 71.9812 198.394 74.4147 196.371C74.6918 196.141 75.1017 196.179 75.3314 196.455C75.5611 196.732 75.5232 197.142 75.2469 197.372C74.1738 198.264 71.6829 198.683 68.6835 198.683V198.683Z" fill="#371A45"/>
<path d="M17.1366 211.42C16.8 216.196 19.4615 220.275 23.0813 220.53C26.7011 220.785 29.4937 217.091 29.8304 212.314C30.167 207.538 27.9199 203.488 24.3001 203.233C20.6803 202.978 17.4733 206.643 17.1366 211.42V211.42Z" fill="white"/>
<g opacity="0.25">
<path d="M17.1366 211.419C16.8 216.194 19.4615 220.274 23.0821 220.529C26.4311 220.765 29.0709 217.618 29.7122 213.364C28.7097 214.141 27.5292 214.549 26.2426 214.458C22.6219 214.203 19.9625 210.123 20.2991 205.348C20.3174 205.085 20.3441 204.828 20.3807 204.572C18.6059 206.024 17.3414 208.516 17.1366 211.419V211.419Z" fill="#371A45"/>
</g>
<path d="M23.4313 221.192C23.2998 221.192 23.1683 221.188 23.0356 221.178C21.0769 221.04 19.3167 219.92 18.0804 218.025C16.8803 216.186 16.3148 213.824 16.4875 211.373C16.6602 208.922 17.5515 206.662 18.9975 205.01C20.4881 203.307 22.3881 202.444 24.3459 202.583C26.2904 202.72 27.982 203.843 29.1088 205.745C30.167 207.533 30.6539 209.881 30.4795 212.359C30.3052 214.836 29.4937 217.093 28.195 218.714C26.9067 220.322 25.2277 221.192 23.4313 221.192V221.192ZM23.9439 203.871C22.5092 203.871 21.111 204.572 19.9771 205.868C18.7171 207.308 17.9389 209.296 17.7862 211.465C17.6331 213.634 18.1249 215.711 19.1706 217.314C20.1793 218.86 21.5845 219.771 23.1271 219.88C25.0616 220.014 26.3957 218.878 27.1789 217.901C28.3136 216.485 29.0248 214.484 29.1808 212.268C29.3368 210.051 28.9137 207.971 27.9886 206.409C27.3503 205.331 26.1843 204.018 24.2544 203.882C24.1508 203.874 24.0471 203.871 23.9439 203.871V203.871Z" fill="#371A45"/>
<path d="M21.5704 219.13C21.4801 219.13 21.3898 219.127 21.2986 219.121C18.3255 218.911 16.1454 215.356 16.4384 211.196L17.1491 211.246L16.4384 211.196C16.7317 207.036 19.3945 203.821 22.3618 204.031C25.2668 204.236 27.2292 207.634 26.9262 211.935C26.6325 216.101 24.3534 219.13 21.5708 219.13H21.5704ZM22.0776 205.446C19.9625 205.446 18.0904 208.014 17.859 211.296C17.621 214.673 19.2089 217.546 21.3981 217.7C23.4928 217.846 25.2584 215.326 25.5044 211.835C25.7503 208.344 24.3563 205.6 22.2611 205.452C22.2 205.448 22.1384 205.446 22.0772 205.446H22.0776Z" fill="#371A45"/>
<path d="M51.7653 238.753C46.598 238.753 41.2991 236.948 36.634 233.562C31.5523 229.875 27.799 224.66 26.3371 219.254C26.2431 218.907 26.4486 218.55 26.7957 218.456C27.1411 218.363 27.4998 218.568 27.5938 218.915C30.5965 230.015 42.5903 238.457 53.7798 237.353C54.1372 237.319 54.456 237.579 54.4913 237.936C54.5267 238.294 54.2654 238.613 53.9075 238.648C53.1972 238.718 52.4827 238.753 51.7653 238.753V238.753Z" fill="#371A45"/>
<path d="M69.5149 241.858C69.4824 241.858 69.4495 241.855 69.4171 241.85C69.2269 241.821 69.0592 241.71 68.9594 241.546C66.5817 237.646 61.3639 235.197 61.3115 235.173C60.9853 235.022 60.8434 234.635 60.994 234.309C61.1446 233.983 61.5316 233.841 61.8575 233.991C62.0743 234.092 66.9395 236.37 69.6476 240.223L69.9314 239.973C69.2436 238.983 69.0846 237.845 69.517 236.833C69.9884 235.727 71.0774 234.996 72.501 234.796C72.2792 233.28 72.5338 232.078 73.26 231.215C74.145 230.165 75.6872 229.692 77.8414 229.813C77.8855 229.815 83.675 230.069 84.9729 235.233C85.027 235.448 84.9675 235.676 84.8156 235.838C84.6633 235.999 84.439 236.072 84.2214 236.032L83.0479 235.811C82.1637 236.916 80.9536 237.608 79.5234 237.822C77.1619 238.175 74.6227 237.207 73.0635 236.049C71.9084 236.109 71.0383 236.585 70.7146 237.344C70.4133 238.049 70.6338 238.893 71.3038 239.603C71.4249 239.731 71.489 239.903 71.4806 240.08C71.4723 240.256 71.3932 240.422 71.2605 240.538L69.9447 241.695C69.8249 241.801 69.6718 241.858 69.5149 241.858V241.858ZM73.8612 235.02C75.1645 235.977 77.3612 236.828 79.3311 236.534C80.5562 236.351 81.5324 235.743 82.2323 234.726C82.378 234.514 82.6339 234.408 82.8885 234.456L83.3592 234.544C81.8774 231.308 77.9634 231.121 77.7819 231.114C76.0442 231.016 74.8624 231.334 74.2557 232.054C73.7223 232.688 73.5895 233.685 73.8612 235.02V235.02Z" fill="#371A45"/>
<path d="M62.7529 237.916C64.5015 239.67 65.848 241.844 66.5596 244.226C66.7951 245.056 65.5879 245.434 65.31 244.616C65.1843 243.714 65.0279 242.799 64.7357 241.924C64.2664 240.508 63.6155 239.144 62.7529 237.916V237.916Z" fill="#371A45"/>
<path d="M73.7618 242.483C72.2167 242.483 71.1003 241.807 70.268 240.377C70.087 240.066 70.1927 239.668 70.5032 239.487C70.814 239.306 71.2122 239.411 71.3932 239.722C72.0395 240.832 72.8068 241.253 74.0472 241.172C74.4014 241.148 74.7155 241.42 74.7392 241.779C74.7626 242.137 74.4908 242.447 74.1321 242.471C74.006 242.479 73.8829 242.483 73.7622 242.483H73.7618Z" fill="#371A45"/>
<path d="M67.0918 244.858C66.9482 244.858 66.8038 244.811 66.6836 244.714C66.4039 244.488 66.3602 244.078 66.5858 243.798L69.0084 240.797C69.2344 240.517 69.6443 240.473 69.9239 240.699C70.2035 240.925 70.2472 241.335 70.0217 241.614L67.599 244.616C67.4704 244.775 67.2819 244.858 67.0922 244.858H67.0918Z" fill="#371A45"/>
<path d="M74.7218 240.086C74.5941 240.086 74.4655 240.048 74.3527 239.97C74.0568 239.766 73.9824 239.361 74.1871 239.065C74.9565 237.951 74.0398 236.629 74.0007 236.574C73.7939 236.281 73.8613 235.875 74.153 235.667C74.4447 235.458 74.8487 235.524 75.0584 235.815C75.12 235.9 76.5536 237.929 75.2586 239.805C75.1325 239.988 74.929 240.086 74.7222 240.086L74.7218 240.086Z" fill="#371A45"/>
<path d="M26.7798 271.49C23.2179 271.49 20.5268 270.558 18.7562 268.705C16.3257 266.162 16.4414 262.72 16.555 261.601C14.6042 259.621 15.0353 255.402 15.384 251.983C15.4535 251.301 15.5192 250.658 15.5633 250.068C15.7905 247.02 16.9969 245.802 17.6277 245.369C17.7313 244.521 18.0825 241.965 19.1166 236.417C20.511 228.937 28.8625 229.615 28.9462 229.622C29.304 229.655 29.5678 229.972 29.535 230.33C29.5021 230.688 29.1833 230.952 28.8284 230.919C28.5325 230.893 21.5721 230.348 20.3966 236.656C19.1191 243.51 18.8881 245.808 18.8861 245.83C18.8623 246.071 18.7071 246.28 18.4824 246.371C18.4824 246.371 17.0942 247.049 16.8621 250.165C16.8167 250.773 16.7501 251.425 16.6798 252.115C16.3469 255.377 15.9329 259.436 17.656 260.846C17.8374 260.995 17.9248 261.229 17.8853 261.46C17.8791 261.496 17.2778 265.284 19.7058 267.815C21.6553 269.846 25.0155 270.58 29.6914 269.995C30.0476 269.952 30.3735 270.203 30.4184 270.56C30.4629 270.917 30.2099 271.242 29.8533 271.286C28.7668 271.423 27.7415 271.49 26.7807 271.49L26.7798 271.49Z" fill="#371A45"/>
<path d="M27.2442 250.522C27.2072 250.522 27.1697 250.518 27.1323 250.512C26.7782 250.451 26.5406 250.114 26.6022 249.76C26.7719 248.779 26.6662 248.065 26.2884 247.637C25.8257 247.113 25.0438 247.145 25.0367 247.145C25.0026 247.147 24.9639 247.146 24.9306 247.142L18.1682 246.413C17.8108 246.375 17.5524 246.054 17.5907 245.696C17.6294 245.339 17.9502 245.082 18.3076 245.119L25.0263 245.843C25.3176 245.841 26.4619 245.881 27.2509 246.76C27.9142 247.499 28.1276 248.583 27.8855 249.982C27.8305 250.298 27.5555 250.522 27.2446 250.522H27.2442Z" fill="#371A45"/>
<path d="M16.8434 247.956L21.6183 249.27L16.6657 249.246C15.6828 249.189 15.8805 247.746 16.8429 247.956H16.8434Z" fill="#371A45"/>
<path d="M23.3838 262.717C19.8115 262.717 17.2107 262.015 17.0701 261.976C16.7234 261.88 16.5204 261.522 16.6157 261.176C16.711 260.829 17.0692 260.626 17.4159 260.72C17.4583 260.732 21.7148 261.877 26.6824 261.196C27.0361 261.147 27.3669 261.396 27.4156 261.752C27.4643 262.108 27.2155 262.436 26.8593 262.485C25.6396 262.652 24.467 262.717 23.3838 262.717V262.717Z" fill="#371A45"/>
<path d="M20.5172 234.336C22.5761 234.494 24.601 234.943 26.4639 235.826C25.9721 235.714 25.4823 235.619 24.9867 235.565C23.5328 235.4 22.016 235.427 20.5788 235.637C19.625 235.743 19.5555 234.322 20.5172 234.336V234.336Z" fill="#371A45"/>
<path d="M3.24499 225.692C3.20338 225.692 3.16176 225.688 3.11932 225.68L2.22591 225.505C0.800702 225.226 -0.166776 223.879 0.0238067 222.44L0.134078 221.61C0.231866 220.872 0.613448 220.218 1.20808 219.771C1.80313 219.323 2.53634 219.138 3.27203 219.248L4.247 219.394C4.60237 219.447 4.84746 219.778 4.7942 220.134C4.74135 220.489 4.41137 220.734 4.05434 220.682L3.07937 220.536C2.69113 220.477 2.30456 220.575 1.9908 220.812C1.67747 221.048 1.47606 221.392 1.42446 221.781L1.31419 222.612C1.21349 223.371 1.72365 224.081 2.47558 224.228L3.36899 224.403C3.72186 224.472 3.95197 224.814 3.8829 225.167C3.82214 225.477 3.55 225.693 3.24457 225.693L3.24499 225.692Z" fill="#371A45"/>
<g opacity="0.25">
<path d="M14.2184 227.013L13.9646 228.156C13.7149 229.287 12.5564 229.963 11.4479 229.629L4.83239 227.631C3.81914 227.327 3.15502 226.359 3.22701 225.305C3.25322 224.932 3.2811 224.565 3.31814 224.205L9.44966 225.09L12.4524 224.191C12.0978 226.39 12.5876 227.462 14.2184 227.012V227.013Z" fill="#371A45"/>
</g>
<g opacity="0.25">
<path d="M24.7654 225.09C24.7654 225.09 23.463 229.779 16.7185 227.356L26.0845 230.248L27.6034 229.714L26.7707 227.319" fill="#371A45"/>
</g>
<g opacity="0.25">
<path d="M25.9759 251.941L25.4704 255.718L26.4099 258.311L27.0133 261.841L29.4564 270.676C26.6488 270.997 24.4771 270.819 22.7955 270.329C24.82 267.046 22.7523 262.056 22.7523 262.056C22.7523 262.056 17.8163 261.485 17.6232 261.706C17.5583 261.78 17.4105 261.611 17.2412 261.352C17.2412 261.348 17.2391 261.346 17.237 261.342C16.8987 260.823 16.4843 259.96 16.4843 259.96C16.4843 259.96 20.9862 260.264 22.7851 259.541C24.5815 258.819 22.451 253.863 23.5075 250.543C24.5665 247.224 22.4618 246.221 22.4618 246.221L24.7684 246.471C24.7684 246.471 25.2173 242.472 27.3308 236.536C29.4443 230.599 24.1238 231.461 24.1238 231.461L25.7533 230.523L26.4649 230.115L29.3028 230.25L29.5196 230.512L32.3792 233.964L31.455 235.401C29.3939 237.334 28.4173 243.719 28.4173 243.719L27.3304 251.476L25.9764 251.941H25.9759Z" fill="#371A45"/>
</g>
<g opacity="0.25">
<path d="M52.3496 248.601C52.3496 248.601 45.7928 254.251 41.5255 252.682C37.2581 251.114 32.3787 245.766 32.3787 245.766C32.3787 245.766 31.4545 250.635 32.5935 252.682C32.5935 252.682 32.5934 258.189 37.4213 259.958H39.9163L41.7606 258.125C41.7606 258.125 45.256 259.26 50.1275 256.425C54.999 253.591 59.0844 250.115 59.0844 250.115C59.0844 250.115 56.2432 249.667 54.4535 249.487C52.6633 249.306 52.3496 248.601 52.3496 248.601V248.601Z" fill="#371A45"/>
</g>
<g opacity="0.25">
<path d="M53.8438 254.358C53.8438 254.358 62.0659 255.859 58.0878 263.828H62.0292L62.3076 263.12L62.3118 258.982L62.6318 257.988L60.8321 251.939L59.8234 250.115L57.9134 251.067" fill="#371A45"/>
</g>
<g opacity="0.25">
<path d="M43.3085 263.989C43.3085 263.989 44.7678 267.587 48.6885 267.424C52.6092 267.261 56.4603 266.936 56.4603 266.936C56.4603 266.936 57.762 271.438 49.5174 272.577C49.5174 272.577 56.4287 274.253 60.1871 270.839C63.9459 267.425 63.1374 265.716 63.1374 265.716L62.3076 263.83" fill="#371A45"/>
</g>
<g opacity="0.25">
<path d="M52.6636 277.458C52.6636 277.458 50.7108 287.71 51.2164 292.971C51.4939 295.837 52.6703 297.497 53.6856 298.413H47.9274L47.8928 298.534C47.6565 299.383 46.8837 299.968 46.0053 299.968H38.6737C36.7754 299.968 34.9245 299.357 33.4077 298.215C32.1103 297.241 30.6563 295.942 29.8449 294.544C28.3585 291.982 30.3289 288.122 31.7674 285.549C31.7761 285.894 31.7632 286.267 31.7262 286.668C31.1836 292.68 36.9876 297.636 42.373 297.675C47.7559 297.714 40.9345 291.543 40.9345 291.543C47.7343 284.381 44.3929 270.838 44.3929 270.838C44.3929 270.838 48.8732 272.192 49.8432 272.528C55.4109 274.463 60.9303 270.508 61.0693 270.408C57.3267 275.505 52.6636 277.458 52.6636 277.458V277.458Z" fill="#371A45"/>
</g>
<g opacity="0.25">
<path d="M42.8454 241.505C42.8454 241.505 55.3277 242.653 64.1931 236.071L62.7525 234.986C62.7525 234.986 52.3017 240.796 40.4044 237.168" fill="#371A45"/>
</g>
<g opacity="0.25">
<path d="M58.238 244.209C59.8239 246.374 65.1993 243.407 63.3559 241.207C63.3559 241.207 68.3435 245.528 64.3367 247.327C60.3299 249.126 58.238 245.458 58.238 245.458" fill="#371A45"/>
</g>
</g>
<defs>
<clipPath id="clip0_509_1560">
<rect width="115" height="134.286" fill="white" transform="translate(0 169)"/>
</clipPath>
</defs>
</svg>
