<svg width="500" height="300" viewBox="0 0 500 300" fill="none" xmlns="http://www.w3.org/2000/svg">
<g clip-path="url(#clip0_509_924)">
<path d="M72.4836 31L415.617 37.6013C452.451 37.6013 482 45.581 482 55.5289L460.871 111.838C460.871 121.786 437.308 129.008 400.475 129.008L238 130.1H198.5L136.5 148.5L154.5 129.008L92.5 130.1C55.6657 130.1 33.4507 121.777 33.4507 111.829L0 52.2465C0 42.2985 35.651 31 72.4836 31Z" fill="white" stroke="black" stroke-width="2" stroke-linecap="round" stroke-linejoin="round"/>
<g clip-path="url(#clip1_509_924)">
<path d="M85.7985 276.634C85.7985 283.807 84.0201 290.567 80.8756 296.492C80.7981 296.477 80.723 296.46 80.6479 296.438L78.2243 295.727C77.469 295.507 76.6785 295.444 75.9002 295.54L73.5914 295.822L71.0676 296.132L70.4523 296.207L67.926 296.643C67.3205 296.748 66.738 296.95 66.1977 297.243L64.7717 298.018C64.334 298.253 63.8089 298.261 63.3658 298.036L61.9349 297.306C61.2847 296.973 60.5668 296.8 59.8385 296.8H55.9614C55.5762 296.8 55.1909 296.85 54.818 296.945L48.0515 298.676C47.4985 298.816 46.9111 298.738 46.413 298.456L46.0003 298.223C45.2573 297.801 44.4369 297.535 43.5864 297.443L41.0426 297.168C40.5146 297.113 39.9821 297.123 39.4541 297.2L34.2461 297.971C33.7559 298.043 33.2583 297.958 32.8201 297.728L31.0089 296.768C30.5437 296.522 30.0333 296.365 29.5107 296.307L27.6945 296.11C27.1469 296.05 26.5914 296.1 26.0634 296.255L25.8681 296.312L24.6825 296.663L20.585 297.871C20.1046 298.011 19.6046 298.053 19.1094 297.996L14.7622 297.488C14.2543 297.428 13.7793 297.208 13.4063 296.858L12.5584 296.065C11.9204 295.467 11.0852 295.151 10.2373 295.157C9.89474 295.159 9.54927 295.212 9.21411 295.322L5.79725 296.435C2.67284 290.524 0.904297 283.785 0.904297 276.634C0.904297 253.191 19.9098 234.188 43.3504 234.188C46.9047 234.188 50.3544 234.625 53.6535 235.448C72.1187 240.051 85.7965 256.745 85.7965 276.634H85.7985Z" fill="#FFD243"/>
<path d="M85.7986 276.634C85.7986 283.807 84.0202 290.567 80.8757 296.492C80.7981 296.477 80.7231 296.46 80.648 296.438L78.2243 295.727C77.9593 295.649 77.6914 295.594 77.4215 295.554C80.2657 289.858 81.8615 283.433 81.8615 276.634C81.8615 256.745 68.1838 240.051 49.7185 235.448C47.0373 234.78 44.2578 234.365 41.4038 234.233C42.0491 234.203 42.6993 234.188 43.3525 234.188C46.9067 234.188 50.3565 234.625 53.6556 235.448C72.1208 240.051 85.7986 256.745 85.7986 276.634Z" fill="#FF9D33"/>
<path d="M78.7347 278.423C78.7347 284.882 76.8386 290.873 73.592 295.821L71.0683 296.131C74.808 290.968 77.0241 284.532 77.0241 277.55C77.0241 265.736 70.6732 255.475 61.353 250.322C71.5963 255.12 78.7352 265.899 78.7352 278.423H78.7347Z" fill="white"/>
<path d="M14.7236 296.933L15.3939 297.558L14.7633 297.486C14.2554 297.426 13.7804 297.206 13.4075 296.855L12.5595 296.062C12.5473 296.05 12.532 296.037 12.5193 296.027C13.3246 296.05 14.1151 296.363 14.7231 296.933L14.7236 296.933Z" fill="white"/>
<path d="M33.174 297.638L33.8443 297.993C33.489 297.986 33.1391 297.896 32.8211 297.728L31.8181 297.195C32.2907 297.265 32.751 297.416 33.174 297.638Z" fill="white"/>
<path d="M46.3237 298.404C46.704 298.479 47.0765 298.592 47.4342 298.739C47.0789 298.73 46.7261 298.632 46.4135 298.454L46.3232 298.404H46.3237Z" fill="white"/>
<path d="M53.6555 235.448C55.9417 236.018 58.1554 236.774 60.2792 237.699C58.8281 237.159 57.3398 236.699 55.8191 236.318C52.5195 235.495 49.0702 235.058 45.5159 235.058C22.0753 235.058 3.06983 254.061 3.06983 277.504C3.06983 284.115 4.58075 290.373 7.2797 295.952L5.79871 296.435C2.67431 290.524 0.905762 283.785 0.905762 276.634C0.905762 253.191 19.9113 234.188 43.3519 234.188C46.9061 234.188 50.3559 234.625 53.655 235.448L53.6555 235.448Z" fill="white"/>
<path d="M64.1437 298.197C63.8787 298.212 63.6083 298.159 63.3659 298.034L62.783 297.736C63.2408 297.814 63.6834 297.962 64.0986 298.174L64.1437 298.197Z" fill="white"/>
<path d="M47.5025 299.65C46.9681 299.65 46.4406 299.512 45.9665 299.243L45.5563 299.012C44.9149 298.647 44.2206 298.423 43.4894 298.343L40.946 298.068C40.4935 298.021 40.0352 298.03 39.5867 298.096L34.3797 298.866C33.6961 298.967 33.0116 298.851 32.3996 298.529L30.5855 297.567C30.2184 297.373 29.8229 297.252 29.4126 297.207L27.598 297.009C27.1671 296.961 26.7377 297 26.3201 297.123L20.8432 298.738C20.2416 298.914 19.6248 298.966 19.0065 298.894L14.6582 298.386C13.9501 298.302 13.3039 298.002 12.7876 297.516L11.9411 296.725C11.4799 296.293 10.8763 296.056 10.2437 296.061C9.98562 296.063 9.73437 296.103 9.49784 296.18L6.07901 297.294C5.65994 297.431 5.20357 297.246 4.99747 296.856C1.72831 290.672 0 283.678 0 276.633C0 252.729 19.4476 233.281 43.352 233.281C46.9092 233.281 50.4497 233.715 53.8744 234.569C63.0906 236.866 71.4323 242.256 77.3617 249.746C83.4736 257.466 86.7045 266.764 86.7045 276.633C86.7045 283.703 84.9658 290.717 81.6761 296.917C81.4891 297.268 81.0941 297.457 80.703 297.381C80.5955 297.36 80.492 297.336 80.3879 297.305L77.9702 296.596C77.3337 296.411 76.6742 296.358 76.0112 296.438L70.5854 297.103L68.0807 297.534C67.5733 297.623 67.0846 297.792 66.6297 298.038L65.2051 298.813C64.5014 299.192 63.6623 299.201 62.9557 298.843L61.5238 298.111C61.0041 297.845 60.4221 297.705 59.8396 297.705H55.9625C55.6567 297.705 55.3476 297.744 55.0433 297.822L48.2773 299.553C48.0212 299.617 47.7611 299.65 47.503 299.65L47.5025 299.65ZM40.3773 296.227C40.6305 296.227 40.8842 296.24 41.1374 296.266L43.6847 296.542C44.6642 296.649 45.5941 296.949 46.4494 297.436L46.8587 297.666C47.1555 297.835 47.5 297.881 47.8298 297.797L54.5938 296.067C55.0448 295.952 55.5046 295.894 55.9615 295.894H59.8386C60.7067 295.894 61.5743 296.103 62.3472 296.498L63.7771 297.229C63.9533 297.318 64.1653 297.315 64.3424 297.22L65.7641 296.446C66.3932 296.105 67.0679 295.871 67.7706 295.749L70.2983 295.314C70.313 295.311 70.3272 295.309 70.3419 295.307L75.7899 294.64C76.6987 294.528 77.6026 294.601 78.4776 294.857L80.41 295.423C83.3445 289.644 84.8927 283.164 84.8927 276.633C84.8927 257.517 71.9574 240.942 53.4362 236.326C50.1543 235.508 46.7615 235.092 43.352 235.092C20.4467 235.092 1.81173 253.727 1.81173 276.633C1.81173 283.129 3.34424 289.577 6.24978 295.334L8.9345 294.46C9.34719 294.324 9.78442 294.253 10.2315 294.25C10.2398 294.25 10.2486 294.25 10.2575 294.25C11.3488 294.25 12.3847 294.659 13.1787 295.403L14.0262 296.196C14.2598 296.416 14.5513 296.55 14.8697 296.588L19.2155 297.096C19.5909 297.139 19.9668 297.107 20.3329 297L25.8083 295.386C26.4575 295.195 27.1249 295.135 27.7943 295.209L29.6094 295.407C30.2479 295.477 30.8608 295.665 31.432 295.966L33.2452 296.928C33.5116 297.068 33.8124 297.119 34.1137 297.075L39.3217 296.304C39.6706 296.253 40.0234 296.228 40.3768 296.228L40.3773 296.227Z" fill="#371A45"/>
<path d="M68.4139 255.781C63.5661 252.068 57.5926 249.877 51.1294 249.877C50.4041 249.877 49.6837 249.905 48.9707 249.96H48.9658C33.7698 251.123 21.7854 264.415 21.7854 280.644C21.7854 286.367 23.2762 291.723 25.8702 296.31L24.6846 296.661C20.7098 291.413 18.3362 284.774 18.3362 277.55C18.3362 261.321 30.3205 248.029 45.5166 246.866H45.5215C46.2345 246.811 46.9548 246.783 47.6801 246.783C55.7745 246.783 63.1063 250.223 68.4144 255.781L68.4139 255.781Z" fill="#FF9D33"/>
<path d="M10.2393 296.063C9.89484 296.063 9.56556 295.865 9.41393 295.531C6.85386 289.894 5.55591 283.871 5.55591 277.629C5.55591 253.725 25.0035 234.277 48.9079 234.277C50.5258 234.277 52.1574 234.369 53.7567 234.548C54.2538 234.604 54.6115 235.053 54.5556 235.55C54.4996 236.047 54.0496 236.404 53.554 236.349C52.0215 236.176 50.4581 236.089 48.9074 236.089C26.0017 236.089 7.36666 254.724 7.36666 277.63C7.36666 283.611 8.61014 289.382 11.0627 294.783C11.2698 295.238 11.0681 295.775 10.6128 295.982C10.4915 296.037 10.364 296.064 10.2388 296.064L10.2393 296.063Z" fill="#371A45"/>
<path d="M47.5025 299.649C46.9681 299.649 46.4406 299.511 45.9666 299.242L45.5563 299.011C44.915 298.645 44.2206 298.421 43.4894 298.342L40.946 298.066C40.4936 298.019 40.0353 298.029 39.5867 298.094L34.3797 298.865C33.6967 298.966 33.0116 298.85 32.4002 298.528L30.586 297.565C30.2189 297.372 29.8234 297.25 29.4132 297.205L27.5985 297.007C27.1681 296.96 26.7383 296.998 26.3207 297.121L20.8438 298.737C20.2422 298.912 19.6253 298.964 19.007 298.893L14.6588 298.385C13.9507 298.301 13.3044 298 12.7881 297.515L11.9417 296.723C11.4843 296.294 10.8876 296.059 10.2595 296.059H10.2443C9.98664 296.061 9.7349 296.102 9.49789 296.179L3.13278 298.253C2.65728 298.408 2.14595 298.148 1.99088 297.673C1.83582 297.197 2.0959 296.686 2.5714 296.531L8.93503 294.457C9.34822 294.322 9.78545 294.251 10.232 294.248C11.3381 294.246 12.3794 294.651 13.1793 295.4L14.0267 296.193C14.2603 296.413 14.5518 296.548 14.8703 296.585L19.2161 297.093C19.592 297.136 19.9678 297.105 20.3334 296.998L25.8089 295.383C26.4581 295.192 27.1255 295.132 27.7948 295.206L29.61 295.404C30.2484 295.474 30.8613 295.662 31.4325 295.963L33.2457 296.925C33.5121 297.065 33.8134 297.117 34.1143 297.072L39.3222 296.301C39.9209 296.213 40.5309 296.201 41.1369 296.264L43.6842 296.54C44.6637 296.646 45.5936 296.947 46.4489 297.433L46.8582 297.664C47.1551 297.833 47.4996 297.879 47.8293 297.795L54.5934 296.065C55.0444 295.949 55.5042 295.892 55.961 295.892H59.8382C60.7063 295.892 61.5739 296.101 62.3467 296.496L63.7767 297.226C63.9529 297.316 64.1644 297.313 64.342 297.217L65.7636 296.444C66.3932 296.103 67.0679 295.869 67.7701 295.747L70.2978 295.312C70.3126 295.309 70.3268 295.307 70.3415 295.305L75.7895 294.637C76.6983 294.526 77.6017 294.599 78.4771 294.854L80.9022 295.565C80.9543 295.58 81.0004 295.591 81.0485 295.6C81.5358 295.698 82.0407 295.592 82.4402 295.311L83.5178 294.556C84.9369 293.563 86.6672 293.113 88.3881 293.286L92.2427 293.676C92.7403 293.727 93.103 294.171 93.0529 294.669C93.0024 295.167 92.5578 295.528 92.0602 295.479L88.2056 295.089C86.916 294.959 85.62 295.297 84.5561 296.041L83.481 296.793C82.6786 297.358 81.6638 297.571 80.6971 297.377C80.5951 297.358 80.4915 297.333 80.3875 297.302L77.9692 296.593C77.3328 296.408 76.6727 296.355 76.0103 296.435L70.5844 297.1L68.0798 297.532C67.5724 297.619 67.0841 297.789 66.6287 298.036L65.2047 298.811C64.501 299.189 63.6619 299.199 62.9552 298.84L61.5233 298.109C61.0036 297.843 60.4216 297.703 59.8392 297.703H55.962C55.6563 297.703 55.3471 297.742 55.0429 297.82L48.2769 299.55C48.0207 299.615 47.7606 299.647 47.5025 299.647V299.649Z" fill="#371A45"/>
<path d="M24.6847 297.412C24.4575 297.412 24.2337 297.31 24.086 297.115C19.8329 291.5 17.585 284.735 17.585 277.551C17.585 269.544 20.4552 261.912 25.6666 256.06C30.8599 250.228 37.8889 246.698 45.4587 246.118C45.4666 246.118 45.4744 246.117 45.4828 246.117C46.2041 246.061 46.9436 246.033 47.6797 246.033C64.2738 246.033 77.774 260.172 77.774 277.551C77.774 284.486 75.6649 291.063 71.6753 296.572C71.4324 296.907 70.9628 296.982 70.6276 296.74C70.292 296.497 70.2169 296.027 70.4598 295.692C74.2629 290.442 76.2729 284.169 76.2729 277.552C76.2729 261 63.446 247.535 47.6792 247.535C46.9745 247.535 46.2679 247.562 45.5785 247.615C45.5701 247.616 45.5623 247.616 45.5539 247.617C30.7102 248.764 19.0856 261.909 19.0856 277.552C19.0856 284.406 21.2281 290.857 25.2819 296.21C25.5321 296.54 25.4669 297.011 25.1366 297.261C25.0012 297.363 24.8417 297.413 24.6842 297.413L24.6847 297.412Z" fill="#371A45"/>
<path d="M65.6601 298.283C65.4683 298.283 65.2764 298.21 65.1302 298.064C64.8495 297.783 64.8367 297.336 65.0934 297.041C69.5123 291.62 71.9453 284.699 71.9453 277.551C71.9453 261.905 60.3162 248.757 45.4691 247.614C45.0784 247.588 44.7678 247.263 44.7678 246.866C44.7678 246.468 45.1015 246.115 45.5157 246.115H45.5206C45.5397 246.115 45.5589 246.116 45.578 246.118C53.1463 246.698 60.1739 250.229 65.3662 256.061C70.5766 261.913 73.4464 269.545 73.4464 277.551C73.4464 285.051 70.8883 292.315 66.2436 298.006C66.2274 298.026 66.2107 298.044 66.1926 298.062C66.0458 298.209 65.853 298.282 65.6601 298.282V298.283Z" fill="#371A45"/>
<path d="M50.116 271.604V271.602H50.3662L50.116 271.604Z" fill="#371A45"/>
<path d="M50.2436 288.041V287.919H50.116L50.2436 287.791V287.916L50.3662 287.919H50.2436V288.041Z" fill="#371A45"/>
<g opacity="0.25">
<path d="M49.6351 298.405H46.9926C45.9008 298.405 45.016 297.52 45.016 296.428V294.011C42.8775 293.703 40.8434 292.967 39.4258 291.955C38.7064 291.441 38.4159 290.512 38.7137 289.68L39.7202 286.869C39.9253 286.297 40.3832 285.85 40.9602 285.659C41.5383 285.469 42.1718 285.554 42.6773 285.891C44.0606 286.812 45.9086 287.362 47.6212 287.362C49.0124 287.362 50.6357 286.803 50.6357 285.229C50.6357 284.388 50.3653 283.381 47.13 282.069C43.1081 280.492 38.9753 278.171 38.9753 272.98C38.9753 269.088 41.4588 265.913 45.309 264.674V261.99C45.309 260.898 46.1942 260.014 47.2861 260.014H49.8864C50.9782 260.014 51.863 260.899 51.863 261.99V264.257C53.5094 264.511 54.9859 265.028 56.3388 265.822C57.1706 266.309 57.5293 267.326 57.1878 268.227L56.1391 270.996C55.9345 271.537 55.5031 271.961 54.9585 272.156C54.4142 272.352 53.8116 272.299 53.3096 272.012C52.6477 271.633 51.2697 270.846 49.0056 270.846C47.4362 270.846 46.5358 271.44 46.5358 272.476C46.5358 273.242 46.8214 273.902 50.5125 275.43C54.111 276.898 58.2394 279.306 58.2394 284.934C58.2394 289.014 55.6376 292.339 51.6113 293.62V296.428C51.6113 297.52 50.726 298.404 49.6347 298.404L49.6351 298.405Z" fill="#371A45"/>
</g>
<path d="M129.126 177.31C111.028 171.514 92.9328 168.582 74.8376 168.58L74.71 168.297C91.8071 157.479 117.199 162.704 129.126 177.31Z" fill="#9DA1A5"/>
<path d="M129.126 177.31C128.448 177.092 127.767 176.88 127.09 176.672C115.08 164.415 93.0554 160.093 77.0065 168.597C76.2837 168.585 75.5609 168.58 74.838 168.58L74.7104 168.297C91.8076 157.479 117.199 162.704 129.126 177.31L129.126 177.31Z" fill="white"/>
<path d="M74.8364 168.58C89.3936 163.631 110.01 165.484 123.449 173.004C125.514 174.197 127.478 175.604 129.125 177.309C126.28 175.188 123.116 173.656 119.819 172.425C106 167.401 89.3263 166.019 74.8364 168.58Z" fill="#371A45"/>
<g opacity="0.25">
<path d="M129.126 177.308C111.028 171.512 92.9326 168.581 74.8374 168.578C93.6731 163.605 119.327 168.496 129.126 177.308Z" fill="#371A45"/>
</g>
<path d="M129.125 178.185C129.036 178.185 128.945 178.171 128.858 178.143C110.859 172.38 92.6833 169.457 74.8364 169.456C74.4262 169.456 74.0812 169.173 73.987 168.792C73.9811 168.783 73.9752 168.774 73.9693 168.765C73.7107 168.357 73.8324 167.816 74.2412 167.558C82.5578 162.296 93.1304 160.467 104.011 162.408C114.481 164.276 123.882 169.505 129.803 176.756C130.049 177.056 130.067 177.482 129.849 177.802C129.682 178.046 129.409 178.185 129.125 178.185H129.125ZM77.4441 167.725C93.628 167.981 110.053 170.602 126.355 175.53C114.192 163.149 92.6828 159.685 77.4441 167.725Z" fill="#371A45"/>
<path d="M99.3124 164.033L98.4306 170.426C98.2799 171.52 99.0671 172.52 100.165 172.629L103.503 172.963C104.568 173.069 105.519 172.297 105.632 171.233L106.296 165.018C106.406 163.992 105.695 163.058 104.676 162.89L101.556 162.378C100.476 162.2 99.4621 162.948 99.3124 164.032V164.033Z" fill="#9DA1A5"/>
<path d="M106.3 164.629C106.193 164.592 106.08 164.564 105.963 164.544L102.844 164.031C101.763 163.854 100.75 164.602 100.6 165.685L99.7173 172.078C99.6972 172.231 99.6947 172.381 99.7075 172.526C98.857 172.225 98.304 171.36 98.4316 170.427L99.3144 164.033C99.4621 162.948 100.477 162.2 101.558 162.378L104.677 162.89C105.566 163.038 106.218 163.763 106.301 164.629H106.3Z" fill="white"/>
<path d="M101.557 162.379L101.717 160.999C101.79 160.37 102.363 159.921 102.991 160.002L104.285 160.167C104.921 160.248 105.364 160.839 105.265 161.472L105.027 162.983" fill="#E86B34"/>
<path d="M103.697 173.849C103.604 173.849 103.511 173.845 103.416 173.835L100.078 173.502C99.3084 173.425 98.6204 173.047 98.1415 172.439C97.6626 171.831 97.4574 171.074 97.5629 170.307L98.4448 163.914C98.5498 163.153 98.9478 162.483 99.5656 162.028C100.183 161.573 100.941 161.39 101.698 161.515L104.818 162.028C106.294 162.27 107.326 163.625 107.167 165.112L106.503 171.327C106.349 172.769 105.119 173.849 103.697 173.849L103.697 173.849ZM100.18 164.153L99.2981 170.547C99.2579 170.838 99.3359 171.125 99.518 171.356C99.6995 171.587 99.9606 171.73 100.253 171.76L103.591 172.093C104.175 172.148 104.7 171.724 104.763 171.141L105.427 164.927C105.487 164.362 105.095 163.848 104.535 163.756L101.415 163.243C101.127 163.195 100.84 163.265 100.606 163.438C100.372 163.611 100.22 163.865 100.18 164.154L100.18 164.153Z" fill="#371A45"/>
<path d="M105.027 163.859C104.982 163.859 104.936 163.856 104.89 163.848C104.412 163.773 104.086 163.325 104.161 162.847L104.399 161.336C104.413 161.246 104.38 161.179 104.35 161.139C104.325 161.105 104.269 161.048 104.174 161.036L102.88 160.871C102.791 160.859 102.724 160.893 102.686 160.924C102.646 160.955 102.597 161.01 102.587 161.1L102.426 162.481C102.371 162.961 101.935 163.304 101.456 163.249C100.975 163.193 100.631 162.759 100.687 162.278L100.848 160.898C100.91 160.36 101.18 159.879 101.607 159.545C102.034 159.211 102.565 159.065 103.103 159.134L104.397 159.299C104.941 159.369 105.422 159.649 105.752 160.088C106.081 160.527 106.215 161.067 106.13 161.609L105.892 163.12C105.824 163.551 105.452 163.86 105.028 163.86L105.027 163.859Z" fill="#371A45"/>
<path d="M99.7218 171.254L90.7308 223.813C90.6136 224.499 91.0837 225.148 91.7726 225.25L94.637 225.675C95.3186 225.776 95.9521 225.304 96.0488 224.622L103.537 171.891C103.63 171.232 103.188 170.617 102.534 170.495L101.173 170.242C100.492 170.115 99.8391 170.571 99.7223 171.253L99.7218 171.254Z" fill="#E86B34"/>
<path d="M103.481 171.315L102.456 171.123C101.772 170.998 101.12 171.453 101.005 172.136L92.0121 224.693C91.9773 224.9 91.9944 225.105 92.0597 225.293L91.7721 225.25C91.0842 225.148 90.614 224.497 90.7313 223.812L99.7213 171.253C99.8391 170.569 100.492 170.115 101.172 170.242L102.533 170.495C102.99 170.58 103.343 170.903 103.481 171.315H103.481Z" fill="white"/>
<path d="M94.8233 226.564C94.7188 226.564 94.6133 226.556 94.5073 226.54L91.6435 226.115C91.0752 226.031 90.5766 225.728 90.24 225.263C89.9029 224.798 89.7709 224.23 89.8675 223.664L98.8585 171.105C98.9547 170.542 99.2658 170.052 99.7344 169.725C100.204 169.398 100.77 169.276 101.332 169.38L102.693 169.633C103.811 169.841 104.562 170.886 104.402 172.013L96.9143 224.744C96.8343 225.306 96.5398 225.803 96.0845 226.143C95.7149 226.418 95.2757 226.564 94.8228 226.564H94.8233ZM100.945 171.095C100.847 171.095 100.775 171.135 100.736 171.162C100.689 171.195 100.607 171.269 100.584 171.4L91.5934 223.959C91.5708 224.091 91.6238 224.189 91.6577 224.236C91.6915 224.282 91.7681 224.363 91.9006 224.383L94.7644 224.808C94.8954 224.828 94.9916 224.774 95.0373 224.74C95.0829 224.706 95.1619 224.629 95.1806 224.498L102.668 171.767C102.696 171.572 102.566 171.391 102.373 171.355L101.012 171.102C100.988 171.098 100.965 171.096 100.944 171.096L100.945 171.095Z" fill="#371A45"/>
<path d="M99.1411 202.746L99.3737 200.562C97.1449 200.15 96.1443 199.094 95.7566 197.959V197.956C95.1413 196.165 96.0417 194.172 96.0417 194.172C99.541 193.501 99.3737 190.274 99.3737 190.274C100.597 189.739 101.555 189.982 102.24 190.697C104.702 193.251 103.734 201.849 99.1411 202.747V202.746Z" fill="white"/>
<path d="M37.4114 187.945L31.6283 230.512C31.5258 230.504 31.4257 230.496 31.3256 230.487C28.2836 230.211 26.0974 229.316 24.534 228.105C21.3949 225.679 20.7545 221.989 20.727 219.513C20.7069 217.962 20.9297 216.884 20.9297 216.884C20.7972 216.656 20.677 216.416 20.572 216.168C18.7607 211.984 20.3295 205.115 22.4303 203.459C23.6183 199.106 25.0694 194.456 26.0548 191.395C26.7177 189.329 28.631 187.92 30.8 187.898C33.7492 187.868 37.4286 187.848 37.4109 187.945H37.4114Z" fill="white"/>
<path d="M31.6287 231.387C31.6066 231.387 31.584 231.386 31.5619 231.385C27.301 231.063 24.1305 229.56 22.1387 226.919C19.3033 223.16 19.8102 218.338 20.0134 217.036C17.7217 212.636 19.3342 205.194 21.6563 202.976C22.8277 198.706 24.237 194.19 25.2214 191.127C26.0021 188.699 28.2408 187.05 30.792 187.023C37.7214 186.951 37.7342 186.967 38.0792 187.377C38.2475 187.578 38.3191 187.846 38.2715 188.103C38.1842 188.579 37.7288 188.894 37.2523 188.806C37.2219 188.801 37.1924 188.793 37.1635 188.785C36.8916 188.763 35.7316 188.723 30.8102 188.774C29.0136 188.793 27.4375 189.954 26.8884 191.663C25.8897 194.769 24.4524 199.377 23.2762 203.691C23.2266 203.872 23.1206 204.032 22.9729 204.149C21.2058 205.539 19.4996 212.666 21.6867 216.447C21.7942 216.633 21.8295 216.851 21.7864 217.061C21.7761 217.112 20.7814 222.224 23.5446 225.876C25.2204 228.091 27.9625 229.357 31.6939 229.64C32.1763 229.676 32.5375 230.096 32.5012 230.579C32.4663 231.039 32.0826 231.388 31.6292 231.388L31.6287 231.387Z" fill="#371A45"/>
<path d="M28.5961 219.803C23.9294 219.803 20.5984 217.711 20.4576 217.621C20.0498 217.361 19.9305 216.82 20.1906 216.412C20.4507 216.005 20.991 215.886 21.3983 216.145C21.44 216.171 24.53 218.092 28.7257 218.052C28.7286 218.052 28.7311 218.052 28.734 218.052C29.2139 218.052 29.605 218.438 29.6095 218.919C29.6139 219.402 29.2257 219.798 28.7424 219.802C28.6938 219.802 28.6447 219.803 28.5961 219.803Z" fill="#371A45"/>
<path d="M95.2641 193.871L93.951 202.375L92.4503 202.688C86.6721 207.781 78.9605 209.899 70.0628 210.192L70.2478 212.583C70.2606 212.746 70.3352 212.891 70.448 212.996C70.5604 213.098 70.7106 213.161 70.8735 213.161C71.3588 213.161 71.7514 213.556 71.7514 214.041V217.723C71.7514 218.208 71.3588 218.603 70.8735 218.603H70.871C70.5359 218.603 70.2606 218.866 70.2459 219.201L70.0432 223.969C70.6934 224.384 71.2965 224.799 71.8544 225.217C82.503 233.177 76.6895 241.464 71.4717 249.121C71.4717 249.121 77.005 255.154 73.065 258.093C69.288 260.91 64.9481 257.61 63.9426 256.76C63.8027 256.642 63.7276 256.573 63.7276 256.573C63.71 256.648 63.6904 256.723 63.6678 256.798C63.5603 257.201 63.4151 257.576 63.2399 257.931C62.8699 258.679 62.2741 259.284 61.5415 259.684C56.0533 262.681 48.8942 256.162 46.238 253.778C46.0952 253.651 45.9651 253.521 45.8454 253.391C43.5415 250.929 44.8198 248.108 44.8198 248.108L47.8642 239.52C47.8043 239.502 47.744 239.488 47.6866 239.47C40.2625 237.366 34.1064 233.017 34.1064 233.017C33.2811 232.414 32.5705 231.721 31.9654 230.956C25.407 222.693 30.855 206.189 30.855 206.189C14.7211 202.499 9.24766 188.304 9.24766 188.304C9.24766 188.304 4.90284 183.364 4.05979 180.142C3.21428 176.923 6.43634 173.17 10.2806 171.102C14.1254 169.033 15.8885 173.583 15.8885 173.583C20.3133 170.237 20.516 176.693 20.8487 181.238L26.5268 188.619C26.9096 189.117 27.4548 189.465 28.0677 189.602C31.2819 190.338 34.5265 190.566 37.803 190.288L71.4393 194.215C71.4393 194.215 79.5361 194.591 81.3748 194.275C83.2136 193.965 88.4814 191.398 91.6382 188.772C94.795 186.146 97.4542 187.586 97.4542 187.586C101.614 189.72 98.1422 195.651 95.2656 193.87L95.2641 193.871Z" fill="white"/>
<path d="M58.4523 261.332C53.34 261.332 48.0186 256.556 45.7471 254.517L45.6514 254.431C43.0555 252.103 43.4319 249.089 44.005 247.784L46.7275 240.103C39.5773 237.923 33.8491 233.909 33.5994 233.733C24.5476 227.118 28.5626 210.882 29.7438 206.821C21.6892 204.733 16.3904 200.054 13.3303 196.429C10.2397 192.767 8.79358 189.503 8.48982 188.769C7.80822 187.98 4.03263 183.507 3.20921 180.366C2.19048 176.479 5.94447 172.44 9.86383 170.331C11.1559 169.636 12.3994 169.502 13.5609 169.931C14.8642 170.412 15.7323 171.512 16.2196 172.319C17.2643 171.738 18.1992 171.628 19.0074 171.996C21.142 172.966 21.4099 176.777 21.6695 180.461L21.7019 180.914L27.22 188.088C27.4762 188.421 27.8462 188.656 28.2618 188.751C31.3715 189.462 34.5563 189.685 37.7278 189.416C37.7862 189.41 37.8451 189.412 37.9035 189.418L71.5093 193.342C73.7602 193.446 79.8029 193.657 81.227 193.415C82.9455 193.122 88.0421 190.626 91.0772 188.102C94.6496 185.131 97.7396 186.747 97.8697 186.817C99.3615 187.582 100.212 188.875 100.247 190.447C100.285 192.122 99.3423 193.846 97.9551 194.639C97.3157 195.005 96.6296 195.14 95.9686 195.046L94.8159 202.51C94.76 202.871 94.4867 203.16 94.1294 203.234L92.8531 203.5C87.518 208.12 80.3604 210.589 71.0053 211.032L71.1035 212.304C71.9622 212.417 72.6266 213.154 72.6266 214.043V217.726C72.6266 218.612 71.9657 219.347 71.1108 219.464L70.9381 223.51C75.2976 226.382 77.7679 229.484 78.4853 232.981C79.6292 238.56 76.0896 243.898 72.5692 249.064C73.5168 250.236 75.5827 253.123 75.3349 255.76C75.2186 256.998 74.6307 258.02 73.5885 258.798C70.2923 261.257 66.4171 259.689 64.151 258.051C64.1107 258.142 64.0685 258.232 64.0244 258.321C63.5783 259.223 62.8648 259.962 61.9614 260.455C60.8313 261.072 59.6481 261.333 58.4537 261.333L58.4523 261.332ZM12.1992 171.439C11.732 171.439 11.2339 171.583 10.6931 171.874C7.33664 173.68 4.1666 177.114 4.90317 179.923C5.68586 182.908 9.86187 187.679 9.90407 187.727C9.97228 187.805 10.0263 187.894 10.0636 187.991C10.1166 188.128 15.5812 201.8 31.0476 205.337C31.2876 205.392 31.4937 205.546 31.6149 205.761C31.7361 205.975 31.7611 206.231 31.6841 206.466C31.6213 206.656 25.4952 225.643 34.621 232.312C34.6711 232.347 40.835 236.662 48.0966 238.679C48.3307 238.744 48.527 238.903 48.6389 239.119C48.7508 239.334 48.7684 239.587 48.6875 239.815L45.644 248.403C45.6357 248.427 45.6264 248.449 45.6161 248.472C45.5724 248.573 44.5183 251.064 46.8208 253.129L46.9165 253.215C49.4667 255.504 56.2416 261.584 61.1203 258.918C61.7062 258.598 62.1675 258.123 62.4536 257.544C62.641 257.165 62.7779 256.783 62.8722 256.376C62.9428 256.071 63.171 255.827 63.4708 255.736C63.7712 255.645 64.0965 255.721 64.3247 255.936C64.5082 256.107 68.8839 260.121 72.5403 257.394C73.1772 256.919 73.5207 256.331 73.5904 255.598C73.7921 253.474 71.6614 250.63 70.8238 249.713C70.5499 249.413 70.5175 248.964 70.7462 248.628L70.9018 248.4C74.2872 243.435 77.788 238.302 76.7693 233.332C76.1294 230.212 73.7744 227.391 69.5705 224.71C69.3069 224.542 69.1534 224.247 69.1666 223.935L69.3702 219.167C69.4051 218.361 70.0641 217.729 70.8709 217.729L70.8748 214.043C70.0916 214.04 69.4335 213.431 69.3737 212.653L69.1892 210.261C69.171 210.023 69.2505 209.788 69.41 209.61C69.5695 209.431 69.7947 209.326 70.0332 209.319C79.5203 209.006 86.6631 206.624 91.8706 202.032C91.9845 201.932 92.1224 201.863 92.2711 201.832L93.1779 201.643L94.3983 193.738C94.443 193.448 94.6304 193.199 94.8974 193.077C95.1638 192.954 95.475 192.973 95.7247 193.128C96.1531 193.393 96.611 193.39 97.0855 193.119C97.9133 192.646 98.5199 191.514 98.4963 190.487C98.4821 189.85 98.2196 188.965 97.0526 188.366C96.9545 188.315 94.8258 187.262 92.1965 189.448C89.0951 192.027 83.6433 194.78 81.5204 195.141C79.6444 195.461 72.236 195.129 71.3974 195.09C71.3768 195.089 71.3567 195.088 71.3366 195.085L37.7872 191.168C34.4645 191.442 31.1286 191.203 27.8717 190.459C27.0601 190.273 26.3358 189.811 25.8323 189.156L20.1537 181.774C20.0492 181.638 19.9869 181.475 19.9746 181.304L19.9235 180.586C19.7538 178.171 19.4691 174.13 18.2836 173.591C17.8998 173.417 17.2364 173.663 16.4144 174.285C16.1956 174.451 15.9109 174.504 15.6469 174.428C15.3829 174.353 15.169 174.159 15.0699 173.902C15.0635 173.887 14.3382 172.081 12.9475 171.572C12.7066 171.484 12.4578 171.44 12.1997 171.44L12.1992 171.439Z" fill="#371A45"/>
<path d="M36.4504 160.764L33.3441 161.196C31.5245 161.45 30.0475 162.794 29.624 164.582L27.6665 172.845C27.1851 174.878 28.1808 176.973 30.0617 177.882L33.4874 179.539" fill="white"/>
<path d="M82.0067 171.555L84.5889 173.335C86.1012 174.378 86.8182 176.242 86.3952 178.029L84.4377 186.292C83.9563 188.325 82.1264 189.751 80.0379 189.72L76.2329 189.664" fill="white"/>
<g opacity="0.25">
<path d="M33.4876 179.538L30.0604 177.882C28.1819 176.972 27.1848 174.877 27.6662 172.845L28.7771 168.154C28.2958 170.187 29.2924 172.282 31.1714 173.192L34.2545 174.683L33.4871 179.538H33.4876Z" fill="#371A45"/>
</g>
<g opacity="0.25">
<path d="M85.5477 181.602L84.4367 186.292C83.9553 188.324 82.1264 189.75 80.0375 189.72L76.2314 189.663L77.7267 184.978L81.1484 185.03C83.2374 185.06 85.0663 183.634 85.5477 181.602Z" fill="#371A45"/>
</g>
<path d="M57.3334 199.285C71.5271 199.285 83.0333 187.778 83.0333 173.585C83.0333 159.391 71.5271 147.885 57.3334 147.885C43.1398 147.885 31.6335 159.391 31.6335 173.585C31.6335 187.778 43.1398 199.285 57.3334 199.285Z" fill="white"/>
<g opacity="0.25">
<path d="M51.4106 198.593C45.6814 197.235 40.8606 194.059 37.4109 189.82C39.7703 191.324 42.4172 192.463 45.2918 193.144C59.1021 196.415 72.9511 187.871 76.2232 174.059C78.1361 165.976 76.0039 157.879 71.136 151.898C80.1137 157.609 84.934 168.57 82.342 179.508C79.0699 193.32 65.2223 201.864 51.4106 198.593Z" fill="#371A45"/>
</g>
<path d="M82.1472 180.329C79.5434 191.322 66.2371 197.582 52.4244 194.31C39.8316 191.327 31.1665 181.451 31.7127 171.399C31.7637 170.426 31.9016 169.452 32.1312 168.482C34.735 157.489 48.0408 151.232 61.853 154.503C72.2317 156.962 79.9409 164.102 82.0289 172.162V172.165C82.7193 174.832 82.793 177.599 82.1467 180.329H82.1472Z" fill="#371A45"/>
<g opacity="0.7">
<path d="M82.1472 180.328C79.5434 191.321 66.2371 197.581 52.4244 194.309C39.8316 191.326 31.1665 181.45 31.7127 171.397C31.9521 171.205 32.0895 171.102 32.0895 171.102C39.2256 192.908 76.3292 193.158 82.0289 172.163C82.7198 174.831 82.7939 177.598 82.1472 180.328V180.328Z" fill="#111A28"/>
</g>
<path d="M57.3345 200.163C55.3123 200.163 53.2596 199.931 51.2084 199.445C44.301 197.809 38.4443 193.581 34.7168 187.539C30.9893 181.498 29.8376 174.367 31.4742 167.46C33.1102 160.552 37.3382 154.696 43.3795 150.968C49.4202 147.241 56.5513 146.09 63.4587 147.726C70.366 149.362 76.2227 153.59 79.9502 159.631C83.6777 165.672 84.8294 172.803 83.1929 179.711C80.3011 191.918 69.3679 200.164 57.334 200.164L57.3345 200.163ZM57.3325 148.758C46.0907 148.758 35.8789 156.459 33.1775 167.863C30.0226 181.183 38.2917 194.586 51.6113 197.741C53.5265 198.194 55.4457 198.412 57.334 198.412C68.5759 198.413 78.7877 190.71 81.4891 179.307C84.6439 165.987 76.3749 152.584 63.0553 149.429C61.14 148.975 59.2208 148.758 57.3325 148.758V148.758Z" fill="#371A45"/>
<path d="M82.438 179.854C82.3805 179.854 82.3226 179.848 82.2642 179.833C81.8609 179.738 81.6116 179.333 81.7068 178.93C84.3714 167.681 75.6479 155.95 62.2616 152.779C48.8758 149.609 35.8163 156.18 33.1517 167.429C33.0565 167.832 32.6522 168.082 32.2483 167.986C31.8449 167.89 31.5957 167.486 31.6913 167.083C34.5468 155.029 48.4155 147.957 62.6076 151.319C76.7996 154.681 86.0227 167.222 83.1672 179.276C83.0857 179.621 82.7775 179.854 82.4375 179.854H82.438Z" fill="#371A45"/>
<path d="M33.487 180.317C33.3732 180.317 33.2573 180.292 33.1484 180.239L29.7227 178.582C27.4953 177.505 26.3382 175.071 26.9084 172.664L28.8659 164.4C29.3669 162.284 31.083 160.723 33.2367 160.423L36.343 159.99C36.7694 159.931 37.163 160.228 37.2228 160.654C37.2822 161.081 36.9848 161.475 36.5584 161.534L33.4522 161.967C31.9398 162.177 30.7351 163.274 30.3832 164.76L28.4257 173.023C28.0253 174.713 28.8379 176.422 30.4014 177.178L33.8271 178.835C34.2147 179.023 34.3772 179.489 34.1897 179.877C34.0553 180.155 33.777 180.317 33.4875 180.317L33.487 180.317Z" fill="#371A45"/>
<path d="M80.1057 190.498C80.0792 190.498 80.0527 190.498 80.0262 190.498L76.2212 190.442C75.7908 190.436 75.4468 190.082 75.4532 189.651C75.4596 189.221 75.8168 188.872 76.2442 188.883L80.0493 188.939C81.7943 188.958 83.2787 187.801 83.6791 186.111L85.6366 177.848C85.9884 176.362 85.4035 174.843 84.1463 173.976L81.5641 172.195C81.2098 171.951 81.1205 171.465 81.3649 171.111C81.6093 170.756 82.0946 170.667 82.4494 170.911L85.031 172.692C86.8217 173.926 87.6544 176.091 87.1534 178.207L85.1959 186.471C84.6321 188.852 82.5451 190.498 80.1052 190.498H80.1057Z" fill="#371A45"/>
<g opacity="0.5">
<path d="M40.0381 181.823C39.8305 171.845 44.4226 164.401 53.2771 159.208C54.1403 158.701 53.6182 157.38 52.6402 157.594C37.0579 160.998 31.8318 173.042 38.4398 182.353C38.9443 183.064 40.0562 182.695 40.0381 181.824V181.823Z" fill="white"/>
</g>
<g opacity="0.5">
<path d="M72.451 177.069C72.1939 178.48 71.657 180.512 70.5392 182.66C69.9645 183.764 70.3566 185.125 71.4279 185.759C72.3857 186.326 73.6125 186.145 74.3609 185.322C76.2492 183.244 77.6929 180.6 77.8263 177.658C77.9019 175.996 76.4391 174.675 74.7878 174.876C73.613 175.019 72.663 175.905 72.4505 177.069H72.451Z" fill="white"/>
</g>
<g opacity="0.5">
<path d="M71.518 165.423C70.8438 165.992 70.6176 166.933 70.9581 167.747L71.8556 169.89C72.2404 170.808 73.2365 171.309 74.2037 171.071L74.3598 171.032C75.5547 170.738 76.2186 169.45 75.75 168.312C75.4673 167.626 75.0826 166.817 74.5649 165.94C73.9284 164.862 72.4744 164.615 71.518 165.423Z" fill="white"/>
</g>
<path d="M21.671 181.535L19.9717 183.678L20.0232 180.943L21.671 181.535Z" fill="#371A45"/>
<path d="M16.7576 173.502L17.0599 176.653C17.0824 176.886 17.0113 177.106 16.8773 177.277C15.6 178.449 14.3698 179.695 13.3118 181.083C13.8731 179.388 14.648 177.767 15.5028 176.192L15.3168 176.82L15.0146 173.669C14.939 172.515 16.6114 172.351 16.7576 173.501V173.502Z" fill="#371A45"/>
<path d="M9.11702 187.088L11.5608 188.494L8.7583 188.801L9.11702 187.088Z" fill="#371A45"/>
<path d="M15.6407 198.544C15.2609 198.544 14.911 198.295 14.8001 197.912C14.6657 197.448 14.9331 196.962 15.3978 196.827C19.066 195.765 22.5913 192.628 25.3256 187.994C25.462 187.764 25.5027 187.694 25.592 187.603C25.9311 187.258 26.4856 187.254 26.8301 187.593C27.1442 187.902 27.176 188.39 26.9219 188.735C26.9017 188.767 26.8728 188.818 26.8335 188.884C23.8716 193.904 19.9831 197.322 15.8846 198.509C15.8032 198.532 15.7212 198.543 15.6407 198.543V198.544ZM26.8409 188.831C26.8409 188.831 26.8404 188.832 26.8399 188.832C26.8399 188.832 26.8404 188.832 26.8409 188.831ZM26.8419 188.831C26.8419 188.831 26.8419 188.831 26.8414 188.831C26.8414 188.831 26.8414 188.831 26.8419 188.831Z" fill="#371A45"/>
<path d="M30.9496 205.321L34.23 206.566L30.7562 207.061C30.2621 207.132 29.8043 206.788 29.7336 206.294C29.6207 205.629 30.3318 205.07 30.9496 205.321V205.321Z" fill="#371A45"/>
<path d="M64.6551 225.464C57.7183 225.464 50.9675 224.825 44.5729 223.563C43.0252 223.257 41.9285 221.896 41.9653 220.325C42.0855 215.192 42.6704 210.745 43.7539 206.729C44.1573 205.234 45.5691 204.229 47.1129 204.34C54.986 204.905 61.6028 205.759 67.3413 206.951C68.7295 207.239 69.7831 208.425 69.9028 209.835C70.2439 213.836 69.8685 218.123 68.7565 222.941C68.4169 224.411 67.1293 225.447 65.6252 225.459C65.3018 225.462 64.978 225.464 64.6551 225.464V225.464ZM45.4444 207.185C44.3977 211.064 43.8324 215.375 43.7161 220.366C43.6995 221.083 44.2024 221.705 44.9125 221.845C51.4886 223.143 58.4519 223.768 65.6105 223.709C66.3019 223.703 66.8942 223.225 67.0508 222.547C68.1215 217.91 68.4836 213.801 68.1588 209.984C68.1038 209.339 67.6215 208.797 66.9855 208.665C61.3236 207.489 54.7823 206.646 46.9878 206.087C46.2816 206.036 45.6299 206.498 45.4444 207.185Z" fill="#371A45"/>
<path d="M70.8724 214.039C70.8013 214.039 70.7291 214.03 70.657 214.012C70.5029 213.974 69.6942 213.857 69.0342 213.771C68.5548 213.709 68.2167 213.269 68.2795 212.79C68.3418 212.31 68.7815 211.972 69.2609 212.035C69.6098 212.081 70.7733 212.235 71.0874 212.315C71.556 212.433 71.8396 212.91 71.7209 213.379C71.6203 213.775 71.264 214.039 70.8729 214.039H70.8724Z" fill="#371A45"/>
<path d="M70.6825 219.511C70.6678 219.511 70.6531 219.511 70.6378 219.51L68.9557 219.426C68.4728 219.402 68.1008 218.99 68.1249 218.507C68.1489 218.025 68.5616 217.656 69.043 217.677L70.7252 217.761C71.2081 217.785 71.58 218.196 71.556 218.679C71.5324 219.147 71.1457 219.511 70.682 219.511H70.6825Z" fill="#371A45"/>
<path d="M49.6135 224.294C47.4386 223.946 45.885 221.958 46.0661 219.766C46.3934 215.812 46.8557 211.99 47.4406 208.405C47.7949 206.232 49.7867 204.681 51.9748 204.871L52.4229 204.91C52.836 204.946 53.1413 205.31 53.105 205.723C53.0691 206.136 52.7016 206.441 52.2923 206.405L51.8443 206.366C50.433 206.244 49.1507 207.244 48.9216 208.646C48.343 212.191 47.8852 215.974 47.5613 219.889C47.4445 221.303 48.4456 222.587 49.8402 222.81L49.613 224.293L49.6135 224.294Z" fill="#371A45"/>
<path d="M58.9529 225.015C58.9126 225.015 58.8714 225.011 58.8307 225.005C58.4219 224.938 58.1446 224.552 58.2114 224.143L59.3341 217.291L54.8009 214.835C54.5334 214.69 54.3799 214.398 54.4122 214.095L55.2479 206.299C55.2921 205.887 55.6631 205.589 56.0743 205.633C56.4865 205.677 56.7849 206.047 56.7402 206.46L55.958 213.755L60.5182 216.225C60.7994 216.378 60.953 216.691 60.9015 217.007L59.6924 224.386C59.632 224.754 59.314 225.015 58.9529 225.015V225.015Z" fill="#371A45"/>
<path d="M64.1632 216.029C65.5907 216.029 66.7478 214.554 66.7478 212.735C66.7478 210.916 65.5907 209.441 64.1632 209.441C62.7358 209.441 61.5786 210.916 61.5786 212.735C61.5786 214.554 62.7358 216.029 64.1632 216.029Z" fill="#22A7F0"/>
<path d="M64.1634 216.654C62.3934 216.654 60.9531 214.896 60.9531 212.735C60.9531 210.575 62.3934 208.816 64.1634 208.816C65.9334 208.816 67.3737 210.575 67.3737 212.735C67.3737 214.896 65.9334 216.654 64.1634 216.654ZM64.1634 210.067C63.0828 210.067 62.204 211.264 62.204 212.735C62.204 214.206 63.0828 215.403 64.1634 215.403C65.244 215.403 66.1228 214.206 66.1228 212.735C66.1228 211.264 65.244 210.067 64.1634 210.067Z" fill="#371A45"/>
<path d="M64.9996 216.226C64.95 216.226 64.899 216.216 64.8509 216.195C63.6697 215.683 62.8762 214.293 62.8762 212.736C62.8762 211.179 63.6697 209.787 64.8509 209.275C65.0408 209.193 65.2621 209.28 65.3445 209.47C65.427 209.66 65.3396 209.882 65.1492 209.964C64.2385 210.358 63.6265 211.473 63.6265 212.737C63.6265 214 64.2385 215.112 65.1492 215.507C65.3391 215.589 65.4265 215.81 65.3445 216C65.2832 216.142 65.1453 216.226 65 216.226L64.9996 216.226Z" fill="#371A45"/>
<path d="M69.147 200.5C69.9581 203.708 70.6873 206.88 70.9371 210.217C70.969 210.702 70.6024 211.121 70.1176 211.153C69.6328 211.184 69.2142 210.818 69.1823 210.333C69.5013 207.11 69.386 203.757 69.147 200.5V200.5Z" fill="#371A45"/>
<path d="M85.5484 207.504C85.5405 207.504 85.5327 207.504 85.5243 207.504C85.041 207.491 84.6597 207.089 84.6724 206.605C84.8854 198.683 81.2477 194.82 81.2109 194.782C80.8762 194.435 80.8836 193.882 81.2291 193.546C81.5745 193.209 82.1261 193.214 82.4637 193.559C82.635 193.733 86.6569 197.939 86.4228 206.652C86.4101 207.128 86.0204 207.504 85.5484 207.504Z" fill="#371A45"/>
<path d="M94.4936 194.288C94.1501 193.026 94.2596 191.639 94.7841 190.453C94.8244 191.04 94.9574 191.607 95.1895 192.137C95.4029 192.612 95.666 193.097 96.0335 193.455L94.4931 194.288H94.4936Z" fill="#371A45"/>
<path d="M91.6937 203.283L91.095 201.084L93.0765 202.209L91.6937 203.283Z" fill="#371A45"/>
<path d="M29.4621 209.422C31.0864 209.986 35.9931 211.417 44.6866 211.731C45.1111 211.746 45.4271 212.13 45.3609 212.55L44.6606 217.008C44.6071 217.349 44.3166 217.602 43.9717 217.607C41.7031 217.64 33.4938 217.575 28.4468 215.101C28.2299 214.994 28.0832 214.779 28.0616 214.538C27.9036 212.806 28.0405 211.227 28.5636 209.852C28.7015 209.489 29.0955 209.294 29.4626 209.422L29.4621 209.422Z" fill="white"/>
<path d="M43.2731 218.487C40.2184 218.487 32.8311 218.225 28.0618 215.886C27.5735 215.647 27.2394 215.161 27.1898 214.617C27.0112 212.655 27.1928 210.994 27.7453 209.54C28.0545 208.727 28.9353 208.311 29.7499 208.595C31.4129 209.172 36.2009 210.549 44.7187 210.856C45.1707 210.872 45.5957 211.082 45.8837 211.432C46.1718 211.782 46.2969 212.238 46.2267 212.686L45.5265 217.144C45.4062 217.908 44.758 218.471 43.9851 218.483C43.7859 218.486 43.5469 218.488 43.2736 218.488L43.2731 218.487ZM28.925 214.359C33.6854 216.646 41.3465 216.761 43.8178 216.733L44.4675 212.599C36.0757 212.279 31.1847 210.928 29.3308 210.302C28.9294 211.434 28.793 212.797 28.925 214.359Z" fill="#371A45"/>
<path d="M55.9939 225.701C58.526 226.159 60.9654 227.251 62.9017 228.978L61.722 228.856C62.1637 228.665 62.8198 228.422 63.2737 228.24L64.8303 227.63L63.8022 228.948L63.2879 229.607C62.9012 230.071 62.467 230.938 61.7721 230.401C60.3868 228.311 58.2988 226.704 55.9939 225.702V225.701Z" fill="#371A45"/>
<path d="M63.7265 257.448C63.6681 257.448 63.6087 257.443 63.5494 257.43C63.0758 257.333 62.7706 256.87 62.8683 256.396C63.6662 252.515 60.2154 249.538 60.1806 249.508C59.8577 249.234 59.7753 248.767 59.9872 248.401L62.9502 243.277C66.0191 234.78 61.666 230.216 61.6218 230.171C61.2827 229.826 61.2876 229.272 61.6321 228.933C61.9766 228.594 62.5311 228.599 62.8702 228.943C63.0842 229.161 68.0645 234.377 64.5691 243.948C64.5519 243.996 64.5303 244.042 64.5048 244.086L61.848 248.68C62.9738 249.841 65.3837 252.856 64.5838 256.748C64.4984 257.162 64.1338 257.447 63.727 257.447L63.7265 257.448Z" fill="#371A45"/>
<path d="M47.0766 239.136L49.5802 236.02L48.6489 239.907C48.5335 240.389 48.0492 240.686 47.5673 240.57C46.9362 240.435 46.6659 239.626 47.0771 239.136H47.0766Z" fill="#371A45"/>
<path d="M59.0333 244.913C52.8488 244.913 47.6153 241.056 47.337 240.848C46.9504 240.558 46.8718 240.009 47.1619 239.622C47.4519 239.235 48 239.157 48.3867 239.446C48.4657 239.505 56.3731 245.313 63.6088 242.259C64.0538 242.07 64.5676 242.28 64.7556 242.725C64.9435 243.171 64.7349 243.684 64.2894 243.872C62.5213 244.618 60.7405 244.913 59.0328 244.913H59.0333Z" fill="#371A45"/>
<path d="M72.6414 243.719C67.4496 243.719 64.5097 240.256 64.3645 240.081C64.0558 239.708 64.1078 239.157 64.4803 238.848C64.8517 238.54 65.4023 238.591 65.7115 238.961C65.8597 239.138 69.3605 243.199 75.4635 241.587C75.9312 241.463 76.4101 241.742 76.5338 242.209C76.6574 242.677 76.3787 243.156 75.9111 243.28C74.7397 243.589 73.6479 243.719 72.6419 243.719H72.6414Z" fill="#371A45"/>
<path d="M60.9324 249.695L58.1809 249.402L60.557 247.984C60.9947 247.723 61.5615 247.866 61.8225 248.303C62.2239 248.93 61.6591 249.794 60.9324 249.694V249.695Z" fill="#371A45"/>
<path d="M71.552 249.992L68.4993 249.402L71.3871 248.249C71.8553 248.062 72.3862 248.29 72.5727 248.758C72.8539 249.405 72.2326 250.144 71.552 249.992V249.992Z" fill="#371A45"/>
<path d="M99.1411 203.622C98.9242 203.622 98.7127 203.541 98.5498 203.392C98.3447 203.204 98.2411 202.93 98.2706 202.654L98.4207 201.241C96.8765 200.806 95.7895 200.001 95.184 198.842C94.0107 196.596 95.1943 193.924 95.2453 193.811C95.4445 193.37 95.9632 193.175 96.4039 193.374C96.8436 193.573 97.0394 194.09 96.8416 194.531C96.8254 194.567 95.9613 196.56 96.7395 198.038C97.1832 198.881 98.1229 199.441 99.5322 199.702C99.9817 199.786 100.292 200.201 100.243 200.656L100.167 201.378C101.494 200.459 102.106 198.662 102.333 197.801C103.03 195.149 102.65 192.182 101.485 191.186C101.194 190.937 100.694 190.654 99.7236 191.079C99.28 191.273 98.7642 191.071 98.5704 190.628C98.3766 190.185 98.5783 189.669 99.0214 189.475C100.368 188.885 101.648 189.02 102.624 189.856C104.558 191.51 104.793 195.329 104.026 198.246C103.244 201.219 101.526 203.172 99.3094 203.606C99.2535 203.617 99.1971 203.622 99.1411 203.622V203.622Z" fill="#371A45"/>
<g opacity="0.25">
<path d="M5.66836 174.855C5.66836 174.855 7.31865 184.473 14.7501 186.087C14.7501 186.087 21.5976 201.286 35.5222 201.914C35.5222 201.914 33.1456 208.861 33.8439 210.559C33.8439 210.559 30.1041 210.018 30.0654 209.62C30.0266 209.222 30.4153 206.566 30.4153 206.566C20.3197 203.232 13.3172 197.097 9.24717 188.306C9.24717 188.306 4.6089 181.635 4.05684 180.145C3.5043 178.655 5.66836 174.856 5.66836 174.856V174.855Z" fill="#371A45"/>
</g>
<g opacity="0.25">
<path d="M51.647 198.647C63.4522 201.794 73.0285 202.388 75.7947 195.179L73.2935 194.172C73.2935 194.172 62.7691 200.837 51.647 198.647Z" fill="#371A45"/>
</g>
<g opacity="0.25">
<path d="M69.6084 204.252C69.6084 204.252 80.9641 206.878 89.6356 198.624C89.6356 198.624 92.9489 200.274 94.3882 197.521C94.3882 197.521 94.0074 202.006 93.9789 202.191C93.9505 202.376 91.9282 202.959 91.9282 202.959C86.9278 208.416 79.3015 209.83 70.871 210.005" fill="#371A45"/>
</g>
<g opacity="0.25">
<path d="M99.1413 202.746L99.3739 200.563C97.1451 200.15 96.1445 199.094 95.7568 197.959V197.956C95.7568 197.956 101.343 198.837 102.241 190.697C104.702 193.251 103.734 201.848 99.1413 202.746Z" fill="#371A45"/>
</g>
<g opacity="0.25">
<path d="M96.6479 187.311C96.6479 187.311 98.1019 191.494 94.6973 191.431C94.6973 191.431 94.3921 194.933 97.5327 193.87C100.673 192.807 98.7359 188.625 98.7359 188.625" fill="#371A45"/>
</g>
<g opacity="0.25">
<path d="M28.5935 211.84C28.5935 211.84 32.3951 214.299 37.7729 214.216C43.1507 214.133 42.8396 211.84 42.8396 211.84H44.7769C44.7769 211.84 44.2734 217.417 44.268 217.534C44.2136 218.756 28.0616 216.239 27.9993 214.899" fill="#371A45"/>
</g>
<g opacity="0.25">
<path d="M24.5345 228.104C28.3091 223.332 20.915 219.605 20.7275 219.512L20.7251 219.509L20.5725 216.168L20.5352 215.32C20.5352 215.32 23.7243 217.383 25.1626 211.837C26.6009 206.294 24.1871 203.953 24.1871 203.953L30.4158 206.565C30.4158 206.565 30.1881 207.795 29.8981 209.566C29.7332 209.514 29.5879 209.464 29.4628 209.421C29.0952 209.294 28.7022 209.486 28.5648 209.852C28.0422 211.228 27.9043 212.803 28.0618 214.537C28.0844 214.777 28.2291 214.992 28.447 215.1C28.6472 215.197 28.8523 215.293 29.0624 215.382C28.9097 216.643 28.792 217.869 28.7346 218.927C28.5368 222.684 30.5679 228.475 31.326 230.486C28.2841 230.21 26.0979 229.315 24.5345 228.104Z" fill="#371A45"/>
</g>
<g opacity="0.25">
<path d="M45.3614 212.55L46.8021 216.03C46.8021 216.03 46.7393 219.573 51.647 220.574C56.5547 221.574 66.4353 217.429 68.9993 210.559L68.9811 216.219L71.5422 216.55V218.292L70.4999 218.718L70.2496 224.589L65.4136 225.138L44.4015 223.054L42.8401 220.346C42.8401 220.346 35.3772 222.572 29.863 215.851L43.7764 217.611L44.7769 216.883" fill="#371A45"/>
</g>
<g opacity="0.25">
<path d="M71.4706 249.121C71.4706 249.121 77.004 255.155 73.064 258.094C68.7614 261.303 63.7261 256.573 63.7261 256.573C63.7085 256.648 63.6888 256.724 63.6663 256.799C63.6663 255.138 63.6913 252.789 63.6913 252.789C77.7665 259.178 67.3731 248.464 67.3731 248.464L69.1466 242.088C76.0903 231.854 70.2497 224.588 70.2497 224.588L71.8529 225.218C82.5015 233.178 76.6879 241.465 71.4701 249.122L71.4706 249.121Z" fill="#371A45"/>
</g>
<g opacity="0.25">
<path d="M61.1198 248.839C62.5655 251.348 63.4762 254.505 63.9414 256.761C63.8016 256.643 63.7265 256.574 63.7265 256.574C63.7088 256.649 63.6892 256.724 63.6666 256.799C63.5592 257.202 63.4139 257.577 63.2387 257.932C62.8687 258.68 62.273 259.285 61.5403 259.685C56.0522 262.682 48.8931 256.163 46.2368 253.78C46.094 253.652 45.964 253.522 45.8442 253.392C45.9767 253.277 46.0494 253.217 46.0494 253.217C55.1168 261.034 61.4505 254.26 55.1168 248.839L56.9978 244.029C62.1307 236.152 55.1168 225.701 55.1168 225.701L56.9978 226.041C71.7011 231.609 61.1203 248.839 61.1203 248.839H61.1198Z" fill="#371A45"/>
</g>
<g opacity="0.25">
<path d="M50.2386 234.143L47.6849 239.472C40.2608 237.368 34.1048 233.018 34.1048 233.018C33.2794 232.415 32.5688 231.723 31.9638 230.957L32.0413 230.83C32.0413 230.83 29.1873 227.005 29.6123 225.139L28.7844 220.719C28.8772 221.042 32.0187 231.375 50.2391 234.144L50.2386 234.143Z" fill="#371A45"/>
</g>
</g>
<path d="M73.944 56.152V77.896H75.936V56.152H73.944ZM64.488 57.832C61.296 57.832 58.992 60.784 58.992 65.392C58.992 70.024 61.296 72.976 64.488 72.976C67.704 72.976 70.008 70.024 70.008 65.392C70.008 60.784 67.704 57.832 64.488 57.832ZM64.488 59.632C66.624 59.632 68.088 61.888 68.088 65.392C68.088 68.92 66.624 71.224 64.488 71.224C62.376 71.224 60.888 68.92 60.888 65.392C60.888 61.888 62.376 59.632 64.488 59.632ZM89.3561 57.208V58.816H103.324V57.208H89.3561ZM87.0281 66.352V67.96H106.612V66.352H87.0281ZM95.0681 61.984V66.592H97.0361V61.984H95.0681ZM102.172 57.208V58.744C102.172 60.352 102.172 62.128 101.62 64.624L103.564 64.84C104.116 62.32 104.116 60.376 104.116 58.744V57.208H102.172ZM95.7401 69.664V70.624C95.7401 73.48 92.4041 75.664 88.4201 76.216L89.1881 77.8C93.6281 77.056 97.4441 74.488 97.4441 70.624V69.664H95.7401ZM96.0281 69.664V70.624C96.0281 74.488 99.8201 77.056 104.308 77.8L105.052 76.216C101.092 75.664 97.7321 73.48 97.7321 70.624V69.664H96.0281ZM109.082 67.576V69.208H128.69V67.576H109.082ZM111.626 75.76V77.392H126.53V75.76H111.626ZM111.626 71.104V76.264H113.618V71.104H111.626ZM118.898 56.896C114.242 56.896 111.266 58.528 111.266 61.24C111.266 63.928 114.242 65.56 118.898 65.56C123.53 65.56 126.53 63.928 126.53 61.24C126.53 58.528 123.53 56.896 118.898 56.896ZM118.898 58.528C122.306 58.528 124.49 59.536 124.49 61.24C124.49 62.944 122.306 63.952 118.898 63.952C115.49 63.952 113.306 62.944 113.306 61.24C113.306 59.536 115.49 58.528 118.898 58.528ZM143.238 58.048V61.936C143.238 65.896 140.766 70.072 137.622 71.656L138.846 73.24C142.278 71.416 144.87 66.736 144.87 61.936V58.048H143.238ZM143.598 58.048V61.936C143.598 66.592 146.118 71.032 149.478 72.832L150.702 71.248C147.63 69.712 145.206 65.752 145.206 61.936V58.048H143.598ZM152.598 56.176V77.872H154.614V56.176H152.598ZM154.134 64.96V66.64H158.166V64.96H154.134ZM174.845 56.2V69.112H176.837V56.2H174.845ZM176.237 61.72V63.4H180.053V61.72H176.237ZM163.157 70.192V77.584H176.837V70.192H163.157ZM174.893 71.776V75.976H165.125V71.776H174.893ZM160.949 66.352V68.008H162.653C166.661 68.008 169.517 67.864 172.949 67.288L172.781 65.656C169.397 66.256 166.589 66.352 162.653 66.352H160.949ZM160.901 57.352V58.984H168.701V61.768H160.949V67.288H162.893V63.304H170.669V57.352H160.901ZM182.091 65.224V66.856H201.699V65.224H182.091ZM184.683 61.864V63.472H199.371V61.864H184.683ZM184.683 56.872V63.16H186.651V58.504H199.131V56.872H184.683ZM184.443 68.728V70.288H197.211V72.352H184.491V76.576H186.459V73.84H199.179V68.728H184.443ZM184.491 76.048V77.632H199.827V76.048H184.491ZM219.913 56.152V77.896H221.905V56.152H219.913ZM210.457 57.832C207.265 57.832 204.961 60.784 204.961 65.392C204.961 70.024 207.265 72.976 210.457 72.976C213.673 72.976 215.977 70.024 215.977 65.392C215.977 60.784 213.673 57.832 210.457 57.832ZM210.457 59.632C212.593 59.632 214.057 61.888 214.057 65.392C214.057 68.92 212.593 71.224 210.457 71.224C208.345 71.224 206.857 68.92 206.857 65.392C206.857 61.888 208.345 59.632 210.457 59.632ZM232.997 73.408V75.064H252.653V73.408H232.997ZM241.733 68.152V73.96H243.701V68.152H241.733ZM241.685 57.616V59.296C241.685 62.872 237.581 66.064 233.765 66.76L234.605 68.416C238.973 67.504 243.413 63.928 243.413 59.296V57.616H241.685ZM242.045 57.616V59.296C242.045 63.928 246.485 67.504 250.853 68.416L251.717 66.76C247.901 66.064 243.773 62.896 243.773 59.296V57.616H242.045ZM263.859 67.024V70.816H265.851V67.024H263.859ZM255.051 66.328V67.936H274.659V66.328H255.051ZM264.843 70.216C260.187 70.216 257.403 71.584 257.403 74.032C257.403 76.456 260.187 77.824 264.843 77.824C269.499 77.824 272.283 76.456 272.283 74.032C272.283 71.584 269.499 70.216 264.843 70.216ZM264.843 71.752C268.251 71.752 270.267 72.568 270.267 74.032C270.267 75.472 268.251 76.288 264.843 76.288C261.459 76.288 259.419 75.472 259.419 74.032C259.419 72.568 261.459 71.752 264.843 71.752ZM263.571 57.952V58.6C263.571 61.072 260.043 63.016 256.155 63.424L256.875 65.008C261.363 64.456 265.347 62.104 265.347 58.6V57.952H263.571ZM264.411 57.952V58.6C264.411 62.104 268.371 64.456 272.859 65.008L273.579 63.424C269.691 63.016 266.163 61.072 266.163 58.6V57.952H264.411ZM256.851 57.16V58.768H272.907V57.16H256.851ZM291.841 56.176V77.872H293.833V56.176H291.841ZM293.353 65.08V66.76H297.385V65.08H293.353ZM277.033 59.632V61.264H289.825V59.632H277.033ZM283.513 63.064C280.465 63.064 278.233 65.128 278.233 68.056C278.233 70.984 280.465 73.048 283.513 73.048C286.585 73.048 288.793 70.984 288.793 68.056C288.793 65.128 286.585 63.064 283.513 63.064ZM283.513 64.72C285.481 64.72 286.897 66.088 286.897 68.056C286.897 70 285.481 71.392 283.513 71.392C281.545 71.392 280.129 70 280.129 68.056C280.129 66.088 281.545 64.72 283.513 64.72ZM282.481 56.44V60.376H284.473V56.44H282.481ZM315.743 56.176V77.872H317.663V56.176H315.743ZM306.335 65.032V66.64H311.807V65.032H306.335ZM311.231 56.728V76.768H313.103V56.728H311.231ZM306.599 58.912V59.272C306.599 64.384 304.319 68.704 299.207 71.776L300.383 73.192C306.239 69.712 308.519 64.6 308.519 58.912H306.599ZM300.167 58.912V60.544H307.343V58.912H300.167ZM337.827 61V62.656H344.379V61H337.827ZM337.827 67.864V69.52H344.379V67.864H337.827ZM333.843 57.832C330.675 57.832 328.443 60.784 328.443 65.392C328.443 70.024 330.675 72.976 333.843 72.976C336.987 72.976 339.243 70.024 339.243 65.392C339.243 60.784 336.987 57.832 333.843 57.832ZM333.843 59.632C335.931 59.632 337.371 61.888 337.371 65.392C337.371 68.92 335.931 71.224 333.843 71.224C331.755 71.224 330.315 68.92 330.315 65.392C330.315 61.888 331.755 59.632 333.843 59.632ZM343.947 56.152V77.896H345.915V56.152H343.947ZM365.93 56.176V77.872H367.922V56.176H365.93ZM359.57 58.504V58.84C359.57 64.6 356.666 69.208 350.402 72.232L351.458 73.84C358.706 70.288 361.538 64.792 361.538 58.504H359.57ZM351.386 58.504V60.136H360.434V58.504H351.386ZM374.856 62.68V64.312H389.592V62.68H374.856ZM372.192 67.216V68.848H391.872V67.216H372.192ZM374.856 56.968V63.496H376.824V56.968H374.856ZM374.712 75.712V77.344H389.712V75.712H374.712ZM374.712 71.008V76.144H376.68V71.008H374.712ZM416.884 56.176V70.864H418.876V56.176H416.884ZM412.228 62.296V63.928H417.292V62.296H412.228ZM410.068 57.88V58.672C410.068 62.92 406.9 66.184 401.404 67.912L402.244 69.496C408.46 67.48 412.156 63.496 412.156 57.88H410.068ZM402.436 57.88V59.512H411.484V57.88H402.436ZM410.884 68.992V69.976C410.884 73.144 407.5 75.544 403.66 76.24L404.452 77.824C408.796 76.936 412.588 74.128 412.588 69.976V68.992H410.884ZM411.172 68.992V69.976C411.172 74.104 414.916 76.912 419.236 77.776L420.076 76.192C416.212 75.496 412.876 73.096 412.876 69.976V68.992H411.172ZM423.122 65.224V66.856H442.73V65.224H423.122ZM425.714 61.864V63.472H440.402V61.864H425.714ZM425.714 56.872V63.16H427.682V58.504H440.162V56.872H425.714ZM425.474 68.728V70.288H438.242V72.352H425.522V76.576H427.49V73.84H440.21V68.728H425.474ZM425.522 76.048V77.632H440.858V76.048H425.522ZM448.841 73.6136L448.705 74.5341C448.608 75.1818 448.46 75.875 448.261 76.6136C448.068 77.3523 447.866 78.0483 447.656 78.7017C447.446 79.3551 447.273 79.875 447.136 80.2614H445.602C445.676 79.8977 445.773 79.4176 445.892 78.821C446.011 78.2244 446.131 77.5568 446.25 76.8182C446.375 76.0852 446.477 75.3352 446.557 74.5682L446.659 73.6136H448.841ZM74.064 85.152V106.896H76.032V85.152H74.064ZM69.384 93.072V94.704H74.64V93.072H69.384ZM63.696 88.272V91.512C63.696 95.376 61.128 99.48 58.008 101.016L59.184 102.6C62.616 100.824 65.304 96.192 65.304 91.512V88.272H63.696ZM64.104 88.272V91.512C64.104 95.976 66.744 100.44 70.176 102.144L71.352 100.584C68.208 99.096 65.688 95.136 65.688 91.512V88.272H64.104ZM58.8 87.384V89.04H70.608V87.384H58.8ZM81.1181 87.336V101.376H91.0781V87.336H81.1181ZM89.1341 88.944V99.768H83.0621V88.944H89.1341ZM94.9421 85.176V106.872H96.9581V85.176H94.9421ZM96.4781 93.84V95.52H100.51V93.84H96.4781ZM117.02 85.152V106.896H119.036V85.152H117.02ZM118.556 93.72V95.4H122.588V93.72H118.556ZM103.268 99.816V101.496H104.972C109.052 101.496 111.908 101.376 115.244 100.752L115.028 99.072C111.788 99.672 108.98 99.816 104.972 99.816H103.268ZM103.268 87.264V100.56H105.236V88.896H113.348V87.264H103.268ZM131.466 86.736C128.082 86.736 125.634 88.824 125.634 91.848C125.634 94.896 128.082 96.984 131.466 96.984C134.85 96.984 137.274 94.896 137.274 91.848C137.274 88.824 134.85 86.736 131.466 86.736ZM131.466 88.464C133.698 88.464 135.33 89.832 135.33 91.848C135.33 93.864 133.698 95.256 131.466 95.256C129.21 95.256 127.578 93.864 127.578 91.848C127.578 89.832 129.21 88.464 131.466 88.464ZM140.106 85.152V106.896H142.098V85.152H140.106ZM124.818 102.144C128.682 102.144 133.986 102.12 138.858 101.184L138.69 99.72C133.962 100.464 128.49 100.488 124.53 100.488L124.818 102.144ZM153.263 102.456V104.112H172.919V102.456H153.263ZM162.047 97.272V102.936H164.039V97.272H162.047ZM155.567 86.712V97.8H170.567V86.712H168.599V90.576H157.535V86.712H155.567ZM157.535 92.184H168.599V96.168H157.535V92.184ZM184.125 95.424V98.76H186.093V95.424H184.125ZM175.317 94.32V95.928H194.925V94.32H175.317ZM177.861 85.896V92.496H192.381V85.896H177.861ZM190.437 87.48V90.912H179.829V87.48H190.437ZM177.693 98.04V99.576H190.461V101.472H177.741V105.552H179.709V102.912H192.429V98.04H177.693ZM177.741 105.072V106.632H193.077V105.072H177.741ZM197.419 94.224V95.856H217.027V94.224H197.419ZM200.011 90.864V92.472H214.699V90.864H200.011ZM200.011 85.872V92.16H201.979V87.504H214.459V85.872H200.011ZM199.771 97.728V99.288H212.539V101.352H199.819V105.576H201.787V102.84H214.507V97.728H199.771ZM199.819 105.048V106.632H215.155V105.048H199.819ZM235.241 85.152V106.896H237.233V85.152H235.241ZM225.785 86.832C222.593 86.832 220.289 89.784 220.289 94.392C220.289 99.024 222.593 101.976 225.785 101.976C229.001 101.976 231.305 99.024 231.305 94.392C231.305 89.784 229.001 86.832 225.785 86.832ZM225.785 88.632C227.921 88.632 229.385 90.888 229.385 94.392C229.385 97.92 227.921 100.224 225.785 100.224C223.673 100.224 222.185 97.92 222.185 94.392C222.185 90.888 223.673 88.632 225.785 88.632ZM248.325 102.456V104.112H267.981V102.456H248.325ZM257.109 96.84V102.912H259.101V96.84H257.109ZM250.605 86.976V97.2H265.581V86.976H250.605ZM263.661 88.584V95.592H252.549V88.584H263.661ZM280.171 90V91.656H286.723V90H280.171ZM280.171 96.864V98.52H286.723V96.864H280.171ZM276.187 86.832C273.019 86.832 270.787 89.784 270.787 94.392C270.787 99.024 273.019 101.976 276.187 101.976C279.331 101.976 281.587 99.024 281.587 94.392C281.587 89.784 279.331 86.832 276.187 86.832ZM276.187 88.632C278.275 88.632 279.715 90.888 279.715 94.392C279.715 97.92 278.275 100.224 276.187 100.224C274.099 100.224 272.659 97.92 272.659 94.392C272.659 90.888 274.099 88.632 276.187 88.632ZM286.291 85.152V106.896H288.259V85.152H286.291ZM297.881 98.52V99.696C297.881 101.784 296.249 104.112 293.513 105.096L294.521 106.584C297.641 105.384 299.417 102.528 299.417 99.696V98.52H297.881ZM298.313 98.52V99.696C298.313 102.576 299.729 105.552 302.849 106.776L303.689 105.264C301.097 104.208 299.801 101.88 299.801 99.696V98.52H298.313ZM305.897 98.52V99.696C305.897 101.568 304.577 104.088 302.009 105.264L302.849 106.776C305.945 105.456 307.385 102.24 307.385 99.696V98.52H305.897ZM306.305 98.52V99.696C306.305 102.696 308.033 105.432 311.201 106.584L312.209 105.096C309.449 104.16 307.841 101.928 307.841 99.696V98.52H306.305ZM308.249 85.2V97.584H310.265V85.2H308.249ZM298.625 86.448C295.337 86.448 292.961 88.512 292.961 91.512C292.961 94.512 295.337 96.552 298.625 96.552C301.913 96.552 304.265 94.512 304.265 91.512C304.265 88.512 301.913 86.448 298.625 86.448ZM298.625 88.104C300.785 88.104 302.345 89.496 302.345 91.512C302.345 93.528 300.785 94.896 298.625 94.896C296.465 94.896 294.905 93.528 294.905 91.512C294.905 89.496 296.465 88.104 298.625 88.104ZM317.199 91.68V93.312H331.935V91.68H317.199ZM314.535 96.216V97.848H334.215V96.216H314.535ZM317.199 85.968V92.496H319.167V85.968H317.199ZM317.055 104.712V106.344H332.055V104.712H317.055ZM317.055 100.008V105.144H319.023V100.008H317.055ZM359.756 85.176V98.904H361.652V85.176H359.756ZM356.228 91.056V92.712H360.332V91.056H356.228ZM355.124 85.608V98.136H356.996V85.608H355.124ZM343.268 87.768V89.352H354.26V87.768H343.268ZM348.788 90.456C346.052 90.456 344.156 91.944 344.156 94.176C344.156 96.432 346.052 97.896 348.788 97.896C351.5 97.896 353.396 96.432 353.396 94.176C353.396 91.944 351.5 90.456 348.788 90.456ZM348.788 91.944C350.468 91.944 351.62 92.832 351.62 94.176C351.62 95.544 350.468 96.408 348.788 96.408C347.084 96.408 345.932 95.544 345.932 94.176C345.932 92.832 347.084 91.944 348.788 91.944ZM347.804 85.344V88.656H349.748V85.344H347.804ZM354.548 99.288C349.988 99.288 347.3 100.632 347.3 103.056C347.3 105.456 349.988 106.824 354.548 106.824C359.06 106.824 361.772 105.456 361.772 103.056C361.772 100.632 359.06 99.288 354.548 99.288ZM354.548 100.824C357.836 100.824 359.804 101.616 359.804 103.056C359.804 104.496 357.836 105.312 354.548 105.312C351.212 105.312 349.268 104.496 349.268 103.056C349.268 101.616 351.212 100.824 354.548 100.824ZM370.914 86.4V88.632C370.914 91.944 368.754 94.848 365.442 96.024L366.474 97.656C370.194 96.264 372.57 92.832 372.57 88.632V86.4H370.914ZM371.274 86.4V88.56C371.274 92.496 373.602 95.688 377.106 97.008L378.186 95.448C375.018 94.344 372.906 91.632 372.906 88.56V86.4H371.274ZM381.306 85.176V98.016H383.298V85.176H381.306ZM376.17 98.64C371.682 98.64 368.922 100.152 368.922 102.744C368.922 105.336 371.682 106.824 376.17 106.824C380.634 106.824 383.394 105.336 383.394 102.744C383.394 100.152 380.634 98.64 376.17 98.64ZM376.17 100.224C379.434 100.224 381.426 101.16 381.426 102.744C381.426 104.328 379.434 105.264 376.17 105.264C372.906 105.264 370.914 104.328 370.914 102.744C370.914 101.16 372.906 100.224 376.17 100.224ZM376.602 89.76V91.416H381.738V89.76H376.602ZM403.288 85.152V106.896H405.28V85.152H403.288ZM393.832 86.832C390.64 86.832 388.336 89.784 388.336 94.392C388.336 99.024 390.64 101.976 393.832 101.976C397.048 101.976 399.352 99.024 399.352 94.392C399.352 89.784 397.048 86.832 393.832 86.832ZM393.832 88.632C395.968 88.632 397.432 90.888 397.432 94.392C397.432 97.92 395.968 100.224 393.832 100.224C391.72 100.224 390.232 97.92 390.232 94.392C390.232 90.888 391.72 88.632 393.832 88.632ZM415.382 86.832C412.19 86.832 409.934 89.784 409.934 94.392C409.934 99.024 412.19 101.976 415.382 101.976C418.574 101.976 420.83 99.024 420.83 94.392C420.83 89.784 418.574 86.832 415.382 86.832ZM415.382 88.632C417.47 88.632 418.934 90.888 418.934 94.392C418.934 97.92 417.47 100.224 415.382 100.224C413.27 100.224 411.83 97.92 411.83 94.392C411.83 90.888 413.27 88.632 415.382 88.632ZM425.75 90.624V92.304H429.734V90.624H425.75ZM425.75 97.08V98.76H429.734V97.08H425.75ZM424.286 85.176V106.872H426.302V85.176H424.286Z" fill="black"/>
</g>
<defs>
<clipPath id="clip0_509_924">
<rect width="500" height="300" fill="white"/>
</clipPath>
<clipPath id="clip1_509_924">
<rect width="130" height="152.65" fill="white" transform="translate(0 147)"/>
</clipPath>
</defs>
</svg>
