<svg width="386" height="105" viewBox="0 0 386 105" fill="none" xmlns="http://www.w3.org/2000/svg">
<path d="M70.198 1L321.645 6.77584C347.089 6.77584 367.5 13.7577 367.5 22.4617L338.482 71.7295C338.482 80.4336 322.205 86.7527 296.763 86.7527V103.863L244.507 88.1663H101.68C76.236 88.1663 24.265 85.7539 24.265 77.05L1 22.4617C1 13.7576 44.7554 1 70.198 1Z" fill="white" stroke="black" stroke-width="2" stroke-linecap="round" stroke-linejoin="round"/>
<path d="M51.021 19.4772V41.2212H53.013V19.4772H51.021ZM41.565 21.1572C38.373 21.1572 36.069 24.1092 36.069 28.7172C36.069 33.3492 38.373 36.3012 41.565 36.3012C44.781 36.3012 47.085 33.3492 47.085 28.7172C47.085 24.1092 44.781 21.1572 41.565 21.1572ZM41.565 22.9572C43.701 22.9572 45.165 25.2132 45.165 28.7172C45.165 32.2452 43.701 34.5492 41.565 34.5492C39.453 34.5492 37.965 32.2452 37.965 28.7172C37.965 25.2132 39.453 22.9572 41.565 22.9572ZM66.4332 20.5332V22.1412H80.4012V20.5332H66.4332ZM64.1052 29.6772V31.2852H83.6892V29.6772H64.1052ZM72.1452 25.3092V29.9172H74.1132V25.3092H72.1452ZM79.2492 20.5332V22.0692C79.2492 23.6772 79.2492 25.4532 78.6972 27.9492L80.6412 28.1652C81.1932 25.6452 81.1932 23.7012 81.1932 22.0692V20.5332H79.2492ZM72.8172 32.9892V33.9492C72.8172 36.8052 69.4812 38.9892 65.4972 39.5412L66.2652 41.1252C70.7052 40.3812 74.5212 37.8132 74.5212 33.9492V32.9892H72.8172ZM73.1052 32.9892V33.9492C73.1052 37.8132 76.8972 40.3812 81.3852 41.1252L82.1292 39.5412C78.1692 38.9892 74.8092 36.8052 74.8092 33.9492V32.9892H73.1052ZM86.1593 30.9012V32.5332H105.767V30.9012H86.1593ZM88.7033 39.0852V40.7172H103.607V39.0852H88.7033ZM88.7033 34.4292V39.5892H90.6953V34.4292H88.7033ZM95.9753 20.2212C91.3193 20.2212 88.3433 21.8532 88.3433 24.5652C88.3433 27.2532 91.3193 28.8852 95.9753 28.8852C100.607 28.8852 103.607 27.2532 103.607 24.5652C103.607 21.8532 100.607 20.2212 95.9753 20.2212ZM95.9753 21.8532C99.3833 21.8532 101.567 22.8612 101.567 24.5652C101.567 26.2692 99.3833 27.2772 95.9753 27.2772C92.5673 27.2772 90.3833 26.2692 90.3833 24.5652C90.3833 22.8612 92.5673 21.8532 95.9753 21.8532ZM120.315 21.3732V25.2612C120.315 29.2212 117.843 33.3972 114.699 34.9812L115.923 36.5652C119.355 34.7412 121.947 30.0612 121.947 25.2612V21.3732H120.315ZM120.675 21.3732V25.2612C120.675 29.9172 123.195 34.3572 126.555 36.1572L127.779 34.5732C124.707 33.0372 122.283 29.0772 122.283 25.2612V21.3732H120.675ZM129.675 19.5012V41.1972H131.691V19.5012H129.675ZM131.211 28.2852V29.9652H135.243V28.2852H131.211ZM151.922 19.5252V32.4372H153.914V19.5252H151.922ZM153.314 25.0452V26.7252H157.13V25.0452H153.314ZM140.234 33.5172V40.9092H153.914V33.5172H140.234ZM151.97 35.1012V39.3012H142.202V35.1012H151.97ZM138.026 29.6772V31.3332H139.73C143.738 31.3332 146.594 31.1892 150.026 30.6132L149.858 28.9812C146.474 29.5812 143.666 29.6772 139.73 29.6772H138.026ZM137.978 20.6772V22.3092H145.778V25.0932H138.026V30.6132H139.97V26.6292H147.746V20.6772H137.978ZM159.168 28.5492V30.1812H178.776V28.5492H159.168ZM161.76 25.1892V26.7972H176.448V25.1892H161.76ZM161.76 20.1972V26.4852H163.728V21.8292H176.208V20.1972H161.76ZM161.52 32.0532V33.6132H174.288V35.6772H161.568V39.9012H163.536V37.1652H176.256V32.0532H161.52ZM161.568 39.3732V40.9572H176.904V39.3732H161.568ZM188.278 21.0612C184.894 21.0612 182.446 23.1492 182.446 26.1732C182.446 29.2212 184.894 31.3092 188.278 31.3092C191.662 31.3092 194.086 29.2212 194.086 26.1732C194.086 23.1492 191.662 21.0612 188.278 21.0612ZM188.278 22.7892C190.51 22.7892 192.142 24.1572 192.142 26.1732C192.142 28.1892 190.51 29.5812 188.278 29.5812C186.022 29.5812 184.39 28.1892 184.39 26.1732C184.39 24.1572 186.022 22.7892 188.278 22.7892ZM196.918 19.4772V41.2212H198.91V19.4772H196.918ZM181.63 36.4692C185.494 36.4692 190.798 36.4452 195.67 35.5092L195.502 34.0452C190.774 34.7892 185.302 34.8132 181.342 34.8132L181.63 36.4692ZM218.858 19.6452V20.4372C218.858 23.1492 215.09 25.2852 211.13 25.7172L211.826 27.2532C216.314 26.6532 220.538 24.1572 220.538 20.4372V19.6452H218.858ZM219.194 19.6452V20.4372C219.194 24.1572 223.394 26.6532 227.906 27.2532L228.578 25.7172C224.642 25.2852 220.874 23.1492 220.874 20.4372V19.6452H219.194ZM210.05 28.6212V30.2292H229.658V28.6212H210.05ZM212.426 32.1972V33.7572H225.194V35.7492H212.474V39.7812H214.442V37.1892H227.162V32.1972H212.426ZM212.474 39.3972V40.9572H227.81V39.3972H212.474ZM232.128 30.2772V31.8852H251.736V30.2772H232.128ZM233.952 20.2692V21.9012H249.888V20.2692H233.952ZM234.048 26.4852V28.1172H249.792V26.4852H234.048ZM237.24 20.9892V27.4932H239.232V20.9892H237.24ZM244.632 20.9892V27.4932H246.6V20.9892H244.632ZM234.528 34.0692V40.9092H249.336V34.0692H234.528ZM247.392 35.6532V39.3012H236.496V35.6532H247.392ZM269.974 19.4772V41.2212H271.966V19.4772H269.974ZM260.518 21.1572C257.326 21.1572 255.022 24.1092 255.022 28.7172C255.022 33.3492 257.326 36.3012 260.518 36.3012C263.734 36.3012 266.038 33.3492 266.038 28.7172C266.038 24.1092 263.734 21.1572 260.518 21.1572ZM260.518 22.9572C262.654 22.9572 264.118 25.2132 264.118 28.7172C264.118 32.2452 262.654 34.5492 260.518 34.5492C258.406 34.5492 256.918 32.2452 256.918 28.7172C256.918 25.2132 258.406 22.9572 260.518 22.9572ZM283.058 36.7812V38.4372H302.714V36.7812H283.058ZM291.842 31.1652V37.2372H293.834V31.1652H291.842ZM285.338 21.3012V31.5252H300.314V21.3012H285.338ZM298.394 22.9092V29.9172H287.282V22.9092H298.394ZM314.904 24.3252V25.9812H321.456V24.3252H314.904ZM314.904 31.1892V32.8452H321.456V31.1892H314.904ZM310.92 21.1572C307.752 21.1572 305.52 24.1092 305.52 28.7172C305.52 33.3492 307.752 36.3012 310.92 36.3012C314.064 36.3012 316.32 33.3492 316.32 28.7172C316.32 24.1092 314.064 21.1572 310.92 21.1572ZM310.92 22.9572C313.008 22.9572 314.448 25.2132 314.448 28.7172C314.448 32.2452 313.008 34.5492 310.92 34.5492C308.832 34.5492 307.392 32.2452 307.392 28.7172C307.392 25.2132 308.832 22.9572 310.92 22.9572ZM321.024 19.4772V41.2212H322.992V19.4772H321.024ZM36.165 50.4452V60.5012H46.125V50.4452H36.165ZM44.181 52.0532V58.8932H38.109V52.0532H44.181ZM50.109 48.4772V64.3892H52.101V48.4772H50.109ZM51.477 55.1012V56.7572H55.317V55.1012H51.477ZM38.589 68.0852V69.7172H53.085V68.0852H38.589ZM38.589 62.8772V68.7812H40.581V62.8772H38.589ZM57.3552 57.5492V59.1812H76.9632V57.5492H57.3552ZM59.9472 54.1892V55.7972H74.6352V54.1892H59.9472ZM59.9472 49.1972V55.4852H61.9152V50.8292H74.3952V49.1972H59.9472ZM59.7072 61.0532V62.6132H72.4752V64.6772H59.7552V68.9012H61.7232V66.1652H74.4432V61.0532H59.7072ZM59.7552 68.3732V69.9572H75.0912V68.3732H59.7552ZM85.2173 50.1572C82.0493 50.1572 79.8173 53.1092 79.8173 57.7172C79.8173 62.3492 82.0493 65.3012 85.2173 65.3012C88.3613 65.3012 90.6173 62.3492 90.6173 57.7172C90.6173 53.1092 88.3613 50.1572 85.2173 50.1572ZM85.2173 51.9572C87.3053 51.9572 88.7213 54.2132 88.7213 57.7172C88.7213 61.2452 87.3053 63.5492 85.2173 63.5492C83.1293 63.5492 81.7133 61.2452 81.7133 57.7172C81.7133 54.2132 83.1293 51.9572 85.2173 51.9572ZM95.3213 48.4772V70.2212H97.2893V48.4772H95.3213ZM89.9693 56.7572V58.3892H96.1853V56.7572H89.9693ZM107.271 50.8772V53.0852C107.271 56.1812 105.063 58.9892 101.799 60.1412L102.831 61.7252C106.479 60.4052 108.927 57.0692 108.927 53.0852V50.8772H107.271ZM107.655 50.8772V53.0852C107.655 56.9012 110.151 60.0692 113.751 61.2932L114.783 59.7332C111.567 58.6532 109.311 56.0132 109.311 53.0852V50.8772H107.655ZM102.327 50.3012V51.9092H114.207V50.3012H102.327ZM117.279 48.5252V64.3892H119.295V48.5252H117.279ZM105.351 68.0852V69.7172H119.943V68.0852H105.351ZM105.351 62.9012V68.8052H107.319V62.9012H105.351ZM146.708 48.5012V62.2292H148.604V48.5012H146.708ZM143.18 54.3812V56.0372H147.284V54.3812H143.18ZM142.076 48.9332V61.4612H143.948V48.9332H142.076ZM130.22 51.0932V52.6772H141.212V51.0932H130.22ZM135.74 53.7812C133.004 53.7812 131.108 55.2692 131.108 57.5012C131.108 59.7572 133.004 61.2212 135.74 61.2212C138.452 61.2212 140.348 59.7572 140.348 57.5012C140.348 55.2692 138.452 53.7812 135.74 53.7812ZM135.74 55.2692C137.42 55.2692 138.572 56.1572 138.572 57.5012C138.572 58.8692 137.42 59.7332 135.74 59.7332C134.036 59.7332 132.884 58.8692 132.884 57.5012C132.884 56.1572 134.036 55.2692 135.74 55.2692ZM134.756 48.6692V51.9812H136.7V48.6692H134.756ZM141.5 62.6132C136.94 62.6132 134.252 63.9572 134.252 66.3812C134.252 68.7812 136.94 70.1492 141.5 70.1492C146.012 70.1492 148.724 68.7812 148.724 66.3812C148.724 63.9572 146.012 62.6132 141.5 62.6132ZM141.5 64.1492C144.788 64.1492 146.756 64.9412 146.756 66.3812C146.756 67.8212 144.788 68.6372 141.5 68.6372C138.164 68.6372 136.22 67.8212 136.22 66.3812C136.22 64.9412 138.164 64.1492 141.5 64.1492ZM157.866 49.7252V51.9572C157.866 55.2692 155.706 58.1732 152.394 59.3492L153.426 60.9812C157.146 59.5892 159.522 56.1572 159.522 51.9572V49.7252H157.866ZM158.226 49.7252V51.8852C158.226 55.8212 160.554 59.0132 164.058 60.3332L165.138 58.7732C161.97 57.6692 159.858 54.9572 159.858 51.8852V49.7252H158.226ZM168.258 48.5012V61.3412H170.25V48.5012H168.258ZM163.122 61.9652C158.634 61.9652 155.874 63.4772 155.874 66.0692C155.874 68.6612 158.634 70.1492 163.122 70.1492C167.586 70.1492 170.346 68.6612 170.346 66.0692C170.346 63.4772 167.586 61.9652 163.122 61.9652ZM163.122 63.5492C166.386 63.5492 168.378 64.4852 168.378 66.0692C168.378 67.6532 166.386 68.5892 163.122 68.5892C159.858 68.5892 157.866 67.6532 157.866 66.0692C157.866 64.4852 159.858 63.5492 163.122 63.5492ZM163.554 53.0852V54.7412H168.69V53.0852H163.554ZM190.24 48.4772V70.2212H192.232V48.4772H190.24ZM180.784 50.1572C177.592 50.1572 175.288 53.1092 175.288 57.7172C175.288 62.3492 177.592 65.3012 180.784 65.3012C184 65.3012 186.304 62.3492 186.304 57.7172C186.304 53.1092 184 50.1572 180.784 50.1572ZM180.784 51.9572C182.92 51.9572 184.384 54.2132 184.384 57.7172C184.384 61.2452 182.92 63.5492 180.784 63.5492C178.672 63.5492 177.184 61.2452 177.184 57.7172C177.184 54.2132 178.672 51.9572 180.784 51.9572ZM211.406 48.5252V64.5092H213.398V48.5252H211.406ZM212.798 55.1492V56.8292H216.614V55.1492H212.798ZM200.03 68.0852V69.7172H214.382V68.0852H200.03ZM200.03 63.2612V68.6852H202.022V63.2612H200.03ZM197.51 59.4932V61.1252H199.214C203.222 61.1252 206.078 61.0052 209.51 60.4292L209.342 58.7732C205.958 59.3732 203.15 59.4932 199.214 59.4932H197.51ZM197.462 49.9172V51.5492H205.262V54.6212H197.51V60.0692H199.454V56.1332H207.23V49.9172H197.462ZM233.316 48.4772V70.2212H235.332V48.4772H233.316ZM234.852 57.0452V58.7252H238.884V57.0452H234.852ZM219.564 63.1412V64.8212H221.268C225.348 64.8212 228.204 64.7012 231.54 64.0772L231.324 62.3972C228.084 62.9972 225.276 63.1412 221.268 63.1412H219.564ZM219.564 50.5892V63.8852H221.532V52.2212H229.644V50.5892H219.564Z" fill="black"/>
</svg>
