<svg width="307" height="105" viewBox="0 0 307 105" fill="none" xmlns="http://www.w3.org/2000/svg">
<path d="M55.9648 1L255.692 6.77584C275.903 6.77584 292.115 13.7577 292.115 22.4617L269.066 71.7295C269.066 80.4336 239.21 88.1663 219 88.1663L215 104L183.5 88.1663H80.9712C60.7609 88.1663 19.4797 85.7539 19.4797 77.05L1 22.4617C1 13.7576 35.7555 1 55.9648 1Z" fill="white" stroke="black" stroke-width="2" stroke-linecap="round" stroke-linejoin="round"/>
<path d="M44.3614 19.5012V41.2452H46.3534V19.5012H44.3614ZM37.6894 26.6532V28.2852H45.0094V26.6532H37.6894ZM29.6494 21.9252V35.3652H31.6174V21.9252H29.6494ZM29.6494 34.3092V35.9892H31.3294C34.7614 35.9892 37.8094 35.7732 41.2654 35.1012L41.0254 33.4212C37.6894 34.1172 34.6894 34.3092 31.3294 34.3092H29.6494ZM57.5836 21.0612C54.1996 21.0612 51.7516 23.1492 51.7516 26.1732C51.7516 29.2212 54.1996 31.3092 57.5836 31.3092C60.9676 31.3092 63.3916 29.2212 63.3916 26.1732C63.3916 23.1492 60.9676 21.0612 57.5836 21.0612ZM57.5836 22.7892C59.8156 22.7892 61.4476 24.1572 61.4476 26.1732C61.4476 28.1892 59.8156 29.5812 57.5836 29.5812C55.3276 29.5812 53.6956 28.1892 53.6956 26.1732C53.6956 24.1572 55.3276 22.7892 57.5836 22.7892ZM66.2236 19.4772V41.2212H68.2156V19.4772H66.2236ZM50.9356 36.4692C54.7996 36.4692 60.1036 36.4452 64.9756 35.5092L64.8076 34.0452C60.0796 34.7892 54.6076 34.8132 50.6476 34.8132L50.9356 36.4692ZM94.0437 19.4772V41.1972H96.0597V19.4772H94.0437ZM95.5077 28.2852V29.9412H99.5157V28.2852H95.5077ZM88.4997 21.8292V22.1412C88.4997 27.8772 85.4997 32.5092 79.4997 35.5572L80.6037 37.0932C87.6117 33.5652 90.4437 27.9972 90.4437 21.8292H88.4997ZM80.5077 21.8292V23.4612H89.5317V21.8292H80.5077ZM106.786 21.8292V23.5812C106.786 26.6772 104.626 29.4852 101.362 30.6372L102.37 32.2212C106.018 30.9012 108.418 27.5652 108.418 23.5812V21.8292H106.786ZM107.146 21.8292V23.5572C107.146 27.2532 109.45 30.3492 113.074 31.5492L114.034 29.9892C110.842 28.9332 108.778 26.3892 108.778 23.5572V21.8292H107.146ZM101.962 21.1092V22.7412H113.554V21.1092H101.962ZM116.29 19.5012V32.5812H118.282V19.5012H116.29ZM117.73 24.9972V26.6772H121.498V24.9972H117.73ZM111.37 33.1572C106.954 33.1572 104.242 34.6212 104.242 37.1412C104.242 39.6852 106.954 41.1492 111.37 41.1492C115.786 41.1492 118.498 39.6852 118.498 37.1412C118.498 34.6212 115.786 33.1572 111.37 33.1572ZM111.37 34.7652C114.586 34.7652 116.554 35.6292 116.554 37.1412C116.554 38.6772 114.586 39.5892 111.37 39.5892C108.154 39.5892 106.186 38.6772 106.186 37.1412C106.186 35.6292 108.154 34.7652 111.37 34.7652ZM139.07 19.6452V20.4372C139.07 23.1492 135.302 25.2852 131.342 25.7172L132.038 27.2532C136.526 26.6532 140.75 24.1572 140.75 20.4372V19.6452H139.07ZM139.406 19.6452V20.4372C139.406 24.1572 143.606 26.6532 148.118 27.2532L148.79 25.7172C144.854 25.2852 141.086 23.1492 141.086 20.4372V19.6452H139.406ZM130.262 28.6212V30.2292H149.87V28.6212H130.262ZM132.638 32.1972V33.7572H145.406V35.7492H132.686V39.7812H134.654V37.1892H147.374V32.1972H132.638ZM132.686 39.3972V40.9572H148.022V39.3972H132.686ZM164.316 25.0452V26.6772H169.308V25.0452H164.316ZM152.988 21.0132V22.6452H164.46V21.0132H152.988ZM152.628 31.1892C156.276 31.1892 161.244 31.1172 165.516 30.4452L165.372 28.9572C161.196 29.4612 156.084 29.5092 152.412 29.5092L152.628 31.1892ZM155.148 22.2612V30.1092H157.068V22.2612H155.148ZM160.38 22.2612V30.1092H162.3V22.2612H160.38ZM168.204 19.5012V32.3892H170.196V19.5012H168.204ZM157.932 33.0132V34.1172C157.932 36.1812 156.276 38.4852 153.564 39.4452L154.548 40.9332C157.692 39.7572 159.468 36.9252 159.468 34.1172V33.0132H157.932ZM158.364 33.0132V34.1172C158.364 36.9732 159.756 39.9012 162.876 41.1252L163.716 39.6372C161.124 38.5812 159.852 36.2772 159.852 34.1172V33.0132H158.364ZM165.924 33.0132V34.1172C165.924 35.9652 164.628 38.4612 162.036 39.6372L162.876 41.1252C165.972 39.8052 167.388 36.6372 167.388 34.1172V33.0132H165.924ZM166.332 33.0132V34.1172C166.332 37.0692 168.084 39.8052 171.228 40.9332L172.236 39.4452C169.452 38.5572 167.868 36.3252 167.868 34.1172V33.0132H166.332ZM175.666 30.5412V32.1732H177.298C181.378 32.1732 183.97 32.0292 186.994 31.4532L186.802 29.8212C183.85 30.3972 181.306 30.5412 177.298 30.5412H175.666ZM175.666 21.2772V31.0452H177.634V22.9092H185.602V21.2772H175.666ZM190.282 19.5012V35.3412H192.274V19.5012H190.282ZM184.21 25.5012V27.1092H190.738V25.5012H184.21ZM178.402 39.2292V40.8612H192.85V39.2292H178.402ZM178.402 34.1652V40.1652H180.394V34.1652H178.402ZM219.062 19.5012V41.1972H221.054V19.5012H219.062ZM212.702 21.8292V22.1652C212.702 27.9252 209.798 32.5332 203.534 35.5572L204.59 37.1652C211.838 33.6132 214.67 28.1172 214.67 21.8292H212.702ZM204.518 21.8292V23.4612H213.566V21.8292H204.518ZM236.004 25.0932V26.7252H241.908V25.0932H236.004ZM228.708 33.5172V35.1012H241.188V41.2212H243.18V33.5172H228.708ZM241.188 19.5012V32.2932H243.18V19.5012H241.188ZM231.252 20.7012C228.036 20.7012 225.66 22.8612 225.66 25.9332C225.66 29.0052 228.036 31.1412 231.252 31.1412C234.444 31.1412 236.844 29.0052 236.844 25.9332C236.844 22.8612 234.444 20.7012 231.252 20.7012ZM231.252 22.4052C233.34 22.4052 234.924 23.8692 234.924 25.9332C234.924 27.9972 233.34 29.4372 231.252 29.4372C229.14 29.4372 227.58 27.9972 227.58 25.9332C227.58 23.8692 229.14 22.4052 231.252 22.4052ZM257.219 19.8612C252.419 19.8612 249.587 21.2052 249.587 23.6292C249.587 26.0532 252.419 27.3972 257.219 27.3972C261.995 27.3972 264.851 26.0532 264.851 23.6292C264.851 21.2052 261.995 19.8612 257.219 19.8612ZM257.219 21.3732C260.747 21.3732 262.787 22.1892 262.787 23.6292C262.787 25.0692 260.747 25.8852 257.219 25.8852C253.667 25.8852 251.627 25.0692 251.627 23.6292C251.627 22.1892 253.667 21.3732 257.219 21.3732ZM247.403 28.8372V30.4452H267.011V28.8372H247.403ZM249.779 32.2932V33.8292H262.547V35.7492H249.827V39.8292H251.795V37.1892H264.515V32.2932H249.779ZM249.827 39.3972V40.9572H265.163V39.3972H249.827ZM33.9934 50.7092V52.4612C33.9934 55.5332 31.7614 58.4132 28.5214 59.5652L29.5534 61.1492C33.1774 59.8052 35.6254 56.4212 35.6254 52.4612V50.7092H33.9934ZM34.3774 50.7092V52.4612C34.3774 56.0852 36.7054 59.3492 40.2334 60.6452L41.2414 59.0612C38.0974 57.9572 35.9854 55.2452 35.9854 52.4612V50.7092H34.3774ZM40.0654 54.1412V55.7972H44.8894V54.1412H40.0654ZM29.1454 49.9892V51.5972H40.7374V49.9892H29.1454ZM31.8334 62.6612V64.2932H44.3134V70.1972H46.3054V62.6612H31.8334ZM44.3134 48.5012V61.4852H46.3054V48.5012H44.3134ZM56.3356 50.1572C53.1676 50.1572 50.9356 53.1092 50.9356 57.7172C50.9356 62.3492 53.1676 65.3012 56.3356 65.3012C59.4796 65.3012 61.7356 62.3492 61.7356 57.7172C61.7356 53.1092 59.4796 50.1572 56.3356 50.1572ZM56.3356 51.9572C58.4236 51.9572 59.8396 54.2132 59.8396 57.7172C59.8396 61.2452 58.4236 63.5492 56.3356 63.5492C54.2476 63.5492 52.8316 61.2452 52.8316 57.7172C52.8316 54.2132 54.2476 51.9572 56.3356 51.9572ZM66.4396 48.4772V70.2212H68.4076V48.4772H66.4396ZM61.0876 56.7572V58.3892H67.3036V56.7572H61.0876ZM81.3177 50.6372V51.5492C81.3177 54.4052 77.5977 56.9012 73.7817 57.4532L74.5497 59.0372C78.9177 58.2932 83.0457 55.4372 83.0457 51.5492V50.6372H81.3177ZM81.8217 50.6372V51.5492C81.8217 55.4372 85.9257 58.2932 90.3177 59.0372L91.0617 57.4532C87.2697 56.9012 83.5257 54.4052 83.5257 51.5492V50.6372H81.8217ZM81.3897 61.9172V70.1972H83.3577V61.9172H81.3897ZM72.6297 60.8612V62.4932H92.2377V60.8612H72.6297ZM74.4537 49.8452V51.4532H90.3417V49.8452H74.4537ZM102.22 50.0852V50.7332C102.22 54.8372 99.6758 58.0292 94.8998 59.9972L95.9078 61.4612C101.332 59.1572 104.212 55.2692 104.212 50.0852H102.22ZM95.8358 50.0852V51.7412H102.988V50.0852H95.8358ZM111.076 48.5012V61.0292H112.972V48.5012H111.076ZM101.98 54.6692V56.2772H107.212V54.6692H101.98ZM106.78 48.9572V60.6932H108.652V48.9572H106.78ZM100.324 61.7732V63.1892C100.324 65.3012 98.6678 67.6532 95.9558 68.6372L96.9398 70.1252C100.06 68.9252 101.86 66.0452 101.86 63.1892V61.7732H100.324ZM100.756 61.7732V63.1892C100.756 66.0932 102.148 69.0692 105.292 70.3172L106.132 68.8292C103.516 67.7252 102.244 65.3972 102.244 63.1892V61.7732H100.756ZM108.292 61.7732V63.1892C108.292 65.0612 107.02 67.6292 104.404 68.8292L105.292 70.3172C108.364 68.9972 109.78 65.7572 109.78 63.1892V61.7732H108.292ZM108.7 61.7732V63.1892C108.7 66.2132 110.476 68.9732 113.62 70.1252L114.604 68.6372C111.868 67.7252 110.236 65.4692 110.236 63.1892V61.7732H108.7ZM132.554 48.5012V70.1972H134.546V48.5012H132.554ZM118.154 50.6132V64.0532H120.122V50.6132H118.154ZM118.154 62.8772V64.6052H119.93C123.362 64.6052 126.794 64.3412 130.562 63.5732L130.322 61.8692C126.65 62.6372 123.218 62.8772 119.93 62.8772H118.154ZM142.13 63.4161V63.3138C142.141 62.2286 142.255 61.365 142.471 60.7229C142.687 60.0809 142.994 59.561 143.391 59.1633C143.789 58.7655 144.266 58.3991 144.823 58.0638C145.158 57.8593 145.46 57.6178 145.727 57.3394C145.994 57.0553 146.204 56.7286 146.357 56.3593C146.516 55.99 146.596 55.5809 146.596 55.132C146.596 54.5752 146.465 54.0922 146.204 53.6831C145.942 53.2741 145.593 52.9587 145.156 52.7371C144.718 52.5155 144.232 52.4047 143.698 52.4047C143.232 52.4047 142.783 52.5013 142.352 52.6945C141.92 52.8877 141.559 53.1917 141.269 53.6064C140.979 54.0212 140.812 54.5638 140.766 55.2343H138.619C138.664 54.2684 138.914 53.4417 139.369 52.7542C139.829 52.0667 140.434 51.5411 141.184 51.1775C141.94 50.8138 142.778 50.632 143.698 50.632C144.698 50.632 145.567 50.8309 146.306 51.2286C147.05 51.6263 147.624 52.1718 148.028 52.865C148.437 53.5581 148.641 54.3479 148.641 55.2343C148.641 55.8593 148.545 56.4246 148.352 56.9303C148.164 57.436 147.891 57.8877 147.533 58.2854C147.181 58.6831 146.755 59.0354 146.255 59.3422C145.755 59.6547 145.354 59.9843 145.053 60.3309C144.752 60.6718 144.533 61.078 144.397 61.5496C144.261 62.0212 144.187 62.6093 144.175 63.3138V63.4161H142.13ZM143.221 68.4616C142.8 68.4616 142.44 68.311 142.138 68.0099C141.837 67.7087 141.687 67.3479 141.687 66.9275C141.687 66.507 141.837 66.1462 142.138 65.8451C142.44 65.5439 142.8 65.3934 143.221 65.3934C143.641 65.3934 144.002 65.5439 144.303 65.8451C144.604 66.1462 144.755 66.507 144.755 66.9275C144.755 67.2059 144.684 67.4616 144.542 67.6945C144.406 67.9275 144.221 68.115 143.988 68.257C143.761 68.3934 143.505 68.4616 143.221 68.4616Z" fill="black"/>
</svg>
