<svg width="337" height="104" viewBox="0 0 337 104" fill="none" xmlns="http://www.w3.org/2000/svg">
<path d="M61.3699 1L280.738 6.77584C302.935 6.77584 320.742 13.7577 320.742 22.4617L295.426 71.7295C295.426 80.4336 269.197 88.1663 247 88.1663V102.5L213.441 88.1663H88.8353C66.6375 88.1663 21.2969 85.7539 21.2969 77.05L1 22.4617C1 13.7576 39.1732 1 61.3699 1Z" fill="white" stroke="black" stroke-width="2" stroke-linecap="round" stroke-linejoin="round"/>
<path d="M33.1691 21.8052V23.4132H47.1371V21.8052H33.1691ZM31.0571 36.3732V38.0292H50.6651V36.3732H31.0571ZM46.0811 21.8052V23.9652C46.0811 26.6532 46.0811 29.8932 45.2171 34.3332L47.2091 34.5252C48.0251 29.8452 48.0251 26.7492 48.0251 23.9652V21.8052H46.0811ZM53.8312 34.3572V36.0132H55.2712C57.9592 36.0132 60.4072 35.9412 63.4072 35.4132L63.2392 33.7572C60.3112 34.2612 57.9112 34.3572 55.2712 34.3572H53.8312ZM53.7832 21.8532V23.4852H59.9752V27.8532H53.8312V34.9812H55.7752V29.4852H61.9192V21.8532H53.7832ZM69.6232 19.5012V41.1972H71.5432V19.5012H69.6232ZM65.9512 28.0692V29.7012H70.1272V28.0692H65.9512ZM64.7032 19.9812V40.0932H66.5752V19.9812H64.7032ZM86.0373 26.8452V28.4772H92.0853V26.8452H86.0373ZM80.8053 21.3732V25.2372C80.8053 29.2692 78.3573 33.4452 75.1653 35.0292L76.4373 36.6132C79.8693 34.7652 82.4373 30.1092 82.4373 25.2372V21.3732H80.8053ZM81.1893 21.3732V25.2372C81.1893 29.9892 83.7093 34.4532 87.2133 36.2292L88.3893 34.6212C85.2453 33.1332 82.7973 29.1972 82.7973 25.2372V21.3732H81.1893ZM91.1013 19.4772V41.2212H93.0693V19.4772H91.1013ZM110.785 21.8706V39.3252H108.671V24.0866H108.569L104.307 26.9161V24.7684L108.671 21.8706H110.785ZM131.038 19.5012V35.5812H133.03V19.5012H131.038ZM124.918 22.3332V23.9412H131.782V22.3332H124.918ZM119.158 39.0852V40.7172H133.606V39.0852H119.158ZM119.158 34.1892V39.8292H121.15V34.1892H119.158ZM116.446 21.0852V31.3092H118.438V21.0852H116.446ZM116.446 30.6852V32.3412H118.078C121.27 32.3412 124.174 32.1972 127.654 31.5732L127.462 29.9172C124.078 30.5172 121.174 30.6852 118.078 30.6852H116.446ZM124.918 26.4612V28.0932H131.782V26.4612H124.918ZM160.49 19.5012V41.1972H162.41V19.5012H160.49ZM156.842 28.3332V29.9652H161.018V28.3332H156.842ZM155.57 19.9812V40.0932H157.442V19.9812H155.57ZM145.058 22.1172V34.6452H147.05V22.1172H145.058ZM145.058 33.8532V35.5812H146.45C148.778 35.5812 151.274 35.4612 154.226 34.8852L154.01 33.1572C151.178 33.7092 148.682 33.8532 146.45 33.8532H145.058ZM182.568 19.5012V41.1972H184.488V19.5012H182.568ZM178.92 28.3332V29.9652H183.096V28.3332H178.92ZM177.648 19.9812V40.0932H179.52V19.9812H177.648ZM167.136 22.1172V34.6452H169.128V22.1172H167.136ZM167.136 33.8532V35.5812H168.528C170.856 35.5812 173.352 35.4612 176.304 34.8852L176.088 33.1572C173.256 33.7092 170.76 33.8532 168.528 33.8532H167.136ZM46.8011 48.4772V70.2212H48.7931V48.4772H46.8011ZM32.2811 50.3252V64.9892H42.5051V50.3252H40.5131V56.0612H34.2491V50.3252H32.2811ZM34.2491 57.6452H40.5131V63.3572H34.2491V57.6452ZM67.7992 48.4772V70.1972H69.8152V48.4772H67.7992ZM69.2632 57.2852V58.9412H73.2712V57.2852H69.2632ZM62.2552 50.8292V51.1412C62.2552 56.8772 59.2552 61.5092 53.2552 64.5572L54.3592 66.0932C61.3672 62.5652 64.1992 56.9972 64.1992 50.8292H62.2552ZM54.2632 50.8292V52.4612H63.2872V50.8292H54.2632ZM97.8033 48.5012V60.9572H99.7953V48.5012H97.8033ZM92.2833 53.8292V55.4612H98.2833V53.8292H92.2833ZM82.9473 50.0372V59.6132H92.8593V50.0372H82.9473ZM90.8913 51.6212V58.0052H84.8913V51.6212H90.8913ZM85.7313 62.0852V69.9092H99.7953V62.0852H85.7313ZM97.8513 63.6692V68.3012H87.6753V63.6692H97.8513ZM112.849 62.3012V70.2212H114.817V62.3012H112.849ZM104.041 61.6052V63.2612H123.649V61.6052H104.041ZM112.825 52.2212V52.7732C112.825 55.4852 109.177 57.8612 105.265 58.3892L105.961 59.9732C110.521 59.2772 114.577 56.5172 114.577 52.7732V52.2212H112.825ZM113.089 52.2212V52.7732C113.089 56.4692 117.121 59.3012 121.657 59.9732L122.377 58.3892C118.489 57.8612 114.817 55.4612 114.817 52.7732V52.2212H113.089ZM105.937 51.1652V52.7972H121.753V51.1652H105.937ZM112.849 48.5012V51.7412H114.817V48.5012H112.849ZM131.856 51.5972V55.1252C131.856 58.8692 129.24 62.9492 126.096 64.4372L127.248 66.0212C130.704 64.3172 133.464 59.7092 133.464 55.1252V51.5972H131.856ZM132.24 51.5972V55.1252C132.24 59.6372 135.024 63.8612 138.528 65.4932L139.656 63.9092C136.464 62.5412 133.848 58.7972 133.848 55.1252V51.5972H132.24ZM126.816 50.7092V52.3892H138.936V50.7092H126.816ZM141.864 48.5012V70.1972H143.856V48.5012H141.864ZM160.924 49.7252C157.708 49.7252 155.332 51.7892 155.332 54.7412C155.332 57.6932 157.708 59.7572 160.924 59.7572C164.164 59.7572 166.54 57.6932 166.54 54.7412C166.54 51.7892 164.164 49.7252 160.924 49.7252ZM160.924 51.3572C163.036 51.3572 164.62 52.7732 164.62 54.7412C164.62 56.7092 163.036 58.1252 160.924 58.1252C158.86 58.1252 157.276 56.7092 157.276 54.7412C157.276 52.7732 158.86 51.3572 160.924 51.3572ZM169.78 48.5012V59.3012H171.772V48.5012H169.78ZM170.908 53.3732V55.0052H174.988V53.3732H170.908ZM157.204 67.9892V69.6212H158.236C159.724 69.6212 161.716 69.5252 163.804 68.8532L163.468 67.2452C161.62 67.8692 159.532 67.9892 158.236 67.9892H157.204ZM157.204 61.6532V68.5652H159.148V61.6532H157.204ZM163.012 61.7972V63.2852H173.908V61.7972H163.012ZM168.484 64.0532C166.108 64.0532 164.452 65.2292 164.452 67.1012C164.452 68.9972 166.108 70.1732 168.484 70.1732C170.836 70.1732 172.492 68.9972 172.492 67.1012C172.492 65.2292 170.836 64.0532 168.484 64.0532ZM168.484 65.4692C169.78 65.4692 170.716 66.1172 170.716 67.1012C170.716 68.1092 169.78 68.7572 168.484 68.7572C167.14 68.7572 166.228 68.1092 166.228 67.1012C166.228 66.1172 167.14 65.4692 168.484 65.4692ZM167.5 59.8532V62.9492H169.444V59.8532H167.5ZM179.666 55.0052V56.6372H194.402V55.0052H179.666ZM177.002 59.5412V61.1732H196.682V59.5412H177.002ZM179.666 49.2932V55.8212H181.634V49.2932H179.666ZM179.522 68.0372V69.6692H194.522V68.0372H179.522ZM179.522 63.3332V68.4692H181.49V63.3332H179.522ZM208.182 49.5332V51.1412H222.15V49.5332H208.182ZM205.854 58.6772V60.2852H225.438V58.6772H205.854ZM213.894 54.3092V58.9172H215.862V54.3092H213.894ZM220.998 49.5332V51.0692C220.998 52.6772 220.998 54.4532 220.446 56.9492L222.39 57.1652C222.942 54.6452 222.942 52.7012 222.942 51.0692V49.5332H220.998ZM214.566 61.9892V62.9492C214.566 65.8052 211.23 67.9892 207.246 68.5412L208.014 70.1252C212.454 69.3812 216.27 66.8132 216.27 62.9492V61.9892H214.566ZM214.854 61.9892V62.9492C214.854 66.8132 218.646 69.3812 223.134 70.1252L223.878 68.5412C219.918 67.9892 216.558 65.8052 216.558 62.9492V61.9892H214.854ZM243.676 48.4772V70.2212H245.668V48.4772H243.676ZM234.22 50.1572C231.028 50.1572 228.724 53.1092 228.724 57.7172C228.724 62.3492 231.028 65.3012 234.22 65.3012C237.436 65.3012 239.74 62.3492 239.74 57.7172C239.74 53.1092 237.436 50.1572 234.22 50.1572ZM234.22 51.9572C236.356 51.9572 237.82 54.2132 237.82 57.7172C237.82 61.2452 236.356 63.5492 234.22 63.5492C232.108 63.5492 230.62 61.2452 230.62 57.7172C230.62 54.2132 232.108 51.9572 234.22 51.9572ZM255.746 51.5972V55.1252C255.746 58.8692 253.13 62.9492 249.986 64.4372L251.138 66.0212C254.594 64.3172 257.354 59.7092 257.354 55.1252V51.5972H255.746ZM256.13 51.5972V55.1252C256.13 59.6372 258.914 63.8612 262.418 65.4932L263.546 63.9092C260.354 62.5412 257.738 58.7972 257.738 55.1252V51.5972H256.13ZM250.706 50.7092V52.3892H262.826V50.7092H250.706ZM265.754 48.5012V70.1972H267.746V48.5012H265.754ZM274.195 68.4616C273.775 68.4616 273.414 68.311 273.113 68.0099C272.812 67.7087 272.661 67.3479 272.661 66.9275C272.661 66.507 272.812 66.1462 273.113 65.8451C273.414 65.5439 273.775 65.3934 274.195 65.3934C274.616 65.3934 274.976 65.5439 275.278 65.8451C275.579 66.1462 275.729 66.507 275.729 66.9275C275.729 67.2059 275.658 67.4616 275.516 67.6945C275.38 67.9275 275.195 68.115 274.962 68.257C274.735 68.3934 274.479 68.4616 274.195 68.4616ZM280.805 68.4616C280.384 68.4616 280.023 68.311 279.722 68.0099C279.421 67.7087 279.27 67.3479 279.27 66.9275C279.27 66.507 279.421 66.1462 279.722 65.8451C280.023 65.5439 280.384 65.3934 280.805 65.3934C281.225 65.3934 281.586 65.5439 281.887 65.8451C282.188 66.1462 282.339 66.507 282.339 66.9275C282.339 67.2059 282.268 67.4616 282.126 67.6945C281.989 67.9275 281.805 68.115 281.572 68.257C281.344 68.3934 281.089 68.4616 280.805 68.4616Z" fill="black"/>
</svg>
