<svg width="500" height="300" viewBox="0 0 500 300" fill="none" xmlns="http://www.w3.org/2000/svg">
<path d="M175.942 32.0002L440.767 38.9207C469.195 38.9207 492 47.2862 492 57.7152L475.693 116.747C475.693 127.176 457.507 134.747 429.08 134.747L371.209 135.118L384.825 157L299.34 135.541L211.116 136.441C182.688 136.441 145.817 127.167 145.817 116.738L120 54.2741C120 43.8451 147.515 32.0002 175.942 32.0002Z" fill="white" stroke="black" stroke-width="2" stroke-linecap="round" stroke-linejoin="round"/>
<path d="M181.944 59.152V80.896H183.936V59.152H181.944ZM172.488 60.832C169.296 60.832 166.992 63.784 166.992 68.392C166.992 73.024 169.296 75.976 172.488 75.976C175.704 75.976 178.008 73.024 178.008 68.392C178.008 63.784 175.704 60.832 172.488 60.832ZM172.488 62.632C174.624 62.632 176.088 64.888 176.088 68.392C176.088 71.92 174.624 74.224 172.488 74.224C170.376 74.224 168.888 71.92 168.888 68.392C168.888 64.888 170.376 62.632 172.488 62.632ZM197.356 60.208V61.816H211.324V60.208H197.356ZM195.028 69.352V70.96H214.612V69.352H195.028ZM203.068 64.984V69.592H205.036V64.984H203.068ZM210.172 60.208V61.744C210.172 63.352 210.172 65.128 209.62 67.624L211.564 67.84C212.116 65.32 212.116 63.376 212.116 61.744V60.208H210.172ZM203.74 72.664V73.624C203.74 76.48 200.404 78.664 196.42 79.216L197.188 80.8C201.628 80.056 205.444 77.488 205.444 73.624V72.664H203.74ZM204.028 72.664V73.624C204.028 77.488 207.82 80.056 212.308 80.8L213.052 79.216C209.092 78.664 205.732 76.48 205.732 73.624V72.664H204.028ZM217.082 70.576V72.208H236.69V70.576H217.082ZM219.626 78.76V80.392H234.53V78.76H219.626ZM219.626 74.104V79.264H221.618V74.104H219.626ZM226.898 59.896C222.242 59.896 219.266 61.528 219.266 64.24C219.266 66.928 222.242 68.56 226.898 68.56C231.53 68.56 234.53 66.928 234.53 64.24C234.53 61.528 231.53 59.896 226.898 59.896ZM226.898 61.528C230.306 61.528 232.49 62.536 232.49 64.24C232.49 65.944 230.306 66.952 226.898 66.952C223.49 66.952 221.306 65.944 221.306 64.24C221.306 62.536 223.49 61.528 226.898 61.528ZM251.238 61.048V64.936C251.238 68.896 248.766 73.072 245.622 74.656L246.846 76.24C250.278 74.416 252.87 69.736 252.87 64.936V61.048H251.238ZM251.598 61.048V64.936C251.598 69.592 254.118 74.032 257.478 75.832L258.702 74.248C255.63 72.712 253.206 68.752 253.206 64.936V61.048H251.598ZM260.598 59.176V80.872H262.614V59.176H260.598ZM262.134 67.96V69.64H266.166V67.96H262.134ZM282.845 59.2V72.112H284.837V59.2H282.845ZM284.237 64.72V66.4H288.053V64.72H284.237ZM271.157 73.192V80.584H284.837V73.192H271.157ZM282.893 74.776V78.976H273.125V74.776H282.893ZM268.949 69.352V71.008H270.653C274.661 71.008 277.517 70.864 280.949 70.288L280.781 68.656C277.397 69.256 274.589 69.352 270.653 69.352H268.949ZM268.901 60.352V61.984H276.701V64.768H268.949V70.288H270.893V66.304H278.669V60.352H268.901ZM290.091 68.224V69.856H309.699V68.224H290.091ZM292.683 64.864V66.472H307.371V64.864H292.683ZM292.683 59.872V66.16H294.651V61.504H307.131V59.872H292.683ZM292.443 71.728V73.288H305.211V75.352H292.491V79.576H294.459V76.84H307.179V71.728H292.443ZM292.491 79.048V80.632H307.827V79.048H292.491ZM319.201 60.736C315.817 60.736 313.369 62.824 313.369 65.848C313.369 68.896 315.817 70.984 319.201 70.984C322.585 70.984 325.009 68.896 325.009 65.848C325.009 62.824 322.585 60.736 319.201 60.736ZM319.201 62.464C321.433 62.464 323.065 63.832 323.065 65.848C323.065 67.864 321.433 69.256 319.201 69.256C316.945 69.256 315.313 67.864 315.313 65.848C315.313 63.832 316.945 62.464 319.201 62.464ZM327.841 59.152V80.896H329.833V59.152H327.841ZM312.553 76.144C316.417 76.144 321.721 76.12 326.593 75.184L326.425 73.72C321.697 74.464 316.225 74.488 312.265 74.488L312.553 76.144ZM349.781 59.32V60.112C349.781 62.824 346.013 64.96 342.053 65.392L342.749 66.928C347.237 66.328 351.461 63.832 351.461 60.112V59.32H349.781ZM350.117 59.32V60.112C350.117 63.832 354.317 66.328 358.829 66.928L359.501 65.392C355.565 64.96 351.797 62.824 351.797 60.112V59.32H350.117ZM340.973 68.296V69.904H360.581V68.296H340.973ZM343.349 71.872V73.432H356.117V75.424H343.397V79.456H345.365V76.864H358.085V71.872H343.349ZM343.397 79.072V80.632H358.733V79.072H343.397ZM363.051 69.952V71.56H382.659V69.952H363.051ZM364.875 59.944V61.576H380.811V59.944H364.875ZM364.971 66.16V67.792H380.715V66.16H364.971ZM368.163 60.664V67.168H370.155V60.664H368.163ZM375.555 60.664V67.168H377.523V60.664H375.555ZM365.451 73.744V80.584H380.259V73.744H365.451ZM378.315 75.328V78.976H367.419V75.328H378.315ZM400.897 59.152V80.896H402.889V59.152H400.897ZM391.441 60.832C388.249 60.832 385.945 63.784 385.945 68.392C385.945 73.024 388.249 75.976 391.441 75.976C394.657 75.976 396.961 73.024 396.961 68.392C396.961 63.784 394.657 60.832 391.441 60.832ZM391.441 62.632C393.577 62.632 395.041 64.888 395.041 68.392C395.041 71.92 393.577 74.224 391.441 74.224C389.329 74.224 387.841 71.92 387.841 68.392C387.841 64.888 389.329 62.632 391.441 62.632ZM413.981 76.456V78.112H433.637V76.456H413.981ZM422.765 70.84V76.912H424.757V70.84H422.765ZM416.261 60.976V71.2H431.237V60.976H416.261ZM429.317 62.584V69.592H418.205V62.584H429.317ZM445.827 64V65.656H452.379V64H445.827ZM445.827 70.864V72.52H452.379V70.864H445.827ZM441.843 60.832C438.675 60.832 436.443 63.784 436.443 68.392C436.443 73.024 438.675 75.976 441.843 75.976C444.987 75.976 447.243 73.024 447.243 68.392C447.243 63.784 444.987 60.832 441.843 60.832ZM441.843 62.632C443.931 62.632 445.371 64.888 445.371 68.392C445.371 71.92 443.931 74.224 441.843 74.224C439.755 74.224 438.315 71.92 438.315 68.392C438.315 64.888 439.755 62.632 441.843 62.632ZM451.947 59.152V80.896H453.915V59.152H451.947ZM167.088 90.12V100.176H177.048V90.12H167.088ZM175.104 91.728V98.568H169.032V91.728H175.104ZM181.032 88.152V104.064H183.024V88.152H181.032ZM182.4 94.776V96.432H186.24V94.776H182.4ZM169.512 107.76V109.392H184.008V107.76H169.512ZM169.512 102.552V108.456H171.504V102.552H169.512ZM188.278 97.224V98.856H207.886V97.224H188.278ZM190.87 93.864V95.472H205.558V93.864H190.87ZM190.87 88.872V95.16H192.838V90.504H205.318V88.872H190.87ZM190.63 100.728V102.288H203.398V104.352H190.678V108.576H192.646V105.84H205.366V100.728H190.63ZM190.678 108.048V109.632H206.014V108.048H190.678ZM216.14 89.832C212.972 89.832 210.74 92.784 210.74 97.392C210.74 102.024 212.972 104.976 216.14 104.976C219.284 104.976 221.54 102.024 221.54 97.392C221.54 92.784 219.284 89.832 216.14 89.832ZM216.14 91.632C218.228 91.632 219.644 93.888 219.644 97.392C219.644 100.92 218.228 103.224 216.14 103.224C214.052 103.224 212.636 100.92 212.636 97.392C212.636 93.888 214.052 91.632 216.14 91.632ZM226.244 88.152V109.896H228.212V88.152H226.244ZM220.892 96.432V98.064H227.108V96.432H220.892ZM238.194 90.552V92.76C238.194 95.856 235.986 98.664 232.722 99.816L233.754 101.4C237.402 100.08 239.85 96.744 239.85 92.76V90.552H238.194ZM238.578 90.552V92.76C238.578 96.576 241.074 99.744 244.674 100.968L245.706 99.408C242.49 98.328 240.234 95.688 240.234 92.76V90.552H238.578ZM233.25 89.976V91.584H245.13V89.976H233.25ZM248.202 88.2V104.064H250.218V88.2H248.202ZM236.274 107.76V109.392H250.866V107.76H236.274ZM236.274 102.576V108.48H238.242V102.576H236.274ZM277.631 88.176V101.904H279.527V88.176H277.631ZM274.103 94.056V95.712H278.207V94.056H274.103ZM272.999 88.608V101.136H274.871V88.608H272.999ZM261.143 90.768V92.352H272.135V90.768H261.143ZM266.663 93.456C263.927 93.456 262.031 94.944 262.031 97.176C262.031 99.432 263.927 100.896 266.663 100.896C269.375 100.896 271.271 99.432 271.271 97.176C271.271 94.944 269.375 93.456 266.663 93.456ZM266.663 94.944C268.343 94.944 269.495 95.832 269.495 97.176C269.495 98.544 268.343 99.408 266.663 99.408C264.959 99.408 263.807 98.544 263.807 97.176C263.807 95.832 264.959 94.944 266.663 94.944ZM265.679 88.344V91.656H267.623V88.344H265.679ZM272.423 102.288C267.863 102.288 265.175 103.632 265.175 106.056C265.175 108.456 267.863 109.824 272.423 109.824C276.935 109.824 279.647 108.456 279.647 106.056C279.647 103.632 276.935 102.288 272.423 102.288ZM272.423 103.824C275.711 103.824 277.679 104.616 277.679 106.056C277.679 107.496 275.711 108.312 272.423 108.312C269.087 108.312 267.143 107.496 267.143 106.056C267.143 104.616 269.087 103.824 272.423 103.824ZM288.789 89.4V91.632C288.789 94.944 286.629 97.848 283.317 99.024L284.349 100.656C288.069 99.264 290.445 95.832 290.445 91.632V89.4H288.789ZM289.149 89.4V91.56C289.149 95.496 291.477 98.688 294.981 100.008L296.061 98.448C292.893 97.344 290.781 94.632 290.781 91.56V89.4H289.149ZM299.181 88.176V101.016H301.173V88.176H299.181ZM294.045 101.64C289.557 101.64 286.797 103.152 286.797 105.744C286.797 108.336 289.557 109.824 294.045 109.824C298.509 109.824 301.269 108.336 301.269 105.744C301.269 103.152 298.509 101.64 294.045 101.64ZM294.045 103.224C297.309 103.224 299.301 104.16 299.301 105.744C299.301 107.328 297.309 108.264 294.045 108.264C290.781 108.264 288.789 107.328 288.789 105.744C288.789 104.16 290.781 103.224 294.045 103.224ZM294.477 92.76V94.416H299.613V92.76H294.477ZM321.163 88.152V109.896H323.155V88.152H321.163ZM311.707 89.832C308.515 89.832 306.211 92.784 306.211 97.392C306.211 102.024 308.515 104.976 311.707 104.976C314.923 104.976 317.227 102.024 317.227 97.392C317.227 92.784 314.923 89.832 311.707 89.832ZM311.707 91.632C313.843 91.632 315.307 93.888 315.307 97.392C315.307 100.92 313.843 103.224 311.707 103.224C309.595 103.224 308.107 100.92 308.107 97.392C308.107 93.888 309.595 91.632 311.707 91.632ZM342.329 88.2V104.184H344.321V88.2H342.329ZM343.721 94.824V96.504H347.537V94.824H343.721ZM330.953 107.76V109.392H345.305V107.76H330.953ZM330.953 102.936V108.36H332.945V102.936H330.953ZM328.433 99.168V100.8H330.137C334.145 100.8 337.001 100.68 340.433 100.104L340.265 98.448C336.881 99.048 334.073 99.168 330.137 99.168H328.433ZM328.385 89.592V91.224H336.185V94.296H328.433V99.744H330.377V95.808H338.153V89.592H328.385ZM364.239 88.152V109.896H366.255V88.152H364.239ZM365.775 96.72V98.4H369.807V96.72H365.775ZM350.487 102.816V104.496H352.191C356.271 104.496 359.127 104.376 362.463 103.752L362.247 102.072C359.007 102.672 356.199 102.816 352.191 102.816H350.487ZM350.487 90.264V103.56H352.455V91.896H360.567V90.264H350.487Z" fill="black"/>
<path d="M461.83 258.042C474.377 259.037 496.388 259.071 498.29 246.195C498.537 244.509 498.678 242.669 498.719 240.73C499.007 227.866 495.011 210.739 490.101 206.545C487.296 204.151 482.081 203.434 476.359 204.003C464.986 205.135 451.592 211.341 451.076 219.563C450.575 227.476 449.283 257.048 461.83 258.042Z" fill="white"/>
<g opacity="0.35">
<path d="M461.83 258.042C474.378 259.037 496.389 259.071 498.29 246.195C498.537 244.508 498.679 242.668 498.719 240.73C495.129 243.411 490.401 240.662 489.965 237.164C487.27 215.565 479.949 206.988 476.358 204.003C464.985 205.135 451.591 211.341 451.075 219.563C450.574 227.476 449.283 257.047 461.83 258.042H461.83Z" fill="#371A45"/>
</g>
<path d="M471.188 259.767C468.006 259.767 464.808 259.613 461.734 259.369C449.222 258.378 448.885 233.948 449.798 219.474C450.112 214.492 454.428 209.878 461.949 206.484C471.42 202.21 485.185 200.624 490.912 205.515C497.377 211.035 501.389 233.954 499.554 246.397C497.995 256.966 484.764 259.767 471.189 259.767H471.188ZM479.895 205.132C474.728 205.132 468.509 206.427 462.967 208.928C456.465 211.862 452.596 215.77 452.351 219.649C451.817 228.124 450.928 255.842 461.928 256.714C474.3 257.694 495.311 257.604 497.024 245.994C498.855 233.583 494.517 212.039 489.288 207.575C487.365 205.932 483.954 205.133 479.894 205.133L479.895 205.132Z" fill="#371A45"/>
<path d="M487.95 228.196L493.624 226.137C494.906 225.672 496.293 226.479 496.576 227.862C497.549 232.619 498.941 242.451 494.31 244.239C488.697 246.406 487.023 239.7 486.438 230.564C486.371 229.511 486.992 228.543 487.949 228.195L487.95 228.196Z" fill="white"/>
<g opacity="0.35">
<path d="M486.45 230.551C487.014 239.688 488.674 246.4 494.291 244.245C496.599 243.364 497.417 240.48 497.537 237.223C497.038 238.134 496.349 238.826 495.409 239.185C490.38 241.112 488.521 235.934 487.787 228.266C486.928 228.654 486.386 229.567 486.45 230.552L486.45 230.551Z" fill="#371A45"/>
</g>
<path d="M492.323 245.984C491.348 245.984 490.456 245.713 489.654 245.169C487.032 243.394 485.692 239.047 485.172 230.638C485.07 228.994 486.047 227.469 487.547 226.929L493.225 224.883C494.186 224.538 495.244 224.638 496.129 225.159C497.011 225.678 497.636 226.568 497.845 227.599C499.275 234.671 499.895 243.516 494.733 245.495C493.883 245.822 493.079 245.984 492.324 245.984H492.323ZM494.385 227.343C494.286 227.343 494.177 227.359 494.062 227.4L488.383 229.446C487.967 229.596 487.697 230.015 487.725 230.466C487.888 233.105 488.384 241.132 491.049 242.937C491.767 243.423 492.682 243.443 493.848 242.996C496.923 241.817 496.636 234.553 495.34 228.147C495.262 227.76 495.011 227.56 494.868 227.476C494.769 227.417 494.599 227.342 494.385 227.342V227.343Z" fill="#371A45"/>
<path d="M491.736 209.109C491.105 209.464 490.429 209.714 489.747 209.931C489.064 210.151 488.359 210.303 487.654 210.46C486.949 210.615 486.236 210.752 485.516 210.876C484.794 210.992 484.071 211.105 483.32 211.165C483.221 211.174 483.135 211.097 483.127 210.995C483.122 210.932 483.148 210.873 483.191 210.835C483.773 210.333 484.388 209.9 485.01 209.485C485.636 209.08 486.272 208.696 486.918 208.343C487.565 207.991 488.214 207.642 488.89 207.369C489.566 207.094 490.249 206.858 490.982 206.739C491.645 206.631 492.267 207.103 492.371 207.794C492.453 208.337 492.19 208.854 491.75 209.102L491.738 209.109H491.736Z" fill="#371A45"/>
<path d="M468.821 252.518L464.196 251.054C458.974 249.403 453.304 249.678 448.352 252.036C446.636 252.852 444.978 253.928 443.607 255.343C438.595 260.517 438.455 270.905 441.858 275.116C443.199 276.776 444.643 278.62 444.643 278.62C443.689 280.042 437.122 291.577 442.407 296.163C447.035 300.179 455.576 299.519 460.076 293.204C463.051 289.03 463.654 284.214 463.485 280.533C463.287 276.229 461.187 270.419 464.608 268.904C469.709 266.646 474.342 267.898 481.718 262.029C490.349 255.159 491.701 240.364 487.867 227.856C485.108 218.86 468.32 201.826 468.32 201.826L473.616 252.411L468.823 252.517L468.821 252.518Z" fill="white"/>
<path d="M442.763 230.36L425.873 246.367L425.697 246.074L418.459 233.942C427.005 230.153 432.318 218.894 432.318 218.894L432.996 219.639L442.763 230.36Z" fill="white"/>
<g opacity="0.35">
<path d="M442.764 230.361L425.873 246.368L425.697 246.075C430.571 238.285 432.449 224.655 432.996 219.641L442.764 230.361V230.361Z" fill="#371A45"/>
</g>
<path d="M425.596 248.43L416.587 233.325L417.959 232.717C425.973 229.163 431.119 218.416 431.17 218.308L431.981 216.589L444.588 230.431L425.595 248.43H425.596ZM420.302 234.505L426.147 244.305L440.936 230.291L432.602 221.141C430.849 224.297 426.529 231.111 420.302 234.505H420.302Z" fill="#371A45"/>
<path d="M423.653 232.25C423.653 232.25 413.531 222.772 407.083 220.23L405.281 224.633L418.8 238.489L423.653 232.25H423.653Z" fill="white"/>
<path d="M418.799 239.82C418.464 239.82 418.141 239.683 417.901 239.437L404.382 225.581C404.007 225.197 403.896 224.613 404.103 224.109L405.905 219.707C406.174 219.05 406.894 218.732 407.535 218.984C414.132 221.584 424.088 230.865 424.508 231.26C425.014 231.733 425.075 232.537 424.646 233.087L419.793 239.326C419.566 239.619 419.231 239.797 418.87 239.818C418.846 239.82 418.822 239.821 418.798 239.821L418.799 239.82ZM406.798 224.32L418.692 236.51L421.883 232.407C419.466 230.234 412.749 224.396 407.758 221.974L406.798 224.32V224.32Z" fill="#371A45"/>
<path d="M433.567 206.445C438.652 227.551 432.634 246.859 432.634 246.859C412.945 254.22 423.688 274.427 423.688 274.427C423.688 274.427 410.112 282.604 416.512 290.773C422.085 297.888 440.805 289.714 441.71 279.335C441.71 279.335 438.49 268.798 443.482 265.189" fill="white"/>
<path d="M489.893 241.776C489.785 249.986 487.239 257.63 481.715 262.028C474.34 267.898 469.709 266.646 464.607 268.903C462.858 269.679 462.551 271.573 462.698 273.817C462.49 276.328 463.36 279.69 463.485 282.45C463.488 282.503 463.488 282.557 463.491 282.61C463.36 285.916 462.519 289.778 460.075 293.204C455.732 299.3 447.621 300.125 442.903 296.56C442.734 296.433 442.567 296.3 442.408 296.16C441.179 295.098 440.591 293.656 440.425 292.058C440.789 287.94 442.98 283.422 444.1 281.411C444.339 280.979 444.531 280.662 444.643 280.489C444.643 280.489 444.397 280.166 444.013 279.67C443.722 279.291 443.351 278.811 442.945 278.289C442.596 277.839 442.222 277.363 441.857 276.9C441.493 276.437 441.167 275.901 440.885 275.306C441.179 277.603 441.71 279.334 441.71 279.334C440.805 289.715 422.085 297.888 416.511 290.773C415.497 289.482 414.985 288.19 414.841 286.931C414.064 280.223 423.688 274.427 423.688 274.427C423.688 274.427 418.334 264.359 422.111 255.846C423.684 252.3 426.844 249.024 432.633 246.86C432.633 246.86 434.057 242.296 434.933 235.178C435.157 233.353 435.346 231.362 435.467 229.238C435.691 225.253 435.675 220.799 435.195 216.094L468.317 201.825C468.317 201.825 468.333 201.842 468.365 201.875C468.381 201.892 468.401 201.912 468.426 201.938L468.503 202.018C468.532 202.052 468.564 202.085 468.602 202.122C468.772 202.301 469.011 202.554 469.315 202.881C470.729 204.395 473.486 207.412 476.47 210.994C481.172 216.637 486.426 223.682 487.866 228.489C488.278 229.864 488.63 231.269 488.918 232.688C489.535 235.694 489.868 238.763 489.893 241.776V241.776Z" fill="white"/>
<path d="M441.114 267.032C440.706 267.032 440.329 266.759 440.199 266.334C436.74 254.947 422.342 256.926 422.197 256.946C421.671 257.026 421.187 256.643 421.113 256.096C421.039 255.549 421.404 255.045 421.929 254.967C422.09 254.946 438.085 252.752 442.028 265.732C442.188 266.258 441.908 266.819 441.403 266.985C441.307 267.017 441.209 267.032 441.113 267.032H441.114Z" fill="#371A45"/>
<path d="M435.195 216.096L433.568 206.444C434.357 209.727 434.879 212.966 435.195 216.096Z" fill="white"/>
<path d="M423.065 294.787C419.818 294.787 417.157 293.705 415.519 291.616C413.843 289.477 413.214 287.14 413.648 284.671C414.538 279.612 419.774 275.502 422.027 273.944C420.765 271.106 417.951 263.456 420.529 256.336C422.236 251.62 425.955 248.093 431.59 245.843C432.526 242.432 436.762 225.184 432.326 206.77C432.154 206.057 432.57 205.333 433.256 205.154C433.941 204.976 434.636 205.409 434.808 206.122C439.923 227.355 434.101 246.468 433.85 247.271L433.657 247.893L433.066 248.114C427.832 250.071 424.421 253.149 422.927 257.262C420.166 264.866 424.76 273.697 424.806 273.786L425.411 274.928L424.327 275.583C424.255 275.626 417.063 280.025 416.164 285.156C415.869 286.844 416.306 288.407 417.502 289.934C419.319 292.254 423.36 292.767 428.047 291.275C433.754 289.458 439.771 284.839 440.409 279.464C439.902 277.652 437.477 267.911 442.751 264.099C443.331 263.68 444.128 263.829 444.531 264.433C444.934 265.037 444.79 265.867 444.21 266.286C440.762 268.779 442.115 276.262 442.927 278.935L443.005 279.191L442.982 279.458C442.375 286.417 435.203 291.783 428.795 293.822C426.759 294.469 424.825 294.788 423.064 294.788L423.065 294.787Z" fill="#371A45"/>
<path d="M469.793 248.202L465.967 251.584L425.246 232.251C425.246 232.251 428.013 230.56 435.519 228.259C440.531 226.721 447.657 224.91 457.485 223.146L459.631 227.514L469.793 248.202Z" fill="white"/>
<path d="M466.174 253.147L422.475 232.397L424.599 231.101C424.921 230.903 432.777 226.229 457.268 221.834L458.195 221.668L471.391 248.533L466.174 253.147V253.147ZM428.316 232.243L465.757 250.021L468.191 247.868L456.775 224.627C440.7 227.568 432.1 230.629 428.316 232.243H428.316Z" fill="#371A45"/>
<path d="M438.652 258.794L466.776 251.371L455.128 227.552L427.004 233.942L438.652 258.794Z" fill="#73BEFD"/>
<path d="M438.652 258.794L466.776 251.371L455.128 227.552L427.004 233.942L438.652 258.794Z" fill="#73BEFD"/>
<g opacity="0.35">
<path d="M465.496 254.7L443.914 260.396C443.658 265.583 443.214 274.426 442.945 278.288C442.596 277.838 442.222 277.362 441.857 276.899C441.493 276.437 441.167 275.901 440.885 275.305C441.179 277.602 441.71 279.333 441.71 279.333C440.805 289.714 422.085 297.887 416.511 290.772C415.497 289.481 414.985 288.189 414.841 286.931C419.319 293.639 432.115 287.317 434.354 285.193C436.791 282.882 437.118 281.647 435.592 272.921C434.767 268.207 435.902 264.648 437.588 262.064L437.373 262.121H433.12L423.966 258.705L422.111 255.845C423.684 252.299 426.844 249.023 432.633 246.859C432.633 246.859 434.057 242.295 434.933 235.177L453.848 230.879L465.496 254.7V254.7Z" fill="#371A45"/>
</g>
<path d="M466.776 251.372L438.653 258.793L437.879 257.145L427.004 233.943L455.127 227.551L457.804 233.024L466.776 251.372Z" fill="#1F9FFF"/>
<g opacity="0.7">
<path d="M431.092 237.998L439.363 258.605L438.653 258.792L437.879 257.144L427.004 233.942L455.127 227.55L455.604 228.522L432.514 234.981C431.261 235.331 430.591 236.751 431.092 237.998Z" fill="white"/>
</g>
<g opacity="0.35">
<path d="M466.776 251.371L438.653 258.792L437.879 257.144C438.362 250.452 451.654 247.02 451.654 247.02C449.367 238.573 455.559 234.275 457.804 233.023L466.776 251.371Z" fill="#371A45"/>
</g>
<path d="M438.652 260.042C438.202 260.042 437.779 259.777 437.574 259.341L425.927 234.489C425.765 234.144 425.765 233.742 425.925 233.397C426.086 233.052 426.39 232.802 426.749 232.721L454.872 226.33C455.405 226.21 455.949 226.477 456.197 226.984L467.844 250.802C468.01 251.141 468.018 251.539 467.867 251.884C467.717 252.229 467.424 252.485 467.07 252.578L438.946 260.002C438.848 260.027 438.749 260.04 438.651 260.04L438.652 260.042ZM428.752 234.822L439.303 257.333L465.026 250.543L454.48 228.975L428.752 234.821V234.822Z" fill="#371A45"/>
<path d="M427.004 233.941L421.642 233.985L434.399 258.794H438.652L427.004 233.941Z" fill="#1F9FFF"/>
<g opacity="0.7">
<path d="M428.131 236.344L422.875 236.387L421.641 233.987L427.004 233.943L428.131 236.344Z" fill="white"/>
</g>
<path d="M438.652 260.042H434.398C433.956 260.042 433.549 259.789 433.34 259.383L420.584 234.574C420.385 234.189 420.396 233.724 420.61 233.348C420.824 232.972 421.212 232.74 421.632 232.737L426.995 232.693C427.444 232.693 427.879 232.962 428.082 233.394L439.73 258.246C439.911 258.633 439.888 259.09 439.669 259.456C439.45 259.82 439.065 260.042 438.652 260.042V260.042ZM435.117 257.546H436.732L426.258 235.197L423.635 235.218L435.116 257.546H435.117Z" fill="#371A45"/>
<path d="M434.399 258.792L425.245 255.376L421.542 249.669L419.271 246.174L413.434 237.191L405.278 224.63L421.641 233.985L434.316 258.628L434.399 258.792Z" fill="#1F9FFF"/>
<g opacity="0.7">
<path d="M434.399 258.793L432.71 258.163L420.262 235.641L407.354 227.827L405.278 224.631L421.641 233.986L434.316 258.629L434.399 258.793Z" fill="white"/>
</g>
<path d="M434.398 260.042C434.263 260.042 434.126 260.018 433.994 259.969L424.842 256.551C424.602 256.461 424.396 256.295 424.254 256.075L404.287 225.331C403.976 224.853 404.02 224.216 404.394 223.79C404.767 223.364 405.372 223.259 405.857 223.537L422.219 232.89C422.423 233.007 422.589 233.182 422.699 233.395L435.456 258.203C435.69 258.659 435.631 259.217 435.307 259.608C435.074 259.888 434.74 260.041 434.398 260.041V260.042ZM426.021 254.338L431.871 256.523L420.752 234.901L409.054 228.214L426.021 254.339V254.338Z" fill="#371A45"/>
<path d="M421.642 233.986C421.642 233.986 421.736 230.892 424.155 230.532C426.157 230.234 427.563 233.816 427.563 233.816L421.642 233.986Z" fill="#371A45"/>
<path d="M489.894 241.536C489.897 241.616 489.894 241.696 489.894 241.776C489.785 249.986 487.239 257.63 481.715 262.028C474.34 267.897 469.709 266.646 464.607 268.903C462.858 269.678 462.551 271.573 462.698 273.817C462.836 275.964 463.386 278.428 463.485 280.532C463.514 281.191 463.52 281.887 463.491 282.609C463.36 285.915 462.519 289.777 460.075 293.203C455.575 299.519 447.036 300.178 442.408 296.16C441.18 295.097 440.591 293.656 440.425 292.058C440.418 292.005 440.415 291.948 440.412 291.895C440.031 287.54 442.673 282.053 444.013 279.67C444.295 279.17 444.519 278.804 444.643 278.618C444.643 278.618 443.201 276.776 441.858 275.115C438.455 270.904 438.595 260.516 443.607 255.339C444.979 253.924 446.636 252.849 448.353 252.033C450.998 250.775 453.848 250.109 456.724 250.016C459.234 249.929 461.764 250.282 464.195 251.051L468.823 252.516L473.614 252.41L471.247 229.8C472.389 228.629 473.291 226.758 473.144 223.848L472.536 220.788L469.635 206.209L469.424 205.157C469.424 205.157 473.249 208.2 477.538 212.815C481.738 217.326 486.382 223.342 488.33 229.481C488.33 229.491 488.333 229.501 488.339 229.514C488.646 230.653 488.905 231.808 489.12 232.97C489.65 235.816 489.916 238.71 489.894 241.536V241.536Z" fill="white"/>
<g opacity="0.35">
<path d="M489.893 241.537C489.897 241.617 489.893 241.697 489.893 241.777C489.785 249.987 487.239 257.631 481.715 262.029C474.34 267.898 469.709 266.646 464.607 268.904C462.858 269.679 462.551 271.574 462.698 273.818C462.835 275.965 463.386 278.429 463.485 280.533C463.513 281.192 463.52 281.888 463.491 282.61C463.36 285.916 462.519 289.778 460.075 293.204C455.575 299.52 447.036 300.179 442.408 296.16C441.179 295.098 440.591 293.657 440.425 292.059C440.418 292.006 440.415 291.949 440.412 291.896C445.289 296.14 453.621 297.612 458.239 288.66C463.52 278.415 457.529 274.224 457.408 269.317C457.283 264.409 466.002 265.638 478.552 259.645C485.985 256.099 488.819 247.753 489.893 241.537V241.537Z" fill="#371A45"/>
</g>
<path d="M468.697 252.942C467.615 252.798 466.547 252.6 465.486 252.381C464.955 252.275 464.425 252.162 463.9 252.038C463.391 251.936 462.886 251.83 462.379 251.745C460.35 251.408 458.309 251.276 456.287 251.428C454.268 251.591 452.275 252.01 450.381 252.722C448.487 253.428 446.666 254.396 445.172 255.701C444.795 256.024 444.452 256.38 444.144 256.754C443.99 256.942 443.813 257.109 443.674 257.313L443.255 257.925L443.043 258.23L442.864 258.561L442.501 259.222C442.285 259.68 442.081 260.148 441.895 260.624C441.2 262.555 440.849 264.65 440.825 266.736C440.792 268.819 441.157 270.914 441.913 272.713C442.14 273.128 442.331 273.58 442.612 273.928L442.804 274.21C442.866 274.303 442.969 274.422 443.05 274.528L443.567 275.179L445.635 277.78L446.243 278.544L445.692 279.383C445.517 279.651 445.315 279.996 445.131 280.322C444.944 280.655 444.762 280.994 444.586 281.336C444.232 282.021 443.899 282.719 443.591 283.426C442.979 284.841 442.449 286.292 442.094 287.757C441.747 289.213 441.543 290.707 441.717 292.056C441.802 292.728 441.978 293.355 442.261 293.897C442.55 294.448 442.908 294.888 443.432 295.294C445.552 297.019 448.51 297.628 451.274 297.209C454.063 296.816 456.663 295.312 458.487 293.117C458.706 292.83 458.943 292.568 459.149 292.264C459.353 291.959 459.564 291.658 459.745 291.336C460.132 290.71 460.452 290.04 460.752 289.362C461.328 287.993 461.737 286.542 461.97 285.049C462.208 283.558 462.277 282.025 462.204 280.508C462.124 279.028 461.836 277.451 461.621 275.813C461.513 274.99 461.42 274.146 461.395 273.256C461.382 272.365 461.407 271.421 461.73 270.403C461.892 269.899 462.142 269.38 462.502 268.923C462.86 268.464 463.324 268.089 463.807 267.832C463.922 267.773 464.062 267.698 464.16 267.659L464.452 267.541L465.036 267.305C465.428 267.161 465.824 267.032 466.218 266.904C467.8 266.429 469.36 266.145 470.841 265.808C472.326 265.478 473.74 265.073 475.1 264.505C476.463 263.949 477.757 263.216 479.002 262.382C479.632 261.981 480.225 261.508 480.83 261.057C481.126 260.827 481.392 260.586 481.674 260.353C481.935 260.097 482.209 259.855 482.462 259.589C484.503 257.475 486.016 254.8 486.986 251.904C487.967 249.007 488.461 245.911 488.585 242.797C488.708 239.68 488.462 236.537 487.906 233.457C487.627 231.916 487.269 230.392 486.833 228.892L486.669 228.329C486.613 228.147 486.551 227.984 486.492 227.81C486.386 227.467 486.227 227.124 486.09 226.78C485.944 226.437 485.772 226.097 485.615 225.755L485.082 224.739C483.59 222.046 481.76 219.476 479.844 216.992C475.977 212.018 471.466 207.648 468.024 202.147C467.892 201.936 467.95 201.654 468.152 201.518C468.298 201.419 468.481 201.424 468.62 201.511C469.989 202.381 471.214 203.404 472.399 204.471C473.586 205.537 474.689 206.69 475.771 207.865C477.936 210.216 479.884 212.773 481.849 215.322C483.8 217.885 485.696 220.511 487.305 223.42L487.887 224.53C488.066 224.917 488.255 225.291 488.423 225.686C488.585 226.088 488.762 226.475 488.897 226.9C488.968 227.107 489.046 227.321 489.108 227.523L489.282 228.12C489.744 229.712 490.124 231.33 490.42 232.963C491.01 236.231 491.272 239.568 491.141 242.907C491.007 246.243 490.48 249.591 489.397 252.793C488.326 255.989 486.627 259.034 484.261 261.484C483.967 261.791 483.65 262.075 483.346 262.369C483.023 262.64 482.7 262.928 482.374 263.181C481.719 263.672 481.079 264.18 480.385 264.624C479.022 265.538 477.576 266.355 476.047 266.98C474.525 267.616 472.935 268.067 471.386 268.411C469.836 268.762 468.334 269.039 466.933 269.462C466.587 269.575 466.242 269.688 465.903 269.812L465.403 270.014L465.153 270.115C465.069 270.149 465.039 270.173 464.978 270.2C464.57 270.424 464.332 270.723 464.155 271.251C463.981 271.771 463.937 272.469 463.952 273.186C463.972 273.912 464.053 274.674 464.156 275.452C464.356 277.012 464.659 278.617 464.759 280.365C464.84 282.073 464.764 283.785 464.495 285.482C463.966 288.873 462.638 292.185 460.422 294.86C458.194 297.545 455.015 299.368 451.641 299.845C449.958 300.096 448.23 300.047 446.552 299.655C444.878 299.265 443.248 298.525 441.854 297.392L441.589 297.187L441.325 296.933C441.148 296.764 440.974 296.593 440.824 296.394C440.669 296.202 440.507 296.014 440.382 295.799C440.25 295.589 440.107 295.385 440.006 295.159C439.55 294.279 439.295 293.327 439.179 292.4C438.949 290.532 439.222 288.77 439.613 287.102C440.019 285.434 440.599 283.854 441.26 282.325C441.593 281.561 441.95 280.812 442.331 280.074C442.521 279.706 442.718 279.339 442.923 278.975C443.133 278.606 443.332 278.258 443.594 277.859L443.651 279.462L441.603 276.884L441.09 276.24C441.003 276.127 440.924 276.038 440.829 275.904L440.549 275.505C440.146 274.98 439.89 274.404 439.595 273.84C439.377 273.259 439.113 272.684 438.971 272.09C438.891 271.794 438.798 271.5 438.731 271.203L438.559 270.309C438.494 270.012 438.456 269.713 438.426 269.413L438.324 268.515C438.302 267.917 438.253 267.316 438.268 266.718C438.295 264.326 438.69 261.941 439.507 259.673C439.727 259.113 439.958 258.553 440.213 258.005L440.641 257.2L440.857 256.799L441.111 256.417L441.623 255.657C441.795 255.403 442.012 255.181 442.205 254.943C442.408 254.714 442.598 254.465 442.812 254.253C443.023 254.036 443.243 253.83 443.463 253.628C445.248 252.015 447.296 250.857 449.441 250.033C450.516 249.621 451.621 249.293 452.743 249.064C453.867 248.845 455.004 248.702 456.144 248.653C458.421 248.584 460.71 248.825 462.876 249.506C463.421 249.656 463.949 249.868 464.476 250.068C464.981 250.27 465.481 250.483 465.98 250.702C466.978 251.134 467.971 251.588 468.948 252.096C469.161 252.207 469.248 252.477 469.141 252.7C469.057 252.876 468.876 252.969 468.7 252.946L468.697 252.942Z" fill="#371A45"/>
<g opacity="0.35">
<path d="M489.238 236.017C489.167 237.176 488.96 238.318 488.589 239.436C485.611 248.405 475.171 253.709 467.096 253.709C462.237 253.709 459.113 252.857 456.723 250.017C456.301 249.514 455.901 248.948 455.518 248.312C452.71 243.658 454.126 237.475 460.072 234.575C460.555 234.339 461.604 234.213 461.604 234.213L459.947 230.843L459.394 229.715C459.394 229.715 460.181 229.901 461.297 230.151C463.805 230.717 467.969 231.606 468.57 231.426C469.36 231.19 470.374 230.7 471.247 229.801C472.389 228.629 473.291 226.758 473.144 223.849L474.749 220.675L470.648 206.446L469.424 205.157C469.424 205.157 473.249 208.2 477.538 212.815C481.738 217.326 486.382 223.342 488.329 229.481C488.329 229.491 488.333 229.501 488.339 229.514C488.7 230.663 488.969 231.818 489.119 232.97C489.257 233.989 489.299 235.007 489.238 236.016V236.017Z" fill="#371A45"/>
</g>
<path d="M488.918 232.687C488.848 233.846 488.64 234.988 488.269 236.106C485.291 245.075 474.852 250.379 466.776 250.379C461.054 250.379 457.741 249.197 455.198 244.982C452.39 240.328 453.807 234.145 459.752 231.246C460.235 231.009 461.284 230.883 461.284 230.883L459.628 227.513L459.074 226.385C459.074 226.385 459.861 226.571 460.977 226.821C463.485 227.387 467.649 228.276 468.25 228.096C470.07 227.55 473.086 225.659 472.824 220.519L472.216 217.459L469.315 202.88L469.104 201.828C469.104 201.828 472.929 204.871 477.218 209.485C482.911 215.605 489.423 224.487 488.918 232.687Z" fill="white"/>
<g opacity="0.35">
<path d="M488.918 232.688C488.848 233.847 488.64 234.989 488.269 236.107C485.291 245.076 474.852 250.38 466.776 250.38C461.054 250.38 457.741 249.198 455.198 244.983C454.472 243.781 454.03 242.476 453.874 241.151C456.292 244.251 459.464 245.17 464.505 245.17C472.581 245.17 483.02 239.866 485.998 230.897C486.369 229.778 486.577 228.636 486.647 227.478C486.782 225.314 486.427 223.103 485.726 220.909C487.815 224.744 489.158 228.793 488.918 232.688V232.688Z" fill="#371A45"/>
</g>
<path d="M469.365 201.474C470.359 201.908 471.256 202.461 472.127 203.058C473.003 203.648 473.826 204.308 474.623 204.998C476.205 206.393 477.709 207.889 479.11 209.488C480.508 211.091 481.839 212.76 483.111 214.485C484.376 216.215 485.584 218.004 486.642 219.909C487.699 221.81 488.625 223.821 489.283 225.967C489.937 228.106 490.318 230.401 490.182 232.73C490.176 233.313 490.072 233.891 489.981 234.469C489.918 235.053 489.719 235.609 489.578 236.176C489.537 236.316 489.506 236.462 489.456 236.597L489.3 236.997L488.987 237.796C488.799 238.34 488.509 238.829 488.254 239.337C487.185 241.342 485.774 243.111 484.176 244.626C482.58 246.149 480.784 247.409 478.885 248.435C476.986 249.463 474.984 250.271 472.912 250.837C470.845 251.402 468.688 251.721 466.524 251.706C465.473 251.706 464.404 251.649 463.326 251.523C462.249 251.393 461.152 251.179 460.071 250.795C458.991 250.415 457.934 249.846 457.011 249.103C456.085 248.362 455.301 247.467 454.648 246.52C454.009 245.601 453.428 244.496 453.058 243.354C452.67 242.207 452.51 240.974 452.547 239.753C452.592 238.534 452.816 237.307 453.284 236.186C453.744 235.064 454.376 234.027 455.143 233.127C455.337 232.904 455.547 232.701 455.75 232.487C455.853 232.383 455.953 232.274 456.06 232.175L456.392 231.895C456.616 231.712 456.833 231.514 457.065 231.345L457.775 230.861C458.008 230.69 458.259 230.561 458.507 230.424L458.88 230.22L459.066 230.119L459.16 230.068L459.206 230.043L459.284 230.007C459.7 229.828 459.975 229.775 460.273 229.707C460.568 229.645 460.829 229.601 461.135 229.56L460.146 231.489L457.936 226.992L456.694 224.462L459.36 225.086C460.864 225.439 462.383 225.781 463.893 226.095C464.648 226.254 465.404 226.402 466.151 226.536C466.526 226.603 466.895 226.656 467.259 226.706C467.428 226.719 467.618 226.743 467.769 226.749L467.976 226.755H468.002C468.006 226.755 467.993 226.754 467.989 226.754C467.977 226.752 467.964 226.752 467.952 226.754C467.93 226.755 467.898 226.769 467.887 226.779C468.465 226.573 469.023 226.258 469.495 225.868C469.979 225.487 470.386 225.032 470.744 224.514C471.09 223.987 471.381 223.394 471.648 222.732C471.928 222.07 472.109 221.336 472.399 220.544L472.414 220.501C472.502 220.261 472.761 220.139 472.992 220.231C473.114 220.279 473.205 220.379 473.25 220.497C473.405 220.911 473.552 221.338 473.612 221.783C473.641 222.005 473.681 222.23 473.699 222.458C473.707 222.686 473.708 222.917 473.706 223.148C473.667 224.073 473.44 225.029 472.993 225.899C472.563 226.778 471.912 227.551 471.157 228.149C470.395 228.748 469.531 229.156 468.618 229.415C468.511 229.438 468.381 229.457 468.263 229.469L468.081 229.482L467.995 229.484L467.948 229.481L467.572 229.454C467.335 229.43 467.14 229.395 466.921 229.366C466.514 229.303 466.114 229.235 465.722 229.162C464.936 229.022 464.161 228.869 463.391 228.707C461.849 228.386 460.325 228.043 458.791 227.683L460.214 225.779L462.424 230.277L463.254 231.967L461.435 232.205C461.235 232.231 460.991 232.272 460.785 232.316C460.585 232.357 460.358 232.423 460.303 232.45L459.721 232.769C459.517 232.88 459.309 232.984 459.125 233.123L458.554 233.512C458.367 233.647 458.201 233.804 458.024 233.948L457.76 234.168C457.677 234.245 457.601 234.331 457.521 234.412C457.365 234.577 457.198 234.734 457.05 234.904C456.462 235.597 455.993 236.377 455.648 237.208C455.296 238.039 455.141 238.942 455.105 239.839C455.078 240.738 455.19 241.65 455.484 242.509C455.774 243.378 456.173 244.164 456.727 244.97C457.8 246.54 459.184 247.686 460.9 248.277C468.199 250.407 476.727 247.977 482.459 242.654C483.877 241.308 485.103 239.762 486.016 238.048C486.233 237.615 486.488 237.198 486.642 236.736L486.907 236.059L487.041 235.721C487.084 235.608 487.105 235.492 487.138 235.378C487.247 234.916 487.42 234.472 487.465 233.993C487.536 233.522 487.628 233.053 487.629 232.569C487.742 230.65 487.428 228.682 486.845 226.778C486.261 224.87 485.416 223.021 484.428 221.247C482.448 217.692 479.907 214.429 477.109 211.441C475.719 209.936 474.312 208.443 472.896 206.952C472.187 206.206 471.493 205.443 470.815 204.652C470.136 203.867 469.466 203.054 468.848 202.183L468.841 202.174C468.696 201.97 468.738 201.683 468.934 201.532C469.063 201.433 469.228 201.418 469.366 201.478L469.365 201.474Z" fill="#371A45"/>
<path d="M415.809 212.889C451.365 247.735 499.606 198.074 469.033 160.874C433.449 124.305 383.63 175.688 415.809 212.889V212.889Z" fill="white"/>
<path d="M415.809 212.889C451.365 247.735 499.606 198.074 469.033 160.874C433.449 124.305 383.63 175.688 415.809 212.889V212.889Z" fill="white"/>
<g opacity="0.35">
<path d="M477.219 209.486C476.983 209.995 476.733 210.498 476.471 210.994C475.271 213.295 473.842 215.462 472.217 217.459C469.099 221.301 465.267 224.511 460.978 226.821C460.533 227.061 460.086 227.294 459.632 227.514L457.485 223.146C447.657 224.91 440.531 226.721 435.519 228.26C435.686 224.531 435.638 220.419 435.196 216.094L468.318 201.825C468.318 201.825 468.334 201.842 468.366 201.875C468.382 201.892 468.401 201.912 468.427 201.938L468.504 202.018C468.532 202.052 468.564 202.085 468.603 202.122C468.772 202.301 469.012 202.554 469.316 202.881L469.105 201.829C469.105 201.829 472.93 204.871 477.219 209.486V209.486Z" fill="#371A45"/>
</g>
<path d="M415.809 212.889C451.365 247.735 499.606 198.074 469.033 160.874C433.449 124.305 383.63 175.688 415.809 212.889V212.889Z" fill="white"/>
<path d="M442.214 225.666C432.59 225.666 423.27 221.504 415.184 213.581L415.131 213.525C407.458 204.654 403.831 194.359 404.644 183.754C405.369 174.292 409.583 165.288 416.511 158.401C423.425 151.528 432.211 147.618 441.251 147.392C451.436 147.135 461.273 151.567 469.674 160.2L469.726 160.258C477.027 169.142 480.413 179.35 479.516 189.78C478.713 199.107 474.522 207.964 467.715 214.721C460.924 221.461 452.275 225.341 443.36 225.648C442.978 225.661 442.595 225.668 442.214 225.668V225.666ZM416.462 212.225C434.245 229.629 454.381 225.33 466.456 213.345C478.253 201.635 483.877 180.428 468.365 161.522C450.664 143.357 429.733 147.879 417.771 159.773C405.689 171.784 400.13 193.316 416.462 212.224V212.225Z" fill="#371A45"/>
<g opacity="0.35">
<path d="M415.809 212.889C446.016 243.543 491.664 208.908 475.145 170.363C476.394 184.066 472.218 185.873 467.446 194.46C453.185 222.221 417.041 215.693 405.805 190.597C406.676 199.105 410.288 206.911 415.809 212.89V212.889Z" fill="#371A45"/>
</g>
<path d="M442.213 226.048C432.495 226.048 423.087 221.851 414.933 213.859L414.859 213.781C407.116 204.83 403.458 194.436 404.279 183.723C405.011 174.168 409.266 165.076 416.258 158.125C423.238 151.186 432.111 147.238 441.243 147.01C451.541 146.761 461.459 151.22 469.933 159.927L470.006 160.01C477.374 168.974 480.789 179.28 479.882 189.813C479.072 199.234 474.841 208.177 467.97 214.997C461.113 221.802 452.378 225.72 443.373 226.028C442.986 226.042 442.599 226.048 442.214 226.048H442.213ZM416.725 211.958C434.329 229.176 454.256 224.927 466.203 213.069C477.877 201.483 483.443 180.497 468.096 161.784C450.573 143.813 429.861 148.283 418.024 160.051C406.07 171.935 400.571 193.243 416.725 211.958V211.958Z" fill="#293856"/>
<path d="M442.213 226.048C432.495 226.048 423.087 221.851 414.933 213.859L414.859 213.781C407.116 204.83 403.458 194.436 404.279 183.723C405.011 174.168 409.266 165.076 416.258 158.125C423.238 151.186 432.111 147.238 441.243 147.01C451.541 146.761 461.459 151.22 469.933 159.927L470.006 160.01C477.374 168.974 480.789 179.28 479.882 189.813C479.072 199.234 474.841 208.177 467.97 214.997C461.113 221.802 452.378 225.72 443.373 226.028C442.986 226.042 442.599 226.048 442.214 226.048H442.213ZM416.725 211.958C434.329 229.176 454.256 224.927 466.203 213.069C477.877 201.483 483.443 180.497 468.096 161.784C450.573 143.813 429.861 148.283 418.024 160.051C406.07 171.935 400.571 193.243 416.725 211.958V211.958Z" fill="#371A45"/>
<path d="M423.103 218.986C463.92 232.652 485.018 181.717 452.195 162.753C414.192 143.837 386.924 193.631 423.103 218.986Z" fill="#371A46"/>
<g opacity="0.35">
<path d="M459.751 168.563C470.625 190.934 450.515 222.131 417.506 211.08C414.582 209.031 412.075 206.822 409.952 204.502C412.697 209.728 416.994 214.706 423.103 218.987C460.257 231.426 481.069 190.341 459.751 168.563V168.563Z" fill="#111A28"/>
</g>
<path d="M440.057 225.381C439.715 225.381 439.376 225.375 439.034 225.363C430.527 225.058 422.253 221.001 415.107 213.629L415.101 213.623C403.362 201.328 399.789 177.63 413.181 161.949L413.304 161.828C421.02 155.41 431.464 152.646 441.957 154.243C452.414 155.835 461.612 161.556 467.193 169.937C472.396 178.196 474.243 187.363 472.549 196.467C471.013 204.721 466.666 212.244 460.306 217.654C454.423 222.659 447.269 225.381 440.058 225.381H440.057ZM416.516 212.154C432.227 228.358 449.243 224.377 459.041 216.043C470.302 206.463 476.149 187.95 465.536 171.1C460.284 163.213 451.579 157.811 441.667 156.301C431.751 154.791 421.896 157.377 414.618 163.398C402.039 178.204 405.434 200.545 416.516 212.154Z" fill="#371A45"/>
<path d="M436.447 222.613C432.026 222.613 427.412 221.828 422.711 220.255L422.539 220.197L422.388 220.092C413.631 213.955 407.877 205.948 405.744 196.936C403.834 188.861 404.962 180.443 408.922 173.233C412.792 166.186 418.985 161.008 426.362 158.653C434.558 156.037 443.681 157.039 452.747 161.552L452.816 161.589C460.545 166.054 465.884 172.549 468.256 180.369C470.404 187.451 469.961 195.253 467.011 202.338C463.817 210.008 458.023 216.116 450.693 219.537C446.302 221.586 441.5 222.613 436.447 222.613ZM423.668 217.776C444.387 224.629 459.181 214.447 464.663 201.279C469.638 189.332 467.527 173.156 451.609 163.938C432.81 154.601 417.742 162.538 411.144 174.555C404.364 186.901 405.62 205.033 423.668 217.776Z" fill="#371A45"/>
<path d="M484.132 184.666C485.611 202.524 468.541 205.57 465.478 188.669C463.268 170.012 481.515 166.753 484.132 184.666V184.666Z" fill="white"/>
<g opacity="0.35">
<path d="M476.34 199.792C471.229 200.744 466.109 195.236 465.362 187.773C470.254 194.584 475.079 180.176 474.804 176.454C488.532 176.675 485.761 198.252 476.339 199.792H476.34Z" fill="#371A45"/>
</g>
<path d="M475.139 201.167C470.638 201.167 465.78 197.518 464.22 188.916L464.208 188.832C462.986 178.521 467.8 172.344 473.187 171.572C478.055 170.874 483.956 174.611 485.396 184.465L485.405 184.551C486.263 194.897 481.292 200.373 476.31 201.084C475.924 201.139 475.532 201.167 475.138 201.167H475.139ZM466.742 188.464C468.134 196.068 472.371 198.957 475.963 198.446C479.777 197.901 483.557 193.408 482.86 184.823C481.671 176.785 477.198 173.685 473.536 174.21C469.398 174.803 465.74 179.889 466.741 188.464L466.742 188.464Z" fill="#371A45"/>
<path d="M485.001 185.467C486.186 199.94 473.435 202.447 470.955 188.778C469.076 173.497 482.935 170.79 485.001 185.467V185.467Z" fill="white"/>
<path d="M478.316 199.12C474.812 199.12 470.983 196.108 469.698 189.026L469.686 188.947C468.62 180.275 472.394 175.118 476.675 174.507C480.49 173.959 485.117 177.099 486.267 185.274L486.276 185.354C486.981 193.975 483.088 198.502 479.172 199.059C478.89 199.099 478.604 199.12 478.315 199.12H478.316ZM472.219 188.57C473.304 194.487 476.316 196.777 478.826 196.421C481.663 196.017 484.255 192.179 483.73 185.622C482.824 179.27 479.62 176.776 477.023 177.146C473.996 177.579 471.379 181.641 472.219 188.57Z" fill="#371A45"/>
<g opacity="0.7">
<path d="M460.533 181.946C460.231 189.485 451.994 189.261 451.199 182.697C450.646 174.361 460.359 174.463 460.533 181.946Z" fill="white"/>
</g>
<g opacity="0.7">
<path d="M458.945 194.059C458.67 196.935 455.066 196.909 455.087 193.755C455.362 190.878 458.966 190.904 458.945 194.059Z" fill="white"/>
</g>
<g opacity="0.7">
<path d="M412.218 197.335C401.214 170.875 427.862 160.256 437.58 163.983C420.255 169.752 415.127 183.075 412.218 197.335Z" fill="white"/>
</g>
<g opacity="0.35">
<path d="M471.025 192.111C470.319 190.205 470.113 188.09 470.338 186.051C474.948 194.87 483.081 188.384 483.601 181.079C488.897 194.511 476.814 204.504 471.025 192.111V192.111Z" fill="#371A45"/>
</g>
<path d="M463.54 178.402C463.37 178.402 463.214 178.381 463.072 178.348C461.341 177.953 460.633 175.508 460.457 174.768C460.288 174.054 460.707 173.332 461.393 173.155C462.077 172.979 462.771 173.414 462.941 174.126C463.076 174.685 463.354 175.335 463.57 175.635C463.625 175.581 463.695 175.503 463.778 175.394C464.219 174.819 465.025 174.726 465.576 175.185C466.128 175.645 466.218 176.482 465.777 177.057C464.966 178.114 464.167 178.402 463.539 178.402H463.54Z" fill="#371A45"/>
<g opacity="0.35">
<path d="M434.399 258.793L425.245 255.377L421.542 249.671L419.271 246.175L413.434 237.193C413.389 236.717 413.351 236.227 413.325 235.718C413.325 235.718 418.628 236.953 422.041 242.197C423.627 244.637 423.924 247.367 423.253 248.765C425.805 251.791 427.563 255.797 434.316 258.63L434.399 258.793Z" fill="#371A45"/>
</g>
<path d="M410.707 232.386C410.707 232.386 416.011 233.622 419.423 238.867C421.641 242.277 421.339 246.264 419.396 246.368C417.453 246.472 411.277 243.576 410.707 232.386Z" fill="white"/>
<g opacity="0.35">
<path d="M419.396 246.367C417.544 246.467 411.828 243.834 410.818 233.859C412.823 239.882 416.888 241.613 418.398 241.533C419.207 241.49 419.735 240.771 419.907 239.696C421.583 242.892 421.183 246.271 419.396 246.367V246.367Z" fill="#371A45"/>
</g>
<path d="M419.282 247.702C416.308 247.702 410.017 243.992 409.43 232.457L409.34 230.703L410.986 231.087C411.223 231.142 416.827 232.503 420.482 238.121C422.206 240.773 422.741 244.024 421.782 246.029C421.299 247.037 420.454 247.645 419.461 247.698C419.403 247.702 419.342 247.703 419.281 247.703L419.282 247.702ZM412.159 234.327C413.257 243.132 418.225 245.039 419.289 245.039C419.304 245.039 419.317 245.039 419.331 245.039C419.392 245.036 419.458 244.914 419.493 244.843C419.882 244.031 419.791 241.809 418.364 239.615C416.451 236.673 413.855 235.099 412.159 234.328V234.327Z" fill="#371A45"/>
<path d="M485.276 242.536C485.137 242.536 484.995 242.504 484.862 242.437C484.384 242.198 484.182 241.603 484.412 241.105C486.457 236.665 483.538 232.983 481.615 231.184C477.93 227.734 472.993 226.393 471.206 227.541C470.754 227.831 470.164 227.685 469.885 227.216C469.606 226.746 469.746 226.131 470.197 225.841C473.241 223.886 479.222 226.256 482.899 229.699C486.849 233.397 488.03 237.869 486.142 241.969C485.977 242.327 485.633 242.536 485.276 242.536V242.536Z" fill="#371A45"/>
<path d="M462.71 272.996C462.658 272.996 462.605 272.992 462.552 272.983C462.029 272.893 461.675 272.377 461.762 271.834C463.29 262.232 458.984 257.864 456.281 256.116C452.548 253.699 447.555 253.505 444.67 255.66C444.24 255.982 443.64 255.88 443.33 255.431C443.022 254.984 443.12 254.359 443.55 254.038C447.088 251.395 452.868 251.555 457.294 254.419C462.585 257.843 464.904 264.309 463.655 272.16C463.578 272.649 463.171 272.996 462.71 272.996V272.996Z" fill="#371A45"/>
<path d="M444.398 276.757C444.718 276.96 445.108 277.221 445.472 277.443C445.842 277.673 446.218 277.894 446.598 278.101C447.362 278.509 448.142 278.88 448.96 279.133C449.779 279.398 450.629 279.496 451.5 279.48L452.159 279.442L452.815 279.315C452.925 279.292 453.04 279.277 453.15 279.248L453.475 279.141L454.145 278.93L454.163 278.924C454.236 278.902 454.313 278.944 454.334 279.02C454.351 279.078 454.33 279.139 454.288 279.174C454.099 279.328 453.907 279.485 453.708 279.637L453.408 279.866C453.304 279.934 453.192 279.988 453.082 280.049C452.862 280.17 452.638 280.291 452.409 280.403L451.689 280.654C450.711 280.933 449.655 281.042 448.634 280.903C447.613 280.774 446.609 280.495 445.685 280.049C445.454 279.94 445.223 279.826 445.005 279.693C444.782 279.567 444.563 279.434 444.355 279.284C443.923 278.989 443.544 278.687 443.14 278.268C442.765 277.879 442.764 277.246 443.139 276.855C443.458 276.521 443.948 276.472 444.318 276.708L444.396 276.758L444.398 276.757Z" fill="#371A45"/>
<path d="M424.059 272.957C424.059 272.942 424.095 272.993 424.117 273.017L424.203 273.116C424.255 273.186 424.328 273.254 424.389 273.324C424.52 273.463 424.654 273.603 424.804 273.732C425.091 274.001 425.42 274.232 425.753 274.459C426.434 274.895 427.207 275.244 428.038 275.486C428.866 275.752 429.757 275.857 430.663 275.96L432.046 276.029C432.51 276.02 432.98 276.02 433.459 276.032H433.469C433.546 276.035 433.606 276.1 433.604 276.18C433.603 276.241 433.566 276.292 433.515 276.312C433.066 276.487 432.609 276.652 432.145 276.807C431.677 276.938 431.199 277.041 430.717 277.149C429.745 277.287 428.741 277.39 427.72 277.256C426.705 277.143 425.659 276.886 424.71 276.335C424.24 276.056 423.781 275.74 423.386 275.331C423.179 275.141 423 274.913 422.823 274.682C422.738 274.561 422.655 274.445 422.578 274.31C422.538 274.243 422.502 274.183 422.464 274.106C422.425 274.026 422.397 273.975 422.343 273.851C422.105 273.358 422.296 272.759 422.771 272.511C423.244 272.263 423.82 272.462 424.059 272.956V272.957Z" fill="#371A45"/>
</svg>
