<svg width="218" height="272" viewBox="0 0 218 272" fill="none" xmlns="http://www.w3.org/2000/svg">
<path style="mix-blend-mode:screen" d="M182.724 165.806C180.877 163.859 178.494 162.502 175.875 161.906C173.256 161.31 170.519 161.503 168.009 162.46C165.5 163.416 163.331 165.094 161.777 167.28C160.223 169.467 159.353 172.064 159.277 174.744C159.201 177.424 159.923 180.066 161.351 182.336C162.78 184.607 164.85 186.404 167.302 187.5C169.753 188.596 172.475 188.943 175.123 188.495C177.772 188.048 180.228 186.827 182.181 184.987C184.797 182.512 186.323 179.104 186.424 175.508C186.526 171.913 185.195 168.424 182.724 165.806Z" fill="url(#paint0_radial_643_26)"/>
<path style="mix-blend-mode:screen" d="M174.711 176.749C165.945 186.039 158.083 192.834 157.119 191.932C156.155 191.03 162.481 182.912 171.216 173.472C179.952 164.032 187.874 157.358 188.838 158.259C189.802 159.161 183.356 167.429 174.711 176.749Z" fill="url(#paint1_radial_643_26)"/>
<path style="mix-blend-mode:screen" d="M189.772 174.042C189.772 173.08 182.181 172.749 172.903 173.29C163.626 173.832 156.155 175.064 156.215 176.026C156.276 176.988 163.836 177.289 173.084 176.748C182.332 176.207 189.772 174.974 189.772 174.042Z" fill="url(#paint2_radial_643_26)"/>
<path style="mix-blend-mode:screen" d="M174.982 192.05C175.735 192.05 175.373 184.263 174.198 174.853C173.024 165.443 171.457 157.867 170.704 157.987C169.951 158.107 170.313 165.774 171.487 175.184C172.662 184.594 174.229 192.14 174.982 192.05Z" fill="url(#paint3_radial_643_26)"/>
<path style="mix-blend-mode:screen" d="M177.723 175.003C177.729 175.956 177.451 176.889 176.926 177.684C176.4 178.479 175.649 179.1 174.769 179.469C173.889 179.837 172.919 179.937 171.982 179.755C171.045 179.572 170.183 179.117 169.506 178.445C168.829 177.774 168.367 176.917 168.179 175.983C167.99 175.049 168.084 174.08 168.448 173.199C168.812 172.319 169.429 171.566 170.223 171.036C171.016 170.506 171.949 170.223 172.903 170.223C174.177 170.223 175.398 170.725 176.301 171.621C177.204 172.517 177.715 173.732 177.723 175.003Z" fill="url(#paint4_radial_643_26)"/>
<path style="mix-blend-mode:screen" d="M140.672 84.5424C138.829 82.5925 136.447 81.2318 133.829 80.6322C131.211 80.0326 128.474 80.2211 125.963 81.1737C123.452 82.1264 121.281 83.8005 119.723 85.9846C118.166 88.1686 117.292 90.7645 117.212 93.4442C117.132 96.1239 117.849 98.7671 119.274 101.04C120.699 103.312 122.767 105.113 125.216 106.213C127.666 107.313 130.387 107.664 133.036 107.22C135.685 106.777 138.143 105.561 140.1 103.724C142.719 101.253 144.25 97.8466 144.358 94.2511C144.465 90.6555 143.14 87.1642 140.672 84.5424Z" fill="url(#paint5_radial_643_26)"/>
<path style="mix-blend-mode:screen" d="M132.539 95.4878C123.773 104.778 115.911 111.602 114.947 110.7C113.983 109.799 120.309 101.681 129.075 92.2408C137.84 82.8006 145.702 76.1263 146.666 77.0282C147.63 77.9301 141.274 86.1979 132.539 95.4878Z" fill="url(#paint6_radial_643_26)"/>
<path style="mix-blend-mode:screen" d="M147.6 92.7793C147.6 91.8172 139.979 91.4865 130.701 92.0277C121.424 92.5689 113.953 93.8015 114.013 94.7636C114.074 95.7256 121.635 96.0563 130.912 95.5152C140.19 94.974 147.6 93.7414 147.6 92.7793Z" fill="url(#paint7_radial_643_26)"/>
<path style="mix-blend-mode:screen" d="M132.9 110.817C133.684 110.817 133.322 103 132.147 93.5898C130.973 84.1796 129.406 76.6334 128.653 76.7236C127.9 76.8138 128.231 84.5103 129.406 93.9505C130.581 103.391 132.177 110.907 132.9 110.817Z" fill="url(#paint8_radial_643_26)"/>
<path style="mix-blend-mode:screen" d="M135.552 93.7705C135.552 94.7232 135.268 95.6544 134.737 96.4461C134.206 97.2378 133.452 97.8543 132.569 98.2175C131.687 98.5807 130.716 98.6741 129.781 98.4861C128.845 98.298 127.986 97.8369 127.313 97.1611C126.64 96.4854 126.184 95.6255 126.001 94.6904C125.819 93.7553 125.918 92.7872 126.288 91.9088C126.657 91.0303 127.28 90.2812 128.076 89.7562C128.873 89.2313 129.808 88.9542 130.762 88.9602C131.394 88.9602 132.019 89.0848 132.602 89.3269C133.185 89.569 133.714 89.9238 134.159 90.3709C134.605 90.818 134.957 91.3485 135.196 91.932C135.435 92.5154 135.556 93.1402 135.552 93.7705Z" fill="url(#paint9_radial_643_26)"/>
<path style="mix-blend-mode:screen" d="M54.4614 245.203C52.6169 243.252 50.2338 241.89 47.6138 241.291C44.9938 240.692 42.2545 240.882 39.7427 241.837C37.2309 242.792 35.0594 244.47 33.5031 246.657C31.9467 248.844 31.0755 251.443 30.9996 254.125C30.9236 256.806 31.6465 259.45 33.0766 261.722C34.5067 263.993 36.5798 265.79 39.0335 266.886C41.4873 267.981 44.2114 268.325 46.8612 267.874C49.5109 267.424 51.9672 266.199 53.9192 264.354C56.5327 261.885 58.0577 258.481 58.1594 254.891C58.261 251.3 56.9311 247.816 54.4614 245.203Z" fill="url(#paint10_radial_643_26)"/>
<path style="mix-blend-mode:screen" d="M61.3594 253.414C61.3594 252.452 53.7685 252.122 44.4907 252.693C35.2129 253.264 27.7425 254.437 27.8028 255.399C27.863 256.361 35.4238 256.691 44.6715 256.15C53.9191 255.609 61.4197 254.377 61.3594 253.414Z" fill="url(#paint11_radial_643_26)"/>
<path style="mix-blend-mode:screen" d="M46.7198 271.449C47.4729 271.449 47.1114 263.662 45.9367 254.222C44.7619 244.782 43.1955 237.266 42.4424 237.356C41.6894 237.446 42.0508 245.173 43.2256 254.583C44.4004 263.993 45.9668 271.539 46.7198 271.449Z" fill="url(#paint12_radial_643_26)"/>
<path style="mix-blend-mode:screen" d="M49.4006 254.404C49.3887 255.353 49.096 256.277 48.5593 257.06C48.0225 257.843 47.2657 258.45 46.384 258.805C45.5024 259.16 44.5353 259.247 43.6044 259.054C42.6734 258.862 41.8203 258.399 41.1523 257.724C40.4843 257.049 40.0312 256.192 39.85 255.26C39.6689 254.329 39.7678 253.365 40.1343 252.49C40.5008 251.614 41.1185 250.866 41.9097 250.34C42.701 249.814 43.6304 249.534 44.581 249.534C45.219 249.534 45.8507 249.66 46.4394 249.905C47.0281 250.151 47.5621 250.511 48.0105 250.964C48.4588 251.417 48.8126 251.954 49.0512 252.545C49.2898 253.135 49.4086 253.767 49.4006 254.404Z" fill="url(#paint13_radial_643_26)"/>
<path style="mix-blend-mode:screen" d="M189.922 189.102C188.764 187.857 187.26 186.983 185.602 186.593C183.944 186.202 182.208 186.313 180.614 186.911C179.019 187.508 177.639 188.565 176.648 189.948C175.657 191.331 175.101 192.976 175.05 194.675C174.999 196.374 175.455 198.05 176.361 199.49C177.267 200.929 178.581 202.067 180.137 202.759C181.693 203.451 183.42 203.665 185.098 203.375C186.776 203.084 188.329 202.302 189.561 201.128C191.185 199.569 192.132 197.437 192.2 195.189C192.268 192.941 191.45 190.756 189.922 189.102Z" fill="url(#paint14_radial_643_26)"/>
<path style="mix-blend-mode:screen" d="M186.76 194.939C186.76 195.736 186.443 196.501 185.878 197.065C185.313 197.629 184.547 197.946 183.748 197.946C182.949 197.946 182.183 197.629 181.618 197.065C181.053 196.501 180.735 195.736 180.735 194.939C180.735 194.142 181.053 193.377 181.618 192.813C182.183 192.249 182.949 191.933 183.748 191.933C184.547 191.933 185.313 192.249 185.878 192.813C186.443 193.377 186.76 194.142 186.76 194.939Z" fill="url(#paint15_radial_643_26)"/>
<path style="mix-blend-mode:screen" d="M215.105 141.092C213.948 139.856 212.449 138.992 210.798 138.608C209.148 138.224 207.421 138.337 205.835 138.935C204.25 139.532 202.878 140.586 201.893 141.962C200.909 143.339 200.356 144.976 200.305 146.667C200.254 148.357 200.708 150.025 201.608 151.458C202.508 152.891 203.814 154.025 205.361 154.716C206.908 155.407 208.625 155.624 210.296 155.339C211.966 155.055 213.514 154.281 214.744 153.117C216.368 151.558 217.315 149.426 217.383 147.178C217.45 144.93 216.633 142.745 215.105 141.092Z" fill="url(#paint16_radial_643_26)"/>
<path style="mix-blend-mode:screen" d="M211.882 146.893C211.882 147.488 211.706 148.069 211.375 148.563C211.044 149.058 210.573 149.443 210.023 149.671C209.473 149.898 208.867 149.958 208.283 149.842C207.698 149.726 207.161 149.439 206.74 149.019C206.319 148.599 206.032 148.063 205.916 147.48C205.8 146.896 205.859 146.292 206.087 145.743C206.315 145.193 206.701 144.724 207.197 144.393C207.692 144.063 208.274 143.887 208.87 143.887C209.669 143.887 210.435 144.203 211 144.767C211.565 145.331 211.882 146.096 211.882 146.893Z" fill="url(#paint17_radial_643_26)"/>
<path style="mix-blend-mode:screen" d="M189.923 132.911C188.766 131.676 187.267 130.811 185.616 130.427C183.966 130.043 182.239 130.157 180.653 130.754C179.068 131.351 177.696 132.405 176.711 133.782C175.726 135.158 175.174 136.796 175.123 138.486C175.072 140.177 175.526 141.845 176.426 143.278C177.326 144.711 178.632 145.845 180.179 146.536C181.725 147.227 183.443 147.444 185.113 147.159C186.784 146.874 188.332 146.101 189.562 144.937C191.193 143.382 192.145 141.248 192.213 138.998C192.28 136.748 191.458 134.561 189.923 132.911Z" fill="url(#paint18_radial_643_26)"/>
<path style="mix-blend-mode:screen" d="M186.76 138.72C186.76 139.315 186.583 139.896 186.252 140.391C185.921 140.885 185.451 141.271 184.9 141.498C184.35 141.726 183.744 141.785 183.16 141.669C182.576 141.553 182.039 141.267 181.618 140.846C181.196 140.426 180.91 139.89 180.793 139.307C180.677 138.724 180.737 138.119 180.965 137.57C181.193 137.021 181.579 136.551 182.074 136.221C182.57 135.89 183.152 135.714 183.748 135.714C184.547 135.714 185.313 136.031 185.878 136.595C186.443 137.158 186.76 137.923 186.76 138.72Z" fill="url(#paint19_radial_643_26)"/>
<path style="mix-blend-mode:screen" d="M186.971 84.5124C185.81 83.2796 184.309 82.4187 182.658 82.0387C181.006 81.6586 179.279 81.7767 177.695 82.3778C176.111 82.979 174.742 84.0362 173.761 85.4153C172.779 86.7943 172.231 88.4332 172.184 90.124C172.138 91.8147 172.595 93.4812 173.499 94.912C174.403 96.3428 175.712 97.4735 177.26 98.1607C178.809 98.8478 180.527 99.0604 182.197 98.7716C183.867 98.4827 185.413 97.7054 186.639 96.5382C188.273 94.983 189.225 92.8461 189.287 90.5934C189.349 88.3407 188.517 86.1548 186.971 84.5124Z" fill="url(#paint20_radial_643_26)"/>
<path style="mix-blend-mode:screen" d="M183.748 90.1954C183.748 90.79 183.571 91.3712 183.24 91.8657C182.909 92.3601 182.439 92.7454 181.888 92.973C181.338 93.2005 180.732 93.26 180.148 93.144C179.563 93.028 179.027 92.7417 178.605 92.3212C178.184 91.9008 177.897 91.3651 177.781 90.7819C177.665 90.1987 177.724 89.5942 177.952 89.0448C178.18 88.4955 178.566 88.0259 179.062 87.6956C179.557 87.3652 180.14 87.1889 180.735 87.1889C181.534 87.1889 182.3 87.5057 182.865 88.0695C183.43 88.6333 183.748 89.398 183.748 90.1954Z" fill="url(#paint21_radial_643_26)"/>
<path style="mix-blend-mode:screen" d="M61.0878 75.7913C59.5657 74.1838 57.6002 73.0628 55.4399 72.57C53.2796 72.0773 51.0213 72.2349 48.9508 73.0229C46.8802 73.811 45.0902 75.1941 43.8071 76.9974C42.524 78.8007 41.8055 80.9432 41.7423 83.1541C41.6791 85.365 42.2742 87.5449 43.4522 89.4182C44.6302 91.2916 46.3383 92.7743 48.3606 93.6788C50.3828 94.5834 52.6284 94.8692 54.8133 94.5001C56.9983 94.131 59.0245 93.1236 60.6359 91.6052C61.7063 90.5967 62.567 89.3875 63.169 88.0469C63.771 86.7062 64.1025 85.2603 64.1445 83.7917C64.1864 82.3232 63.9381 80.8607 63.4136 79.488C62.8891 78.1153 62.0988 76.8591 61.0878 75.7913Z" fill="url(#paint22_radial_643_26)"/>
<path style="mix-blend-mode:screen" d="M54.2201 84.6886C47.2618 92.0844 40.9661 97.5261 40.2131 96.7144C39.46 95.9026 44.4905 89.4087 51.4488 81.9828C58.4072 74.5568 64.7028 69.1753 65.486 69.957C66.2692 70.7386 61.2989 77.2927 54.2201 84.6886Z" fill="url(#paint23_radial_643_26)"/>
<path style="mix-blend-mode:screen" d="M66.7813 82.5865C66.7813 81.7747 60.5158 81.5042 52.8345 81.9551C45.1532 82.4061 39.1588 83.4283 39.1588 84.1799C39.1588 84.9315 45.4544 85.2322 53.1056 84.7812C60.7567 84.3302 66.8415 83.3682 66.7813 82.5865Z" fill="url(#paint24_radial_643_26)"/>
<path style="mix-blend-mode:screen" d="M54.7019 97.473C55.3345 97.473 55.0332 91.0092 54.0693 83.2525C53.1054 75.4959 51.78 69.2425 51.057 69.3327C50.3341 69.4229 50.7257 75.7665 51.6896 83.5231C52.6535 91.2797 54.2199 97.5332 54.7019 97.473Z" fill="url(#paint25_radial_643_26)"/>
<path style="mix-blend-mode:screen" d="M56.9009 83.3972C56.9009 84.4497 56.482 85.4591 55.7363 86.2033C54.9907 86.9476 53.9793 87.3657 52.9247 87.3657C51.8702 87.3657 50.8588 86.9476 50.1131 86.2033C49.3675 85.4591 48.9485 84.4497 48.9485 83.3972C48.9485 82.3447 49.3675 81.3353 50.1131 80.591C50.8588 79.8468 51.8702 79.4287 52.9247 79.4287C53.9793 79.4287 54.9907 79.8468 55.7363 80.591C56.482 81.3353 56.9009 82.3447 56.9009 83.3972Z" fill="url(#paint26_radial_643_26)"/>
<path style="mix-blend-mode:screen" d="M212.063 48.1022C210.905 46.8667 209.406 46.0021 207.756 45.6181C206.106 45.2341 204.378 45.3479 202.793 45.9451C201.207 46.5424 199.835 47.5961 198.851 48.9727C197.866 50.3494 197.313 51.9868 197.262 53.6774C197.212 55.368 197.665 57.0355 198.565 58.4686C199.465 59.9016 200.772 61.0356 202.318 61.7266C203.865 62.4176 205.583 62.6346 207.253 62.35C208.923 62.0654 210.472 61.292 211.701 60.128C213.339 58.5769 214.297 56.4422 214.364 54.1895C214.432 51.9367 213.605 49.7485 212.063 48.1022Z" fill="url(#paint27_radial_643_26)"/>
<path style="mix-blend-mode:screen" d="M208.87 54.1157C208.87 54.7103 208.694 55.2916 208.363 55.786C208.032 56.2804 207.561 56.6657 207.011 56.8933C206.46 57.1208 205.855 57.1804 205.27 57.0644C204.686 56.9484 204.149 56.662 203.728 56.2416C203.307 55.8211 203.02 55.2854 202.904 54.7022C202.787 54.119 202.847 53.5145 203.075 52.9652C203.303 52.4158 203.689 51.9463 204.185 51.6159C204.68 51.2856 205.262 51.1092 205.858 51.1092C206.657 51.1092 207.423 51.426 207.988 51.9898C208.553 52.5536 208.87 53.3183 208.87 54.1157Z" fill="url(#paint28_radial_643_26)"/>
<path style="mix-blend-mode:screen" d="M148.565 96.3591C147.656 95.4 146.483 94.7313 145.194 94.4374C143.905 94.1435 142.558 94.2376 141.322 94.7078C140.087 95.1781 139.019 96.0033 138.253 97.0793C137.487 98.1553 137.058 99.4336 137.021 100.753C136.983 102.072 137.337 103.373 138.04 104.491C138.743 105.609 139.762 106.494 140.968 107.034C142.175 107.574 143.515 107.745 144.818 107.525C146.122 107.305 147.332 106.705 148.294 105.799C149.577 104.58 150.326 102.903 150.377 101.135C150.428 99.3667 149.776 97.65 148.565 96.3591Z" fill="url(#paint29_radial_643_26)"/>
<path style="mix-blend-mode:screen" d="M146.064 100.894C146.064 101.365 145.923 101.826 145.661 102.217C145.398 102.608 145.024 102.912 144.588 103.091C144.151 103.27 143.671 103.315 143.209 103.221C142.746 103.127 142.322 102.898 141.991 102.563C141.659 102.228 141.435 101.802 141.347 101.339C141.258 100.876 141.31 100.398 141.494 99.9644C141.679 99.5309 141.989 99.1621 142.384 98.9048C142.779 98.6475 143.242 98.5133 143.714 98.5192C144.025 98.5192 144.333 98.5808 144.62 98.7005C144.907 98.8203 145.168 98.9957 145.386 99.2167C145.605 99.4376 145.777 99.6997 145.894 99.9877C146.01 100.276 146.068 100.584 146.064 100.894Z" fill="url(#paint30_radial_643_26)"/>
<path style="mix-blend-mode:screen" d="M116.935 102.011C116.03 101.058 114.863 100.394 113.58 100.102C112.297 99.811 110.957 99.9057 109.728 100.374C108.499 100.843 107.436 101.664 106.675 102.735C105.913 103.806 105.487 105.078 105.449 106.39C105.411 107.703 105.764 108.997 106.462 110.109C107.161 111.222 108.174 112.103 109.374 112.641C110.574 113.18 111.907 113.351 113.205 113.134C114.502 112.917 115.706 112.32 116.664 111.421C117.306 110.824 117.823 110.105 118.184 109.307C118.546 108.509 118.745 107.648 118.77 106.772C118.796 105.897 118.646 105.025 118.331 104.208C118.016 103.39 117.542 102.644 116.935 102.011Z" fill="url(#paint31_radial_643_26)"/>
<path style="mix-blend-mode:screen" d="M114.465 106.549C114.465 107.019 114.326 107.478 114.064 107.869C113.803 108.259 113.431 108.564 112.996 108.744C112.561 108.923 112.083 108.97 111.621 108.879C111.16 108.787 110.736 108.561 110.403 108.229C110.07 107.897 109.843 107.473 109.752 107.013C109.66 106.552 109.707 106.074 109.887 105.64C110.067 105.206 110.372 104.836 110.763 104.575C111.155 104.314 111.615 104.174 112.085 104.174C112.717 104.174 113.322 104.424 113.768 104.87C114.214 105.315 114.465 105.919 114.465 106.549Z" fill="url(#paint32_radial_643_26)"/>
<path style="mix-blend-mode:screen" d="M110.339 40.3459C109.182 39.1104 107.683 38.2458 106.032 37.8618C104.382 37.4778 102.655 37.5916 101.069 38.1888C99.4836 38.7861 98.1116 39.8398 97.1271 41.2164C96.1425 42.593 95.5898 44.2305 95.5389 45.9211C95.4881 47.6117 95.9415 49.2792 96.8416 50.7123C97.7417 52.1453 99.048 53.2793 100.595 53.9703C102.141 54.6613 103.859 54.8783 105.529 54.5937C107.2 54.3091 108.748 53.5357 109.978 52.3717C111.616 50.8206 112.573 48.6859 112.641 46.4331C112.709 44.1804 111.881 41.9922 110.339 40.3459Z" fill="url(#paint33_radial_643_26)"/>
<path style="mix-blend-mode:screen" d="M107.146 46.1473C107.146 46.7419 106.969 47.3232 106.638 47.8176C106.307 48.312 105.837 48.6974 105.286 48.9249C104.736 49.1525 104.13 49.212 103.546 49.096C102.962 48.98 102.425 48.6936 102.004 48.2732C101.582 47.8527 101.295 47.317 101.179 46.7338C101.063 46.1506 101.123 45.5461 101.351 44.9968C101.579 44.4474 101.965 43.9779 102.46 43.6475C102.955 43.3172 103.538 43.1409 104.134 43.1409C104.932 43.1409 105.699 43.4576 106.264 44.0214C106.828 44.5852 107.146 45.3499 107.146 46.1473Z" fill="url(#paint34_radial_643_26)"/>
<path style="mix-blend-mode:screen" d="M14.7897 108.233C13.6293 107 12.1283 106.139 10.4769 105.759C8.82557 105.379 7.09834 105.497 5.51431 106.098C3.93028 106.7 2.56083 107.757 1.57966 109.136C0.598494 110.515 0.0498201 112.154 0.0032341 113.845C-0.0433519 115.535 0.414249 117.202 1.31799 118.633C2.22174 120.063 3.53091 121.194 5.07944 121.881C6.62797 122.568 8.34609 122.781 10.0159 122.492C11.6857 122.203 13.2319 121.426 14.4584 120.259C16.0925 118.704 17.0444 116.567 17.1065 114.314C17.1685 112.061 16.3358 109.875 14.7897 108.233Z" fill="url(#paint35_radial_643_26)"/>
<path style="mix-blend-mode:screen" d="M11.5967 114.246C11.5967 114.84 11.42 115.422 11.0891 115.916C10.7581 116.411 10.2876 116.796 9.73719 117.023C9.18677 117.251 8.5811 117.311 7.99678 117.195C7.41246 117.079 6.87572 116.792 6.45445 116.372C6.03318 115.951 5.74628 115.416 5.63006 114.832C5.51383 114.249 5.57348 113.645 5.80147 113.095C6.02946 112.546 6.41555 112.076 6.91092 111.746C7.40628 111.416 7.98867 111.239 8.58444 111.239C9.38335 111.239 10.1495 111.556 10.7144 112.12C11.2793 112.684 11.5967 113.448 11.5967 114.246Z" fill="url(#paint36_radial_643_26)"/>
<path style="mix-blend-mode:screen" d="M25.9347 192.079C24.7759 190.833 23.272 189.96 21.6144 189.57C19.9568 189.179 18.2203 189.29 16.6258 189.887C15.0313 190.485 13.651 191.542 12.6603 192.925C11.6696 194.307 11.1133 195.953 11.0622 197.652C11.0111 199.351 11.4676 201.027 12.3735 202.466C13.2793 203.906 14.5937 205.044 16.1494 205.736C17.7051 206.428 19.4319 206.642 21.11 206.351C22.7881 206.061 24.3417 205.279 25.5733 204.105C27.1904 202.542 28.1329 200.411 28.2004 198.165C28.2679 195.92 27.455 193.736 25.9347 192.079Z" fill="url(#paint37_radial_643_26)"/>
<path style="mix-blend-mode:screen" d="M22.7118 197.916C22.7118 198.511 22.5352 199.092 22.2042 199.586C21.8732 200.081 21.4027 200.466 20.8523 200.694C20.3019 200.921 19.6962 200.981 19.1119 200.865C18.5276 200.749 17.9908 200.462 17.5696 200.042C17.1483 199.621 16.8614 199.086 16.7452 198.502C16.6289 197.919 16.6886 197.315 16.9166 196.765C17.1446 196.216 17.5307 195.747 18.026 195.416C18.5214 195.086 19.1038 194.909 19.6996 194.909C20.4985 194.909 21.2646 195.226 21.8296 195.79C22.3945 196.354 22.7118 197.119 22.7118 197.916Z" fill="url(#paint38_radial_643_26)"/>
<path style="mix-blend-mode:screen" d="M85.939 224.974C84.7786 223.742 83.2776 222.881 81.6262 222.501C79.9749 222.121 78.2476 222.239 76.6636 222.84C75.0796 223.441 73.7101 224.498 72.729 225.877C71.7478 227.256 71.1991 228.895 71.1525 230.586C71.1059 232.277 71.5635 233.943 72.4673 235.374C73.371 236.805 74.6802 237.936 76.2287 238.623C77.7773 239.31 79.4954 239.522 81.1652 239.234C82.8349 238.945 84.3811 238.167 85.6076 237C87.2346 235.441 88.1815 233.305 88.2435 231.055C88.3055 228.805 87.4777 226.62 85.939 224.974Z" fill="url(#paint39_radial_643_26)"/>
<path style="mix-blend-mode:screen" d="M82.7462 230.775C82.7462 231.37 82.5696 231.951 82.2386 232.446C81.9076 232.94 81.4372 233.325 80.8867 233.553C80.3363 233.78 79.7306 233.84 79.1463 233.724C78.562 233.608 78.0253 233.322 77.604 232.901C77.1827 232.481 76.8958 231.945 76.7796 231.362C76.6634 230.779 76.723 230.174 76.951 229.625C77.179 229.075 77.5651 228.606 78.0605 228.275C78.5558 227.945 79.1382 227.769 79.734 227.769C80.5329 227.769 81.2991 228.086 81.864 228.649C82.4289 229.213 82.7462 229.978 82.7462 230.775Z" fill="url(#paint40_radial_643_26)"/>
<path style="mix-blend-mode:screen" d="M101.181 253.325C100.021 252.093 98.5198 251.232 96.8685 250.852C95.2171 250.472 93.4899 250.59 91.9058 251.191C90.3218 251.792 88.9524 252.849 87.9712 254.228C86.99 255.607 86.4414 257.246 86.3948 258.937C86.3482 260.628 86.8058 262.294 87.7095 263.725C88.6133 265.156 89.9224 266.286 91.471 266.974C93.0195 267.661 94.7376 267.873 96.4074 267.584C98.0772 267.296 99.6234 266.518 100.85 265.351C102.484 263.796 103.436 261.659 103.498 259.406C103.56 257.154 102.727 254.968 101.181 253.325Z" fill="url(#paint41_radial_643_26)"/>
<path style="mix-blend-mode:screen" d="M97.9885 259.126C97.9885 259.721 97.8119 260.302 97.4809 260.796C97.1499 261.291 96.6794 261.676 96.129 261.904C95.5786 262.131 94.9729 262.191 94.3886 262.075C93.8043 261.959 93.2675 261.672 92.8463 261.252C92.425 260.831 92.1381 260.296 92.0219 259.713C91.9056 259.129 91.9653 258.525 92.1933 257.976C92.4213 257.426 92.8074 256.957 93.3027 256.626C93.7981 256.296 94.3805 256.12 94.9763 256.12C95.7752 256.12 96.5413 256.436 97.1063 257C97.6712 257.564 97.9885 258.329 97.9885 259.126Z" fill="url(#paint42_radial_643_26)"/>
<path style="mix-blend-mode:screen" d="M127.057 117.401C126.15 116.438 124.978 115.765 123.688 115.468C122.398 115.17 121.048 115.262 119.81 115.73C118.572 116.199 117.501 117.024 116.734 118.101C115.966 119.178 115.536 120.458 115.498 121.779C115.46 123.1 115.815 124.402 116.52 125.521C117.224 126.64 118.246 127.525 119.455 128.064C120.664 128.603 122.006 128.772 123.311 128.549C124.616 128.326 125.825 127.721 126.786 126.812C128.061 125.593 128.804 123.923 128.854 122.162C128.905 120.401 128.259 118.691 127.057 117.401Z" fill="url(#paint43_radial_643_26)"/>
<path style="mix-blend-mode:screen" d="M124.557 121.94C124.557 122.41 124.417 122.869 124.156 123.26C123.894 123.651 123.522 123.955 123.088 124.135C122.653 124.315 122.174 124.362 121.713 124.27C121.251 124.178 120.827 123.952 120.494 123.62C120.161 123.288 119.935 122.865 119.843 122.404C119.751 121.943 119.798 121.466 119.978 121.032C120.159 120.598 120.464 120.227 120.855 119.966C121.246 119.705 121.706 119.565 122.177 119.565C122.491 119.561 122.802 119.62 123.092 119.738C123.383 119.856 123.647 120.031 123.869 120.252C124.09 120.473 124.266 120.737 124.384 121.027C124.502 121.317 124.561 121.627 124.557 121.94Z" fill="url(#paint44_radial_643_26)"/>
<path style="mix-blend-mode:screen" d="M87.8066 22.2479C86.8982 21.2889 85.7254 20.6201 84.4363 20.3262C83.1472 20.0323 81.7997 20.1264 80.5642 20.5966C79.3287 21.0669 78.2606 21.8922 77.495 22.9681C76.7293 24.0441 76.3004 25.3225 76.2625 26.6417C76.2246 27.9609 76.5794 29.2617 77.2821 30.3797C77.9848 31.4976 79.0038 32.3826 80.2103 32.9227C81.4168 33.4628 82.7566 33.6338 84.0604 33.4141C85.3643 33.1943 86.5736 32.5937 87.5355 31.6882C88.8194 30.4686 89.5683 28.792 89.6191 27.0238C89.6699 25.2555 89.0184 23.5389 87.8066 22.2479Z" fill="url(#paint45_radial_643_26)"/>
<path style="mix-blend-mode:screen" d="M85.3066 26.7884C85.3125 27.2607 85.1773 27.724 84.9181 28.1192C84.6589 28.5143 84.2876 28.8234 83.8515 29.0069C83.4155 29.1903 82.9345 29.2399 82.4701 29.1492C82.0057 29.0585 81.579 28.8317 81.2444 28.4978C80.9098 28.1638 80.6825 27.7378 80.5916 27.2743C80.5008 26.8108 80.5504 26.3308 80.7343 25.8956C80.9181 25.4604 81.2278 25.0898 81.6237 24.8311C82.0196 24.5725 82.4838 24.4375 82.957 24.4434C83.5801 24.4434 84.1778 24.6905 84.6184 25.1302C85.059 25.57 85.3066 26.1665 85.3066 26.7884Z" fill="url(#paint46_radial_643_26)"/>
<path style="mix-blend-mode:screen" d="M84.3431 2.10523C83.4367 1.1419 82.2641 0.468832 80.974 0.171325C79.6838 -0.126183 78.3343 -0.0347367 77.0963 0.434074C75.8583 0.902884 74.7876 1.72795 74.0199 2.80472C73.2522 3.88149 72.8221 5.16148 72.784 6.48249C72.746 7.80349 73.1017 9.10604 73.8061 10.2251C74.5106 11.3441 75.532 12.2292 76.7409 12.7682C77.9499 13.3072 79.292 13.4759 80.5971 13.2529C81.9022 13.0299 83.1116 12.4252 84.072 11.5154C85.3469 10.297 86.09 8.62675 86.1407 6.8658C86.1915 5.10486 85.5457 3.39474 84.3431 2.10523Z" fill="url(#paint47_radial_643_26)"/>
<path style="mix-blend-mode:screen" d="M81.7522 6.61395C81.7581 7.08494 81.6237 7.54706 81.3659 7.94158C81.108 8.33609 80.7385 8.64519 80.3042 8.82957C79.8699 9.01396 79.3906 9.0653 78.927 8.97708C78.4634 8.88886 78.0366 8.66506 77.7007 8.33413C77.3649 8.00319 77.1353 7.58007 77.041 7.11855C76.9467 6.65702 76.992 6.17794 77.1712 5.74219C77.3504 5.30644 77.6554 4.93371 78.0473 4.67138C78.4393 4.40905 78.9006 4.26896 79.3725 4.26892C79.9984 4.26887 80.5992 4.51497 81.0446 4.95391C81.49 5.39284 81.7443 5.98926 81.7522 6.61395Z" fill="url(#paint48_radial_643_26)"/>
<g clip-path="url(#clip0_643_26)">
<path d="M152.244 118.377L156.945 126.317L158.527 127.897L166.475 132.593C166.578 132.489 166.675 132.379 166.766 132.265C166.786 132.246 166.806 132.227 166.824 132.206C168.112 130.512 168.147 127.776 168.147 127.776C168.147 127.776 168.191 127.732 168.267 127.657C168.602 127.246 169.514 125.903 168.194 124.584C166.831 123.222 167.881 119.459 169.233 117.405C169.282 117.325 169.334 117.248 169.39 117.173C169.546 116.956 169.717 116.751 169.903 116.56L171.522 114.943L169.94 113.363L168.319 114.983C166.696 116.605 161.862 118.273 160.283 116.695C158.703 115.118 157.08 116.735 157.08 116.735C157.08 116.735 153.867 116.755 152.244 118.377Z" fill="#EF9B14"/>
<path d="M158.127 117.766C156.801 119.091 158.195 123.678 165.312 130.789C165.521 130.997 165.723 131.199 165.92 131.396C166.22 131.695 166.519 131.951 166.812 132.19C168.1 130.495 168.136 127.76 168.136 127.76C168.136 127.76 168.18 127.716 168.255 127.64L166.618 126.243L158.127 117.766Z" fill="#F4A925"/>
<path d="M159.652 119.29C158.384 120.556 159.592 124.816 165.92 131.396C166.194 131.669 166.479 131.954 166.771 132.245C166.791 132.227 166.811 132.208 166.829 132.187C168.117 130.493 168.152 127.757 168.152 127.757L159.652 119.29Z" fill="#F9BF3B"/>
<path d="M159.103 118.742L168.128 127.757C168.128 127.757 168.172 127.713 168.248 127.638C168.583 127.227 169.495 125.884 168.175 124.565C166.812 123.203 167.862 119.44 169.214 117.386C169.263 117.306 169.315 117.229 169.371 117.154L167.812 116.458C165.577 118.414 162.945 119.34 161.819 118.216C160.694 117.091 159.452 118.393 159.103 118.742Z" fill="#F4A925"/>
<path d="M160.11 119.748L168.14 127.769C168.14 127.769 168.184 127.725 168.26 127.65C168.595 127.239 169.507 125.896 168.187 124.577C166.824 123.215 167.874 119.452 169.226 117.398L167.929 116.824C165.896 118.855 163.966 120.361 162.836 119.231C161.705 118.102 160.459 119.399 160.11 119.748Z" fill="#F9BF3B"/>
<path d="M168.704 117.384C167.441 118.645 165.874 122.266 166.667 123.058C167.46 123.851 168.004 125.879 167.165 126.717L165.488 125.042C166.156 124.375 166.572 122.963 165.843 122.235C165.114 121.507 168.178 117.477 168.488 117.168C168.798 116.858 168.704 117.384 168.704 117.384Z" fill="#FFD180"/>
<path d="M126.438 95.4423C132.773 92.6823 141.347 97.5458 145.462 107.282C149.577 117.017 147.602 127.255 141.054 130.153C134.506 133.05 126.34 127.294 121.741 117.786C116.369 106.692 118.439 98.9306 126.438 95.4423ZM123.55 108.06C124.056 110.615 125.9 112.355 128.239 114.204C131.07 116.424 132.355 117.006 134.081 120.231C135.652 123.159 136.423 126.399 138.976 125.262C143.707 123.17 145.137 115.787 142.161 108.757C139.185 101.727 131.974 97.5093 128.058 99.286C125.018 100.681 122.719 103.879 123.55 108.06Z" fill="#F9BF3B"/>
<path d="M126.438 95.4423C132.773 92.6823 141.347 97.5458 145.462 107.282C149 115.652 148.041 124.402 143.525 128.525C147.476 124.193 148.203 115.874 144.828 107.91C140.716 98.1718 132.144 93.3058 125.812 96.0682C124.323 96.695 122.948 97.5725 121.748 98.6616C123.073 97.2731 124.672 96.1755 126.438 95.4423ZM123.55 108.06C124.056 110.615 125.9 112.355 128.239 114.204C131.07 116.424 132.355 117.006 134.081 120.231C135.652 123.159 136.423 126.399 138.977 125.262C139.594 124.987 140.167 124.617 140.673 124.166C140.033 124.903 139.239 125.492 138.35 125.888C135.792 127.02 135.026 123.785 133.455 120.857C131.728 117.632 130.441 117.053 127.612 114.83C125.276 112.984 123.424 111.246 122.924 108.686C122.284 105.529 123.439 102.951 125.345 101.275C123.831 102.944 123.002 105.286 123.55 108.06Z" fill="#FCC963"/>
<path d="M139.066 125.201C143.719 123.054 145.106 115.718 142.156 108.743C139.829 103.238 134.889 99.4614 130.986 98.9426C135.019 98.1642 141.344 102.242 144.082 108.708C147.038 115.719 145.626 123.118 140.895 125.211C140.61 125.364 140.293 125.443 139.973 125.441C139.653 125.439 139.342 125.357 139.066 125.201ZM126.438 95.4423C127.875 94.8287 129.433 94.5772 130.971 94.7103C130.077 94.8154 129.2 95.052 128.368 95.4124C120.364 98.9055 118.299 106.662 123.645 117.769C127.257 125.24 133.075 130.399 138.576 130.848C132.544 131.612 125.754 126.148 121.715 117.798C116.369 106.692 118.439 98.9306 126.438 95.4423Z" fill="#F4A925"/>
<path d="M138.583 125.385C138.716 125.348 138.847 125.301 138.974 125.246C143.705 123.153 145.135 115.77 142.159 108.74C139.685 102.894 134.267 98.996 130.272 98.887C134.309 98.3225 140.43 102.367 143.107 108.694C146.064 115.705 144.652 123.105 139.921 125.197C139.504 125.404 139.033 125.47 138.583 125.385ZM126.441 95.4399C127.636 94.9257 128.92 94.665 130.209 94.6745C129.24 94.762 128.287 95.0041 127.387 95.3915C119.39 98.8773 117.32 106.643 122.683 117.743C126.471 125.579 132.686 130.867 138.422 130.86C132.433 131.496 125.733 126.06 121.737 117.791C116.369 106.692 118.439 98.9306 126.438 95.4423L126.441 95.4399Z" fill="#EF9B14"/>
<path d="M126.438 95.4423C127.209 95.1098 128.019 94.8833 128.846 94.7692C121.084 98.3145 119.135 106.012 124.427 116.987C128.466 125.346 135.278 130.822 141.299 130.027C141.212 130.067 141.127 130.113 141.04 130.153C134.489 133.058 126.326 127.295 121.727 117.786C116.369 106.692 118.439 98.9306 126.438 95.4423Z" fill="#F4A925"/>
<path d="M126.438 95.4423C127 95.1988 127.584 95.0132 128.18 94.8884C128.021 94.9482 127.861 95.008 127.704 95.0749C119.707 98.5608 117.64 106.324 123.002 117.424C127.196 126.098 134.36 131.653 140.561 130.356C134.098 132.774 126.216 127.063 121.734 117.793C116.369 106.692 118.439 98.9306 126.438 95.4423Z" fill="#EF9B14"/>
<path d="M138.854 99.4146C138.751 99.5986 140.225 100.784 141.548 102.593C142.872 104.402 143.594 106.097 143.801 106.037C144.009 105.976 143.593 104.09 142.137 102.148C140.68 100.206 138.927 99.2286 138.854 99.4146Z" fill="#FFDBA1"/>
<path d="M121.802 112.377C121.838 112.677 121.898 112.973 121.981 113.262C122.041 113.487 122.117 113.734 122.207 114.014C122.284 114.232 122.362 114.466 122.455 114.715C122.548 114.964 122.616 115.148 122.709 115.382L122.977 116.04L123.24 116.673C123.285 116.766 123.325 116.864 123.369 116.967L123.516 117.294L123.802 117.858C123.896 118.03 123.995 118.211 124.103 118.397C124.212 118.583 124.296 118.741 124.407 118.915C124.518 119.089 124.609 119.253 124.716 119.423L125.031 119.918L125.348 120.4L125.664 120.872C125.775 121.026 125.881 121.176 125.987 121.336L126.316 121.786L126.647 122.229L126.981 122.664C127.089 122.807 127.198 122.95 127.31 123.085C127.421 123.221 127.542 123.361 127.651 123.499L127.997 123.894C128.123 124.019 128.217 124.148 128.345 124.281L128.704 124.639L129.06 124.995C129.179 125.114 129.298 125.232 129.424 125.329C129.55 125.426 129.661 125.566 129.795 125.661C129.928 125.755 130.047 125.883 130.164 125.976C130.28 126.068 130.411 126.179 130.538 126.276C130.583 126.321 130.625 126.364 130.683 126.392L132.477 121.098L132.308 120.792C132.206 120.609 132.105 120.435 132.004 120.27C131.898 120.096 131.797 119.931 131.691 119.781C131.584 119.631 131.473 119.467 131.367 119.322C131.261 119.176 131.142 119.034 131.028 118.901C130.915 118.767 130.808 118.646 130.677 118.516L130.323 118.162L129.955 117.838C129.843 117.726 129.714 117.637 129.581 117.533C129.448 117.429 129.338 117.334 129.207 117.232L128.828 116.942C128.707 116.849 128.578 116.755 128.45 116.651C128.446 116.65 128.443 116.648 128.441 116.645C128.438 116.643 128.437 116.64 128.435 116.637L128.073 116.362L127.692 116.074L127.316 115.781L127.097 115.611L126.94 115.483L126.558 115.195L126.182 114.897L125.811 114.589L125.445 114.262L125.091 113.909L124.694 113.513C124.59 113.408 124.483 113.302 124.373 113.192L124.017 112.837C123.898 112.718 123.78 112.599 123.663 112.483C123.547 112.367 123.414 112.258 123.297 112.161C123.18 112.064 123.035 111.948 122.918 111.87C122.792 111.78 122.658 111.699 122.52 111.628C122.388 111.552 122.236 111.52 122.083 111.537C121.854 111.596 121.737 111.845 121.802 112.377Z" fill="#F4A925"/>
<path d="M132.007 120.277L130.164 125.98C130.275 126.092 130.411 126.184 130.538 126.281L132.31 120.799C132.207 120.618 132.105 120.444 132.007 120.277Z" fill="#FCC963"/>
<path d="M131.69 119.791L129.783 125.678C129.899 125.794 130.035 125.9 130.151 125.993L132.007 120.277C131.908 120.115 131.797 119.941 131.69 119.791Z" fill="#EF9B14"/>
<path d="M131.028 118.91L129.058 125.002C129.176 125.121 129.295 125.239 129.421 125.336L131.367 119.331C131.256 119.181 131.142 119.043 131.028 118.91Z" fill="#FCC963"/>
<path d="M130.677 118.525L128.699 124.649L129.055 125.005L131.026 118.913C130.915 118.777 130.798 118.646 130.677 118.525Z" fill="#EF9B14"/>
<path d="M129.955 117.847L127.999 123.896C128.125 124.022 128.219 124.15 128.348 124.283L130.323 118.172L129.955 117.847Z" fill="#FCC963"/>
<path d="M129.581 117.542L127.653 123.501L127.999 123.896L129.955 117.847C129.836 117.743 129.714 117.646 129.581 117.542Z" fill="#EF9B14"/>
<path d="M128.828 116.951L126.981 122.664C127.089 122.807 127.198 122.95 127.31 123.085L129.205 117.239L128.828 116.951Z" fill="#FCC963"/>
<path d="M128.45 116.66L126.649 122.231L126.983 122.667L128.828 116.951C128.707 116.859 128.578 116.765 128.45 116.66Z" fill="#EF9B14"/>
<path d="M127.687 116.089L125.99 121.338L126.318 121.788L128.068 116.377L127.687 116.089Z" fill="#FCC963"/>
<path d="M127.311 115.796L125.666 120.874C125.777 121.029 125.884 121.179 125.99 121.338L127.687 116.089L127.311 115.796Z" fill="#EF9B14"/>
<path d="M126.553 115.209L125.034 119.921L125.35 120.402L126.935 115.498L126.553 115.209Z" fill="#FFD180"/>
<path d="M126.184 114.919L124.725 119.432L125.041 119.928L126.56 115.217L126.184 114.919Z" fill="#EF9B14"/>
<path d="M125.44 114.277L124.115 118.409C124.212 118.578 124.308 118.753 124.419 118.927L125.815 114.613L125.44 114.277Z" fill="#FCC963"/>
<path d="M125.076 113.933L123.805 117.86C123.899 118.032 123.998 118.213 124.106 118.399L125.44 114.277L125.076 113.933Z" fill="#EF9B14"/>
<path d="M124.366 113.209L123.245 116.678C123.29 116.771 123.329 116.869 123.374 116.972L123.521 117.299L124.722 113.575L124.684 113.537C124.582 113.425 124.468 113.311 124.366 113.209Z" fill="#FCC963"/>
<path d="M124.01 112.853L122.982 116.044L123.245 116.678L124.366 113.209L124.01 112.853Z" fill="#EF9B14"/>
<path d="M123.277 112.19L122.46 114.72C122.537 114.928 122.62 115.152 122.714 115.387L123.644 112.512C123.52 112.398 123.399 112.292 123.277 112.19Z" fill="#FCC963"/>
<path d="M122.899 111.899L122.207 114.014C122.283 114.232 122.362 114.466 122.455 114.715L123.273 112.185C123.144 112.081 123.02 111.982 122.899 111.899Z" fill="#EF9B14"/>
<path d="M122.063 111.567L121.802 112.377C121.838 112.677 121.898 112.973 121.981 113.262L122.5 111.657C122.369 111.581 122.216 111.55 122.063 111.567Z" fill="#FCC963"/>
<path d="M121.802 112.377L122.063 111.567C121.854 111.596 121.737 111.845 121.802 112.377Z" fill="#EF9B14"/>
<path d="M122.126 111.556C122.007 112.149 122.404 113.651 123.688 116.638C124.457 118.419 126.976 122.275 129.038 124.334C129.606 124.9 130.207 125.433 130.838 125.928L130.678 126.392C129.991 125.856 129.339 125.278 128.725 124.66C126.664 122.601 124.145 118.745 123.376 116.964C121.578 112.83 121.527 111.566 122.126 111.556Z" fill="#FFD180"/>
<path d="M132.15 121.429C131.656 120.439 131.014 119.532 130.246 118.738C129.573 118.103 128.858 117.514 128.106 116.975C127.699 116.665 127.256 116.33 126.763 115.945C125.903 115.314 125.097 114.615 124.353 113.854C123.527 112.99 122.367 111.87 121.797 111.875C121.991 110.87 123.623 112.423 124.677 113.53C125.421 114.291 126.227 114.991 127.087 115.621C127.575 116.001 128.018 116.337 128.43 116.651C129.183 117.191 129.897 117.779 130.57 118.414C131.338 119.208 131.98 120.115 132.475 121.105L130.676 126.399C130.626 126.349 130.573 126.297 130.509 126.262L132.15 121.429Z" fill="#EF9B14"/>
<path d="M124.985 142.817C126.609 141.195 137.72 149.052 139.474 137.833C140.254 132.812 152.405 144.95 147.378 145.729C136.136 147.469 144.013 158.581 142.377 160.215L124.985 142.817Z" fill="#F9BF3B"/>
<path d="M139.469 137.829C140.168 133.335 149.965 142.58 148.42 145.134L140.898 142.489C135.41 147.971 133.24 146.305 130.863 148.679L124.99 142.812C126.614 141.19 137.72 149.051 139.469 137.829Z" fill="#F4A925"/>
<path d="M146.184 144.706C148.686 144.318 146.601 140.74 143.821 137.899C146.788 140.449 149.408 144.489 146.575 144.927C135.334 146.667 143.21 157.779 141.574 159.413L140.109 157.949C141.75 156.31 134.949 146.453 146.184 144.706Z" fill="#FFD180"/>
<path d="M139.469 137.829C140.139 133.515 149.202 141.867 148.555 144.796L140.297 141.904C134.104 147.255 129.947 144.029 128.07 145.904L124.983 142.819C126.614 141.19 137.72 149.051 139.469 137.829Z" fill="#EF9B14"/>
<path d="M137.846 139.45C137.739 139.557 137.653 139.682 137.594 139.821C137.535 139.959 137.504 140.106 137.502 140.255C137.5 140.404 137.528 140.551 137.583 140.688C137.638 140.824 137.721 140.948 137.825 141.051L144.147 147.367C144.251 147.471 144.375 147.553 144.511 147.609C144.648 147.664 144.795 147.692 144.944 147.69C145.093 147.688 145.241 147.656 145.379 147.597C145.517 147.538 145.643 147.453 145.75 147.346C145.857 147.24 145.942 147.114 146.001 146.976C146.06 146.838 146.092 146.69 146.094 146.541C146.096 146.393 146.068 146.246 146.013 146.109C145.957 145.972 145.875 145.849 145.771 145.745L139.448 139.43C139.345 139.325 139.221 139.243 139.084 139.188C138.947 139.133 138.8 139.105 138.651 139.107C138.503 139.109 138.355 139.14 138.216 139.199C138.078 139.258 137.952 139.343 137.846 139.45Z" fill="#F9BF3B"/>
<path d="M139.296 139.307C139.239 139.347 139.184 139.392 139.133 139.441C139.027 139.547 138.942 139.673 138.883 139.811C138.825 139.949 138.793 140.096 138.792 140.245C138.79 140.393 138.818 140.54 138.873 140.676C138.928 140.813 139.011 140.936 139.115 141.039L145.432 147.35C145.48 147.398 145.532 147.441 145.587 147.481C145.367 147.633 145.103 147.706 144.84 147.685C144.577 147.664 144.331 147.552 144.147 147.367L137.825 141.051C137.63 140.854 137.517 140.589 137.508 140.309C137.5 140.028 137.596 139.751 137.779 139.533C137.962 139.314 138.217 139.169 138.496 139.126C138.776 139.083 139.058 139.145 139.289 139.299L139.296 139.307Z" fill="#F4A925"/>
<path d="M138.971 139.157C138.781 139.214 138.609 139.319 138.47 139.462C138.331 139.605 138.232 139.78 138.181 139.971C138.13 140.162 138.13 140.362 138.18 140.55C138.23 140.739 138.329 140.909 138.467 141.045L144.79 147.361C144.922 147.492 145.086 147.585 145.267 147.634C145.071 147.695 144.863 147.703 144.666 147.656C144.469 147.609 144.29 147.509 144.147 147.367L137.825 141.051C137.649 140.876 137.538 140.646 137.509 140.397C137.481 140.148 137.537 139.895 137.668 139.677C137.799 139.459 137.998 139.289 138.234 139.195C138.47 139.1 138.728 139.086 138.968 139.155L138.971 139.157Z" fill="#EF9B14"/>
<path d="M196.948 165.703C184.298 153.067 172.901 154.9 164.891 153.497C160.416 152.714 152.043 153.696 141.798 143.398C131.266 132.809 124.084 125.216 131.105 118.203C135.005 114.306 144.451 113.027 150.139 117.282C150.741 117.733 152.19 117.382 152.708 117.998C154.44 120.064 156.435 122.276 158.755 124.594C161.256 127.092 164.003 129.71 166.827 132.326C167.381 132.841 166.882 134.412 167.411 134.96C178.221 146.217 189.122 151.408 193.863 156.144C192.831 158.858 199.253 163.301 196.948 165.703Z" fill="#F9BF3B"/>
<path d="M150.139 117.282C150.741 117.733 152.19 117.382 152.708 117.998L152.955 118.293C145.268 114.773 135.794 119.838 135.84 125.164C135.907 132.633 149.35 146.155 159.715 149.642C170.081 153.129 178.413 149.243 197.331 165.102C197.245 165.323 197.116 165.525 196.952 165.698C184.303 153.062 172.906 154.895 164.896 153.492C160.421 152.71 152.048 153.691 141.803 143.393C131.27 132.804 124.089 125.211 131.11 118.198C135.013 114.299 144.446 113.032 150.139 117.282Z" fill="#F4A925"/>
<path d="M150.139 117.282C150.741 117.733 152.19 117.382 152.708 117.998C153.321 118.734 153.971 119.485 154.657 120.251C153.536 119.677 152.447 119.045 151.395 118.356C143.48 113.105 132.496 118.54 132.549 124.272C132.612 131.743 145.74 146.041 155.842 150.19C166.319 154.495 180.119 149.735 197.212 165.344C197.139 165.474 197.05 165.594 196.948 165.703C184.298 153.067 172.901 154.9 164.891 153.497C160.416 152.714 152.043 153.696 141.798 143.398C131.266 132.809 124.084 125.216 131.105 118.203C135.013 114.299 144.446 113.032 150.139 117.282Z" fill="#EF9B14"/>
<path d="M167.404 134.953C178.221 146.217 189.122 151.408 193.863 156.144C193.765 156.417 193.731 156.708 193.763 156.993C188.979 152.282 178.143 147.083 167.39 135.888L167.404 134.953Z" fill="#FFD180"/>
<path d="M155.455 129.888C154.998 130.406 157.08 132.924 160.08 135.546C163.08 138.168 165.877 139.876 166.317 139.38C166.756 138.884 164.689 136.342 161.692 133.718C158.694 131.094 155.89 129.373 155.455 129.888Z" fill="#FFD180"/>
<path d="M167.319 139.968C167.048 140.277 167.214 140.837 167.661 141.249C168.108 141.662 168.709 141.726 168.98 141.422C169.251 141.118 169.085 140.553 168.638 140.14C168.191 139.728 167.578 139.676 167.319 139.968Z" fill="#FFD180"/>
<path d="M159.549 122.738C159.296 122.991 159.132 123.319 159.082 123.671C159.032 124.022 159.099 124.377 159.274 124.681C159.448 124.984 159.719 125.219 160.045 125.348C160.371 125.478 160.733 125.495 161.076 125.398L161.136 125.38C161.236 125.346 161.333 125.302 161.424 125.249C161.554 125.176 161.674 125.085 161.779 124.98C162.085 124.674 162.261 124.263 162.267 123.836C162.273 123.409 162.109 123.002 161.811 122.703C161.658 122.552 161.474 122.435 161.272 122.359C161.069 122.283 160.852 122.25 160.633 122.262C160.633 122.262 160.602 122.265 160.585 122.263C160.381 122.275 160.18 122.33 159.996 122.424C159.831 122.502 159.679 122.608 159.549 122.738Z" fill="#D67500"/>
<path d="M159.869 122.731C159.614 122.985 159.449 123.313 159.398 123.666C159.347 124.018 159.415 124.374 159.59 124.679C159.764 124.983 160.037 125.218 160.364 125.347C160.691 125.477 161.055 125.493 161.399 125.393L161.459 125.376C161.559 125.343 161.656 125.299 161.747 125.245C161.875 125.17 161.994 125.078 162.099 124.973C162.331 124.741 162.489 124.447 162.553 124.128C162.617 123.809 162.584 123.481 162.457 123.186C162.331 122.892 162.118 122.644 161.845 122.477C161.572 122.309 161.253 122.228 160.93 122.246L160.881 122.252C160.677 122.266 160.476 122.323 160.292 122.418C160.136 122.499 159.993 122.605 159.869 122.731Z" fill="#EF9B14"/>
<path d="M160.234 122.661C160.082 122.812 159.961 122.991 159.877 123.187C159.793 123.382 159.749 123.592 159.746 123.803C159.743 124.014 159.782 124.222 159.86 124.416C159.938 124.61 160.054 124.786 160.202 124.933C160.363 125.097 160.56 125.222 160.779 125.3C160.997 125.377 161.231 125.405 161.464 125.38C161.565 125.346 161.663 125.302 161.756 125.249C161.887 125.175 162.006 125.083 162.111 124.975C162.343 124.743 162.5 124.449 162.563 124.13C162.627 123.811 162.593 123.483 162.466 123.189C162.34 122.895 162.126 122.648 161.854 122.481C161.581 122.313 161.263 122.233 160.939 122.251C160.947 122.241 160.956 122.232 160.966 122.224C160.937 122.226 160.908 122.234 160.881 122.247C160.635 122.329 160.413 122.472 160.234 122.661Z" fill="#F4A925"/>
<path d="M160.582 122.522C160.35 122.754 160.192 123.049 160.128 123.368C160.064 123.686 160.097 124.015 160.224 124.309C160.35 124.604 160.564 124.851 160.836 125.019C161.109 125.187 161.428 125.267 161.752 125.249C161.882 125.175 162.001 125.083 162.107 124.976C162.338 124.743 162.495 124.449 162.559 124.13C162.622 123.811 162.588 123.484 162.461 123.189C162.335 122.895 162.121 122.648 161.849 122.481C161.577 122.313 161.258 122.233 160.934 122.251C160.806 122.326 160.687 122.417 160.582 122.522Z" fill="#F9BF3B"/>
<path d="M161.474 125.361C161.603 125.285 161.722 125.193 161.828 125.087C162.061 124.856 162.221 124.561 162.285 124.242C162.349 123.922 162.316 123.594 162.189 123.299C162.062 123.004 161.848 122.756 161.574 122.589C161.3 122.422 160.98 122.343 160.656 122.363L160.608 122.363C160.504 122.373 160.401 122.392 160.299 122.42C160.483 122.325 160.684 122.268 160.889 122.254L160.937 122.248C161.261 122.231 161.58 122.311 161.852 122.479C162.125 122.647 162.338 122.894 162.465 123.188C162.591 123.483 162.624 123.811 162.56 124.13C162.497 124.449 162.338 124.744 162.107 124.976C162.001 125.081 161.883 125.172 161.754 125.247C161.663 125.301 161.567 125.345 161.466 125.378L161.406 125.396C161.432 125.384 161.457 125.37 161.481 125.354L161.474 125.361Z" fill="#FFD180"/>
<path d="M161.633 123.636C161.628 123.681 161.632 123.727 161.646 123.771C161.659 123.815 161.681 123.855 161.71 123.889C161.74 123.924 161.776 123.952 161.817 123.971C161.858 123.991 161.903 124.002 161.948 124.004C161.995 124.002 162.04 123.99 162.082 123.969C162.124 123.949 162.162 123.92 162.193 123.885C162.224 123.849 162.247 123.808 162.262 123.764C162.276 123.72 162.282 123.673 162.278 123.627C162.296 123.576 162.302 123.521 162.294 123.468C162.287 123.415 162.267 123.364 162.236 123.321C162.205 123.278 162.164 123.242 162.116 123.218C162.069 123.194 162.016 123.182 161.961 123.183C161.907 123.184 161.854 123.197 161.806 123.222C161.757 123.248 161.715 123.284 161.683 123.328C161.651 123.372 161.63 123.423 161.621 123.477C161.612 123.53 161.617 123.585 161.633 123.636Z" fill="#FFDBA1"/>
<path d="M163.663 126.681C163.408 126.935 163.242 127.263 163.191 127.616C163.141 127.968 163.208 128.324 163.383 128.629C163.558 128.933 163.83 129.168 164.157 129.297C164.484 129.427 164.848 129.443 165.192 129.343L165.25 129.328C165.35 129.296 165.447 129.252 165.538 129.197C165.666 129.122 165.785 129.031 165.89 128.926C166.195 128.621 166.37 128.21 166.376 127.784C166.382 127.358 166.219 126.952 165.922 126.654C165.77 126.499 165.588 126.378 165.385 126.299C165.182 126.22 164.964 126.184 164.744 126.193C164.744 126.193 164.716 126.194 164.696 126.194C164.492 126.21 164.291 126.266 164.107 126.36C163.943 126.442 163.792 126.551 163.663 126.681Z" fill="#D67500"/>
<path d="M163.983 126.679C163.729 126.933 163.565 127.261 163.515 127.612C163.465 127.964 163.533 128.319 163.707 128.622C163.881 128.926 164.152 129.16 164.478 129.29C164.804 129.42 165.167 129.437 165.509 129.339L165.57 129.322C165.67 129.287 165.766 129.243 165.858 129.19C165.986 129.115 166.105 129.024 166.21 128.919C166.444 128.688 166.604 128.393 166.669 128.073C166.734 127.754 166.7 127.425 166.574 127.13C166.447 126.834 166.233 126.586 165.959 126.419C165.685 126.252 165.365 126.172 165.04 126.192L164.992 126.193C164.789 126.208 164.59 126.265 164.408 126.359C164.25 126.441 164.106 126.55 163.983 126.679Z" fill="#EF9B14"/>
<path d="M164.342 126.6C164.036 126.906 163.861 127.317 163.855 127.744C163.849 128.171 164.012 128.578 164.31 128.876C164.471 129.04 164.668 129.165 164.886 129.242C165.104 129.319 165.337 129.346 165.57 129.322C165.67 129.287 165.766 129.243 165.858 129.19C165.987 129.115 166.106 129.023 166.213 128.917C166.364 128.765 166.485 128.587 166.568 128.391C166.651 128.195 166.695 127.985 166.698 127.774C166.7 127.563 166.661 127.355 166.583 127.161C166.504 126.967 166.388 126.792 166.24 126.645C166.085 126.489 165.898 126.368 165.692 126.29C165.485 126.212 165.263 126.178 165.04 126.192L165.07 126.163C165.041 126.169 165.013 126.176 164.985 126.185C164.741 126.269 164.52 126.412 164.342 126.6Z" fill="#F4A925"/>
<path d="M164.702 126.463C164.471 126.695 164.313 126.989 164.249 127.307C164.185 127.626 164.218 127.953 164.344 128.248C164.469 128.542 164.682 128.79 164.954 128.958C165.226 129.126 165.544 129.207 165.867 129.19C165.997 129.115 166.116 129.022 166.222 128.916C166.374 128.765 166.494 128.587 166.578 128.391C166.661 128.195 166.705 127.985 166.708 127.774C166.71 127.563 166.671 127.355 166.592 127.161C166.514 126.967 166.397 126.792 166.249 126.645C166.095 126.489 165.908 126.368 165.701 126.29C165.495 126.212 165.273 126.178 165.05 126.192C164.922 126.266 164.805 126.357 164.702 126.463Z" fill="#F9BF3B"/>
<path d="M165.592 129.3C165.721 129.226 165.84 129.135 165.946 129.031C166.178 128.799 166.337 128.504 166.4 128.185C166.464 127.866 166.431 127.538 166.305 127.244C166.178 126.949 165.965 126.702 165.692 126.534C165.42 126.366 165.101 126.286 164.777 126.303L164.726 126.307C164.624 126.317 164.522 126.336 164.422 126.363C164.605 126.27 164.804 126.213 165.007 126.197L165.055 126.197C165.379 126.177 165.7 126.256 165.973 126.424C166.247 126.591 166.461 126.839 166.588 127.134C166.715 127.429 166.748 127.759 166.683 128.078C166.618 128.398 166.458 128.692 166.225 128.924C166.119 129.029 166.001 129.12 165.872 129.195C165.78 129.248 165.684 129.292 165.584 129.326L165.524 129.344C165.543 129.324 165.56 129.307 165.601 129.304L165.592 129.3Z" fill="#FFD180"/>
<path d="M165.751 127.589C165.733 127.64 165.728 127.695 165.735 127.748C165.742 127.801 165.762 127.852 165.793 127.895C165.824 127.938 165.865 127.974 165.913 127.998C165.961 128.022 166.014 128.034 166.068 128.033C166.122 128.032 166.175 128.019 166.224 127.994C166.272 127.968 166.314 127.932 166.346 127.888C166.378 127.844 166.399 127.793 166.408 127.739C166.417 127.686 166.413 127.631 166.396 127.58C166.401 127.535 166.397 127.489 166.384 127.445C166.37 127.401 166.348 127.361 166.319 127.327C166.289 127.292 166.253 127.264 166.212 127.245C166.171 127.225 166.127 127.214 166.081 127.212C166.035 127.214 165.989 127.226 165.947 127.247C165.905 127.267 165.867 127.296 165.837 127.331C165.806 127.367 165.782 127.408 165.768 127.452C165.753 127.496 165.747 127.543 165.751 127.589Z" fill="#FFDBA1"/>
<path d="M155.599 118.626C155.343 118.879 155.176 119.208 155.125 119.56C155.073 119.913 155.14 120.27 155.315 120.574C155.49 120.879 155.763 121.114 156.091 121.243C156.418 121.372 156.783 121.387 157.126 121.286L157.184 121.271C157.285 121.238 157.381 121.194 157.472 121.14C157.601 121.065 157.719 120.974 157.825 120.868C158.056 120.639 158.215 120.347 158.281 120.03C158.346 119.714 158.315 119.387 158.192 119.093C158.069 118.799 157.86 118.551 157.591 118.381C157.322 118.211 157.006 118.128 156.684 118.141C156.684 118.141 156.655 118.141 156.638 118.144C156.427 118.158 156.22 118.218 156.032 118.318C155.872 118.396 155.725 118.5 155.599 118.626Z" fill="#D67500"/>
<path d="M155.919 118.624C155.666 118.878 155.502 119.206 155.452 119.558C155.402 119.909 155.47 120.264 155.644 120.567C155.818 120.871 156.089 121.106 156.415 121.235C156.741 121.365 157.103 121.382 157.446 121.284L157.507 121.267C157.607 121.233 157.704 121.19 157.797 121.138C157.927 121.065 158.046 120.975 158.152 120.869C158.458 120.563 158.633 120.152 158.639 119.725C158.645 119.298 158.481 118.891 158.184 118.592C158.029 118.436 157.841 118.316 157.634 118.238C157.427 118.16 157.205 118.128 156.982 118.142L156.934 118.143C156.731 118.158 156.532 118.215 156.349 118.309C156.19 118.389 156.044 118.496 155.919 118.624Z" fill="#EF9B14"/>
<path d="M156.279 118.545C155.973 118.851 155.798 119.262 155.792 119.689C155.786 120.116 155.949 120.523 156.247 120.822C156.408 120.985 156.605 121.11 156.823 121.187C157.041 121.264 157.274 121.291 157.507 121.267C157.608 121.235 157.705 121.192 157.797 121.138C157.928 121.065 158.048 120.973 158.154 120.867C158.305 120.715 158.426 120.537 158.509 120.341C158.593 120.145 158.637 119.935 158.639 119.724C158.642 119.513 158.603 119.305 158.524 119.111C158.446 118.917 158.329 118.742 158.181 118.595C158.027 118.439 157.84 118.318 157.633 118.24C157.427 118.162 157.205 118.128 156.982 118.142C156.982 118.142 157.001 118.122 157.011 118.113C156.982 118.117 156.954 118.125 156.927 118.135C156.682 118.217 156.459 118.358 156.279 118.545Z" fill="#F4A925"/>
<path d="M156.639 118.408C156.408 118.64 156.25 118.934 156.186 119.253C156.122 119.571 156.155 119.899 156.28 120.193C156.406 120.487 156.619 120.735 156.891 120.903C157.162 121.071 157.481 121.152 157.804 121.136C157.935 121.062 158.055 120.971 158.161 120.864C158.313 120.713 158.433 120.534 158.517 120.338C158.6 120.142 158.644 119.933 158.647 119.722C158.649 119.511 158.61 119.302 158.532 119.109C158.453 118.915 158.336 118.739 158.189 118.592C158.034 118.436 157.847 118.315 157.641 118.237C157.434 118.159 157.212 118.126 156.989 118.139C156.861 118.212 156.743 118.303 156.639 118.408Z" fill="#F9BF3B"/>
<path d="M157.529 121.245C157.657 121.17 157.775 121.079 157.881 120.973C158.114 120.742 158.273 120.448 158.337 120.129C158.401 119.81 158.368 119.482 158.242 119.187C158.116 118.893 157.902 118.645 157.629 118.478C157.357 118.31 157.037 118.23 156.714 118.249L156.663 118.252C156.56 118.261 156.459 118.28 156.359 118.309C156.542 118.215 156.74 118.158 156.943 118.142L156.992 118.142C157.215 118.128 157.437 118.16 157.644 118.238C157.851 118.316 158.038 118.436 158.194 118.592C158.491 118.891 158.655 119.298 158.649 119.725C158.643 120.152 158.467 120.563 158.161 120.869C158.056 120.975 157.937 121.065 157.807 121.138C157.714 121.19 157.617 121.233 157.516 121.267L157.456 121.284L157.533 121.245L157.529 121.245Z" fill="#FFD180"/>
<path d="M157.676 119.522C157.682 119.588 157.707 119.65 157.749 119.701C157.79 119.752 157.846 119.789 157.909 119.808C157.973 119.827 158.04 119.827 158.105 119.808C158.169 119.789 158.226 119.751 158.27 119.7C158.314 119.649 158.343 119.587 158.352 119.521C158.361 119.455 158.351 119.388 158.323 119.329C158.294 119.27 158.249 119.221 158.192 119.187C158.136 119.154 158.07 119.139 158.003 119.143C157.957 119.146 157.912 119.158 157.87 119.179C157.828 119.199 157.79 119.229 157.76 119.264C157.729 119.3 157.706 119.341 157.691 119.385C157.677 119.429 157.672 119.476 157.676 119.522Z" fill="#FFDBA1"/>
<path d="M122.597 142.048C122.49 142.154 122.405 142.28 122.346 142.418C122.288 142.556 122.257 142.703 122.255 142.852C122.253 143 122.281 143.147 122.336 143.283C122.392 143.42 122.474 143.543 122.578 143.646L141.55 162.598C141.653 162.702 141.776 162.785 141.913 162.84C142.049 162.896 142.196 162.924 142.345 162.922C142.494 162.92 142.641 162.889 142.78 162.83C142.918 162.772 143.044 162.686 143.15 162.58C143.257 162.473 143.342 162.348 143.401 162.209C143.46 162.071 143.492 161.924 143.494 161.775C143.496 161.626 143.468 161.479 143.413 161.342C143.357 161.206 143.275 161.082 143.171 160.979L124.199 142.027C124.096 141.923 123.972 141.841 123.835 141.785C123.698 141.73 123.551 141.702 123.402 141.704C123.253 141.706 123.105 141.738 122.967 141.796C122.829 141.855 122.703 141.941 122.597 142.048Z" fill="#F9BF3B"/>
<path d="M124.197 142.029L124.37 142.202C124.307 142.245 124.247 142.293 124.193 142.347C124.086 142.453 124.001 142.579 123.942 142.717C123.883 142.855 123.852 143.003 123.85 143.151C123.848 143.3 123.876 143.447 123.931 143.583C123.986 143.72 124.068 143.844 124.172 143.948L142.972 162.729C142.752 162.875 142.49 162.942 142.23 162.919C141.971 162.896 141.729 162.783 141.547 162.601L122.576 143.649C122.462 143.547 122.371 143.424 122.308 143.285C122.245 143.146 122.212 142.995 122.21 142.841C122.207 142.688 122.237 142.534 122.296 142.391C122.354 142.247 122.442 142.116 122.552 142.006C122.662 141.895 122.793 141.808 122.937 141.749C123.081 141.691 123.235 141.661 123.389 141.664C123.543 141.666 123.694 141.699 123.833 141.762C123.972 141.825 124.095 141.916 124.197 142.029Z" fill="#F4A925"/>
<path d="M124.197 142.029C123.952 142.064 123.724 142.179 123.548 142.355C123.441 142.461 123.355 142.587 123.296 142.725C123.237 142.863 123.206 143.011 123.204 143.16C123.202 143.309 123.229 143.456 123.285 143.592C123.34 143.729 123.423 143.852 123.527 143.956L142.498 162.908C142.325 162.936 142.148 162.923 141.982 162.87C141.816 162.817 141.667 162.726 141.545 162.603L122.573 143.651C122.46 143.55 122.369 143.426 122.306 143.287C122.243 143.149 122.209 142.998 122.207 142.844C122.205 142.69 122.234 142.537 122.293 142.393C122.352 142.249 122.439 142.118 122.55 142.008C122.66 141.898 122.791 141.811 122.935 141.752C123.079 141.693 123.232 141.664 123.386 141.666C123.54 141.668 123.691 141.702 123.83 141.765C123.969 141.828 124.093 141.918 124.194 142.032L124.197 142.029Z" fill="#EF9B14"/>
<path d="M131.099 149.474C130.945 149.628 139.558 158.476 140.299 159.216C142.978 161.892 143.1 161.77 143.254 161.617C143.407 161.463 143.529 161.342 140.85 158.665C140.109 157.925 131.252 149.321 131.099 149.474Z" fill="#FFD180"/>
<path d="M167.528 112.902C166.998 113.431 166.666 114.125 166.588 114.862C166.511 115.599 166.694 116.333 167.105 116.937C167.516 117.541 168.129 117.976 168.839 118.168C169.548 118.359 170.309 118.295 170.989 117.986C171.286 117.854 171.56 117.676 171.802 117.459C171.853 117.414 171.902 117.366 171.946 117.315C173.199 116.063 174.252 112.8 173.145 111.694C172.706 111.255 171.92 111.153 171.06 111.272C171.047 111.277 171.033 111.279 171.019 111.28C169.727 111.484 168.277 112.154 167.528 112.902Z" fill="#EF9B14"/>
<path d="M168.697 112.608C168.398 112.905 168.16 113.257 167.996 113.643C167.831 114.029 167.744 114.442 167.738 114.858C167.733 115.274 167.809 115.684 167.964 116.066C168.118 116.448 168.348 116.794 168.638 117.084C168.943 117.392 169.31 117.631 169.717 117.786C170.123 117.94 170.56 118.007 170.999 117.981C171.296 117.849 171.57 117.671 171.812 117.454C171.863 117.409 171.911 117.361 171.956 117.31C173.209 116.058 174.262 112.795 173.155 111.689C172.716 111.25 171.93 111.148 171.07 111.267C171.088 111.26 171.106 111.252 171.123 111.242C171.09 111.249 171.059 111.26 171.029 111.275C170.166 111.543 169.37 111.998 168.697 112.608Z" fill="#F4A925"/>
<path d="M169.95 112.087C169.347 112.689 169.003 113.499 168.992 114.339C168.981 115.18 169.304 115.981 169.891 116.568C170.402 117.081 171.08 117.395 171.809 117.456C171.861 117.412 171.909 117.364 171.953 117.312C173.206 116.061 174.259 112.797 173.153 111.692C172.713 111.253 171.928 111.15 171.067 111.269C170.659 111.489 170.283 111.764 169.95 112.087Z" fill="#F9BF3B"/>
<path d="M171.424 113.647C170.98 114.47 170.914 115.29 171.272 115.478C171.631 115.665 172.285 115.15 172.731 114.324C173.177 113.499 173.241 112.681 172.882 112.493C172.524 112.306 171.867 112.824 171.424 113.647Z" fill="#FFDBA1"/>
<path d="M150.265 117.354C152.082 119.876 154.05 122.283 156.16 124.563C156.167 124.574 156.176 124.584 156.188 124.591C157.369 125.888 158.592 127.172 159.826 128.416C153.229 121.645 156.212 122.038 159.351 125.175L158.772 124.596C158.458 124.283 158.152 123.977 157.848 123.673C155.908 121.691 154.21 119.796 152.715 118.01C152.22 117.418 150.922 117.69 150.265 117.354Z" fill="#F4A925"/>
<path d="M157.85 123.69L157.834 123.673C155.894 121.692 154.196 119.796 152.701 118.01C152.211 117.428 150.92 117.692 150.255 117.364C150.211 117.345 150.169 117.32 150.131 117.289C149.91 117.126 149.676 116.966 149.447 116.815C152.168 120.389 155.13 123.77 158.316 126.936C157.439 126.036 156.735 125.264 156.173 124.606C156.162 124.599 156.152 124.589 156.145 124.577C152.527 120.32 155.129 120.971 157.85 123.69Z" fill="#EF9B14"/>
<path d="M160.563 127.675C160.394 127.844 161.57 129.213 163.177 130.72C164.783 132.228 166.208 133.301 166.376 133.133C166.545 132.965 165.367 131.598 163.76 130.09C162.153 128.583 160.724 127.505 160.563 127.675Z" fill="#FFD180"/>
</g>
<defs>
<radialGradient id="paint0_radial_643_26" cx="0" cy="0" r="1" gradientUnits="userSpaceOnUse" gradientTransform="translate(173.436 178.289) rotate(-43.3312) scale(13.6339 13.6324)">
<stop offset="0.1" stop-color="white"/>
<stop offset="0.36" stop-color="#7A7A7A"/>
<stop offset="0.57" stop-color="#2A2A2A"/>
<stop offset="0.66" stop-color="#161616"/>
<stop offset="0.83" stop-color="#000505"/>
<stop offset="0.96"/>
</radialGradient>
<radialGradient id="paint1_radial_643_26" cx="0" cy="0" r="1" gradientUnits="userSpaceOnUse" gradientTransform="translate(165.395 196.086) rotate(44.9446) scale(2.42074 23.1315)">
<stop stop-color="white"/>
<stop offset="0.1" stop-color="#D9D9D9"/>
<stop offset="0.17" stop-color="#AAAAAA"/>
<stop offset="0.26" stop-color="#7A7A7A"/>
<stop offset="0.41" stop-color="#424242"/>
<stop offset="0.52" stop-color="#2A2A2A"/>
<stop offset="0.66" stop-color="#161616"/>
<stop offset="0.83" stop-color="#000505"/>
<stop offset="0.96"/>
</radialGradient>
<radialGradient id="paint2_radial_643_26" cx="0" cy="0" r="1" gradientUnits="userSpaceOnUse" gradientTransform="translate(166.006 188.735) rotate(-3.28977) scale(16.8278 1.75792)">
<stop stop-color="white"/>
<stop offset="0.1" stop-color="#D9D9D9"/>
<stop offset="0.17" stop-color="#AAAAAA"/>
<stop offset="0.26" stop-color="#7A7A7A"/>
<stop offset="0.41" stop-color="#424242"/>
<stop offset="0.52" stop-color="#2A2A2A"/>
<stop offset="0.66" stop-color="#161616"/>
<stop offset="0.83" stop-color="#000505"/>
<stop offset="0.96"/>
</radialGradient>
<radialGradient id="paint3_radial_643_26" cx="0" cy="0" r="1" gradientUnits="userSpaceOnUse" gradientTransform="translate(195.329 179.675) rotate(82.9342) scale(17.22 1.33551)">
<stop stop-color="white"/>
<stop offset="0.1" stop-color="#D9D9D9"/>
<stop offset="0.17" stop-color="#AAAAAA"/>
<stop offset="0.26" stop-color="#7A7A7A"/>
<stop offset="0.41" stop-color="#424242"/>
<stop offset="0.52" stop-color="#2A2A2A"/>
<stop offset="0.66" stop-color="#161616"/>
<stop offset="0.83" stop-color="#000505"/>
<stop offset="0.96"/>
</radialGradient>
<radialGradient id="paint4_radial_643_26" cx="0" cy="0" r="1" gradientUnits="userSpaceOnUse" gradientTransform="translate(172.843 175.003) scale(4.81963 4.81032)">
<stop offset="0.32" stop-color="white"/>
<stop offset="0.56" stop-color="#C6C6C6"/>
<stop offset="0.73" stop-color="#6A6A6A"/>
<stop offset="0.87" stop-color="#000505"/>
<stop offset="0.96"/>
</radialGradient>
<radialGradient id="paint5_radial_643_26" cx="0" cy="0" r="1" gradientUnits="userSpaceOnUse" gradientTransform="translate(131.11 96.7122) rotate(-43.3312) scale(13.6339 13.6324)">
<stop offset="0.1" stop-color="white"/>
<stop offset="0.36" stop-color="#7A7A7A"/>
<stop offset="0.57" stop-color="#2A2A2A"/>
<stop offset="0.66" stop-color="#161616"/>
<stop offset="0.83" stop-color="#000505"/>
<stop offset="0.96"/>
</radialGradient>
<radialGradient id="paint6_radial_643_26" cx="0" cy="0" r="1" gradientUnits="userSpaceOnUse" gradientTransform="translate(124.144 111.843) rotate(44.9446) scale(2.42074 23.1315)">
<stop stop-color="white"/>
<stop offset="0.1" stop-color="#D9D9D9"/>
<stop offset="0.17" stop-color="#AAAAAA"/>
<stop offset="0.26" stop-color="#7A7A7A"/>
<stop offset="0.41" stop-color="#424242"/>
<stop offset="0.52" stop-color="#2A2A2A"/>
<stop offset="0.66" stop-color="#161616"/>
<stop offset="0.83" stop-color="#000505"/>
<stop offset="0.96"/>
</radialGradient>
<radialGradient id="paint7_radial_643_26" cx="0" cy="0" r="1" gradientUnits="userSpaceOnUse" gradientTransform="translate(124.536 106.124) rotate(-3.28976) scale(16.8278 1.75792)">
<stop stop-color="white"/>
<stop offset="0.1" stop-color="#D9D9D9"/>
<stop offset="0.17" stop-color="#AAAAAA"/>
<stop offset="0.26" stop-color="#7A7A7A"/>
<stop offset="0.41" stop-color="#424242"/>
<stop offset="0.52" stop-color="#2A2A2A"/>
<stop offset="0.66" stop-color="#161616"/>
<stop offset="0.83" stop-color="#000505"/>
<stop offset="0.96"/>
</radialGradient>
<radialGradient id="paint8_radial_643_26" cx="0" cy="0" r="1" gradientUnits="userSpaceOnUse" gradientTransform="translate(154.317 98.5155) rotate(82.9342) scale(17.22 1.33551)">
<stop stop-color="white"/>
<stop offset="0.1" stop-color="#D9D9D9"/>
<stop offset="0.17" stop-color="#AAAAAA"/>
<stop offset="0.26" stop-color="#7A7A7A"/>
<stop offset="0.41" stop-color="#424242"/>
<stop offset="0.52" stop-color="#2A2A2A"/>
<stop offset="0.66" stop-color="#161616"/>
<stop offset="0.83" stop-color="#000505"/>
<stop offset="0.96"/>
</radialGradient>
<radialGradient id="paint9_radial_643_26" cx="0" cy="0" r="1" gradientUnits="userSpaceOnUse" gradientTransform="translate(130.762 93.7705) scale(4.81963 4.81032)">
<stop offset="0.32" stop-color="white"/>
<stop offset="0.56" stop-color="#C6C6C6"/>
<stop offset="0.73" stop-color="#6A6A6A"/>
<stop offset="0.87" stop-color="#000505"/>
<stop offset="0.96"/>
</radialGradient>
<radialGradient id="paint10_radial_643_26" cx="0" cy="0" r="1" gradientUnits="userSpaceOnUse" gradientTransform="translate(44.6628 258.13) rotate(-43.3312) scale(13.6339 13.6324)">
<stop offset="0.1" stop-color="white"/>
<stop offset="0.36" stop-color="#7A7A7A"/>
<stop offset="0.57" stop-color="#2A2A2A"/>
<stop offset="0.66" stop-color="#161616"/>
<stop offset="0.83" stop-color="#000505"/>
<stop offset="0.96"/>
</radialGradient>
<radialGradient id="paint11_radial_643_26" cx="0" cy="0" r="1" gradientUnits="userSpaceOnUse" gradientTransform="translate(36.8013 269.057) rotate(-3.28975) scale(16.8278 1.75791)">
<stop stop-color="white"/>
<stop offset="0.1" stop-color="#D9D9D9"/>
<stop offset="0.17" stop-color="#AAAAAA"/>
<stop offset="0.26" stop-color="#7A7A7A"/>
<stop offset="0.41" stop-color="#424242"/>
<stop offset="0.52" stop-color="#2A2A2A"/>
<stop offset="0.66" stop-color="#161616"/>
<stop offset="0.83" stop-color="#000505"/>
<stop offset="0.96"/>
</radialGradient>
<radialGradient id="paint12_radial_643_26" cx="0" cy="0" r="1" gradientUnits="userSpaceOnUse" gradientTransform="translate(71.1258 259.699) rotate(82.9342) scale(17.22 1.33551)">
<stop stop-color="white"/>
<stop offset="0.1" stop-color="#D9D9D9"/>
<stop offset="0.17" stop-color="#AAAAAA"/>
<stop offset="0.26" stop-color="#7A7A7A"/>
<stop offset="0.41" stop-color="#424242"/>
<stop offset="0.52" stop-color="#2A2A2A"/>
<stop offset="0.66" stop-color="#161616"/>
<stop offset="0.83" stop-color="#000505"/>
<stop offset="0.96"/>
</radialGradient>
<radialGradient id="paint13_radial_643_26" cx="0" cy="0" r="1" gradientUnits="userSpaceOnUse" gradientTransform="translate(44.581 254.404) scale(4.81963 4.81032)">
<stop offset="0.32" stop-color="white"/>
<stop offset="0.56" stop-color="#C6C6C6"/>
<stop offset="0.73" stop-color="#6A6A6A"/>
<stop offset="0.87" stop-color="#000505"/>
<stop offset="0.96"/>
</radialGradient>
<radialGradient id="paint14_radial_643_26" cx="0" cy="0" r="1" gradientUnits="userSpaceOnUse" gradientTransform="translate(184.344 198.246) rotate(-43.3312) scale(8.58543 8.58448)">
<stop offset="0.1" stop-color="white"/>
<stop offset="0.36" stop-color="#7A7A7A"/>
<stop offset="0.57" stop-color="#2A2A2A"/>
<stop offset="0.66" stop-color="#161616"/>
<stop offset="0.83" stop-color="#000505"/>
<stop offset="0.96"/>
</radialGradient>
<radialGradient id="paint15_radial_643_26" cx="0" cy="0" r="1" gradientUnits="userSpaceOnUse" gradientTransform="translate(183.687 194.939) scale(3.04239 3.03651)">
<stop offset="0.32" stop-color="white"/>
<stop offset="0.56" stop-color="#C6C6C6"/>
<stop offset="0.73" stop-color="#6A6A6A"/>
<stop offset="0.87" stop-color="#000505"/>
<stop offset="0.96"/>
</radialGradient>
<radialGradient id="paint16_radial_643_26" cx="0" cy="0" r="1" gradientUnits="userSpaceOnUse" gradientTransform="translate(209.593 149.995) rotate(-43.3311) scale(8.58542 8.58447)">
<stop offset="0.1" stop-color="white"/>
<stop offset="0.36" stop-color="#7A7A7A"/>
<stop offset="0.57" stop-color="#2A2A2A"/>
<stop offset="0.66" stop-color="#161616"/>
<stop offset="0.83" stop-color="#000505"/>
<stop offset="0.96"/>
</radialGradient>
<radialGradient id="paint17_radial_643_26" cx="0" cy="0" r="1" gradientUnits="userSpaceOnUse" gradientTransform="translate(208.87 146.893) scale(3.04238 3.03651)">
<stop offset="0.32" stop-color="white"/>
<stop offset="0.56" stop-color="#C6C6C6"/>
<stop offset="0.73" stop-color="#6A6A6A"/>
<stop offset="0.87" stop-color="#000505"/>
<stop offset="0.96"/>
</radialGradient>
<radialGradient id="paint18_radial_643_26" cx="0" cy="0" r="1" gradientUnits="userSpaceOnUse" gradientTransform="translate(184.29 141.782) rotate(-43.3312) scale(8.58543 8.58448)">
<stop offset="0.1" stop-color="white"/>
<stop offset="0.36" stop-color="#7A7A7A"/>
<stop offset="0.57" stop-color="#2A2A2A"/>
<stop offset="0.66" stop-color="#161616"/>
<stop offset="0.83" stop-color="#000505"/>
<stop offset="0.96"/>
</radialGradient>
<radialGradient id="paint19_radial_643_26" cx="0" cy="0" r="1" gradientUnits="userSpaceOnUse" gradientTransform="translate(183.687 138.72) scale(3.04239 3.03651)">
<stop offset="0.32" stop-color="white"/>
<stop offset="0.56" stop-color="#C6C6C6"/>
<stop offset="0.73" stop-color="#6A6A6A"/>
<stop offset="0.87" stop-color="#000505"/>
<stop offset="0.96"/>
</radialGradient>
<radialGradient id="paint20_radial_643_26" cx="0" cy="0" r="1" gradientUnits="userSpaceOnUse" gradientTransform="translate(181.317 93.189) rotate(-43.3312) scale(8.58542 8.58447)">
<stop offset="0.1" stop-color="white"/>
<stop offset="0.36" stop-color="#7A7A7A"/>
<stop offset="0.57" stop-color="#2A2A2A"/>
<stop offset="0.66" stop-color="#161616"/>
<stop offset="0.83" stop-color="#000505"/>
<stop offset="0.96"/>
</radialGradient>
<radialGradient id="paint21_radial_643_26" cx="0" cy="0" r="1" gradientUnits="userSpaceOnUse" gradientTransform="translate(180.765 90.3156) scale(3.04239 3.03651)">
<stop offset="0.32" stop-color="white"/>
<stop offset="0.56" stop-color="#C6C6C6"/>
<stop offset="0.73" stop-color="#6A6A6A"/>
<stop offset="0.87" stop-color="#000505"/>
<stop offset="0.96"/>
</radialGradient>
<radialGradient id="paint22_radial_643_26" cx="0" cy="0" r="1" gradientUnits="userSpaceOnUse" gradientTransform="translate(52.9143 86.3295) rotate(-43.3312) scale(11.2457 11.2445)">
<stop offset="0.1" stop-color="white"/>
<stop offset="0.36" stop-color="#7A7A7A"/>
<stop offset="0.57" stop-color="#2A2A2A"/>
<stop offset="0.66" stop-color="#161616"/>
<stop offset="0.83" stop-color="#000505"/>
<stop offset="0.96"/>
</radialGradient>
<radialGradient id="paint23_radial_643_26" cx="0" cy="0" r="1" gradientUnits="userSpaceOnUse" gradientTransform="translate(47.0636 99.3883) rotate(44.9446) scale(1.93047 18.4466)">
<stop stop-color="white"/>
<stop offset="0.1" stop-color="#D9D9D9"/>
<stop offset="0.17" stop-color="#AAAAAA"/>
<stop offset="0.26" stop-color="#7A7A7A"/>
<stop offset="0.41" stop-color="#424242"/>
<stop offset="0.52" stop-color="#2A2A2A"/>
<stop offset="0.66" stop-color="#161616"/>
<stop offset="0.83" stop-color="#000505"/>
<stop offset="0.96"/>
</radialGradient>
<radialGradient id="paint24_radial_643_26" cx="0" cy="0" r="1" gradientUnits="userSpaceOnUse" gradientTransform="translate(46.6804 95.3904) rotate(-3.28977) scale(13.8887 1.45089)">
<stop stop-color="white"/>
<stop offset="0.1" stop-color="#D9D9D9"/>
<stop offset="0.17" stop-color="#AAAAAA"/>
<stop offset="0.26" stop-color="#7A7A7A"/>
<stop offset="0.41" stop-color="#424242"/>
<stop offset="0.52" stop-color="#2A2A2A"/>
<stop offset="0.66" stop-color="#161616"/>
<stop offset="0.83" stop-color="#000505"/>
<stop offset="0.96"/>
</radialGradient>
<radialGradient id="paint25_radial_643_26" cx="0" cy="0" r="1" gradientUnits="userSpaceOnUse" gradientTransform="translate(78.7949 88.4723) rotate(82.9342) scale(14.2227 1.10305)">
<stop stop-color="white"/>
<stop offset="0.1" stop-color="#D9D9D9"/>
<stop offset="0.17" stop-color="#AAAAAA"/>
<stop offset="0.26" stop-color="#7A7A7A"/>
<stop offset="0.41" stop-color="#424242"/>
<stop offset="0.52" stop-color="#2A2A2A"/>
<stop offset="0.66" stop-color="#161616"/>
<stop offset="0.83" stop-color="#000505"/>
<stop offset="0.96"/>
</radialGradient>
<radialGradient id="paint26_radial_643_26" cx="0" cy="0" r="1" gradientUnits="userSpaceOnUse" gradientTransform="translate(52.9247 83.3972) scale(3.97619 3.96851)">
<stop offset="0.32" stop-color="white"/>
<stop offset="0.56" stop-color="#C6C6C6"/>
<stop offset="0.73" stop-color="#6A6A6A"/>
<stop offset="0.87" stop-color="#000505"/>
<stop offset="0.96"/>
</radialGradient>
<radialGradient id="paint27_radial_643_26" cx="0" cy="0" r="1" gradientUnits="userSpaceOnUse" gradientTransform="translate(206.492 56.6381) rotate(-43.3311) scale(8.58543 8.58448)">
<stop offset="0.1" stop-color="white"/>
<stop offset="0.36" stop-color="#7A7A7A"/>
<stop offset="0.57" stop-color="#2A2A2A"/>
<stop offset="0.66" stop-color="#161616"/>
<stop offset="0.83" stop-color="#000505"/>
<stop offset="0.96"/>
</radialGradient>
<radialGradient id="paint28_radial_643_26" cx="0" cy="0" r="1" gradientUnits="userSpaceOnUse" gradientTransform="translate(205.828 53.9654) scale(3.04238 3.03651)">
<stop offset="0.32" stop-color="white"/>
<stop offset="0.56" stop-color="#C6C6C6"/>
<stop offset="0.73" stop-color="#6A6A6A"/>
<stop offset="0.87" stop-color="#000505"/>
<stop offset="0.96"/>
</radialGradient>
<radialGradient id="paint29_radial_643_26" cx="0" cy="0" r="1" gradientUnits="userSpaceOnUse" gradientTransform="translate(144.117 103.808) rotate(-43.3312) scale(6.71114 6.7104)">
<stop offset="0.1" stop-color="white"/>
<stop offset="0.36" stop-color="#7A7A7A"/>
<stop offset="0.57" stop-color="#2A2A2A"/>
<stop offset="0.66" stop-color="#161616"/>
<stop offset="0.83" stop-color="#000505"/>
<stop offset="0.96"/>
</radialGradient>
<radialGradient id="paint30_radial_643_26" cx="0" cy="0" r="1" gradientUnits="userSpaceOnUse" gradientTransform="translate(143.714 100.894) scale(2.37969 2.37509)">
<stop offset="0.32" stop-color="white"/>
<stop offset="0.56" stop-color="#C6C6C6"/>
<stop offset="0.73" stop-color="#6A6A6A"/>
<stop offset="0.87" stop-color="#000505"/>
<stop offset="0.96"/>
</radialGradient>
<radialGradient id="paint31_radial_643_26" cx="0" cy="0" r="1" gradientUnits="userSpaceOnUse" gradientTransform="translate(112.363 109.495) rotate(-43.3311) scale(6.71114 6.7104)">
<stop offset="0.1" stop-color="white"/>
<stop offset="0.36" stop-color="#7A7A7A"/>
<stop offset="0.57" stop-color="#2A2A2A"/>
<stop offset="0.66" stop-color="#161616"/>
<stop offset="0.83" stop-color="#000505"/>
<stop offset="0.96"/>
</radialGradient>
<radialGradient id="paint32_radial_643_26" cx="0" cy="0" r="1" gradientUnits="userSpaceOnUse" gradientTransform="translate(112.086 106.549) scale(2.37969 2.37509)">
<stop offset="0.32" stop-color="white"/>
<stop offset="0.56" stop-color="#C6C6C6"/>
<stop offset="0.73" stop-color="#6A6A6A"/>
<stop offset="0.87" stop-color="#000505"/>
<stop offset="0.96"/>
</radialGradient>
<radialGradient id="paint33_radial_643_26" cx="0" cy="0" r="1" gradientUnits="userSpaceOnUse" gradientTransform="translate(104.293 48.8731) rotate(-43.3312) scale(8.58542 8.58447)">
<stop offset="0.1" stop-color="white"/>
<stop offset="0.36" stop-color="#7A7A7A"/>
<stop offset="0.57" stop-color="#2A2A2A"/>
<stop offset="0.66" stop-color="#161616"/>
<stop offset="0.83" stop-color="#000505"/>
<stop offset="0.96"/>
</radialGradient>
<radialGradient id="paint34_radial_643_26" cx="0" cy="0" r="1" gradientUnits="userSpaceOnUse" gradientTransform="translate(104.103 46.1473) scale(3.04239 3.03651)">
<stop offset="0.32" stop-color="white"/>
<stop offset="0.56" stop-color="#C6C6C6"/>
<stop offset="0.73" stop-color="#6A6A6A"/>
<stop offset="0.87" stop-color="#000505"/>
<stop offset="0.96"/>
</radialGradient>
<radialGradient id="paint35_radial_643_26" cx="0" cy="0" r="1" gradientUnits="userSpaceOnUse" gradientTransform="translate(8.37779 117.252) rotate(-43.3312) scale(8.58543 8.58448)">
<stop offset="0.1" stop-color="white"/>
<stop offset="0.36" stop-color="#7A7A7A"/>
<stop offset="0.57" stop-color="#2A2A2A"/>
<stop offset="0.66" stop-color="#161616"/>
<stop offset="0.83" stop-color="#000505"/>
<stop offset="0.96"/>
</radialGradient>
<radialGradient id="paint36_radial_643_26" cx="0" cy="0" r="1" gradientUnits="userSpaceOnUse" gradientTransform="translate(8.55432 114.186) scale(3.04239 3.03651)">
<stop offset="0.32" stop-color="white"/>
<stop offset="0.56" stop-color="#C6C6C6"/>
<stop offset="0.73" stop-color="#6A6A6A"/>
<stop offset="0.87" stop-color="#000505"/>
<stop offset="0.96"/>
</radialGradient>
<radialGradient id="paint37_radial_643_26" cx="0" cy="0" r="1" gradientUnits="userSpaceOnUse" gradientTransform="translate(19.6168 201.349) rotate(-43.3312) scale(8.58542 8.58447)">
<stop offset="0.1" stop-color="white"/>
<stop offset="0.36" stop-color="#7A7A7A"/>
<stop offset="0.57" stop-color="#2A2A2A"/>
<stop offset="0.66" stop-color="#161616"/>
<stop offset="0.83" stop-color="#000505"/>
<stop offset="0.96"/>
</radialGradient>
<radialGradient id="paint38_radial_643_26" cx="0" cy="0" r="1" gradientUnits="userSpaceOnUse" gradientTransform="translate(19.6996 197.886) scale(3.04239 3.03651)">
<stop offset="0.32" stop-color="white"/>
<stop offset="0.56" stop-color="#C6C6C6"/>
<stop offset="0.73" stop-color="#6A6A6A"/>
<stop offset="0.87" stop-color="#000505"/>
<stop offset="0.96"/>
</radialGradient>
<radialGradient id="paint39_radial_643_26" cx="0" cy="0" r="1" gradientUnits="userSpaceOnUse" gradientTransform="translate(79.9446 234.324) rotate(-43.3312) scale(8.58542 8.58447)">
<stop offset="0.1" stop-color="white"/>
<stop offset="0.36" stop-color="#7A7A7A"/>
<stop offset="0.57" stop-color="#2A2A2A"/>
<stop offset="0.66" stop-color="#161616"/>
<stop offset="0.83" stop-color="#000505"/>
<stop offset="0.96"/>
</radialGradient>
<radialGradient id="paint40_radial_643_26" cx="0" cy="0" r="1" gradientUnits="userSpaceOnUse" gradientTransform="translate(79.734 230.775) scale(3.04239 3.03651)">
<stop offset="0.32" stop-color="white"/>
<stop offset="0.56" stop-color="#C6C6C6"/>
<stop offset="0.73" stop-color="#6A6A6A"/>
<stop offset="0.87" stop-color="#000505"/>
<stop offset="0.96"/>
</radialGradient>
<radialGradient id="paint41_radial_643_26" cx="0" cy="0" r="1" gradientUnits="userSpaceOnUse" gradientTransform="translate(95.2582 262.804) rotate(-43.3312) scale(8.58542 8.58447)">
<stop offset="0.1" stop-color="white"/>
<stop offset="0.36" stop-color="#7A7A7A"/>
<stop offset="0.57" stop-color="#2A2A2A"/>
<stop offset="0.66" stop-color="#161616"/>
<stop offset="0.83" stop-color="#000505"/>
<stop offset="0.96"/>
</radialGradient>
<radialGradient id="paint42_radial_643_26" cx="0" cy="0" r="1" gradientUnits="userSpaceOnUse" gradientTransform="translate(94.9461 259.126) scale(3.04239 3.03651)">
<stop offset="0.32" stop-color="white"/>
<stop offset="0.56" stop-color="#C6C6C6"/>
<stop offset="0.73" stop-color="#6A6A6A"/>
<stop offset="0.87" stop-color="#000505"/>
<stop offset="0.96"/>
</radialGradient>
<radialGradient id="paint43_radial_643_26" cx="0" cy="0" r="1" gradientUnits="userSpaceOnUse" gradientTransform="translate(122.501 124.945) rotate(-43.3311) scale(6.71114 6.7104)">
<stop offset="0.1" stop-color="white"/>
<stop offset="0.36" stop-color="#7A7A7A"/>
<stop offset="0.57" stop-color="#2A2A2A"/>
<stop offset="0.66" stop-color="#161616"/>
<stop offset="0.83" stop-color="#000505"/>
<stop offset="0.96"/>
</radialGradient>
<radialGradient id="paint44_radial_643_26" cx="0" cy="0" r="1" gradientUnits="userSpaceOnUse" gradientTransform="translate(122.177 121.91) scale(2.37969 2.37509)">
<stop offset="0.32" stop-color="white"/>
<stop offset="0.56" stop-color="#C6C6C6"/>
<stop offset="0.73" stop-color="#6A6A6A"/>
<stop offset="0.87" stop-color="#000505"/>
<stop offset="0.96"/>
</radialGradient>
<radialGradient id="paint45_radial_643_26" cx="0" cy="0" r="1" gradientUnits="userSpaceOnUse" gradientTransform="translate(83.0089 29.4336) rotate(-43.3312) scale(6.71114 6.7104)">
<stop offset="0.1" stop-color="white"/>
<stop offset="0.36" stop-color="#7A7A7A"/>
<stop offset="0.57" stop-color="#2A2A2A"/>
<stop offset="0.66" stop-color="#161616"/>
<stop offset="0.83" stop-color="#000505"/>
<stop offset="0.96"/>
</radialGradient>
<radialGradient id="paint46_radial_643_26" cx="0" cy="0" r="1" gradientUnits="userSpaceOnUse" gradientTransform="translate(82.957 26.7884) scale(2.37969 2.3751)">
<stop offset="0.32" stop-color="white"/>
<stop offset="0.56" stop-color="#C6C6C6"/>
<stop offset="0.73" stop-color="#6A6A6A"/>
<stop offset="0.87" stop-color="#000505"/>
<stop offset="0.96"/>
</radialGradient>
<radialGradient id="paint47_radial_643_26" cx="0" cy="0" r="1" gradientUnits="userSpaceOnUse" gradientTransform="translate(79.4292 9.16708) rotate(-43.3312) scale(6.71114 6.7104)">
<stop offset="0.1" stop-color="white"/>
<stop offset="0.36" stop-color="#7A7A7A"/>
<stop offset="0.57" stop-color="#2A2A2A"/>
<stop offset="0.66" stop-color="#161616"/>
<stop offset="0.83" stop-color="#000505"/>
<stop offset="0.96"/>
</radialGradient>
<radialGradient id="paint48_radial_643_26" cx="0" cy="0" r="1" gradientUnits="userSpaceOnUse" gradientTransform="translate(79.3725 6.61395) scale(2.37969 2.3751)">
<stop offset="0.32" stop-color="white"/>
<stop offset="0.56" stop-color="#C6C6C6"/>
<stop offset="0.73" stop-color="#6A6A6A"/>
<stop offset="0.87" stop-color="#000505"/>
<stop offset="0.96"/>
</radialGradient>
<clipPath id="clip0_643_26">
<rect width="100.59" height="58.3464" fill="white" transform="matrix(-0.707474 -0.706739 -0.707474 0.706739 212.079 150.587)"/>
</clipPath>
</defs>
</svg>
