<svg width="64" height="75" viewBox="0 0 64 75" fill="none" xmlns="http://www.w3.org/2000/svg">
<circle cx="32" cy="43" r="32" fill="#424B78"/>
<path d="M32.0938 65.3008C33.4062 65.3008 34.5365 64.8268 35.4844 63.8789C36.4505 62.931 36.9336 61.8008 36.9336 60.4883C36.9336 59.1758 36.4505 58.0729 35.4844 57.1797C34.5365 56.2682 33.4062 55.8125 32.0938 55.8125C30.7812 55.8125 29.6419 56.2682 28.6758 57.1797C27.7096 58.0729 27.2266 59.1758 27.2266 60.4883C27.2266 61.8008 27.7096 62.931 28.6758 63.8789C29.6419 64.8268 30.7812 65.3008 32.0938 65.3008ZM28.6484 39.707C28.5755 39.2148 28.5117 38.6862 28.457 38.1211C28.4023 37.5378 28.375 36.9909 28.375 36.4805C28.375 35.1315 28.6667 33.9831 29.25 33.0352C29.8516 32.069 30.8815 31.5859 32.3398 31.5859C33.7253 31.5859 34.7643 32.0143 35.457 32.8711C36.168 33.7096 36.5234 34.776 36.5234 36.0703C36.5234 37.4375 36.2227 38.6042 35.6211 39.5703C35.0378 40.5182 34.1081 41.5299 32.832 42.6055C31.8659 43.444 31 44.2734 30.2344 45.0938C29.487 45.8958 28.8945 46.8073 28.457 47.8281C28.0378 48.8307 27.8281 50.0977 27.8281 51.6289H36.5781C36.5781 49.9336 36.9701 48.5938 37.7539 47.6094C38.5378 46.625 39.4401 45.6953 40.4609 44.8203C41.2448 44.1276 42.0013 43.3802 42.7305 42.5781C43.4596 41.7578 44.0612 40.7643 44.5352 39.5977C45.0091 38.4128 45.2461 36.918 45.2461 35.1133C45.2461 33.3268 44.7539 31.5951 43.7695 29.918C42.7852 28.2227 41.3542 26.8281 39.4766 25.7344C37.599 24.6224 35.3203 24.0664 32.6406 24.0664C30.1068 24.0664 27.9102 24.5221 26.0508 25.4336C24.2096 26.3268 22.7878 27.6029 21.7852 29.2617C20.8008 30.9023 20.3086 32.8529 20.3086 35.1133C20.3086 35.7695 20.3542 36.526 20.4453 37.3828C20.5547 38.2214 20.7005 39.0143 20.8828 39.7617L28.6484 39.707Z" fill="#D1D1D1"/>
</svg>
