<svg width="160" height="204" viewBox="0 0 160 204" fill="none" xmlns="http://www.w3.org/2000/svg">
<g clip-path="url(#clip0_643_27)">
<path d="M23.5368 184.392C23.5368 184.392 28.594 173.667 29.4396 166.911C30.2852 160.155 31.3056 157.694 33.0756 155.501C33.0756 155.501 29.8956 156.251 29.1415 156.007C29.1415 156.007 31.9958 150.905 33.6782 147.631C36.8777 141.402 42.3758 131.577 60.7451 132.204L84.196 164.822C84.196 164.822 81.7294 178.729 65.9452 185.097C51.4812 190.932 30.8884 182.72 23.5368 184.392V184.392Z" fill="url(#paint0_linear_643_27)"/>
<path d="M53.2933 188.079C47.3805 188.079 41.3731 187.098 36.096 186.237C30.8377 185.379 26.2972 184.639 23.726 185.222C23.4078 185.294 23.0764 185.18 22.8716 184.926C22.6668 184.672 22.6255 184.325 22.7639 184.03C22.814 183.924 27.7735 173.348 28.5922 166.805C29.2624 161.448 30.0485 158.733 31.1803 156.749C30.252 156.895 29.3488 156.969 28.8772 156.816C28.6341 156.737 28.4393 156.554 28.346 156.317C28.2527 156.08 28.2708 155.814 28.3949 155.592C28.423 155.541 31.2611 150.465 32.9166 147.243C35.888 141.459 41.4163 130.695 60.7721 131.353C61.0364 131.362 61.2819 131.493 61.436 131.707L84.8869 164.325C85.021 164.511 85.0736 164.743 85.0335 164.969C84.9295 165.556 82.3001 179.415 66.2627 185.885C62.2396 187.508 57.7925 188.076 53.2908 188.077L53.2933 188.079ZM25.9834 183.315C28.7613 183.315 32.3647 183.904 36.3716 184.557C45.4557 186.04 56.7608 187.886 65.6251 184.309C79.4075 178.749 82.7723 167.139 83.2816 165.011L60.2973 133.042C42.3608 132.586 37.2134 142.614 34.4367 148.02C33.2874 150.257 31.578 153.371 30.6141 155.111C31.2943 155.011 32.1399 154.848 32.879 154.673C33.2341 154.589 33.6024 154.74 33.7966 155.048C33.9908 155.355 33.9682 155.752 33.7396 156.035C32.1073 158.057 31.1245 160.311 30.2858 167.016C29.6075 172.438 26.3542 180.186 24.9499 183.346C25.28 183.325 25.6245 183.315 25.9827 183.315H25.9834Z" fill="#371A45"/>
<path d="M59.7824 138.937C59.7824 138.937 53.852 138.498 48.6795 141.685C44.2637 144.405 42.9728 147.455 42.6088 150.167C42.2449 152.88 42.1792 156.126 39.8034 157.951C39.8034 157.951 41.6862 158.457 42.9208 157.858C42.9208 157.858 39.0023 163.993 41.3849 171.196C41.3849 171.196 43.8365 171.359 45.8816 171.875C47.9266 172.391 54.6788 172.817 56.5015 172.852C56.5015 172.852 54.0687 174.757 53.9572 175.579C53.9572 175.579 56.9362 175.282 59.3702 175.952C61.8043 176.622 74.1048 176.789 76.1335 165.386C78.1623 153.982 59.7824 138.937 59.7824 138.937Z" fill="#FFAC48"/>
<path d="M28.1305 160.377C28.1305 160.377 27.4077 162.058 27.2799 164.251C27.1522 166.445 26.3736 169.845 22.9725 171.968C19.5713 174.092 18.2647 173.697 18.2647 173.697C18.2647 173.697 21.0207 171.883 21.7567 168.898C22.4927 165.913 23.6909 161.501 28.1305 160.377Z" fill="url(#paint1_linear_643_27)"/>
<path d="M18.5585 174.575C18.2704 174.575 18.095 174.535 18.0173 174.512C17.701 174.416 17.468 174.147 17.4204 173.82C17.3728 173.493 17.5187 173.169 17.795 172.987C17.8181 172.972 20.2841 171.308 20.928 168.696C21.6057 165.947 22.8666 160.833 27.9201 159.553C28.2345 159.474 28.5677 159.579 28.7788 159.825C28.9893 160.071 29.0419 160.414 28.9147 160.712C28.9041 160.737 28.2477 162.303 28.1312 164.301C27.9808 166.881 27.0426 170.432 23.4247 172.69C20.8529 174.296 19.3158 174.575 18.5579 174.575H18.5585ZM26.7864 161.819C24.2371 163.259 23.2794 166.289 22.5854 169.102C22.3054 170.238 21.7705 171.215 21.1861 172.01C21.5826 171.807 22.026 171.557 22.5202 171.248C25.5205 169.375 26.3016 166.383 26.4287 164.203C26.4807 163.304 26.6266 162.486 26.7864 161.819Z" fill="#371A45"/>
<path d="M21.8099 181.301C21.8099 181.301 16.5924 184.259 15.2407 188.286C13.8896 192.312 13.8971 193.358 12.3557 194.058C12.3557 194.058 16.0011 194.172 18.6581 191.962C21.3157 189.752 23.3251 187.202 26.2208 187.048C26.2208 187.048 22.524 186.174 19.7473 187.183C19.7473 187.183 20.0436 184.232 21.8093 181.301H21.8099Z" fill="url(#paint2_linear_643_27)"/>
<path d="M12.4559 194.911C12.387 194.911 12.3438 194.909 12.3293 194.909C11.9329 194.897 11.5978 194.614 11.5195 194.227C11.4412 193.839 11.6416 193.449 12.0024 193.285C12.858 192.896 13.0215 192.449 13.7481 190.137C13.9391 189.529 14.1552 188.842 14.432 188.016C15.8702 183.73 21.1635 180.689 21.3884 180.561C21.7254 180.371 22.1494 180.429 22.42 180.706C22.6912 180.983 22.7407 181.407 22.5409 181.739C21.5801 183.335 21.0783 184.952 20.8272 186.021C23.493 185.544 26.2809 186.188 26.4181 186.22C26.8308 186.318 27.1089 186.703 27.0707 187.124C27.0325 187.545 26.6899 187.875 26.2665 187.898C24.3273 188.001 22.7608 189.427 20.9468 191.078C20.3919 191.583 19.8175 192.106 19.2049 192.615C16.5867 194.793 13.1649 194.911 12.4559 194.911ZM19.6828 183.851C18.2716 185.024 16.6794 186.68 16.0499 188.556C15.7781 189.366 15.5645 190.045 15.376 190.646C15.0741 191.607 14.8385 192.356 14.5611 192.956C15.6603 192.713 16.9945 192.239 18.1119 191.309C18.695 190.824 19.255 190.315 19.7962 189.822C20.7013 188.998 21.5832 188.195 22.519 187.555C21.6878 187.583 20.8172 187.701 20.0392 187.984C19.763 188.084 19.4554 188.036 19.2237 187.856C18.9919 187.677 18.8692 187.39 18.898 187.099C18.9068 187.014 19.0514 185.651 19.6822 183.852L19.6828 183.851Z" fill="#371A45"/>
<path d="M73.3638 168.485C73.3638 168.485 72.4105 166.36 73.3876 164.494C74.3647 162.628 76.5426 163.967 76.5426 163.967L79.1939 165.932L78.7937 168.037L73.3644 168.485H73.3638Z" fill="#B2B2B2"/>
<path d="M53.7919 141.262C53.7919 141.262 55.5037 142.845 57.5889 142.52C59.6747 142.196 59.1022 139.709 59.1022 139.709L58.0862 136.575L55.9591 136.277L53.7919 141.262Z" fill="#B2B2B2"/>
<path d="M73.3638 169.336C73.0299 169.336 72.7236 169.141 72.5852 168.832C72.5395 168.731 71.4759 166.307 72.6309 164.101C72.9961 163.404 73.5523 162.935 74.2394 162.746C75.5435 162.389 76.8451 163.154 76.9891 163.242C77.0104 163.256 77.0305 163.269 77.0505 163.284L79.7019 165.25C79.9644 165.444 80.0921 165.771 80.0314 166.091L79.6311 168.196C79.5597 168.572 79.2453 168.854 78.8632 168.885L73.4339 169.333C73.4101 169.335 73.3869 169.336 73.3631 169.336H73.3638ZM74.9641 164.353C74.8689 164.353 74.7762 164.364 74.6892 164.388C74.5463 164.428 74.3353 164.523 74.1436 164.889C73.6406 165.849 73.7935 166.939 73.9607 167.582L78.0759 167.243L78.2556 166.298L76.0696 164.677C75.8805 164.57 75.3976 164.353 74.9641 164.353Z" fill="#371A45"/>
<path d="M82.0952 101.558L64.6699 89.4775C64.6699 89.4775 58.6606 86.6014 55.5682 89.6175C52.4765 92.6335 41.8929 108.404 41.8929 108.404C41.8929 108.404 51.1831 102.646 58.3593 101.965C65.5349 101.284 74.6923 110.491 74.6923 110.491" fill="#DB3E3E"/>
<path d="M74.6923 111.342C74.4731 111.342 74.2538 111.258 74.0866 111.091C73.9977 111.002 65.1278 102.177 58.4401 102.812C51.5501 103.466 42.4347 109.071 42.3433 109.127C42.0025 109.339 41.5591 109.284 41.2797 108.996C41.0004 108.708 40.9609 108.264 41.1839 107.931C41.6179 107.284 51.8527 92.0525 54.972 89.0096C58.4508 85.6156 64.7714 88.5823 65.0388 88.7104C65.0802 88.7297 65.119 88.7529 65.1566 88.7791L82.5819 100.86C82.969 101.128 83.0642 101.658 82.7955 102.044C82.5268 102.43 81.995 102.525 81.6079 102.257L64.244 90.219C63.6564 89.9548 58.6456 87.8058 56.1645 90.2259C53.9867 92.3505 47.8565 101.17 44.6358 105.881C48.0325 104.095 53.5482 101.567 58.2779 101.118C65.7742 100.405 74.9115 109.504 75.2973 109.892C75.6293 110.225 75.6268 110.764 75.2923 111.095C75.1257 111.259 74.9084 111.342 74.6917 111.342L74.6923 111.342Z" fill="#371A45"/>
<path d="M78.2563 104.695L59.3183 88.9121C59.3183 88.9121 56.93 88.3674 54.4126 90.3839C51.7349 92.5292 44.1917 100.537 42.6452 104.364C42.2199 105.416 41.8936 108.404 41.8936 108.404C41.8936 108.404 46.5743 104.397 49.6153 102.16C52.6563 99.9238 54.1232 99.0848 54.7978 100.461C55.5056 101.904 63.9057 123.531 63.984 125.824C64.0623 128.117 78.2563 104.695 78.2563 104.695Z" fill="#F75252"/>
<path d="M78.255 104.695C78.255 104.695 70.4074 117.643 66.3523 123.344C64.953 125.309 64.0035 126.412 63.9834 125.825C63.9039 123.531 55.5044 101.904 54.796 100.46C54.122 99.0848 52.6551 99.9244 49.6153 102.159C46.5731 104.397 41.8923 108.404 41.8923 108.404C41.8923 108.404 42.2193 105.414 42.6427 104.362C44.1898 100.537 51.7331 92.5279 54.412 90.3839C56.9287 88.3674 59.317 88.9121 59.317 88.9121L60.3349 89.7599L78.2544 104.694L78.255 104.695Z" fill="#FF2727"/>
<g opacity="0.7">
<path d="M78.255 104.695C78.255 104.695 78.0984 104.956 77.8141 105.418L60.9493 91.3629L59.9315 90.5152C59.9315 90.5152 57.5432 89.9704 55.0265 91.987C52.3481 94.1309 44.8043 102.14 43.2571 105.965C43.1093 106.337 42.9696 106.952 42.8563 107.588C42.2619 108.09 41.8923 108.404 41.8923 108.404C41.8923 108.404 42.2193 105.415 42.6427 104.363C44.1898 100.537 51.7331 92.5286 54.412 90.3846C56.9287 88.368 59.317 88.9128 59.317 88.9128L60.3349 89.7605L78.2544 104.695H78.255Z" fill="white"/>
</g>
<g opacity="0.2">
<path d="M78.255 104.695C78.255 104.695 70.4074 117.644 66.3523 123.344C63.2362 116.365 58.001 102.707 60.3355 89.7605L78.255 104.695Z" fill="#371A45"/>
</g>
<path d="M64.1481 126.854C64.0417 126.854 63.9452 126.829 63.845 126.803C63.528 126.72 63.151 126.422 63.1315 125.853C63.0639 123.877 54.9976 102.804 54.0318 100.835C53.9817 100.733 53.9253 100.657 53.8934 100.649C53.3033 100.507 51.0741 102.145 50.122 102.846C47.1418 105.038 42.4961 109.01 42.4491 109.05C42.1836 109.277 41.8052 109.319 41.4958 109.157C41.1864 108.994 41.0079 108.659 41.0455 108.312C41.0799 107.994 41.3975 105.175 41.8541 104.046C43.4745 100.037 51.1286 91.9238 53.8783 89.7205C56.6857 87.4716 59.3947 88.0563 59.5087 88.0825C59.6396 88.1125 59.7624 88.1731 59.8657 88.2587L78.8037 104.042C79.1269 104.311 79.2046 104.775 78.9866 105.135C78.954 105.189 75.6738 110.598 72.299 115.902C66.0654 125.698 64.8716 126.853 64.1488 126.853L64.1481 126.854ZM53.8345 98.9411C53.9942 98.9411 54.1483 98.9599 54.2992 98.9967C54.8492 99.131 55.2751 99.4984 55.5639 100.088C56.0806 101.142 63.0056 118.821 64.5377 124.374C66.7037 121.635 72.2269 112.977 77.147 104.88L58.9512 89.7155C58.4144 89.6555 56.7395 89.6118 54.9469 91.0474C52.3738 93.1089 44.9326 100.98 43.4363 104.682C43.2985 105.024 43.1632 105.652 43.0486 106.316C44.7022 104.934 47.2258 102.861 49.1086 101.476C51.4123 99.782 52.7546 98.9411 53.8339 98.9411H53.8345Z" fill="#371A45"/>
<path d="M85.6805 47.9772L84.8136 53.0754L84.3733 55.6723L76.7636 100.458C76.7636 100.458 73.7978 99.7551 69.895 98.4864C69.1314 98.2384 68.3316 97.9691 67.5117 97.6786C61.4003 95.5196 54.1464 92.2175 52.0631 88.2106C48.9495 82.2197 54.0612 58.1187 60.2196 49.6102C63.0413 45.7089 72.4568 46.0869 79.0117 46.8927C79.7445 46.9815 80.4423 47.077 81.0893 47.1732C83.8208 47.5743 85.6811 47.976 85.6811 47.976L85.6805 47.9772Z" fill="white"/>
<path d="M84.8136 53.0754L84.3733 55.6723L78.3308 91.2323L76.763 100.457C76.763 100.457 76.701 100.442 76.5839 100.414C76.5507 100.405 76.5106 100.395 76.4686 100.385C76.4354 100.376 76.3978 100.367 76.3602 100.357C76.3314 100.351 76.3026 100.343 76.2738 100.337C76.2632 100.333 76.2494 100.331 76.2387 100.327C76.1855 100.314 76.126 100.299 76.064 100.282C76.0502 100.28 76.037 100.276 76.022 100.272C75.9713 100.258 75.918 100.245 75.8604 100.231C75.7827 100.211 75.7032 100.19 75.6193 100.167C75.5598 100.151 75.4952 100.136 75.4314 100.118C75.365 100.101 75.2986 100.082 75.2303 100.064C75.1439 100.042 75.0537 100.016 74.961 99.9932C74.7737 99.9413 74.5745 99.8882 74.3653 99.8289C74.1799 99.7795 73.9857 99.7245 73.7828 99.6664C73.5491 99.5996 73.3042 99.5309 73.0512 99.4572C72.1148 99.1848 71.0462 98.86 69.8943 98.4858C69.6707 98.4133 69.4427 98.3377 69.2122 98.2615C69.0519 98.2084 68.8878 98.1528 68.7237 98.0972C68.3272 97.9629 67.92 97.8229 67.511 97.678C61.3971 95.5184 54.1458 92.2169 52.0644 88.2106C49.4988 83.2774 52.5097 66.0649 57.0947 55.3887C54.4101 65.0017 53.1749 75.6903 55.1085 79.4079C56.0643 81.2464 62.4914 77.0309 63.0933 73.8887C64.6448 65.7857 68.2007 55.7161 76.8388 51.2288C77.063 51.112 81.1933 52.6419 84.813 53.0748L84.8136 53.0754Z" fill="#D8D8D8"/>
<path d="M77.6831 101.843L76.5018 101.563C75.6274 101.356 55.0365 96.3974 51.0534 88.7341C48.7146 84.235 50.843 72.9672 51.5508 69.6207C53.3898 60.928 56.3581 53.0055 59.2963 48.9461C64.0629 42.3612 83.6987 46.3892 85.9217 46.8696L86.9833 47.0995L77.6831 101.844V101.843ZM71.2329 47.4956C66.7312 47.4956 62.6611 48.1728 61.141 50.2736C55.3039 58.3386 50.1765 82.1173 53.0728 87.6896C55.8 92.9359 69.469 97.4119 75.8485 99.0624L84.3758 48.8687C81.1513 48.2409 75.955 47.4956 71.2329 47.4956Z" fill="#371A45"/>
<path d="M54.494 69.6651L62.8891 72.2432C63.6389 72.4731 64.1425 73.1884 64.1124 73.9861C64.0022 76.906 63.4046 83.6359 60.2572 85.1933C57.6452 86.4858 54.0806 85.4613 52.3613 83.1593C50.4377 80.5842 51.5977 74.1129 52.3243 70.9438C52.5504 69.9587 53.5438 69.3733 54.4947 69.6657L54.494 69.6651Z" fill="white"/>
<path d="M64.1112 73.9874C64.0028 76.9066 63.4034 83.6366 60.2565 85.1927C57.644 86.4858 54.0806 85.4613 52.36 83.1587C51.1781 81.5744 51.1618 78.5165 51.4931 75.6603C51.5752 77.1428 51.9335 78.4128 52.5229 79.3261C55.9021 84.558 60.2027 80.2575 60.2027 80.2575C60.2027 80.2575 60.4958 81.6031 60.9249 81.7724C62.72 82.4802 63.6201 76.4656 64.0153 73.3421C64.0861 73.5432 64.1205 73.7606 64.1112 73.9874Z" fill="#D8D8D8"/>
<path d="M57.7279 86.8912C55.3509 86.8912 52.9018 85.7824 51.4487 83.8371C49.3942 81.0871 50.1878 75.1699 51.215 70.6908C51.3942 69.9087 51.8934 69.2321 52.583 68.8348C53.262 68.4444 54.08 68.3519 54.8285 68.5812L63.2236 71.1593C64.4651 71.5404 65.2981 72.7205 65.2486 74.0286C65.1058 77.8193 64.3329 84.4424 60.7626 86.2091C59.8281 86.6713 58.7852 86.8906 57.7285 86.8906L57.7279 86.8912ZM53.9967 70.7245C53.8733 70.7245 53.7756 70.767 53.7205 70.7995C53.6359 70.8482 53.4856 70.9644 53.4323 71.1968C52.169 76.7054 52.1088 80.9241 53.2726 82.4815C54.7214 84.4212 57.6885 85.1983 59.7511 84.1775C61.5349 83.2948 62.7707 79.3736 62.9749 73.9443C62.9856 73.6613 62.8127 73.4076 62.554 73.3283L54.1589 70.7502C54.1013 70.7327 54.0468 70.7252 53.9967 70.7252V70.7245Z" fill="#371A45"/>
<path d="M55.5087 84.4918C58.2027 83.6584 59.5719 80.7448 60.2553 78.1835C60.5077 77.244 60.7545 76.2451 60.7582 75.278C60.7526 74.9113 61.3 74.8626 61.3545 75.2305C61.4773 76.3013 61.3389 77.332 61.1873 78.3828C60.8616 80.5024 60.2584 82.607 58.8516 84.31C58.1056 85.2183 57.1416 86.0366 56.006 86.4327C54.7157 86.7263 54.2328 84.8528 55.5087 84.4924V84.4918Z" fill="#371A45"/>
<path d="M73.0788 52.4026C69.0619 51.3144 64.8622 50.1887 60.6919 50.17C59.1899 50.1675 59.1222 47.9885 60.628 47.8998C64.026 48.1278 67.1991 49.1567 70.3929 50.1943C71.4227 50.5435 72.4393 50.904 73.4602 51.2969C73.7628 51.4131 73.9131 51.7517 73.7966 52.0534C73.6851 52.3414 73.3694 52.4914 73.0788 52.4026Z" fill="#371A45"/>
<path d="M38.5099 32.2359C38.81 31.4763 39.1795 31.1096 39.1795 31.1096C39.1795 31.1096 38.9497 31.5981 38.5099 32.2359Z" fill="#D8D8D8"/>
<path d="M86.6432 55.8797C86.6432 55.8797 59.6972 29.9133 40.7711 25.2174C35.8573 23.998 29.858 22.1539 29.61 27.2027C27.1897 29.0743 25.5293 33.977 26.9123 36.9075C28.0002 39.2126 31.2385 40.1041 34.6077 42.3318C37.9769 44.5595 61.4015 59.2662 72.3347 75.6909" fill="white"/>
<path d="M86.6426 55.8803L74.8238 72.2413L72.3334 75.6897C72.247 75.5604 72.1605 75.4348 72.0716 75.3055C61.0389 59.0363 37.95 44.5413 34.609 42.3311C31.2373 40.1028 27.9984 39.2114 26.9104 36.9062C25.8625 34.6842 26.5653 31.3276 28.0197 29.0193C28.485 28.2847 29.0243 27.6544 29.61 27.2027C29.8568 22.1526 35.8567 23.9967 40.7724 25.2174C59.6978 29.9139 86.642 55.8803 86.642 55.8803H86.6426Z" fill="white"/>
<path d="M84.7297 54.2749L80.2882 60.4232C74.5075 56.0303 70.7256 49.4197 70.4211 41.9751C78.6759 48.4439 84.7297 54.2749 84.7297 54.2749Z" fill="#E5E5E5"/>
<path d="M111.413 62.1074C107.276 64.575 102.367 66.0012 97.1016 66.0012C96.6782 66.0012 96.2598 65.9924 95.842 65.973L96.0982 51.7848C96.0982 51.7848 103.457 55.7579 111.413 62.1074H111.413Z" fill="#E5E5E5"/>
<path d="M103.428 65.2921C101.401 65.7575 99.2826 66.0012 97.1016 66.0012C86.8994 66.0012 78.0358 60.6468 73.5404 52.7743C78.4567 49.1698 86.0119 45.7895 94.3631 49.7739C105.794 55.2332 104.503 62.4504 103.428 65.2921H103.428Z" fill="#D8D8D8"/>
<path d="M79.7376 66.5159L72.3334 75.6903C72.247 75.561 72.1605 75.4354 72.0716 75.3061C61.0389 59.0369 37.95 44.542 34.609 42.3318C31.2373 40.1034 27.9984 39.212 26.9104 36.9068C25.8625 34.6848 26.5653 31.3282 28.0197 29.02C29.3663 31.4607 30.9354 34.4817 32.5871 34.9796C35.484 35.8492 37.5272 33.6671 38.5106 32.2347C37.6355 34.463 38.1529 39.7467 50.092 49.023C63.9665 59.796 72.039 64.9085 79.7376 66.5159Z" fill="#D8D8D8"/>
<path d="M72.3353 76.8248C71.967 76.8248 71.6056 76.6467 71.3863 76.3175C66.7375 69.3333 56.6049 58.0181 34.7349 43.7711C34.4229 43.5681 34.1693 43.4025 33.9782 43.2763C32.909 42.5698 31.8605 42.0063 30.8458 41.4616C28.6592 40.2871 26.7701 39.2726 25.8819 37.3898C24.2897 34.0157 25.9878 28.95 28.5164 26.6392C28.6798 25.3236 29.2216 24.3185 30.1324 23.6469C32.4386 21.9452 36.3565 22.9335 40.1454 23.8905C40.4479 23.9668 40.7486 24.043 41.0448 24.1161C60.0486 28.8313 86.3238 53.9944 87.4325 55.0632C87.8841 55.4987 87.8966 56.2164 87.46 56.6675C87.0234 57.1179 86.3038 57.1304 85.8515 56.695C85.5841 56.4376 58.9055 30.886 40.4949 26.3181C40.1955 26.2438 39.8923 26.1676 39.5867 26.0901C36.6183 25.3405 32.9247 24.4078 31.4847 25.471C31.3175 25.5947 30.8076 25.9708 30.7443 27.2577C30.728 27.5888 30.5677 27.8955 30.3053 28.0985C28.2921 29.6559 26.7826 33.9733 27.9395 36.424C28.5082 37.6296 30.0152 38.4393 31.9238 39.4638C32.9341 40.006 34.0785 40.6213 35.2347 41.3854C35.422 41.509 35.6719 41.6715 35.9782 41.8714C58.1727 56.3295 68.5139 67.9009 73.2805 75.0625C73.6281 75.5841 73.4853 76.2888 72.9616 76.6349C72.7681 76.7629 72.5495 76.8242 72.3334 76.8242L72.3353 76.8248Z" fill="#371A45"/>
<path d="M50.0939 29.0718C50.0939 29.0718 48.2806 20.7133 44.4892 21.2862C41.8159 21.6903 42.4535 26.1713 42.1811 27.4276C42.0144 27.8287 39.6869 28.4859 37.0349 34.7985" fill="white"/>
<path d="M48.9821 29.3117C48.6213 28.0186 48.1659 26.6692 47.5809 25.4623C47.0911 24.4384 46.3877 23.1965 45.4657 22.6711C43.2935 21.6122 43.5346 25.6797 43.3893 26.9609C43.3611 27.3145 43.3198 27.893 43.0204 28.2054C42.9032 28.3459 42.7911 28.4327 42.6846 28.5146C41.5835 29.2549 40.7223 30.2013 39.928 31.2801C39.0599 32.4608 38.3095 33.7421 37.5598 35.0184C37.3994 35.292 37.0449 35.3838 36.7718 35.2214C36.5457 35.0871 36.4455 34.8216 36.5112 34.5798C36.7148 33.8302 36.9754 33.0962 37.2666 32.3684C38.1391 30.2244 39.4282 28.1191 41.316 26.7161C41.1908 26.8216 41.1119 27.0284 41.0705 27.1883C41.1851 25.6891 41.0304 24.2835 41.4883 22.743C42.0796 20.4465 44.5149 19.3115 46.6451 20.4697C47.554 20.9644 48.1565 21.6497 48.6482 22.3256C49.7995 23.9736 50.4346 25.8009 50.952 27.6975C51.0453 28.0723 51.1267 28.4265 51.2063 28.8326C51.3259 29.4479 50.9232 30.0432 50.3062 30.1626C49.7049 30.28 49.123 29.8977 48.9827 29.3123L48.9821 29.3117Z" fill="#371A45"/>
<path d="M51.5163 55.2363C51.1837 55.2363 50.868 55.0414 50.7302 54.7165C50.5467 54.2836 50.7497 53.7845 51.1831 53.6014C59.6609 50.0237 63.0357 37.1093 63.0689 36.9793C63.1848 36.5239 63.6489 36.2478 64.1055 36.364C64.5622 36.4796 64.8384 36.9418 64.7231 37.3972C64.5797 37.9613 61.1115 51.26 51.8489 55.1688C51.7406 55.2144 51.6278 55.2363 51.517 55.2363H51.5163Z" fill="#371A45"/>
<path d="M96.0981 51.7841C96.0981 51.7841 119.146 64.2257 127.768 80.28L114.095 86.0204C114.095 86.0204 105.8 76.6392 95.7048 73.6481" fill="white"/>
<path d="M127.768 80.28L118.271 84.2675L114.094 86.0204C114.094 86.0204 105.8 76.6392 95.7054 73.6469L95.8389 66.2335L96.0975 51.7841C96.0975 51.7841 119.147 64.2257 127.768 80.28Z" fill="white"/>
<path d="M118.271 84.2675L114.094 86.0204C114.094 86.0204 105.8 76.6392 95.7054 73.6469C95.7054 73.6469 99.2093 60.0277 102.824 67.04C106.439 74.0523 111.013 74.6477 118.271 84.2675Z" fill="#E5E5E5"/>
<path d="M111.413 62.1074C107.276 64.575 102.367 66.0012 97.1016 66.0012C96.6782 66.0012 96.2598 65.9924 95.842 65.973L96.0982 51.7848C96.0982 51.7848 103.457 55.7579 111.413 62.1074H111.413Z" fill="#E5E5E5"/>
<path d="M114.095 86.8713C113.855 86.8713 113.621 86.7707 113.455 86.5833C113.374 86.4914 105.197 77.3477 95.4611 74.4634C95.0095 74.3297 94.7521 73.8562 94.8861 73.4058C95.0202 72.9554 95.4956 72.698 95.9466 72.8323C104.996 75.5135 112.489 83.0493 114.318 85.0028L126.561 79.8627C117.828 64.6118 95.9152 52.6531 95.691 52.5319C95.277 52.3083 95.1229 51.7917 95.3471 51.3787C95.5714 50.9652 96.0894 50.8121 96.5034 51.0358C97.4536 51.5487 119.876 63.7841 128.519 79.8783C128.632 80.0895 128.651 80.3381 128.571 80.5643C128.49 80.7904 128.319 80.9716 128.098 81.0646L114.425 86.805C114.318 86.85 114.206 86.8719 114.095 86.8719L114.095 86.8713Z" fill="#371A45"/>
<path d="M106.438 80.0732C106.324 80.0732 106.207 80.0501 106.096 80.0014C105.665 79.8127 105.468 79.3111 105.657 78.8813C105.847 78.449 110.407 68.2913 118.984 68.0314C119.456 68.014 119.848 68.3863 119.863 68.8561C119.877 69.3258 119.507 69.7181 119.036 69.7325C111.542 69.9593 107.262 79.4685 107.22 79.5647C107.079 79.8833 106.766 80.0732 106.438 80.0732Z" fill="#371A45"/>
<path d="M67.6921 58.238C65.0889 62.4079 58.9287 74.7408 59.5106 85.5937C59.8845 92.5648 62.6737 95.018 67.818 98.6725C82.2261 108.906 108.058 86.161 108.058 86.161C108.058 86.161 104.288 80.568 103.533 76.3756C103.118 74.0742 102.473 72.0352 102.857 66.514C102.857 66.514 108.908 56.7181 94.3619 49.7745C79.8159 42.8309 67.6914 58.238 67.6914 58.238H67.6921Z" fill="white"/>
<path d="M108.06 86.1622C108.06 86.1622 82.2274 108.906 67.8198 98.6713C62.673 95.0186 59.8864 92.5654 59.5112 85.595C59.3947 83.4085 59.5513 81.1627 59.8951 78.9363C61.2656 70.1048 65.6132 61.5689 67.6921 58.2392C67.6921 58.2392 79.8165 42.8315 94.3638 49.7739C108.908 56.7193 102.857 66.5147 102.857 66.5147C102.473 72.0364 103.119 74.0754 103.534 76.375C103.707 77.3389 104.043 78.3803 104.452 79.4067C105.826 82.8469 108.06 86.1622 108.06 86.1622Z" fill="white"/>
<path d="M108.06 86.1622C108.06 86.1622 82.2274 108.906 67.8198 98.6713C62.673 95.0186 59.8864 92.5654 59.5112 85.595C59.3947 83.4085 59.5513 81.1627 59.8951 78.9363C70.3635 83.8539 96.261 84.9409 104.453 79.4073C105.826 82.8475 108.061 86.1629 108.061 86.1629L108.06 86.1622Z" fill="#E5E5E5"/>
<path d="M103.428 65.2921C101.401 65.7575 99.2826 66.0012 97.1016 66.0012C86.8994 66.0012 78.0358 60.6468 73.5404 52.7743C78.4567 49.1698 86.0119 45.7895 94.3631 49.7739C105.794 55.2332 104.503 62.4504 103.428 65.2921H103.428Z" fill="#E5E5E5"/>
<path d="M68.175 58.5378C63.8738 66.4947 58.6055 81.1077 61.4041 89.9523C62.4864 93.4013 65.4297 95.5784 68.3216 97.6368C69.744 98.6575 71.3093 99.3884 73.0118 99.7764C84.2756 102.235 98.9594 92.278 107.306 85.3107L107.115 86.7938C105.566 84.5736 104.282 82.2459 103.328 79.7165C102.662 78.056 102.414 76.2069 102.154 74.4459C101.765 71.8128 101.916 69.0747 102.29 66.4747C102.385 65.8 103.413 65.845 103.425 66.549C103.442 68.2676 103.49 69.9755 103.689 71.6378C103.89 73.2858 104.306 74.9825 104.684 76.5867C105.574 79.7009 107.349 82.7369 109.012 85.5419C109.33 86.0173 109.235 86.6476 108.811 87.0118C105.892 89.5087 102.855 91.7321 99.654 93.8286C91.9867 98.7125 81.8528 104.026 72.4888 101.985C70.5232 101.543 68.6204 100.653 66.9987 99.4834C63.8444 97.2888 60.4175 94.5507 59.245 90.6688C58.3098 87.7627 58.234 84.8466 58.4188 81.8886C58.7007 77.0846 60.0348 72.4137 61.8788 67.9977C63.3451 64.4881 65.0714 61.0904 67.2085 57.9387C67.632 57.3628 68.5107 57.9069 68.1744 58.5384L68.175 58.5378Z" fill="#371A45"/>
<path d="M78.7154 89.4063L98.9381 90.0891C100.286 90.1347 101.427 89.0721 101.472 87.7271L101.903 75.0256C101.949 73.6812 100.884 72.5437 99.535 72.4981L79.3123 71.8153C77.9644 71.7697 76.8238 72.8323 76.7787 74.1773L76.3478 86.8787C76.302 88.2231 77.3675 89.3607 78.716 89.4063H78.7154Z" fill="white"/>
<path d="M76.4856 82.8125L76.334 87.2823C76.2958 88.4055 77.1846 89.3544 78.3114 89.3925L99.3452 90.1022C100.469 90.1403 101.42 89.2538 101.459 88.13L101.917 74.6208C101.955 73.4976 101.066 72.5486 99.9421 72.5105L97.369 72.4237L97.0621 81.4632C97.0239 82.5864 96.0731 83.4735 94.9463 83.4354L76.4856 82.8125Z" fill="#E5E5E5"/>
<path d="M99.0233 91.2242C98.9826 91.2242 98.9412 91.2242 98.8999 91.2223L78.6772 90.5395C77.722 90.507 76.8344 90.1041 76.178 89.4038C75.5216 88.7035 75.1784 87.7933 75.2109 86.84L75.6419 74.1379C75.6744 73.1852 76.0784 72.3 76.7806 71.6453C77.4827 70.9913 78.3985 70.6496 79.3512 70.6808L99.5738 71.3636C101.552 71.4304 103.107 73.0903 103.04 75.0631L102.609 87.7652C102.543 89.6974 100.947 91.2242 99.0233 91.2242ZM79.229 72.9485C78.5244 72.9485 77.9393 73.5076 77.9155 74.2154L77.4846 86.9175C77.4727 87.2648 77.5992 87.5978 77.8404 87.8551C78.0815 88.1125 78.406 88.2606 78.7542 88.2724L98.9769 88.9552C99.6966 88.9846 100.311 88.4117 100.335 87.689L100.766 74.9875C100.791 74.2647 100.221 73.6569 99.4968 73.6325L79.2741 72.9497C79.2591 72.9497 79.2441 72.9491 79.229 72.9491V72.9485Z" fill="#371A45"/>
<path d="M82.5989 89.5468L101.891 90.1978C102.832 90.2296 103.621 89.4937 103.653 88.5548L104.135 74.3653C104.167 73.4264 103.429 72.6392 102.488 72.6074L83.1958 71.9564C82.2544 71.9246 81.4651 72.6605 81.4332 73.5994L80.9515 87.7889C80.9196 88.7279 81.6574 89.515 82.5989 89.5468Z" fill="white"/>
<path d="M104.13 74.5252L103.66 88.393C103.625 89.4231 102.76 90.2265 101.73 90.1915L82.7611 89.5512C81.7282 89.5162 80.9227 88.6566 80.9578 87.6265L81.4282 73.7587C81.4633 72.7317 82.3251 71.9252 83.358 71.9602L102.327 72.6005C103.356 72.6355 104.165 73.4982 104.13 74.5252Z" fill="white"/>
<path d="M103.78 84.8316L103.66 88.393C103.625 89.4231 102.76 90.2265 101.73 90.1915L82.9415 89.5574C81.8153 89.5193 80.9258 88.5729 80.964 87.4472L81.1563 81.7793C81.1595 81.7855 81.162 81.7886 81.1651 81.7949C83.4469 85.3038 84.4685 80.8004 84.4685 80.8004L90.4284 81.0015C90.4284 81.0015 90.4346 86.229 96.1007 86.7556C99.4191 87.0636 102.032 85.9616 103.78 84.8316Z" fill="#E5E5E5"/>
<path d="M101.951 91.3335C101.918 91.3335 101.885 91.3335 101.852 91.3322L82.56 90.6813C81.8009 90.6557 81.0975 90.3365 80.5788 89.783C80.0602 89.2295 79.789 88.5073 79.8147 87.7508L80.2964 73.5613C80.3496 71.9983 81.6681 70.7701 83.2346 70.8226L102.527 71.4735C104.093 71.5266 105.325 72.841 105.272 74.404L104.791 88.5935C104.765 89.3507 104.445 90.0522 103.89 90.5695C103.36 91.0642 102.674 91.3335 101.952 91.3335H101.951ZM83.1375 73.0897C82.8325 73.0897 82.5801 73.3314 82.5694 73.6375L82.0884 87.827C82.0815 88.0313 82.1811 88.1694 82.2412 88.2337C82.3013 88.2981 82.4329 88.4061 82.6377 88.413L101.93 89.0639C102.129 89.0733 102.273 88.9715 102.337 88.9115C102.402 88.8515 102.51 88.7204 102.518 88.5161L102.999 74.3266C103.009 74.0142 102.763 73.7512 102.449 73.7406L83.1576 73.0897C83.1513 73.0897 83.145 73.0897 83.1382 73.0897H83.1375Z" fill="#371A45"/>
<path d="M100.738 72.548L100.567 77.6081C100.521 78.9519 99.8507 80.1975 98.7527 80.9778C97.6553 81.758 96.9845 83.0037 96.9388 84.3474L96.7458 90.0241" fill="white"/>
<path d="M96.7465 90.8749C96.7371 90.8749 96.7271 90.8749 96.717 90.8749C96.246 90.8593 95.8777 90.4651 95.8934 89.996L96.0863 84.3193C96.1402 82.7213 96.9519 81.2133 98.2572 80.2856C99.1329 79.6634 99.6772 78.652 99.7135 77.58L99.8852 72.5199C99.9008 72.0508 100.285 71.6822 100.766 71.6984C101.237 71.714 101.606 72.1082 101.59 72.5774L101.418 77.6375C101.365 79.2355 100.553 80.7429 99.2469 81.6712C98.3712 82.2934 97.8269 83.3048 97.7906 84.3768L97.5977 90.0535C97.582 90.5132 97.2037 90.8756 96.7458 90.8756L96.7465 90.8749Z" fill="#371A45"/>
<path d="M84.4679 80.8041C84.409 82.5477 85.5095 83.9963 86.9282 84.0444L89.3247 84.125L89.5389 77.8174L87.1424 77.7368C85.7237 77.6887 84.5274 79.0624 84.4679 80.8041Z" fill="#22A7F0"/>
<g opacity="0.7">
<path d="M84.6652 79.7103C85.1557 79.1062 85.8378 78.7388 86.5844 78.7638L88.9796 78.8444L88.8011 84.1069L89.3253 84.1244L89.5396 77.8168L87.1419 77.7356C86.0395 77.6981 85.0686 78.5227 84.6652 79.7096V79.7103Z" fill="white"/>
</g>
<path d="M84.4667 80.8041C84.4078 82.5471 85.5096 83.9957 86.9276 84.0432L89.3253 84.1244L89.5396 77.8168L88.2493 77.7731L88.144 80.8666L85.7488 80.786C85.2935 80.7704 84.8694 80.6092 84.508 80.3419C84.4861 80.4924 84.4717 80.6461 84.466 80.8048L84.4667 80.8041Z" fill="#1C7AEA"/>
<path d="M89.3253 84.9759C89.3159 84.9759 89.3059 84.9759 89.2959 84.9759L86.8994 84.8953C85.9517 84.8634 85.0867 84.3943 84.4641 83.5741C83.8816 82.8069 83.5803 81.8136 83.6154 80.7754C83.6505 79.7384 84.0188 78.7676 84.6514 78.0417C85.3285 77.2652 86.2223 76.8535 87.1713 76.8872L89.5677 76.9684C90.0387 76.9841 90.4071 77.3783 90.3914 77.8474L90.1772 84.1544C90.1615 84.6142 89.7832 84.9765 89.3253 84.9765V84.9759ZM87.0711 78.5864C86.6614 78.5864 86.2612 78.7882 85.9386 79.158C85.5615 79.5903 85.3423 80.185 85.3198 80.8329C85.2978 81.4813 85.4763 82.0898 85.8233 82.5464C86.1296 82.95 86.5324 83.1799 86.9564 83.1942L88.5004 83.2461L88.657 78.6395L87.113 78.5877C87.0992 78.5877 87.0848 78.5871 87.0711 78.5871V78.5864Z" fill="#371A45"/>
<path d="M91.9998 81.0612C92.059 79.3195 90.9584 77.8688 89.5416 77.8209C88.1248 77.7731 86.9283 79.1462 86.8691 80.8878C86.81 82.6295 87.9106 84.0802 89.3274 84.1281C90.7442 84.1759 91.9407 82.8028 91.9998 81.0612Z" fill="#22A7F0"/>
<g opacity="0.7">
<path d="M86.8668 80.8853C86.8606 81.0746 86.8681 81.262 86.8881 81.4451C87.1518 79.9789 88.2379 78.8931 89.5019 78.9356C90.7634 78.9781 91.7737 80.1344 91.9372 81.615C91.9698 81.4338 91.9898 81.2477 91.9967 81.0584C92.0556 79.3179 90.9557 77.8668 89.5401 77.8193C88.1221 77.7712 86.9263 79.1449 86.8675 80.8853H86.8668Z" fill="white"/>
</g>
<path d="M86.8669 80.8854C86.808 82.6283 87.9073 84.0788 89.3253 84.1269C90.7409 84.1744 91.9366 82.8013 91.9955 81.0584C91.9993 80.9522 91.998 80.8479 91.9918 80.7454C91.537 81.7556 90.6482 82.4284 89.6498 82.3946C88.3169 82.3497 87.2665 81.0665 87.1945 79.4679C86.9997 79.8902 86.8838 80.3712 86.8663 80.8847L86.8669 80.8854Z" fill="#1C7AEA"/>
<path d="M89.3986 84.9778C89.3642 84.9778 89.3304 84.9778 89.2959 84.9759C88.3489 84.944 87.4845 84.4749 86.8625 83.654C86.2806 82.8869 85.9793 81.8936 86.0144 80.8566C86.0495 79.8196 86.4172 78.8488 87.0498 78.1223C87.7263 77.3458 88.6201 76.9341 89.5678 76.9678C90.5148 76.9997 91.3792 77.4688 92.0012 78.2897C92.583 79.0568 92.8843 80.0501 92.8493 81.0871C92.8142 82.1241 92.4465 83.0949 91.8139 83.8214C91.1618 84.5698 90.3075 84.9778 89.3986 84.9778ZM87.7194 80.9141C87.6974 81.5619 87.876 82.1703 88.223 82.6276C88.5292 83.0312 88.9307 83.2611 89.3535 83.2754C89.7795 83.2886 90.1935 83.0868 90.5261 82.7051C90.9032 82.2728 91.1224 81.6774 91.1443 81.0296C91.1662 80.3818 90.9877 79.7734 90.6407 79.3161C90.3344 78.9125 89.9329 78.6826 89.5101 78.6683C89.0823 78.6508 88.6702 78.8563 88.3376 79.2386C87.9605 79.6709 87.7413 80.2662 87.7194 80.9141Z" fill="#371A45"/>
<path d="M7.71934 195.785C7.71934 195.785 7.2076 198.235 4.58942 199.881C2.70407 201.066 0.854429 203.149 0.854429 203.149C0.854429 203.149 0.61328 195.198 7.71934 195.785Z" fill="url(#paint3_linear_643_27)"/>
<path d="M0.854423 204C0.757337 204 0.658999 203.983 0.564418 203.949C0.235579 203.83 0.0125948 203.523 0.00194669 203.175C-0.0030642 203.004 -0.0957654 198.969 2.42659 196.582C3.77326 195.308 5.57781 194.754 7.79011 194.937C8.03376 194.957 8.25675 195.081 8.40332 195.276C8.54926 195.472 8.60501 195.72 8.5549 195.959C8.5311 196.073 7.93605 198.783 5.04477 200.6C3.28783 201.705 1.51148 203.693 1.49394 203.713C1.32858 203.899 1.09495 204 0.855049 204H0.854423ZM6.49041 196.623C5.31849 196.711 4.35139 197.108 3.60665 197.811C2.7216 198.645 2.2487 199.796 1.99565 200.814C2.62953 200.244 3.3749 199.638 4.13467 199.161C5.40744 198.361 6.11334 197.36 6.49104 196.624L6.49041 196.623Z" fill="#371A45"/>
<path d="M57.0189 143.415C54.8924 143.415 53.2858 141.955 53.2119 141.886C52.9463 141.64 52.8649 141.255 53.0089 140.923L55.1762 135.939C55.3284 135.587 55.6979 135.383 56.0769 135.434L58.204 135.732C58.5278 135.777 58.7971 136.003 58.8974 136.313L59.9133 139.448C59.9208 139.472 59.9277 139.496 59.9327 139.519C59.9709 139.684 60.281 141.159 59.5218 142.276C59.1222 142.865 58.4984 143.24 57.7192 143.361C57.4805 143.399 57.2463 143.415 57.0183 143.415H57.0189ZM54.8404 140.988C55.3973 141.352 56.3838 141.846 57.4574 141.68C57.8657 141.616 58.0242 141.447 58.1075 141.325C58.3894 140.915 58.3267 140.193 58.276 139.927L57.4386 137.343L56.4834 137.21L54.8404 140.988Z" fill="#371A45"/>
<path d="M61.684 132.655C61.684 132.655 58.5616 131.585 57.6496 132.175C56.1345 133.155 53.7399 138.842 53.7399 138.842C53.7399 138.842 53.7123 141.151 53.7925 141.262C53.7925 141.262 56.9738 138.157 57.1003 138.223C56.8961 139.223 57.0189 142.667 57.0101 143.092C57.0101 143.092 54.9137 145.624 54.7909 146.049C54.6682 146.473 54.821 150.943 59.6609 157.675L70.7813 149.723L61.6847 132.655H61.684Z" fill="#D8D8D8"/>
<g opacity="0.7">
<path d="M70.7794 149.721L70.4637 149.948L62.1181 134.291C62.1181 134.291 58.9957 133.219 58.0831 133.809C56.5673 134.79 54.1733 140.476 54.1733 140.476C54.1733 140.476 54.1702 140.646 54.1702 140.896C53.9372 141.12 53.7919 141.262 53.7919 141.262C53.7123 141.152 53.738 138.843 53.738 138.843C53.738 138.843 56.132 133.154 57.6478 132.176C58.5604 131.586 61.6828 132.655 61.6828 132.655L70.7788 149.722L70.7794 149.721Z" fill="white"/>
</g>
<path d="M84.0702 163.792C84.0702 163.792 84.0846 167.084 83.2315 167.757C81.8146 168.874 75.6456 169.311 75.6456 169.311C75.6456 169.311 73.4433 168.596 73.3632 168.484C73.3632 168.484 77.333 166.476 77.3105 166.335C76.2958 166.207 73.0644 164.986 72.6579 164.857C72.6579 164.857 69.5806 166.026 69.1384 166.005C68.6961 165.984 64.4995 164.406 59.6596 157.674L70.78 149.722L84.0695 163.792H84.0702Z" fill="#B2B2B2"/>
<path d="M59.6615 158.526C59.3959 158.526 59.1341 158.403 58.9675 158.171C53.919 151.149 53.7875 146.448 53.971 145.813C54.0167 145.656 54.1351 145.245 56.1545 142.79C56.1533 142.701 56.1508 142.595 56.1489 142.478C56.1351 141.718 56.1232 140.921 56.1295 140.199C55.592 140.706 54.9694 141.304 54.3888 141.871C54.2109 142.044 53.966 142.131 53.7186 142.111C53.4706 142.089 53.2444 141.961 53.0998 141.76C52.9225 141.513 52.8561 141.422 52.8874 138.832C52.8887 138.722 52.9112 138.614 52.9538 138.513C53.371 137.523 55.5338 132.53 57.1861 131.462C58.3236 130.725 60.9048 131.489 61.9621 131.851C62.1663 131.921 62.3367 132.066 62.4382 132.257L71.5348 149.324C71.7352 149.7 71.6256 150.167 71.2786 150.415L60.1582 158.367C60.0079 158.475 59.8338 158.527 59.6621 158.527L59.6615 158.526ZM55.6177 146.292C55.5626 147.155 56.1345 151.046 59.8644 156.482L69.6776 149.464L61.0921 133.355C59.8062 132.952 58.4363 132.734 58.1038 132.894C57.2419 133.452 55.5563 136.758 54.5911 139.018C54.5905 139.115 54.5899 139.213 54.5892 139.311C54.6625 139.241 54.7371 139.171 54.8116 139.1C56.6425 137.367 56.8786 137.145 57.4974 137.47C57.8332 137.646 58.0117 138.022 57.9359 138.393C57.7937 139.088 57.8369 141.441 57.8551 142.446C57.8613 142.774 57.8651 143.013 57.8632 143.109C57.8595 143.301 57.7906 143.486 57.6678 143.634C56.826 144.65 55.842 145.909 55.6184 146.292H55.6177Z" fill="#371A45"/>
<path d="M56.7295 136.707C56.7421 135.285 56.4552 131.716 58.1413 131.176C58.5973 131.058 59.0634 131.331 59.1817 131.786C59.3001 132.24 59.0264 132.705 58.571 132.823C58.6819 132.788 58.7107 132.733 58.7001 132.731C58.3174 133.133 58.204 133.773 58.0336 134.33C57.8351 135.11 57.6891 135.937 57.5808 136.748C57.5087 137.259 56.7502 137.22 56.7295 136.706V136.707Z" fill="#371A45"/>
<path d="M58.0474 145.139C58.4777 146.732 59.0997 148.541 60.1319 149.795C60.8873 150.75 59.4128 151.809 58.7451 150.787C57.7323 149.027 57.4279 147.212 57.2043 145.27C57.1611 144.745 57.929 144.628 58.0474 145.139Z" fill="#371A45"/>
<path d="M58.7965 142.201L61.8344 141.933C62.3085 141.891 62.7263 142.241 62.7683 142.713C62.8271 143.273 62.2954 143.747 61.7454 143.632L58.752 143.051C58.2666 142.955 58.3086 142.244 58.7965 142.201Z" fill="#371A45"/>
<path d="M75.6462 170.162C75.5566 170.162 75.4677 170.148 75.3819 170.12C72.9134 169.318 72.847 169.227 72.6704 168.98C72.5257 168.778 72.4762 168.524 72.5351 168.282C72.594 168.041 72.7562 167.838 72.9779 167.725C73.7026 167.359 74.4699 166.963 75.1238 166.618C74.4361 166.392 73.6832 166.125 72.9654 165.868C72.8545 165.828 72.7556 165.793 72.6716 165.763C69.6914 166.883 69.2624 166.862 69.1001 166.856C68.4387 166.825 64.016 165.192 58.9681 158.171C58.6938 157.789 58.7815 157.258 59.1642 156.984L70.2846 149.032C70.6316 148.784 71.1095 148.83 71.4026 149.14L84.6921 163.209C84.8406 163.366 84.9232 163.573 84.9245 163.788C84.9295 164.903 84.8262 167.587 83.762 168.425C82.2167 169.643 76.7818 170.084 75.7082 170.16C75.6882 170.162 75.6681 170.162 75.6475 170.162L75.6462 170.162ZM75.4715 168.358C75.5654 168.389 75.6587 168.42 75.7514 168.45C78.2074 168.264 81.8873 167.732 82.7028 167.089C82.9521 166.833 83.1845 165.47 83.2139 164.125L70.6717 150.846L60.8591 157.864C64.8252 163.131 68.336 164.92 69.1734 165.145C69.6094 165.057 71.1201 164.531 72.3553 164.062C72.5351 163.995 72.733 163.988 72.9165 164.046C73.0074 164.075 73.2335 164.156 73.5423 164.266C74.4912 164.606 76.7129 165.402 77.4182 165.491C77.794 165.538 78.094 165.827 78.1542 166.2C78.265 166.891 77.9782 167.042 75.7439 168.215C75.6531 168.263 75.5623 168.31 75.4721 168.358H75.4715Z" fill="#371A45"/>
<path d="M78.8776 166.357C80.052 166.575 81.291 166.782 82.4685 166.719C82.6965 166.693 82.8851 166.689 83.0398 166.586C83.0423 166.576 82.9796 166.585 82.9114 166.678C83.1701 166.285 83.6987 166.176 84.0927 166.434C84.8237 166.952 84.4115 167.853 83.7213 168.088C82.8406 168.394 81.9355 168.145 81.0993 167.961C80.2475 167.745 79.442 167.478 78.6333 167.172C78.4129 167.088 78.3014 166.842 78.3853 166.622C78.4617 166.421 78.6747 166.312 78.8782 166.357L78.8776 166.357Z" fill="#371A45"/>
<path d="M70.6529 163.975C68.8809 163.141 67.2555 162.272 65.9088 160.75C65.6026 160.391 65.647 159.852 66.0072 159.547C66.4024 159.205 67.0307 159.309 67.2956 159.759C67.6896 160.414 68.2921 161.048 68.9417 161.624C69.5987 162.203 70.3259 162.751 71.0594 163.228C71.4941 163.514 71.1283 164.183 70.6535 163.975H70.6529Z" fill="#371A45"/>
<path d="M119.458 153.525L125.34 173.862C125.34 173.862 126.143 180.461 122.286 182.415C118.43 184.367 100.058 189.305 100.058 189.305C100.058 189.305 108.507 182.377 111.456 175.817C114.405 169.256 108.6 157.653 108.6 157.653" fill="#F75252"/>
<path d="M122.286 182.414C118.43 184.368 100.059 189.305 100.059 189.305C100.059 189.305 108.506 182.377 111.455 175.817C112.627 173.208 112.416 169.802 111.736 166.646C110.704 161.864 108.597 157.653 108.597 157.653L119.456 153.524L121.882 161.912L125.339 173.861C125.339 173.861 126.141 180.46 122.285 182.414H122.286Z" fill="#FF2727"/>
<path d="M120.731 183.081C114.947 185.304 100.059 189.306 100.059 189.306C100.059 189.306 108.507 182.378 111.456 175.818C111.695 175.285 111.877 174.72 112.008 174.13L120.732 183.081H120.731Z" fill="#CC3232"/>
<g opacity="0.2">
<path d="M121.882 161.913L119.033 165.895C119.033 165.895 115.302 166.298 111.736 166.646C110.704 161.865 108.597 157.654 108.597 157.654L119.456 153.525L121.882 161.913H121.882Z" fill="#371A45"/>
</g>
<path d="M73.2567 163.226L73.665 160.211C73.7289 159.741 74.1624 159.411 74.634 159.475C75.1946 159.541 75.5404 160.163 75.3074 160.672L74.0778 163.456C73.8774 163.907 73.1903 163.709 73.2567 163.226Z" fill="#371A45"/>
<path d="M100.057 190.155C99.7442 190.155 99.4485 189.983 99.2995 189.694C99.1153 189.338 99.2055 188.902 99.5156 188.648C99.5982 188.58 107.845 181.767 110.677 175.469C113.428 169.347 107.892 158.145 107.836 158.032C107.625 157.612 107.797 157.101 108.218 156.891C108.64 156.682 109.152 156.852 109.363 157.273C109.607 157.761 115.312 169.316 112.234 176.164C110.29 180.489 106.12 184.888 103.334 187.523C108.841 185.992 119.183 183.032 121.9 181.656C124.993 180.089 124.562 174.67 124.499 174.026L118.638 153.762C118.508 153.31 118.769 152.839 119.221 152.709C119.674 152.579 120.147 152.839 120.278 153.29L126.159 173.627C126.172 173.671 126.181 173.715 126.186 173.76C126.222 174.054 127.011 180.977 122.672 183.174C118.781 185.144 101.033 189.924 100.279 190.127C100.205 190.147 100.131 190.156 100.057 190.156V190.155Z" fill="#371A45"/>
<path d="M115.247 156.145L124.159 179.099C124.159 179.099 123.91 181.529 121.188 183.26C118.291 185.101 108.266 189.657 104.136 189.891C103 189.955 100.057 189.304 100.057 189.304C100.057 189.304 105.365 186.168 108.464 184.013C111.564 181.859 112.831 180.742 111.741 179.663C110.597 178.531 92.7553 163.657 90.6025 162.848C88.4503 162.038 115.247 156.145 115.247 156.145V156.145Z" fill="#F75252"/>
<path d="M124.16 179.099C124.16 179.099 123.91 181.529 121.189 183.259C118.291 185.103 108.265 189.657 104.137 189.892C102.999 189.955 100.059 189.305 100.059 189.305C100.059 189.305 105.365 186.168 108.464 184.013C111.564 181.858 112.832 180.744 111.74 179.663C111.186 179.116 106.704 175.332 101.99 171.492C96.9826 167.411 91.7105 163.265 90.6019 162.848C88.4491 162.037 115.246 156.144 115.246 156.144L119.034 165.894L124.16 179.098V179.099Z" fill="#FF2727"/>
<g opacity="0.2">
<path d="M119.034 165.895C112.548 168.498 106.542 170.339 101.99 171.493C96.9826 167.412 91.7105 163.266 90.6019 162.849C88.4491 162.038 115.246 156.145 115.246 156.145L119.034 165.894V165.895Z" fill="#371A45"/>
</g>
<path d="M103.975 190.746C102.674 190.746 100.169 190.201 99.8732 190.135C99.5312 190.06 99.2707 189.784 99.2155 189.439C99.1604 189.094 99.322 188.75 99.6233 188.572C99.6759 188.541 104.939 185.428 107.977 183.315C108.948 182.641 111.22 181.061 111.273 180.457C111.275 180.425 111.221 180.347 111.141 180.267C109.581 178.723 92.1577 164.342 90.3018 163.644C89.7675 163.443 89.6059 162.991 89.6291 162.665C89.6873 161.859 89.7256 161.326 102.692 158.177C108.812 156.691 115.001 155.327 115.063 155.314C115.473 155.224 115.89 155.446 116.042 155.837L124.955 178.791C125.003 178.916 125.022 179.051 125.008 179.184C124.996 179.3 124.682 182.047 121.646 183.977C118.672 185.868 108.511 190.495 104.184 190.739C104.119 190.743 104.049 190.745 103.975 190.745V190.746ZM102.412 188.884C103.079 188.988 103.719 189.063 104.087 189.042C108.083 188.817 117.946 184.313 120.729 182.544C122.663 181.314 123.161 179.722 123.278 179.187L114.715 157.135C105.448 159.184 95.4542 161.624 92.1577 162.791C96.94 166.02 111.507 178.234 112.342 179.06C112.809 179.522 113.021 180.042 112.972 180.605C112.868 181.8 111.648 182.838 108.952 184.712C107.033 186.046 104.254 187.765 102.412 188.883V188.884Z" fill="#371A45"/>
<path d="M89.1474 165.766C73.2047 163.939 67.1879 152.292 67.1879 152.292C67.1879 152.292 58.058 142.872 61.4373 127.223C64.8158 111.58 87.6818 89.4144 112.965 81.4713C115.865 80.5605 118.677 79.9477 121.383 79.5741C125.857 78.9569 130.041 79.0019 133.853 79.4485C147.84 81.0902 156.838 88.1775 156.838 88.1775C156.838 88.1775 160.682 98.9468 157.753 112.686C156.955 116.431 155.65 120.401 153.628 124.433C152.407 126.868 150.922 129.325 149.128 131.771C133.475 153.107 105.09 167.595 89.1474 165.765V165.766Z" fill="white"/>
<path d="M91.9867 167.056C90.9576 167.056 89.9655 167.002 89.0178 166.893C73.4471 165.109 67.0563 154.413 66.2565 152.959C65.1334 151.737 57.0252 142.269 60.3261 126.985C62.0398 119.049 68.5621 109.441 78.2193 100.623C88.3695 91.3566 100.588 84.1713 112.623 80.3899C115.457 79.4997 118.351 78.8475 121.228 78.4509C125.45 77.868 129.742 77.8249 133.987 78.3222C148.131 79.982 157.166 86.9899 157.543 87.2879C157.711 87.4204 157.839 87.5965 157.91 87.7977C158.072 88.25 161.828 99.0292 158.866 112.923C157.979 117.083 156.559 121.127 154.645 124.941C153.354 127.516 151.807 130.04 150.047 132.441C142.595 142.599 131.851 151.835 119.795 158.45C109.668 164.006 99.7392 167.056 91.9874 167.056H91.9867ZM128.107 80.2475C125.91 80.2475 123.715 80.3974 121.54 80.6979C118.789 81.0771 116.02 81.7012 113.307 82.5533C101.582 86.2372 89.6661 93.2488 79.7558 102.296C70.4381 110.803 64.1669 119.976 62.5503 127.463C59.3483 142.291 67.9213 151.415 68.0084 151.505C68.0842 151.584 68.15 151.675 68.2001 151.772C68.2571 151.882 74.1705 162.908 89.2777 164.638C96.9049 165.514 107.63 162.534 118.698 156.461C130.47 150.003 140.951 140.996 148.211 131.1C149.896 128.801 151.377 126.387 152.611 123.925C154.438 120.282 155.794 116.422 156.642 112.45C159.191 100.488 156.449 90.7182 155.869 88.8703C154.302 87.7315 145.901 82.0042 133.721 80.5742C131.856 80.3556 129.98 80.2463 128.107 80.2463V80.2475Z" fill="#371A45"/>
<path d="M89.1474 165.766C73.2047 163.939 67.1879 152.292 67.1879 152.292C67.1879 152.292 58.058 142.872 61.4373 127.223C64.8158 111.58 87.6818 89.4144 112.965 81.4713C115.865 80.5605 118.677 79.9477 121.383 79.5741C125.857 78.9569 130.041 79.0019 133.853 79.4485C147.84 81.0902 156.838 88.1775 156.838 88.1775C156.838 88.1775 160.682 98.9468 157.753 112.686C156.955 116.431 155.65 120.401 153.628 124.433C152.407 126.868 150.922 129.325 149.128 131.771C133.475 153.107 105.09 167.595 89.1474 165.765V165.766Z" fill="white"/>
<path d="M157.753 112.686C156.953 116.433 155.651 120.4 153.627 124.433C152.407 126.869 150.92 129.325 149.128 131.769C133.475 153.107 105.089 167.596 89.1481 165.767C80.8081 164.811 75.184 161.17 71.7177 157.909C68.5558 154.943 67.1879 152.293 67.1879 152.293C67.1879 152.293 58.0574 142.872 61.4354 127.223C64.8165 111.58 87.6805 89.4144 112.965 81.4713C115.865 80.5611 118.677 79.9483 121.381 79.5741C125.857 78.9556 130.039 79.0012 133.853 79.4491C147.84 81.0909 156.836 88.1781 156.836 88.1781C156.836 88.1781 158.241 92.1088 158.705 98.254C159.009 102.275 158.912 107.25 157.752 112.686L157.753 112.686Z" fill="white"/>
<path d="M157.753 112.686C156.953 116.433 155.651 120.4 153.627 124.433C152.407 126.869 150.92 129.325 149.128 131.769C133.475 153.107 105.089 167.596 89.1481 165.767C80.8081 164.811 75.184 161.17 71.7177 157.909C68.5558 154.943 67.1879 152.293 67.1879 152.293C67.1879 152.293 58.0574 142.872 61.4354 127.223C62.4732 122.431 65.3363 117.025 69.5392 111.603C74.6065 105.069 81.6186 98.5126 89.7168 92.9796C96.8228 88.1188 104.767 84.0495 112.965 81.4713C115.865 80.5611 118.677 79.9483 121.381 79.5741C125.857 78.9556 130.039 79.0012 133.853 79.4491C147.84 81.0909 156.836 88.1781 156.836 88.1781C156.836 88.1781 158.241 92.1088 158.705 98.254C159.009 102.275 158.912 107.25 157.752 112.686L157.753 112.686Z" fill="white"/>
<g opacity="0.2">
<path d="M86.2255 119.686C86.2255 119.686 86.6263 131.03 79.199 131.997C69.4885 133.262 71.3707 119.235 71.3707 119.235L69.5392 111.603C74.6065 105.069 81.6186 98.5126 89.7168 92.9796C91.5483 95.7364 93.7744 100.347 93.7856 106.473C93.8025 116.042 86.2248 119.686 86.2248 119.686H86.2255Z" fill="#371A45"/>
</g>
<g opacity="0.2">
<path d="M157.753 112.686C156.953 116.433 155.651 120.4 153.627 124.433C152.407 126.869 150.92 129.325 149.128 131.769C133.475 153.107 105.089 167.596 89.1481 165.767C80.8081 164.811 75.184 161.17 71.7177 157.909C79.0198 153.7 86.5581 146.872 84.1948 136.721C83.9875 135.822 106.158 119.524 106.158 119.524C106.158 119.524 116.507 127.226 126.969 120.128C139.657 111.524 156.521 81.7349 158.705 98.2546C159.009 102.276 158.912 107.25 157.752 112.686H157.753Z" fill="#371A45"/>
</g>
<path d="M116.21 159.046C115.991 159.159 115.772 159.267 115.553 159.372C115.226 159.534 114.899 159.692 114.572 159.848C114.308 159.973 114.046 160.095 113.782 160.217C113.77 160.223 113.759 160.228 113.745 160.234C113.488 160.353 113.233 160.469 112.977 160.582C112.951 160.597 112.923 160.608 112.894 160.619C112.641 160.736 112.388 160.846 112.135 160.957C111.518 161.226 110.901 161.484 110.29 161.734C110.028 161.842 109.763 161.946 109.502 162.049C109.255 162.145 109.011 162.242 108.763 162.332C108.601 162.395 108.442 162.457 108.28 162.517C107.153 162.936 106.039 163.319 104.939 163.665C104.748 163.725 104.558 163.785 104.37 163.841C104.134 163.912 103.901 163.983 103.668 164.048C103.492 164.101 103.313 164.15 103.139 164.198C102.909 164.266 102.679 164.329 102.451 164.388C102.257 164.439 102.064 164.49 101.871 164.539C101.47 164.644 101.071 164.74 100.676 164.828C100.312 164.916 99.9484 164.995 99.5901 165.069C99.3571 165.117 99.1235 165.163 98.8936 165.208C98.6493 165.256 98.4075 165.298 98.1658 165.341C97.9528 165.381 97.7367 165.415 97.5231 165.449C97.4348 165.466 97.3471 165.477 97.2588 165.491C96.8466 165.556 96.437 165.613 96.033 165.661C95.5664 165.718 95.106 165.766 94.6513 165.803C94.4239 165.823 94.1965 165.84 93.9748 165.854C93.7499 165.869 93.5257 165.88 93.3065 165.891C91.8477 165.956 90.4571 165.917 89.1493 165.766C88.1766 165.656 87.2439 165.505 86.3457 165.326C86.3119 165.318 86.2806 165.312 86.2461 165.306C85.8027 165.218 85.3705 165.119 84.9464 165.014C84.9352 165.011 84.9207 165.009 84.9095 165.005C84.6934 164.952 84.4804 164.895 84.27 164.838C84.0539 164.781 83.8409 164.722 83.6304 164.659C83.4175 164.597 83.2095 164.534 83.0022 164.469C82.7949 164.404 82.5926 164.336 82.3877 164.268C82.1861 164.2 81.9869 164.132 81.7908 164.058C81.5916 163.987 81.3956 163.917 81.202 163.84C81.0116 163.766 80.8181 163.692 80.6308 163.613C80.2525 163.462 79.8861 163.301 79.5247 163.136C79.3455 163.054 79.1695 162.972 78.9929 162.887C78.8225 162.808 78.6571 162.725 78.4893 162.64C78.4692 162.629 78.4523 162.62 78.4323 162.612C78.2757 162.53 78.1197 162.45 77.9656 162.369C77.6531 162.207 77.3455 162.037 77.0499 161.864C77.0299 161.853 77.0098 161.841 76.9929 161.83C76.8338 161.739 76.6772 161.646 76.5238 161.552C76.0603 161.277 75.6193 160.99 75.1959 160.699C75.0537 160.602 74.9146 160.506 74.7781 160.409C74.639 160.31 74.505 160.214 74.3716 160.117C74.1699 159.967 73.9732 159.819 73.7828 159.672C73.6889 159.601 73.598 159.53 73.5097 159.456C73.2454 159.249 72.9923 159.039 72.7506 158.832C72.6284 158.73 72.5088 158.625 72.3923 158.523C72.2783 158.421 72.1649 158.319 72.0509 158.217C71.9369 158.115 71.8261 158.012 71.7183 157.908C74.9998 156.016 78.3264 153.597 80.783 150.585C95.5037 164.919 115.567 159.232 116.21 159.045V159.046Z" fill="#CC3232"/>
<path d="M158.848 101.552C158.888 104.876 158.611 108.653 157.753 112.687C157.653 113.154 157.545 113.628 157.428 114.101C157.374 114.328 157.314 114.558 157.255 114.791C157.135 115.25 157.01 115.709 156.874 116.172C156.834 116.314 156.791 116.452 156.749 116.594C156.74 116.622 156.732 116.651 156.723 116.679C156.72 116.69 156.717 116.699 156.712 116.71C154.932 122.549 149.987 126.909 143.928 127.756C137.123 128.706 130.418 126.721 124.521 121.534C125.334 121.149 126.15 120.683 126.97 120.127C139.651 111.526 156.511 81.7543 158.703 98.2365C158.712 98.3102 158.717 98.3839 158.72 98.4608C158.737 98.6907 158.751 98.9262 158.768 99.1642C158.774 99.2835 158.779 99.4022 158.785 99.5246C158.794 99.6465 158.799 99.7658 158.802 99.8876C158.807 99.9725 158.811 100.061 158.813 100.149C158.819 100.307 158.824 100.466 158.83 100.628C158.836 100.798 158.839 100.968 158.841 101.141C158.844 101.278 158.847 101.414 158.847 101.552H158.848Z" fill="#E5E5E5"/>
<path d="M91.9867 167.056C90.9576 167.056 89.9655 167.002 89.0178 166.893C73.4471 165.109 67.0563 154.413 66.2565 152.959C65.1334 151.737 57.0252 142.269 60.3261 126.985C62.0398 119.049 68.5621 109.441 78.2193 100.623C88.3695 91.3566 100.588 84.1713 112.623 80.3899C115.457 79.4997 118.351 78.8475 121.228 78.4509C125.45 77.868 129.742 77.8249 133.987 78.3222C148.131 79.982 157.166 86.9899 157.543 87.2879C157.711 87.4204 157.839 87.5965 157.91 87.7977C158.072 88.25 161.828 99.0292 158.866 112.923C157.979 117.083 156.559 121.127 154.645 124.941C153.354 127.516 151.807 130.04 150.047 132.441C142.595 142.599 131.851 151.835 119.795 158.45C109.668 164.006 99.7392 167.056 91.9874 167.056H91.9867ZM128.107 80.2475C125.91 80.2475 123.715 80.3974 121.54 80.6979C118.789 81.0771 116.02 81.7012 113.307 82.5533C101.582 86.2372 89.6661 93.2488 79.7558 102.296C70.4381 110.803 64.1669 119.976 62.5503 127.463C59.3483 142.291 67.9213 151.415 68.0084 151.505C68.0842 151.584 68.15 151.675 68.2001 151.772C68.2571 151.882 74.1705 162.908 89.2777 164.638C96.9049 165.514 107.63 162.534 118.698 156.461C130.47 150.003 140.951 140.996 148.211 131.1C149.896 128.801 151.377 126.387 152.611 123.925C154.438 120.282 155.794 116.422 156.642 112.45C159.191 100.488 156.449 90.7182 155.869 88.8703C154.302 87.7315 145.901 82.0042 133.721 80.5742C131.856 80.3556 129.98 80.2463 128.107 80.2463V80.2475Z" fill="#371A45"/>
<path d="M116.22 159.043C106.202 164.061 96.3888 166.597 89.1481 165.765C73.2041 163.938 67.1891 152.292 67.1891 152.292C67.1891 152.292 58.058 142.872 61.4379 127.225C62.9706 120.116 68.5295 111.666 76.5087 103.811C76.245 104.185 61.6916 124.994 76.5206 145.616C91.3579 166.255 115.815 159.161 116.219 159.042L116.22 159.043Z" fill="#FF2727"/>
<g opacity="0.7">
<path d="M62.5421 130.363C61.2568 136.313 61.7799 141.361 62.923 145.334C61.1228 141.035 59.7868 134.875 61.4385 127.226C62.9712 120.117 68.5301 111.666 76.5087 103.813C76.4004 103.963 73.9356 107.488 72.0415 113.004C67.0739 119.002 63.6846 125.057 62.5415 130.362L62.5421 130.363Z" fill="white"/>
</g>
<g opacity="0.2">
<path d="M116.216 159.046C115.994 159.156 115.775 159.267 115.553 159.372C115.226 159.534 114.899 159.692 114.572 159.848C114.308 159.973 114.046 160.095 113.782 160.217C113.77 160.223 113.759 160.228 113.745 160.234C113.488 160.353 113.233 160.469 112.977 160.582C112.951 160.597 112.923 160.608 112.894 160.619C112.641 160.736 112.388 160.846 112.135 160.957C111.518 161.226 110.901 161.484 110.29 161.734C110.028 161.842 109.763 161.946 109.502 162.049C109.255 162.145 109.011 162.242 108.763 162.332C108.601 162.395 108.442 162.457 108.28 162.517C107.153 162.936 106.039 163.319 104.939 163.665C104.748 163.725 104.558 163.785 104.37 163.841C104.134 163.912 103.901 163.983 103.668 164.048C103.492 164.101 103.313 164.15 103.139 164.198C102.909 164.266 102.679 164.329 102.451 164.388C102.257 164.439 102.064 164.49 101.871 164.539C101.47 164.644 101.071 164.74 100.676 164.828C100.312 164.916 99.9484 164.995 99.5901 165.069C99.3571 165.117 99.1235 165.163 98.8936 165.208C98.6493 165.256 98.4075 165.298 98.1658 165.341C97.9528 165.381 97.7367 165.415 97.5231 165.449C97.4348 165.466 97.3471 165.477 97.2588 165.491C96.8466 165.554 96.437 165.611 96.033 165.661C95.5664 165.718 95.106 165.766 94.6513 165.803C94.4239 165.823 94.1965 165.84 93.9748 165.854C93.7499 165.869 93.5257 165.88 93.3065 165.891C91.8452 165.954 90.4546 165.914 89.1493 165.764C88.1797 165.653 87.2439 165.506 86.3457 165.327C86.3119 165.318 86.2806 165.313 86.2461 165.307C85.8052 165.217 85.3705 165.12 84.9464 165.015C84.9351 165.012 84.9207 165.009 84.9095 165.006C84.6934 164.952 84.4804 164.895 84.27 164.839C84.0539 164.782 83.8409 164.722 83.6304 164.66C83.4175 164.597 83.2095 164.535 83.0022 164.47C82.7949 164.405 82.5926 164.337 82.3877 164.269C82.1861 164.201 81.9869 164.133 81.7908 164.059C81.5916 163.988 81.3956 163.917 81.202 163.84C81.0116 163.767 80.8181 163.693 80.6308 163.614C80.2525 163.46 79.8861 163.302 79.5247 163.137C79.3455 163.054 79.1695 162.973 78.9929 162.888C78.8225 162.805 78.6571 162.723 78.4893 162.641C78.4692 162.63 78.4523 162.621 78.4323 162.613C78.2757 162.53 78.1197 162.451 77.9656 162.369C77.6531 162.205 77.3487 162.034 77.0499 161.864C77.0299 161.853 77.0098 161.842 76.9929 161.831C76.8338 161.74 76.6772 161.646 76.5238 161.553C76.0603 161.275 75.6193 160.989 75.1959 160.699C75.0537 160.603 74.9146 160.506 74.7781 160.41C74.639 160.311 74.505 160.215 74.3716 160.118C74.1699 159.967 73.9732 159.82 73.7828 159.672C73.6888 159.602 73.598 159.53 73.5097 159.457C73.2454 159.25 72.9923 159.04 72.7506 158.833C72.6284 158.731 72.5088 158.626 72.3923 158.523C72.2758 158.422 72.1618 158.319 72.0509 158.217C71.9369 158.116 71.8261 158.013 71.7183 157.908C74.9998 156.017 78.3264 153.598 80.783 150.586C95.5037 164.919 115.567 159.232 116.21 159.046H116.216Z" fill="#371A45"/>
</g>
<path d="M92.0312 167.058C90.9871 167.058 89.9824 167.003 89.0184 166.892C73.4465 165.108 67.0576 154.413 66.2571 152.959C65.1334 151.737 57.0252 142.269 60.3261 126.987C61.8864 119.751 67.3495 111.235 75.7095 103.005C76.1285 102.592 76.7937 102.567 77.2435 102.947C77.6932 103.326 77.7777 103.985 77.4389 104.465C77.2879 104.679 73.7258 109.787 71.9632 117.378C69.6388 127.387 71.4835 136.666 77.4451 144.957C91.6798 164.758 114.917 158.242 115.9 157.954C116.464 157.79 117.062 158.081 117.278 158.627C117.493 159.173 117.256 159.793 116.73 160.056C107.609 164.626 98.9788 167.058 92.0306 167.058L92.0312 167.058ZM71.6413 110.804C66.8352 116.666 63.6195 122.506 62.5509 127.464C59.3477 142.292 67.922 151.415 68.009 151.506C68.0848 151.584 68.1506 151.675 68.2007 151.773C68.2577 151.882 74.1699 162.907 89.2783 164.638C94.3268 165.218 100.892 164.06 107.983 161.411C99.1679 161.834 85.3874 159.897 75.5968 146.278C69.3263 137.558 67.3037 127.387 69.7472 116.865C70.2671 114.626 70.9391 112.586 71.6407 110.804H71.6413Z" fill="#371A45"/>
<path d="M108.611 144.676L106.292 146.336L106.039 145.984C100.263 147.917 92.558 144.646 87.5747 137.714C82.5895 130.78 81.955 122.452 85.6442 117.617L85.3912 117.265L87.7106 115.606C93.5583 111.423 102.979 114.541 108.751 122.569C114.521 130.594 114.459 140.493 108.611 144.676V144.676Z" fill="#FF2727"/>
<path d="M102.497 147.395C97.0295 147.395 91.0315 143.983 86.8812 138.21C81.8923 131.271 80.9978 122.905 84.6063 117.6C84.4522 117.241 84.5625 116.811 84.8938 116.574L87.2132 114.915C93.4342 110.466 103.407 113.677 109.444 122.073C115.48 130.468 115.328 140.918 109.108 145.368L106.788 147.027C106.457 147.264 106.013 147.231 105.722 146.97C104.682 147.256 103.6 147.395 102.498 147.395H102.497ZM86.4916 117.525C86.5148 117.737 86.4578 117.955 86.3225 118.133C82.8093 122.737 83.6273 130.764 88.2674 137.219C92.9068 143.672 100.267 147.02 105.767 145.177C105.979 145.106 106.204 145.122 106.397 145.212L108.114 143.985C113.57 140.082 113.545 130.698 108.058 123.065C102.569 115.431 93.6647 112.396 88.2079 116.298L86.4916 117.525V117.525Z" fill="#371A45"/>
<path d="M105.424 146.228C111.272 142.046 111.335 132.148 105.564 124.12C99.7931 116.093 90.374 112.975 84.5258 117.157C78.6776 121.339 78.615 131.237 84.386 139.265C90.1569 147.292 99.5761 150.41 105.424 146.228Z" fill="#D8D8D8"/>
<path d="M106.209 146.219C100.36 150.402 90.9426 147.285 85.1701 139.256C82.9465 136.165 81.5904 132.796 81.0956 129.586C80.4191 125.193 81.3543 121.089 83.8992 118.387C84.3226 117.933 84.7949 117.519 85.3097 117.151C91.1587 112.968 100.576 116.084 106.349 124.113C112.121 132.139 112.058 142.039 106.209 146.219L106.209 146.219Z" fill="#FF2727"/>
<g opacity="0.2">
<path d="M83.8171 128.296C82.9784 129.873 81.5935 129.969 80.3139 129.587C79.6374 125.194 80.5726 121.09 83.1175 118.388C84.1779 121.277 85.2759 125.551 83.8171 128.297V128.296Z" fill="#371A45"/>
</g>
<path d="M100.257 149.029C94.8429 149.029 88.7528 145.699 84.56 139.868C81.6643 135.841 80.0846 131.225 80.1122 126.872C80.1404 122.416 81.839 118.759 84.8951 116.573C87.9511 114.388 91.9692 113.957 96.209 115.36C100.352 116.731 104.229 119.704 107.124 123.731C113.16 132.127 113.01 142.576 106.789 147.025C104.888 148.384 102.638 149.029 100.257 149.029L100.257 149.029ZM91.4524 116.255C89.3717 116.255 87.4694 116.827 85.8897 117.956C83.2891 119.816 81.8434 122.987 81.819 126.882C81.7939 130.88 83.2596 135.139 85.9467 138.877C91.4349 146.509 100.339 149.545 105.795 145.643C111.251 141.74 111.225 132.356 105.738 124.723C103.051 120.985 99.4761 118.234 95.6716 116.974C94.2166 116.493 92.7972 116.254 91.4524 116.254V116.255Z" fill="#371A45"/>
<path d="M103.923 142.072C103.692 142.289 103.442 142.495 103.179 142.684C102.05 143.491 100.739 143.923 99.3421 144.015C98.3487 144.084 97.3133 143.979 96.2673 143.711C93.7155 143.059 91.1155 141.446 88.9858 139.044C88.585 138.591 88.1997 138.112 87.8358 137.606C83.6267 131.75 83.6718 124.533 87.9367 121.482C88.2712 121.244 88.6219 121.038 88.9858 120.865C91.118 119.84 93.718 119.912 96.2673 120.913C97.3133 121.323 98.3493 121.89 99.3421 122.6C100.781 123.628 102.13 124.959 103.28 126.559C103.505 126.875 103.721 127.195 103.923 127.515C107.239 132.809 107.231 138.935 103.923 142.071V142.072Z" fill="#30AAFC"/>
<g opacity="0.3">
<path d="M96.2667 120.913V143.711C93.7149 143.06 91.1149 141.447 88.9852 139.045V120.866C91.1174 119.841 93.7174 119.912 96.2667 120.913Z" fill="white"/>
</g>
<g opacity="0.3">
<path d="M103.923 127.516V142.071C103.691 142.289 103.442 142.495 103.179 142.683C102.05 143.491 100.739 143.922 99.342 144.015V122.599C100.781 123.627 102.13 124.959 103.28 126.559C103.505 126.874 103.721 127.194 103.923 127.514V127.516Z" fill="white"/>
</g>
<path d="M98.7658 144.893C97.6277 144.893 96.4345 144.694 95.2175 144.291C92.1502 143.276 89.2821 141.077 87.1424 138.101C85.0028 135.125 83.8353 131.711 83.8559 128.488C83.8766 125.163 85.1494 122.43 87.44 120.793C89.7306 119.154 92.7333 118.829 95.8977 119.876C98.965 120.891 101.833 123.089 103.973 126.065C106.112 129.041 107.28 132.455 107.259 135.679C107.239 139.003 105.965 141.736 103.675 143.374C102.266 144.381 100.586 144.892 98.7658 144.892V144.893ZM92.3575 120.978C90.8874 120.978 89.5464 121.38 88.4346 122.176C86.6 123.488 85.5797 125.733 85.5621 128.499C85.544 131.366 86.5981 134.424 88.5292 137.111C90.4603 139.797 93.0265 141.773 95.7549 142.676C98.3862 143.547 100.847 143.304 102.681 141.991C104.516 140.679 105.536 138.434 105.554 135.668C105.572 132.801 104.518 129.743 102.587 127.057C100.655 124.37 98.0893 122.394 95.3609 121.491C94.3243 121.148 93.3133 120.978 92.3575 120.978V120.978Z" fill="#371A45"/>
<path d="M103.177 142.683C98.913 145.733 92.045 143.458 87.8377 137.606C83.6286 131.752 83.6724 124.535 87.9367 121.485C88.2374 121.27 88.5505 121.081 88.8775 120.919C85.4676 124.275 85.7056 130.893 89.6172 136.333C93.527 141.771 99.7361 144.12 104.017 141.976C103.758 142.232 103.479 142.468 103.178 142.683H103.177Z" fill="#FF2727"/>
<path d="M98.7746 144.497C94.8768 144.497 90.4835 142.089 87.4557 137.879C85.3624 134.968 84.2205 131.634 84.2399 128.491C84.2593 125.292 85.4751 122.669 87.663 121.104C87.9824 120.876 88.3207 120.673 88.6683 120.5C88.875 120.397 89.1255 120.46 89.2596 120.647C89.3936 120.834 89.3717 121.091 89.207 121.253C85.9167 124.491 86.2568 130.857 89.9981 136.06C93.7393 141.264 99.6747 143.627 103.804 141.557C104.01 141.454 104.262 141.515 104.396 141.702C104.531 141.889 104.51 142.146 104.346 142.308C104.071 142.582 103.769 142.836 103.45 143.064C102.09 144.036 100.479 144.497 98.7734 144.497H98.7746ZM86.7579 123.29C85.7419 124.648 85.192 126.436 85.1795 128.496C85.1613 131.443 86.2411 134.58 88.2192 137.332C91.7061 142.182 97.0734 144.507 101.08 143.217C97.0321 143.456 92.382 140.982 89.2352 136.606C86.0864 132.227 85.2289 127.038 86.7579 123.29Z" fill="#371A45"/>
<path d="M156.724 116.681C154.95 122.533 149.999 126.907 143.928 127.757C134.86 129.026 125.968 125.077 118.93 115.288C112.898 106.897 111.69 97.5555 114.004 90.1066C116.106 83.3411 122.534 78.9144 129.633 79.1355C131.085 79.1805 132.493 79.2892 133.854 79.4485C147.841 81.0902 156.838 88.1775 156.838 88.1775C156.838 88.1775 160.682 98.9468 157.754 112.686C157.475 113.992 157.135 115.326 156.725 116.68L156.724 116.681Z" fill="#FF2727"/>
<g opacity="0.5">
<path d="M121.451 86.5558C121.718 84.4536 124.754 82.6026 129.446 82.3184C135.501 81.9517 148.103 86.0766 147.267 88.0451C145.958 91.1267 121.183 88.6573 121.451 86.5558Z" fill="white"/>
</g>
<g opacity="0.2">
<path d="M158.848 101.552C158.888 104.876 158.611 108.653 157.753 112.687C157.653 113.154 157.545 113.628 157.428 114.101C157.374 114.328 157.314 114.558 157.255 114.791C157.135 115.25 157.01 115.709 156.874 116.172C156.834 116.314 156.791 116.452 156.749 116.594C156.74 116.622 156.732 116.651 156.723 116.679C156.72 116.69 156.717 116.699 156.712 116.71C154.932 122.549 149.987 126.909 143.928 127.756C137.123 128.706 130.418 126.721 124.521 121.534C125.334 121.149 126.15 120.683 126.97 120.127C139.651 111.526 156.511 81.7543 158.703 98.2365C158.712 98.3102 158.717 98.3839 158.72 98.4608C158.737 98.6932 158.754 98.9262 158.768 99.1642C158.774 99.2835 158.779 99.4022 158.785 99.5246C158.794 99.6465 158.799 99.7658 158.802 99.8876C158.807 99.9725 158.811 100.061 158.813 100.149C158.819 100.307 158.824 100.466 158.83 100.628C158.836 100.798 158.839 100.968 158.841 101.141C158.844 101.278 158.847 101.414 158.847 101.552H158.848Z" fill="#371A45"/>
</g>
<path d="M140.683 129.119C132.13 129.119 124.179 124.535 118.006 115.949C112.225 107.908 110.323 98.1222 112.918 89.7711C115.145 82.6039 122.029 77.7674 129.669 78.0023C131.102 78.0473 132.555 78.1548 133.987 78.3228C148.131 79.9826 157.166 86.9906 157.543 87.2886C157.711 87.421 157.839 87.5971 157.91 87.7983C158.072 88.2506 161.828 99.0298 158.866 112.923C158.574 114.295 158.219 115.67 157.813 117.009C155.899 123.322 150.511 127.981 144.087 128.88C142.944 129.04 141.808 129.119 140.684 129.119H140.683ZM129.129 80.2625C122.701 80.2625 116.97 84.3931 115.091 90.4427C112.705 98.119 114.486 107.16 119.855 114.627C126.416 123.752 134.684 127.905 143.77 126.633C149.32 125.856 153.977 121.821 155.636 116.352C156.023 115.073 156.362 113.76 156.641 112.45C159.191 100.489 156.448 90.7188 155.869 88.8715C154.301 87.7327 145.9 82.0054 133.72 80.5755C132.353 80.4149 130.966 80.3125 129.597 80.2694C129.441 80.2644 129.284 80.2619 129.129 80.2619V80.2625Z" fill="#371A45"/>
<path d="M116.221 159.893C115.959 159.893 115.701 159.774 115.533 159.547C115.254 159.169 115.335 158.637 115.714 158.358C115.89 158.228 116.115 158.17 116.331 158.197C116.799 158.255 117.131 158.68 117.072 159.147C117.03 159.479 116.802 159.743 116.504 159.845C116.412 159.878 116.316 159.894 116.221 159.894V159.893Z" fill="#371A45"/>
<path d="M68.6216 160.125C67.2981 160.868 40.0101 174.758 38.4498 172.847C37.1338 170.758 59.0796 149.437 60.2102 148.425C61.3433 147.412 72.8733 139.369 72.8733 139.369L72.8752 139.371C73.8198 141.442 75.0192 143.531 76.5213 145.62C78.0214 147.707 79.6217 149.511 81.2835 151.066L81.2854 151.069C81.2854 151.069 69.9482 159.38 68.6222 160.125L68.6216 160.125Z" fill="#FF2727"/>
<g opacity="0.7">
<path d="M73.6287 140.919C71.1891 142.626 62.5791 148.658 61.6064 149.526C60.6142 150.414 42.3076 167.415 38.711 172.99C38.5914 172.962 38.5037 172.914 38.4492 172.845C37.1326 170.758 59.0784 149.438 60.2102 148.425C61.3421 147.41 72.8721 139.367 72.8721 139.367L72.8752 139.37C73.1114 139.886 73.3613 140.402 73.6287 140.919Z" fill="white"/>
</g>
<path d="M81.286 151.068C81.286 151.068 69.9463 159.381 68.621 160.123C67.2987 160.866 40.0101 174.757 38.4492 172.845C38.4122 172.786 38.3922 172.709 38.3922 172.619C44.5681 170.781 65.3795 158.104 66.5396 157.452C67.7365 156.777 77.1175 149.923 78.9058 148.615C79.6819 149.494 80.4755 150.308 81.2828 151.065L81.286 151.068Z" fill="#CC3232"/>
<path d="M39.0392 173.877C38.3878 173.877 38.0345 173.685 37.7884 173.383C37.7665 173.356 37.7464 173.328 37.7276 173.299C37.2341 172.515 37.5253 171.356 40.4748 167.753C42.1742 165.678 44.637 162.949 47.7951 159.645C53.2814 153.903 59.0352 148.334 59.6408 147.792C60.799 146.756 71.9125 139.001 72.3848 138.671C72.5714 138.541 72.8013 138.491 73.0255 138.531C73.2491 138.572 73.4477 138.7 73.5767 138.887C73.6049 138.927 73.6312 138.973 73.6519 139.018C74.604 141.105 75.8022 143.16 77.2146 145.124C78.6283 147.09 80.1936 148.88 81.8672 150.445C81.9211 150.495 81.9681 150.552 82.0069 150.615C82.2437 150.992 82.1497 151.49 81.7902 151.754C81.3254 152.094 70.3955 160.104 69.0406 160.865C68.3316 161.264 61.1961 164.912 53.9842 168.252C49.8327 170.175 46.4522 171.626 43.9361 172.566C41.4044 173.511 39.9387 173.876 39.0399 173.876L39.0392 173.877ZM72.5345 140.644C68.9028 143.183 61.6082 148.317 60.7796 149.058C60.2334 149.546 54.8793 154.728 49.6009 160.223C41.9136 168.226 39.923 171.14 39.4157 172.155C40.5431 172.001 43.9486 171.056 54.0142 166.361C60.9249 163.138 67.5637 159.742 68.2032 159.384C69.174 158.838 76.3891 153.595 79.965 150.98C78.4861 149.514 77.0975 147.882 75.8279 146.116C74.5589 144.351 73.4533 142.514 72.5345 140.644V140.644Z" fill="#371A45"/>
<path d="M85.5797 92.2093C85.5797 92.2093 95.2081 106.03 81.4031 116.461C81.4031 116.461 83.3705 126.026 78.0139 127.681C71.9845 129.542 66.5302 123.794 66.3949 116.389C66.2878 110.516 70.3623 104.021 70.3623 104.021C70.3623 104.021 59.0157 98.4507 59.4893 82.2959L61.4855 83.0543L75.7872 90.1934L85.5791 92.2099L85.5797 92.2093Z" fill="white"/>
<path d="M84.565 113.597C83.6837 114.569 82.637 115.528 81.4031 116.461C81.4031 116.461 81.6361 117.592 81.7244 119.144C81.8265 121.001 81.7244 123.46 80.7636 125.304C80.1949 126.398 79.3248 127.275 78.0139 127.68C71.9858 129.543 66.5321 123.795 66.3955 116.39C66.2871 110.514 70.3622 104.02 70.3622 104.02C70.3622 104.02 59.017 98.4501 59.4918 82.2965L61.488 83.0537L75.7878 90.1915L85.5809 92.2081C85.5809 92.2081 85.9987 92.809 86.5393 93.8529C88.3451 97.3725 91.5069 105.943 84.5656 113.597H84.565Z" fill="white"/>
<path d="M70.9642 94.6276C68.4963 97.8635 75.3355 101.319 74.1611 106.553C73.7264 108.49 70.0942 117.545 84.5643 113.597C83.6831 114.57 82.6364 115.529 81.4025 116.462C81.4025 116.462 81.6355 117.593 81.7238 119.145C79.1532 118.495 73.3581 117.386 72.0246 120.129C70.2702 123.73 75.6556 126.927 80.7623 125.304C80.1936 126.399 79.3236 127.275 78.0126 127.681C71.9845 129.544 66.5308 123.796 66.3943 116.391C66.2859 110.515 70.361 104.021 70.361 104.021C70.361 104.021 59.0157 98.4508 59.4905 82.2972L61.4867 83.0543L75.7865 90.1922L85.5797 92.2087C85.5797 92.2087 85.9975 92.8097 86.538 93.8536L86.5349 93.8592C86.5349 93.8592 74.9848 89.3588 70.9642 94.6276Z" fill="#E5E5E5"/>
<path d="M86.0469 91.8857C89.0854 95.6539 90.548 100.611 89.8489 105.439C89.1455 110.314 85.9574 114.476 82.0902 117.365L82.5174 116.234C83.2346 120.451 83.4043 126.872 78.5657 128.692C77.0292 129.209 75.3738 129.317 73.7922 128.943C68.6028 127.694 65.6207 122.279 65.2994 117.285C65.0012 112.335 66.9736 107.619 69.3983 103.418L69.8605 105.038C65.9001 102.846 62.824 99.2335 60.8792 95.1929C58.9575 91.1761 58.2246 86.6738 58.3524 82.2622C58.4401 80.7791 60.6161 80.8122 60.6261 82.3265C60.5679 84.3824 60.7088 86.4352 61.079 88.4392C62.0536 93.9066 65.0626 99.0529 69.6488 102.252C69.9413 102.453 70.2727 102.667 70.5802 102.845C70.6854 102.907 70.8001 102.967 70.8746 103.007C71.4383 103.3 71.6576 103.993 71.3638 104.555C69.1878 108.332 67.3019 112.699 67.5681 117.122C67.843 121.174 70.123 125.685 74.3096 126.732C75.7609 127.05 77.4815 126.938 78.7173 126.063C81.0824 124.088 80.763 119.574 80.2888 116.688C80.1986 116.247 80.3796 115.812 80.716 115.556C82.4573 114.237 84.0257 112.703 85.2032 110.925C86.3883 109.154 87.1631 107.156 87.4832 105.078C87.9761 101.928 87.4174 98.6113 86.3626 95.5802C86.0044 94.5351 85.5697 93.4775 85.0961 92.4979C84.8092 91.9082 85.6179 91.3778 86.0463 91.8845L86.0469 91.8857Z" fill="#371A45"/>
<path d="M130.11 35.9929C130.11 35.9929 134.984 41.0162 135.078 42.3974C135.251 44.9574 129.417 56.793 124.824 58.4385C123.026 59.0832 113.495 56.0047 113.495 56.0047L130.11 35.9929Z" fill="white"/>
<path d="M113.495 56.0053C113.495 56.0053 123.026 59.0826 124.824 58.4379C126.616 57.7963 128.6 55.5999 130.338 53.0086C130.197 53.0511 125.731 54.2967 122.014 45.7676C122.012 45.7626 122.009 45.757 122.007 45.7527L113.495 56.0053Z" fill="#E5E5E5"/>
<path d="M74.0102 37.4941C74.0102 37.4941 65.5531 32.1385 64.9035 30.3462C64.2552 28.5602 64.6849 25.6353 65.5762 22.6474V22.6449C66.9643 17.9796 69.4722 13.1525 70.745 12.2373C71.8705 11.4277 78.8595 11.965 78.8595 11.965L76.4943 24.4153L74.0102 37.4941Z" fill="white"/>
<path d="M74.0102 37.4941C74.0102 37.4941 65.5531 32.1385 64.9035 30.3462C64.2552 28.5602 64.6849 25.6353 65.5762 22.6474C65.6332 22.7836 67.5217 27.0072 76.478 24.4197C76.4831 24.4178 76.4893 24.4172 76.4943 24.4153L74.0102 37.4941Z" fill="#E5E5E5"/>
<path d="M124.155 59.6436C121.401 59.6436 115.719 57.9156 113.145 57.0841L111.55 56.5694L130.044 34.2943L130.928 35.2045C132.856 37.1917 136.108 40.7594 136.213 42.3212C136.409 45.2292 130.345 57.6657 125.209 59.5067C124.945 59.6017 124.586 59.6436 124.155 59.6436ZM115.452 55.4274C119.401 56.6212 123.595 57.6089 124.448 57.3684C128.497 55.9172 134.029 44.6263 133.945 42.5036C133.764 41.8395 131.991 39.6693 130.167 37.7033L115.451 55.4274H115.452Z" fill="#371A45"/>
<path d="M74.8169 39.3482L73.402 38.4524C70.7606 36.78 64.5402 32.6801 63.8343 30.7335C61.9778 25.6147 67.7096 13.0226 70.0804 11.3178C71.3538 10.4026 76.1824 10.6231 78.9471 10.8355L80.2136 10.9329L74.8169 39.3482ZM71.387 13.1756C69.6952 14.4656 64.507 25.9177 65.9733 29.9614C66.3285 30.7623 69.7678 33.3529 73.2091 35.6237L77.5034 13.0144C74.8219 12.8676 72.0146 12.8908 71.387 13.1762V13.1756Z" fill="#371A45"/>
<path d="M98.5272 36.394L98.479 36.4958L98.4376 36.4152L98.5272 36.394Z" fill="#D8D8D8"/>
<path d="M98.4376 36.4152L98.3486 36.4346L98.3969 36.3328L98.4376 36.4152Z" fill="#D8D8D8"/>
<path d="M100.958 61.7651C117.741 61.7651 131.346 48.1959 131.346 31.4576C131.346 14.7192 117.741 1.15009 100.958 1.15009C84.1753 1.15009 70.5702 14.7192 70.5702 31.4576C70.5702 48.1959 84.1753 61.7651 100.958 61.7651Z" fill="white"/>
<path d="M128.46 44.3502C121.32 59.4986 103.22 66.0062 88.0319 58.8858C72.8433 51.7654 66.3166 33.7121 73.4558 18.5637C74.2094 16.9645 75.0856 15.4602 76.069 14.0615C72.2144 28.0205 78.8695 43.1333 92.454 49.5021C106.039 55.871 121.951 51.3375 130.268 39.4706C129.815 41.1186 129.213 42.751 128.459 44.3502H128.46Z" fill="#E5E5E5"/>
<path d="M100.909 62.8976C96.4226 62.8976 91.8689 61.9387 87.5471 59.9128C79.9261 56.3401 74.1567 50.0212 71.3005 42.1206C68.4449 34.22 68.8452 25.6828 72.4273 18.082C79.8221 2.39199 98.6368 -4.37292 114.368 3.00232C130.1 10.3776 136.883 29.1424 129.488 44.8325C124.125 56.2121 112.754 62.897 100.909 62.897V62.8976ZM101.003 2.28641C90.0118 2.28641 79.4626 8.48784 74.4856 19.0478C67.6244 33.6059 73.9175 51.017 88.5142 57.86C103.11 64.7024 120.567 58.4248 127.429 43.8685C134.29 29.3105 127.997 11.8993 113.401 5.05635C109.391 3.17662 105.165 2.28641 101.003 2.28641Z" fill="#371A45"/>
<path d="M100.909 62.8976C96.4226 62.8976 91.8689 61.9387 87.5471 59.9128C79.9261 56.3401 74.1567 50.0212 71.3005 42.1206C68.4449 34.22 68.8452 25.6828 72.4273 18.082C79.8221 2.39199 98.6368 -4.37292 114.368 3.00232C130.1 10.3776 136.883 29.1424 129.488 44.8325C124.125 56.2121 112.754 62.897 100.909 62.897V62.8976ZM101.003 2.28641C90.0118 2.28641 79.4626 8.48784 74.4856 19.0478C67.6244 33.6059 73.9175 51.017 88.5142 57.86C103.11 64.7024 120.567 58.4248 127.429 43.8685C134.29 29.3105 127.997 11.8993 113.401 5.05635C109.391 3.17662 105.165 2.28641 101.003 2.28641Z" fill="#371A45"/>
<path d="M100.909 62.8976C96.4226 62.8976 91.8689 61.9387 87.5471 59.9128C79.9261 56.3401 74.1567 50.0212 71.3005 42.1206C68.4449 34.22 68.8452 25.6828 72.4273 18.082C79.8221 2.39199 98.6368 -4.37292 114.368 3.00232C130.1 10.3776 136.883 29.1424 129.488 44.8325C124.125 56.2121 112.754 62.897 100.909 62.897V62.8976ZM101.003 2.28641C90.0118 2.28641 79.4626 8.48784 74.4856 19.0478C67.6244 33.6059 73.9175 51.017 88.5142 57.86C103.11 64.7024 120.567 58.4248 127.429 43.8685C134.29 29.3105 127.997 11.8993 113.401 5.05635C109.391 3.17662 105.165 2.28641 101.003 2.28641Z" fill="#371A45"/>
<path d="M100.961 62.9047C96.4307 62.9047 91.8533 61.9308 87.5464 59.9118C74.5507 53.8197 67.3263 39.7613 69.9595 25.708C69.962 25.6855 69.9658 25.663 69.9701 25.6405C70.4593 23.0474 71.2855 20.5042 72.4273 18.0823C72.9328 17.0096 73.4991 15.9658 74.1098 14.9787C82.5042 1.32896 99.8125 -3.82109 114.368 3.00317C128.928 9.8293 135.995 26.4102 130.807 41.573C130.433 42.6725 129.989 43.7701 129.488 44.8327C128.348 47.2509 126.913 49.5086 125.223 51.5426C125.208 51.5607 125.193 51.5782 125.177 51.5951C119.045 58.9416 110.1 62.9047 100.961 62.9053V62.9047ZM72.2069 26.0641C69.7321 39.1229 76.4379 52.1973 88.5142 57.8584C100.585 63.5169 114.951 60.3303 123.457 50.1089C123.475 50.0864 123.494 50.0646 123.513 50.044C125.063 48.1698 126.38 46.0921 127.429 43.8669C127.893 42.8805 128.306 41.8622 128.654 40.8408C133.467 26.7725 126.909 11.3886 113.4 5.05532C99.8951 -1.27605 83.8365 3.50105 76.0465 16.1675C75.479 17.084 74.9541 18.0516 74.4856 19.0462C73.4345 21.2757 72.6716 23.614 72.2169 25.9972C72.2144 26.0191 72.2106 26.0416 72.2062 26.0635L72.2069 26.0641Z" fill="#371A45"/>
<path d="M130.892 37.5122C130.864 37.5122 130.836 37.5109 130.807 37.5078C130.386 37.4641 130.071 37.1036 130.085 36.682C130.481 24.6171 123.381 13.3724 111.996 8.03556C100.62 2.70184 87.413 4.41915 78.3508 12.4104C78.0339 12.6902 77.5547 12.6771 77.2522 12.3822C76.9503 12.0868 76.9284 11.6089 77.2021 11.2871C86.2874 0.623452 101.512 -2.66061 114.228 3.30031C126.951 9.26497 134.13 23.0603 131.685 36.8475C131.616 37.2348 131.278 37.5116 130.892 37.5116V37.5122ZM98.3324 3.35715C103.164 3.35715 108.067 4.4154 112.683 6.57937C120.899 10.4313 126.992 17.2174 129.87 25.2055C127.95 16.4334 122.055 8.7471 113.542 4.75587C105.034 0.767134 95.3402 1.14321 87.3435 5.26312C90.848 3.99997 94.5679 3.35778 98.3324 3.35778V3.35715Z" fill="#371A45"/>
<path d="M128.457 44.3502C127.338 46.7241 125.95 48.8893 124.346 50.819C124.346 50.819 124.344 50.8178 124.343 50.8203C115.239 57.7763 101.38 60.9361 89.6535 55.4393C77.928 49.9419 71.526 37.2836 71.0882 25.854C71.0894 25.8515 71.0869 25.8502 71.0869 25.8502C71.5517 23.387 72.3365 20.9388 73.4558 18.5649C73.945 17.5273 74.4862 16.529 75.0769 15.5751C83.6123 7.07603 97.9346 4.74588 110.721 10.7405C123.51 16.7364 130.85 29.228 129.731 41.2067C129.37 42.2649 128.946 43.3151 128.458 44.3502H128.457Z" fill="#371A45"/>
<g opacity="0.35">
<path d="M128.458 44.3514C127.339 46.7253 125.95 48.8905 124.347 50.8202C124.347 50.8202 124.345 50.819 124.343 50.8215C115.24 57.7776 101.38 60.9367 89.6548 55.4399C77.9293 49.9425 71.5273 37.2848 71.0888 25.8552C71.0901 25.8527 71.0876 25.8515 71.0876 25.8515C71.3651 24.384 71.7559 22.9235 72.262 21.4773C75.1715 31.277 81.7683 40.5064 91.75 45.186C104.466 51.1476 119.385 48.1821 129.743 41.0518C129.739 41.1049 129.737 41.1561 129.731 41.2079C129.37 42.2662 128.946 43.3163 128.458 44.3514Z" fill="#111A28"/>
</g>
<g opacity="0.5">
<path d="M123.875 42.829C125.524 40.4178 125.44 37.4972 123.688 36.3057C121.936 35.1142 119.18 36.1029 117.531 38.5142C115.882 40.9254 115.966 43.846 117.718 45.0375C119.47 46.229 122.227 45.2403 123.875 42.829Z" fill="white"/>
</g>
<g opacity="0.5">
<path d="M113.678 49.7198C114.58 48.7279 114.62 47.2973 113.767 46.5247C112.913 45.752 111.49 45.9298 110.587 46.9218C109.684 47.9138 109.644 49.3443 110.498 50.117C111.351 50.8896 112.775 50.7118 113.678 49.7198Z" fill="white"/>
</g>
<g opacity="0.5">
<path d="M76.5363 30.3862C76.5363 30.3862 77.841 14.5824 87.6918 12.0699C97.5425 9.55795 108.428 14.0008 107.889 14.5943C107.889 14.5943 94.64 12.6128 86.0413 20.2085C79.4107 26.0657 76.5363 30.3862 76.5363 30.3862Z" fill="white"/>
</g>
<path d="M79.9387 82.1754C79.566 84.6654 76.4154 85.4963 76.4154 85.4963C76.4154 85.4963 64.0266 86.7438 59.7699 81.4326C56.11 76.3987 61.1291 72.7886 61.1291 72.7886C61.1291 72.7886 61.763 73.4945 63.094 74.3684C65.4059 75.8802 69.8217 77.888 76.686 77.5563C76.686 77.5563 79.7909 78.5771 79.97 81.4645C79.9844 81.7137 79.9731 81.9523 79.9387 82.176V82.1754Z" fill="white"/>
<path d="M79.9387 82.1754C79.566 84.6654 76.4154 85.4963 76.4154 85.4963C76.4154 85.4963 64.0266 86.7438 59.7699 81.4326C56.11 76.3987 61.1291 72.7886 61.1291 72.7886C61.1291 72.7886 61.763 73.4945 63.094 74.3684C62.9092 77.0484 63.523 80.4287 67.2286 82.0229C71.3062 83.7784 76.8564 83.1686 79.9387 82.176V82.1754Z" fill="#D8D8D8"/>
<path d="M73.2792 86.7632C69.1152 86.7632 62.0761 86.1279 58.8804 82.1416C58.8692 82.1279 58.8585 82.1135 58.8479 82.0985C57.5807 80.3543 57.0859 78.5565 57.3759 76.7548C57.857 73.7737 60.3586 71.944 60.4651 71.8678C60.9355 71.5292 61.5869 71.5985 61.9753 72.0289C62.0266 72.0845 66.5615 76.9122 76.6302 76.4237C76.7705 76.4168 76.909 76.4356 77.0418 76.4793C77.1983 76.5305 80.8801 77.7812 81.1043 81.3926C81.2998 84.5374 78.3133 86.1703 76.7073 86.5939C76.649 86.6089 76.5901 86.6201 76.5306 86.6257C76.369 86.642 75.0988 86.7632 73.2798 86.7632H73.2792ZM60.6737 80.7454C63.8324 84.6454 72.8476 84.6967 76.2006 84.3781C76.6584 84.2375 78.9522 83.436 78.8338 81.5325C78.7242 79.7727 77.0486 78.9294 76.5012 78.7001C67.8487 79.0587 62.9374 75.8434 61.1078 74.3147C60.0624 75.3842 58.4927 77.7218 60.6743 80.7454H60.6737Z" fill="#371A45"/>
<path d="M80.6496 110.731C80.56 110.731 80.4698 110.731 80.379 110.728C76.1191 110.635 73.9143 108.239 72.304 106.489C71.5235 105.641 70.8489 104.908 70.3015 104.869C69.8317 104.835 69.4785 104.428 69.5117 103.959C69.5455 103.491 69.9564 103.138 70.4236 103.172C71.6475 103.26 72.5338 104.224 73.5604 105.339C75.0412 106.948 76.8833 108.95 80.416 109.028C86.5042 109.158 87.921 104.027 87.978 103.808C88.097 103.355 88.5618 103.081 89.0165 103.198C89.4713 103.316 89.7462 103.776 89.6303 104.231C89.6134 104.296 87.8872 110.732 80.649 110.732L80.6496 110.731Z" fill="#371A45"/>
<path d="M71.2197 114.957C73.707 116.475 77.0261 116.811 79.7927 115.909C80.7116 115.598 81.5678 115.145 82.3539 114.594C82.7385 114.308 83.2878 114.393 83.5634 114.785C83.8478 115.185 83.73 115.749 83.3104 116.002C82.3426 116.592 81.2998 117.052 80.2118 117.338C78.0558 117.904 75.764 117.756 73.6619 117.099C72.6203 116.765 71.6181 116.326 70.7086 115.638C70.5213 115.496 70.4844 115.23 70.6266 115.043C70.7681 114.856 71.0337 114.821 71.2197 114.957Z" fill="#371A45"/>
<path d="M61.2356 151.216C63.5982 152.519 65.7184 155.015 66.6016 157.561C64.2346 156.263 62.125 153.759 61.2356 151.216Z" fill="#371A45"/>
</g>
<defs>
<linearGradient id="paint0_linear_643_27" x1="64.802" y1="153.95" x2="19.5207" y2="186.092" gradientUnits="userSpaceOnUse">
<stop stop-color="#FF4545"/>
<stop offset="1" stop-color="#F7931E"/>
</linearGradient>
<linearGradient id="paint1_linear_643_27" x1="26.4719" y1="164.13" x2="19.4044" y2="173.624" gradientUnits="userSpaceOnUse">
<stop stop-color="#FF4545"/>
<stop offset="1" stop-color="#F7931E"/>
</linearGradient>
<linearGradient id="paint2_linear_643_27" x1="21.5982" y1="186.042" x2="16.5248" y2="190.393" gradientUnits="userSpaceOnUse">
<stop stop-color="#FF4545"/>
<stop offset="1" stop-color="#F7931E"/>
</linearGradient>
<linearGradient id="paint3_linear_643_27" x1="6.62759" y1="196.089" x2="1.55479" y2="200.64" gradientUnits="userSpaceOnUse">
<stop stop-color="#FF4545"/>
<stop offset="1" stop-color="#F7931E"/>
</linearGradient>
<clipPath id="clip0_643_27">
<rect width="160" height="204" fill="white"/>
</clipPath>
</defs>
</svg>
