<?xml version="1.0" encoding="UTF-8"?>
<svg id="_레이어_2" data-name="레이어 2" xmlns="http://www.w3.org/2000/svg" viewBox="0 0 1920.08 2808.3">
  <defs>
    <style>
      .cls-1 {
        fill: #fff;
      }

      .cls-2 {
        fill: #111a28;
      }

      .cls-3 {
        fill: #d8d8d8;
      }

      .cls-4 {
        opacity: .5;
      }

      .cls-5 {
        opacity: .35;
      }

      .cls-6 {
        fill: #e5e5e5;
      }

      .cls-7 {
        fill: #22a7f0;
      }

      .cls-8 {
        fill: #371a45;
      }

      .cls-9 {
        fill: #197bdd;
      }
    </style>
  </defs>
  <g id="Layer_1" data-name="Layer 1">
    <g>
      <g>
        <path class="cls-1" d="M1421.91,497.66s142.68,54.09,157.35,80.51c27.19,48.97,22.14,336.8-53.06,411.84-29.45,29.38-245.8,56.84-245.8,56.84l141.52-549.19Z"/>
        <path class="cls-6" d="M1280.39,1046.86s216.36-27.47,245.79-56.86c29.35-29.27,48.04-91.03,58.23-158.32-2.39,2.16-78.81,68.11-231.25-65.95-.08-.08-.2-.16-.27-.24l-72.5,281.37Z"/>
        <path class="cls-1" d="M330.57,1046.86s-216.36-27.47-245.79-56.86c-29.35-29.27-48.04-91.03-58.23-158.32l-.04-.04c-15.95-105.02-11.36-223.61,5.21-253.47,14.66-26.41,157.34-80.53,157.34-80.53l69.01,267.85,72.5,281.37Z"/>
        <path class="cls-6" d="M330.57,1046.86s-216.36-27.47-245.79-56.86c-29.35-29.27-48.04-91.03-58.23-158.32,2.39,2.16,78.81,68.11,231.25-65.95,.08-.08,.2-.16,.27-.24l72.5,281.37Z"/>
        <path class="cls-8" d="M1258.38,1066.26l152.17-590.53,17.21,6.52c44.59,16.91,150.04,59.32,165.91,87.92,30.2,54.4,26.35,349.5-55.83,431.51-31.02,30.95-203.31,54.92-255.37,61.52l-24.09,3.06Zm174.87-546.53l-130.79,507.55c95.3-13.31,197.61-34.48,212.1-48.94,69.28-69.14,74.59-348.41,50.3-392.18-7.52-11.94-71-42.41-131.61-66.44Z"/>
        <path class="cls-8" d="M352.61,1066.26l-24.09-3.06c-52.06-6.61-224.35-30.57-255.37-61.52C-9.04,919.67-12.89,624.57,17.31,570.17c15.88-28.6,121.32-71.01,165.92-87.92l17.21-6.52,152.17,590.53ZM177.74,519.73c-60.61,24.03-124.1,54.5-131.65,66.5-24.26,43.7-18.95,322.98,50.33,392.11,14.49,14.46,116.81,35.64,212.1,48.94l-130.79-507.56Z"/>
      </g>
      <g>
        <g>
          <path class="cls-1" d="M1250.64,2019.37h60.01c35.77,0,64.76-28.99,64.76-64.76v-170.21c0-35.77-28.99-64.76-64.76-64.76h-56.62"/>
          <path class="cls-8" d="M1310.66,2035.85h-60.01c-9.1,0-16.48-7.38-16.48-16.48s7.38-16.48,16.48-16.48h60.01c26.62,0,48.28-21.66,48.28-48.28v-170.21c0-26.62-21.66-48.28-48.28-48.28h-56.62c-9.1,0-16.48-7.38-16.48-16.48s7.38-16.48,16.48-16.48h56.62c44.79,0,81.24,36.44,81.24,81.24v170.21c0,44.79-36.45,81.24-81.24,81.24Z"/>
        </g>
        <g>
          <path class="cls-1" d="M356.34,2019.37h-60.01c-35.77,0-64.76-28.99-64.76-64.76v-170.21c0-35.77,28.99-64.76,64.76-64.76h56.62"/>
          <path class="cls-8" d="M356.34,2035.85h-60.01c-44.79,0-81.24-36.45-81.24-81.24v-170.21c0-44.8,36.45-81.24,81.24-81.24h56.62c9.1,0,16.48,7.38,16.48,16.48s-7.38,16.48-16.48,16.48h-56.62c-26.62,0-48.28,21.66-48.28,48.28v170.21c0,26.62,21.66,48.28,48.28,48.28h60.01c9.1,0,16.48,7.38,16.48,16.48s-7.38,16.48-16.48,16.48Z"/>
        </g>
        <g>
          <rect class="cls-1" x="307.52" y="1156.59" width="991.95" height="1048.06" rx="215.42" ry="215.42"/>
          <path class="cls-8" d="M1084.05,2221.13H522.94c-127.87,0-231.9-104.03-231.9-231.9v-617.22c0-127.87,104.03-231.9,231.9-231.9h561.11c127.87,0,231.9,104.03,231.9,231.9v617.22c0,127.87-104.03,231.9-231.9,231.9ZM522.94,1173.07c-109.7,0-198.94,89.24-198.94,198.94v617.22c0,109.7,89.24,198.94,198.94,198.94h561.11c109.7,0,198.94-89.24,198.94-198.94v-617.22c0-109.7-89.24-198.94-198.94-198.94H522.94Z"/>
        </g>
      </g>
      <path class="cls-1" d="M965.01,1266.77c123.9,0,501.94-54.13,606.29-370.55l285.15,108.04s-108.29,585.35-733.46,597.91"/>
      <path class="cls-8" d="M1122.98,1618.65c-8.95,0-16.29-7.16-16.47-16.15-.18-9.1,7.05-16.63,16.15-16.81,253.29-5.09,450.9-104.58,587.34-295.71,84.19-117.93,117.85-236.36,127.28-275.38l-255.98-96.98c-48.89,132.95-149.49,233.03-299.28,297.66-149.93,64.69-290.37,67.96-317,67.96-9.1,0-16.48-7.38-16.48-16.48s7.38-16.48,16.48-16.48c163.31,0,496.93-75.08,590.64-359.23,1.41-4.27,4.5-7.78,8.55-9.71,4.06-1.94,8.73-2.13,12.93-.54l285.15,108.03c7.45,2.82,11.82,10.57,10.37,18.41-1.13,6.12-28.96,151.64-135.07,300.8-98.19,138.03-284.47,303.96-614.27,310.59-.11,0-.23,0-.34,0Z"/>
      <g>
        <path class="cls-1" d="M170.95,1913.98s-49.38,153.99,112.93,187.04c29.25,6.01,57.19,3.56,82.18-5.56,107.72-39.71,159.8-205.77,18.33-371.93-7.46-8.81-15.47-17.58-24.04-26.39-.4-.35-.75-.7-1.1-1.1,0,0,7.51-12.42,31.55-29.95,15.07-10.97,36.71-23.99,67-37.16l58.19-178.03,.1-.3,10.32-31.55,62.9-192.2s-57.64,19.58-131.3,52.93c-24.34,11.02-50.48,23.59-76.87,37.46-7.26,3.81-14.57,7.76-21.88,11.77,0,0-15.98,8.61-41.01,24.14-128.05,79.72-491.92,341.48-147.28,560.83Z"/>
        <path class="cls-3" d="M475.18,1484.09l-17.36,144.84c-78.67,34.14-98.6,67.11-98.6,67.11,.37,.37,.75,.75,1.08,1.12-21.09-17.4-49.38-37.28-79.08-48.43,0,0,55.95-29.12,73.04-51.58,54.74-71.96,55.89-97.93,76.83-127.56,6.77-9.58,51.79-1.42,44.1,14.5Z"/>
        <path class="cls-3" d="M283.87,2101.06c-160.38-32.7-114.05-183.48-112.97-187.06l.05-.05s27.85,149.25,172.84,108.31c92.72-26.23,84.87-156.9,67.17-247.66,1.57-3.58,2.84-7.31,3.87-11.08h.05c127.97,190.39,14.22,367.15-131.01,337.54Z"/>
        <path class="cls-8" d="M315.11,2120.72c-11.36,0-22.91-1.15-34.51-3.52-53.34-10.87-91.41-35.23-113.17-72.39-27.29-46.62-20.48-99.79-15.37-123.46C54.89,1856.71,7.18,1782.39,10.2,1700.3c7.5-204.02,327.59-378.47,341.21-385.79,113.23-62.48,231.42-102.82,232.6-103.22,8.61-2.92,17.98,1.7,20.9,10.32,2.92,8.62-1.7,17.97-10.31,20.9-1.15,.39-116.68,39.84-227.42,100.95-3.32,1.79-317.27,172.9-324.04,358.09-2.64,72.33,43.33,139.13,136.65,198.54l10.73,6.83-3.88,12.11c-.18,.57-18.87,61.37,9.36,109.35,16.84,28.62,47.52,47.65,91.19,56.55,60.03,12.25,115.97-14.45,145.93-69.66,37.32-68.77,34.42-185.71-85.64-307.68l-8.99-9.13,6.64-10.96c2.04-3.37,21.94-33.89,90.76-66.66,8.23-3.92,18.05-.42,21.96,7.79,3.91,8.22,.42,18.05-7.79,21.96-37.81,18-58.49,34.83-68.61,44.81,122.25,130.99,122.43,258.59,80.64,335.58-30.81,56.78-86.23,89.75-146.97,89.76Z"/>
        <path class="cls-8" d="M182.37,1900.84c22.21,12.88,54.37,33.15,76.71,46.69-30.88-1.06-61.06-9.23-89.74-20.42,0,0,13.04-26.27,13.04-26.27h0Z"/>
        <path class="cls-8" d="M62.6,1828.53c-6.81,0-12.34-5.51-12.36-12.33-.11-45.9,38.08-93.52,97.29-121.31,67.29-31.57,169.55-39.96,254.73,31.19,5.24,4.38,5.94,12.17,1.56,17.41-4.38,5.23-12.17,5.94-17.41,1.56-76.28-63.71-167.99-56.12-228.39-27.79-50.56,23.72-83.17,62.53-83.08,98.87,.02,6.83-5.5,12.37-12.33,12.39h-.03Z"/>
        <path class="cls-8" d="M354.94,1707.58c-22.16-22.75-46.07-44.5-73.72-60.78,23.94,5.43,47.16,15.31,69.38,26.01,7.51,3.68,14.77,7.35,22.36,11.63l-18.02,23.13h0Z"/>
      </g>
      <path class="cls-6" d="M1132.36,1360.76c-94.07,59.55-205.58,94.03-325.18,94.03s-235.92-35.97-331.24-97.9c23.5-108.81,100.29-341.99,326.23-341.99s306.68,238.81,330.18,345.86Z"/>
      <path class="cls-1" d="M852.13,2152.66c57.95,199.18,118.63,522.76,137.31,576.46,19.85,57.07,71.46,62.03,71.46,62.03h176.38s121.88,6.08,154.26-23.7c32.38-29.78,30.54-81.41,6.84-110.64-24.84-30.63-77.43-30.4-77.43-30.4,0,0-36.01-432.23-92.87-697.76"/>
      <path class="cls-6" d="M1391.52,2767.45c-32.37,29.79-154.24,23.69-154.24,23.69h-176.37s-51.65-4.97-71.47-62.01c-18.69-53.72-79.37-377.29-137.31-576.46l375.96-224.03c11.46,53.56,22.09,113.93,31.75,176.14-80.19,160.57-253.67,164.91-271.61,258.75-16.07,83.98,9.15,299.49,83.63,356.49,60.48,46.25,278.73,44.92,343.98-16.5,1.49,22.95-5.86,47-24.32,63.92Z"/>
      <path class="cls-8" d="M1265.77,2808.3c-13.12,0-23.48-.4-28.89-.66h-175.98c-.53,0-1.05-.02-1.58-.08-2.54-.24-62.4-6.74-85.45-73.02-7.97-22.92-22.06-87.38-41.55-176.6-26.15-119.69-61.96-283.61-96.02-400.67-2.54-8.74,2.48-17.89,11.22-20.43,8.74-2.53,17.88,2.49,20.43,11.22,34.37,118.14,70.32,282.7,96.57,402.85,17.79,81.43,33.15,151.74,40.47,172.8,15.13,43.49,51.8,50.23,56.89,50.97h175.39c.27,0,.55,0,.82,.02,47.77,2.39,123.49-2.08,142.29-19.37,25.88-23.8,23.51-65.55,5.2-88.13-19.28-23.78-63.94-24.31-64.56-24.31h0c-8.51-.1-15.78-6.54-16.49-15.11-.36-4.31-36.58-434.24-92.56-695.67-1.91-8.9,3.76-17.66,12.66-19.57,8.89-1.9,17.66,3.76,19.56,12.66,50.67,236.61,85.18,609.04,91.96,685.77,19.9,2.37,54.48,10.13,75.03,35.46,28.12,34.68,31.42,96.46-8.49,133.15-26.9,24.74-95.59,28.71-136.93,28.71Z"/>
      <path class="cls-8" d="M965.75,2475.11c-23.02,0-37.86-1.28-40.22-1.5-9.06-.84-15.72-8.87-14.88-17.92,.84-9.06,8.83-15.68,17.92-14.89,2.3,.21,232.63,19.74,350.64-112.09,6.07-6.79,16.49-7.35,23.27-1.29,6.78,6.07,7.36,16.49,1.29,23.27-99.01,110.61-262.5,124.43-338.02,124.43Z"/>
      <path class="cls-8" d="M1320.97,2642.89l-96.94-5.41c-10.06-.52-10.53-15.29-.57-16.47,0,0,97.49-11.07,97.49-11.07,9.09-1.03,17.3,5.5,18.34,14.59,1.31,10.44-7.91,19.57-18.31,18.36h0Z"/>
      <path class="cls-1" d="M755.73,2152.66c-57.95,199.18-118.63,522.76-137.31,576.46-19.85,57.07-71.46,62.03-71.46,62.03h-176.38s-121.88,6.08-154.26-23.7c-32.38-29.78-30.54-81.41-6.84-110.64,24.84-30.63,77.43-30.4,77.43-30.4,0,0,36.01-432.23,92.87-697.76"/>
      <path class="cls-6" d="M216.33,2767.45c32.37,29.79,154.24,23.69,154.24,23.69h176.37s51.65-4.97,71.47-62.01c18.69-53.72,79.37-377.29,137.31-576.46l-375.96-224.03c-11.46,53.56-22.09,113.93-31.75,176.14,80.19,160.57,253.67,164.91,271.61,258.75,16.07,83.98-9.15,299.49-83.63,356.49-60.48,46.25-278.73,44.92-343.98-16.5-1.49,22.95,5.86,47,24.32,63.92Z"/>
      <path class="cls-8" d="M342.09,2808.3c-41.35,0-110.03-3.97-136.93-28.71-39.9-36.69-36.61-98.47-8.49-133.15,20.54-25.33,55.13-33.09,75.03-35.46,6.78-76.73,41.3-449.17,91.96-685.77,1.91-8.9,10.68-14.55,19.56-12.66,8.9,1.9,14.57,10.66,12.66,19.57-55.99,261.47-92.2,691.36-92.56,695.67-.71,8.55-7.86,15.11-16.42,15.11h-.07c-12.45,0-48.41,4.38-64.56,24.31-18.31,22.58-20.68,64.34,5.2,88.13,18.8,17.29,94.53,21.75,142.29,19.37,.27-.01,.55-.02,.82-.02h175.38c5.21-.76,41.81-7.57,56.9-50.97,7.32-21.05,22.69-91.37,40.47-172.79,26.25-120.16,62.2-284.72,96.58-402.86,2.54-8.74,11.68-13.75,20.43-11.22,8.74,2.54,13.76,11.69,11.22,20.43-34.06,117.07-69.87,280.99-96.02,400.68-19.49,89.21-33.57,153.66-41.54,176.59-23.05,66.28-82.91,72.77-85.45,73.02-.52,.05-1.05,.08-1.58,.08h-175.98c-5.41,.26-15.78,.66-28.89,.66Z"/>
      <path class="cls-8" d="M642.11,2475.11c-75.52,0-239.01-13.82-338.02-124.43-6.07-6.78-5.5-17.2,1.29-23.27,6.78-6.06,17.2-5.5,23.27,1.29,118.01,131.83,348.34,112.29,350.64,112.09,9.05-.78,17.08,5.84,17.92,14.89,.84,9.06-5.82,17.08-14.88,17.92-2.36,.22-17.21,1.5-40.22,1.5Z"/>
      <path class="cls-8" d="M286.92,2609.93l97.49,11.07c10,1.21,9.44,15.99-.57,16.47,0,0-96.94,5.42-96.94,5.42l-.92,.05c-23.72,.32-22.77-34.68,.95-33.01h0Z"/>
      <path class="cls-1" d="M1241.35,2023.72c-53.7,212.07-279.74,273.03-437.42,273.03s-383.72-60.96-437.38-273.03c-38.48-152,23.22-384.34,65.54-514.68,19.22-59.25,34.44-97.41,34.44-97.41,0,0,40.93-396.73,335.65-396.73s339.19,396.73,339.19,396.73c0,0,15.22,38.17,34.48,97.41,42.28,130.38,103.94,362.68,65.5,514.68Z"/>
      <path class="cls-6" d="M1253.49,1911.88c.04,39.96-3.52,77.92-12.12,111.86-53.72,212.07-279.74,273.02-437.43,273.02s-383.74-60.95-437.39-273.02c-8.6-33.94-12.2-71.9-12.12-111.86h899.05Z"/>
      <path class="cls-8" d="M370.88,2064.68c-81.47-130.99,1.01-440.74,54.44-578.85,10.14-26.16,20.87-51.97,33.54-77.26,2.04-4.08,7.01-5.74,11.1-3.69,3.66,1.83,5.36,6.02,4.21,9.79-37.98,132.43-78.42,264.91-95.22,401.89-6.5,53.78-9.9,108.5-4.1,162.22,2.8,26.66,7.11,52.6,11.43,80,1.58,8.72-10.61,13.66-15.39,5.9h0Z"/>
      <path class="cls-8" d="M982.05,2279.75c-111.43,44.81-244.77,44.81-356.2,0-8.92-3.82-4.96-17.5,4.67-15.8,71.79,12.58,144.07,19.24,216.8,15.2,43.73-2.06,86.68-7.73,130.06-15.2,9.54-1.68,13.68,12,4.67,15.8h0Z"/>
      <path class="cls-8" d="M1149.03,1408.57c36.93,75.74,62.83,156.23,83.98,237.6,27.77,109.45,47.54,223.45,32.66,336.55-4.4,28.5-13.01,57.04-28.55,81.65-2.48,3.92-7.67,5.1-11.59,2.62-2.95-1.86-4.35-5.27-3.8-8.51,4.39-27.35,8.61-53.32,11.39-79.96,5.72-53.71,2.33-108.39-4.19-162.15-10.46-81.79-28.09-162.39-49.93-242.09-14.44-53.24-29.99-106.43-45.28-159.6-2.81-9.39,10.63-15.21,15.31-6.1h0Z"/>
      <path class="cls-1" d="M970.38,1966.73c57.96,18.48,229.41,5.82,287.67-6.86,34.95-7.61,56.72-43.7,48.24-79.81h0c-7.74-32.95-38.21-54.69-70.52-50.21-54.88,7.62-222.9,16.28-276.34,8.91"/>
      <path class="cls-6" d="M970.36,1966.73c57.96,18.48,229.44,5.85,287.7-6.86,34.93-7.58,56.72-43.69,48.25-79.83-1.8-7.67-4.83-14.76-8.89-21.03-7.78,18.93-24.02,33.7-44.96,38.27-58.18,12.66-229.5,25.32-287.45,6.92l5.35,62.53Z"/>
      <path class="cls-8" d="M1067.16,1992.64c-41.07,0-78.56-2.8-101.79-10.21h0c-41.43-13.21-50.15-79.14-40.51-121.65,8.61-38,28.63-39.48,36.83-38.34,51.87,7.16,219.12-1.6,271.82-8.91,40.92-5.65,79.09,21.31,88.83,62.76,5.16,21.96,1.29,45.39-10.62,64.25-11.56,18.33-29.38,30.91-50.16,35.43-34.87,7.59-120.45,16.66-194.4,16.66Zm-105.95-137.04c-5.33,9.01-10.2,39.67-3.85,66.79,3.68,15.73,10.25,26.17,18.02,28.65h0c53.57,17.08,220.09,5.61,279.16-7.26,12.09-2.63,22.49-10.02,29.3-20.81,7.33-11.62,9.6-25.51,6.4-39.13-5.82-24.79-28.24-40.95-52.21-37.65-52.54,7.3-216.97,16.24-276.83,9.42Z"/>
      <path class="cls-1" d="M640.61,1966.73c-57.96,18.48-229.41,5.82-287.67-6.86-34.95-7.61-56.72-43.7-48.24-79.81h0c7.74-32.95,38.21-54.69,70.52-50.21,54.88,7.62,222.9,16.28,276.34,8.91"/>
      <path class="cls-6" d="M640.62,1966.73c-57.96,18.48-229.44,5.85-287.7-6.86-34.93-7.58-56.72-43.69-48.25-79.83,1.8-7.67,4.83-14.76,8.89-21.03,7.78,18.93,24.02,33.7,44.96,38.27,58.18,12.66,229.5,25.32,287.45,6.92l-5.35,62.53Z"/>
      <path class="cls-8" d="M543.82,1992.64c-73.96,0-159.53-9.07-194.4-16.66-20.79-4.53-38.6-17.11-50.16-35.43-11.91-18.87-15.78-42.29-10.62-64.26,9.74-41.45,47.96-68.4,88.82-62.76,52.7,7.32,219.94,16.07,271.82,8.91,8.19-1.14,28.22,.33,36.83,38.34,9.64,42.51,.91,108.43-40.51,121.65h0c-23.22,7.41-60.72,10.21-101.79,10.21Zm-177.1-146.89c-21.51,0-40.67,15.46-45.99,38.08-3.2,13.62-.92,27.51,6.41,39.13,6.81,10.79,17.21,18.18,29.3,20.81,59.08,12.86,225.6,24.34,279.16,7.27h0c7.77-2.48,14.34-12.92,18.02-28.65,6.35-27.12,1.48-57.77-3.85-66.79-59.86,6.83-224.28-2.12-276.83-9.42-2.09-.29-4.17-.43-6.22-.43Z"/>
      <g>
        <rect class="cls-1" x="556.16" y="1716.34" width="498.67" height="344.67" rx="78.36" ry="78.36" transform="translate(1610.99 3777.36) rotate(-180)"/>
        <path class="cls-6" d="M1054.83,1897.42v89.22c0,40.9-33.47,74.36-74.36,74.36h-349.93c-40.94,0-74.36-33.47-74.36-74.36v-50.08c8.95,11.89,20.6,23.42,30.85,20.88,21.39-5.32,11.89-43.2,29.56-82.65,17.71-39.49,120.49-32.18,128.44-7.06,7.94,25.12-9.66,120.05,120.07,120.05,107.56,0,165.31-24.2,189.74-90.35Z"/>
        <path class="cls-8" d="M976.47,2077.5h-341.95c-52.29,0-94.84-42.55-94.84-94.84v-187.94c0-52.3,42.55-94.84,94.84-94.84h341.95c52.3,0,94.84,42.55,94.84,94.84v187.94c0,52.29-42.55,94.84-94.84,94.84Zm-341.95-344.67c-34.12,0-61.88,27.76-61.88,61.88v187.94c0,34.12,27.76,61.88,61.88,61.88h341.95c34.12,0,61.88-27.76,61.88-61.88v-187.94c0-34.12-27.76-61.88-61.88-61.88h-341.95Z"/>
        <ellipse class="cls-7" cx="676.19" cy="1888.68" rx="61.08" ry="63.44"/>
        <path class="cls-1" d="M615.09,1888.7c0,4.32,.4,8.52,1.2,12.59,5.64-29.05,30.33-50.91,59.91-50.91s54.27,21.86,59.87,50.91c.8-4.07,1.2-8.27,1.2-12.59,0-35.04-27.33-63.46-61.07-63.46s-61.11,28.43-61.11,63.46Z"/>
        <path class="cls-9" d="M615.11,1888.67c0,35.06,27.36,63.44,61.08,63.44s61.08-28.37,61.08-63.44c0-5.87-.78-11.61-2.22-16.99-7.18,26.75-30.85,46.4-58.86,46.4s-51.68-19.65-58.86-46.4c-1.44,5.38-2.22,11.11-2.22,16.99Z"/>
        <path class="cls-8" d="M676.19,1964.48c-40.5,0-73.44-34-73.44-75.8s32.94-75.8,73.44-75.8,73.44,34,73.44,75.8-32.94,75.8-73.44,75.8Zm0-126.88c-26.87,0-48.73,22.92-48.73,51.08s21.86,51.08,48.73,51.08,48.73-22.92,48.73-51.08-21.86-51.08-48.73-51.08Z"/>
        <path class="cls-8" d="M839.53,2077.5c-9.1,0-16.48-7.38-16.48-16.48v-105.35c0-30.96,14.28-60.62,38.19-79.32l9.27-7.25c15.99-12.5,25.54-32.44,25.54-53.35v-99.41c0-9.1,7.38-16.48,16.48-16.48s16.48,7.38,16.48,16.48v99.41c0,30.97-14.28,60.62-38.2,79.32l-9.27,7.25c-15.99,12.5-25.54,32.45-25.54,53.35v105.35c0,9.1-7.38,16.48-16.48,16.48Z"/>
      </g>
      <polygon class="cls-3" points="803.38 798.07 803.38 800.53 801.81 799.32 803.38 798.07"/>
      <polygon class="cls-3" points="801.81 799.32 800.25 800.53 800.25 798.07 801.81 799.32"/>
      <circle class="cls-1" cx="805.43" cy="678.04" r="661.55"/>
      <path class="cls-6" d="M1467,678.03c0,365.37-296.18,661.55-661.55,661.55S143.86,1043.4,143.86,678.03c0-38.58,3.29-76.4,9.68-113.14,53.67,311.44,325.12,548.36,651.91,548.36s598.2-236.92,651.87-548.36c6.38,36.74,9.68,74.57,9.68,113.14Z"/>
      <path class="cls-8" d="M805.43,1356.07c-373.86,0-678.03-304.16-678.03-678.03S431.57,.02,805.43,.02s678.03,304.16,678.03,678.03-304.16,678.03-678.03,678.03Zm0-1323.1c-355.69,0-645.07,289.38-645.07,645.07s289.38,645.07,645.07,645.07,645.07-289.38,645.07-645.07S1161.13,32.98,805.43,32.98Z"/>
      <path class="cls-8" d="M805.43,1356.07c-373.86,0-678.03-304.16-678.03-678.03S431.57,.02,805.43,.02s678.03,304.16,678.03,678.03-304.16,678.03-678.03,678.03Zm0-1323.1c-355.69,0-645.07,289.38-645.07,645.07s289.38,645.07,645.07,645.07,645.07-289.38,645.07-645.07S1161.13,32.98,805.43,32.98Z"/>
      <path class="cls-8" d="M805.43,1356.07c-373.86,0-678.03-304.16-678.03-678.03S431.57,.02,805.43,.02s678.03,304.16,678.03,678.03-304.16,678.03-678.03,678.03Zm0-1323.1c-355.69,0-645.07,289.38-645.07,645.07s289.38,645.07,645.07,645.07,645.07-289.38,645.07-645.07S1161.13,32.98,805.43,32.98Z"/>
      <path class="cls-8" d="M805.42,1356.06c-308.93,0-578.59-208.37-656.16-506.88-.13-.38-.24-.76-.34-1.15-14.27-55.07-21.51-112.26-21.51-169.99,0-25.59,1.44-51.14,4.28-75.94C169.86,258.88,459.51,.03,805.42,.03s635.69,258.94,673.81,602.31c2.8,24.9,4.21,50.38,4.21,75.71,0,57.63-7.21,114.82-21.44,169.97-.1,.4-.22,.79-.35,1.18-77.64,298.51-347.32,506.87-656.23,506.87ZM180.93,840.02c73.5,284.46,330.27,483.09,624.49,483.09s550.98-198.65,624.56-483.08c.11-.45,.24-.89,.39-1.32,13.35-52.13,20.12-106.17,20.12-160.65,0-24.1-1.35-48.34-4.01-72.05C1410.21,279.32,1134.62,32.99,805.42,32.99S200.76,279.24,164.43,605.8c-2.7,23.62-4.07,47.91-4.07,72.25,0,54.56,6.79,108.6,20.17,160.64,.15,.44,.28,.88,.39,1.34Z"/>
      <path class="cls-8" d="M1443.94,521.03c-6.41,0-12.47-3.76-15.14-9.96-104.41-242.4-349.09-399.02-623.37-399.02S286.7,268.53,182.18,510.71c-3.42,7.93-12.39,11.89-20.57,9.03-8.16-2.85-12.73-11.53-10.47-19.87C230.99,205.55,500.05,0,805.43,0s574.68,205.71,654.41,500.24c2.26,8.35-2.31,17.02-10.48,19.87-1.79,.62-3.62,.92-5.42,.92ZM805.43,79.09c203.17,0,390.9,82.14,522.23,220.17C1208.81,135.87,1016.23,32.96,805.43,32.96S402.21,135.79,283.34,299.11C414.69,161.18,602.38,79.09,805.43,79.09Z"/>
      <path class="cls-8" d="M1466.94,678.06c0,57.26-7.26,112.89-20.92,165.85,0,0-.06,0-.06,.06-114.76,221.72-358.49,412.5-640.56,412.5s-525.74-190.78-640.5-412.5c0-.06-.06-.06-.06-.06-13.72-52.97-20.98-108.59-20.98-165.85,0-25.03,1.39-49.76,4.17-74.07C237.28,357.06,497.82,178.38,805.4,178.38s568.24,178.79,657.43,425.79c2.72,24.25,4.11,48.92,4.11,73.89Z"/>
      <g class="cls-5">
        <path class="cls-2" d="M1466.97,678.08c0,57.26-7.26,112.89-20.92,165.85,0,0-.06,0-.06,.06-114.76,221.72-358.49,412.49-640.56,412.49s-525.74-190.76-640.5-412.49c0-.06-.06-.06-.06-.06-8.16-31.56-14.03-64.03-17.48-97.29,148.32,166.64,363.99,287.87,604.1,287.87,305.89,0,572.29-196.75,710.15-433.53,.42,1.09,.85,2.12,1.21,3.2,2.72,24.25,4.11,48.92,4.11,73.89Z"/>
      </g>
      <path class="cls-8" d="M805.4,1268.97c-135.04,0-269.91-43.32-390.03-125.28-108.86-74.28-201.61-178.43-261.23-293.32-.61-1.02-1.09-2.13-1.39-3.32-14.19-54.75-21.38-111.6-21.38-168.99,0-25.42,1.43-50.82,4.25-75.49,.11-.96,.33-1.91,.66-2.83,45.27-125.25,132.3-233,251.69-311.6,121.5-79.99,265.84-122.26,417.43-122.26s295.99,42.3,417.51,122.33c119.41,78.64,206.44,186.43,251.67,311.71,.33,.92,.55,1.88,.66,2.85,2.78,24.76,4.19,50.09,4.19,75.28,0,57.3-7.17,114.15-21.32,168.98-.31,1.21-.8,2.34-1.42,3.36-59.61,114.88-152.36,219.01-261.24,293.29-120.13,81.96-255.01,125.28-390.06,125.28ZM176.57,839.31c104.81,201.61,339.64,404.66,628.84,404.66s524.09-203.06,628.89-404.67c13.37-52.33,20.14-106.57,20.14-161.25,0-23.77-1.3-47.66-3.87-71.03-90.63-248.98-349.69-416.15-645.17-416.15S250.96,357.99,160.29,606.87c-2.6,23.28-3.93,47.22-3.93,71.19,0,54.76,6.8,109,20.2,161.25Z"/>
      <g class="cls-4">
        <ellipse class="cls-1" cx="1274.5" cy="704.45" rx="108.81" ry="78.84" transform="translate(377.13 1851.33) rotate(-80.89)"/>
      </g>
      <g class="cls-4">
        <ellipse class="cls-1" cx="1182.3" cy="921.9" rx="49.94" ry="42.86" transform="translate(-45.79 1781.87) rotate(-72.95)"/>
      </g>
      <g class="cls-4">
        <path class="cls-1" d="M293.55,866.78s-108.44-322.41,63.81-455.25c172.25-132.84,423.84-137.42,418.29-121.16,0,0-277.16,73.07-381.68,295.46-80.6,171.49-100.42,280.95-100.42,280.95Z"/>
      </g>
      <path class="cls-1" d="M1698.55,911.66l112.94-60.04s16.84-21.82,36.13-52.66c36.9-58.95,82.72-150.84,37.08-186.34-53.66-41.78-115.71,56.47-145.44,112.83-11.05,20.99-17.62,36.14-17.62,36.14,0,0-.41-14.39-2.26-35.74-1.04-11.81-2.49-25.83-4.56-40.71-9.78-70.13-28.53-126.66-78.53-119.67-56.96,7.96-46.24,107.46-34.11,184.62,5.19,32.93,10.6,61.79,11.17,77.7,1.22,34.2,85.21,83.87,85.21,83.87Z"/>
      <path class="cls-6" d="M1698.55,911.66l112.94-60.04s16.84-21.82,36.13-52.66c-36.43,.96-92.03-8.81-108.36-73.51-11.05,20.99-17.62,36.14-17.62,36.14,0,0-.41-14.39-2.26-35.74-14.82,18.28-61.71,66.41-117.2,24.24,5.19,32.93,10.6,61.79,11.17,77.7,1.22,34.2,85.21,83.87,85.21,83.87Z"/>
      <path class="cls-8" d="M1698.54,928.16c-2.91,0-5.81-.77-8.39-2.29-21.53-12.73-91.88-57.4-93.28-97.5h0c-.38-10.84-3.48-29.71-7.08-51.56-11.19-68.06-26.52-161.28,5.23-204.42,9.68-13.16,22.8-20.97,39-23.23,20.89-2.91,50.19,1.52,71.03,39.27,11.79,21.36,20.07,51.36,26.06,94.44,.88,6.35,1.66,12.52,2.33,18.44,25.17-44.74,64.99-102.14,108.33-113.22,18.83-4.81,37.17-.82,53.05,11.54,80.14,62.36-54.68,241.83-70.31,262.09-1.43,1.86-3.24,3.38-5.31,4.48l-112.94,60.04c-2.42,1.29-5.08,1.93-7.73,1.93Zm-68.73-100.95c.49,13.97,34.88,43.85,69.3,65.5l101.46-53.94c43.57-57.42,116-180.48,74.03-213.14-7.87-6.12-15.69-7.91-24.65-5.62-40.13,10.26-90.72,96.32-113.18,148.16-3.07,7.08-10.64,11.08-18.22,9.63-7.58-1.45-13.14-7.97-13.37-15.69,0-.34-1.1-34.42-6.7-74.72-5.34-38.41-12.62-65.57-22.27-83.04-12.56-22.75-26.07-24.18-37.62-22.56-7.27,1.02-12.68,4.23-17.02,10.13-23.52,31.95-8.33,124.34,.75,179.53,3.93,23.91,7.04,42.8,7.49,55.75h0Z"/>
      <g>
        <path class="cls-1" d="M1735.05,1134.35c88.26-12.27,126.31-80.02,135.57-116.47,37.77-148.71-156.89-193.11-156.89-193.11,0,0-115.93-24.69-179.73,127.47"/>
        <path class="cls-8" d="M1733.92,1126.19c27.12-9.28,51.31-21.15,71.51-38.3,64.46-53.92,74.09-148.36,1.9-201.03-28.19-21.85-62.72-36.92-97.21-45.41-77.48-8.95-135.24,48.81-168.51,113.97-2.12,4.08-7.19,5.65-11.24,3.47-3.59-1.92-5.18-6.11-3.96-9.85,9.57-29.18,23.41-57.19,43.35-81.1,35.05-43.41,96.75-72.35,153.28-58.35,52.39,15.9,104.22,40.93,139.34,84.53,55.73,67.92,30.39,168.99-36.63,219.34-25.85,19.8-58.4,30.31-89.55,29.05-9.3-.44-10.96-13.48-2.27-16.32h0Z"/>
      </g>
      <g>
        <path class="cls-1" d="M1778.67,835.72c-36.25,5.68-76,46.36-64.88,105.32,8.63,45.76,50.7,71.59,93.76,74.43,52.88,3.48,86.39-41.08,88.92-71.53,1.31-15.69-1.81-40.96-40.02-69.59-15.8-29.36-38.77-44.74-77.78-38.62Z"/>
        <path class="cls-8" d="M1813.53,1032.14c-2.32,0-4.68-.08-7.07-.23-46.53-3.06-98.23-31.4-108.87-87.81-5.81-30.8,.24-60.88,17.04-84.68,15.07-21.36,38.06-36.3,61.48-39.98h0c41.93-6.54,72.39,7.8,93.07,43.9,31.5,24.53,46.2,52.1,43.71,81.97-3.05,36.62-39.96,86.83-99.36,86.83Zm-32.31-180.14h0c-14.79,2.32-29.62,12.19-39.66,26.42-8.21,11.64-16.89,31.42-11.58,59.57,7.37,39.07,44.81,58.81,78.65,61.04,43.56,2.88,69.65-35.23,71.42-56.45,1.01-12.1-1.36-30.97-33.48-55.04-1.91-1.43-3.49-3.27-4.63-5.38-13.98-25.98-31.56-34.71-60.72-30.15Z"/>
      </g>
      <g>
        <path class="cls-1" d="M1584.41,1075.39c-108.53-64.24-71.09-206.5-34.46-247.92,45.98-52.01,214.58-29.96,208.05,38.9-3.45,36.43-53.75,45.31-106.56,39.81,0,0,13.05,51.29,7.5,85.84"/>
        <path class="cls-8" d="M1580.22,1082.48c-85.62-42.33-99.65-149.79-64.18-231,20.28-51.43,61.08-67.43,112.59-69.76,44.59-.83,93.24,6.83,127.62,38.6,30.42,29.21,21.91,77.71-17.31,93.78-29.36,12.76-59.15,12.29-89.2,8.49,0,0,17.71-20.49,17.71-20.49,4.43,22.73,6.51,45.12,4.35,68.17-1.86,8.63-1.55,32.13-15.27,28.31-3.49-1.17-5.67-4.4-5.71-7.88-.7-13.55-2.9-27.04-5.59-40.41-2.81-13.21-6-27.26-9.77-40.05-2.55-8.46,2.24-17.38,10.7-19.93,2.34-.73,4.67-.78,7.01-.56,12.86,.86,25.67,.95,38.02,.2,16.71-1.5,34-3.2,45.37-14.04,8.62-9.64,6-22.52-3.84-32.11-16.12-15.43-42.31-22.61-65-25.84-37.08-4.27-92.08-3.79-112.79,31.12-28.11,47.34-37.25,110.9-14.93,162.23,10.12,22.73,27.22,42.21,48.64,56.98,8.39,5.74,.67,18.77-8.39,14.18h0Z"/>
      </g>
      <path class="cls-8" d="M1602.17,1448.74c-85.19,0-154.4-52.71-200.14-152.44-33.44-72.9-42.59-144.66-42.96-147.68-1.12-9.03,5.3-17.25,14.33-18.37,9.04-1.12,17.26,5.29,18.38,14.32,.34,2.71,35.83,271.21,210.4,271.21,9.1,0,16.48,7.38,16.48,16.48s-7.38,16.48-16.48,16.48Z"/>
    </g>
  </g>
</svg>