<svg width="501" height="201" viewBox="0 0 501 201" fill="none" xmlns="http://www.w3.org/2000/svg">
<path d="M147.664 91L453.779 97.09C486.639 97.09 499.5 104.323 499.5 113.5L495.5 156C495.5 165.178 487.359 174 454.5 174L425 181.744V200L369.5 181.744L188.322 182.908C155.462 182.908 112.842 174.747 112.842 165.569L83 110.601C83 101.423 114.805 91 147.664 91Z" fill="white" stroke="black" stroke-width="2" stroke-linecap="round" stroke-linejoin="round"/>
<path d="M146.944 112.152V133.896H148.936V112.152H146.944ZM137.488 113.832C134.296 113.832 131.992 116.784 131.992 121.392C131.992 126.024 134.296 128.976 137.488 128.976C140.704 128.976 143.008 126.024 143.008 121.392C143.008 116.784 140.704 113.832 137.488 113.832ZM137.488 115.632C139.624 115.632 141.088 117.888 141.088 121.392C141.088 124.92 139.624 127.224 137.488 127.224C135.376 127.224 133.888 124.92 133.888 121.392C133.888 117.888 135.376 115.632 137.488 115.632ZM155.606 113.208V114.816H169.574V113.208H155.606ZM153.278 122.352V123.96H172.862V122.352H153.278ZM161.318 117.984V122.592H163.286V117.984H161.318ZM168.422 113.208V114.744C168.422 116.352 168.422 118.128 167.87 120.624L169.814 120.84C170.366 118.32 170.366 116.376 170.366 114.744V113.208H168.422ZM161.99 125.664V126.624C161.99 129.48 158.654 131.664 154.67 132.216L155.438 133.8C159.878 133.056 163.694 130.488 163.694 126.624V125.664H161.99ZM162.278 125.664V126.624C162.278 130.488 166.07 133.056 170.558 133.8L171.302 132.216C167.342 131.664 163.982 129.48 163.982 126.624V125.664H162.278ZM175.332 123.576V125.208H194.94V123.576H175.332ZM177.876 131.76V133.392H192.78V131.76H177.876ZM177.876 127.104V132.264H179.868V127.104H177.876ZM185.148 112.896C180.492 112.896 177.516 114.528 177.516 117.24C177.516 119.928 180.492 121.56 185.148 121.56C189.78 121.56 192.78 119.928 192.78 117.24C192.78 114.528 189.78 112.896 185.148 112.896ZM185.148 114.528C188.556 114.528 190.74 115.536 190.74 117.24C190.74 118.944 188.556 119.952 185.148 119.952C181.74 119.952 179.556 118.944 179.556 117.24C179.556 115.536 181.74 114.528 185.148 114.528ZM209.488 114.048V117.936C209.488 121.896 207.016 126.072 203.872 127.656L205.096 129.24C208.528 127.416 211.12 122.736 211.12 117.936V114.048H209.488ZM209.848 114.048V117.936C209.848 122.592 212.368 127.032 215.728 128.832L216.952 127.248C213.88 125.712 211.456 121.752 211.456 117.936V114.048H209.848ZM218.848 112.176V133.872H220.864V112.176H218.848ZM220.384 120.96V122.64H224.416V120.96H220.384ZM241.095 112.2V125.112H243.087V112.2H241.095ZM242.487 117.72V119.4H246.303V117.72H242.487ZM229.407 126.192V133.584H243.087V126.192H229.407ZM241.143 127.776V131.976H231.375V127.776H241.143ZM227.199 122.352V124.008H228.903C232.911 124.008 235.767 123.864 239.199 123.288L239.031 121.656C235.647 122.256 232.839 122.352 228.903 122.352H227.199ZM227.151 113.352V114.984H234.951V117.768H227.199V123.288H229.143V119.304H236.919V113.352H227.151ZM248.341 121.224V122.856H267.949V121.224H248.341ZM250.933 117.864V119.472H265.621V117.864H250.933ZM250.933 112.872V119.16H252.901V114.504H265.381V112.872H250.933ZM250.693 124.728V126.288H263.461V128.352H250.741V132.576H252.709V129.84H265.429V124.728H250.693ZM250.741 132.048V133.632H266.077V132.048H250.741ZM286.163 112.152V133.896H288.155V112.152H286.163ZM276.707 113.832C273.515 113.832 271.211 116.784 271.211 121.392C271.211 126.024 273.515 128.976 276.707 128.976C279.923 128.976 282.227 126.024 282.227 121.392C282.227 116.784 279.923 113.832 276.707 113.832ZM276.707 115.632C278.843 115.632 280.307 117.888 280.307 121.392C280.307 124.92 278.843 127.224 276.707 127.224C274.595 127.224 273.107 124.92 273.107 121.392C273.107 117.888 274.595 115.632 276.707 115.632ZM308.031 118.608V121.92H309.999V118.608H308.031ZM307.743 113.496V114.168C307.743 116.448 304.167 118.128 300.255 118.44L300.903 119.952C305.463 119.52 309.495 117.432 309.495 114.168V113.496H307.743ZM308.607 113.496V114.168C308.607 117.432 312.639 119.52 317.175 119.952L317.823 118.44C313.911 118.128 310.335 116.424 310.335 114.168V113.496H308.607ZM301.023 112.848V114.408H317.079V112.848H301.023ZM301.047 125.64V127.224H317.031V125.64H301.047ZM299.223 121.176V122.784H318.903V121.176H299.223ZM309.039 128.28C304.863 128.28 302.511 129.264 302.511 131.136C302.511 133.032 304.863 133.992 309.039 133.992C313.215 133.992 315.543 133.032 315.543 131.136C315.543 129.264 313.215 128.28 309.039 128.28ZM309.039 129.648C311.895 129.648 313.527 130.152 313.527 131.136C313.527 132.12 311.895 132.624 309.039 132.624C306.159 132.624 304.551 132.12 304.551 131.136C304.551 130.152 306.159 129.648 309.039 129.648ZM308.055 123.648V126.648H310.023V123.648H308.055ZM327.085 113.832C323.893 113.832 321.637 116.784 321.637 121.392C321.637 126.024 323.893 128.976 327.085 128.976C330.277 128.976 332.533 126.024 332.533 121.392C332.533 116.784 330.277 113.832 327.085 113.832ZM327.085 115.632C329.173 115.632 330.637 117.888 330.637 121.392C330.637 124.92 329.173 127.224 327.085 127.224C324.973 127.224 323.533 124.92 323.533 121.392C323.533 117.888 324.973 115.632 327.085 115.632ZM335.989 112.176V133.872H338.005V112.176H335.989ZM337.525 120.84V122.52H341.557V120.84H337.525ZM358.091 112.176V133.872H360.083V112.176H358.091ZM359.603 121.08V122.76H363.635V121.08H359.603ZM343.283 115.632V117.264H356.075V115.632H343.283ZM349.763 119.064C346.715 119.064 344.483 121.128 344.483 124.056C344.483 126.984 346.715 129.048 349.763 129.048C352.835 129.048 355.043 126.984 355.043 124.056C355.043 121.128 352.835 119.064 349.763 119.064ZM349.763 120.72C351.731 120.72 353.147 122.088 353.147 124.056C353.147 126 351.731 127.392 349.763 127.392C347.795 127.392 346.379 126 346.379 124.056C346.379 122.088 347.795 120.72 349.763 120.72ZM348.731 112.44V116.376H350.723V112.44H348.731ZM368.121 118.68V120.312H382.857V118.68H368.121ZM365.457 123.216V124.848H385.137V123.216H365.457ZM368.121 112.968V119.496H370.089V112.968H368.121ZM367.977 131.712V133.344H382.977V131.712H367.977ZM367.977 127.008V132.144H369.945V127.008H367.977ZM404.101 112.656C399.397 112.656 396.469 114.192 396.469 116.76C396.469 119.328 399.397 120.84 404.101 120.84C408.781 120.84 411.733 119.328 411.733 116.76C411.733 114.192 408.781 112.656 404.101 112.656ZM404.101 114.24C407.533 114.24 409.693 115.152 409.693 116.76C409.693 118.344 407.533 119.28 404.101 119.28C400.645 119.28 398.509 118.344 398.509 116.76C398.509 115.152 400.645 114.24 404.101 114.24ZM396.685 126.432V133.584H411.493V126.432H396.685ZM409.549 128.04V131.976H398.653V128.04H409.549ZM394.285 122.712V124.32H413.893V122.712H394.285ZM422.436 113.448C419.172 113.448 416.771 115.56 416.771 118.608C416.771 121.632 419.172 123.72 422.436 123.72C425.7 123.72 428.1 121.632 428.1 118.608C428.1 115.56 425.7 113.448 422.436 113.448ZM422.436 115.152C424.596 115.152 426.156 116.544 426.156 118.608C426.156 120.648 424.596 122.064 422.436 122.064C420.276 122.064 418.715 120.648 418.715 118.608C418.715 116.544 420.276 115.152 422.436 115.152ZM431.22 112.176V124.944H433.212V112.176H431.22ZM432.66 117.744V119.424H436.428V117.744H432.66ZM419.124 126.072V127.68H431.22V133.896H433.212V126.072H419.124ZM438.466 121.224V122.856H458.074V121.224H438.466ZM441.058 117.864V119.472H455.746V117.864H441.058ZM441.058 112.872V119.16H443.026V114.504H455.506V112.872H441.058ZM440.818 124.728V126.288H453.586V128.352H440.866V132.576H442.834V129.84H455.554V124.728H440.818ZM440.866 132.048V133.632H456.202V132.048H440.866ZM476.288 112.152V133.896H478.28V112.152H476.288ZM466.832 113.832C463.64 113.832 461.336 116.784 461.336 121.392C461.336 126.024 463.64 128.976 466.832 128.976C470.048 128.976 472.352 126.024 472.352 121.392C472.352 116.784 470.048 113.832 466.832 113.832ZM466.832 115.632C468.968 115.632 470.432 117.888 470.432 121.392C470.432 124.92 468.968 127.224 466.832 127.224C464.72 127.224 463.232 124.92 463.232 121.392C463.232 117.888 464.72 115.632 466.832 115.632ZM131.2 158.456V160.112H150.856V158.456H131.2ZM139.984 152.84V158.912H141.976V152.84H139.984ZM133.48 142.976V153.2H148.456V142.976H133.48ZM146.536 144.584V151.592H135.424V144.584H146.536ZM163.046 146V147.656H169.598V146H163.046ZM163.046 152.864V154.52H169.598V152.864H163.046ZM159.062 142.832C155.894 142.832 153.662 145.784 153.662 150.392C153.662 155.024 155.894 157.976 159.062 157.976C162.206 157.976 164.462 155.024 164.462 150.392C164.462 145.784 162.206 142.832 159.062 142.832ZM159.062 144.632C161.15 144.632 162.59 146.888 162.59 150.392C162.59 153.92 161.15 156.224 159.062 156.224C156.974 156.224 155.534 153.92 155.534 150.392C155.534 146.888 156.974 144.632 159.062 144.632ZM169.166 141.152V162.896H171.134V141.152H169.166ZM182.994 143.12V153.176H192.954V143.12H182.994ZM191.01 144.728V151.568H184.938V144.728H191.01ZM196.938 141.152V157.064H198.93V141.152H196.938ZM198.306 147.776V149.432H202.146V147.776H198.306ZM185.418 160.76V162.392H199.914V160.76H185.418ZM185.418 155.552V161.456H187.41V155.552H185.418ZM204.184 150.224V151.856H223.792V150.224H204.184ZM206.776 146.864V148.472H221.464V146.864H206.776ZM206.776 141.872V148.16H208.744V143.504H221.224V141.872H206.776ZM206.536 153.728V155.288H219.304V157.352H206.584V161.576H208.552V158.84H221.272V153.728H206.536ZM206.584 161.048V162.632H221.92V161.048H206.584ZM232.047 142.832C228.879 142.832 226.646 145.784 226.646 150.392C226.646 155.024 228.879 157.976 232.047 157.976C235.191 157.976 237.447 155.024 237.447 150.392C237.447 145.784 235.191 142.832 232.047 142.832ZM232.047 144.632C234.135 144.632 235.551 146.888 235.551 150.392C235.551 153.92 234.135 156.224 232.047 156.224C229.959 156.224 228.543 153.92 228.543 150.392C228.543 146.888 229.959 144.632 232.047 144.632ZM242.151 141.152V162.896H244.119V141.152H242.151ZM236.799 149.432V151.064H243.015V149.432H236.799ZM254.101 143.552V145.76C254.101 148.856 251.893 151.664 248.629 152.816L249.661 154.4C253.309 153.08 255.757 149.744 255.757 145.76V143.552H254.101ZM254.485 143.552V145.76C254.485 149.576 256.981 152.744 260.581 153.968L261.613 152.408C258.397 151.328 256.141 148.688 256.141 145.76V143.552H254.485ZM249.157 142.976V144.584H261.037V142.976H249.157ZM264.109 141.2V157.064H266.125V141.2H264.109ZM252.181 160.76V162.392H266.773V160.76H252.181ZM252.181 155.576V161.48H254.149V155.576H252.181ZM293.537 141.176V154.904H295.433V141.176H293.537ZM290.009 147.056V148.712H294.113V147.056H290.009ZM288.905 141.608V154.136H290.777V141.608H288.905ZM277.049 143.768V145.352H288.041V143.768H277.049ZM282.569 146.456C279.833 146.456 277.937 147.944 277.937 150.176C277.937 152.432 279.833 153.896 282.569 153.896C285.281 153.896 287.177 152.432 287.177 150.176C287.177 147.944 285.281 146.456 282.569 146.456ZM282.569 147.944C284.249 147.944 285.401 148.832 285.401 150.176C285.401 151.544 284.249 152.408 282.569 152.408C280.865 152.408 279.713 151.544 279.713 150.176C279.713 148.832 280.865 147.944 282.569 147.944ZM281.585 141.344V144.656H283.529V141.344H281.585ZM288.329 155.288C283.769 155.288 281.081 156.632 281.081 159.056C281.081 161.456 283.769 162.824 288.329 162.824C292.841 162.824 295.553 161.456 295.553 159.056C295.553 156.632 292.841 155.288 288.329 155.288ZM288.329 156.824C291.617 156.824 293.585 157.616 293.585 159.056C293.585 160.496 291.617 161.312 288.329 161.312C284.993 161.312 283.049 160.496 283.049 159.056C283.049 157.616 284.993 156.824 288.329 156.824ZM304.695 142.4V144.632C304.695 147.944 302.535 150.848 299.223 152.024L300.255 153.656C303.975 152.264 306.351 148.832 306.351 144.632V142.4H304.695ZM305.055 142.4V144.56C305.055 148.496 307.383 151.688 310.887 153.008L311.967 151.448C308.799 150.344 306.687 147.632 306.687 144.56V142.4H305.055ZM315.087 141.176V154.016H317.079V141.176H315.087ZM309.951 154.64C305.463 154.64 302.703 156.152 302.703 158.744C302.703 161.336 305.463 162.824 309.951 162.824C314.415 162.824 317.175 161.336 317.175 158.744C317.175 156.152 314.415 154.64 309.951 154.64ZM309.951 156.224C313.215 156.224 315.207 157.16 315.207 158.744C315.207 160.328 313.215 161.264 309.951 161.264C306.687 161.264 304.695 160.328 304.695 158.744C304.695 157.16 306.687 156.224 309.951 156.224ZM310.383 145.76V147.416H315.519V145.76H310.383ZM337.069 141.152V162.896H339.061V141.152H337.069ZM327.613 142.832C324.421 142.832 322.117 145.784 322.117 150.392C322.117 155.024 324.421 157.976 327.613 157.976C330.829 157.976 333.133 155.024 333.133 150.392C333.133 145.784 330.829 142.832 327.613 142.832ZM327.613 144.632C329.749 144.632 331.213 146.888 331.213 150.392C331.213 153.92 329.749 156.224 327.613 156.224C325.501 156.224 324.013 153.92 324.013 150.392C324.013 146.888 325.501 144.632 327.613 144.632ZM358.235 141.2V157.184H360.227V141.2H358.235ZM359.627 147.824V149.504H363.443V147.824H359.627ZM346.859 160.76V162.392H361.211V160.76H346.859ZM346.859 155.936V161.36H348.851V155.936H346.859ZM344.339 152.168V153.8H346.043C350.051 153.8 352.907 153.68 356.339 153.104L356.171 151.448C352.787 152.048 349.979 152.168 346.043 152.168H344.339ZM344.291 142.592V144.224H352.091V147.296H344.339V152.744H346.283V148.808H354.059V142.592H344.291ZM380.145 141.152V162.896H382.161V141.152H380.145ZM381.681 149.72V151.4H385.713V149.72H381.681ZM366.393 155.816V157.496H368.097C372.177 157.496 375.033 157.376 378.369 156.752L378.153 155.072C374.913 155.672 372.105 155.816 368.097 155.816H366.393ZM366.393 143.264V156.56H368.361V144.896H376.473V143.264H366.393ZM389.666 161.136C389.246 161.136 388.885 160.986 388.584 160.685C388.283 160.384 388.132 160.023 388.132 159.602C388.132 159.182 388.283 158.821 388.584 158.52C388.885 158.219 389.246 158.068 389.666 158.068C390.087 158.068 390.447 158.219 390.749 158.52C391.05 158.821 391.2 159.182 391.2 159.602C391.2 159.881 391.129 160.136 390.987 160.369C390.851 160.602 390.666 160.79 390.433 160.932C390.206 161.068 389.95 161.136 389.666 161.136Z" fill="black"/>
</svg>
