<svg width="500" height="200" viewBox="0 0 500 200" fill="none" xmlns="http://www.w3.org/2000/svg">
<g clip-path="url(#clip0_355_61)">
<path d="M257.009 94.0002L460.611 99.8688C482.467 99.8688 500 106.963 500 115.806L487.463 165.865C487.463 174.709 473.482 181.13 451.626 181.13L407.134 181.444L417.602 200L351.88 181.803L284.052 182.566C262.196 182.566 233.848 174.702 233.848 165.858L214 112.888C214 104.045 235.154 94 257.009 94L257.009 94.0002Z" fill="white" stroke="black" stroke-width="2" stroke-linecap="round" stroke-linejoin="round"/>
<path d="M266.008 125.096V129.176H267.976V125.096H266.008ZM257.2 124.208V125.84H276.808V124.208H257.2ZM259.576 128.36V135.584H274.432V128.36H259.576ZM272.464 129.968V133.952H261.544V129.968H272.464ZM259.672 120.536V122.144H274.552V120.536H259.672ZM259.672 115.04V121.592H261.664V116.672H274.36V115.04H259.672ZM285.158 117.8V118.736C285.158 121.688 282.926 124.352 279.686 125.408L280.67 126.968C284.318 125.744 286.79 122.552 286.79 118.736V117.8H285.158ZM285.494 117.8V118.736C285.494 122.336 288.038 125.288 291.734 126.392L292.646 124.832C289.43 123.896 287.126 121.448 287.126 118.736V117.8H285.494ZM280.214 116.84V118.448H292.022V116.84H280.214ZM285.158 114.176V117.536H287.126V114.176H285.158ZM295.046 114.176V129.152H297.062V114.176H295.046ZM288.998 127.928V128.312C288.998 131.36 285.638 133.616 281.75 134.24L282.494 135.8C286.886 135.008 290.702 132.344 290.702 128.312V127.928H288.998ZM289.358 127.928V128.312C289.358 132.344 293.15 135.008 297.542 135.8L298.31 134.24C294.422 133.616 291.062 131.36 291.062 128.312V127.928H289.358ZM304.997 131.614L304.861 132.534C304.764 133.182 304.616 133.875 304.418 134.614C304.224 135.352 304.023 136.048 303.812 136.702C303.602 137.355 303.429 137.875 303.293 138.261H301.759C301.832 137.898 301.929 137.418 302.048 136.821C302.168 136.224 302.287 135.557 302.406 134.818C302.531 134.085 302.634 133.335 302.713 132.568L302.815 131.614H304.997ZM311.724 131.614L311.587 132.534C311.491 133.182 311.343 133.875 311.144 134.614C310.951 135.352 310.749 136.048 310.539 136.702C310.329 137.355 310.156 137.875 310.019 138.261H308.485C308.559 137.898 308.656 137.418 308.775 136.821C308.894 136.224 309.013 135.557 309.133 134.818C309.258 134.085 309.36 133.335 309.44 132.568L309.542 131.614H311.724ZM318.45 131.614L318.314 132.534C318.217 133.182 318.07 133.875 317.871 134.614C317.678 135.352 317.476 136.048 317.266 136.702C317.055 137.355 316.882 137.875 316.746 138.261H315.212C315.286 137.898 315.382 137.418 315.501 136.821C315.621 136.224 315.74 135.557 315.859 134.818C315.984 134.085 316.087 133.335 316.166 132.568L316.268 131.614H318.45ZM337.094 125.096V129.176H339.062V125.096H337.094ZM328.286 124.208V125.84H347.894V124.208H328.286ZM330.662 128.36V135.584H345.518V128.36H330.662ZM343.55 129.968V133.952H332.63V129.968H343.55ZM330.758 120.536V122.144H345.638V120.536H330.758ZM330.758 115.04V121.592H332.75V116.672H345.446V115.04H330.758ZM356.244 117.8V118.736C356.244 121.688 354.012 124.352 350.772 125.408L351.756 126.968C355.404 125.744 357.876 122.552 357.876 118.736V117.8H356.244ZM356.58 117.8V118.736C356.58 122.336 359.124 125.288 362.82 126.392L363.732 124.832C360.516 123.896 358.212 121.448 358.212 118.736V117.8H356.58ZM351.3 116.84V118.448H363.108V116.84H351.3ZM356.244 114.176V117.536H358.212V114.176H356.244ZM366.132 114.176V129.152H368.148V114.176H366.132ZM360.084 127.928V128.312C360.084 131.36 356.724 133.616 352.836 134.24L353.58 135.8C357.972 135.008 361.788 132.344 361.788 128.312V127.928H360.084ZM360.444 127.928V128.312C360.444 132.344 364.236 135.008 368.628 135.8L369.396 134.24C365.508 133.616 362.148 131.36 362.148 128.312V127.928H360.444ZM376.083 131.614L375.947 132.534C375.85 133.182 375.702 133.875 375.504 134.614C375.31 135.352 375.109 136.048 374.898 136.702C374.688 137.355 374.515 137.875 374.379 138.261H372.844C372.918 137.898 373.015 137.418 373.134 136.821C373.254 136.224 373.373 135.557 373.492 134.818C373.617 134.085 373.719 133.335 373.799 132.568L373.901 131.614H376.083ZM382.81 131.614L382.673 132.534C382.577 133.182 382.429 133.875 382.23 134.614C382.037 135.352 381.835 136.048 381.625 136.702C381.415 137.355 381.241 137.875 381.105 138.261H379.571C379.645 137.898 379.741 137.418 379.861 136.821C379.98 136.224 380.099 135.557 380.219 134.818C380.344 134.085 380.446 133.335 380.526 132.568L380.628 131.614H382.81ZM395.333 122.24V123.872H409.829V122.24H395.333ZM392.621 126.68V128.336H412.301V126.68H392.621ZM401.405 127.592V135.8H403.373V127.592H401.405ZM395.333 115.448V123.032H397.349V117.08H409.541V115.448H395.333ZM423.531 125.096V129.176H425.499V125.096H423.531ZM414.723 124.208V125.84H434.331V124.208H414.723ZM417.099 128.36V135.584H431.955V128.36H417.099ZM429.987 129.968V133.952H419.067V129.968H429.987ZM417.195 120.536V122.144H432.075V120.536H417.195ZM417.195 115.04V121.592H419.187V116.672H431.883V115.04H417.195ZM442.682 117.8V118.736C442.682 121.688 440.45 124.352 437.21 125.408L438.194 126.968C441.842 125.744 444.314 122.552 444.314 118.736V117.8H442.682ZM443.018 117.8V118.736C443.018 122.336 445.562 125.288 449.258 126.392L450.17 124.832C446.954 123.896 444.65 121.448 444.65 118.736V117.8H443.018ZM437.738 116.84V118.448H449.546V116.84H437.738ZM442.682 114.176V117.536H444.65V114.176H442.682ZM452.57 114.176V129.152H454.586V114.176H452.57ZM446.522 127.928V128.312C446.522 131.36 443.162 133.616 439.274 134.24L440.018 135.8C444.41 135.008 448.226 132.344 448.226 128.312V127.928H446.522ZM446.882 127.928V128.312C446.882 132.344 450.674 135.008 455.066 135.8L455.834 134.24C451.946 133.616 448.586 131.36 448.586 128.312V127.928H446.882ZM462.521 131.614L462.384 132.534C462.288 133.182 462.14 133.875 461.941 134.614C461.748 135.352 461.546 136.048 461.336 136.702C461.126 137.355 460.952 137.875 460.816 138.261H459.282C459.356 137.898 459.452 137.418 459.572 136.821C459.691 136.224 459.81 135.557 459.93 134.818C460.055 134.085 460.157 133.335 460.237 132.568L460.339 131.614H462.521ZM469.247 131.614L469.111 132.534C469.014 133.182 468.866 133.875 468.668 134.614C468.474 135.352 468.273 136.048 468.062 136.702C467.852 137.355 467.679 137.875 467.543 138.261H466.009C466.082 137.898 466.179 137.418 466.298 136.821C466.418 136.224 466.537 135.557 466.656 134.818C466.781 134.085 466.884 133.335 466.963 132.568L467.065 131.614H469.247ZM259.696 144.112V145.72H273.664V144.112H259.696ZM257.2 151.84V153.472H276.856V151.84H257.2ZM265.984 152.992V157.48H267.976V152.992H265.984ZM272.368 144.112V145.672C272.368 147.4 272.368 149.464 271.648 152.344L273.592 152.584C274.312 149.632 274.312 147.448 274.312 145.672V144.112H272.368ZM266.968 156.808C262.288 156.808 259.456 158.272 259.456 160.84C259.456 163.384 262.288 164.848 266.968 164.848C271.648 164.848 274.504 163.384 274.504 160.84C274.504 158.272 271.648 156.808 266.968 156.808ZM266.968 158.44C270.424 158.44 272.488 159.304 272.488 160.84C272.488 162.352 270.424 163.24 266.968 163.24C263.536 163.24 261.448 162.352 261.448 160.84C261.448 159.304 263.536 158.44 266.968 158.44ZM279.278 153.328V154.96H298.886V153.328H279.278ZM288.086 154.072V157.96H290.054V154.072H288.086ZM289.046 157.024C284.414 157.024 281.606 158.44 281.606 160.936C281.606 163.432 284.414 164.848 289.046 164.848C293.678 164.848 296.486 163.432 296.486 160.936C296.486 158.44 293.678 157.024 289.046 157.024ZM289.046 158.584C292.454 158.584 294.47 159.448 294.47 160.936C294.47 162.448 292.454 163.288 289.046 163.288C285.662 163.288 283.622 162.448 283.622 160.936C283.622 159.448 285.662 158.584 289.046 158.584ZM281.75 149.704V151.336H296.606V149.704H281.75ZM281.75 144.16V150.712H283.718V145.768H296.438V144.16H281.75ZM317.1 143.152V164.896H319.092V143.152H317.1ZM307.644 144.832C304.452 144.832 302.148 147.784 302.148 152.392C302.148 157.024 304.452 159.976 307.644 159.976C310.86 159.976 313.164 157.024 313.164 152.392C313.164 147.784 310.86 144.832 307.644 144.832ZM307.644 146.632C309.78 146.632 311.244 148.888 311.244 152.392C311.244 155.92 309.78 158.224 307.644 158.224C305.532 158.224 304.044 155.92 304.044 152.392C304.044 148.888 305.532 146.632 307.644 146.632ZM323.41 153.256V154.768H343.09V153.256H323.41ZM325.738 156.52V157.936H338.674V159.784H325.81V163.696H327.778V161.152H340.618V156.52H325.738ZM325.81 163.168V164.608H341.314V163.168H325.81ZM325.906 143.8V145.216H338.602V146.968H325.954V150.664H327.922V148.312H340.546V143.8H325.906ZM325.954 150.184V151.624H340.954V150.184H325.954ZM352.239 155.848V157.408H371.847V155.848H352.239ZM354.783 162.808V164.392H369.687V162.808H354.783ZM354.783 158.968V163.648H356.775V158.968H354.783ZM353.271 145.192V146.752H370.719V145.192H353.271ZM362.055 147.712C357.615 147.712 355.047 148.888 355.047 151.048C355.047 153.208 357.615 154.384 362.055 154.384C366.495 154.384 369.063 153.208 369.063 151.048C369.063 148.888 366.495 147.712 362.055 147.712ZM362.055 149.176C365.223 149.176 367.047 149.848 367.047 151.048C367.047 152.272 365.223 152.944 362.055 152.944C358.863 152.944 357.062 152.272 357.062 151.048C357.062 149.848 358.863 149.176 362.055 149.176ZM361.071 142.936V146.032H363.039V142.936H361.071ZM374.341 152.224V153.856H393.949V152.224H374.341ZM376.933 148.864V150.472H391.621V148.864H376.933ZM376.933 143.872V150.16H378.901V145.504H391.381V143.872H376.933ZM376.693 155.728V157.288H389.461V159.352H376.741V163.576H378.709V160.84H391.429V155.728H376.693ZM376.741 163.048V164.632H392.077V163.048H376.741ZM402.203 144.832C399.035 144.832 396.803 147.784 396.803 152.392C396.803 157.024 399.035 159.976 402.203 159.976C405.347 159.976 407.603 157.024 407.603 152.392C407.603 147.784 405.347 144.832 402.203 144.832ZM402.203 146.632C404.291 146.632 405.707 148.888 405.707 152.392C405.707 155.92 404.291 158.224 402.203 158.224C400.115 158.224 398.699 155.92 398.699 152.392C398.699 148.888 400.115 146.632 402.203 146.632ZM412.307 143.152V164.896H414.275V143.152H412.307ZM406.955 151.432V153.064H413.171V151.432H406.955ZM419.649 144.976V154.744H430.425V144.976H428.457V148.216H421.641V144.976H419.649ZM421.641 149.8H428.457V153.112H421.641V149.8ZM424.041 154.168V159.232H426.033V154.168H424.041ZM433.161 143.176V164.872H435.153V143.176H433.161ZM434.577 152.272V153.952H438.585V152.272H434.577ZM418.521 160.432C422.313 160.456 427.377 160.384 431.961 159.592L431.793 158.128C427.377 158.728 422.145 158.752 418.233 158.752L418.521 160.432Z" fill="black"/>
</g>
<defs>
<clipPath id="clip0_355_61">
<rect width="500" height="200" fill="white"/>
</clipPath>
</defs>
</svg>
