<svg width="500" height="200" viewBox="0 0 500 200" fill="none" xmlns="http://www.w3.org/2000/svg">
<g clip-path="url(#clip0_355_62)">
<path d="M190.739 131L449.868 134.322C477.685 134.322 500 138.337 500 143.343L484.043 171.678C484.043 176.684 466.249 180.319 438.433 180.319L411.5 181.132L418 200L373 180.319L296 181.132C268.183 181.132 161.262 176.68 161.262 171.674L136 141.692C136 136.686 162.923 131 190.739 131Z" fill="white" stroke="black" stroke-width="2" stroke-linecap="round" stroke-linejoin="round"/>
<path d="M203.444 147.152V168.896H205.436V147.152H203.444ZM193.988 148.832C190.796 148.832 188.492 151.784 188.492 156.392C188.492 161.024 190.796 163.976 193.988 163.976C197.204 163.976 199.508 161.024 199.508 156.392C199.508 151.784 197.204 148.832 193.988 148.832ZM193.988 150.632C196.124 150.632 197.588 152.888 197.588 156.392C197.588 159.92 196.124 162.224 193.988 162.224C191.876 162.224 190.388 159.92 190.388 156.392C190.388 152.888 191.876 150.632 193.988 150.632ZM226.296 162.152C221.568 162.152 218.856 163.328 218.856 165.512C218.856 167.696 221.568 168.848 226.296 168.848C231.048 168.848 233.736 167.696 233.736 165.512C233.736 163.328 231.048 162.152 226.296 162.152ZM226.296 163.64C229.776 163.64 231.696 164.288 231.696 165.512C231.696 166.736 229.776 167.36 226.296 167.36C222.84 167.36 220.896 166.736 220.896 165.512C220.896 164.288 222.84 163.64 226.296 163.64ZM217.536 149.024V150.584H234.984V149.024H217.536ZM226.32 151.448C221.832 151.448 219.312 152.552 219.312 154.592C219.312 156.632 221.832 157.736 226.32 157.736C230.784 157.736 233.328 156.632 233.328 154.592C233.328 152.552 230.784 151.448 226.32 151.448ZM226.32 152.864C229.44 152.864 231.192 153.488 231.192 154.592C231.192 155.696 229.44 156.32 226.32 156.32C223.176 156.32 221.424 155.696 221.424 154.592C221.424 153.488 223.176 152.864 226.32 152.864ZM225.336 146.84V149.96H227.304V146.84H225.336ZM216.504 159.128V160.712H236.112V159.128H216.504ZM247.558 149.504V149.84C247.558 155.552 244.75 160.16 238.606 163.208L239.662 164.768C246.814 161.24 249.502 155.696 249.502 149.504H247.558ZM239.542 149.504V151.136H248.542V149.504H239.542ZM254.446 147.152V168.848H256.438V147.152H254.446ZM248.71 153.104V154.712H254.854V153.104H248.71ZM248.47 158.936V160.568H254.614V158.936H248.47ZM260.66 158.168V159.8H280.34V158.168H260.66ZM269.636 159.2V164.192H271.652V159.2H269.636ZM263.156 166.736V168.392H278.156V166.736H263.156ZM263.156 162.056V167.192H265.148V162.056H263.156ZM270.476 147.704C265.868 147.704 262.868 149.384 262.868 152.072C262.868 154.76 265.868 156.44 270.476 156.44C275.06 156.44 278.084 154.76 278.084 152.072C278.084 149.384 275.06 147.704 270.476 147.704ZM270.476 149.336C273.788 149.336 275.972 150.392 275.972 152.072C275.972 153.776 273.788 154.808 270.476 154.808C267.164 154.808 264.98 153.776 264.98 152.072C264.98 150.392 267.164 149.336 270.476 149.336ZM305.881 147.2V158.456H307.777V147.2H305.881ZM301.801 147.632V158.312H303.697V147.632H301.801ZM298.297 151.976V153.608H302.401V151.976H298.297ZM293.473 159.44V161.024H305.833V163.136H293.521V167.936H295.513V164.624H307.777V159.44H293.473ZM293.521 166.976V168.584H308.617V166.976H293.521ZM290.449 148.568V157.232H298.801V148.568H290.449ZM296.953 150.104V155.672H292.297V150.104H296.953ZM311.591 164.552V166.208H331.247V164.552H311.591ZM320.375 159.896V165.248H322.367V159.896H320.375ZM313.967 148.784V150.392H326.855V153.752H314.039V159.704H316.007V155.36H328.823V148.784H313.967ZM314.039 158.864V160.496H329.327V158.864H314.039ZM349.413 147.176V168.92H351.405V147.176H349.413ZM335.061 161.84V163.52H336.813C341.181 163.52 344.013 163.4 347.325 162.776L347.109 161.096C343.893 161.696 341.109 161.84 336.813 161.84H335.061ZM335.061 149.24V162.464H337.029V150.896H345.309V149.24H335.061ZM370.411 147.152V168.872H372.427V147.152H370.411ZM371.875 155.96V157.616H375.883V155.96H371.875ZM364.867 149.504V149.816C364.867 155.552 361.867 160.184 355.867 163.232L356.971 164.768C363.979 161.24 366.811 155.672 366.811 149.504H364.867ZM356.875 149.504V151.136H365.899V149.504H356.875ZM384.575 156.224V157.856H404.183V156.224H384.575ZM387.167 152.864V154.472H401.855V152.864H387.167ZM387.167 147.872V154.16H389.135V149.504H401.615V147.872H387.167ZM386.927 159.728V161.288H399.695V163.352H386.975V167.576H388.943V164.84H401.663V159.728H386.927ZM386.975 167.048V168.632H402.311V167.048H386.975ZM422.445 147.152V168.896H424.437V147.152H422.445ZM407.901 162.008V163.664H409.701C413.421 163.664 416.685 163.52 420.621 162.872L420.405 161.24C416.565 161.864 413.325 162.008 409.701 162.008H407.901ZM407.853 149.192V150.824H415.869V155.312H407.901V162.632H409.893V156.944H417.885V149.192H407.853ZM444.499 147.176V168.872H446.491V147.176H444.499ZM430.099 149.288V162.728H432.067V149.288H430.099ZM430.099 161.552V163.28H431.875C435.307 163.28 438.739 163.016 442.507 162.248L442.267 160.544C438.595 161.312 435.163 161.552 431.875 161.552H430.099ZM454.075 162.091V161.989C454.087 160.903 454.2 160.04 454.416 159.398C454.632 158.756 454.939 158.236 455.337 157.838C455.734 157.44 456.212 157.074 456.768 156.739C457.104 156.534 457.405 156.293 457.672 156.014C457.939 155.73 458.149 155.403 458.303 155.034C458.462 154.665 458.541 154.256 458.541 153.807C458.541 153.25 458.411 152.767 458.149 152.358C457.888 151.949 457.538 151.634 457.101 151.412C456.663 151.19 456.178 151.08 455.643 151.08C455.178 151.08 454.729 151.176 454.297 151.369C453.865 151.562 453.504 151.866 453.214 152.281C452.925 152.696 452.757 153.239 452.712 153.909H450.564C450.609 152.943 450.859 152.116 451.314 151.429C451.774 150.741 452.379 150.216 453.129 149.852C453.885 149.489 454.723 149.307 455.643 149.307C456.643 149.307 457.513 149.506 458.251 149.903C458.996 150.301 459.57 150.847 459.973 151.54C460.382 152.233 460.587 153.023 460.587 153.909C460.587 154.534 460.49 155.099 460.297 155.605C460.109 156.111 459.837 156.562 459.479 156.96C459.126 157.358 458.7 157.71 458.2 158.017C457.7 158.33 457.3 158.659 456.999 159.006C456.697 159.347 456.479 159.753 456.342 160.224C456.206 160.696 456.132 161.284 456.121 161.989V162.091H454.075ZM455.166 167.136C454.746 167.136 454.385 166.986 454.084 166.685C453.783 166.384 453.632 166.023 453.632 165.602C453.632 165.182 453.783 164.821 454.084 164.52C454.385 164.219 454.746 164.068 455.166 164.068C455.587 164.068 455.947 164.219 456.249 164.52C456.55 164.821 456.7 165.182 456.7 165.602C456.7 165.881 456.629 166.136 456.487 166.369C456.351 166.602 456.166 166.79 455.933 166.932C455.706 167.068 455.45 167.136 455.166 167.136Z" fill="black"/>
</g>
<defs>
<clipPath id="clip0_355_62">
<rect width="500" height="200" fill="white"/>
</clipPath>
</defs>
</svg>
