<svg width="507" height="200" viewBox="0 0 507 200" fill="none" xmlns="http://www.w3.org/2000/svg">
<path d="M115.123 122L437.611 126.318C472.229 126.318 500 131.538 500 138.046L503.5 160.5C503.5 167.008 520.12 173.886 451.5 181.5H397L428.5 197.5L365 187.171L316 181.5L157.956 187.171C123.338 187.171 78.4381 181.384 78.4381 174.876L47 135.899C47 129.391 80.5061 122 115.123 122Z" fill="white" stroke="black" stroke-width="2" stroke-linecap="round" stroke-linejoin="round"/>
<path d="M89.984 142.832C86.816 142.832 84.584 145.784 84.584 150.392C84.584 155.024 86.816 157.976 89.984 157.976C93.128 157.976 95.384 155.024 95.384 150.392C95.384 145.784 93.128 142.832 89.984 142.832ZM89.984 144.632C92.072 144.632 93.488 146.888 93.488 150.392C93.488 153.92 92.072 156.224 89.984 156.224C87.896 156.224 86.48 153.92 86.48 150.392C86.48 146.888 87.896 144.632 89.984 144.632ZM100.088 141.152V162.896H102.056V141.152H100.088ZM94.736 149.432V151.064H100.952V149.432H94.736ZM117.102 148.52V150.152H123.15V148.52H117.102ZM111.87 143.048V146.912C111.87 150.944 109.422 155.12 106.23 156.704L107.502 158.288C110.934 156.44 113.502 151.784 113.502 146.912V143.048H111.87ZM112.254 143.048V146.912C112.254 151.664 114.774 156.128 118.278 157.904L119.454 156.296C116.31 154.808 113.862 150.872 113.862 146.912V143.048H112.254ZM122.166 141.152V162.896H124.134V141.152H122.166ZM140.626 143.384V145.136C140.626 148.208 138.394 151.088 135.154 152.24L136.186 153.824C139.81 152.48 142.258 149.096 142.258 145.136V143.384H140.626ZM141.01 143.384V145.136C141.01 148.76 143.338 152.024 146.866 153.32L147.874 151.736C144.73 150.632 142.618 147.92 142.618 145.136V143.384H141.01ZM146.698 146.816V148.472H151.522V146.816H146.698ZM135.778 142.664V144.272H147.37V142.664H135.778ZM138.466 155.336V156.968H150.946V162.872H152.938V155.336H138.466ZM150.946 141.176V154.16H152.938V141.176H150.946ZM159.248 143.336V144.992H173.216V143.336H159.248ZM157.184 158.192V159.848H176.792V158.192H157.184ZM164.792 150.44V159.008H166.784V150.44H164.792ZM172.472 143.336V145.496C172.472 148.088 172.472 151.136 171.656 155.288L173.648 155.552C174.44 151.16 174.44 148.184 174.44 145.496V143.336H172.472ZM200.845 141.176V152.768H202.837V141.176H200.845ZM202.285 146.192V147.848H206.053V146.192H202.285ZM194.845 142.688V143.768C194.845 147.392 191.797 150.296 186.085 151.568L186.877 153.176C193.237 151.712 197.053 148.16 197.053 142.688H194.845ZM186.973 142.688V144.32H195.997V142.688H186.973ZM189.181 153.752V161.84H191.148V155.264H202.957V153.752H189.181ZM189.181 161.072V162.584H203.437V161.072H189.181ZM190.477 157.376V158.84H202.693V157.376H190.477ZM223.835 141.152V162.896H225.827V141.152H223.835ZM214.379 142.832C211.187 142.832 208.883 145.784 208.883 150.392C208.883 155.024 211.187 157.976 214.379 157.976C217.595 157.976 219.899 155.024 219.899 150.392C219.899 145.784 217.595 142.832 214.379 142.832ZM214.379 144.632C216.515 144.632 217.979 146.888 217.979 150.392C217.979 153.92 216.515 156.224 214.379 156.224C212.267 156.224 210.779 153.92 210.779 150.392C210.779 146.888 212.267 144.632 214.379 144.632ZM245.727 153.248V156.656H247.695V153.248H245.727ZM236.895 152.096V153.704H256.503V152.096H236.895ZM239.079 156.152V157.784H252.087V162.8H254.079V156.152H239.079ZM245.727 141.056V144.08H247.695V141.056H245.727ZM245.631 144.344V144.704C245.631 147.2 242.271 148.976 238.071 149.36L238.695 150.872C243.423 150.368 247.383 148.28 247.383 144.704V144.344H245.631ZM246.039 144.344V144.704C246.039 148.28 249.975 150.368 254.727 150.872L255.351 149.36C251.151 148.976 247.791 147.2 247.791 144.704V144.344H246.039ZM238.911 143.288V144.896H254.511V143.288H238.911ZM275.485 141.176V162.872H277.405V141.176H275.485ZM267.589 148.952V150.608H271.741V148.952H267.589ZM271.141 141.68V161.768H273.013V141.68H271.141ZM263.413 144.536V147.296C263.413 151.28 261.733 155.24 258.709 157.064L259.933 158.552C263.125 156.536 264.949 152.048 264.949 147.296V144.536H263.413ZM263.821 144.536V147.296C263.821 151.832 265.573 156.104 268.741 158.024L269.965 156.56C266.989 154.832 265.357 151.064 265.357 147.296V144.536H263.821ZM259.309 143.696V145.352H269.221V143.696H259.309ZM281.051 151.256V152.768H300.731V151.256H281.051ZM283.379 154.52V155.936H296.315V157.784H283.451V161.696H285.419V159.152H298.259V154.52H283.379ZM283.451 161.168V162.608H298.955V161.168H283.451ZM283.547 141.8V143.216H296.243V144.968H283.595V148.664H285.563V146.312H298.187V141.8H283.547ZM283.595 148.184V149.624H298.595V148.184H283.595ZM309.879 150.416V152.024H329.487V150.416H309.879ZM312.255 153.968V155.504H325.023V157.472H312.303V161.576H314.271V158.936H326.991V153.968H312.255ZM312.303 161.096V162.632H327.639V161.096H312.303ZM318.543 142.664V143.36C318.543 145.688 314.943 147.44 310.935 147.8L311.583 149.312C316.215 148.88 320.295 146.696 320.295 143.36V142.664H318.543ZM319.119 142.664V143.36C319.119 146.696 323.199 148.88 327.807 149.312L328.455 147.8C324.447 147.44 320.847 145.688 320.847 143.36V142.664H319.119ZM311.679 141.992V143.576H327.735V141.992H311.679ZM347.773 141.176V162.872H349.765V141.176H347.773ZM341.413 143.504V143.84C341.413 149.6 338.509 154.208 332.245 157.232L333.301 158.84C340.549 155.288 343.381 149.792 343.381 143.504H341.413ZM333.229 143.504V145.136H342.277V143.504H333.229ZM369.899 141.152V162.896H371.891V141.152H369.899ZM365.771 149.504V151.136H370.379V149.504H365.771ZM354.851 156.032V157.712H356.507C360.419 157.712 363.179 157.568 366.443 156.992L366.251 155.336C363.059 155.912 360.347 156.032 356.507 156.032H354.851ZM354.803 143.192V144.824H362.531V149.168H354.851V156.536H356.819V150.8H364.499V143.192H354.803ZM397.552 141.152V162.872H399.568V141.152H397.552ZM399.016 149.96V151.616H403.024V149.96H399.016ZM392.008 143.504V143.816C392.008 149.552 389.008 154.184 383.008 157.232L384.112 158.768C391.12 155.24 393.952 149.672 393.952 143.504H392.008ZM384.016 143.504V145.136H393.04V143.504H384.016ZM404.966 158.456V160.112H424.622V158.456H404.966ZM413.75 153.272V158.936H415.742V153.272H413.75ZM407.27 142.712V153.8H422.27V142.712H420.302V146.576H409.238V142.712H407.27ZM409.238 148.184H420.302V152.168H409.238V148.184ZM432.396 144.272V147.8C432.396 151.472 429.78 155.6 426.684 157.112L427.836 158.696C431.22 156.968 433.98 152.312 433.98 147.8V144.272H432.396ZM432.756 144.272V147.8C432.756 152.096 435.372 156.464 438.804 158.168L439.932 156.584C436.788 155.096 434.34 151.232 434.34 147.8V144.272H432.756ZM427.452 143.384V145.064H439.14V143.384H427.452ZM441.708 141.176V162.872H443.724V141.176H441.708ZM443.244 149.936V151.616H447.276V149.936H443.244ZM451.186 143.336V144.992H465.154V143.336H451.186ZM449.122 158.192V159.848H468.73V158.192H449.122ZM456.73 150.44V159.008H458.722V150.44H456.73ZM464.41 143.336V145.496C464.41 148.088 464.41 151.136 463.594 155.288L465.586 155.552C466.378 151.16 466.378 148.184 466.378 145.496V143.336H464.41ZM474.5 143.545L474.33 156.091H472.352L472.182 143.545H474.5ZM473.341 161.136C472.92 161.136 472.56 160.986 472.259 160.685C471.957 160.384 471.807 160.023 471.807 159.602C471.807 159.182 471.957 158.821 472.259 158.52C472.56 158.219 472.92 158.068 473.341 158.068C473.761 158.068 474.122 158.219 474.423 158.52C474.724 158.821 474.875 159.182 474.875 159.602C474.875 159.881 474.804 160.136 474.662 160.369C474.526 160.602 474.341 160.79 474.108 160.932C473.881 161.068 473.625 161.136 473.341 161.136Z" fill="black"/>
</svg>
