<svg width="536" height="201" viewBox="0 0 536 201" fill="none" xmlns="http://www.w3.org/2000/svg">
<path d="M81.3034 95L461.455 101.09C502.264 101.09 535 108.452 535 117.629L531 151.5C531 160.678 517.307 174 476.5 174L438.5 185.417L453.5 199.5L365.5 185.417L131.796 186.908C90.9875 186.908 38.0595 178.747 38.0595 169.569L1 114.601C1 105.423 40.4972 95 81.3034 95Z" fill="white" stroke="black" stroke-width="2" stroke-linecap="round" stroke-linejoin="round"/>
<path d="M69.376 127.496V129.152H70.984C75.304 129.152 77.776 129.008 80.656 128.432L80.416 126.824C77.632 127.4 75.232 127.496 70.984 127.496H69.376ZM69.376 118.688V128.024H71.32V120.296H79.24V118.688H69.376ZM71.56 131.264V132.896H84.04V138.872H86.032V131.264H71.56ZM84.04 117.176V130.16H86.032V117.176H84.04ZM77.968 122.792V124.4H84.592V122.792H77.968ZM90.2541 128.624V130.256H109.91V128.624H90.2541ZM99.2301 129.44V134.432H101.222V129.44H99.2301ZM92.7501 136.76V138.392H107.726V136.76H92.7501ZM92.7501 132.512V137.384H94.7181V132.512H92.7501ZM92.8701 117.848V126.536H107.318V117.848H105.326V120.608H94.8381V117.848H92.8701ZM94.8381 122.168H105.326V124.928H94.8381V122.168ZM121.14 125.6V127.256H125.244V125.6H121.14ZM128.868 117.176V138.872H130.788V117.176H128.868ZM124.572 117.632V137.792H126.468V117.632H124.572ZM117.228 118.976C114.42 118.976 112.62 121.88 112.62 126.536C112.62 131.192 114.42 134.096 117.228 134.096C120.036 134.096 121.86 131.192 121.86 126.536C121.86 121.88 120.036 118.976 117.228 118.976ZM117.228 120.824C118.956 120.824 120.036 123.032 120.036 126.536C120.036 130.04 118.956 132.248 117.228 132.248C115.524 132.248 114.444 130.04 114.444 126.536C114.444 123.032 115.524 120.824 117.228 120.824ZM147.928 119.545V137H145.814V121.761H145.712L141.45 124.591V122.443L145.814 119.545H147.928ZM168.181 117.176V133.256H170.173V117.176H168.181ZM162.061 120.008V121.616H168.925V120.008H162.061ZM156.301 136.76V138.392H170.749V136.76H156.301ZM156.301 131.864V137.504H158.293V131.864H156.301ZM153.589 118.76V128.984H155.581V118.76H153.589ZM153.589 128.36V130.016H155.221C158.413 130.016 161.317 129.872 164.797 129.248L164.605 127.592C161.221 128.192 158.317 128.36 155.221 128.36H153.589ZM162.061 124.136V125.768H168.925V124.136H162.061ZM197.633 117.176V138.872H199.553V117.176H197.633ZM193.985 126.008V127.64H198.161V126.008H193.985ZM192.713 117.656V137.768H194.585V117.656H192.713ZM182.201 119.792V132.32H184.193V119.792H182.201ZM182.201 131.528V133.256H183.593C185.921 133.256 188.417 133.136 191.369 132.56L191.153 130.832C188.321 131.384 185.825 131.528 183.593 131.528H182.201ZM219.711 117.176V138.872H221.631V117.176H219.711ZM216.063 126.008V127.64H220.239V126.008H216.063ZM214.791 117.656V137.768H216.663V117.656H214.791ZM204.279 119.792V132.32H206.271V119.792H204.279ZM204.279 131.528V133.256H205.671C207.999 133.256 210.495 133.136 213.447 132.56L213.231 130.832C210.399 131.384 207.903 131.528 205.671 131.528H204.279ZM240.883 129.248V132.656H242.851V129.248H240.883ZM232.051 128.096V129.704H251.659V128.096H232.051ZM234.235 132.152V133.784H247.243V138.8H249.235V132.152H234.235ZM240.883 117.056V120.08H242.851V117.056H240.883ZM240.787 120.344V120.704C240.787 123.2 237.427 124.976 233.227 125.36L233.851 126.872C238.579 126.368 242.539 124.28 242.539 120.704V120.344H240.787ZM241.195 120.344V120.704C241.195 124.28 245.131 126.368 249.883 126.872L250.507 125.36C246.307 124.976 242.947 123.2 242.947 120.704V120.344H241.195ZM234.067 119.288V120.896H249.667V119.288H234.067ZM270.641 117.176V138.872H272.561V117.176H270.641ZM262.745 124.952V126.608H266.897V124.952H262.745ZM266.297 117.68V137.768H268.169V117.68H266.297ZM258.569 120.536V123.296C258.569 127.28 256.889 131.24 253.865 133.064L255.089 134.552C258.281 132.536 260.105 128.048 260.105 123.296V120.536H258.569ZM258.977 120.536V123.296C258.977 127.832 260.729 132.104 263.897 134.024L265.121 132.56C262.145 130.832 260.513 127.064 260.513 123.296V120.536H258.977ZM254.465 119.696V121.352H264.377V119.696H254.465ZM290.895 117.152V138.872H292.911V117.152H290.895ZM292.359 125.96V127.616H296.367V125.96H292.359ZM285.351 119.504V119.816C285.351 125.552 282.351 130.184 276.351 133.232L277.455 134.768C284.463 131.24 287.295 125.672 287.295 119.504H285.351ZM277.359 119.504V121.136H286.383V119.504H277.359ZM305.035 125.912V127.52H324.715V125.912H305.035ZM306.859 118.16V119.816H312.619V118.16H306.859ZM311.947 118.16V118.976C311.947 120.368 311.947 122.768 310.963 126.32L312.907 126.704C313.891 123.056 313.891 120.368 313.891 118.976V118.16H311.947ZM315.379 118.16V119.816H321.211V118.16H315.379ZM320.371 118.16V119.096C320.371 120.56 320.371 122.936 319.483 126.44L321.403 126.776C322.291 123.176 322.291 120.608 322.291 119.096V118.16H320.371ZM313.603 130.52V132.032H323.395V130.52H313.603ZM318.547 132.968C316.339 132.968 314.755 134.096 314.755 135.896C314.755 137.72 316.339 138.848 318.547 138.848C320.779 138.848 322.363 137.72 322.363 135.896C322.363 134.096 320.779 132.968 318.547 132.968ZM318.547 134.36C319.795 134.36 320.635 134.936 320.635 135.896C320.635 136.88 319.795 137.456 318.547 137.456C317.299 137.456 316.459 136.88 316.459 135.896C316.459 134.936 317.299 134.36 318.547 134.36ZM317.587 128.672V131.624H319.531V128.672H317.587ZM307.339 136.664V138.296H308.419C309.883 138.296 311.851 138.224 314.131 137.624L313.867 135.992C311.731 136.568 309.715 136.664 308.419 136.664H307.339ZM307.339 130.328V137.264H309.283V130.328H307.339ZM342.882 117.152V138.896H344.874V117.152H342.882ZM333.426 118.832C330.234 118.832 327.93 121.784 327.93 126.392C327.93 131.024 330.234 133.976 333.426 133.976C336.642 133.976 338.946 131.024 338.946 126.392C338.946 121.784 336.642 118.832 333.426 118.832ZM333.426 120.632C335.562 120.632 337.026 122.888 337.026 126.392C337.026 129.92 335.562 132.224 333.426 132.224C331.314 132.224 329.826 129.92 329.826 126.392C329.826 122.888 331.314 120.632 333.426 120.632ZM364.984 117.176V128.408H366.976V117.176H364.984ZM352.96 129.464V131.048H365.032V133.232H353.008V137.768H354.952V134.672H367V129.464H352.96ZM353.008 137.048V138.632H367.72V137.048H353.008ZM354.976 119.096V120.224C354.976 123.176 352.744 125.84 349.504 126.896L350.44 128.456C354.112 127.232 356.608 124.064 356.608 120.224V119.096H354.976ZM355.384 119.096V120.224C355.384 123.872 357.904 126.872 361.552 128L362.488 126.464C359.272 125.48 357.016 122.984 357.016 120.224V119.096H355.384ZM350.032 118.4V120.008H361.912V118.4H350.032ZM384.02 118.4C380.804 118.4 378.428 120.464 378.428 123.416C378.428 126.368 380.804 128.432 384.02 128.432C387.26 128.432 389.636 126.368 389.636 123.416C389.636 120.464 387.26 118.4 384.02 118.4ZM384.02 120.032C386.132 120.032 387.716 121.448 387.716 123.416C387.716 125.384 386.132 126.8 384.02 126.8C381.956 126.8 380.372 125.384 380.372 123.416C380.372 121.448 381.956 120.032 384.02 120.032ZM392.876 117.176V127.976H394.868V117.176H392.876ZM394.004 122.048V123.68H398.084V122.048H394.004ZM380.3 136.664V138.296H381.332C382.82 138.296 384.812 138.2 386.9 137.528L386.564 135.92C384.716 136.544 382.628 136.664 381.332 136.664H380.3ZM380.3 130.328V137.24H382.244V130.328H380.3ZM386.108 130.472V131.96H397.004V130.472H386.108ZM391.58 132.728C389.204 132.728 387.548 133.904 387.548 135.776C387.548 137.672 389.204 138.848 391.58 138.848C393.932 138.848 395.588 137.672 395.588 135.776C395.588 133.904 393.932 132.728 391.58 132.728ZM391.58 134.144C392.876 134.144 393.812 134.792 393.812 135.776C393.812 136.784 392.876 137.432 391.58 137.432C390.236 137.432 389.324 136.784 389.324 135.776C389.324 134.792 390.236 134.144 391.58 134.144ZM390.596 128.528V131.624H392.54V128.528H390.596ZM402.762 123.68V125.312H417.498V123.68H402.762ZM400.098 128.216V129.848H419.778V128.216H400.098ZM402.762 117.968V124.496H404.73V117.968H402.762ZM402.618 136.712V138.344H417.618V136.712H402.618ZM402.618 132.008V137.144H404.586V132.008H402.618ZM431.278 118.208V119.816H445.246V118.208H431.278ZM428.95 127.352V128.96H448.534V127.352H428.95ZM436.99 122.984V127.592H438.958V122.984H436.99ZM444.094 118.208V119.744C444.094 121.352 444.094 123.128 443.542 125.624L445.486 125.84C446.038 123.32 446.038 121.376 446.038 119.744V118.208H444.094ZM437.662 130.664V131.624C437.662 134.48 434.326 136.664 430.342 137.216L431.11 138.8C435.55 138.056 439.366 135.488 439.366 131.624V130.664H437.662ZM437.95 130.664V131.624C437.95 135.488 441.742 138.056 446.23 138.8L446.974 137.216C443.014 136.664 439.654 134.48 439.654 131.624V130.664H437.95ZM466.772 117.152V138.896H468.764V117.152H466.772ZM457.316 118.832C454.124 118.832 451.82 121.784 451.82 126.392C451.82 131.024 454.124 133.976 457.316 133.976C460.532 133.976 462.836 131.024 462.836 126.392C462.836 121.784 460.532 118.832 457.316 118.832ZM457.316 120.632C459.452 120.632 460.916 122.888 460.916 126.392C460.916 129.92 459.452 132.224 457.316 132.224C455.204 132.224 453.716 129.92 453.716 126.392C453.716 122.888 455.204 120.632 457.316 120.632ZM478.842 120.272V123.8C478.842 127.544 476.226 131.624 473.082 133.112L474.234 134.696C477.69 132.992 480.45 128.384 480.45 123.8V120.272H478.842ZM479.226 120.272V123.8C479.226 128.312 482.01 132.536 485.514 134.168L486.642 132.584C483.45 131.216 480.834 127.472 480.834 123.8V120.272H479.226ZM473.802 119.384V121.064H485.922V119.384H473.802ZM488.85 117.176V138.872H490.842V117.176H488.85ZM497.291 137.136C496.871 137.136 496.51 136.986 496.209 136.685C495.908 136.384 495.757 136.023 495.757 135.602C495.757 135.182 495.908 134.821 496.209 134.52C496.51 134.219 496.871 134.068 497.291 134.068C497.712 134.068 498.072 134.219 498.374 134.52C498.675 134.821 498.825 135.182 498.825 135.602C498.825 135.881 498.754 136.136 498.612 136.369C498.476 136.602 498.291 136.79 498.058 136.932C497.831 137.068 497.575 137.136 497.291 137.136ZM84.088 146.176V167.92H86.08V146.176H84.088ZM77.416 153.328V154.96H84.736V153.328H77.416ZM69.376 148.6V162.04H71.344V148.6H69.376ZM69.376 160.984V162.664H71.056C74.488 162.664 77.536 162.448 80.992 161.776L80.752 160.096C77.416 160.792 74.416 160.984 71.056 160.984H69.376ZM104.942 146.152V167.872H106.958V146.152H104.942ZM106.406 154.96V156.616H110.414V154.96H106.406ZM99.3981 148.504V148.816C99.3981 154.552 96.3981 159.184 90.3981 162.232L91.5021 163.768C98.5101 160.24 101.342 154.672 101.342 148.504H99.3981ZM91.4061 148.504V150.136H100.43V148.504H91.4061ZM133.77 146.152V167.872H135.786V146.152H133.77ZM135.234 154.96V156.616H139.242V154.96H135.234ZM128.226 148.504V148.816C128.226 154.552 125.226 159.184 119.226 162.232L120.33 163.768C127.338 160.24 130.17 154.672 130.17 148.504H128.226ZM120.234 148.504V150.136H129.258V148.504H120.234ZM146.512 148.504V150.256C146.512 153.352 144.352 156.16 141.088 157.312L142.096 158.896C145.744 157.576 148.144 154.24 148.144 150.256V148.504H146.512ZM146.872 148.504V150.232C146.872 153.928 149.176 157.024 152.8 158.224L153.76 156.664C150.568 155.608 148.504 153.064 148.504 150.232V148.504H146.872ZM141.688 147.784V149.416H153.28V147.784H141.688ZM156.016 146.176V159.256H158.008V146.176H156.016ZM157.456 151.672V153.352H161.224V151.672H157.456ZM151.096 159.832C146.68 159.832 143.968 161.296 143.968 163.816C143.968 166.36 146.68 167.824 151.096 167.824C155.512 167.824 158.224 166.36 158.224 163.816C158.224 161.296 155.512 159.832 151.096 159.832ZM151.096 161.44C154.312 161.44 156.28 162.304 156.28 163.816C156.28 165.352 154.312 166.264 151.096 166.264C147.88 166.264 145.912 165.352 145.912 163.816C145.912 162.304 147.88 161.44 151.096 161.44ZM178.797 152.608V155.92H180.765V152.608H178.797ZM178.509 147.496V148.168C178.509 150.448 174.933 152.128 171.021 152.44L171.669 153.952C176.229 153.52 180.261 151.432 180.261 148.168V147.496H178.509ZM179.373 147.496V148.168C179.373 151.432 183.405 153.52 187.941 153.952L188.589 152.44C184.677 152.128 181.101 150.424 181.101 148.168V147.496H179.373ZM171.789 146.848V148.408H187.845V146.848H171.789ZM171.812 159.64V161.224H187.797V159.64H171.812ZM169.989 155.176V156.784H189.669V155.176H169.989ZM179.805 162.28C175.629 162.28 173.277 163.264 173.277 165.136C173.277 167.032 175.629 167.992 179.805 167.992C183.981 167.992 186.309 167.032 186.309 165.136C186.309 163.264 183.981 162.28 179.805 162.28ZM179.805 163.648C182.661 163.648 184.293 164.152 184.293 165.136C184.293 166.12 182.661 166.624 179.805 166.624C176.925 166.624 175.317 166.12 175.317 165.136C175.317 164.152 176.925 163.648 179.805 163.648ZM178.821 157.648V160.648H180.789V157.648H178.821ZM197.851 147.832C194.659 147.832 192.403 150.784 192.403 155.392C192.403 160.024 194.659 162.976 197.851 162.976C201.043 162.976 203.299 160.024 203.299 155.392C203.299 150.784 201.043 147.832 197.851 147.832ZM197.851 149.632C199.939 149.632 201.403 151.888 201.403 155.392C201.403 158.92 199.939 161.224 197.851 161.224C195.739 161.224 194.299 158.92 194.299 155.392C194.299 151.888 195.739 149.632 197.851 149.632ZM206.755 146.176V167.872H208.771V146.176H206.755ZM208.291 154.84V156.52H212.323V154.84H208.291ZM228.857 146.176V167.872H230.849V146.176H228.857ZM230.369 155.08V156.76H234.401V155.08H230.369ZM214.049 149.632V151.264H226.841V149.632H214.049ZM220.529 153.064C217.481 153.064 215.249 155.128 215.249 158.056C215.249 160.984 217.481 163.048 220.529 163.048C223.601 163.048 225.809 160.984 225.809 158.056C225.809 155.128 223.601 153.064 220.529 153.064ZM220.529 154.72C222.497 154.72 223.913 156.088 223.913 158.056C223.913 160 222.497 161.392 220.529 161.392C218.561 161.392 217.145 160 217.145 158.056C217.145 156.088 218.561 154.72 220.529 154.72ZM219.497 146.44V150.376H221.489V146.44H219.497ZM238.887 152.68V154.312H253.623V152.68H238.887ZM236.223 157.216V158.848H255.903V157.216H236.223ZM238.887 146.968V153.496H240.855V146.968H238.887ZM238.743 165.712V167.344H253.743V165.712H238.743ZM238.743 161.008V166.144H240.711V161.008H238.743ZM274.867 146.656C270.163 146.656 267.235 148.192 267.235 150.76C267.235 153.328 270.163 154.84 274.867 154.84C279.547 154.84 282.499 153.328 282.499 150.76C282.499 148.192 279.547 146.656 274.867 146.656ZM274.867 148.24C278.299 148.24 280.459 149.152 280.459 150.76C280.459 152.344 278.299 153.28 274.867 153.28C271.411 153.28 269.275 152.344 269.275 150.76C269.275 149.152 271.411 148.24 274.867 148.24ZM267.451 160.432V167.584H282.259V160.432H267.451ZM280.315 162.04V165.976H269.419V162.04H280.315ZM265.051 156.712V158.32H284.659V156.712H265.051ZM293.201 147.448C289.937 147.448 287.537 149.56 287.537 152.608C287.537 155.632 289.937 157.72 293.201 157.72C296.465 157.72 298.865 155.632 298.865 152.608C298.865 149.56 296.465 147.448 293.201 147.448ZM293.201 149.152C295.361 149.152 296.921 150.544 296.921 152.608C296.921 154.648 295.361 156.064 293.201 156.064C291.041 156.064 289.481 154.648 289.481 152.608C289.481 150.544 291.041 149.152 293.201 149.152ZM301.985 146.176V158.944H303.977V146.176H301.985ZM303.425 151.744V153.424H307.193V151.744H303.425ZM289.889 160.072V161.68H301.985V167.896H303.977V160.072H289.889ZM309.207 157.576V159.208H328.815V157.576H309.207ZM311.751 165.76V167.392H326.655V165.76H311.751ZM311.751 161.104V166.264H313.743V161.104H311.751ZM319.023 146.896C314.367 146.896 311.391 148.528 311.391 151.24C311.391 153.928 314.367 155.56 319.023 155.56C323.655 155.56 326.655 153.928 326.655 151.24C326.655 148.528 323.655 146.896 319.023 146.896ZM319.023 148.528C322.431 148.528 324.615 149.536 324.615 151.24C324.615 152.944 322.431 153.952 319.023 153.952C315.615 153.952 313.431 152.944 313.431 151.24C313.431 149.536 315.615 148.528 319.023 148.528ZM338.035 158.776V160.408H357.715V158.776H338.035ZM346.819 159.76V167.872H348.787V159.76H346.819ZM340.531 147.376V155.848H355.171V147.376H340.531ZM353.227 148.984V154.24H342.499V148.984H353.227ZM375.978 146.176V161.056H377.97V146.176H375.978ZM370.794 152.104V153.736H376.53V152.104H370.794ZM366.042 147.64C362.826 147.64 360.45 149.8 360.45 152.896C360.45 155.968 362.826 158.152 366.042 158.152C369.234 158.152 371.634 155.968 371.634 152.896C371.634 149.8 369.234 147.64 366.042 147.64ZM366.042 149.344C368.154 149.344 369.714 150.808 369.714 152.896C369.714 154.96 368.154 156.448 366.042 156.448C363.93 156.448 362.37 154.96 362.37 152.896C362.37 150.808 363.93 149.344 366.042 149.344ZM369.978 159.352V160.192C369.978 163.144 366.546 165.544 362.706 166.192L363.474 167.776C367.89 166.984 371.682 164.104 371.682 160.192V159.352H369.978ZM370.314 159.352V160.192C370.314 164.2 374.13 166.96 378.522 167.776L379.314 166.192C375.426 165.544 372.018 163.216 372.018 160.192V159.352H370.314ZM397.96 146.152V167.896H399.952V146.152H397.96ZM388.504 147.832C385.312 147.832 383.008 150.784 383.008 155.392C383.008 160.024 385.312 162.976 388.504 162.976C391.72 162.976 394.024 160.024 394.024 155.392C394.024 150.784 391.72 147.832 388.504 147.832ZM388.504 149.632C390.64 149.632 392.104 151.888 392.104 155.392C392.104 158.92 390.64 161.224 388.504 161.224C386.392 161.224 384.904 158.92 384.904 155.392C384.904 151.888 386.392 149.632 388.504 149.632ZM420.062 146.176V167.872H422.054V146.176H420.062ZM405.662 148.288V161.728H407.63V148.288H405.662ZM405.662 160.552V162.28H407.438C410.87 162.28 414.302 162.016 418.07 161.248L417.83 159.544C414.158 160.312 410.726 160.552 407.438 160.552H405.662ZM429.638 161.091V160.989C429.649 159.903 429.763 159.04 429.979 158.398C430.195 157.756 430.501 157.236 430.899 156.838C431.297 156.44 431.774 156.074 432.331 155.739C432.666 155.534 432.967 155.293 433.234 155.014C433.501 154.73 433.712 154.403 433.865 154.034C434.024 153.665 434.104 153.256 434.104 152.807C434.104 152.25 433.973 151.767 433.712 151.358C433.45 150.949 433.101 150.634 432.663 150.412C432.226 150.19 431.74 150.08 431.206 150.08C430.74 150.08 430.291 150.176 429.859 150.369C429.428 150.562 429.067 150.866 428.777 151.281C428.487 151.696 428.32 152.239 428.274 152.909H426.126C426.172 151.943 426.422 151.116 426.876 150.429C427.337 149.741 427.942 149.216 428.692 148.852C429.447 148.489 430.286 148.307 431.206 148.307C432.206 148.307 433.075 148.506 433.814 148.903C434.558 149.301 435.132 149.847 435.536 150.54C435.945 151.233 436.149 152.023 436.149 152.909C436.149 153.534 436.053 154.099 435.859 154.605C435.672 155.111 435.399 155.562 435.041 155.96C434.689 156.358 434.263 156.71 433.763 157.017C433.263 157.33 432.862 157.659 432.561 158.006C432.26 158.347 432.041 158.753 431.905 159.224C431.768 159.696 431.695 160.284 431.683 160.989V161.091H429.638ZM430.729 166.136C430.308 166.136 429.947 165.986 429.646 165.685C429.345 165.384 429.195 165.023 429.195 164.602C429.195 164.182 429.345 163.821 429.646 163.52C429.947 163.219 430.308 163.068 430.729 163.068C431.149 163.068 431.51 163.219 431.811 163.52C432.112 163.821 432.263 164.182 432.263 164.602C432.263 164.881 432.192 165.136 432.05 165.369C431.913 165.602 431.729 165.79 431.496 165.932C431.268 166.068 431.013 166.136 430.729 166.136Z" fill="black"/>
</svg>
