<svg width="611" height="201" viewBox="0 0 611 201" fill="none" xmlns="http://www.w3.org/2000/svg">
<path d="M186.89 53L541.414 61.1385C579.471 61.1385 610 70.9764 610 83.2408L588.169 152.662C588.169 164.927 563.824 173.831 525.769 173.831L448.296 174.267L466.524 200L352.085 174.764L233.978 175.823C195.921 175.823 146.561 164.916 146.561 152.652L112 79.1941C112 66.9295 148.834 53 186.89 53Z" fill="white" stroke="black" stroke-width="2" stroke-linecap="round" stroke-linejoin="round"/>
<path d="M214.275 91.568V92.408C214.275 96.44 210.963 99.584 205.467 101.144L206.283 102.704C212.523 100.952 216.363 97.04 216.363 91.568H214.275ZM206.595 91.568V93.176H215.619V91.568H206.595ZM208.587 103.88V105.488H221.067V111.824H223.059V103.88H208.587ZM221.067 90.176V102.92H223.059V90.176H221.067ZM216.435 95.864V97.52H221.499V95.864H216.435ZM238.873 95.792V97.448H243.769V95.792H238.873ZM243.145 90.176V103.112H245.137V90.176H243.145ZM238.009 103.76C233.521 103.76 230.761 105.272 230.761 107.816C230.761 110.384 233.521 111.848 238.009 111.848C242.473 111.848 245.233 110.384 245.233 107.816C245.233 105.272 242.473 103.76 238.009 103.76ZM238.009 105.32C241.273 105.32 243.265 106.232 243.265 107.816C243.265 109.376 241.273 110.288 238.009 110.288C234.745 110.288 232.753 109.376 232.753 107.816C232.753 106.232 234.745 105.32 238.009 105.32ZM232.825 92.36V94.112C232.825 97.232 230.593 100.136 227.377 101.312L228.409 102.896C232.009 101.552 234.457 98.12 234.457 94.112V92.36H232.825ZM233.209 92.36V94.112C233.209 97.76 235.537 101.024 239.065 102.296L240.073 100.712C236.929 99.608 234.817 96.92 234.817 94.112V92.36H233.209ZM227.977 91.76V93.392H239.569V91.76H227.977ZM264.216 90.176V101.216H266.208V90.176H264.216ZM265.344 94.832V96.488H269.4V94.832H265.344ZM250.272 91.4V100.088H260.232V91.4H250.272ZM258.288 92.984V98.504H252.216V92.984H258.288ZM252.432 102.248V103.832H264.264V106.064H252.48V110.816H254.448V107.576H266.208V102.248H252.432ZM252.48 109.976V111.584H267V109.976H252.48ZM287.974 90.176V111.872H289.894V90.176H287.974ZM278.566 99.032V100.64H284.038V99.032H278.566ZM283.462 90.728V110.768H285.334V90.728H283.462ZM278.83 92.912V93.272C278.83 98.384 276.55 102.704 271.438 105.776L272.614 107.192C278.47 103.712 280.75 98.6 280.75 92.912H278.83ZM272.398 92.912V94.544H279.574V92.912H272.398ZM300.266 102.608V104.24H319.946V102.608H300.266ZM309.05 103.616V111.872H311.018V103.616H309.05ZM310.058 91.04C305.546 91.04 302.474 92.888 302.474 95.792C302.474 98.696 305.546 100.544 310.058 100.544C314.594 100.544 317.642 98.696 317.642 95.792C317.642 92.888 314.594 91.04 310.058 91.04ZM310.058 92.648C313.37 92.648 315.602 93.872 315.602 95.792C315.602 97.712 313.37 98.936 310.058 98.936C306.746 98.936 304.49 97.712 304.49 95.792C304.49 93.872 306.746 92.648 310.058 92.648ZM338.16 90.152V111.896H340.152V90.152H338.16ZM323.616 105.008V106.664H325.416C329.136 106.664 332.4 106.52 336.336 105.872L336.12 104.24C332.28 104.864 329.04 105.008 325.416 105.008H323.616ZM323.568 92.192V93.824H331.584V98.312H323.616V105.632H325.608V99.944H333.6V92.192H323.568ZM361.348 92.768V94.376H367.516V92.768H361.348ZM361.348 97.256V98.84H367.516V97.256H361.348ZM357.1 90.896C353.86 90.896 351.508 92.936 351.508 95.864C351.508 98.744 353.86 100.784 357.1 100.784C360.34 100.784 362.692 98.744 362.692 95.864C362.692 92.936 360.34 90.896 357.1 90.896ZM357.1 92.552C359.236 92.552 360.796 93.92 360.796 95.864C360.796 97.784 359.236 99.152 357.1 99.152C354.964 99.152 353.428 97.784 353.428 95.864C353.428 93.92 354.964 92.552 357.1 92.552ZM367.036 90.176V101.288H369.028V90.176H367.036ZM355.06 102.392V103.976H367.06V106.136H355.108V110.888H357.052V107.624H369.028V102.392H355.06ZM355.108 110V111.584H369.82V110H355.108ZM378.554 95.336V97.184C378.554 100.928 376.25 104.624 373.058 106.16L374.186 107.696C377.618 105.992 380.114 101.768 380.114 97.184V95.336H378.554ZM378.938 95.336V97.184C378.938 101.504 381.29 105.608 384.674 107.288L385.778 105.752C382.682 104.216 380.498 100.688 380.498 97.184V95.336H378.938ZM373.658 93.944V95.552H385.298V93.944H373.658ZM378.53 90.56V94.832H380.498V90.56H378.53ZM387.938 90.176V111.872H389.954V90.176H387.938ZM389.474 99.08V100.736H393.506V99.08H389.474ZM397.992 96.68V98.312H412.728V96.68H397.992ZM395.328 101.216V102.848H415.008V101.216H395.328ZM397.992 90.968V97.496H399.96V90.968H397.992ZM397.848 109.712V111.344H412.848V109.712H397.848ZM397.848 105.008V110.144H399.816V105.008H397.848ZM424.156 102.776V104.408H443.836V102.776H424.156ZM432.94 103.76V111.872H434.908V103.76H432.94ZM426.652 91.376V99.848H441.292V91.376H426.652ZM439.348 92.984V98.24H428.62V92.984H439.348ZM451.731 102.896V108.224H453.699V102.896H451.731ZM458.667 102.848V108.2H460.611V102.848H458.667ZM446.259 107.552V109.208H465.915V107.552H446.259ZM448.635 91.784V93.392H461.523V96.752H448.707V102.704H450.675V98.336H463.491V91.784H448.635ZM448.707 101.816V103.448H463.995V101.816H448.707ZM484.105 90.176V111.872H486.097V90.176H484.105ZM469.705 92.288V105.728H471.673V92.288H469.705ZM469.705 104.552V106.28H471.481C474.913 106.28 478.345 106.016 482.113 105.248L481.873 103.544C478.201 104.312 474.769 104.552 471.481 104.552H469.705ZM505.463 90.176V111.872H507.431V90.176H505.463ZM506.807 99.104V100.784H510.671V99.104H506.807ZM495.071 92.504V92.72C495.071 97.64 493.871 102.152 490.295 105.872L491.903 107C495.791 102.8 496.895 97.736 496.895 92.504H495.071ZM490.991 92.504V94.16H495.815V92.504H490.991ZM500.975 92.504V92.696C500.975 97.712 500.159 103.088 496.487 107.336L498.095 108.44C502.079 103.712 502.823 97.76 502.823 92.504H500.975ZM497.591 92.504V94.16H501.791V92.504H497.591ZM515.793 92.5455L515.623 105.091H513.645L513.475 92.5455H515.793ZM514.634 110.136C514.213 110.136 513.853 109.986 513.551 109.685C513.25 109.384 513.1 109.023 513.1 108.602C513.1 108.182 513.25 107.821 513.551 107.52C513.853 107.219 514.213 107.068 514.634 107.068C515.054 107.068 515.415 107.219 515.716 107.52C516.017 107.821 516.168 108.182 516.168 108.602C516.168 108.881 516.097 109.136 515.955 109.369C515.819 109.602 515.634 109.79 515.401 109.932C515.174 110.068 514.918 110.136 514.634 110.136ZM165.36 130.6V132.208H184.968V130.6H165.36ZM174.168 127.048V131.416H176.136V127.048H174.168ZM167.832 126.136V127.768H182.712V126.136H167.832ZM167.832 120.256V126.832H169.824V121.888H182.52V120.256H167.832ZM167.856 138.76V140.392H182.904V138.76H167.856ZM167.856 134.152V139.312H169.848V134.152H167.856ZM197.23 119.536C192.43 119.536 189.598 120.88 189.598 123.304C189.598 125.728 192.43 127.072 197.23 127.072C202.006 127.072 204.862 125.728 204.862 123.304C204.862 120.88 202.006 119.536 197.23 119.536ZM197.23 121.048C200.758 121.048 202.798 121.864 202.798 123.304C202.798 124.744 200.758 125.56 197.23 125.56C193.678 125.56 191.638 124.744 191.638 123.304C191.638 121.864 193.678 121.048 197.23 121.048ZM187.414 128.512V130.12H207.022V128.512H187.414ZM189.79 131.968V133.504H202.558V135.424H189.838V139.504H191.806V136.864H204.526V131.968H189.79ZM189.838 139.072V140.632H205.174V139.072H189.838ZM224.762 121.216V121.864C224.762 124.504 221.282 126.664 217.442 127.168L218.186 128.776C222.626 128.104 226.538 125.536 226.538 121.864V121.216H224.762ZM225.602 121.216V121.864C225.602 125.536 229.514 128.104 233.93 128.776L234.698 127.168C230.858 126.664 227.354 124.504 227.354 121.864V121.216H225.602ZM218.042 120.256V121.864H234.098V120.256H218.042ZM216.242 130.336V131.968H235.898V130.336H216.242ZM225.218 131.344V136.336H227.21V131.344H225.218ZM218.738 138.76V140.392H233.714V138.76H218.738ZM218.738 134.248V139.384H220.706V134.248H218.738ZM253.009 119.152V140.896H255.025V119.152H253.009ZM254.545 127.72V129.4H258.577V127.72H254.545ZM239.257 133.816V135.496H240.961C245.041 135.496 247.897 135.376 251.233 134.752L251.017 133.072C247.777 133.672 244.969 133.816 240.961 133.816H239.257ZM239.257 121.264V134.56H241.225V122.896H249.337V121.264H239.257ZM270.815 122.992V124.624H276.887V122.992H270.815ZM270.815 127.624V129.28H276.935V127.624H270.815ZM261.407 121.048V131.224H271.319V121.048H261.407ZM269.351 122.656V129.616H263.351V122.656H269.351ZM276.263 119.2V135.04H278.255V119.2H276.263ZM264.311 138.76V140.392H278.783V138.76H264.311ZM264.311 133.6V139.504H266.303V133.6H264.311ZM305.379 127.816V129.496H309.387V127.816H305.379ZM303.915 119.152V140.872H305.931V119.152H303.915ZM290.091 121.288V134.728H292.083V121.288H290.091ZM290.091 133.696V135.376H291.819C295.107 135.376 298.443 135.16 302.139 134.392L301.899 132.736C298.323 133.48 295.035 133.696 291.819 133.696H290.091ZM317.089 120.832C313.897 120.832 311.641 123.784 311.641 128.392C311.641 133.024 313.897 135.976 317.089 135.976C320.281 135.976 322.537 133.024 322.537 128.392C322.537 123.784 320.281 120.832 317.089 120.832ZM317.089 122.632C319.177 122.632 320.641 124.888 320.641 128.392C320.641 131.92 319.177 134.224 317.089 134.224C314.977 134.224 313.537 131.92 313.537 128.392C313.537 124.888 314.977 122.632 317.089 122.632ZM327.457 124.624V126.304H331.441V124.624H327.457ZM327.457 131.08V132.76H331.441V131.08H327.457ZM325.993 119.176V140.872H328.009V119.176H325.993ZM348.941 125.608V128.92H350.909V125.608H348.941ZM348.653 120.496V121.168C348.653 123.448 345.077 125.128 341.165 125.44L341.813 126.952C346.373 126.52 350.405 124.432 350.405 121.168V120.496H348.653ZM349.517 120.496V121.168C349.517 124.432 353.549 126.52 358.085 126.952L358.733 125.44C354.821 125.128 351.245 123.424 351.245 121.168V120.496H349.517ZM341.933 119.848V121.408H357.989V119.848H341.933ZM341.957 132.64V134.224H357.941V132.64H341.957ZM340.133 128.176V129.784H359.813V128.176H340.133ZM349.949 135.28C345.773 135.28 343.421 136.264 343.421 138.136C343.421 140.032 345.773 140.992 349.949 140.992C354.125 140.992 356.453 140.032 356.453 138.136C356.453 136.264 354.125 135.28 349.949 135.28ZM349.949 136.648C352.805 136.648 354.437 137.152 354.437 138.136C354.437 139.12 352.805 139.624 349.949 139.624C347.069 139.624 345.461 139.12 345.461 138.136C345.461 137.152 347.069 136.648 349.949 136.648ZM348.965 130.648V133.648H350.933V130.648H348.965ZM369.747 120.76V121.408C369.747 125.512 367.203 128.704 362.427 130.672L363.435 132.136C368.859 129.832 371.739 125.944 371.739 120.76H369.747ZM363.363 120.76V122.416H370.515V120.76H363.363ZM378.603 119.176V131.704H380.499V119.176H378.603ZM369.507 125.344V126.952H374.739V125.344H369.507ZM374.307 119.632V131.368H376.179V119.632H374.307ZM367.851 132.448V133.864C367.851 135.976 366.195 138.328 363.483 139.312L364.467 140.8C367.587 139.6 369.387 136.72 369.387 133.864V132.448H367.851ZM368.283 132.448V133.864C368.283 136.768 369.675 139.744 372.819 140.992L373.659 139.504C371.043 138.4 369.771 136.072 369.771 133.864V132.448H368.283ZM375.819 132.448V133.864C375.819 135.736 374.547 138.304 371.931 139.504L372.819 140.992C375.891 139.672 377.307 136.432 377.307 133.864V132.448H375.819ZM376.227 132.448V133.864C376.227 136.888 378.003 139.648 381.147 140.8L382.131 139.312C379.395 138.4 377.763 136.144 377.763 133.864V132.448H376.227ZM390.049 122.272V125.8C390.049 129.544 387.433 133.624 384.289 135.112L385.441 136.696C388.897 134.992 391.657 130.384 391.657 125.8V122.272H390.049ZM390.433 122.272V125.8C390.433 130.312 393.217 134.536 396.721 136.168L397.849 134.584C394.657 133.216 392.041 129.472 392.041 125.8V122.272H390.433ZM385.009 121.384V123.064H397.129V121.384H385.009ZM400.057 119.176V140.872H402.049V119.176H400.057ZM407.279 121.12V131.176H417.239V121.12H407.279ZM415.295 122.728V129.568H409.223V122.728H415.295ZM421.223 119.152V135.064H423.215V119.152H421.223ZM422.591 125.776V127.432H426.431V125.776H422.591ZM409.703 138.76V140.392H424.199V138.76H409.703ZM409.703 133.552V139.456H411.695V133.552H409.703ZM450.052 119.176V130.216H452.044V119.176H450.052ZM451.18 123.832V125.488H455.236V123.832H451.18ZM436.108 120.4V129.088H446.068V120.4H436.108ZM444.124 121.984V127.504H438.052V121.984H444.124ZM438.268 131.248V132.832H450.1V135.064H438.316V139.816H440.284V136.576H452.044V131.248H438.268ZM438.316 138.976V140.584H452.836V138.976H438.316ZM463.058 120.832C459.866 120.832 457.61 123.784 457.61 128.392C457.61 133.024 459.866 135.976 463.058 135.976C466.25 135.976 468.506 133.024 468.506 128.392C468.506 123.784 466.25 120.832 463.058 120.832ZM463.058 122.632C465.146 122.632 466.61 124.888 466.61 128.392C466.61 131.92 465.146 134.224 463.058 134.224C460.946 134.224 459.506 131.92 459.506 128.392C459.506 124.888 460.946 122.632 463.058 122.632ZM473.426 124.624V126.304H477.41V124.624H473.426ZM473.426 131.08V132.76H477.41V131.08H473.426ZM471.962 119.176V140.872H473.978V119.176H471.962ZM500.814 119.176V140.872H502.806V119.176H500.814ZM502.326 128.08V129.76H506.358V128.08H502.326ZM486.006 122.632V124.264H498.798V122.632H486.006ZM492.486 126.064C489.438 126.064 487.206 128.128 487.206 131.056C487.206 133.984 489.438 136.048 492.486 136.048C495.558 136.048 497.766 133.984 497.766 131.056C497.766 128.128 495.558 126.064 492.486 126.064ZM492.486 127.72C494.454 127.72 495.87 129.088 495.87 131.056C495.87 133 494.454 134.392 492.486 134.392C490.518 134.392 489.102 133 489.102 131.056C489.102 129.088 490.518 127.72 492.486 127.72ZM491.454 119.44V123.376H493.446V119.44H491.454ZM522.892 119.176V140.872H524.884V119.176H522.892ZM524.404 128.08V129.76H528.436V128.08H524.404ZM508.084 122.632V124.264H520.876V122.632H508.084ZM514.564 126.064C511.516 126.064 509.284 128.128 509.284 131.056C509.284 133.984 511.516 136.048 514.564 136.048C517.636 136.048 519.844 133.984 519.844 131.056C519.844 128.128 517.636 126.064 514.564 126.064ZM514.564 127.72C516.532 127.72 517.948 129.088 517.948 131.056C517.948 133 516.532 134.392 514.564 134.392C512.596 134.392 511.18 133 511.18 131.056C511.18 129.088 512.596 127.72 514.564 127.72ZM513.532 119.44V123.376H515.524V119.44H513.532ZM544.97 119.176V140.872H546.962V119.176H544.97ZM546.482 128.08V129.76H550.514V128.08H546.482ZM530.162 122.632V124.264H542.954V122.632H530.162ZM536.642 126.064C533.594 126.064 531.362 128.128 531.362 131.056C531.362 133.984 533.594 136.048 536.642 136.048C539.714 136.048 541.922 133.984 541.922 131.056C541.922 128.128 539.714 126.064 536.642 126.064ZM536.642 127.72C538.61 127.72 540.026 129.088 540.026 131.056C540.026 133 538.61 134.392 536.642 134.392C534.674 134.392 533.258 133 533.258 131.056C533.258 129.088 534.674 127.72 536.642 127.72ZM535.61 119.44V123.376H537.602V119.44H535.61ZM555.66 121.545L555.49 134.091H553.512L553.342 121.545H555.66ZM554.501 139.136C554.081 139.136 553.72 138.986 553.419 138.685C553.118 138.384 552.967 138.023 552.967 137.602C552.967 137.182 553.118 136.821 553.419 136.52C553.72 136.219 554.081 136.068 554.501 136.068C554.922 136.068 555.282 136.219 555.583 136.52C555.885 136.821 556.035 137.182 556.035 137.602C556.035 137.881 555.964 138.136 555.822 138.369C555.686 138.602 555.501 138.79 555.268 138.932C555.041 139.068 554.785 139.136 554.501 139.136Z" fill="black"/>
</svg>
