<svg width="570" height="266" viewBox="0 0 570 266" fill="none" xmlns="http://www.w3.org/2000/svg">
<g clip-path="url(#clip0_663_66)">
<path d="M157.935 123L503.204 130.917C540.268 130.917 570 140.487 570 152.418L548.739 219.95C548.739 231.881 525.03 240.543 487.968 240.543L412.517 240.967L430.269 266L318.817 241.451L203.794 242.481C166.73 242.481 118.659 231.871 118.659 219.94L85 148.481C85 136.551 120.873 123 157.935 123Z" fill="white" stroke="black" stroke-width="2" stroke-linecap="round" stroke-linejoin="round"/>
</g>
<path d="M267.501 160.152V181.896H269.517V160.152H267.501ZM269.037 168.72V170.4H273.069V168.72H269.037ZM253.749 174.816V176.496H255.453C259.533 176.496 262.389 176.376 265.725 175.752L265.509 174.072C262.269 174.672 259.461 174.816 255.453 174.816H253.749ZM253.749 162.264V175.56H255.717V163.896H263.829V162.264H253.749ZM287.185 162.384V164.136C287.185 167.208 284.953 170.088 281.713 171.24L282.745 172.824C286.369 171.48 288.817 168.096 288.817 164.136V162.384H287.185ZM287.569 162.384V164.136C287.569 167.76 289.897 171.024 293.425 172.32L294.433 170.736C291.289 169.632 289.177 166.92 289.177 164.136V162.384H287.569ZM293.257 165.816V167.472H298.081V165.816H293.257ZM282.337 161.664V163.272H293.929V161.664H282.337ZM285.025 174.336V175.968H297.505V181.872H299.497V174.336H285.025ZM297.505 160.176V173.16H299.497V160.176H297.505ZM303.719 171.576V173.208H323.327V171.576H303.719ZM306.263 179.76V181.392H321.167V179.76H306.263ZM306.263 175.104V180.264H308.255V175.104H306.263ZM313.535 160.896C308.879 160.896 305.903 162.528 305.903 165.24C305.903 167.928 308.879 169.56 313.535 169.56C318.167 169.56 321.167 167.928 321.167 165.24C321.167 162.528 318.167 160.896 313.535 160.896ZM313.535 162.528C316.943 162.528 319.127 163.536 319.127 165.24C319.127 166.944 316.943 167.952 313.535 167.952C310.127 167.952 307.943 166.944 307.943 165.24C307.943 163.536 310.127 162.528 313.535 162.528ZM332.571 177.456V179.112H352.227V177.456H332.571ZM341.355 171.84V177.912H343.347V171.84H341.355ZM334.851 161.976V172.2H349.827V161.976H334.851ZM347.907 163.584V170.592H336.795V163.584H347.907ZM370.873 163.416V165.072H374.641V163.416H370.873ZM370.873 168.024V169.68H374.641V168.024H370.873ZM360.697 161.448C357.433 161.448 355.033 163.56 355.033 166.584C355.033 169.584 357.433 171.672 360.697 171.672C363.961 171.672 366.361 169.584 366.361 166.584C366.361 163.56 363.961 161.448 360.697 161.448ZM360.697 163.128C362.857 163.128 364.417 164.544 364.417 166.584C364.417 168.624 362.857 170.016 360.697 170.016C358.537 170.016 356.977 168.624 356.977 166.584C356.977 164.544 358.537 163.128 360.697 163.128ZM369.481 160.176V173.016H371.473V160.176H369.481ZM364.561 173.712C360.145 173.712 357.433 175.224 357.433 177.768C357.433 180.336 360.145 181.824 364.561 181.824C368.977 181.824 371.689 180.336 371.689 177.768C371.689 175.224 368.977 173.712 364.561 173.712ZM364.561 175.32C367.777 175.32 369.745 176.208 369.745 177.768C369.745 179.328 367.777 180.24 364.561 180.24C361.345 180.24 359.377 179.328 359.377 177.768C359.377 176.208 361.345 175.32 364.561 175.32ZM392.471 160.152V181.896H394.463V160.152H392.471ZM383.015 161.832C379.823 161.832 377.519 164.784 377.519 169.392C377.519 174.024 379.823 176.976 383.015 176.976C386.231 176.976 388.535 174.024 388.535 169.392C388.535 164.784 386.231 161.832 383.015 161.832ZM383.015 163.632C385.151 163.632 386.615 165.888 386.615 169.392C386.615 172.92 385.151 175.224 383.015 175.224C380.903 175.224 379.415 172.92 379.415 169.392C379.415 165.888 380.903 163.632 383.015 163.632ZM401.301 161.328V162.936H415.149V161.328H401.301ZM398.805 169.728V171.336H418.461V169.728H398.805ZM407.709 170.712V176.568H409.701V170.712H407.709ZM413.973 161.328V163.056C413.973 164.976 413.973 167.208 413.253 170.328L415.197 170.592C415.917 167.328 415.917 165.024 415.917 163.056V161.328H413.973ZM401.277 179.76V181.392H416.349V179.76H401.277ZM401.277 174.624V180.192H403.269V174.624H401.277ZM424.184 162.545L424.013 175.091H422.036L421.865 162.545H424.184ZM423.025 180.136C422.604 180.136 422.243 179.986 421.942 179.685C421.641 179.384 421.49 179.023 421.49 178.602C421.49 178.182 421.641 177.821 421.942 177.52C422.243 177.219 422.604 177.068 423.025 177.068C423.445 177.068 423.806 177.219 424.107 177.52C424.408 177.821 424.559 178.182 424.559 178.602C424.559 178.881 424.488 179.136 424.346 179.369C424.209 179.602 424.025 179.79 423.792 179.932C423.564 180.068 423.309 180.136 423.025 180.136ZM159.139 189.152V210.896H161.131V189.152H159.139ZM149.683 190.832C146.491 190.832 144.187 193.784 144.187 198.392C144.187 203.024 146.491 205.976 149.683 205.976C152.899 205.976 155.203 203.024 155.203 198.392C155.203 193.784 152.899 190.832 149.683 190.832ZM149.683 192.632C151.819 192.632 153.283 194.888 153.283 198.392C153.283 201.92 151.819 204.224 149.683 204.224C147.571 204.224 146.083 201.92 146.083 198.392C146.083 194.888 147.571 192.632 149.683 192.632ZM188.063 189.176V205.328H190.055V189.176H188.063ZM172.847 190.928V192.56H184.271V190.928H172.847ZM172.487 202.064C176.015 202.064 180.887 201.992 185.063 201.32L184.943 199.832C180.887 200.312 175.823 200.36 172.271 200.36L172.487 202.064ZM175.007 192.32V200.648H176.927V192.32H175.007ZM180.191 192.32V200.648H182.111V192.32H180.191ZM184.463 193.28V194.912H189.119V193.28H184.463ZM184.463 197.432V199.064H189.119V197.432H184.463ZM176.183 208.76V210.392H190.631V208.76H176.183ZM176.183 204.008V209.792H178.175V204.008H176.183ZM200.038 192.272V195.8C200.038 199.544 197.422 203.624 194.278 205.112L195.43 206.696C198.886 204.992 201.646 200.384 201.646 195.8V192.272H200.038ZM200.422 192.272V195.8C200.422 200.312 203.206 204.536 206.71 206.168L207.838 204.584C204.646 203.216 202.03 199.472 202.03 195.8V192.272H200.422ZM194.998 191.384V193.064H207.118V191.384H194.998ZM210.046 189.176V210.872H212.038V189.176H210.046ZM219.02 195.68V197.312H233.756V195.68H219.02ZM216.356 200.216V201.848H236.036V200.216H216.356ZM219.02 189.968V196.496H220.988V189.968H219.02ZM218.876 208.712V210.344H233.876V208.712H218.876ZM218.876 204.008V209.144H220.844V204.008H218.876ZM261.672 189.176V210.872H263.592V189.176H261.672ZM258.024 198.008V199.64H262.2V198.008H258.024ZM256.752 189.656V209.768H258.624V189.656H256.752ZM246.24 191.792V204.32H248.232V191.792H246.24ZM246.24 203.528V205.256H247.632C249.96 205.256 252.456 205.136 255.408 204.56L255.192 202.832C252.36 203.384 249.864 203.528 247.632 203.528H246.24ZM281.95 189.152V210.872H283.966V189.152H281.95ZM283.414 197.96V199.616H287.422V197.96H283.414ZM276.406 191.504V191.816C276.406 197.552 273.406 202.184 267.406 205.232L268.51 206.768C275.518 203.24 278.35 197.672 278.35 191.504H276.406ZM268.414 191.504V193.136H277.438V191.504H268.414ZM301.418 190.856V192.584C301.418 195.44 299.186 197.984 295.898 198.968L296.882 200.552C300.578 199.376 303.05 196.328 303.05 192.584V190.856H301.418ZM301.778 190.856V192.584C301.778 196.016 304.202 198.896 307.826 200L308.762 198.416C305.57 197.504 303.41 195.152 303.41 192.584V190.856H301.778ZM296.57 190.376V192.008H308.186V190.376H296.57ZM310.946 189.176V200.336H312.938V189.176H310.946ZM312.074 193.88V195.536H316.13V193.88H312.074ZM299.162 201.368V202.928H310.994V205.16H299.21V209.96H301.178V206.624H312.938V201.368H299.162ZM299.21 209.12V210.656H313.73V209.12H299.21ZM336.438 195.152V196.784H341.91V195.152H336.438ZM340.782 189.2V205.088H342.774V189.2H340.782ZM328.926 208.76V210.392H343.374V208.76H328.926ZM328.926 203.696V209.6H330.918V203.696H328.926ZM330.462 191.888V193.64C330.462 196.712 328.23 199.592 324.99 200.744L326.022 202.328C329.646 200.984 332.094 197.576 332.094 193.64V191.888H330.462ZM330.846 191.888V193.616C330.846 197.288 333.174 200.552 336.702 201.824L337.71 200.264C334.566 199.16 332.454 196.424 332.454 193.616V191.888H330.846ZM325.614 190.952V192.56H337.206V190.952H325.614ZM347.98 197.672V199.304H349.66C354.1 199.304 356.74 199.16 359.812 198.536L359.572 196.928C356.596 197.528 354.028 197.672 349.66 197.672H347.98ZM347.98 190.424V198.632H349.948V192.032H357.556V190.424H347.98ZM361.852 189.176V200.096H363.844V189.176H361.852ZM363.292 193.736V195.392H367.06V193.736H363.292ZM350.068 201.2V202.784H361.9V205.016H350.116V209.912H352.084V206.552H363.844V201.2H350.068ZM350.116 208.976V210.584H364.636V208.976H350.116ZM369.05 192.872V194.504H379.802V192.872H369.05ZM374.426 195.944C371.738 195.944 369.77 197.984 369.77 200.912C369.77 203.816 371.738 205.856 374.426 205.856C377.138 205.856 379.106 203.816 379.106 200.912C379.106 197.984 377.138 195.944 374.426 195.944ZM374.426 197.648C376.106 197.648 377.33 198.992 377.33 200.912C377.33 202.832 376.106 204.176 374.426 204.176C372.77 204.176 371.57 202.832 371.57 200.912C371.57 198.992 372.77 197.648 374.426 197.648ZM385.538 189.176V210.872H387.458V189.176H385.538ZM382.082 198.296V199.952H386.186V198.296H382.082ZM380.906 189.656V209.816H382.778V189.656H380.906ZM373.466 189.8V193.88H375.434V189.8H373.466ZM399.865 191.312V192.224C399.865 195.08 396.145 197.576 392.329 198.128L393.097 199.712C397.465 198.968 401.593 196.112 401.593 192.224V191.312H399.865ZM400.369 191.312V192.224C400.369 196.112 404.473 198.968 408.865 199.712L409.609 198.128C405.817 197.576 402.073 195.08 402.073 192.224V191.312H400.369ZM399.937 202.592V210.872H401.905V202.592H399.937ZM391.177 201.536V203.168H410.785V201.536H391.177ZM393.001 190.52V192.128H408.889V190.52H393.001ZM415.727 199.304V200.936H430.631V199.304H415.727ZM413.255 206.48V208.16H432.911V206.48H413.255ZM422.039 200V207.152H424.031V200H422.039ZM415.727 190.904V200.024H417.719V192.536H430.415V190.904H415.727ZM435.309 201.104V202.736H454.989V201.104H435.309ZM437.805 189.728V191.288H450.501V193.52H437.853V197.912H439.821V194.984H452.445V189.728H437.805ZM437.853 197.264V198.824H452.925V197.264H437.853ZM444.141 198.08V201.92H446.133V198.08H444.141ZM437.493 204.392V206.024H450.597V210.68H452.589V204.392H437.493ZM478.849 189.176V210.872H480.841V189.176H478.849ZM480.361 198.08V199.76H484.393V198.08H480.361ZM464.041 192.632V194.264H476.833V192.632H464.041ZM470.521 196.064C467.473 196.064 465.241 198.128 465.241 201.056C465.241 203.984 467.473 206.048 470.521 206.048C473.593 206.048 475.801 203.984 475.801 201.056C475.801 198.128 473.593 196.064 470.521 196.064ZM470.521 197.72C472.489 197.72 473.905 199.088 473.905 201.056C473.905 203 472.489 204.392 470.521 204.392C468.553 204.392 467.137 203 467.137 201.056C467.137 199.088 468.553 197.72 470.521 197.72ZM469.489 189.44V193.376H471.481V189.44H469.489ZM493.751 190.76V191.408C493.751 195.512 491.207 198.704 486.431 200.672L487.439 202.136C492.863 199.832 495.743 195.944 495.743 190.76H493.751ZM487.367 190.76V192.416H494.519V190.76H487.367ZM502.607 189.176V201.704H504.503V189.176H502.607ZM493.511 195.344V196.952H498.743V195.344H493.511ZM498.311 189.632V201.368H500.183V189.632H498.311ZM491.855 202.448V203.864C491.855 205.976 490.199 208.328 487.487 209.312L488.471 210.8C491.591 209.6 493.391 206.72 493.391 203.864V202.448H491.855ZM492.287 202.448V203.864C492.287 206.768 493.679 209.744 496.823 210.992L497.663 209.504C495.047 208.4 493.775 206.072 493.775 203.864V202.448H492.287ZM499.823 202.448V203.864C499.823 205.736 498.551 208.304 495.935 209.504L496.823 210.992C499.895 209.672 501.311 206.432 501.311 203.864V202.448H499.823ZM500.231 202.448V203.864C500.231 206.888 502.007 209.648 505.151 210.8L506.135 209.312C503.399 208.4 501.767 206.144 501.767 203.864V202.448H500.231ZM509.349 191.504V204.224H511.317V191.504H509.349ZM509.349 203.648V205.376H510.741C513.357 205.376 515.781 205.256 518.613 204.68L518.349 202.976C515.613 203.528 513.261 203.648 510.741 203.648H509.349ZM524.829 189.176V210.872H526.749V189.176H524.829ZM515.373 196.448V198.104H520.797V196.448H515.373ZM520.245 189.68V209.768H522.117V189.68H520.245ZM532.502 209.136C532.082 209.136 531.721 208.986 531.42 208.685C531.119 208.384 530.968 208.023 530.968 207.602C530.968 207.182 531.119 206.821 531.42 206.52C531.721 206.219 532.082 206.068 532.502 206.068C532.923 206.068 533.283 206.219 533.585 206.52C533.886 206.821 534.036 207.182 534.036 207.602C534.036 207.881 533.965 208.136 533.823 208.369C533.687 208.602 533.502 208.79 533.269 208.932C533.042 209.068 532.786 209.136 532.502 209.136Z" fill="black"/>
<defs>
<clipPath id="clip0_663_66">
<rect width="570" height="266" fill="white"/>
</clipPath>
</defs>
</svg>
