<svg width="381" height="116" viewBox="0 0 381 116" fill="none" xmlns="http://www.w3.org/2000/svg">
<path d="M70.198 5.00046H201C226.444 5.00046 271 -1.53763 290.5 26.4624L247 81.0505C222.5 92.1668 179.943 92.1668 154.5 92.1668L91.5 115L101.68 92.1668C76.236 92.1668 24.265 89.7543 24.265 81.0505L1 26.4621C1 17.7581 44.7554 5.00046 70.198 5.00046Z" fill="white" stroke="black" stroke-width="2" stroke-linecap="round" stroke-linejoin="round"/>
<path d="M70.198 5.00023H201C226.444 5.00023 342 -9 361.5 19L380 81.0502C361.5 104.5 179.943 92.1665 154.5 92.1665L91.5 115L101.68 92.1665C76.236 92.1665 24.265 89.7541 24.265 81.0502L1 26.4619C1 17.7578 44.7554 5.00023 70.198 5.00023Z" fill="white" stroke="black" stroke-width="2" stroke-linecap="round" stroke-linejoin="round"/>
<path d="M51.021 23.4772V45.2212H53.013V23.4772H51.021ZM41.565 25.1572C38.373 25.1572 36.069 28.1092 36.069 32.7172C36.069 37.3492 38.373 40.3012 41.565 40.3012C44.781 40.3012 47.085 37.3492 47.085 32.7172C47.085 28.1092 44.781 25.1572 41.565 25.1572ZM41.565 26.9572C43.701 26.9572 45.165 29.2132 45.165 32.7172C45.165 36.2452 43.701 38.5492 41.565 38.5492C39.453 38.5492 37.965 36.2452 37.965 32.7172C37.965 29.2132 39.453 26.9572 41.565 26.9572ZM66.4332 24.5332V26.1412H80.4012V24.5332H66.4332ZM64.1052 33.6772V35.2852H83.6892V33.6772H64.1052ZM72.1452 29.3092V33.9172H74.1132V29.3092H72.1452ZM79.2492 24.5332V26.0692C79.2492 27.6772 79.2492 29.4532 78.6972 31.9492L80.6412 32.1652C81.1932 29.6452 81.1932 27.7012 81.1932 26.0692V24.5332H79.2492ZM72.8172 36.9892V37.9492C72.8172 40.8052 69.4812 42.9892 65.4972 43.5412L66.2652 45.1252C70.7052 44.3812 74.5212 41.8132 74.5212 37.9492V36.9892H72.8172ZM73.1052 36.9892V37.9492C73.1052 41.8132 76.8972 44.3812 81.3852 45.1252L82.1292 43.5412C78.1692 42.9892 74.8092 40.8052 74.8092 37.9492V36.9892H73.1052ZM86.1593 34.9012V36.5332H105.767V34.9012H86.1593ZM88.7033 43.0852V44.7172H103.607V43.0852H88.7033ZM88.7033 38.4292V43.5892H90.6953V38.4292H88.7033ZM95.9753 24.2212C91.3193 24.2212 88.3433 25.8532 88.3433 28.5652C88.3433 31.2532 91.3193 32.8852 95.9753 32.8852C100.607 32.8852 103.607 31.2532 103.607 28.5652C103.607 25.8532 100.607 24.2212 95.9753 24.2212ZM95.9753 25.8532C99.3833 25.8532 101.567 26.8612 101.567 28.5652C101.567 30.2692 99.3833 31.2772 95.9753 31.2772C92.5673 31.2772 90.3833 30.2692 90.3833 28.5652C90.3833 26.8612 92.5673 25.8532 95.9753 25.8532ZM117.531 30.7732V32.4052H132.387V30.7732H117.531ZM115.011 35.6692V37.3012H134.667V35.6692H115.011ZM123.771 36.5572V45.1972H125.739V36.5572H123.771ZM117.531 24.5812V31.5892H119.523V24.5812H117.531ZM139.586 24.6532V26.2612H153.434V24.6532H139.586ZM137.09 33.0532V34.6612H156.746V33.0532H137.09ZM145.994 34.0372V39.8932H147.986V34.0372H145.994ZM152.258 24.6532V26.3812C152.258 28.3012 152.258 30.5332 151.538 33.6532L153.482 33.9172C154.202 30.6532 154.202 28.3492 154.202 26.3812V24.6532H152.258ZM139.562 43.0852V44.7172H154.634V43.0852H139.562ZM139.562 37.9492V43.5172H141.554V37.9492H139.562ZM173.832 23.4772V45.1972H175.848V23.4772H173.832ZM175.296 32.2852V33.9412H179.304V32.2852H175.296ZM168.288 25.8292V26.1412C168.288 31.8772 165.288 36.5092 159.288 39.5572L160.392 41.0932C167.4 37.5652 170.232 31.9972 170.232 25.8292H168.288ZM160.296 25.8292V27.4612H169.32V25.8292H160.296ZM181.222 33.5812V35.0932H200.902V33.5812H181.222ZM183.55 36.8452V38.2612H196.486V40.1092H183.622V44.0212H185.59V41.4772H198.43V36.8452H183.55ZM183.622 43.4932V44.9332H199.126V43.4932H183.622ZM183.718 24.1252V25.5412H196.414V27.2932H183.766V30.9892H185.734V28.6372H198.358V24.1252H183.718ZM183.766 30.5092V31.9492H198.766V30.5092H183.766ZM35.277 69.7332V71.3892H54.933V69.7332H35.277ZM44.013 64.4772V70.2852H45.981V64.4772H44.013ZM43.965 53.9412V55.6212C43.965 59.1972 39.861 62.3892 36.045 63.0852L36.885 64.7412C41.253 63.8292 45.693 60.2532 45.693 55.6212V53.9412H43.965ZM44.325 53.9412V55.6212C44.325 60.2532 48.765 63.8292 53.133 64.7412L53.997 63.0852C50.181 62.3892 46.053 59.2212 46.053 55.6212V53.9412H44.325ZM66.1392 63.3492V67.1412H68.1312V63.3492H66.1392ZM57.3312 62.6532V64.2612H76.9392V62.6532H57.3312ZM67.1232 66.5412C62.4672 66.5412 59.6832 67.9092 59.6832 70.3572C59.6832 72.7812 62.4672 74.1492 67.1232 74.1492C71.7792 74.1492 74.5632 72.7812 74.5632 70.3572C74.5632 67.9092 71.7792 66.5412 67.1232 66.5412ZM67.1232 68.0772C70.5312 68.0772 72.5472 68.8932 72.5472 70.3572C72.5472 71.7972 70.5312 72.6132 67.1232 72.6132C63.7392 72.6132 61.6992 71.7972 61.6992 70.3572C61.6992 68.8932 63.7392 68.0772 67.1232 68.0772ZM65.8512 54.2772V54.9252C65.8512 57.3972 62.3232 59.3412 58.4352 59.7492L59.1552 61.3332C63.6432 60.7812 67.6272 58.4292 67.6272 54.9252V54.2772H65.8512ZM66.6912 54.2772V54.9252C66.6912 58.4292 70.6512 60.7812 75.1392 61.3332L75.8592 59.7492C71.9712 59.3412 68.4432 57.3972 68.4432 54.9252V54.2772H66.6912ZM59.1312 53.4852V55.0932H75.1872V53.4852H59.1312ZM95.1773 52.5012V74.1972H97.1693V52.5012H95.1773ZM79.9133 56.0052V57.6132H92.9213V56.0052H79.9133ZM86.4413 59.3892C83.3213 59.3892 81.0893 61.4532 81.0893 64.3812C81.0893 67.3092 83.3213 69.3732 86.4413 69.3732C89.5613 69.3732 91.8173 67.3092 91.8173 64.3812C91.8173 61.4532 89.5613 59.3892 86.4413 59.3892ZM86.4413 61.0452C88.4333 61.0452 89.8973 62.4132 89.8973 64.3812C89.8973 66.3252 88.4333 67.7172 86.4413 67.7172C84.4493 67.7172 82.9853 66.3252 82.9853 64.3812C82.9853 62.4132 84.4493 61.0452 86.4413 61.0452ZM85.4093 52.7172V56.9892H87.4013V52.7172H85.4093ZM118.029 57.3252V58.9812H124.581V57.3252H118.029ZM118.029 64.1892V65.8452H124.581V64.1892H118.029ZM114.045 54.1572C110.877 54.1572 108.645 57.1092 108.645 61.7172C108.645 66.3492 110.877 69.3012 114.045 69.3012C117.189 69.3012 119.445 66.3492 119.445 61.7172C119.445 57.1092 117.189 54.1572 114.045 54.1572ZM114.045 55.9572C116.133 55.9572 117.573 58.2132 117.573 61.7172C117.573 65.2452 116.133 67.5492 114.045 67.5492C111.957 67.5492 110.517 65.2452 110.517 61.7172C110.517 58.2132 111.957 55.9572 114.045 55.9572ZM124.149 52.4772V74.2212H126.117V52.4772H124.149ZM146.132 52.5012V74.1972H148.124V52.5012H146.132ZM139.772 54.8292V55.1652C139.772 60.9252 136.868 65.5332 130.604 68.5572L131.66 70.1652C138.908 66.6132 141.74 61.1172 141.74 54.8292H139.772ZM131.588 54.8292V56.4612H140.636V54.8292H131.588ZM155.058 59.0052V60.6372H169.794V59.0052H155.058ZM152.394 63.5412V65.1732H172.074V63.5412H152.394ZM155.058 53.2932V59.8212H157.026V53.2932H155.058ZM154.914 72.0372V73.6692H169.914V72.0372H154.914ZM154.914 67.3332V72.4692H156.882V67.3332H154.914ZM182.086 54.6612V68.7012H192.046V54.6612H182.086ZM190.102 56.2692V67.0932H184.03V56.2692H190.102ZM195.91 52.5012V74.1972H197.926V52.5012H195.91ZM197.446 61.1652V62.8452H201.478V61.1652H197.446ZM213.116 52.9812C208.412 52.9812 205.484 54.5172 205.484 57.0852C205.484 59.6532 208.412 61.1652 213.116 61.1652C217.796 61.1652 220.748 59.6532 220.748 57.0852C220.748 54.5172 217.796 52.9812 213.116 52.9812ZM213.116 54.5652C216.548 54.5652 218.708 55.4772 218.708 57.0852C218.708 58.6692 216.548 59.6052 213.116 59.6052C209.66 59.6052 207.524 58.6692 207.524 57.0852C207.524 55.4772 209.66 54.5652 213.116 54.5652ZM205.7 66.7572V73.9092H220.508V66.7572H205.7ZM218.564 68.3652V72.3012H207.668V68.3652H218.564ZM203.3 63.0372V64.6452H222.908V63.0372H203.3ZM225.402 61.5492V63.1812H245.01V61.5492H225.402ZM227.994 58.1892V59.7972H242.682V58.1892H227.994ZM227.994 53.1972V59.4852H229.962V54.8292H242.442V53.1972H227.994ZM227.754 65.0532V66.6132H240.522V68.6772H227.802V72.9012H229.77V70.1652H242.49V65.0532H227.754ZM227.802 72.3732V73.9572H243.138V72.3732H227.802ZM263.224 52.4772V74.2212H265.216V52.4772H263.224ZM253.768 54.1572C250.576 54.1572 248.272 57.1092 248.272 61.7172C248.272 66.3492 250.576 69.3012 253.768 69.3012C256.984 69.3012 259.288 66.3492 259.288 61.7172C259.288 57.1092 256.984 54.1572 253.768 54.1572ZM253.768 55.9572C255.904 55.9572 257.368 58.2132 257.368 61.7172C257.368 65.2452 255.904 67.5492 253.768 67.5492C251.656 67.5492 250.168 65.2452 250.168 61.7172C250.168 58.2132 251.656 55.9572 253.768 55.9572ZM276.308 69.7812V71.4372H295.964V69.7812H276.308ZM285.092 64.1652V70.2372H287.084V64.1652H285.092ZM278.588 54.3012V64.5252H293.564V54.3012H278.588ZM291.644 55.9092V62.9172H280.532V55.9092H291.644ZM308.154 57.3252V58.9812H314.706V57.3252H308.154ZM308.154 64.1892V65.8452H314.706V64.1892H308.154ZM304.17 54.1572C301.002 54.1572 298.77 57.1092 298.77 61.7172C298.77 66.3492 301.002 69.3012 304.17 69.3012C307.314 69.3012 309.57 66.3492 309.57 61.7172C309.57 57.1092 307.314 54.1572 304.17 54.1572ZM304.17 55.9572C306.258 55.9572 307.698 58.2132 307.698 61.7172C307.698 65.2452 306.258 67.5492 304.17 67.5492C302.082 67.5492 300.642 65.2452 300.642 61.7172C300.642 58.2132 302.082 55.9572 304.17 55.9572ZM314.274 52.4772V74.2212H316.242V52.4772H314.274ZM325.865 65.8452V67.0212C325.865 69.1092 324.233 71.4372 321.497 72.4212L322.505 73.9092C325.625 72.7092 327.401 69.8532 327.401 67.0212V65.8452H325.865ZM326.297 65.8452V67.0212C326.297 69.9012 327.713 72.8772 330.833 74.1012L331.673 72.5892C329.081 71.5332 327.785 69.2052 327.785 67.0212V65.8452H326.297ZM333.881 65.8452V67.0212C333.881 68.8932 332.561 71.4132 329.993 72.5892L330.833 74.1012C333.929 72.7812 335.369 69.5652 335.369 67.0212V65.8452H333.881ZM334.289 65.8452V67.0212C334.289 70.0212 336.017 72.7572 339.185 73.9092L340.193 72.4212C337.433 71.4852 335.825 69.2532 335.825 67.0212V65.8452H334.289ZM336.233 52.5252V64.9092H338.249V52.5252H336.233ZM326.609 53.7732C323.321 53.7732 320.945 55.8372 320.945 58.8372C320.945 61.8372 323.321 63.8772 326.609 63.8772C329.897 63.8772 332.249 61.8372 332.249 58.8372C332.249 55.8372 329.897 53.7732 326.609 53.7732ZM326.609 55.4292C328.769 55.4292 330.329 56.8212 330.329 58.8372C330.329 60.8532 328.769 62.2212 326.609 62.2212C324.449 62.2212 322.889 60.8532 322.889 58.8372C322.889 56.8212 324.449 55.4292 326.609 55.4292ZM345.183 59.0052V60.6372H359.919V59.0052H345.183ZM342.519 63.5412V65.1732H362.199V63.5412H342.519ZM345.183 53.2932V59.8212H347.151V53.2932H345.183ZM345.039 72.0372V73.6692H360.039V72.0372H345.039ZM345.039 67.3332V72.4692H347.007V67.3332H345.039Z" fill="black"/>
</svg>
