<svg width="570" height="266" viewBox="0 0 570 266" fill="none" xmlns="http://www.w3.org/2000/svg">
<g clip-path="url(#clip0_663_45)">
<path d="M126.499 83L498.108 93.1316C537.999 93.1316 570 105.379 570 120.647L547.117 207.069C547.117 222.337 521.599 233.422 481.709 233.422L400.503 233.965L419.609 266L299.655 234.584L175.856 235.902C135.965 235.902 84.2267 222.324 84.2267 207.057L48 115.609C48 100.341 86.6096 83 126.499 83Z" fill="white" stroke="black" stroke-width="2" stroke-linecap="round" stroke-linejoin="round"/>
<path d="M216.901 131.784C212.485 131.784 209.773 133.272 209.773 135.816C209.773 138.36 212.485 139.848 216.901 139.848C221.317 139.848 224.029 138.36 224.029 135.816C224.029 133.272 221.317 131.784 216.901 131.784ZM216.901 133.392C220.117 133.392 222.085 134.28 222.085 135.816C222.085 137.376 220.117 138.264 216.901 138.264C213.685 138.264 211.717 137.376 211.717 135.816C211.717 134.28 213.685 133.392 216.901 133.392ZM221.821 118.176V131.208H223.813V118.176H221.821ZM223.261 123.624V125.304H227.029V123.624H223.261ZM207.877 119.544V129.552H217.909V119.544H215.965V122.784H209.845V119.544H207.877ZM209.845 124.368H215.965V127.944H209.845V124.368ZM231.563 119.304V120.936H245.531V119.304H231.563ZM229.067 127.296V128.928H248.723V127.296H229.067ZM244.235 119.304V120.912C244.235 122.712 244.235 124.8 243.515 127.776L245.459 127.872C246.179 124.872 246.179 122.76 246.179 120.912V119.304H244.235ZM231.467 131.88V139.584H246.251V131.88H231.467ZM244.307 133.464V137.976H233.411V133.464H244.307ZM251.121 129.576V131.208H270.729V129.576H251.121ZM253.665 137.76V139.392H268.569V137.76H253.665ZM253.665 133.104V138.264H255.657V133.104H253.665ZM260.937 118.896C256.281 118.896 253.305 120.528 253.305 123.24C253.305 125.928 256.281 127.56 260.937 127.56C265.569 127.56 268.569 125.928 268.569 123.24C268.569 120.528 265.569 118.896 260.937 118.896ZM260.937 120.528C264.345 120.528 266.529 121.536 266.529 123.24C266.529 124.944 264.345 125.952 260.937 125.952C257.529 125.952 255.345 124.944 255.345 123.24C255.345 121.536 257.529 120.528 260.937 120.528ZM282.637 124.2V125.832H297.349V124.2H282.637ZM282.637 118.608V124.92H284.605V118.608H282.637ZM279.973 128.688V130.296H299.581V128.688H279.973ZM288.781 125.064V129.408H290.773V125.064H288.781ZM289.741 131.952C285.109 131.952 282.301 133.368 282.301 135.912C282.301 138.408 285.109 139.824 289.741 139.824C294.373 139.824 297.181 138.408 297.181 135.912C297.181 133.368 294.373 131.952 289.741 131.952ZM289.741 133.512C293.149 133.512 295.165 134.376 295.165 135.912C295.165 137.4 293.149 138.264 289.741 138.264C286.357 138.264 284.317 137.4 284.317 135.912C284.317 134.376 286.357 133.512 289.741 133.512ZM316.884 118.176V130.464H318.876V118.176H316.884ZM318.324 123.48V125.112H322.092V123.48H318.324ZM303.036 127.584V129.24H304.716C309.276 129.24 311.844 129.096 314.82 128.496L314.604 126.864C311.7 127.464 309.18 127.584 304.716 127.584H303.036ZM303.036 119.616V128.52H305.004V121.248H312.588V119.616H303.036ZM305.244 131.616V139.584H318.876V131.616H305.244ZM316.932 133.224V137.952H307.188V133.224H316.932ZM330.202 118.968C326.986 118.968 324.61 120.936 324.61 123.792C324.61 126.624 326.986 128.592 330.202 128.592C333.442 128.592 335.818 126.624 335.818 123.792C335.818 120.936 333.442 118.968 330.202 118.968ZM330.202 120.6C332.314 120.6 333.874 121.92 333.874 123.792C333.874 125.664 332.314 126.96 330.202 126.96C328.114 126.96 326.53 125.664 326.53 123.792C326.53 121.92 328.114 120.6 330.202 120.6ZM339.898 118.176V129.288H341.914V118.176H339.898ZM327.874 130.344V131.952H339.946V134.136H327.922V138.888H329.866V135.624H341.914V130.344H327.874ZM327.922 138V139.584H342.634V138H327.922ZM354.752 125.928V127.584H358.904V125.928H354.752ZM350.696 120.216V124.344C350.696 128.064 348.92 131.952 345.944 133.704L347.192 135.216C350.36 133.272 352.256 128.88 352.256 124.344V120.216H350.696ZM351.08 120.216V124.272C351.08 128.496 352.832 132.816 355.952 134.736L357.104 133.176C354.248 131.448 352.616 127.752 352.616 124.272V120.216H351.08ZM362.72 118.176V139.872H364.64V118.176H362.72ZM358.328 118.632V138.792H360.2V118.632H358.328ZM379.572 119.304V119.592C379.572 123.288 378.012 125.208 375.204 127.032L376.524 128.28C379.788 126.024 381.42 123.48 381.42 119.304H379.572ZM375.756 119.304V120.912H380.412V119.304H375.756ZM385.596 119.304V119.544C385.596 123.408 384.444 125.928 381.324 128.16L382.692 129.36C386.22 126.72 387.444 123.576 387.444 119.304H385.596ZM382.164 119.304V120.912H386.388V119.304H382.164ZM390.804 118.176V129.336H392.796V118.176H390.804ZM386.148 123.288V124.896H391.164V123.288H386.148ZM378.684 130.368V131.976H390.804V134.16H378.732V139.152H380.7V135.648H392.796V130.368H378.684ZM378.732 138.12V139.704H393.468V138.12H378.732ZM401.65 119.304V119.592C401.65 123.288 400.09 125.208 397.282 127.032L398.602 128.28C401.866 126.024 403.498 123.48 403.498 119.304H401.65ZM397.834 119.304V120.912H402.49V119.304H397.834ZM407.674 119.304V119.544C407.674 123.408 406.522 125.928 403.402 128.16L404.77 129.36C408.298 126.72 409.522 123.576 409.522 119.304H407.674ZM404.242 119.304V120.912H408.466V119.304H404.242ZM412.882 118.176V129.336H414.874V118.176H412.882ZM408.226 123.288V124.896H413.242V123.288H408.226ZM400.762 130.368V131.976H412.882V134.16H400.81V139.152H402.778V135.648H414.874V130.368H400.762ZM400.81 138.12V139.704H415.546V138.12H400.81ZM421.299 138.136C420.879 138.136 420.518 137.986 420.217 137.685C419.915 137.384 419.765 137.023 419.765 136.602C419.765 136.182 419.915 135.821 420.217 135.52C420.518 135.219 420.879 135.068 421.299 135.068C421.719 135.068 422.08 135.219 422.381 135.52C422.683 135.821 422.833 136.182 422.833 136.602C422.833 136.881 422.762 137.136 422.62 137.369C422.484 137.602 422.299 137.79 422.066 137.932C421.839 138.068 421.583 138.136 421.299 138.136ZM427.908 138.136C427.488 138.136 427.127 137.986 426.826 137.685C426.525 137.384 426.374 137.023 426.374 136.602C426.374 136.182 426.525 135.821 426.826 135.52C427.127 135.219 427.488 135.068 427.908 135.068C428.329 135.068 428.69 135.219 428.991 135.52C429.292 135.821 429.442 136.182 429.442 136.602C429.442 136.881 429.371 137.136 429.229 137.369C429.093 137.602 428.908 137.79 428.675 137.932C428.448 138.068 428.192 138.136 427.908 138.136ZM106.051 149.048V152.936C106.051 156.896 103.579 161.072 100.435 162.656L101.659 164.24C105.091 162.416 107.683 157.736 107.683 152.936V149.048H106.051ZM106.411 149.048V152.936C106.411 157.592 108.931 162.032 112.291 163.832L113.515 162.248C110.443 160.712 108.019 156.752 108.019 152.936V149.048H106.411ZM115.411 147.176V168.872H117.427V147.176H115.411ZM116.947 155.96V157.64H120.979V155.96H116.947ZM137.657 147.2V160.112H139.649V147.2H137.657ZM139.049 152.72V154.4H142.865V152.72H139.049ZM125.969 161.192V168.584H139.649V161.192H125.969ZM137.705 162.776V166.976H127.937V162.776H137.705ZM123.761 157.352V159.008H125.465C129.473 159.008 132.329 158.864 135.761 158.288L135.593 156.656C132.209 157.256 129.401 157.352 125.465 157.352H123.761ZM123.713 148.352V149.984H131.513V152.768H123.761V158.288H125.705V154.304H133.481V148.352H123.713ZM144.903 156.224V157.856H164.511V156.224H144.903ZM147.495 152.864V154.472H162.183V152.864H147.495ZM147.495 147.872V154.16H149.463V149.504H161.943V147.872H147.495ZM147.255 159.728V161.288H160.023V163.352H147.303V167.576H149.271V164.84H161.991V159.728H147.255ZM147.303 167.048V168.632H162.639V167.048H147.303ZM174.013 148.736C170.629 148.736 168.181 150.824 168.181 153.848C168.181 156.896 170.629 158.984 174.013 158.984C177.397 158.984 179.821 156.896 179.821 153.848C179.821 150.824 177.397 148.736 174.013 148.736ZM174.013 150.464C176.245 150.464 177.877 151.832 177.877 153.848C177.877 155.864 176.245 157.256 174.013 157.256C171.757 157.256 170.125 155.864 170.125 153.848C170.125 151.832 171.757 150.464 174.013 150.464ZM182.653 147.152V168.896H184.645V147.152H182.653ZM167.365 164.144C171.229 164.144 176.533 164.12 181.405 163.184L181.237 161.72C176.509 162.464 171.037 162.488 167.077 162.488L167.365 164.144ZM195.809 164.408V166.064H215.465V164.408H195.809ZM204.545 159.152V164.96H206.513V159.152H204.545ZM204.497 148.616V150.296C204.497 153.872 200.393 157.064 196.577 157.76L197.417 159.416C201.785 158.504 206.225 154.928 206.225 150.296V148.616H204.497ZM204.857 148.616V150.296C204.857 154.928 209.297 158.504 213.665 159.416L214.529 157.76C210.713 157.064 206.585 153.896 206.585 150.296V148.616H204.857ZM226.672 158.024V161.816H228.664V158.024H226.672ZM217.864 157.328V158.936H237.472V157.328H217.864ZM227.656 161.216C223 161.216 220.215 162.584 220.215 165.032C220.215 167.456 223 168.824 227.656 168.824C232.312 168.824 235.096 167.456 235.096 165.032C235.096 162.584 232.312 161.216 227.656 161.216ZM227.656 162.752C231.064 162.752 233.08 163.568 233.08 165.032C233.08 166.472 231.064 167.288 227.656 167.288C224.272 167.288 222.232 166.472 222.232 165.032C222.232 163.568 224.272 162.752 227.656 162.752ZM226.384 148.952V149.6C226.384 152.072 222.855 154.016 218.968 154.424L219.688 156.008C224.176 155.456 228.16 153.104 228.16 149.6V148.952H226.384ZM227.224 148.952V149.6C227.224 153.104 231.184 155.456 235.672 156.008L236.392 154.424C232.504 154.016 228.976 152.072 228.976 149.6V148.952H227.224ZM219.664 148.16V149.768H235.72V148.16H219.664ZM255.71 147.176V168.872H257.702V147.176H255.71ZM240.446 150.68V152.288H253.454V150.68H240.446ZM246.974 154.064C243.854 154.064 241.622 156.128 241.622 159.056C241.622 161.984 243.854 164.048 246.974 164.048C250.094 164.048 252.35 161.984 252.35 159.056C252.35 156.128 250.094 154.064 246.974 154.064ZM246.974 155.72C248.966 155.72 250.43 157.088 250.43 159.056C250.43 161 248.966 162.392 246.974 162.392C244.982 162.392 243.518 161 243.518 159.056C243.518 157.088 244.982 155.72 246.974 155.72ZM245.942 147.392V151.664H247.934V147.392H245.942ZM278.562 152V153.656H285.114V152H278.562ZM278.562 158.864V160.52H285.114V158.864H278.562ZM274.578 148.832C271.41 148.832 269.178 151.784 269.178 156.392C269.178 161.024 271.41 163.976 274.578 163.976C277.722 163.976 279.978 161.024 279.978 156.392C279.978 151.784 277.722 148.832 274.578 148.832ZM274.578 150.632C276.666 150.632 278.106 152.888 278.106 156.392C278.106 159.92 276.666 162.224 274.578 162.224C272.49 162.224 271.05 159.92 271.05 156.392C271.05 152.888 272.49 150.632 274.578 150.632ZM284.682 147.152V168.896H286.65V147.152H284.682ZM306.664 147.176V168.872H308.656V147.176H306.664ZM300.304 149.504V149.84C300.304 155.6 297.4 160.208 291.136 163.232L292.192 164.84C299.44 161.288 302.272 155.792 302.272 149.504H300.304ZM292.12 149.504V151.136H301.168V149.504H292.12ZM315.59 153.68V155.312H330.326V153.68H315.59ZM312.926 158.216V159.848H332.606V158.216H312.926ZM315.59 147.968V154.496H317.558V147.968H315.59ZM315.446 166.712V168.344H330.446V166.712H315.446ZM315.446 162.008V167.144H317.414V162.008H315.446ZM342.618 149.336V163.376H352.578V149.336H342.618ZM350.634 150.944V161.768H344.562V150.944H350.634ZM356.442 147.176V168.872H358.458V147.176H356.442ZM357.978 155.84V157.52H362.01V155.84H357.978ZM373.648 147.656C368.944 147.656 366.016 149.192 366.016 151.76C366.016 154.328 368.944 155.84 373.648 155.84C378.328 155.84 381.28 154.328 381.28 151.76C381.28 149.192 378.328 147.656 373.648 147.656ZM373.648 149.24C377.08 149.24 379.24 150.152 379.24 151.76C379.24 153.344 377.08 154.28 373.648 154.28C370.192 154.28 368.056 153.344 368.056 151.76C368.056 150.152 370.192 149.24 373.648 149.24ZM366.232 161.432V168.584H381.04V161.432H366.232ZM379.096 163.04V166.976H368.2V163.04H379.096ZM363.832 157.712V159.32H383.44V157.712H363.832ZM395.726 147.536C390.926 147.536 388.094 148.88 388.094 151.304C388.094 153.728 390.926 155.072 395.726 155.072C400.502 155.072 403.358 153.728 403.358 151.304C403.358 148.88 400.502 147.536 395.726 147.536ZM395.726 149.048C399.254 149.048 401.294 149.864 401.294 151.304C401.294 152.744 399.254 153.56 395.726 153.56C392.174 153.56 390.134 152.744 390.134 151.304C390.134 149.864 392.174 149.048 395.726 149.048ZM385.91 156.512V158.12H405.518V156.512H385.91ZM388.286 159.968V161.504H401.054V163.424H388.334V167.504H390.302V164.864H403.022V159.968H388.286ZM388.334 167.072V168.632H403.67V167.072H388.334ZM424.795 150.56V152.192H431.323V150.56H424.795ZM424.795 155.768V157.4H431.323V155.768H424.795ZM430.603 147.2V163.232H432.595V147.2H430.603ZM418.747 166.76V168.392H433.195V166.76H418.747ZM418.747 161.576V167.48H420.739V161.576H418.747ZM420.667 148.568C417.475 148.568 415.075 150.8 415.075 153.992C415.075 157.184 417.475 159.416 420.667 159.416C423.859 159.416 426.259 157.184 426.259 153.992C426.259 150.8 423.859 148.568 420.667 148.568ZM420.667 150.32C422.779 150.32 424.363 151.856 424.363 153.992C424.363 156.152 422.779 157.688 420.667 157.688C418.555 157.688 416.995 156.152 416.995 153.992C416.995 151.856 418.555 150.32 420.667 150.32ZM442.313 159.896V165.224H444.281V159.896H442.313ZM449.249 159.848V165.2H451.193V159.848H449.249ZM436.841 164.552V166.208H456.497V164.552H436.841ZM439.217 148.784V150.392H452.105V153.752H439.289V159.704H441.257V155.336H454.073V148.784H439.217ZM439.289 158.816V160.448H454.577V158.816H439.289ZM470.997 148.28V150.416C470.997 153.728 468.861 156.632 465.573 157.832L466.629 159.416C470.277 158.024 472.629 154.616 472.629 150.416V148.28H470.997ZM471.357 148.28V150.392C471.357 154.208 473.709 157.496 477.213 158.816L478.245 157.232C475.125 156.128 472.965 153.344 472.965 150.392V148.28H471.357ZM480.501 147.176V159.872H482.493V147.176H480.501ZM481.941 152.552V154.232H485.709V152.552H481.941ZM468.861 160.88V168.584H482.493V160.88H468.861ZM480.549 162.464V166.976H470.805V162.464H480.549ZM493.507 148.832C490.315 148.832 488.059 151.784 488.059 156.392C488.059 161.024 490.315 163.976 493.507 163.976C496.699 163.976 498.955 161.024 498.955 156.392C498.955 151.784 496.699 148.832 493.507 148.832ZM493.507 150.632C495.595 150.632 497.059 152.888 497.059 156.392C497.059 159.92 495.595 162.224 493.507 162.224C491.395 162.224 489.955 159.92 489.955 156.392C489.955 152.888 491.395 150.632 493.507 150.632ZM502.411 147.176V168.872H504.427V147.176H502.411ZM503.947 155.84V157.52H507.979V155.84H503.947ZM520.649 154.52V156.152H526.697V154.52H520.649ZM515.417 149.048V152.912C515.417 156.944 512.969 161.12 509.777 162.704L511.049 164.288C514.481 162.44 517.049 157.784 517.049 152.912V149.048H515.417ZM515.801 149.048V152.912C515.801 157.664 518.321 162.128 521.825 163.904L523.001 162.296C519.857 160.808 517.409 156.872 517.409 152.912V149.048H515.801ZM525.713 147.152V168.896H527.681V147.152H525.713ZM170.403 188.608V190.24H190.083V188.608H170.403ZM179.187 189.616V197.872H181.155V189.616H179.187ZM180.195 177.04C175.683 177.04 172.611 178.888 172.611 181.792C172.611 184.696 175.683 186.544 180.195 186.544C184.731 186.544 187.779 184.696 187.779 181.792C187.779 178.888 184.731 177.04 180.195 177.04ZM180.195 178.648C183.507 178.648 185.739 179.872 185.739 181.792C185.739 183.712 183.507 184.936 180.195 184.936C176.883 184.936 174.627 183.712 174.627 181.792C174.627 179.872 176.883 178.648 180.195 178.648ZM208.297 176.152V197.896H210.289V176.152H208.297ZM193.753 191.008V192.664H195.553C199.273 192.664 202.537 192.52 206.473 191.872L206.257 190.24C202.417 190.864 199.177 191.008 195.553 191.008H193.753ZM193.705 178.192V179.824H201.721V184.312H193.753V191.632H195.745V185.944H203.737V178.192H193.705ZM231.485 178.768V180.376H237.653V178.768H231.485ZM231.485 183.256V184.84H237.653V183.256H231.485ZM227.237 176.896C223.997 176.896 221.645 178.936 221.645 181.864C221.645 184.744 223.997 186.784 227.237 186.784C230.477 186.784 232.829 184.744 232.829 181.864C232.829 178.936 230.477 176.896 227.237 176.896ZM227.237 178.552C229.373 178.552 230.933 179.92 230.933 181.864C230.933 183.784 229.373 185.152 227.237 185.152C225.101 185.152 223.565 183.784 223.565 181.864C223.565 179.92 225.101 178.552 227.237 178.552ZM237.173 176.176V187.288H239.165V176.176H237.173ZM225.197 188.392V189.976H237.197V192.136H225.245V196.888H227.189V193.624H239.165V188.392H225.197ZM225.245 196V197.584H239.957V196H225.245ZM248.691 181.336V183.184C248.691 186.928 246.387 190.624 243.195 192.16L244.323 193.696C247.755 191.992 250.251 187.768 250.251 183.184V181.336H248.691ZM249.075 181.336V183.184C249.075 187.504 251.427 191.608 254.811 193.288L255.915 191.752C252.819 190.216 250.635 186.688 250.635 183.184V181.336H249.075ZM243.795 179.944V181.552H255.435V179.944H243.795ZM248.667 176.56V180.832H250.635V176.56H248.667ZM258.075 176.176V197.872H260.091V176.176H258.075ZM259.611 185.08V186.736H263.643V185.08H259.611ZM268.129 182.68V184.312H282.865V182.68H268.129ZM265.465 187.216V188.848H285.145V187.216H265.465ZM268.129 176.968V183.496H270.097V176.968H268.129ZM267.985 195.712V197.344H282.985V195.712H267.985ZM267.985 191.008V196.144H269.953V191.008H267.985ZM310.445 184.816V186.496H314.453V184.816H310.445ZM308.981 176.152V197.872H310.997V176.152H308.981ZM295.157 178.288V191.728H297.149V178.288H295.157ZM295.157 190.696V192.376H296.885C300.173 192.376 303.509 192.16 307.205 191.392L306.965 189.736C303.389 190.48 300.101 190.696 296.885 190.696H295.157ZM322.155 177.832C318.963 177.832 316.707 180.784 316.707 185.392C316.707 190.024 318.963 192.976 322.155 192.976C325.347 192.976 327.603 190.024 327.603 185.392C327.603 180.784 325.347 177.832 322.155 177.832ZM322.155 179.632C324.243 179.632 325.707 181.888 325.707 185.392C325.707 188.92 324.243 191.224 322.155 191.224C320.043 191.224 318.603 188.92 318.603 185.392C318.603 181.888 320.043 179.632 322.155 179.632ZM331.059 176.176V197.872H333.075V176.176H331.059ZM332.595 184.84V186.52H336.627V184.84H332.595ZM353.305 176.176V187.216H355.297V176.176H353.305ZM354.745 181.024V182.68H358.513V181.024H354.745ZM347.281 177.232V178.288C347.281 181.936 344.137 184.84 338.497 186.088L339.241 187.744C345.529 186.256 349.441 182.68 349.441 177.232H347.281ZM339.433 177.232V178.864H348.457V177.232H339.433ZM341.521 188.2V189.784H353.353V192.04H341.569V196.96H343.537V193.576H355.297V188.2H341.521ZM341.569 196.072V197.656H356.089V196.072H341.569ZM376.062 176.944V178.144C376.062 181.24 372.246 183.832 368.286 184.432L369.078 186.04C373.59 185.272 377.814 182.296 377.814 178.144V176.944H376.062ZM376.422 176.944V178.144C376.422 182.248 380.67 185.272 385.134 186.04L385.926 184.432C382.014 183.832 378.15 181.168 378.15 178.144V176.944H376.422ZM376.062 189.616V197.872H378.03V189.616H376.062ZM367.302 188.392V190.048H386.91V188.392H367.302ZM401.53 189.52V190.696C401.53 192.784 399.898 195.112 397.162 196.096L398.17 197.584C401.29 196.384 403.066 193.528 403.066 190.696V189.52H401.53ZM401.962 189.52V190.696C401.962 193.576 403.378 196.552 406.498 197.776L407.338 196.264C404.746 195.208 403.45 192.88 403.45 190.696V189.52H401.962ZM409.546 189.52V190.696C409.546 192.568 408.226 195.088 405.658 196.264L406.498 197.776C409.594 196.456 411.034 193.24 411.034 190.696V189.52H409.546ZM409.954 189.52V190.696C409.954 193.696 411.682 196.432 414.85 197.584L415.858 196.096C413.098 195.16 411.49 192.928 411.49 190.696V189.52H409.954ZM411.898 176.2V188.584H413.914V176.2H411.898ZM402.274 177.448C398.986 177.448 396.61 179.512 396.61 182.512C396.61 185.512 398.986 187.552 402.274 187.552C405.562 187.552 407.914 185.512 407.914 182.512C407.914 179.512 405.562 177.448 402.274 177.448ZM402.274 179.104C404.434 179.104 405.994 180.496 405.994 182.512C405.994 184.528 404.434 185.896 402.274 185.896C400.114 185.896 398.554 184.528 398.554 182.512C398.554 180.496 400.114 179.104 402.274 179.104ZM432.872 176.152V197.896H434.888V176.152H432.872ZM434.408 184.72V186.4H438.44V184.72H434.408ZM419.12 190.816V192.496H420.824C424.904 192.496 427.76 192.376 431.096 191.752L430.88 190.072C427.64 190.672 424.832 190.816 420.824 190.816H419.12ZM419.12 178.264V191.56H421.088V179.896H429.2V178.264H419.12ZM441.318 178.504V191.224H443.286V178.504H441.318ZM441.318 190.648V192.376H442.71C445.326 192.376 447.75 192.256 450.582 191.68L450.318 189.976C447.582 190.528 445.23 190.648 442.71 190.648H441.318ZM456.798 176.176V197.872H458.718V176.176H456.798ZM447.342 183.448V185.104H452.766V183.448H447.342ZM452.214 176.68V196.768H454.086V176.68H452.214ZM464.471 196.136C464.05 196.136 463.69 195.986 463.388 195.685C463.087 195.384 462.937 195.023 462.937 194.602C462.937 194.182 463.087 193.821 463.388 193.52C463.69 193.219 464.05 193.068 464.471 193.068C464.891 193.068 465.252 193.219 465.553 193.52C465.854 193.821 466.005 194.182 466.005 194.602C466.005 194.881 465.934 195.136 465.792 195.369C465.656 195.602 465.471 195.79 465.238 195.932C465.011 196.068 464.755 196.136 464.471 196.136Z" fill="black"/>
</g>
<defs>
<clipPath id="clip0_663_45">
<rect width="570" height="266" fill="white"/>
</clipPath>
</defs>
</svg>
