<svg width="394" height="112" viewBox="0 0 394 112" fill="none" xmlns="http://www.w3.org/2000/svg">
<path d="M70.198 1H201C226.444 1 246 13.5 265.5 41.5L255.5 88.1663C255.5 96.8704 179.943 88.1663 154.5 88.1663L91.5 111L101.68 88.1663C76.236 88.1663 24.265 85.7539 24.265 77.05L1 22.4617C1 13.7576 44.7554 1 70.198 1Z" fill="white" stroke="black" stroke-width="2" stroke-linecap="round" stroke-linejoin="round"/>
<path d="M53.045 24.3252V25.9812H59.597V24.3252H53.045ZM53.045 31.1892V32.8452H59.597V31.1892H53.045ZM49.061 21.1572C45.893 21.1572 43.661 24.1092 43.661 28.7172C43.661 33.3492 45.893 36.3012 49.061 36.3012C52.205 36.3012 54.461 33.3492 54.461 28.7172C54.461 24.1092 52.205 21.1572 49.061 21.1572ZM49.061 22.9572C51.149 22.9572 52.589 25.2132 52.589 28.7172C52.589 32.2452 51.149 34.5492 49.061 34.5492C46.973 34.5492 45.533 32.2452 45.533 28.7172C45.533 25.2132 46.973 22.9572 49.061 22.9572ZM59.165 19.4772V41.2212H61.133V19.4772H59.165ZM81.1472 19.5012V41.1972H83.1392V19.5012H81.1472ZM74.7872 21.8292V22.1652C74.7872 27.9252 71.8832 32.5332 65.6192 35.5572L66.6752 37.1652C73.9232 33.6132 76.7552 28.1172 76.7552 21.8292H74.7872ZM66.6032 21.8292V23.4612H75.6512V21.8292H66.6032ZM90.0733 26.0052V27.6372H104.809V26.0052H90.0733ZM87.4093 30.5412V32.1732H107.089V30.5412H87.4093ZM90.0733 20.2932V26.8212H92.0413V20.2932H90.0733ZM89.9293 39.0372V40.6692H104.929V39.0372H89.9293ZM89.9293 34.3332V39.4692H91.8973V34.3332H89.9293ZM59.117 48.5012V64.2212H61.109V48.5012H59.117ZM52.973 53.2292V54.8612H59.501V53.2292H52.973ZM47.237 68.0852V69.7172H61.685V68.0852H47.237ZM47.237 62.9252V68.9252H49.229V62.9252H47.237ZM44.525 50.1332V59.4692H46.517V50.1332H44.525ZM44.525 58.9652V60.6692H46.181C49.733 60.6692 52.733 60.4772 56.045 59.8052L55.757 58.1252C52.565 58.7732 49.661 58.9652 46.181 58.9652H44.525ZM81.2432 48.5012V70.2452H83.2352V48.5012H81.2432ZM74.5712 55.6532V57.2852H81.8912V55.6532H74.5712ZM66.5312 50.9252V64.3652H68.4992V50.9252H66.5312ZM66.5312 63.3092V64.9892H68.2112C71.6432 64.9892 74.6912 64.7732 78.1472 64.1012L77.9072 62.4212C74.5712 63.1172 71.5712 63.3092 68.2112 63.3092H66.5312ZM87.4093 61.1012V62.7332H107.089V61.1012H87.4093ZM96.1933 62.0852V70.1972H98.1613V62.0852H96.1933ZM89.9053 49.7012V58.1732H104.545V49.7012H89.9053ZM102.601 51.3092V56.5652H91.8733V51.3092H102.601ZM109.511 65.7332V67.3892H129.167V65.7332H109.511ZM118.247 60.4772V66.2852H120.215V60.4772H118.247ZM118.199 49.9412V51.6212C118.199 55.1972 114.095 58.3892 110.279 59.0852L111.119 60.7412C115.487 59.8292 119.927 56.2532 119.927 51.6212V49.9412H118.199ZM118.559 49.9412V51.6212C118.559 56.2532 122.999 59.8292 127.367 60.7412L128.231 59.0852C124.415 58.3892 120.287 55.2212 120.287 51.6212V49.9412H118.559ZM140.374 59.3492V63.1412H142.366V59.3492H140.374ZM131.566 58.6532V60.2612H151.174V58.6532H131.566ZM141.358 62.5412C136.702 62.5412 133.918 63.9092 133.918 66.3572C133.918 68.7812 136.702 70.1492 141.358 70.1492C146.014 70.1492 148.798 68.7812 148.798 66.3572C148.798 63.9092 146.014 62.5412 141.358 62.5412ZM141.358 64.0772C144.766 64.0772 146.782 64.8932 146.782 66.3572C146.782 67.7972 144.766 68.6132 141.358 68.6132C137.974 68.6132 135.934 67.7972 135.934 66.3572C135.934 64.8932 137.974 64.0772 141.358 64.0772ZM140.086 50.2772V50.9252C140.086 53.3972 136.558 55.3412 132.67 55.7492L133.39 57.3332C137.878 56.7812 141.862 54.4292 141.862 50.9252V50.2772H140.086ZM140.926 50.2772V50.9252C140.926 54.4292 144.886 56.7812 149.374 57.3332L150.094 55.7492C146.206 55.3412 142.678 53.3972 142.678 50.9252V50.2772H140.926ZM133.366 49.4852V51.0932H149.422V49.4852H133.366ZM170.036 48.5012V62.2292H171.932V48.5012H170.036ZM166.508 54.3812V56.0372H170.612V54.3812H166.508ZM165.404 48.9332V61.4612H167.276V48.9332H165.404ZM153.548 51.0932V52.6772H164.54V51.0932H153.548ZM159.068 53.7812C156.332 53.7812 154.436 55.2692 154.436 57.5012C154.436 59.7572 156.332 61.2212 159.068 61.2212C161.78 61.2212 163.676 59.7572 163.676 57.5012C163.676 55.2692 161.78 53.7812 159.068 53.7812ZM159.068 55.2692C160.748 55.2692 161.9 56.1572 161.9 57.5012C161.9 58.8692 160.748 59.7332 159.068 59.7332C157.364 59.7332 156.212 58.8692 156.212 57.5012C156.212 56.1572 157.364 55.2692 159.068 55.2692ZM158.084 48.6692V51.9812H160.028V48.6692H158.084ZM164.828 62.6132C160.268 62.6132 157.58 63.9572 157.58 66.3812C157.58 68.7812 160.268 70.1492 164.828 70.1492C169.34 70.1492 172.052 68.7812 172.052 66.3812C172.052 63.9572 169.34 62.6132 164.828 62.6132ZM164.828 64.1492C168.116 64.1492 170.084 64.9412 170.084 66.3812C170.084 67.8212 168.116 68.6372 164.828 68.6372C161.492 68.6372 159.548 67.8212 159.548 66.3812C159.548 64.9412 161.492 64.1492 164.828 64.1492ZM181.194 49.7252V51.9572C181.194 55.2692 179.034 58.1732 175.722 59.3492L176.754 60.9812C180.474 59.5892 182.85 56.1572 182.85 51.9572V49.7252H181.194ZM181.554 49.7252V51.8852C181.554 55.8212 183.882 59.0132 187.386 60.3332L188.466 58.7732C185.298 57.6692 183.186 54.9572 183.186 51.8852V49.7252H181.554ZM191.586 48.5012V61.3412H193.578V48.5012H191.586ZM186.45 61.9652C181.962 61.9652 179.202 63.4772 179.202 66.0692C179.202 68.6612 181.962 70.1492 186.45 70.1492C190.914 70.1492 193.674 68.6612 193.674 66.0692C193.674 63.4772 190.914 61.9652 186.45 61.9652ZM186.45 63.5492C189.714 63.5492 191.706 64.4852 191.706 66.0692C191.706 67.6532 189.714 68.5892 186.45 68.5892C183.186 68.5892 181.194 67.6532 181.194 66.0692C181.194 64.4852 183.186 63.5492 186.45 63.5492ZM186.882 53.0852V54.7412H192.018V53.0852H186.882ZM213.568 48.4772V70.2212H215.56V48.4772H213.568ZM204.112 50.1572C200.92 50.1572 198.616 53.1092 198.616 57.7172C198.616 62.3492 200.92 65.3012 204.112 65.3012C207.328 65.3012 209.632 62.3492 209.632 57.7172C209.632 53.1092 207.328 50.1572 204.112 50.1572ZM204.112 51.9572C206.248 51.9572 207.712 54.2132 207.712 57.7172C207.712 61.2452 206.248 63.5492 204.112 63.5492C202 63.5492 200.512 61.2452 200.512 57.7172C200.512 54.2132 202 51.9572 204.112 51.9572ZM225.662 50.1572C222.47 50.1572 220.214 53.1092 220.214 57.7172C220.214 62.3492 222.47 65.3012 225.662 65.3012C228.854 65.3012 231.11 62.3492 231.11 57.7172C231.11 53.1092 228.854 50.1572 225.662 50.1572ZM225.662 51.9572C227.75 51.9572 229.214 54.2132 229.214 57.7172C229.214 61.2452 227.75 63.5492 225.662 63.5492C223.55 63.5492 222.11 61.2452 222.11 57.7172C222.11 54.2132 223.55 51.9572 225.662 51.9572ZM236.03 53.9492V55.6292H240.014V53.9492H236.03ZM236.03 60.4052V62.0852H240.014V60.4052H236.03ZM234.566 48.5012V70.1972H236.582V48.5012H234.566Z" fill="black"/>
</svg>
