<svg width="587" height="200" viewBox="0 0 587 200" fill="none" xmlns="http://www.w3.org/2000/svg">
<g clip-path="url(#clip0_663_26)">
<path d="M301.528 57L540.725 64.8063C566.402 64.8063 587 74.2427 587 86.0065L572.271 152.594C572.271 164.358 555.845 172.899 530.169 172.899H435.5L451 199.5L418.5 186L388.5 173.794H346.5H307.5C281.823 173.794 274.318 164.348 274.318 152.585L267 86.0065C267 74.2425 275.852 57 301.528 57Z" fill="white" stroke="black" stroke-width="2" stroke-linecap="round" stroke-linejoin="round"/>
<path d="M308.66 103.608V105.24H328.34V103.608H308.66ZM317.444 104.616V112.872H319.412V104.616H317.444ZM318.452 92.04C313.94 92.04 310.868 93.888 310.868 96.792C310.868 99.696 313.94 101.544 318.452 101.544C322.988 101.544 326.036 99.696 326.036 96.792C326.036 93.888 322.988 92.04 318.452 92.04ZM318.452 93.648C321.764 93.648 323.996 94.872 323.996 96.792C323.996 98.712 321.764 99.936 318.452 99.936C315.14 99.936 312.884 98.712 312.884 96.792C312.884 94.872 315.14 93.648 318.452 93.648ZM346.555 91.152V112.896H348.547V91.152H346.555ZM332.011 106.008V107.664H333.811C337.531 107.664 340.795 107.52 344.731 106.872L344.515 105.24C340.675 105.864 337.435 106.008 333.811 106.008H332.011ZM331.963 93.192V94.824H339.979V99.312H332.011V106.632H334.003V100.944H341.995V93.192H331.963ZM369.743 93.768V95.376H375.911V93.768H369.743ZM369.743 98.256V99.84H375.911V98.256H369.743ZM365.495 91.896C362.255 91.896 359.903 93.936 359.903 96.864C359.903 99.744 362.255 101.784 365.495 101.784C368.735 101.784 371.087 99.744 371.087 96.864C371.087 93.936 368.735 91.896 365.495 91.896ZM365.495 93.552C367.631 93.552 369.191 94.92 369.191 96.864C369.191 98.784 367.631 100.152 365.495 100.152C363.359 100.152 361.823 98.784 361.823 96.864C361.823 94.92 363.359 93.552 365.495 93.552ZM375.431 91.176V102.288H377.423V91.176H375.431ZM363.455 103.392V104.976H375.455V107.136H363.503V111.888H365.447V108.624H377.423V103.392H363.455ZM363.503 111V112.584H378.215V111H363.503ZM386.949 96.336V98.184C386.949 101.928 384.645 105.624 381.453 107.16L382.581 108.696C386.013 106.992 388.509 102.768 388.509 98.184V96.336H386.949ZM387.333 96.336V98.184C387.333 102.504 389.685 106.608 393.069 108.288L394.173 106.752C391.077 105.216 388.893 101.688 388.893 98.184V96.336H387.333ZM382.053 94.944V96.552H393.693V94.944H382.053ZM386.925 91.56V95.832H388.893V91.56H386.925ZM396.333 91.176V112.872H398.349V91.176H396.333ZM397.869 100.08V101.736H401.901V100.08H397.869ZM406.387 97.68V99.312H421.123V97.68H406.387ZM403.723 102.216V103.848H423.403V102.216H403.723ZM406.387 91.968V98.496H408.355V91.968H406.387ZM406.243 110.712V112.344H421.243V110.712H406.243ZM406.243 106.008V111.144H408.211V106.008H406.243ZM442.799 94.248V95.808H448.919V94.248H442.799ZM442.799 98.208V99.768H448.919V98.208H442.799ZM448.415 91.176V102.48H450.407V91.176H448.415ZM436.439 103.56V105.144H448.439V107.208H436.487V112.032H438.431V108.696H450.407V103.56H436.439ZM436.487 111V112.584H451.199V111H436.487ZM433.631 92.16V101.64H443.423V92.16H441.479V95.28H435.599V92.16H433.631ZM435.599 96.84H441.479V100.032H435.599V96.84ZM463.437 99.6V101.256H467.541V99.6H463.437ZM471.165 91.176V112.872H473.085V91.176H471.165ZM466.869 91.632V111.792H468.765V91.632H466.869ZM459.525 92.976C456.717 92.976 454.917 95.88 454.917 100.536C454.917 105.192 456.717 108.096 459.525 108.096C462.333 108.096 464.157 105.192 464.157 100.536C464.157 95.88 462.333 92.976 459.525 92.976ZM459.525 94.824C461.253 94.824 462.333 97.032 462.333 100.536C462.333 104.04 461.253 106.248 459.525 106.248C457.821 106.248 456.741 104.04 456.741 100.536C456.741 97.032 457.821 94.824 459.525 94.824ZM487.555 98.52V100.152H493.603V98.52H487.555ZM482.323 93.048V96.912C482.323 100.944 479.875 105.12 476.683 106.704L477.955 108.288C481.387 106.44 483.955 101.784 483.955 96.912V93.048H482.323ZM482.707 93.048V96.912C482.707 101.664 485.227 106.128 488.731 107.904L489.907 106.296C486.763 104.808 484.315 100.872 484.315 96.912V93.048H482.707ZM492.619 91.152V112.896H494.587V91.152H492.619ZM515.783 94.248V95.808H521.903V94.248H515.783ZM515.783 98.208V99.768H521.903V98.208H515.783ZM521.399 91.176V102.48H523.391V91.176H521.399ZM509.423 103.56V105.144H521.423V107.208H509.471V112.032H511.415V108.696H523.391V103.56H509.423ZM509.471 111V112.584H524.183V111H509.471ZM506.615 92.16V101.64H516.407V92.16H514.463V95.28H508.583V92.16H506.615ZM508.583 96.84H514.463V100.032H508.583V96.84ZM527.638 108.552V110.208H547.294V108.552H527.638ZM536.422 103.896V109.248H538.414V103.896H536.422ZM530.014 92.784V94.392H542.902V97.752H530.086V103.704H532.054V99.36H544.87V92.784H530.014ZM530.086 102.864V104.496H545.374V102.864H530.086ZM310.403 120.176V136.328H312.395V120.176H310.403ZM295.187 121.928V123.56H306.611V121.928H295.187ZM294.827 133.064C298.355 133.064 303.227 132.992 307.403 132.32L307.283 130.832C303.227 131.312 298.163 131.36 294.611 131.36L294.827 133.064ZM297.347 123.32V131.648H299.267V123.32H297.347ZM302.531 123.32V131.648H304.451V123.32H302.531ZM306.803 124.28V125.912H311.459V124.28H306.803ZM306.803 128.432V130.064H311.459V128.432H306.803ZM298.523 139.76V141.392H312.971V139.76H298.523ZM298.523 135.008V140.792H300.515V135.008H298.523ZM322.377 123.272V126.8C322.377 130.544 319.761 134.624 316.617 136.112L317.769 137.696C321.225 135.992 323.985 131.384 323.985 126.8V123.272H322.377ZM322.761 123.272V126.8C322.761 131.312 325.545 135.536 329.049 137.168L330.177 135.584C326.985 134.216 324.369 130.472 324.369 126.8V123.272H322.761ZM317.337 122.384V124.064H329.457V122.384H317.337ZM332.385 120.176V141.872H334.377V120.176H332.385ZM338.696 130.256V131.768H358.376V130.256H338.696ZM341.024 133.52V134.936H353.96V136.784H341.096V140.696H343.064V138.152H355.904V133.52H341.024ZM341.096 140.168V141.608H356.6V140.168H341.096ZM341.192 120.8V122.216H353.888V123.968H341.24V127.664H343.208V125.312H355.832V120.8H341.192ZM341.24 127.184V128.624H356.24V127.184H341.24ZM379.044 126.152V127.784H384.516V126.152H379.044ZM383.388 120.2V136.088H385.38V120.2H383.388ZM371.532 139.76V141.392H385.98V139.76H371.532ZM371.532 134.696V140.6H373.524V134.696H371.532ZM373.068 122.888V124.64C373.068 127.712 370.836 130.592 367.596 131.744L368.628 133.328C372.252 131.984 374.7 128.576 374.7 124.64V122.888H373.068ZM373.452 122.888V124.616C373.452 128.288 375.78 131.552 379.308 132.824L380.316 131.264C377.172 130.16 375.06 127.424 375.06 124.616V122.888H373.452ZM368.22 121.952V123.56H379.812V121.952H368.22ZM389.578 123.872V125.504H400.33V123.872H389.578ZM394.954 126.944C392.266 126.944 390.298 128.984 390.298 131.912C390.298 134.816 392.266 136.856 394.954 136.856C397.666 136.856 399.634 134.816 399.634 131.912C399.634 128.984 397.666 126.944 394.954 126.944ZM394.954 128.648C396.634 128.648 397.858 129.992 397.858 131.912C397.858 133.832 396.634 135.176 394.954 135.176C393.298 135.176 392.098 133.832 392.098 131.912C392.098 129.992 393.298 128.648 394.954 128.648ZM406.066 120.176V141.872H407.986V120.176H406.066ZM402.61 129.296V130.952H406.714V129.296H402.61ZM401.434 120.656V140.816H403.306V120.656H401.434ZM393.994 120.8V124.88H395.962V120.8H393.994ZM420.392 122.312V123.224C420.392 126.08 416.672 128.576 412.856 129.128L413.624 130.712C417.992 129.968 422.12 127.112 422.12 123.224V122.312H420.392ZM420.896 122.312V123.224C420.896 127.112 425 129.968 429.392 130.712L430.136 129.128C426.344 128.576 422.6 126.08 422.6 123.224V122.312H420.896ZM420.464 133.592V141.872H422.432V133.592H420.464ZM411.704 132.536V134.168H431.312V132.536H411.704ZM413.528 121.52V123.128H429.416V121.52H413.528ZM436.422 126.68V128.312H451.158V126.68H436.422ZM433.758 131.216V132.848H453.438V131.216H433.758ZM436.422 120.968V127.496H438.39V120.968H436.422ZM436.278 139.712V141.344H451.278V139.712H436.278ZM436.278 135.008V140.144H438.246V135.008H436.278ZM472.762 122.768V124.376H478.93V122.768H472.762ZM472.762 127.256V128.84H478.93V127.256H472.762ZM468.514 120.896C465.274 120.896 462.922 122.936 462.922 125.864C462.922 128.744 465.274 130.784 468.514 130.784C471.754 130.784 474.106 128.744 474.106 125.864C474.106 122.936 471.754 120.896 468.514 120.896ZM468.514 122.552C470.65 122.552 472.21 123.92 472.21 125.864C472.21 127.784 470.65 129.152 468.514 129.152C466.378 129.152 464.842 127.784 464.842 125.864C464.842 123.92 466.378 122.552 468.514 122.552ZM478.45 120.176V131.288H480.442V120.176H478.45ZM466.474 132.392V133.976H478.474V136.136H466.522V140.888H468.466V137.624H480.442V132.392H466.474ZM466.522 140V141.584H481.234V140H466.522ZM489.968 125.336V127.184C489.968 130.928 487.664 134.624 484.472 136.16L485.6 137.696C489.032 135.992 491.528 131.768 491.528 127.184V125.336H489.968ZM490.352 125.336V127.184C490.352 131.504 492.704 135.608 496.088 137.288L497.192 135.752C494.096 134.216 491.912 130.688 491.912 127.184V125.336H490.352ZM485.072 123.944V125.552H496.712V123.944H485.072ZM489.944 120.56V124.832H491.912V120.56H489.944ZM499.352 120.176V141.872H501.368V120.176H499.352ZM500.888 129.08V130.736H504.92V129.08H500.888ZM521.454 120.152V141.896H523.446V120.152H521.454ZM522.966 128.792V130.472H526.998V128.792H522.966ZM507.63 135.008V136.664H509.358C513.51 136.664 516.39 136.496 519.774 135.896L519.558 134.24C516.27 134.864 513.438 135.008 509.358 135.008H507.63ZM507.582 122.192V123.824H515.43V128.336H507.63V135.68H509.598V129.968H517.398V122.192H507.582ZM529.877 122.504V135.224H531.845V122.504H529.877ZM529.877 134.648V136.376H531.269C533.885 136.376 536.309 136.256 539.141 135.68L538.877 133.976C536.141 134.528 533.789 134.648 531.269 134.648H529.877ZM545.357 120.176V141.872H547.277V120.176H545.357ZM535.901 127.448V129.104H541.325V127.448H535.901ZM540.773 120.68V140.768H542.645V120.68H540.773ZM554.223 122.545L554.052 135.091H552.075L551.904 122.545H554.223ZM553.064 140.136C552.643 140.136 552.282 139.986 551.981 139.685C551.68 139.384 551.529 139.023 551.529 138.602C551.529 138.182 551.68 137.821 551.981 137.52C552.282 137.219 552.643 137.068 553.064 137.068C553.484 137.068 553.845 137.219 554.146 137.52C554.447 137.821 554.598 138.182 554.598 138.602C554.598 138.881 554.527 139.136 554.385 139.369C554.248 139.602 554.064 139.79 553.831 139.932C553.603 140.068 553.348 140.136 553.064 140.136Z" fill="black"/>
</g>
<defs>
<clipPath id="clip0_663_26">
<rect width="587" height="200" fill="white"/>
</clipPath>
</defs>
</svg>
