<svg width="570" height="266" viewBox="0 0 570 266" fill="none" xmlns="http://www.w3.org/2000/svg">
<g clip-path="url(#clip0_663_72)">
<path d="M226.754 54L514.36 65.7372C545.233 65.7372 570 79.9251 570 97.6126L552.29 197.73C552.29 215.418 532.54 228.259 501.668 228.259L438.818 228.888L453.606 266L360.767 229.606L264.954 231.132C234.08 231.132 194.038 215.403 194.038 197.716L166 91.7766C166 74.0889 195.882 54 226.754 54Z" fill="white" stroke="black" stroke-width="2" stroke-linecap="round" stroke-linejoin="round"/>
<path d="M278.438 93.176V109.328H280.43V93.176H278.438ZM263.222 94.928V96.56H274.646V94.928H263.222ZM262.862 106.064C266.39 106.064 271.262 105.992 275.438 105.32L275.318 103.832C271.262 104.312 266.198 104.36 262.646 104.36L262.862 106.064ZM265.382 96.32V104.648H267.302V96.32H265.382ZM270.566 96.32V104.648H272.486V96.32H270.566ZM274.838 97.28V98.912H279.494V97.28H274.838ZM274.838 101.432V103.064H279.494V101.432H274.838ZM266.558 112.76V114.392H281.006V112.76H266.558ZM266.558 108.008V113.792H268.55V108.008H266.558ZM290.413 96.272V99.8C290.413 103.544 287.797 107.624 284.653 109.112L285.805 110.696C289.261 108.992 292.021 104.384 292.021 99.8V96.272H290.413ZM290.797 96.272V99.8C290.797 104.312 293.581 108.536 297.085 110.168L298.213 108.584C295.021 107.216 292.405 103.472 292.405 99.8V96.272H290.797ZM285.373 95.384V97.064H297.493V95.384H285.373ZM300.421 93.176V114.872H302.413V93.176H300.421ZM306.731 103.256V104.768H326.411V103.256H306.731ZM309.059 106.52V107.936H321.995V109.784H309.131V113.696H311.099V111.152H323.939V106.52H309.059ZM309.131 113.168V114.608H324.635V113.168H309.131ZM309.227 93.8V95.216H321.923V96.968H309.275V100.664H311.243V98.312H323.867V93.8H309.227ZM309.275 100.184V101.624H324.275V100.184H309.275ZM341.103 95.384V97.136C341.103 100.208 338.871 103.088 335.631 104.24L336.663 105.824C340.287 104.48 342.735 101.096 342.735 97.136V95.384H341.103ZM341.487 95.384V97.136C341.487 100.76 343.815 104.024 347.343 105.32L348.351 103.736C345.207 102.632 343.095 99.92 343.095 97.136V95.384H341.487ZM347.175 98.816V100.472H351.999V98.816H347.175ZM336.255 94.664V96.272H347.847V94.664H336.255ZM338.943 107.336V108.968H351.423V114.872H353.415V107.336H338.943ZM351.423 93.176V106.16H353.415V93.176H351.423ZM367.453 94.544C362.941 94.544 359.557 96.944 359.557 100.544C359.557 104.168 362.941 106.544 367.453 106.544C371.965 106.544 375.325 104.168 375.325 100.544C375.325 96.944 371.965 94.544 367.453 94.544ZM367.453 96.176C370.885 96.176 373.429 97.928 373.429 100.544C373.429 103.136 370.885 104.912 367.453 104.912C364.021 104.912 361.477 103.136 361.477 100.544C361.477 97.928 364.021 96.176 367.453 96.176ZM357.661 110.336V112.016H377.317V110.336H357.661ZM390.131 96.992V98.624H396.203V96.992H390.131ZM390.131 101.624V103.28H396.251V101.624H390.131ZM380.723 95.048V105.224H390.635V95.048H380.723ZM388.667 96.656V103.616H382.667V96.656H388.667ZM395.579 93.2V109.04H397.571V93.2H395.579ZM383.627 112.76V114.392H398.099V112.76H383.627ZM383.627 107.6V113.504H385.619V107.6H383.627ZM412.641 100.52V102.152H418.689V100.52H412.641ZM407.409 95.048V98.912C407.409 102.944 404.961 107.12 401.769 108.704L403.041 110.288C406.473 108.44 409.041 103.784 409.041 98.912V95.048H407.409ZM407.793 95.048V98.912C407.793 103.664 410.313 108.128 413.817 109.904L414.993 108.296C411.849 106.808 409.401 102.872 409.401 98.912V95.048H407.793ZM417.705 93.152V114.896H419.673V93.152H417.705ZM433.045 102.968V104.624H448.069V102.968H433.045ZM430.645 110.24V111.896H450.301V110.24H430.645ZM433.045 95.072V103.712H435.037V95.072H433.045ZM468.491 93.224V108.944H470.483V93.224H468.491ZM456.323 112.76V114.392H471.107V112.76H456.323ZM456.323 107.792V113.768H458.315V107.792H456.323ZM457.403 95.024V95.312C457.403 99.272 456.251 102.008 453.035 104.384L454.379 105.656C458.027 102.824 459.251 99.416 459.251 95.024H457.403ZM453.491 95.024V96.656H458.363V95.024H453.491ZM463.643 95.024V95.264C463.643 99.392 462.683 102.704 459.323 105.464L460.739 106.688C464.483 103.448 465.491 99.56 465.491 95.024H463.643ZM460.115 95.024V96.656H464.555V95.024H460.115ZM211.692 139.408V141.064H231.348V139.408H211.692ZM220.428 134.152V139.96H222.396V134.152H220.428ZM220.38 123.616V125.296C220.38 128.872 216.276 132.064 212.46 132.76L213.3 134.416C217.668 133.504 222.108 129.928 222.108 125.296V123.616H220.38ZM220.74 123.616V125.296C220.74 129.928 225.18 133.504 229.548 134.416L230.412 132.76C226.596 132.064 222.468 128.896 222.468 125.296V123.616H220.74ZM242.554 133.024V136.816H244.546V133.024H242.554ZM233.746 132.328V133.936H253.354V132.328H233.746ZM243.538 136.216C238.882 136.216 236.098 137.584 236.098 140.032C236.098 142.456 238.882 143.824 243.538 143.824C248.194 143.824 250.978 142.456 250.978 140.032C250.978 137.584 248.194 136.216 243.538 136.216ZM243.538 137.752C246.946 137.752 248.962 138.568 248.962 140.032C248.962 141.472 246.946 142.288 243.538 142.288C240.154 142.288 238.114 141.472 238.114 140.032C238.114 138.568 240.154 137.752 243.538 137.752ZM242.266 123.952V124.6C242.266 127.072 238.738 129.016 234.85 129.424L235.57 131.008C240.058 130.456 244.042 128.104 244.042 124.6V123.952H242.266ZM243.106 123.952V124.6C243.106 128.104 247.066 130.456 251.554 131.008L252.274 129.424C248.386 129.016 244.858 127.072 244.858 124.6V123.952H243.106ZM235.546 123.16V124.768H251.602V123.16H235.546ZM270.68 122.2V138.472H272.672V122.2H270.68ZM272.048 129.304V130.984H275.888V129.304H272.048ZM255.896 124.816V126.424H268.712V124.816H255.896ZM262.304 127.624C259.208 127.624 257.096 129.232 257.096 131.68C257.096 134.104 259.208 135.712 262.304 135.712C265.376 135.712 267.488 134.104 267.488 131.68C267.488 129.232 265.376 127.624 262.304 127.624ZM262.304 129.184C264.248 129.184 265.592 130.168 265.592 131.68C265.592 133.168 264.248 134.152 262.304 134.152C260.336 134.152 258.992 133.168 258.992 131.68C258.992 130.168 260.336 129.184 262.304 129.184ZM261.296 122.176V125.656H263.288V122.176H261.296ZM259.16 141.76V143.392H273.656V141.76H259.16ZM259.16 137.176V142.456H261.152V137.176H259.16ZM289.981 124.048V127.936C289.981 131.896 287.509 136.072 284.365 137.656L285.589 139.24C289.021 137.416 291.613 132.736 291.613 127.936V124.048H289.981ZM290.341 124.048V127.936C290.341 132.592 292.861 137.032 296.221 138.832L297.445 137.248C294.373 135.712 291.949 131.752 291.949 127.936V124.048H290.341ZM299.341 122.176V143.872H301.357V122.176H299.341ZM300.877 130.96V132.64H304.909V130.96H300.877ZM321.587 122.2V135.112H323.579V122.2H321.587ZM322.979 127.72V129.4H326.795V127.72H322.979ZM309.899 136.192V143.584H323.579V136.192H309.899ZM321.635 137.776V141.976H311.867V137.776H321.635ZM307.691 132.352V134.008H309.395C313.403 134.008 316.259 133.864 319.691 133.288L319.523 131.656C316.139 132.256 313.331 132.352 309.395 132.352H307.691ZM307.643 123.352V124.984H315.443V127.768H307.691V133.288H309.635V129.304H317.411V123.352H307.643ZM328.833 131.224V132.856H348.441V131.224H328.833ZM331.425 127.864V129.472H346.113V127.864H331.425ZM331.425 122.872V129.16H333.393V124.504H345.873V122.872H331.425ZM331.185 134.728V136.288H343.953V138.352H331.233V142.576H333.201V139.84H345.921V134.728H331.185ZM331.233 142.048V143.632H346.569V142.048H331.233ZM359.695 130.6V132.256H363.799V130.6H359.695ZM367.423 122.176V143.872H369.343V122.176H367.423ZM363.127 122.632V142.792H365.023V122.632H363.127ZM355.783 123.976C352.975 123.976 351.175 126.88 351.175 131.536C351.175 136.192 352.975 139.096 355.783 139.096C358.591 139.096 360.415 136.192 360.415 131.536C360.415 126.88 358.591 123.976 355.783 123.976ZM355.783 125.824C357.511 125.824 358.591 128.032 358.591 131.536C358.591 135.04 357.511 137.248 355.783 137.248C354.079 137.248 352.999 135.04 352.999 131.536C352.999 128.032 354.079 125.824 355.783 125.824ZM396.227 122.176V143.872H398.147V122.176H396.227ZM392.555 130.864V132.52H396.731V130.864H392.555ZM391.307 122.656V142.768H393.179V122.656H391.307ZM380.507 136.864V138.52H381.923C385.187 138.52 387.371 138.424 389.963 137.872L389.771 136.216C387.251 136.744 385.091 136.864 381.923 136.864H380.507ZM380.507 124.816V137.608H382.475V126.448H388.571V124.816H380.507ZM416.649 122.2V138.472H418.641V122.2H416.649ZM418.017 129.304V130.984H421.857V129.304H418.017ZM401.865 124.816V126.424H414.681V124.816H401.865ZM408.273 127.624C405.177 127.624 403.065 129.232 403.065 131.68C403.065 134.104 405.177 135.712 408.273 135.712C411.345 135.712 413.457 134.104 413.457 131.68C413.457 129.232 411.345 127.624 408.273 127.624ZM408.273 129.184C410.217 129.184 411.561 130.168 411.561 131.68C411.561 133.168 410.217 134.152 408.273 134.152C406.305 134.152 404.961 133.168 404.961 131.68C404.961 130.168 406.305 129.184 408.273 129.184ZM407.265 122.176V125.656H409.257V122.176H407.265ZM405.129 141.76V143.392H419.625V141.76H405.129ZM405.129 137.176V142.456H407.121V137.176H405.129ZM432.757 124.48V126.088H446.725V124.48H432.757ZM430.645 139.048V140.704H450.253V139.048H430.645ZM445.669 124.48V126.64C445.669 129.328 445.669 132.568 444.805 137.008L446.797 137.2C447.613 132.52 447.613 129.424 447.613 126.64V124.48H445.669ZM474.305 122.176V134.464H476.297V122.176H474.305ZM475.745 127.456V129.112H479.513V127.456H475.745ZM468.305 123.568V124.456C468.305 128.44 465.065 131.584 459.449 133.12L460.217 134.704C466.601 132.976 470.417 129.04 470.417 123.568H468.305ZM460.385 123.568V125.176H469.409V123.568H460.385ZM462.641 135.496V143.584H476.297V135.496H462.641ZM474.329 137.104V141.952H464.609V137.104H474.329ZM493.12 127.792V129.448H498.016V127.792H493.12ZM497.392 122.176V135.112H499.384V122.176H497.392ZM492.256 135.76C487.768 135.76 485.008 137.272 485.008 139.816C485.008 142.384 487.768 143.848 492.256 143.848C496.72 143.848 499.48 142.384 499.48 139.816C499.48 137.272 496.72 135.76 492.256 135.76ZM492.256 137.32C495.52 137.32 497.512 138.232 497.512 139.816C497.512 141.376 495.52 142.288 492.256 142.288C488.992 142.288 487 141.376 487 139.816C487 138.232 488.992 137.32 492.256 137.32ZM487.072 124.36V126.112C487.072 129.232 484.84 132.136 481.624 133.312L482.656 134.896C486.256 133.552 488.704 130.12 488.704 126.112V124.36H487.072ZM487.456 124.36V126.112C487.456 129.76 489.784 133.024 493.312 134.296L494.32 132.712C491.176 131.608 489.064 128.92 489.064 126.112V124.36H487.456ZM482.224 123.76V125.392H493.816V123.76H482.224ZM513.422 122.536C508.622 122.536 505.79 123.88 505.79 126.304C505.79 128.728 508.622 130.072 513.422 130.072C518.198 130.072 521.054 128.728 521.054 126.304C521.054 123.88 518.198 122.536 513.422 122.536ZM513.422 124.048C516.95 124.048 518.99 124.864 518.99 126.304C518.99 127.744 516.95 128.56 513.422 128.56C509.87 128.56 507.83 127.744 507.83 126.304C507.83 124.864 509.87 124.048 513.422 124.048ZM503.606 131.512V133.12H523.214V131.512H503.606ZM505.982 134.968V136.504H518.75V138.424H506.03V142.504H507.998V139.864H520.718V134.968H505.982ZM506.03 142.072V143.632H521.366V142.072H506.03ZM243.681 165.552V166.128C243.681 168.6 240.513 170.712 236.769 171.288L237.489 172.8C241.761 172.08 245.385 169.584 245.385 166.128V165.552H243.681ZM244.041 165.552V166.128C244.041 169.584 247.713 172.104 251.985 172.8L252.729 171.288C248.961 170.712 245.745 168.6 245.745 166.128V165.552H244.041ZM237.633 164.736V166.416H251.841V164.736H237.633ZM249.609 151.176V163.584H251.625V151.176H249.609ZM239.985 152.448C236.697 152.448 234.321 154.488 234.321 157.488C234.321 160.464 236.697 162.504 239.985 162.504C243.273 162.504 245.625 160.464 245.625 157.488C245.625 154.488 243.273 152.448 239.985 152.448ZM239.985 154.104C242.145 154.104 243.705 155.496 243.705 157.488C243.705 159.48 242.145 160.848 239.985 160.848C237.825 160.848 236.265 159.48 236.265 157.488C236.265 155.496 237.825 154.104 239.985 154.104ZM261.655 154.272V157.8C261.655 161.544 259.039 165.624 255.895 167.112L257.047 168.696C260.503 166.992 263.263 162.384 263.263 157.8V154.272H261.655ZM262.039 154.272V157.8C262.039 162.312 264.823 166.536 268.327 168.168L269.455 166.584C266.263 165.216 263.647 161.472 263.647 157.8V154.272H262.039ZM256.615 153.384V155.064H268.735V153.384H256.615ZM271.663 151.176V172.872H273.655V151.176H271.663ZM290.723 152.4C287.507 152.4 285.131 154.464 285.131 157.416C285.131 160.368 287.507 162.432 290.723 162.432C293.963 162.432 296.339 160.368 296.339 157.416C296.339 154.464 293.963 152.4 290.723 152.4ZM290.723 154.032C292.835 154.032 294.419 155.448 294.419 157.416C294.419 159.384 292.835 160.8 290.723 160.8C288.659 160.8 287.075 159.384 287.075 157.416C287.075 155.448 288.659 154.032 290.723 154.032ZM299.579 151.176V161.976H301.571V151.176H299.579ZM300.707 156.048V157.68H304.787V156.048H300.707ZM287.003 170.664V172.296H288.035C289.523 172.296 291.515 172.2 293.603 171.528L293.267 169.92C291.419 170.544 289.331 170.664 288.035 170.664H287.003ZM287.003 164.328V171.24H288.947V164.328H287.003ZM292.811 164.472V165.96H303.707V164.472H292.811ZM298.283 166.728C295.907 166.728 294.251 167.904 294.251 169.776C294.251 171.672 295.907 172.848 298.283 172.848C300.635 172.848 302.291 171.672 302.291 169.776C302.291 167.904 300.635 166.728 298.283 166.728ZM298.283 168.144C299.579 168.144 300.515 168.792 300.515 169.776C300.515 170.784 299.579 171.432 298.283 171.432C296.939 171.432 296.027 170.784 296.027 169.776C296.027 168.792 296.939 168.144 298.283 168.144ZM297.299 162.528V165.624H299.243V162.528H297.299ZM308.889 153.336V154.992H322.857V153.336H308.889ZM306.825 168.192V169.848H326.433V168.192H306.825ZM314.433 160.44V169.008H316.425V160.44H314.433ZM322.113 153.336V155.496C322.113 158.088 322.113 161.136 321.297 165.288L323.289 165.552C324.081 161.16 324.081 158.184 324.081 155.496V153.336H322.113ZM340.933 151.896V153.624C340.933 156.84 338.797 159.576 335.509 160.656L336.493 162.264C340.189 160.968 342.565 157.704 342.565 153.624V151.896H340.933ZM341.293 151.896V153.576C341.293 157.368 343.645 160.392 347.197 161.616L348.229 160.056C345.037 159.048 342.901 156.504 342.901 153.576V151.896H341.293ZM350.485 151.176V162.48H352.477V151.176H350.485ZM351.613 155.904V157.56H355.669V155.904H351.613ZM338.701 163.488V165.072H350.533V167.184H338.749V171.936H340.717V168.696H352.477V163.488H338.701ZM338.749 171.048V172.632H353.269V171.048H338.749ZM363.491 152.832C360.299 152.832 358.043 155.784 358.043 160.392C358.043 165.024 360.299 167.976 363.491 167.976C366.683 167.976 368.939 165.024 368.939 160.392C368.939 155.784 366.683 152.832 363.491 152.832ZM363.491 154.632C365.579 154.632 367.043 156.888 367.043 160.392C367.043 163.92 365.579 166.224 363.491 166.224C361.379 166.224 359.939 163.92 359.939 160.392C359.939 156.888 361.379 154.632 363.491 154.632ZM372.395 151.176V172.872H374.411V151.176H372.395ZM373.931 159.84V161.52H377.963V159.84H373.931ZM394.473 151.152V172.872H396.489V151.152H394.473ZM395.937 159.96V161.616H399.945V159.96H395.937ZM388.929 153.504V153.816C388.929 159.552 385.929 164.184 379.929 167.232L381.033 168.768C388.041 165.24 390.873 159.672 390.873 153.504H388.929ZM380.937 153.504V155.136H389.961V153.504H380.937ZM417.656 151.176V162.24H419.672V151.176H417.656ZM411.032 152.232V153.24C411.032 157.008 407.96 159.816 402.248 161.064L402.968 162.696C409.352 161.208 413.216 157.776 413.216 152.232H411.032ZM403.328 152.232V153.864H412.376V152.232H403.328ZM405.632 163.296V164.88H417.68V167.088H405.68V171.864H407.648V168.576H419.672V163.296H405.632ZM405.68 171.072V172.656H420.392V171.072H405.68ZM445.38 151.176V172.872H447.396V151.176H445.38ZM446.916 159.696V161.4H450.948V159.696H446.916ZM431.556 153V167.664H441.684V153H439.716V158.736H433.524V153H431.556ZM433.524 160.32H439.716V166.032H433.524V160.32ZM467.482 151.152V172.896H469.474V151.152H467.482ZM468.994 159.792V161.472H473.026V159.792H468.994ZM453.658 166.008V167.664H455.386C459.538 167.664 462.418 167.496 465.802 166.896L465.586 165.24C462.298 165.864 459.466 166.008 455.386 166.008H453.658ZM453.61 153.192V154.824H461.458V159.336H453.658V166.68H455.626V160.968H463.426V153.192H453.61ZM475.904 153.504V166.224H477.872V153.504H475.904ZM475.904 165.648V167.376H477.296C479.912 167.376 482.336 167.256 485.168 166.68L484.904 164.976C482.168 165.528 479.816 165.648 477.296 165.648H475.904ZM491.384 151.176V172.872H493.304V151.176H491.384ZM481.928 158.448V160.104H487.352V158.448H481.928ZM486.8 151.68V171.768H488.672V151.68H486.8ZM499.057 171.136C498.636 171.136 498.276 170.986 497.974 170.685C497.673 170.384 497.523 170.023 497.523 169.602C497.523 169.182 497.673 168.821 497.974 168.52C498.276 168.219 498.636 168.068 499.057 168.068C499.477 168.068 499.838 168.219 500.139 168.52C500.44 168.821 500.591 169.182 500.591 169.602C500.591 169.881 500.52 170.136 500.378 170.369C500.241 170.602 500.057 170.79 499.824 170.932C499.597 171.068 499.341 171.136 499.057 171.136ZM319.941 182.48V184.088H333.909V182.48H319.941ZM317.829 197.048V198.704H337.437V197.048H317.829ZM332.853 182.48V184.64C332.853 187.328 332.853 190.568 331.989 195.008L333.981 195.2C334.797 190.52 334.797 187.424 334.797 184.64V182.48H332.853ZM343.579 194.12V201.584H357.739V194.12H343.579ZM355.795 195.704V199.976H345.523V195.704H355.795ZM355.747 180.2V192.92H357.739V180.2H355.747ZM351.715 185.024V186.656H356.395V185.024H351.715ZM340.795 190.424V192.056H342.451C346.195 192.056 348.931 191.96 352.315 191.432L352.147 189.8C348.859 190.328 346.123 190.424 342.451 190.424H340.795ZM340.747 181.28V182.888H348.403V185.792H340.795V191.624H342.763V187.328H350.371V181.28H340.747ZM384.479 180.152V201.896H386.471V180.152H384.479ZM375.023 181.832C371.831 181.832 369.527 184.784 369.527 189.392C369.527 194.024 371.831 196.976 375.023 196.976C378.239 196.976 380.543 194.024 380.543 189.392C380.543 184.784 378.239 181.832 375.023 181.832ZM375.023 183.632C377.159 183.632 378.623 185.888 378.623 189.392C378.623 192.92 377.159 195.224 375.023 195.224C372.911 195.224 371.423 192.92 371.423 189.392C371.423 185.888 372.911 183.632 375.023 183.632ZM391.701 182.12V192.176H401.661V182.12H391.701ZM399.717 183.728V190.568H393.645V183.728H399.717ZM405.645 180.152V196.064H407.637V180.152H405.645ZM407.013 186.776V188.432H410.853V186.776H407.013ZM394.125 199.76V201.392H408.621V199.76H394.125ZM394.125 194.552V200.456H396.117V194.552H394.125ZM416.191 182.545L416.021 195.091H414.044L413.873 182.545H416.191ZM415.032 200.136C414.612 200.136 414.251 199.986 413.95 199.685C413.649 199.384 413.498 199.023 413.498 198.602C413.498 198.182 413.649 197.821 413.95 197.52C414.251 197.219 414.612 197.068 415.032 197.068C415.453 197.068 415.814 197.219 416.115 197.52C416.416 197.821 416.566 198.182 416.566 198.602C416.566 198.881 416.495 199.136 416.353 199.369C416.217 199.602 416.032 199.79 415.799 199.932C415.572 200.068 415.316 200.136 415.032 200.136Z" fill="black"/>
</g>
<defs>
<clipPath id="clip0_663_72">
<rect width="570" height="266" fill="white"/>
</clipPath>
</defs>
</svg>
