<svg width="386" height="112" viewBox="0 0 386 112" fill="none" xmlns="http://www.w3.org/2000/svg">
<path d="M70.198 1H201C226.444 1 246 13.5 265.5 41.5L255.5 88.1663C255.5 96.8704 179.943 88.1663 154.5 88.1663L91.5 111L101.68 88.1663C76.236 88.1663 24.265 85.7539 24.265 77.05L1 22.4617C1 13.7576 44.7554 1 70.198 1Z" fill="white" stroke="black" stroke-width="2" stroke-linecap="round" stroke-linejoin="round"/>
<path d="M35.253 31.9332V33.5652H54.933V31.9332H35.253ZM44.037 32.9412V41.1972H46.005V32.9412H44.037ZM45.045 20.3652C40.533 20.3652 37.461 22.2132 37.461 25.1172C37.461 28.0212 40.533 29.8692 45.045 29.8692C49.581 29.8692 52.629 28.0212 52.629 25.1172C52.629 22.2132 49.581 20.3652 45.045 20.3652ZM45.045 21.9732C48.357 21.9732 50.589 23.1972 50.589 25.1172C50.589 27.0372 48.357 28.2612 45.045 28.2612C41.733 28.2612 39.477 27.0372 39.477 25.1172C39.477 23.1972 41.733 21.9732 45.045 21.9732ZM66.0432 21.6372V22.5492C66.0432 25.4052 62.3232 27.9012 58.5072 28.4532L59.2752 30.0372C63.6432 29.2932 67.7712 26.4372 67.7712 22.5492V21.6372H66.0432ZM66.5472 21.6372V22.5492C66.5472 26.4372 70.6512 29.2932 75.0432 30.0372L75.7872 28.4532C71.9952 27.9012 68.2512 25.4052 68.2512 22.5492V21.6372H66.5472ZM66.1152 32.9172V41.1972H68.0832V32.9172H66.1152ZM57.3552 31.8612V33.4932H76.9632V31.8612H57.3552ZM59.1792 20.8452V22.4532H75.0672V20.8452H59.1792ZM88.2173 27.9252V29.5812H92.3213V27.9252H88.2173ZM95.9453 19.5012V41.1972H97.8653V19.5012H95.9453ZM91.6493 19.9572V40.1172H93.5453V19.9572H91.6493ZM84.3053 21.3012C81.4973 21.3012 79.6973 24.2052 79.6973 28.8612C79.6973 33.5172 81.4973 36.4212 84.3053 36.4212C87.1133 36.4212 88.9373 33.5172 88.9373 28.8612C88.9373 24.2052 87.1133 21.3012 84.3053 21.3012ZM84.3053 23.1492C86.0333 23.1492 87.1133 25.3572 87.1133 28.8612C87.1133 32.3652 86.0333 34.5732 84.3053 34.5732C82.6013 34.5732 81.5213 32.3652 81.5213 28.8612C81.5213 25.3572 82.6013 23.1492 84.3053 23.1492ZM112.335 26.8452V28.4772H118.383V26.8452H112.335ZM107.103 21.3732V25.2372C107.103 29.2692 104.655 33.4452 101.463 35.0292L102.735 36.6132C106.167 34.7652 108.735 30.1092 108.735 25.2372V21.3732H107.103ZM107.487 21.3732V25.2372C107.487 29.9892 110.007 34.4532 113.511 36.2292L114.687 34.6212C111.543 33.1332 109.095 29.1972 109.095 25.2372V21.3732H107.487ZM117.399 19.4772V41.2212H119.367V19.4772H117.399ZM49.941 48.4772V70.1972H51.957V48.4772H49.941ZM51.405 57.2852V58.9412H55.413V57.2852H51.405ZM44.397 50.8292V51.1412C44.397 56.8772 41.397 61.5092 35.397 64.5572L36.501 66.0932C43.509 62.5652 46.341 56.9972 46.341 50.8292H44.397ZM36.405 50.8292V52.4612H45.429V50.8292H36.405ZM62.6832 50.8292V52.5812C62.6832 55.6772 60.5232 58.4852 57.2592 59.6372L58.2672 61.2212C61.9152 59.9012 64.3152 56.5652 64.3152 52.5812V50.8292H62.6832ZM63.0432 50.8292V52.5572C63.0432 56.2532 65.3472 59.3492 68.9712 60.5492L69.9312 58.9892C66.7392 57.9332 64.6752 55.3892 64.6752 52.5572V50.8292H63.0432ZM57.8592 50.1092V51.7412H69.4512V50.1092H57.8592ZM72.1872 48.5012V61.5812H74.1792V48.5012H72.1872ZM73.6272 53.9972V55.6772H77.3952V53.9972H73.6272ZM67.2672 62.1572C62.8512 62.1572 60.1392 63.6212 60.1392 66.1412C60.1392 68.6852 62.8512 70.1492 67.2672 70.1492C71.6832 70.1492 74.3952 68.6852 74.3952 66.1412C74.3952 63.6212 71.6832 62.1572 67.2672 62.1572ZM67.2672 63.7652C70.4832 63.7652 72.4512 64.6292 72.4512 66.1412C72.4512 67.6772 70.4832 68.5892 67.2672 68.5892C64.0512 68.5892 62.0832 67.6772 62.0832 66.1412C62.0832 64.6292 64.0512 63.7652 67.2672 63.7652ZM91.9433 50.1572C88.7513 50.1572 86.4953 53.1092 86.4953 57.7172C86.4953 62.3492 88.7513 65.3012 91.9433 65.3012C95.1353 65.3012 97.3913 62.3492 97.3913 57.7172C97.3913 53.1092 95.1353 50.1572 91.9433 50.1572ZM91.9433 51.9572C94.0313 51.9572 95.4953 54.2132 95.4953 57.7172C95.4953 61.2452 94.0313 63.5492 91.9433 63.5492C89.8313 63.5492 88.3913 61.2452 88.3913 57.7172C88.3913 54.2132 89.8313 51.9572 91.9433 51.9572ZM100.847 48.5012V70.1972H102.863V48.5012H100.847ZM102.383 57.1652V58.8452H106.415V57.1652H102.383ZM108.237 59.6852V61.3172H127.917V59.6852H108.237ZM110.733 49.0292V50.5892H123.429V52.7012H110.781V57.0452H112.749V54.1652H125.373V49.0292H110.733ZM110.781 56.2772V57.8372H125.853V56.2772H110.781ZM110.877 63.2852V69.9092H125.397V63.2852H110.877ZM123.453 64.8692V68.3012H112.821V64.8692H123.453ZM145.004 48.4772V70.2212H147.02V48.4772H145.004ZM146.54 57.0452V58.7252H150.572V57.0452H146.54ZM131.252 63.1412V64.8212H132.956C137.036 64.8212 139.892 64.7012 143.228 64.0772L143.012 62.3972C139.772 62.9972 136.964 63.1412 132.956 63.1412H131.252ZM131.252 50.5892V63.8852H133.22V52.2212H141.332V50.5892H131.252ZM152.394 59.4932V61.1252H172.074V59.4932H152.394ZM161.37 60.5252V65.5172H163.386V60.5252H161.37ZM154.89 68.0612V69.7172H169.89V68.0612H154.89ZM154.89 63.3812V68.5172H156.882V63.3812H154.89ZM162.21 49.0292C157.602 49.0292 154.602 50.7092 154.602 53.3972C154.602 56.0852 157.602 57.7652 162.21 57.7652C166.794 57.7652 169.818 56.0852 169.818 53.3972C169.818 50.7092 166.794 49.0292 162.21 49.0292ZM162.21 50.6612C165.522 50.6612 167.706 51.7172 167.706 53.3972C167.706 55.1012 165.522 56.1332 162.21 56.1332C158.898 56.1332 156.714 55.1012 156.714 53.3972C156.714 51.7172 158.898 50.6612 162.21 50.6612ZM191.47 51.5732V53.1332H197.59V51.5732H191.47ZM191.47 55.5332V57.0932H197.59V55.5332H191.47ZM197.086 48.5012V59.8052H199.078V48.5012H197.086ZM185.11 60.8852V62.4692H197.11V64.5332H185.158V69.3572H187.102V66.0212H199.078V60.8852H185.11ZM185.158 68.3252V69.9092H199.87V68.3252H185.158ZM182.302 49.4852V58.9652H192.094V49.4852H190.15V52.6052H184.27V49.4852H182.302ZM184.27 54.1652H190.15V57.3572H184.27V54.1652ZM219.068 48.4772V70.2212H221.06V48.4772H219.068ZM209.612 50.1572C206.42 50.1572 204.116 53.1092 204.116 57.7172C204.116 62.3492 206.42 65.3012 209.612 65.3012C212.828 65.3012 215.132 62.3492 215.132 57.7172C215.132 53.1092 212.828 50.1572 209.612 50.1572ZM209.612 51.9572C211.748 51.9572 213.212 54.2132 213.212 57.7172C213.212 61.2452 211.748 63.5492 209.612 63.5492C207.5 63.5492 206.012 61.2452 206.012 57.7172C206.012 54.2132 207.5 51.9572 209.612 51.9572ZM231.162 50.1572C227.97 50.1572 225.714 53.1092 225.714 57.7172C225.714 62.3492 227.97 65.3012 231.162 65.3012C234.354 65.3012 236.61 62.3492 236.61 57.7172C236.61 53.1092 234.354 50.1572 231.162 50.1572ZM231.162 51.9572C233.25 51.9572 234.714 54.2132 234.714 57.7172C234.714 61.2452 233.25 63.5492 231.162 63.5492C229.05 63.5492 227.61 61.2452 227.61 57.7172C227.61 54.2132 229.05 51.9572 231.162 51.9572ZM241.53 53.9492V55.6292H245.514V53.9492H241.53ZM241.53 60.4052V62.0852H245.514V60.4052H241.53ZM240.066 48.5012V70.1972H242.082V48.5012H240.066Z" fill="black"/>
</svg>
