<svg width="500" height="200" viewBox="0 0 500 200" fill="none" xmlns="http://www.w3.org/2000/svg">
<g clip-path="url(#clip0_663_35)">
<path d="M96.431 48L434.581 56.4153C470.881 56.4153 500 66.5878 500 79.2694L479.177 151.052C479.177 163.734 455.957 172.941 419.659 172.941L345.764 173.391L363.15 200L253.996 173.906L141.344 175C105.045 175 57.9649 163.723 57.9649 151.041L25 75.0851C25 62.4033 60.1333 48 96.431 48Z" fill="white" stroke="black" stroke-width="2" stroke-linecap="round" stroke-linejoin="round"/>
<path d="M85.5637 90.272V93.8C85.5637 97.472 82.9477 101.6 79.8517 103.112L81.0037 104.696C84.3877 102.968 87.1477 98.312 87.1477 93.8V90.272H85.5637ZM85.9237 90.272V93.8C85.9237 98.096 88.5397 102.464 91.9717 104.168L93.0997 102.584C89.9557 101.096 87.5077 97.232 87.5077 93.8V90.272H85.9237ZM80.6197 89.384V91.064H92.3077V89.384H80.6197ZM94.8757 87.176V108.872H96.8917V87.176H94.8757ZM96.4117 95.936V97.616H100.444V95.936H96.4117ZM103.322 89.504V102.224H105.29V89.504H103.322ZM103.322 101.648V103.376H104.714C107.33 103.376 109.754 103.256 112.586 102.68L112.322 100.976C109.586 101.528 107.234 101.648 104.714 101.648H103.322ZM118.802 87.176V108.872H120.722V87.176H118.802ZM109.346 94.448V96.104H114.77V94.448H109.346ZM114.218 87.68V107.768H116.09V87.68H114.218ZM133.152 95.6V97.256H137.256V95.6H133.152ZM140.88 87.176V108.872H142.8V87.176H140.88ZM136.584 87.632V107.792H138.48V87.632H136.584ZM129.24 88.976C126.432 88.976 124.632 91.88 124.632 96.536C124.632 101.192 126.432 104.096 129.24 104.096C132.048 104.096 133.872 101.192 133.872 96.536C133.872 91.88 132.048 88.976 129.24 88.976ZM129.24 90.824C130.968 90.824 132.048 93.032 132.048 96.536C132.048 100.04 130.968 102.248 129.24 102.248C127.536 102.248 126.456 100.04 126.456 96.536C126.456 93.032 127.536 90.824 129.24 90.824ZM162.958 87.176V108.872H164.878V87.176H162.958ZM153.55 96.032V97.64H159.022V96.032H153.55ZM158.446 87.728V107.768H160.318V87.728H158.446ZM153.814 89.912V90.272C153.814 95.384 151.534 99.704 146.422 102.776L147.598 104.192C153.454 100.712 155.734 95.6 155.734 89.912H153.814ZM147.382 89.912V91.544H154.558V89.912H147.382ZM189.938 87.152V108.872H191.954V87.152H189.938ZM191.402 95.96V97.616H195.41V95.96H191.402ZM184.394 89.504V89.816C184.394 95.552 181.394 100.184 175.394 103.232L176.498 104.768C183.506 101.24 186.338 95.672 186.338 89.504H184.394ZM176.402 89.504V91.136H185.426V89.504H176.402ZM202.68 89.504V91.256C202.68 94.352 200.52 97.16 197.256 98.312L198.264 99.896C201.912 98.576 204.312 95.24 204.312 91.256V89.504H202.68ZM203.04 89.504V91.232C203.04 94.928 205.344 98.024 208.968 99.224L209.928 97.664C206.736 96.608 204.672 94.064 204.672 91.232V89.504H203.04ZM197.856 88.784V90.416H209.448V88.784H197.856ZM212.184 87.176V100.256H214.176V87.176H212.184ZM213.624 92.672V94.352H217.392V92.672H213.624ZM207.264 100.832C202.848 100.832 200.136 102.296 200.136 104.816C200.136 107.36 202.848 108.824 207.264 108.824C211.68 108.824 214.392 107.36 214.392 104.816C214.392 102.296 211.68 100.832 207.264 100.832ZM207.264 102.44C210.48 102.44 212.448 103.304 212.448 104.816C212.448 106.352 210.48 107.264 207.264 107.264C204.048 107.264 202.08 106.352 202.08 104.816C202.08 103.304 204.048 102.44 207.264 102.44ZM226.18 104.408V106.064H245.836V104.408H226.18ZM234.916 99.152V104.96H236.884V99.152H234.916ZM234.868 88.616V90.296C234.868 93.872 230.764 97.064 226.948 97.76L227.788 99.416C232.156 98.504 236.596 94.928 236.596 90.296V88.616H234.868ZM235.228 88.616V90.296C235.228 94.928 239.668 98.504 244.036 99.416L244.9 97.76C241.084 97.064 236.956 93.896 236.956 90.296V88.616H235.228ZM257.043 98.024V101.816H259.035V98.024H257.043ZM248.235 97.328V98.936H267.843V97.328H248.235ZM258.027 101.216C253.371 101.216 250.587 102.584 250.587 105.032C250.587 107.456 253.371 108.824 258.027 108.824C262.683 108.824 265.467 107.456 265.467 105.032C265.467 102.584 262.683 101.216 258.027 101.216ZM258.027 102.752C261.435 102.752 263.451 103.568 263.451 105.032C263.451 106.472 261.435 107.288 258.027 107.288C254.643 107.288 252.603 106.472 252.603 105.032C252.603 103.568 254.643 102.752 258.027 102.752ZM256.755 88.952V89.6C256.755 92.072 253.227 94.016 249.339 94.424L250.059 96.008C254.547 95.456 258.531 93.104 258.531 89.6V88.952H256.755ZM257.595 88.952V89.6C257.595 93.104 261.555 95.456 266.043 96.008L266.763 94.424C262.875 94.016 259.347 92.072 259.347 89.6V88.952H257.595ZM250.035 88.16V89.768H266.091V88.16H250.035ZM285.169 87.2V103.472H287.161V87.2H285.169ZM286.537 94.304V95.984H290.377V94.304H286.537ZM270.385 89.816V91.424H283.201V89.816H270.385ZM276.793 92.624C273.697 92.624 271.585 94.232 271.585 96.68C271.585 99.104 273.697 100.712 276.793 100.712C279.865 100.712 281.977 99.104 281.977 96.68C281.977 94.232 279.865 92.624 276.793 92.624ZM276.793 94.184C278.737 94.184 280.081 95.168 280.081 96.68C280.081 98.168 278.737 99.152 276.793 99.152C274.825 99.152 273.481 98.168 273.481 96.68C273.481 95.168 274.825 94.184 276.793 94.184ZM275.785 87.176V90.656H277.777V87.176H275.785ZM273.649 106.76V108.392H288.145V106.76H273.649ZM273.649 102.176V107.456H275.641V102.176H273.649ZM304.469 89.048V92.936C304.469 96.896 301.997 101.072 298.853 102.656L300.077 104.24C303.509 102.416 306.101 97.736 306.101 92.936V89.048H304.469ZM304.829 89.048V92.936C304.829 97.592 307.349 102.032 310.709 103.832L311.933 102.248C308.861 100.712 306.437 96.752 306.437 92.936V89.048H304.829ZM313.829 87.176V108.872H315.845V87.176H313.829ZM315.365 95.96V97.64H319.397V95.96H315.365ZM336.075 87.2V100.112H338.067V87.2H336.075ZM337.467 92.72V94.4H341.283V92.72H337.467ZM324.387 101.192V108.584H338.067V101.192H324.387ZM336.123 102.776V106.976H326.355V102.776H336.123ZM322.179 97.352V99.008H323.883C327.891 99.008 330.747 98.864 334.179 98.288L334.011 96.656C330.627 97.256 327.819 97.352 323.883 97.352H322.179ZM322.131 88.352V89.984H329.931V92.768H322.179V98.288H324.123V94.304H331.899V88.352H322.131ZM343.297 98.576V100.208H362.905V98.576H343.297ZM345.841 106.76V108.392H360.745V106.76H345.841ZM345.841 102.104V107.264H347.833V102.104H345.841ZM353.113 87.896C348.457 87.896 345.481 89.528 345.481 92.24C345.481 94.928 348.457 96.56 353.113 96.56C357.745 96.56 360.745 94.928 360.745 92.24C360.745 89.528 357.745 87.896 353.113 87.896ZM353.113 89.528C356.521 89.528 358.705 90.536 358.705 92.24C358.705 93.944 356.521 94.952 353.113 94.952C349.705 94.952 347.521 93.944 347.521 92.24C347.521 90.536 349.705 89.528 353.113 89.528ZM374.669 94.448V96.08H389.525V94.448H374.669ZM372.149 99.344V100.976H391.805V99.344H372.149ZM380.909 100.232V108.872H382.877V100.232H380.909ZM374.669 88.256V95.264H376.661V88.256H374.669ZM396.675 88.592V90.2H410.235V88.592H396.675ZM394.227 97.904V99.536H413.835V97.904H394.227ZM402.987 98.984V108.896H404.979V98.984H402.987ZM409.299 88.592V90.464C409.299 92.648 409.299 95.168 408.459 98.672L410.427 98.936C411.243 95.264 411.243 92.72 411.243 90.464V88.592H409.299ZM432.073 87.2V103.04H434.089V87.2H432.073ZM420.145 106.76V108.392H434.737V106.76H420.145ZM420.145 101.408V107.312H422.113V101.408H420.145ZM422.449 88.688C419.209 88.688 416.785 90.896 416.785 94.04C416.785 97.16 419.209 99.392 422.449 99.392C425.689 99.392 428.089 97.16 428.089 94.04C428.089 90.896 425.689 88.688 422.449 88.688ZM422.449 90.416C424.561 90.416 426.169 91.904 426.169 94.04C426.169 96.152 424.561 97.64 422.449 97.64C420.337 97.64 418.729 96.152 418.729 94.04C418.729 91.904 420.337 90.416 422.449 90.416ZM453.048 87.152V108.872H455.064V87.152H453.048ZM454.512 95.96V97.616H458.52V95.96H454.512ZM447.504 89.504V89.816C447.504 95.552 444.504 100.184 438.504 103.232L439.608 104.768C446.616 101.24 449.448 95.672 449.448 89.504H447.504ZM439.512 89.504V91.136H448.536V89.504H439.512ZM464.103 104.614L463.966 105.534C463.87 106.182 463.722 106.875 463.523 107.614C463.33 108.352 463.128 109.048 462.918 109.702C462.708 110.355 462.534 110.875 462.398 111.261H460.864C460.938 110.898 461.034 110.418 461.154 109.821C461.273 109.224 461.392 108.557 461.512 107.818C461.637 107.085 461.739 106.335 461.819 105.568L461.921 104.614H464.103ZM100.579 118.024V119.584H118.027V118.024H100.579ZM109.363 120.472C104.899 120.472 102.355 121.552 102.355 123.616C102.355 125.68 104.899 126.76 109.363 126.76C113.827 126.76 116.371 125.68 116.371 123.616C116.371 121.552 113.827 120.472 109.363 120.472ZM109.363 121.864C112.555 121.864 114.331 122.488 114.331 123.616C114.331 124.72 112.555 125.32 109.363 125.32C106.171 125.32 104.395 124.72 104.395 123.616C104.395 122.488 106.171 121.864 109.363 121.864ZM108.379 115.84V118.96H110.347V115.84H108.379ZM99.5471 128.488V130.096H119.155V128.488H99.5471ZM108.379 126.208V129.232H110.347V126.208H108.379ZM101.683 131.824V133.384H114.595V137.872H116.563V131.824H101.683ZM131.417 121V122.656H137.969V121H131.417ZM131.417 127.864V129.52H137.969V127.864H131.417ZM127.433 117.832C124.265 117.832 122.033 120.784 122.033 125.392C122.033 130.024 124.265 132.976 127.433 132.976C130.577 132.976 132.833 130.024 132.833 125.392C132.833 120.784 130.577 117.832 127.433 117.832ZM127.433 119.632C129.521 119.632 130.961 121.888 130.961 125.392C130.961 128.92 129.521 131.224 127.433 131.224C125.345 131.224 123.905 128.92 123.905 125.392C123.905 121.888 125.345 119.632 127.433 119.632ZM137.537 116.152V137.896H139.505V116.152H137.537ZM165.165 116.176V137.872H167.157V116.176H165.165ZM166.677 125.08V126.76H170.709V125.08H166.677ZM150.357 119.632V121.264H163.149V119.632H150.357ZM156.837 123.064C153.789 123.064 151.557 125.128 151.557 128.056C151.557 130.984 153.789 133.048 156.837 133.048C159.909 133.048 162.117 130.984 162.117 128.056C162.117 125.128 159.909 123.064 156.837 123.064ZM156.837 124.72C158.805 124.72 160.221 126.088 160.221 128.056C160.221 130 158.805 131.392 156.837 131.392C154.869 131.392 153.453 130 153.453 128.056C153.453 126.088 154.869 124.72 156.837 124.72ZM155.805 116.44V120.376H157.797V116.44H155.805ZM174.619 118.336V119.992H188.587V118.336H174.619ZM172.555 133.192V134.848H192.163V133.192H172.555ZM180.163 125.44V134.008H182.155V125.44H180.163ZM187.843 118.336V120.496C187.843 123.088 187.843 126.136 187.027 130.288L189.019 130.552C189.811 126.16 189.811 123.184 189.811 120.496V118.336H187.843ZM217.152 116.2V128.224H219.168V116.2H217.152ZM207.024 116.968V119.08C207.024 122.2 204.768 125.08 201.504 126.232L202.512 127.792C206.184 126.472 208.68 123.088 208.68 119.08V116.968H207.024ZM207.384 116.968V119.08C207.384 122.968 209.88 126.16 213.528 127.408L214.512 125.824C211.296 124.768 209.016 122.104 209.016 119.08V116.968H207.384ZM204.816 129.52V131.152H219.288V129.52H204.816ZM204.6 135.976V137.584H219.528V135.976H204.6ZM207.792 130.216V136.912H209.736V130.216H207.792ZM214.368 130.216V136.912H216.336V130.216H214.368ZM223.438 127.576V129.208H243.046V127.576H223.438ZM225.982 135.76V137.392H240.886V135.76H225.982ZM225.982 131.104V136.264H227.974V131.104H225.982ZM233.254 116.896C228.598 116.896 225.622 118.528 225.622 121.24C225.622 123.928 228.598 125.56 233.254 125.56C237.886 125.56 240.886 123.928 240.886 121.24C240.886 118.528 237.886 116.896 233.254 116.896ZM233.254 118.528C236.662 118.528 238.846 119.536 238.846 121.24C238.846 122.944 236.662 123.952 233.254 123.952C229.846 123.952 227.662 122.944 227.662 121.24C227.662 119.536 229.846 118.528 233.254 118.528ZM267.122 116.176V127.216H269.114V116.176H267.122ZM268.25 120.832V122.488H272.306V120.832H268.25ZM253.178 117.4V126.088H263.138V117.4H253.178ZM261.194 118.984V124.504H255.122V118.984H261.194ZM255.338 128.248V129.832H267.17V132.064H255.386V136.816H257.354V133.576H269.114V128.248H255.338ZM255.386 135.976V137.584H269.906V135.976H255.386ZM290.112 116.152V137.896H292.104V116.152H290.112ZM280.656 117.832C277.464 117.832 275.16 120.784 275.16 125.392C275.16 130.024 277.464 132.976 280.656 132.976C283.872 132.976 286.176 130.024 286.176 125.392C286.176 120.784 283.872 117.832 280.656 117.832ZM280.656 119.632C282.792 119.632 284.256 121.888 284.256 125.392C284.256 128.92 282.792 131.224 280.656 131.224C278.544 131.224 277.056 128.92 277.056 125.392C277.056 121.888 278.544 119.632 280.656 119.632ZM308.596 129.52V130.696C308.596 132.784 306.964 135.112 304.228 136.096L305.236 137.584C308.356 136.384 310.132 133.528 310.132 130.696V129.52H308.596ZM309.028 129.52V130.696C309.028 133.576 310.444 136.552 313.564 137.776L314.404 136.264C311.812 135.208 310.516 132.88 310.516 130.696V129.52H309.028ZM316.612 129.52V130.696C316.612 132.568 315.292 135.088 312.724 136.264L313.564 137.776C316.66 136.456 318.1 133.24 318.1 130.696V129.52H316.612ZM317.02 129.52V130.696C317.02 133.696 318.748 136.432 321.916 137.584L322.924 136.096C320.164 135.16 318.556 132.928 318.556 130.696V129.52H317.02ZM318.964 116.2V128.584H320.98V116.2H318.964ZM309.34 117.448C306.052 117.448 303.676 119.512 303.676 122.512C303.676 125.512 306.052 127.552 309.34 127.552C312.628 127.552 314.98 125.512 314.98 122.512C314.98 119.512 312.628 117.448 309.34 117.448ZM309.34 119.104C311.5 119.104 313.06 120.496 313.06 122.512C313.06 124.528 311.5 125.896 309.34 125.896C307.18 125.896 305.62 124.528 305.62 122.512C305.62 120.496 307.18 119.104 309.34 119.104ZM331.01 119.272V122.8C331.01 126.544 328.394 130.624 325.25 132.112L326.402 133.696C329.858 131.992 332.618 127.384 332.618 122.8V119.272H331.01ZM331.394 119.272V122.8C331.394 127.312 334.178 131.536 337.682 133.168L338.81 131.584C335.618 130.216 333.002 126.472 333.002 122.8V119.272H331.394ZM325.97 118.384V120.064H338.09V118.384H325.97ZM341.018 116.176V137.872H343.01V116.176H341.018ZM349.992 122.68V124.312H364.728V122.68H349.992ZM347.328 127.216V128.848H367.008V127.216H347.328ZM349.992 116.968V123.496H351.96V116.968H349.992ZM349.848 135.712V137.344H364.848V135.712H349.848ZM349.848 131.008V136.144H351.816V131.008H349.848ZM382.156 117.4C378.94 117.4 376.564 119.464 376.564 122.416C376.564 125.368 378.94 127.432 382.156 127.432C385.396 127.432 387.772 125.368 387.772 122.416C387.772 119.464 385.396 117.4 382.156 117.4ZM382.156 119.032C384.268 119.032 385.852 120.448 385.852 122.416C385.852 124.384 384.268 125.8 382.156 125.8C380.092 125.8 378.508 124.384 378.508 122.416C378.508 120.448 380.092 119.032 382.156 119.032ZM391.012 116.176V126.976H393.004V116.176H391.012ZM392.14 121.048V122.68H396.22V121.048H392.14ZM378.436 135.664V137.296H379.468C380.956 137.296 382.948 137.2 385.036 136.528L384.7 134.92C382.852 135.544 380.764 135.664 379.468 135.664H378.436ZM378.436 129.328V136.24H380.38V129.328H378.436ZM384.244 129.472V130.96H395.14V129.472H384.244ZM389.716 131.728C387.34 131.728 385.684 132.904 385.684 134.776C385.684 136.672 387.34 137.848 389.716 137.848C392.068 137.848 393.724 136.672 393.724 134.776C393.724 132.904 392.068 131.728 389.716 131.728ZM389.716 133.144C391.012 133.144 391.948 133.792 391.948 134.776C391.948 135.784 391.012 136.432 389.716 136.432C388.372 136.432 387.46 135.784 387.46 134.776C387.46 133.792 388.372 133.144 389.716 133.144ZM388.732 127.528V130.624H390.676V127.528H388.732ZM398.235 127.576V129.208H417.843V127.576H398.235ZM400.779 135.76V137.392H415.683V135.76H400.779ZM400.779 131.104V136.264H402.771V131.104H400.779ZM408.051 116.896C403.395 116.896 400.419 118.528 400.419 121.24C400.419 123.928 403.395 125.56 408.051 125.56C412.683 125.56 415.683 123.928 415.683 121.24C415.683 118.528 412.683 116.896 408.051 116.896ZM408.051 118.528C411.459 118.528 413.643 119.536 413.643 121.24C413.643 122.944 411.459 123.952 408.051 123.952C404.643 123.952 402.459 122.944 402.459 121.24C402.459 119.536 404.643 118.528 408.051 118.528ZM435.001 116.152V137.872H437.017V116.152H435.001ZM436.465 124.96V126.616H440.473V124.96H436.465ZM429.457 118.504V118.816C429.457 124.552 426.457 129.184 420.457 132.232L421.561 133.768C428.569 130.24 431.401 124.672 431.401 118.504H429.457ZM421.465 118.504V120.136H430.489V118.504H421.465ZM445.681 131.091V130.989C445.692 129.903 445.806 129.04 446.022 128.398C446.238 127.756 446.544 127.236 446.942 126.838C447.34 126.44 447.817 126.074 448.374 125.739C448.709 125.534 449.01 125.293 449.277 125.014C449.544 124.73 449.755 124.403 449.908 124.034C450.067 123.665 450.147 123.256 450.147 122.807C450.147 122.25 450.016 121.767 449.755 121.358C449.493 120.949 449.144 120.634 448.706 120.412C448.269 120.19 447.783 120.08 447.249 120.08C446.783 120.08 446.334 120.176 445.902 120.369C445.471 120.562 445.11 120.866 444.82 121.281C444.53 121.696 444.363 122.239 444.317 122.909H442.169C442.215 121.943 442.465 121.116 442.919 120.429C443.38 119.741 443.985 119.216 444.735 118.852C445.49 118.489 446.328 118.307 447.249 118.307C448.249 118.307 449.118 118.506 449.857 118.903C450.601 119.301 451.175 119.847 451.578 120.54C451.988 121.233 452.192 122.023 452.192 122.909C452.192 123.534 452.096 124.099 451.902 124.605C451.715 125.111 451.442 125.562 451.084 125.96C450.732 126.358 450.306 126.71 449.806 127.017C449.306 127.33 448.905 127.659 448.604 128.006C448.303 128.347 448.084 128.753 447.948 129.224C447.811 129.696 447.738 130.284 447.726 130.989V131.091H445.681ZM446.772 136.136C446.351 136.136 445.99 135.986 445.689 135.685C445.388 135.384 445.238 135.023 445.238 134.602C445.238 134.182 445.388 133.821 445.689 133.52C445.99 133.219 446.351 133.068 446.772 133.068C447.192 133.068 447.553 133.219 447.854 133.52C448.155 133.821 448.306 134.182 448.306 134.602C448.306 134.881 448.235 135.136 448.093 135.369C447.956 135.602 447.772 135.79 447.539 135.932C447.311 136.068 447.056 136.136 446.772 136.136Z" fill="black"/>
</g>
<defs>
<clipPath id="clip0_663_35">
<rect width="500" height="200" fill="white"/>
</clipPath>
</defs>
</svg>
