<svg width="688" height="200" viewBox="0 0 688 200" fill="none" xmlns="http://www.w3.org/2000/svg">
<g clip-path="url(#clip0_663_77)">
<path d="M189.274 55L607.156 63.0278C652.015 63.0278 688 72.7318 688 84.8294L662.268 153.306C662.268 165.404 633.572 174.187 588.715 174.187L508 175.108L532.5 199.5L475 185L430 175.108L244.777 176.152C199.919 176.152 141.738 165.394 141.738 153.296L101 80.8377C101 68.74 144.417 55 189.274 55Z" fill="white" stroke="black" stroke-width="2" stroke-linecap="round" stroke-linejoin="round"/>
</g>
<path d="M180.992 95.176V116.872H182.912V95.176H180.992ZM177.344 104.008V105.64H181.52V104.008H177.344ZM176.072 95.656V115.768H177.944V95.656H176.072ZM165.56 97.792V110.32H167.552V97.792H165.56ZM165.56 109.528V111.256H166.952C169.28 111.256 171.776 111.136 174.728 110.56L174.512 108.832C171.68 109.384 169.184 109.528 166.952 109.528H165.56ZM201.27 95.152V116.872H203.286V95.152H201.27ZM202.734 103.96V105.616H206.742V103.96H202.734ZM195.726 97.504V97.816C195.726 103.552 192.726 108.184 186.726 111.232L187.83 112.768C194.838 109.24 197.67 103.672 197.67 97.504H195.726ZM187.734 97.504V99.136H196.758V97.504H187.734ZM217.546 97.48V99.088H231.514V97.48H217.546ZM215.434 112.048V113.704H235.042V112.048H215.434ZM230.458 97.48V99.64C230.458 102.328 230.458 105.568 229.594 110.008L231.586 110.2C232.402 105.52 232.402 102.424 232.402 99.64V97.48H230.458ZM249.567 97.048V100.936C249.567 104.896 247.095 109.072 243.951 110.656L245.175 112.24C248.607 110.416 251.199 105.736 251.199 100.936V97.048H249.567ZM249.927 97.048V100.936C249.927 105.592 252.447 110.032 255.807 111.832L257.031 110.248C253.959 108.712 251.535 104.752 251.535 100.936V97.048H249.927ZM258.927 95.176V116.872H260.943V95.176H258.927ZM260.463 103.96V105.64H264.495V103.96H260.463ZM281.173 95.2V108.112H283.165V95.2H281.173ZM282.565 100.72V102.4H286.381V100.72H282.565ZM269.485 109.192V116.584H283.165V109.192H269.485ZM281.221 110.776V114.976H271.453V110.776H281.221ZM267.277 105.352V107.008H268.981C272.989 107.008 275.845 106.864 279.277 106.288L279.109 104.656C275.725 105.256 272.917 105.352 268.981 105.352H267.277ZM267.229 96.352V97.984H275.029V100.768H267.277V106.288H269.221V102.304H276.997V96.352H267.229ZM295.451 96.736C292.067 96.736 289.619 98.824 289.619 101.848C289.619 104.896 292.067 106.984 295.451 106.984C298.835 106.984 301.259 104.896 301.259 101.848C301.259 98.824 298.835 96.736 295.451 96.736ZM295.451 98.464C297.683 98.464 299.315 99.832 299.315 101.848C299.315 103.864 297.683 105.256 295.451 105.256C293.195 105.256 291.563 103.864 291.563 101.848C291.563 99.832 293.195 98.464 295.451 98.464ZM304.091 95.152V116.896H306.083V95.152H304.091ZM288.803 112.144C292.667 112.144 297.971 112.12 302.843 111.184L302.675 109.72C297.947 110.464 292.475 110.488 288.515 110.488L288.803 112.144ZM327.471 98.248V99.808H333.591V98.248H327.471ZM327.471 102.208V103.768H333.591V102.208H327.471ZM333.087 95.176V106.48H335.079V95.176H333.087ZM321.111 107.56V109.144H333.111V111.208H321.159V116.032H323.103V112.696H335.079V107.56H321.111ZM321.159 115V116.584H335.871V115H321.159ZM318.303 96.16V105.64H328.095V96.16H326.151V99.28H320.271V96.16H318.303ZM320.271 100.84H326.151V104.032H320.271V100.84ZM339.325 112.552V114.208H358.981V112.552H339.325ZM348.109 107.896V113.248H350.101V107.896H348.109ZM341.701 96.784V98.392H354.589V101.752H341.773V107.704H343.741V103.36H356.557V96.784H341.701ZM341.773 106.864V108.496H357.061V106.864H341.773ZM383.993 95.176V111.328H385.985V95.176H383.993ZM368.777 96.928V98.56H380.201V96.928H368.777ZM368.417 108.064C371.945 108.064 376.817 107.992 380.993 107.32L380.873 105.832C376.817 106.312 371.753 106.36 368.201 106.36L368.417 108.064ZM370.937 98.32V106.648H372.857V98.32H370.937ZM376.121 98.32V106.648H378.041V98.32H376.121ZM380.393 99.28V100.912H385.049V99.28H380.393ZM380.393 103.432V105.064H385.049V103.432H380.393ZM372.113 114.76V116.392H386.561V114.76H372.113ZM372.113 110.008V115.792H374.105V110.008H372.113ZM395.967 98.272V101.8C395.967 105.544 393.351 109.624 390.207 111.112L391.359 112.696C394.815 110.992 397.575 106.384 397.575 101.8V98.272H395.967ZM396.351 98.272V101.8C396.351 106.312 399.135 110.536 402.639 112.168L403.767 110.584C400.575 109.216 397.959 105.472 397.959 101.8V98.272H396.351ZM390.927 97.384V99.064H403.047V97.384H390.927ZM405.975 95.176V116.872H407.967V95.176H405.975ZM412.285 105.256V106.768H431.965V105.256H412.285ZM414.613 108.52V109.936H427.549V111.784H414.685V115.696H416.653V113.152H429.493V108.52H414.613ZM414.685 115.168V116.608H430.189V115.168H414.685ZM414.781 95.8V97.216H427.477V98.968H414.829V102.664H416.797V100.312H429.421V95.8H414.781ZM414.829 102.184V103.624H429.829V102.184H414.829ZM452.634 101.152V102.784H458.106V101.152H452.634ZM456.978 95.2V111.088H458.97V95.2H456.978ZM445.122 114.76V116.392H459.57V114.76H445.122ZM445.122 109.696V115.6H447.114V109.696H445.122ZM446.658 97.888V99.64C446.658 102.712 444.426 105.592 441.186 106.744L442.218 108.328C445.842 106.984 448.29 103.576 448.29 99.64V97.888H446.658ZM447.042 97.888V99.616C447.042 103.288 449.37 106.552 452.898 107.824L453.906 106.264C450.762 105.16 448.65 102.424 448.65 99.616V97.888H447.042ZM441.81 96.952V98.56H453.402V96.952H441.81ZM463.168 98.872V100.504H473.92V98.872H463.168ZM468.544 101.944C465.856 101.944 463.888 103.984 463.888 106.912C463.888 109.816 465.856 111.856 468.544 111.856C471.256 111.856 473.224 109.816 473.224 106.912C473.224 103.984 471.256 101.944 468.544 101.944ZM468.544 103.648C470.224 103.648 471.448 104.992 471.448 106.912C471.448 108.832 470.224 110.176 468.544 110.176C466.888 110.176 465.688 108.832 465.688 106.912C465.688 104.992 466.888 103.648 468.544 103.648ZM479.656 95.176V116.872H481.576V95.176H479.656ZM476.2 104.296V105.952H480.304V104.296H476.2ZM475.024 95.656V115.816H476.896V95.656H475.024ZM467.584 95.8V99.88H469.552V95.8H467.584ZM493.982 97.312V98.224C493.982 101.08 490.262 103.576 486.446 104.128L487.214 105.712C491.582 104.968 495.71 102.112 495.71 98.224V97.312H493.982ZM494.486 97.312V98.224C494.486 102.112 498.59 104.968 502.982 105.712L503.726 104.128C499.934 103.576 496.19 101.08 496.19 98.224V97.312H494.486ZM494.054 108.592V116.872H496.022V108.592H494.054ZM485.294 107.536V109.168H504.902V107.536H485.294ZM487.118 96.52V98.128H503.006V96.52H487.118ZM509.844 105.304V106.936H524.748V105.304H509.844ZM507.372 112.48V114.16H527.028V112.48H507.372ZM516.156 106V113.152H518.148V106H516.156ZM509.844 96.904V106.024H511.836V98.536H524.532V96.904H509.844ZM529.426 107.104V108.736H549.106V107.104H529.426ZM531.922 95.728V97.288H544.618V99.52H531.97V103.912H533.938V100.984H546.562V95.728H531.922ZM531.97 103.264V104.824H547.042V103.264H531.97ZM538.258 104.08V107.92H540.25V104.08H538.258ZM531.61 110.392V112.024H544.714V116.68H546.706V110.392H531.61ZM572.966 95.176V116.872H574.958V95.176H572.966ZM574.478 104.08V105.76H578.51V104.08H574.478ZM558.158 98.632V100.264H570.95V98.632H558.158ZM564.638 102.064C561.59 102.064 559.358 104.128 559.358 107.056C559.358 109.984 561.59 112.048 564.638 112.048C567.71 112.048 569.918 109.984 569.918 107.056C569.918 104.128 567.71 102.064 564.638 102.064ZM564.638 103.72C566.606 103.72 568.022 105.088 568.022 107.056C568.022 109 566.606 110.392 564.638 110.392C562.67 110.392 561.254 109 561.254 107.056C561.254 105.088 562.67 103.72 564.638 103.72ZM563.606 95.44V99.376H565.598V95.44H563.606ZM587.868 96.76V97.408C587.868 101.512 585.324 104.704 580.548 106.672L581.556 108.136C586.98 105.832 589.86 101.944 589.86 96.76H587.868ZM581.484 96.76V98.416H588.636V96.76H581.484ZM596.724 95.176V107.704H598.62V95.176H596.724ZM587.628 101.344V102.952H592.86V101.344H587.628ZM592.428 95.632V107.368H594.3V95.632H592.428ZM585.972 108.448V109.864C585.972 111.976 584.316 114.328 581.604 115.312L582.588 116.8C585.708 115.6 587.508 112.72 587.508 109.864V108.448H585.972ZM586.404 108.448V109.864C586.404 112.768 587.796 115.744 590.94 116.992L591.78 115.504C589.164 114.4 587.892 112.072 587.892 109.864V108.448H586.404ZM593.94 108.448V109.864C593.94 111.736 592.668 114.304 590.052 115.504L590.94 116.992C594.012 115.672 595.428 112.432 595.428 109.864V108.448H593.94ZM594.348 108.448V109.864C594.348 112.888 596.124 115.648 599.268 116.8L600.252 115.312C597.516 114.4 595.884 112.144 595.884 109.864V108.448H594.348ZM603.466 97.504V110.224H605.434V97.504H603.466ZM603.466 109.648V111.376H604.858C607.474 111.376 609.898 111.256 612.73 110.68L612.466 108.976C609.73 109.528 607.378 109.648 604.858 109.648H603.466ZM618.946 95.176V116.872H620.866V95.176H618.946ZM609.49 102.448V104.104H614.914V102.448H609.49ZM614.362 95.68V115.768H616.234V95.68H614.362ZM626.619 115.136C626.199 115.136 625.838 114.986 625.537 114.685C625.236 114.384 625.085 114.023 625.085 113.602C625.085 113.182 625.236 112.821 625.537 112.52C625.838 112.219 626.199 112.068 626.619 112.068C627.04 112.068 627.401 112.219 627.702 112.52C628.003 112.821 628.153 113.182 628.153 113.602C628.153 113.881 628.082 114.136 627.94 114.369C627.804 114.602 627.619 114.79 627.386 114.932C627.159 115.068 626.903 115.136 626.619 115.136ZM330.31 124.176V135.216H332.302V124.176H330.31ZM325.198 128.976V130.608H331.246V128.976H325.198ZM320.374 124.896C317.134 124.896 314.782 126.912 314.782 129.84C314.782 132.72 317.134 134.76 320.374 134.76C323.614 134.76 325.966 132.72 325.966 129.84C325.966 126.912 323.614 124.896 320.374 124.896ZM320.374 126.552C322.486 126.552 324.046 127.92 324.046 129.84C324.046 131.76 322.486 133.128 320.374 133.128C318.262 133.128 316.702 131.76 316.702 129.84C316.702 127.92 318.262 126.552 320.374 126.552ZM318.334 136.392V137.976H330.334V140.136H318.382V144.888H320.326V141.624H332.302V136.392H318.334ZM318.382 144V145.584H333.094V144H318.382ZM337.388 126.336V140.376H347.348V126.336H337.388ZM345.404 127.944V138.768H339.332V127.944H345.404ZM351.212 124.176V145.872H353.228V124.176H351.212ZM352.748 132.84V134.52H356.78V132.84H352.748ZM369.018 127.992V129.624H375.09V127.992H369.018ZM369.018 132.624V134.28H375.138V132.624H369.018ZM359.61 126.048V136.224H369.522V126.048H359.61ZM367.554 127.656V134.616H361.554V127.656H367.554ZM374.466 124.2V140.04H376.458V124.2H374.466ZM362.514 143.76V145.392H376.986V143.76H362.514ZM362.514 138.6V144.504H364.506V138.6H362.514ZM389.158 133.512V135.144H400.27V133.512H389.158ZM393.598 134.808V139.8H395.614V134.808H393.598ZM389.158 126.216V134.088H391.15V127.848H400.15V126.216H389.158ZM403.126 124.152V145.896H405.118V124.152H403.126ZM387.838 141.192C391.942 141.216 397.126 141.12 401.878 140.4L401.71 138.912C397.126 139.464 391.798 139.512 387.55 139.536L387.838 141.192ZM417.044 125.76V126.408C417.044 130.512 414.5 133.704 409.724 135.672L410.732 137.136C416.156 134.832 419.036 130.944 419.036 125.76H417.044ZM410.66 125.76V127.416H417.812V125.76H410.66ZM425.9 124.176V136.704H427.796V124.176H425.9ZM416.804 130.344V131.952H422.036V130.344H416.804ZM421.604 124.632V136.368H423.476V124.632H421.604ZM415.148 137.448V138.864C415.148 140.976 413.492 143.328 410.78 144.312L411.764 145.8C414.884 144.6 416.684 141.72 416.684 138.864V137.448H415.148ZM415.58 137.448V138.864C415.58 141.768 416.972 144.744 420.116 145.992L420.956 144.504C418.34 143.4 417.068 141.072 417.068 138.864V137.448H415.58ZM423.116 137.448V138.864C423.116 140.736 421.844 143.304 419.228 144.504L420.116 145.992C423.188 144.672 424.604 141.432 424.604 138.864V137.448H423.116ZM423.524 137.448V138.864C423.524 141.888 425.3 144.648 428.444 145.8L429.428 144.312C426.692 143.4 425.06 141.144 425.06 138.864V137.448H423.524ZM447.666 129.624V131.304H451.65V129.624H447.666ZM447.666 136.056V137.736H451.65V136.056H447.666ZM446.274 124.152V145.872H448.29V124.152H446.274ZM432.45 126.288V139.728H434.442V126.288H432.45ZM432.45 138.696V140.424H434.202C437.49 140.424 440.802 140.184 444.498 139.416L444.258 137.736C440.682 138.48 437.394 138.696 434.202 138.696H432.45ZM455.752 126.336V127.992H469.72V126.336H455.752ZM453.688 141.192V142.848H473.296V141.192H453.688ZM461.296 133.44V142.008H463.288V133.44H461.296ZM468.976 126.336V128.496C468.976 131.088 468.976 134.136 468.16 138.288L470.152 138.552C470.944 134.16 470.944 131.184 470.944 128.496V126.336H468.976ZM479.032 139.091V138.989C479.044 137.903 479.157 137.04 479.373 136.398C479.589 135.756 479.896 135.236 480.294 134.838C480.691 134.44 481.169 134.074 481.725 133.739C482.061 133.534 482.362 133.293 482.629 133.014C482.896 132.73 483.106 132.403 483.26 132.034C483.419 131.665 483.498 131.256 483.498 130.807C483.498 130.25 483.368 129.767 483.106 129.358C482.845 128.949 482.495 128.634 482.058 128.412C481.62 128.19 481.135 128.08 480.6 128.08C480.135 128.08 479.686 128.176 479.254 128.369C478.822 128.562 478.461 128.866 478.172 129.281C477.882 129.696 477.714 130.239 477.669 130.909H475.521C475.566 129.943 475.816 129.116 476.271 128.429C476.731 127.741 477.336 127.216 478.086 126.852C478.842 126.489 479.68 126.307 480.6 126.307C481.6 126.307 482.47 126.506 483.208 126.903C483.953 127.301 484.527 127.847 484.93 128.54C485.339 129.233 485.544 130.023 485.544 130.909C485.544 131.534 485.447 132.099 485.254 132.605C485.066 133.111 484.794 133.562 484.436 133.96C484.083 134.358 483.657 134.71 483.157 135.017C482.657 135.33 482.257 135.659 481.956 136.006C481.654 136.347 481.436 136.753 481.299 137.224C481.163 137.696 481.089 138.284 481.078 138.989V139.091H479.032ZM480.123 144.136C479.703 144.136 479.342 143.986 479.041 143.685C478.74 143.384 478.589 143.023 478.589 142.602C478.589 142.182 478.74 141.821 479.041 141.52C479.342 141.219 479.703 141.068 480.123 141.068C480.544 141.068 480.904 141.219 481.206 141.52C481.507 141.821 481.657 142.182 481.657 142.602C481.657 142.881 481.586 143.136 481.444 143.369C481.308 143.602 481.123 143.79 480.89 143.932C480.663 144.068 480.407 144.136 480.123 144.136Z" fill="black"/>
<defs>
<clipPath id="clip0_663_77">
<rect width="688" height="200" fill="white"/>
</clipPath>
</defs>
</svg>
