<svg width="570" height="266" viewBox="0 0 570 266" fill="none" xmlns="http://www.w3.org/2000/svg">
<g clip-path="url(#clip0_670_1020)">
<path d="M191.07 164L508.575 169.647C542.658 169.647 570 176.473 570 184.983L550.449 233.153C550.449 241.663 528.646 247.842 494.564 247.842L425.181 248.144L441.505 266L339.015 248.49L233.241 249.224C199.158 249.224 154.952 241.656 154.952 233.146L124 182.176C124 173.665 156.988 164 191.07 164Z" fill="white" stroke="black" stroke-width="2" stroke-linecap="round" stroke-linejoin="round"/>
</g>
<path d="M199.269 198.832C196.101 198.832 193.869 201.784 193.869 206.392C193.869 211.024 196.101 213.976 199.269 213.976C202.413 213.976 204.669 211.024 204.669 206.392C204.669 201.784 202.413 198.832 199.269 198.832ZM199.269 200.632C201.357 200.632 202.773 202.888 202.773 206.392C202.773 209.92 201.357 212.224 199.269 212.224C197.181 212.224 195.765 209.92 195.765 206.392C195.765 202.888 197.181 200.632 199.269 200.632ZM209.373 197.152V218.896H211.341V197.152H209.373ZM204.021 205.432V207.064H210.237V205.432H204.021ZM226.387 204.52V206.152H232.435V204.52H226.387ZM221.155 199.048V202.912C221.155 206.944 218.707 211.12 215.515 212.704L216.787 214.288C220.219 212.44 222.787 207.784 222.787 202.912V199.048H221.155ZM221.539 199.048V202.912C221.539 207.664 224.059 212.128 227.563 213.904L228.739 212.296C225.595 210.808 223.147 206.872 223.147 202.912V199.048H221.539ZM231.451 197.152V218.896H233.419V197.152H231.451ZM249.743 200.272V203.8C249.743 207.472 247.127 211.6 244.031 213.112L245.183 214.696C248.567 212.968 251.327 208.312 251.327 203.8V200.272H249.743ZM250.103 200.272V203.8C250.103 208.096 252.719 212.464 256.151 214.168L257.279 212.584C254.135 211.096 251.687 207.232 251.687 203.8V200.272H250.103ZM244.799 199.384V201.064H256.487V199.384H244.799ZM259.055 197.176V218.872H261.071V197.176H259.055ZM260.591 205.936V207.616H264.623V205.936H260.591ZM267.502 199.504V212.224H269.47V199.504H267.502ZM267.502 211.648V213.376H268.894C271.51 213.376 273.934 213.256 276.766 212.68L276.502 210.976C273.766 211.528 271.414 211.648 268.894 211.648H267.502ZM282.982 197.176V218.872H284.902V197.176H282.982ZM273.526 204.448V206.104H278.95V204.448H273.526ZM278.398 197.68V217.768H280.27V197.68H278.398ZM295.58 198.736C292.196 198.736 289.748 200.824 289.748 203.848C289.748 206.896 292.196 208.984 295.58 208.984C298.964 208.984 301.388 206.896 301.388 203.848C301.388 200.824 298.964 198.736 295.58 198.736ZM295.58 200.464C297.812 200.464 299.444 201.832 299.444 203.848C299.444 205.864 297.812 207.256 295.58 207.256C293.324 207.256 291.692 205.864 291.692 203.848C291.692 201.832 293.324 200.464 295.58 200.464ZM304.22 197.152V218.896H306.212V197.152H304.22ZM288.932 214.144C292.796 214.144 298.1 214.12 302.972 213.184L302.804 211.72C298.076 212.464 292.604 212.488 288.644 212.488L288.932 214.144ZM318.216 199.336V213.376H328.176V199.336H318.216ZM326.232 200.944V211.768H320.16V200.944H326.232ZM332.04 197.176V218.872H334.056V197.176H332.04ZM333.576 205.84V207.52H337.608V205.84H333.576ZM349.246 197.656C344.542 197.656 341.614 199.192 341.614 201.76C341.614 204.328 344.542 205.84 349.246 205.84C353.926 205.84 356.878 204.328 356.878 201.76C356.878 199.192 353.926 197.656 349.246 197.656ZM349.246 199.24C352.678 199.24 354.838 200.152 354.838 201.76C354.838 203.344 352.678 204.28 349.246 204.28C345.79 204.28 343.654 203.344 343.654 201.76C343.654 200.152 345.79 199.24 349.246 199.24ZM341.83 211.432V218.584H356.638V211.432H341.83ZM354.694 213.04V216.976H343.798V213.04H354.694ZM339.43 207.712V209.32H359.038V207.712H339.43ZM371.324 197.536C366.524 197.536 363.692 198.88 363.692 201.304C363.692 203.728 366.524 205.072 371.324 205.072C376.1 205.072 378.956 203.728 378.956 201.304C378.956 198.88 376.1 197.536 371.324 197.536ZM371.324 199.048C374.852 199.048 376.892 199.864 376.892 201.304C376.892 202.744 374.852 203.56 371.324 203.56C367.772 203.56 365.732 202.744 365.732 201.304C365.732 199.864 367.772 199.048 371.324 199.048ZM361.508 206.512V208.12H381.116V206.512H361.508ZM363.884 209.968V211.504H376.652V213.424H363.932V217.504H365.9V214.864H378.62V209.968H363.884ZM363.932 217.072V218.632H379.268V217.072H363.932ZM395.88 199.384V201.136C395.88 204.208 393.648 207.088 390.408 208.24L391.44 209.824C395.064 208.48 397.512 205.096 397.512 201.136V199.384H395.88ZM396.264 199.384V201.136C396.264 204.76 398.592 208.024 402.12 209.32L403.128 207.736C399.984 206.632 397.872 203.92 397.872 201.136V199.384H396.264ZM401.952 202.816V204.472H406.776V202.816H401.952ZM391.032 198.664V200.272H402.624V198.664H391.032ZM393.72 211.336V212.968H406.2V218.872H408.192V211.336H393.72ZM406.2 197.176V210.16H408.192V197.176H406.2ZM418.222 198.832C415.054 198.832 412.822 201.784 412.822 206.392C412.822 211.024 415.054 213.976 418.222 213.976C421.366 213.976 423.622 211.024 423.622 206.392C423.622 201.784 421.366 198.832 418.222 198.832ZM418.222 200.632C420.31 200.632 421.726 202.888 421.726 206.392C421.726 209.92 420.31 212.224 418.222 212.224C416.134 212.224 414.718 209.92 414.718 206.392C414.718 202.888 416.134 200.632 418.222 200.632ZM428.326 197.152V218.896H430.294V197.152H428.326ZM422.974 205.432V207.064H429.19V205.432H422.974ZM443.204 199.312V200.224C443.204 203.08 439.484 205.576 435.668 206.128L436.436 207.712C440.804 206.968 444.932 204.112 444.932 200.224V199.312H443.204ZM443.708 199.312V200.224C443.708 204.112 447.812 206.968 452.204 207.712L452.948 206.128C449.156 205.576 445.412 203.08 445.412 200.224V199.312H443.708ZM443.276 210.592V218.872H445.244V210.592H443.276ZM434.516 209.536V211.168H454.124V209.536H434.516ZM436.34 198.52V200.128H452.228V198.52H436.34ZM464.107 198.76V199.408C464.107 203.512 461.563 206.704 456.787 208.672L457.795 210.136C463.219 207.832 466.099 203.944 466.099 198.76H464.107ZM457.723 198.76V200.416H464.875V198.76H457.723ZM472.963 197.176V209.704H474.859V197.176H472.963ZM463.867 203.344V204.952H469.099V203.344H463.867ZM468.667 197.632V209.368H470.539V197.632H468.667ZM462.211 210.448V211.864C462.211 213.976 460.555 216.328 457.843 217.312L458.827 218.8C461.947 217.6 463.747 214.72 463.747 211.864V210.448H462.211ZM462.643 210.448V211.864C462.643 214.768 464.035 217.744 467.179 218.992L468.019 217.504C465.403 216.4 464.131 214.072 464.131 211.864V210.448H462.643ZM470.179 210.448V211.864C470.179 213.736 468.907 216.304 466.291 217.504L467.179 218.992C470.251 217.672 471.667 214.432 471.667 211.864V210.448H470.179ZM470.587 210.448V211.864C470.587 214.888 472.363 217.648 475.507 218.8L476.491 217.312C473.755 216.4 472.123 214.144 472.123 211.864V210.448H470.587ZM494.801 205.816V207.496H498.809V205.816H494.801ZM493.337 197.152V218.872H495.353V197.152H493.337ZM479.513 199.288V212.728H481.505V199.288H479.513ZM479.513 211.696V213.376H481.241C484.529 213.376 487.865 213.16 491.561 212.392L491.321 210.736C487.745 211.48 484.457 211.696 481.241 211.696H479.513ZM504.017 212.091V211.989C504.028 210.903 504.142 210.04 504.358 209.398C504.574 208.756 504.88 208.236 505.278 207.838C505.676 207.44 506.153 207.074 506.71 206.739C507.045 206.534 507.346 206.293 507.613 206.014C507.88 205.73 508.091 205.403 508.244 205.034C508.403 204.665 508.483 204.256 508.483 203.807C508.483 203.25 508.352 202.767 508.091 202.358C507.829 201.949 507.48 201.634 507.042 201.412C506.605 201.19 506.119 201.08 505.585 201.08C505.119 201.08 504.67 201.176 504.238 201.369C503.806 201.562 503.446 201.866 503.156 202.281C502.866 202.696 502.699 203.239 502.653 203.909H500.505C500.551 202.943 500.801 202.116 501.255 201.429C501.716 200.741 502.321 200.216 503.071 199.852C503.826 199.489 504.664 199.307 505.585 199.307C506.585 199.307 507.454 199.506 508.193 199.903C508.937 200.301 509.511 200.847 509.914 201.54C510.324 202.233 510.528 203.023 510.528 203.909C510.528 204.534 510.431 205.099 510.238 205.605C510.051 206.111 509.778 206.562 509.42 206.96C509.068 207.358 508.642 207.71 508.142 208.017C507.642 208.33 507.241 208.659 506.94 209.006C506.639 209.347 506.42 209.753 506.284 210.224C506.147 210.696 506.074 211.284 506.062 211.989V212.091H504.017ZM505.108 217.136C504.687 217.136 504.326 216.986 504.025 216.685C503.724 216.384 503.574 216.023 503.574 215.602C503.574 215.182 503.724 214.821 504.025 214.52C504.326 214.219 504.687 214.068 505.108 214.068C505.528 214.068 505.889 214.219 506.19 214.52C506.491 214.821 506.642 215.182 506.642 215.602C506.642 215.881 506.571 216.136 506.429 216.369C506.292 216.602 506.108 216.79 505.875 216.932C505.647 217.068 505.392 217.136 505.108 217.136Z" fill="black"/>
<defs>
<clipPath id="clip0_670_1020">
<rect width="570" height="266" fill="white"/>
</clipPath>
</defs>
</svg>
