<svg width="381" height="116" viewBox="0 0 381 116" fill="none" xmlns="http://www.w3.org/2000/svg">
<path d="M70.198 5.00046H201C226.444 5.00046 271 -1.53763 290.5 26.4624L247 81.0505C222.5 92.1668 179.943 92.1668 154.5 92.1668L91.5 115L101.68 92.1668C76.236 92.1668 24.265 89.7543 24.265 81.0505L1 26.4621C1 17.7581 44.7554 5.00046 70.198 5.00046Z" fill="white" stroke="black" stroke-width="2" stroke-linecap="round" stroke-linejoin="round"/>
<path d="M70.198 5.00023H201C226.444 5.00023 342 -9 361.5 19L380 81.0502C361.5 104.5 179.943 92.1665 154.5 92.1665L91.5 115L101.68 92.1665C76.236 92.1665 24.265 89.7541 24.265 81.0502L1 26.4619C1 17.7578 44.7554 5.00023 70.198 5.00023Z" fill="white" stroke="black" stroke-width="2" stroke-linecap="round" stroke-linejoin="round"/>
<path d="M43.277 40.7332V42.3892H62.933V40.7332H43.277ZM52.013 35.4772V41.2852H53.981V35.4772H52.013ZM51.965 24.9412V26.6212C51.965 30.1972 47.861 33.3892 44.045 34.0852L44.885 35.7412C49.253 34.8292 53.693 31.2532 53.693 26.6212V24.9412H51.965ZM52.325 24.9412V26.6212C52.325 31.2532 56.765 34.8292 61.133 35.7412L61.997 34.0852C58.181 33.3892 54.053 30.2212 54.053 26.6212V24.9412H52.325ZM74.1392 34.3492V38.1412H76.1312V34.3492H74.1392ZM65.3312 33.6532V35.2612H84.9392V33.6532H65.3312ZM75.1232 37.5412C70.4672 37.5412 67.6832 38.9092 67.6832 41.3572C67.6832 43.7812 70.4672 45.1492 75.1232 45.1492C79.7792 45.1492 82.5632 43.7812 82.5632 41.3572C82.5632 38.9092 79.7792 37.5412 75.1232 37.5412ZM75.1232 39.0772C78.5312 39.0772 80.5472 39.8932 80.5472 41.3572C80.5472 42.7972 78.5312 43.6132 75.1232 43.6132C71.7392 43.6132 69.6992 42.7972 69.6992 41.3572C69.6992 39.8932 71.7392 39.0772 75.1232 39.0772ZM73.8512 25.2772V25.9252C73.8512 28.3972 70.3232 30.3412 66.4352 30.7492L67.1552 32.3332C71.6432 31.7812 75.6272 29.4292 75.6272 25.9252V25.2772H73.8512ZM74.6912 25.2772V25.9252C74.6912 29.4292 78.6512 31.7812 83.1392 32.3332L83.8592 30.7492C79.9712 30.3412 76.4432 28.3972 76.4432 25.9252V25.2772H74.6912ZM67.1312 24.4852V26.0932H83.1872V24.4852H67.1312ZM102.265 23.5252V39.7972H104.257V23.5252H102.265ZM103.633 30.6292V32.3092H107.473V30.6292H103.633ZM87.4813 26.1412V27.7492H100.297V26.1412H87.4813ZM93.8893 28.9492C90.7933 28.9492 88.6813 30.5572 88.6813 33.0052C88.6813 35.4292 90.7933 37.0372 93.8893 37.0372C96.9613 37.0372 99.0733 35.4292 99.0733 33.0052C99.0733 30.5572 96.9613 28.9492 93.8893 28.9492ZM93.8893 30.5092C95.8333 30.5092 97.1773 31.4932 97.1773 33.0052C97.1773 34.4932 95.8333 35.4772 93.8893 35.4772C91.9213 35.4772 90.5773 34.4932 90.5773 33.0052C90.5773 31.4932 91.9213 30.5092 93.8893 30.5092ZM92.8813 23.5012V26.9812H94.8733V23.5012H92.8813ZM90.7453 43.0852V44.7172H105.241V43.0852H90.7453ZM90.7453 38.5012V43.7812H92.7373V38.5012H90.7453ZM118.781 30.7732V32.4052H133.637V30.7732H118.781ZM116.261 35.6692V37.3012H135.917V35.6692H116.261ZM125.021 36.5572V45.1972H126.989V36.5572H125.021ZM118.781 24.5812V31.5892H120.773V24.5812H118.781ZM140.836 24.6532V26.2612H154.684V24.6532H140.836ZM138.34 33.0532V34.6612H157.996V33.0532H138.34ZM147.244 34.0372V39.8932H149.236V34.0372H147.244ZM153.508 24.6532V26.3812C153.508 28.3012 153.508 30.5332 152.788 33.6532L154.732 33.9172C155.452 30.6532 155.452 28.3492 155.452 26.3812V24.6532H153.508ZM140.812 43.0852V44.7172H155.884V43.0852H140.812ZM140.812 37.9492V43.5172H142.804V37.9492H140.812ZM175.082 23.4772V45.1972H177.098V23.4772H175.082ZM176.546 32.2852V33.9412H180.554V32.2852H176.546ZM169.538 25.8292V26.1412C169.538 31.8772 166.538 36.5092 160.538 39.5572L161.642 41.0932C168.65 37.5652 171.482 31.9972 171.482 25.8292H169.538ZM161.546 25.8292V27.4612H170.57V25.8292H161.546ZM182.472 33.5812V35.0932H202.152V33.5812H182.472ZM184.8 36.8452V38.2612H197.736V40.1092H184.872V44.0212H186.84V41.4772H199.68V36.8452H184.8ZM184.872 43.4932V44.9332H200.376V43.4932H184.872ZM184.968 24.1252V25.5412H197.664V27.2932H185.016V30.9892H186.984V28.6372H199.608V24.1252H184.968ZM185.016 30.5092V31.9492H200.016V30.5092H185.016ZM215.86 24.8452V27.7492C215.86 30.1972 214.156 33.0052 211.3 34.2532L212.38 35.8132C215.572 34.3972 217.444 30.9892 217.444 27.7492V24.8452H215.86ZM216.172 24.8452V27.7492C216.172 30.9412 217.972 33.9412 221.092 35.1892L222.172 33.6772C219.388 32.5972 217.756 30.1492 217.756 27.7492V24.8452H216.172ZM227.692 23.5252V36.8932H229.588V23.5252H227.692ZM224.236 29.3092V30.9412H228.34V29.3092H224.236ZM223.036 23.9332V36.1972H224.932V23.9332H223.036ZM222.46 37.3732C217.972 37.3732 215.236 38.8132 215.236 41.2852C215.236 43.7332 217.972 45.1492 222.46 45.1492C226.924 45.1492 229.708 43.7332 229.708 41.2852C229.708 38.8132 226.924 37.3732 222.46 37.3732ZM222.46 38.9332C225.724 38.9332 227.716 39.7972 227.716 41.2852C227.716 42.7492 225.724 43.6132 222.46 43.6132C219.196 43.6132 217.18 42.7492 217.18 41.2852C217.18 39.7972 219.196 38.9332 222.46 38.9332ZM248.234 23.5012V36.2212H250.226V23.5012H248.234ZM249.674 28.9732V30.6532H253.442V28.9732H249.674ZM242.234 24.8932V25.7572C242.234 29.7652 238.97 32.9092 233.354 34.4452L234.17 36.0052C240.506 34.2772 244.322 30.3652 244.322 24.8932H242.234ZM234.314 24.8932V26.5012H243.338V24.8932H234.314ZM236.138 37.2292V38.8372H248.234V45.1972H250.226V37.2292H236.138ZM270.168 23.5012V45.1972H272.16V23.5012H270.168ZM271.68 32.4052V34.0852H275.712V32.4052H271.68ZM255.36 26.9572V28.5892H268.152V26.9572H255.36ZM261.84 30.3892C258.792 30.3892 256.56 32.4532 256.56 35.3812C256.56 38.3092 258.792 40.3732 261.84 40.3732C264.912 40.3732 267.12 38.3092 267.12 35.3812C267.12 32.4532 264.912 30.3892 261.84 30.3892ZM261.84 32.0452C263.808 32.0452 265.224 33.4132 265.224 35.3812C265.224 37.3252 263.808 38.7172 261.84 38.7172C259.872 38.7172 258.456 37.3252 258.456 35.3812C258.456 33.4132 259.872 32.0452 261.84 32.0452ZM260.808 23.7652V27.7012H262.8V23.7652H260.808ZM280.198 30.0052V31.6372H294.934V30.0052H280.198ZM277.534 34.5412V36.1732H297.214V34.5412H277.534ZM280.198 24.2932V30.8212H282.166V24.2932H280.198ZM280.054 43.0372V44.6692H295.054V43.0372H280.054ZM280.054 38.3332V43.4692H282.022V38.3332H280.054ZM43.253 64.9332V66.5652H62.933V64.9332H43.253ZM52.037 65.9412V74.1972H54.005V65.9412H52.037ZM53.045 53.3652C48.533 53.3652 45.461 55.2132 45.461 58.1172C45.461 61.0212 48.533 62.8692 53.045 62.8692C57.581 62.8692 60.629 61.0212 60.629 58.1172C60.629 55.2132 57.581 53.3652 53.045 53.3652ZM53.045 54.9732C56.357 54.9732 58.589 56.1972 58.589 58.1172C58.589 60.0372 56.357 61.2612 53.045 61.2612C49.733 61.2612 47.477 60.0372 47.477 58.1172C47.477 56.1972 49.733 54.9732 53.045 54.9732ZM74.0432 54.6372V55.5492C74.0432 58.4052 70.3232 60.9012 66.5072 61.4532L67.2752 63.0372C71.6432 62.2932 75.7712 59.4372 75.7712 55.5492V54.6372H74.0432ZM74.5472 54.6372V55.5492C74.5472 59.4372 78.6512 62.2932 83.0432 63.0372L83.7872 61.4532C79.9952 60.9012 76.2512 58.4052 76.2512 55.5492V54.6372H74.5472ZM74.1152 65.9172V74.1972H76.0832V65.9172H74.1152ZM65.3552 64.8612V66.4932H84.9632V64.8612H65.3552ZM67.1792 53.8452V55.4532H83.0672V53.8452H67.1792ZM96.2173 60.9252V62.5812H100.321V60.9252H96.2173ZM103.945 52.5012V74.1972H105.865V52.5012H103.945ZM99.6493 52.9572V73.1172H101.545V52.9572H99.6493ZM92.3053 54.3012C89.4973 54.3012 87.6973 57.2052 87.6973 61.8612C87.6973 66.5172 89.4973 69.4212 92.3053 69.4212C95.1133 69.4212 96.9373 66.5172 96.9373 61.8612C96.9373 57.2052 95.1133 54.3012 92.3053 54.3012ZM92.3053 56.1492C94.0333 56.1492 95.1133 58.3572 95.1133 61.8612C95.1133 65.3652 94.0333 67.5732 92.3053 67.5732C90.6013 67.5732 89.5213 65.3652 89.5213 61.8612C89.5213 58.3572 90.6013 56.1492 92.3053 56.1492ZM120.335 59.8452V61.4772H126.383V59.8452H120.335ZM115.103 54.3732V58.2372C115.103 62.2692 112.655 66.4452 109.463 68.0292L110.735 69.6132C114.167 67.7652 116.735 63.1092 116.735 58.2372V54.3732H115.103ZM115.487 54.3732V58.2372C115.487 62.9892 118.007 67.4532 121.511 69.2292L122.687 67.6212C119.543 66.1332 117.095 62.1972 117.095 58.2372V54.3732H115.487ZM125.399 52.4772V74.2212H127.367V52.4772H125.399ZM153.004 52.4772V74.1972H155.02V52.4772H153.004ZM154.468 61.2852V62.9412H158.476V61.2852H154.468ZM147.46 54.8292V55.1412C147.46 60.8772 144.46 65.5092 138.46 68.5572L139.564 70.0932C146.572 66.5652 149.404 60.9972 149.404 54.8292H147.46ZM139.468 54.8292V56.4612H148.492V54.8292H139.468ZM165.746 54.8292V56.5812C165.746 59.6772 163.586 62.4852 160.322 63.6372L161.33 65.2212C164.978 63.9012 167.378 60.5652 167.378 56.5812V54.8292H165.746ZM166.106 54.8292V56.5572C166.106 60.2532 168.41 63.3492 172.034 64.5492L172.994 62.9892C169.802 61.9332 167.738 59.3892 167.738 56.5572V54.8292H166.106ZM160.922 54.1092V55.7412H172.514V54.1092H160.922ZM175.25 52.5012V65.5812H177.242V52.5012H175.25ZM176.69 57.9972V59.6772H180.458V57.9972H176.69ZM170.33 66.1572C165.914 66.1572 163.202 67.6212 163.202 70.1412C163.202 72.6852 165.914 74.1492 170.33 74.1492C174.746 74.1492 177.458 72.6852 177.458 70.1412C177.458 67.6212 174.746 66.1572 170.33 66.1572ZM170.33 67.7652C173.546 67.7652 175.514 68.6292 175.514 70.1412C175.514 71.6772 173.546 72.5892 170.33 72.5892C167.114 72.5892 165.146 71.6772 165.146 70.1412C165.146 68.6292 167.114 67.7652 170.33 67.7652ZM195.006 54.1572C191.814 54.1572 189.558 57.1092 189.558 61.7172C189.558 66.3492 191.814 69.3012 195.006 69.3012C198.198 69.3012 200.454 66.3492 200.454 61.7172C200.454 57.1092 198.198 54.1572 195.006 54.1572ZM195.006 55.9572C197.094 55.9572 198.558 58.2132 198.558 61.7172C198.558 65.2452 197.094 67.5492 195.006 67.5492C192.894 67.5492 191.454 65.2452 191.454 61.7172C191.454 58.2132 192.894 55.9572 195.006 55.9572ZM203.91 52.5012V74.1972H205.926V52.5012H203.91ZM205.446 61.1652V62.8452H209.478V61.1652H205.446ZM211.3 63.6852V65.3172H230.98V63.6852H211.3ZM213.796 53.0292V54.5892H226.492V56.7012H213.844V61.0452H215.812V58.1652H228.436V53.0292H213.796ZM213.844 60.2772V61.8372H228.916V60.2772H213.844ZM213.94 67.2852V73.9092H228.46V67.2852H213.94ZM226.516 68.8692V72.3012H215.884V68.8692H226.516ZM248.066 52.4772V74.2212H250.082V52.4772H248.066ZM249.602 61.0452V62.7252H253.634V61.0452H249.602ZM234.314 67.1412V68.8212H236.018C240.098 68.8212 242.954 68.7012 246.29 68.0772L246.074 66.3972C242.834 66.9972 240.026 67.1412 236.018 67.1412H234.314ZM234.314 54.5892V67.8852H236.282V56.2212H244.394V54.5892H234.314ZM255.456 63.4932V65.1252H275.136V63.4932H255.456ZM264.432 64.5252V69.5172H266.448V64.5252H264.432ZM257.952 72.0612V73.7172H272.952V72.0612H257.952ZM257.952 67.3812V72.5172H259.944V67.3812H257.952ZM265.272 53.0292C260.664 53.0292 257.664 54.7092 257.664 57.3972C257.664 60.0852 260.664 61.7652 265.272 61.7652C269.856 61.7652 272.88 60.0852 272.88 57.3972C272.88 54.7092 269.856 53.0292 265.272 53.0292ZM265.272 54.6612C268.584 54.6612 270.768 55.7172 270.768 57.3972C270.768 59.1012 268.584 60.1332 265.272 60.1332C261.96 60.1332 259.776 59.1012 259.776 57.3972C259.776 55.7172 261.96 54.6612 265.272 54.6612ZM294.532 55.5732V57.1332H300.652V55.5732H294.532ZM294.532 59.5332V61.0932H300.652V59.5332H294.532ZM300.148 52.5012V63.8052H302.14V52.5012H300.148ZM288.172 64.8852V66.4692H300.172V68.5332H288.22V73.3572H290.164V70.0212H302.14V64.8852H288.172ZM288.22 72.3252V73.9092H302.932V72.3252H288.22ZM285.364 53.4852V62.9652H295.156V53.4852H293.212V56.6052H287.332V53.4852H285.364ZM287.332 58.1652H293.212V61.3572H287.332V58.1652ZM322.13 52.4772V74.2212H324.122V52.4772H322.13ZM312.674 54.1572C309.482 54.1572 307.178 57.1092 307.178 61.7172C307.178 66.3492 309.482 69.3012 312.674 69.3012C315.89 69.3012 318.194 66.3492 318.194 61.7172C318.194 57.1092 315.89 54.1572 312.674 54.1572ZM312.674 55.9572C314.81 55.9572 316.274 58.2132 316.274 61.7172C316.274 65.2452 314.81 67.5492 312.674 67.5492C310.562 67.5492 309.074 65.2452 309.074 61.7172C309.074 58.2132 310.562 55.9572 312.674 55.9572ZM334.225 54.1572C331.033 54.1572 328.777 57.1092 328.777 61.7172C328.777 66.3492 331.033 69.3012 334.225 69.3012C337.417 69.3012 339.673 66.3492 339.673 61.7172C339.673 57.1092 337.417 54.1572 334.225 54.1572ZM334.225 55.9572C336.313 55.9572 337.777 58.2132 337.777 61.7172C337.777 65.2452 336.313 67.5492 334.225 67.5492C332.113 67.5492 330.673 65.2452 330.673 61.7172C330.673 58.2132 332.113 55.9572 334.225 55.9572ZM344.593 57.9492V59.6292H348.577V57.9492H344.593ZM344.593 64.4052V66.0852H348.577V64.4052H344.593ZM343.129 52.5012V74.1972H345.145V52.5012H343.129Z" fill="black"/>
</svg>
