<svg width="386" height="112" viewBox="0 0 386 112" fill="none" xmlns="http://www.w3.org/2000/svg">
<path d="M70.198 1C44.7554 1 1 13.7576 1 22.4617L24.265 77.05C24.265 85.7539 76.236 88.1663 101.68 88.1663L91.5 111L154.5 88.1663C179.943 88.1663 222.5 88.1663 247 77.05" stroke="black" stroke-width="2" stroke-linecap="round" stroke-linejoin="round"/>
<path d="M70.198 1L191 8C234.5 16 232.5 14 267 32.7695V81.8071L252.5 88.1663C228 99.2826 179.943 88.1663 154.5 88.1663L91.5 111L101.68 88.1663C76.236 88.1663 24.265 85.7539 24.265 77.05L1 22.4617C1 13.7576 44.7554 1 70.198 1Z" fill="white" stroke="black" stroke-width="2" stroke-linecap="round" stroke-linejoin="round"/>
<path d="M51.165 19.5012V41.2452H53.157V19.5012H51.165ZM44.493 26.6532V28.2852H51.813V26.6532H44.493ZM36.453 21.9252V35.3652H38.421V21.9252H36.453ZM36.453 34.3092V35.9892H38.133C41.565 35.9892 44.613 35.7732 48.069 35.1012L47.829 33.4212C44.493 34.1172 41.493 34.3092 38.133 34.3092H36.453ZM66.1392 27.9252V29.5812H70.2432V27.9252H66.1392ZM73.8672 19.5012V41.1972H75.7872V19.5012H73.8672ZM69.5712 19.9572V40.1172H71.4672V19.9572H69.5712ZM62.2272 21.3012C59.4192 21.3012 57.6192 24.2052 57.6192 28.8612C57.6192 33.5172 59.4192 36.4212 62.2272 36.4212C65.0352 36.4212 66.8592 33.5172 66.8592 28.8612C66.8592 24.2052 65.0352 21.3012 62.2272 21.3012ZM62.2272 23.1492C63.9552 23.1492 65.0352 25.3572 65.0352 28.8612C65.0352 32.3652 63.9552 34.5732 62.2272 34.5732C60.5232 34.5732 59.4432 32.3652 59.4432 28.8612C59.4432 25.3572 60.5232 23.1492 62.2272 23.1492ZM95.9453 19.5012V41.1972H97.8653V19.5012H95.9453ZM86.5373 28.3572V29.9652H92.0093V28.3572H86.5373ZM91.4333 20.0532V40.0932H93.3053V20.0532H91.4333ZM86.8013 22.2372V22.5972C86.8013 27.7092 84.5213 32.0292 79.4093 35.1012L80.5853 36.5172C86.4413 33.0372 88.7213 27.9252 88.7213 22.2372H86.8013ZM80.3693 22.2372V23.8692H87.5453V22.2372H80.3693ZM122.925 19.4772V41.1972H124.941V19.4772H122.925ZM124.389 28.2852V29.9412H128.397V28.2852H124.389ZM117.381 21.8292V22.1412C117.381 27.8772 114.381 32.5092 108.381 35.5572L109.485 37.0932C116.493 33.5652 119.325 27.9972 119.325 21.8292H117.381ZM109.389 21.8292V23.4612H118.413V21.8292H109.389ZM135.668 21.8292V23.5812C135.668 26.6772 133.508 29.4852 130.244 30.6372L131.252 32.2212C134.9 30.9012 137.3 27.5652 137.3 23.5812V21.8292H135.668ZM136.028 21.8292V23.5572C136.028 27.2532 138.332 30.3492 141.956 31.5492L142.916 29.9892C139.724 28.9332 137.66 26.3892 137.66 23.5572V21.8292H136.028ZM130.844 21.1092V22.7412H142.436V21.1092H130.844ZM145.172 19.5012V32.5812H147.164V19.5012H145.172ZM146.612 24.9972V26.6772H150.38V24.9972H146.612ZM140.252 33.1572C135.836 33.1572 133.124 34.6212 133.124 37.1412C133.124 39.6852 135.836 41.1492 140.252 41.1492C144.668 41.1492 147.38 39.6852 147.38 37.1412C147.38 34.6212 144.668 33.1572 140.252 33.1572ZM140.252 34.7652C143.468 34.7652 145.436 35.6292 145.436 37.1412C145.436 38.6772 143.468 39.5892 140.252 39.5892C137.036 39.5892 135.068 38.6772 135.068 37.1412C135.068 35.6292 137.036 34.7652 140.252 34.7652ZM35.277 65.7332V67.3892H54.933V65.7332H35.277ZM44.013 60.4772V66.2852H45.981V60.4772H44.013ZM43.965 49.9412V51.6212C43.965 55.1972 39.861 58.3892 36.045 59.0852L36.885 60.7412C41.253 59.8292 45.693 56.2532 45.693 51.6212V49.9412H43.965ZM44.325 49.9412V51.6212C44.325 56.2532 48.765 59.8292 53.133 60.7412L53.997 59.0852C50.181 58.3892 46.053 55.2212 46.053 51.6212V49.9412H44.325ZM66.1392 59.3492V63.1412H68.1312V59.3492H66.1392ZM57.3312 58.6532V60.2612H76.9392V58.6532H57.3312ZM67.1232 62.5412C62.4672 62.5412 59.6832 63.9092 59.6832 66.3572C59.6832 68.7812 62.4672 70.1492 67.1232 70.1492C71.7792 70.1492 74.5632 68.7812 74.5632 66.3572C74.5632 63.9092 71.7792 62.5412 67.1232 62.5412ZM67.1232 64.0772C70.5312 64.0772 72.5472 64.8932 72.5472 66.3572C72.5472 67.7972 70.5312 68.6132 67.1232 68.6132C63.7392 68.6132 61.6992 67.7972 61.6992 66.3572C61.6992 64.8932 63.7392 64.0772 67.1232 64.0772ZM65.8512 50.2772V50.9252C65.8512 53.3972 62.3232 55.3412 58.4352 55.7492L59.1552 57.3332C63.6432 56.7812 67.6272 54.4292 67.6272 50.9252V50.2772H65.8512ZM66.6912 50.2772V50.9252C66.6912 54.4292 70.6512 56.7812 75.1392 57.3332L75.8592 55.7492C71.9712 55.3412 68.4432 53.3972 68.4432 50.9252V50.2772H66.6912ZM59.1312 49.4852V51.0932H75.1872V49.4852H59.1312ZM94.2653 48.5252V64.7972H96.2573V48.5252H94.2653ZM95.6333 55.6292V57.3092H99.4733V55.6292H95.6333ZM79.4813 51.1412V52.7492H92.2973V51.1412H79.4813ZM85.8893 53.9492C82.7933 53.9492 80.6813 55.5572 80.6813 58.0052C80.6813 60.4292 82.7933 62.0372 85.8893 62.0372C88.9613 62.0372 91.0733 60.4292 91.0733 58.0052C91.0733 55.5572 88.9613 53.9492 85.8893 53.9492ZM85.8893 55.5092C87.8333 55.5092 89.1773 56.4932 89.1773 58.0052C89.1773 59.4932 87.8333 60.4772 85.8893 60.4772C83.9213 60.4772 82.5773 59.4932 82.5773 58.0052C82.5773 56.4932 83.9213 55.5092 85.8893 55.5092ZM84.8813 48.5012V51.9812H86.8733V48.5012H84.8813ZM82.7453 68.0852V69.7172H97.2413V68.0852H82.7453ZM82.7453 63.5012V68.7812H84.7373V63.5012H82.7453ZM113.565 50.3732V54.2612C113.565 58.2212 111.093 62.3972 107.949 63.9812L109.173 65.5652C112.605 63.7412 115.197 59.0612 115.197 54.2612V50.3732H113.565ZM113.925 50.3732V54.2612C113.925 58.9172 116.445 63.3572 119.805 65.1572L121.029 63.5732C117.957 62.0372 115.533 58.0772 115.533 54.2612V50.3732H113.925ZM122.925 48.5012V70.1972H124.941V48.5012H122.925ZM124.461 57.2852V58.9652H128.493V57.2852H124.461ZM145.172 48.5252V61.4372H147.164V48.5252H145.172ZM146.564 54.0452V55.7252H150.38V54.0452H146.564ZM133.484 62.5172V69.9092H147.164V62.5172H133.484ZM145.22 64.1012V68.3012H135.452V64.1012H145.22ZM131.276 58.6772V60.3332H132.98C136.988 60.3332 139.844 60.1892 143.276 59.6132L143.108 57.9812C139.724 58.5812 136.916 58.6772 132.98 58.6772H131.276ZM131.228 49.6772V51.3092H139.028V54.0932H131.276V59.6132H133.22V55.6292H140.996V49.6772H131.228ZM152.394 59.9012V61.5332H172.002V59.9012H152.394ZM154.938 68.0852V69.7172H169.842V68.0852H154.938ZM154.938 63.4292V68.5892H156.93V63.4292H154.938ZM162.21 49.2212C157.554 49.2212 154.578 50.8532 154.578 53.5652C154.578 56.2532 157.554 57.8852 162.21 57.8852C166.842 57.8852 169.842 56.2532 169.842 53.5652C169.842 50.8532 166.842 49.2212 162.21 49.2212ZM162.21 50.8532C165.618 50.8532 167.802 51.8612 167.802 53.5652C167.802 55.2692 165.618 56.2772 162.21 56.2772C158.802 56.2772 156.618 55.2692 156.618 53.5652C156.618 51.8612 158.802 50.8532 162.21 50.8532ZM183.766 55.7732V57.4052H198.622V55.7732H183.766ZM181.246 60.6692V62.3012H200.902V60.6692H181.246ZM190.006 61.5572V70.1972H191.974V61.5572H190.006ZM183.766 49.5812V56.5892H185.758V49.5812H183.766ZM205.772 49.9172V51.5252H219.332V49.9172H205.772ZM203.324 59.2292V60.8612H222.932V59.2292H203.324ZM212.084 60.3092V70.2212H214.076V60.3092H212.084ZM218.396 49.9172V51.7892C218.396 53.9732 218.396 56.4932 217.556 59.9972L219.524 60.2612C220.34 56.5892 220.34 54.0452 220.34 51.7892V49.9172H218.396ZM241.17 48.5012V70.1972H243.162V48.5012H241.17ZM226.77 50.6132V64.0532H228.738V50.6132H226.77ZM226.77 62.8772V64.6052H228.546C231.978 64.6052 235.41 64.3412 239.178 63.5732L238.938 61.8692C235.266 62.6372 231.834 62.8772 228.546 62.8772H226.77ZM250.746 63.4161V63.3138C250.757 62.2286 250.871 61.365 251.087 60.7229C251.303 60.0809 251.61 59.561 252.007 59.1633C252.405 58.7655 252.882 58.3991 253.439 58.0638C253.774 57.8593 254.076 57.6178 254.343 57.3394C254.61 57.0553 254.82 56.7286 254.973 56.3593C255.132 55.99 255.212 55.5809 255.212 55.132C255.212 54.5752 255.081 54.0922 254.82 53.6831C254.559 53.2741 254.209 52.9587 253.772 52.7371C253.334 52.5155 252.848 52.4047 252.314 52.4047C251.848 52.4047 251.399 52.5013 250.968 52.6945C250.536 52.8877 250.175 53.1917 249.885 53.6064C249.595 54.0212 249.428 54.5638 249.382 55.2343H247.235C247.28 54.2684 247.53 53.4417 247.985 52.7542C248.445 52.0667 249.05 51.5411 249.8 51.1775C250.556 50.8138 251.394 50.632 252.314 50.632C253.314 50.632 254.184 50.8309 254.922 51.2286C255.667 51.6263 256.24 52.1718 256.644 52.865C257.053 53.5581 257.257 54.3479 257.257 55.2343C257.257 55.8593 257.161 56.4246 256.968 56.9303C256.78 57.436 256.507 57.8877 256.149 58.2854C255.797 58.6831 255.371 59.0354 254.871 59.3422C254.371 59.6547 253.97 59.9843 253.669 60.3309C253.368 60.6718 253.149 61.078 253.013 61.5496C252.877 62.0212 252.803 62.6093 252.792 63.3138V63.4161H250.746ZM251.837 68.4616C251.417 68.4616 251.056 68.311 250.755 68.0099C250.453 67.7087 250.303 67.3479 250.303 66.9275C250.303 66.507 250.453 66.1462 250.755 65.8451C251.056 65.5439 251.417 65.3934 251.837 65.3934C252.257 65.3934 252.618 65.5439 252.919 65.8451C253.22 66.1462 253.371 66.507 253.371 66.9275C253.371 67.2059 253.3 67.4616 253.158 67.6945C253.022 67.9275 252.837 68.115 252.604 68.257C252.377 68.3934 252.121 68.4616 251.837 68.4616Z" fill="black"/>
</svg>
