<svg width="1620" height="920" viewBox="0 0 1620 920" fill="none" xmlns="http://www.w3.org/2000/svg">
<g clip-path="url(#clip0_307_2)" filter="url(#filter0_d_307_2)">
<rect width="1600" height="900" transform="translate(10 6)" fill="#0A0B16"/>
<ellipse cx="130" cy="45.75" rx="1.00001" ry="0.75" fill="white"/>
<ellipse cx="280" cy="45.75" rx="1" ry="0.75" fill="white"/>
<ellipse cx="430" cy="45.75" rx="1" ry="0.75" fill="white"/>
<ellipse cx="580" cy="45.75" rx="1" ry="0.75" fill="white"/>
<ellipse cx="730" cy="45.75" rx="1" ry="0.75" fill="white"/>
<ellipse cx="880" cy="45.75" rx="0.999969" ry="0.75" fill="white"/>
<ellipse cx="1030" cy="45.75" rx="0.999969" ry="0.75" fill="white"/>
<ellipse cx="1180" cy="45.75" rx="1" ry="0.75" fill="white"/>
<ellipse cx="1330" cy="45.75" rx="1" ry="0.75" fill="white"/>
<ellipse cx="80" cy="122.25" rx="1" ry="0.75" fill="white"/>
<ellipse cx="230" cy="122.25" rx="1" ry="0.75" fill="white"/>
<ellipse cx="380" cy="122.25" rx="1" ry="0.75" fill="white"/>
<ellipse cx="530" cy="122.25" rx="1" ry="0.75" fill="white"/>
<ellipse cx="680" cy="122.25" rx="1" ry="0.75" fill="white"/>
<ellipse cx="830" cy="122.25" rx="0.999969" ry="0.75" fill="white"/>
<ellipse cx="980" cy="122.25" rx="0.999969" ry="0.75" fill="white"/>
<ellipse cx="1130" cy="122.25" rx="1" ry="0.75" fill="white"/>
<ellipse cx="1280" cy="122.25" rx="1" ry="0.75" fill="white"/>
<ellipse cx="140" cy="197.25" rx="1" ry="0.75" fill="white"/>
<ellipse cx="290" cy="197.25" rx="1" ry="0.75" fill="white"/>
<ellipse cx="440" cy="197.25" rx="1" ry="0.75" fill="white"/>
<ellipse cx="590" cy="197.25" rx="1" ry="0.75" fill="white"/>
<ellipse cx="740" cy="197.25" rx="1" ry="0.75" fill="white"/>
<ellipse cx="890" cy="197.25" rx="0.999969" ry="0.75" fill="white"/>
<ellipse cx="1040" cy="197.25" rx="1" ry="0.75" fill="white"/>
<ellipse cx="1190" cy="197.25" rx="1" ry="0.75" fill="white"/>
<ellipse cx="120" cy="272.25" rx="1" ry="0.75" fill="white"/>
<ellipse cx="270" cy="272.25" rx="1" ry="0.75" fill="white"/>
<ellipse cx="420" cy="272.25" rx="1.00002" ry="0.75" fill="white"/>
<ellipse cx="570" cy="272.25" rx="1" ry="0.75" fill="white"/>
<ellipse cx="720" cy="272.25" rx="1" ry="0.75" fill="white"/>
<ellipse cx="870" cy="272.25" rx="1.00003" ry="0.75" fill="white"/>
<ellipse cx="1020" cy="272.25" rx="1.00009" ry="0.75" fill="white"/>
<ellipse cx="1170" cy="272.25" rx="1" ry="0.75" fill="white"/>
<ellipse cx="1320" cy="272.25" rx="1" ry="0.75" fill="white"/>
<ellipse cx="30" cy="347.25" rx="1" ry="0.749966" fill="white"/>
<ellipse cx="180" cy="347.25" rx="1" ry="0.749966" fill="white"/>
<ellipse cx="330" cy="347.25" rx="1" ry="0.749966" fill="white"/>
<ellipse cx="480" cy="347.25" rx="1" ry="0.749966" fill="white"/>
<ellipse cx="630" cy="347.25" rx="1" ry="0.749966" fill="white"/>
<ellipse cx="780" cy="347.25" rx="1" ry="0.749966" fill="white"/>
<ellipse cx="930" cy="347.25" rx="0.999969" ry="0.749966" fill="white"/>
<ellipse cx="1080" cy="347.25" rx="1" ry="0.749966" fill="white"/>
<ellipse cx="1230" cy="347.25" rx="1" ry="0.749966" fill="white"/>
<ellipse cx="1380" cy="347.25" rx="1" ry="0.749966" fill="white"/>
<ellipse cx="100" cy="422.25" rx="1" ry="0.75" fill="white"/>
<ellipse cx="250" cy="422.25" rx="1.00002" ry="0.75" fill="white"/>
<ellipse cx="400" cy="422.25" rx="1" ry="0.75" fill="white"/>
<ellipse cx="550" cy="422.25" rx="1" ry="0.75" fill="white"/>
<ellipse cx="700" cy="422.25" rx="1" ry="0.75" fill="white"/>
<ellipse cx="850" cy="422.25" rx="1.00006" ry="0.75" fill="white"/>
<ellipse cx="1000" cy="422.25" rx="1" ry="0.75" fill="white"/>
<ellipse cx="1150" cy="422.25" rx="1" ry="0.75" fill="white"/>
<ellipse cx="1300" cy="422.25" rx="1" ry="0.75" fill="white"/>
<ellipse cx="130" cy="497.25" rx="1.00001" ry="0.75" fill="white"/>
<ellipse cx="280" cy="497.25" rx="1" ry="0.75" fill="white"/>
<ellipse cx="430" cy="497.25" rx="1" ry="0.75" fill="white"/>
<ellipse cx="580" cy="497.25" rx="1" ry="0.75" fill="white"/>
<ellipse cx="730" cy="497.25" rx="1" ry="0.75" fill="white"/>
<ellipse cx="880" cy="497.25" rx="0.999969" ry="0.75" fill="white"/>
<ellipse cx="1030" cy="497.25" rx="0.999969" ry="0.75" fill="white"/>
<ellipse cx="1180" cy="497.25" rx="1" ry="0.75" fill="white"/>
<ellipse cx="1330" cy="497.25" rx="1" ry="0.75" fill="white"/>
<ellipse cx="50" cy="579.75" rx="1" ry="0.75" fill="white"/>
<ellipse cx="200" cy="579.75" rx="1" ry="0.75" fill="white"/>
<ellipse cx="350" cy="579.75" rx="1" ry="0.75" fill="white"/>
<ellipse cx="500" cy="579.75" rx="1" ry="0.75" fill="white"/>
<ellipse cx="650" cy="579.75" rx="1" ry="0.75" fill="white"/>
<ellipse cx="800" cy="579.75" rx="1" ry="0.75" fill="white"/>
<ellipse cx="950" cy="579.75" rx="1.00006" ry="0.75" fill="white"/>
<ellipse cx="1100" cy="579.75" rx="1" ry="0.75" fill="white"/>
<ellipse cx="1250" cy="579.75" rx="1" ry="0.75" fill="white"/>
<ellipse cx="1400" cy="579.75" rx="1" ry="0.75" fill="white"/>
<ellipse cx="140" cy="662.25" rx="1" ry="0.75" fill="white"/>
<ellipse cx="290" cy="662.25" rx="1" ry="0.75" fill="white"/>
<ellipse cx="440" cy="662.25" rx="1" ry="0.75" fill="white"/>
<ellipse cx="590" cy="662.25" rx="1" ry="0.75" fill="white"/>
<ellipse cx="740" cy="662.25" rx="1" ry="0.75" fill="white"/>
<ellipse cx="890" cy="662.25" rx="0.999969" ry="0.75" fill="white"/>
<ellipse cx="1040" cy="662.25" rx="1" ry="0.75" fill="white"/>
<ellipse cx="1190" cy="662.25" rx="1" ry="0.75" fill="white"/>
<ellipse cx="1340" cy="662.25" rx="1" ry="0.75" fill="white"/>
<ellipse cx="70" cy="743.25" rx="1" ry="0.75" fill="white"/>
<ellipse cx="220" cy="743.25" rx="1" ry="0.75" fill="white"/>
<ellipse cx="370" cy="743.25" rx="1" ry="0.75" fill="white"/>
<ellipse cx="520" cy="743.25" rx="1" ry="0.75" fill="white"/>
<ellipse cx="670" cy="743.25" rx="1" ry="0.75" fill="white"/>
<ellipse cx="820" cy="743.25" rx="1.00003" ry="0.75" fill="white"/>
<ellipse cx="970" cy="743.25" rx="1.00003" ry="0.75" fill="white"/>
<ellipse cx="1120" cy="743.25" rx="1" ry="0.75" fill="white"/>
<ellipse cx="1270" cy="743.25" rx="1" ry="0.75" fill="white"/>
<ellipse cx="10" cy="825.75" rx="1" ry="0.75" fill="white"/>
<ellipse cx="160" cy="825.75" rx="1" ry="0.75" fill="white"/>
<ellipse cx="310" cy="825.75" rx="1" ry="0.75" fill="white"/>
<ellipse cx="460" cy="825.75" rx="0.999985" ry="0.75" fill="white"/>
<ellipse cx="610" cy="825.75" rx="1" ry="0.75" fill="white"/>
<ellipse cx="760" cy="825.75" rx="1" ry="0.75" fill="white"/>
<ellipse cx="910" cy="825.75" rx="1" ry="0.75" fill="white"/>
<ellipse cx="1060" cy="825.75" rx="1" ry="0.75" fill="white"/>
<ellipse cx="1210" cy="825.75" rx="1" ry="0.75" fill="white"/>
<ellipse cx="1360" cy="825.75" rx="1" ry="0.75" fill="white"/>
<ellipse cx="30" cy="53.25" rx="1" ry="0.75" fill="white"/>
<ellipse cx="180" cy="53.25" rx="1" ry="0.75" fill="white"/>
<ellipse cx="330" cy="53.25" rx="1" ry="0.75" fill="white"/>
<ellipse cx="480" cy="53.25" rx="1" ry="0.75" fill="white"/>
<ellipse cx="630" cy="53.25" rx="1" ry="0.75" fill="white"/>
<ellipse cx="780" cy="53.25" rx="1" ry="0.75" fill="white"/>
<ellipse cx="930" cy="53.25" rx="0.999969" ry="0.75" fill="white"/>
<ellipse cx="1080" cy="53.25" rx="1" ry="0.75" fill="white"/>
<ellipse cx="1230" cy="53.25" rx="1" ry="0.75" fill="white"/>
<ellipse cx="1380" cy="53.25" rx="1" ry="0.75" fill="white"/>
<ellipse cx="130" cy="129.75" rx="1.00001" ry="0.75" fill="white"/>
<ellipse cx="280" cy="129.75" rx="1" ry="0.75" fill="white"/>
<ellipse cx="430" cy="129.75" rx="1" ry="0.75" fill="white"/>
<ellipse cx="580" cy="129.75" rx="1" ry="0.75" fill="white"/>
<ellipse cx="730" cy="129.75" rx="1" ry="0.75" fill="white"/>
<ellipse cx="880" cy="129.75" rx="0.999969" ry="0.75" fill="white"/>
<ellipse cx="1030" cy="129.75" rx="0.999969" ry="0.75" fill="white"/>
<ellipse cx="1180" cy="129.75" rx="1" ry="0.75" fill="white"/>
<ellipse cx="1330" cy="129.75" rx="1" ry="0.75" fill="white"/>
<ellipse cx="40" cy="204.75" rx="1" ry="0.75" fill="white"/>
<ellipse cx="190" cy="204.75" rx="1" ry="0.75" fill="white"/>
<ellipse cx="340" cy="204.75" rx="1" ry="0.75" fill="white"/>
<ellipse cx="490" cy="204.75" rx="1" ry="0.75" fill="white"/>
<ellipse cx="640" cy="204.75" rx="1" ry="0.75" fill="white"/>
<ellipse cx="790" cy="204.75" rx="1" ry="0.75" fill="white"/>
<ellipse cx="940" cy="204.75" rx="0.999969" ry="0.75" fill="white"/>
<ellipse cx="1090" cy="204.75" rx="1" ry="0.75" fill="white"/>
<ellipse cx="1240" cy="204.75" rx="1" ry="0.75" fill="white"/>
<ellipse cx="20" cy="279.75" rx="1" ry="0.75" fill="white"/>
<ellipse cx="170" cy="279.75" rx="1" ry="0.75" fill="white"/>
<ellipse cx="320" cy="279.75" rx="1" ry="0.75" fill="white"/>
<ellipse cx="470" cy="279.75" rx="1.00002" ry="0.75" fill="white"/>
<ellipse cx="620" cy="279.75" rx="1" ry="0.75" fill="white"/>
<ellipse cx="770" cy="279.75" rx="1" ry="0.75" fill="white"/>
<ellipse cx="920" cy="279.75" rx="1.00003" ry="0.75" fill="white"/>
<ellipse cx="1070" cy="279.75" rx="1" ry="0.75" fill="white"/>
<ellipse cx="1220" cy="279.75" rx="1" ry="0.75" fill="white"/>
<ellipse cx="1370" cy="279.75" rx="1" ry="0.75" fill="white"/>
<ellipse cx="80" cy="354.75" rx="1" ry="0.749989" fill="white"/>
<ellipse cx="230" cy="354.75" rx="1" ry="0.749989" fill="white"/>
<ellipse cx="380" cy="354.75" rx="1" ry="0.749989" fill="white"/>
<ellipse cx="530" cy="354.75" rx="1" ry="0.749989" fill="white"/>
<ellipse cx="680" cy="354.75" rx="1" ry="0.749989" fill="white"/>
<ellipse cx="830" cy="354.75" rx="0.999969" ry="0.749989" fill="white"/>
<ellipse cx="980" cy="354.75" rx="0.999969" ry="0.749989" fill="white"/>
<ellipse cx="1130" cy="354.75" rx="1" ry="0.749989" fill="white"/>
<ellipse cx="1280" cy="354.75" rx="1" ry="0.749989" fill="white"/>
<ellipse cx="1430" cy="353.25" rx="1" ry="0.75" fill="white"/>
<ellipse cx="150" cy="429.75" rx="1" ry="0.75" fill="white"/>
<ellipse cx="300" cy="429.75" rx="1" ry="0.75" fill="white"/>
<ellipse cx="450" cy="429.75" rx="1" ry="0.75" fill="white"/>
<ellipse cx="600" cy="429.75" rx="1" ry="0.75" fill="white"/>
<ellipse cx="750" cy="429.75" rx="1" ry="0.75" fill="white"/>
<ellipse cx="900" cy="429.75" rx="1.00006" ry="0.75" fill="white"/>
<ellipse cx="1050" cy="429.75" rx="1" ry="0.75" fill="white"/>
<ellipse cx="1200" cy="429.75" rx="1" ry="0.75" fill="white"/>
<ellipse cx="1350" cy="429.75" rx="1" ry="0.75" fill="white"/>
<ellipse cx="30" cy="504.75" rx="1" ry="0.75" fill="white"/>
<ellipse cx="180" cy="504.75" rx="1" ry="0.75" fill="white"/>
<ellipse cx="330" cy="504.75" rx="1" ry="0.75" fill="white"/>
<ellipse cx="480" cy="504.75" rx="1" ry="0.75" fill="white"/>
<ellipse cx="630" cy="504.75" rx="1" ry="0.75" fill="white"/>
<ellipse cx="780" cy="504.75" rx="1" ry="0.75" fill="white"/>
<ellipse cx="930" cy="504.75" rx="0.999969" ry="0.75" fill="white"/>
<ellipse cx="1080" cy="504.75" rx="1" ry="0.75" fill="white"/>
<ellipse cx="1230" cy="504.75" rx="1" ry="0.75" fill="white"/>
<ellipse cx="1380" cy="504.75" rx="1" ry="0.75" fill="white"/>
<ellipse cx="100" cy="587.25" rx="1" ry="0.75" fill="white"/>
<ellipse cx="250" cy="587.25" rx="1.00002" ry="0.75" fill="white"/>
<ellipse cx="400" cy="587.25" rx="1" ry="0.75" fill="white"/>
<ellipse cx="550" cy="587.25" rx="1" ry="0.75" fill="white"/>
<ellipse cx="700" cy="587.25" rx="1" ry="0.75" fill="white"/>
<ellipse cx="850" cy="587.25" rx="1.00006" ry="0.75" fill="white"/>
<ellipse cx="1000" cy="587.25" rx="1" ry="0.75" fill="white"/>
<ellipse cx="1150" cy="587.25" rx="1" ry="0.75" fill="white"/>
<ellipse cx="1300" cy="587.25" rx="1" ry="0.75" fill="white"/>
<ellipse cx="1450" cy="585.75" rx="1" ry="0.75" fill="white"/>
<ellipse cx="40" cy="669.75" rx="1" ry="0.75" fill="white"/>
<ellipse cx="190" cy="669.75" rx="1" ry="0.75" fill="white"/>
<ellipse cx="340" cy="669.75" rx="1" ry="0.75" fill="white"/>
<ellipse cx="490" cy="669.75" rx="1" ry="0.75" fill="white"/>
<ellipse cx="640" cy="669.75" rx="1" ry="0.75" fill="white"/>
<ellipse cx="790" cy="669.75" rx="1" ry="0.75" fill="white"/>
<ellipse cx="940" cy="669.75" rx="0.999969" ry="0.75" fill="white"/>
<ellipse cx="1090" cy="669.75" rx="1" ry="0.75" fill="white"/>
<ellipse cx="1240" cy="669.75" rx="1" ry="0.75" fill="white"/>
<ellipse cx="1390" cy="669.75" rx="1" ry="0.75" fill="white"/>
<ellipse cx="120" cy="750.75" rx="1" ry="0.749931" fill="white"/>
<ellipse cx="270" cy="750.75" rx="1" ry="0.749931" fill="white"/>
<ellipse cx="420" cy="750.75" rx="1.00002" ry="0.749931" fill="white"/>
<ellipse cx="570" cy="750.75" rx="1" ry="0.749931" fill="white"/>
<ellipse cx="720" cy="750.75" rx="1" ry="0.749931" fill="white"/>
<ellipse cx="870" cy="750.75" rx="1.00003" ry="0.749931" fill="white"/>
<ellipse cx="1020" cy="750.75" rx="1.00009" ry="0.749931" fill="white"/>
<ellipse cx="1170" cy="750.75" rx="1" ry="0.749931" fill="white"/>
<ellipse cx="1320" cy="750.75" rx="1" ry="0.749931" fill="white"/>
<ellipse cx="60" cy="833.25" rx="1" ry="0.75" fill="white"/>
<ellipse cx="210" cy="833.25" rx="1" ry="0.75" fill="white"/>
<ellipse cx="360" cy="833.25" rx="1" ry="0.75" fill="white"/>
<ellipse cx="510" cy="833.25" rx="0.999954" ry="0.75" fill="white"/>
<ellipse cx="660" cy="833.25" rx="1" ry="0.75" fill="white"/>
<ellipse cx="810" cy="833.25" rx="1" ry="0.75" fill="white"/>
<ellipse cx="960" cy="833.25" rx="1" ry="0.75" fill="white"/>
<ellipse cx="1110" cy="833.25" rx="1" ry="0.75" fill="white"/>
<ellipse cx="1260" cy="833.25" rx="1" ry="0.75" fill="white"/>
<ellipse cx="1410" cy="833.25" rx="1" ry="0.75" fill="white"/>
<ellipse cx="45" cy="6.75" rx="1" ry="0.75" fill="white"/>
<ellipse cx="195" cy="6.75" rx="1" ry="0.75" fill="white"/>
<ellipse cx="345" cy="6.75" rx="1" ry="0.75" fill="white"/>
<ellipse cx="495" cy="6.75" rx="1" ry="0.75" fill="white"/>
<ellipse cx="645" cy="6.75" rx="1" ry="0.75" fill="white"/>
<ellipse cx="795" cy="6.75" rx="1" ry="0.75" fill="white"/>
<ellipse cx="945" cy="6.75" rx="0.999969" ry="0.75" fill="white"/>
<ellipse cx="1095" cy="6.75" rx="1" ry="0.75" fill="white"/>
<ellipse cx="1245" cy="6.75" rx="1" ry="0.75" fill="white"/>
<ellipse cx="75" cy="81.75" rx="1" ry="0.75" fill="white"/>
<ellipse cx="225" cy="81.75" rx="1" ry="0.75" fill="white"/>
<ellipse cx="375" cy="81.75" rx="1" ry="0.75" fill="white"/>
<ellipse cx="525" cy="81.75" rx="1" ry="0.75" fill="white"/>
<ellipse cx="675" cy="81.75" rx="1" ry="0.75" fill="white"/>
<ellipse cx="825" cy="81.75" rx="1.00003" ry="0.75" fill="white"/>
<ellipse cx="975" cy="81.75" rx="1.00006" ry="0.75" fill="white"/>
<ellipse cx="1125" cy="81.75" rx="1" ry="0.75" fill="white"/>
<ellipse cx="1275" cy="81.75" rx="1" ry="0.75" fill="white"/>
<ellipse cx="25" cy="158.25" rx="0.999999" ry="0.75" fill="white"/>
<ellipse cx="175" cy="158.25" rx="1" ry="0.75" fill="white"/>
<ellipse cx="325" cy="158.25" rx="1" ry="0.75" fill="white"/>
<ellipse cx="475" cy="158.25" rx="1" ry="0.75" fill="white"/>
<ellipse cx="625" cy="158.25" rx="1" ry="0.75" fill="white"/>
<ellipse cx="775" cy="158.25" rx="1" ry="0.75" fill="white"/>
<ellipse cx="925" cy="158.25" rx="1.00003" ry="0.75" fill="white"/>
<ellipse cx="1075" cy="158.25" rx="1" ry="0.75" fill="white"/>
<ellipse cx="1225" cy="158.25" rx="1" ry="0.75" fill="white"/>
<ellipse cx="85" cy="233.25" rx="1" ry="0.75" fill="white"/>
<ellipse cx="235" cy="233.25" rx="1" ry="0.75" fill="white"/>
<ellipse cx="385" cy="233.25" rx="1" ry="0.75" fill="white"/>
<ellipse cx="535" cy="233.25" rx="1" ry="0.75" fill="white"/>
<ellipse cx="685" cy="233.25" rx="1" ry="0.75" fill="white"/>
<ellipse cx="835" cy="233.25" rx="0.999969" ry="0.75" fill="white"/>
<ellipse cx="985" cy="233.25" rx="0.999969" ry="0.75" fill="white"/>
<ellipse cx="1135" cy="233.25" rx="1" ry="0.75" fill="white"/>
<ellipse cx="65" cy="308.25" rx="0.999996" ry="0.75" fill="white"/>
<ellipse cx="215" cy="308.25" rx="1" ry="0.75" fill="white"/>
<ellipse cx="365" cy="308.25" rx="1" ry="0.75" fill="white"/>
<ellipse cx="515" cy="308.25" rx="1" ry="0.75" fill="white"/>
<ellipse cx="665" cy="308.25" rx="1" ry="0.75" fill="white"/>
<ellipse cx="815" cy="308.25" rx="1" ry="0.75" fill="white"/>
<ellipse cx="965" cy="308.25" rx="1" ry="0.75" fill="white"/>
<ellipse cx="1115" cy="308.25" rx="1" ry="0.75" fill="white"/>
<ellipse cx="1265" cy="308.25" rx="1" ry="0.75" fill="white"/>
<ellipse cx="125" cy="383.25" rx="1" ry="0.749989" fill="white"/>
<ellipse cx="275" cy="383.25" rx="1" ry="0.749989" fill="white"/>
<ellipse cx="425" cy="383.25" rx="1" ry="0.749989" fill="white"/>
<ellipse cx="575" cy="383.25" rx="1" ry="0.749989" fill="white"/>
<ellipse cx="725" cy="383.25" rx="1" ry="0.749989" fill="white"/>
<ellipse cx="875" cy="383.25" rx="1.00003" ry="0.749989" fill="white"/>
<ellipse cx="1025" cy="383.25" rx="1.00006" ry="0.749989" fill="white"/>
<ellipse cx="1175" cy="383.25" rx="1" ry="0.749989" fill="white"/>
<ellipse cx="1325" cy="383.25" rx="1" ry="0.749989" fill="white"/>
<ellipse cx="45" cy="458.25" rx="1" ry="0.75" fill="white"/>
<ellipse cx="195" cy="458.25" rx="1" ry="0.75" fill="white"/>
<ellipse cx="345" cy="458.25" rx="1" ry="0.75" fill="white"/>
<ellipse cx="495" cy="458.25" rx="1" ry="0.75" fill="white"/>
<ellipse cx="645" cy="458.25" rx="1" ry="0.75" fill="white"/>
<ellipse cx="795" cy="458.25" rx="1" ry="0.75" fill="white"/>
<ellipse cx="945" cy="458.25" rx="0.999969" ry="0.75" fill="white"/>
<ellipse cx="1095" cy="458.25" rx="1" ry="0.75" fill="white"/>
<ellipse cx="75" cy="533.25" rx="1" ry="0.75" fill="white"/>
<ellipse cx="225" cy="533.25" rx="1" ry="0.75" fill="white"/>
<ellipse cx="375" cy="533.25" rx="1" ry="0.75" fill="white"/>
<ellipse cx="525" cy="533.25" rx="1" ry="0.75" fill="white"/>
<ellipse cx="675" cy="533.25" rx="1" ry="0.75" fill="white"/>
<ellipse cx="825" cy="533.25" rx="1.00003" ry="0.75" fill="white"/>
<ellipse cx="975" cy="533.25" rx="1.00006" ry="0.75" fill="white"/>
<ellipse cx="1125" cy="533.25" rx="1" ry="0.75" fill="white"/>
<ellipse cx="1275" cy="533.25" rx="1" ry="0.75" fill="white"/>
<ellipse cx="145" cy="615.75" rx="1" ry="0.75" fill="white"/>
<ellipse cx="295" cy="615.75" rx="1" ry="0.75" fill="white"/>
<ellipse cx="445" cy="615.75" rx="1" ry="0.75" fill="white"/>
<ellipse cx="595" cy="615.75" rx="1" ry="0.75" fill="white"/>
<ellipse cx="745" cy="615.75" rx="1" ry="0.75" fill="white"/>
<ellipse cx="895" cy="615.75" rx="0.999969" ry="0.75" fill="white"/>
<ellipse cx="1045" cy="615.75" rx="1" ry="0.75" fill="white"/>
<ellipse cx="1195" cy="615.75" rx="1" ry="0.75" fill="white"/>
<ellipse cx="1345" cy="615.75" rx="1" ry="0.75" fill="white"/>
<ellipse cx="85" cy="698.25" rx="1" ry="0.749977" fill="white"/>
<ellipse cx="235" cy="698.25" rx="1" ry="0.749977" fill="white"/>
<ellipse cx="385" cy="698.25" rx="1" ry="0.749977" fill="white"/>
<ellipse cx="535" cy="698.25" rx="1" ry="0.749977" fill="white"/>
<ellipse cx="685" cy="698.25" rx="1" ry="0.749977" fill="white"/>
<ellipse cx="835" cy="698.25" rx="0.999969" ry="0.749977" fill="white"/>
<ellipse cx="985" cy="698.25" rx="0.999969" ry="0.749977" fill="white"/>
<ellipse cx="1135" cy="698.25" rx="1" ry="0.749977" fill="white"/>
<ellipse cx="1285" cy="698.25" rx="1" ry="0.749977" fill="white"/>
<ellipse cx="15" cy="779.25" rx="1" ry="0.75" fill="white"/>
<ellipse cx="165" cy="779.25" rx="1" ry="0.75" fill="white"/>
<ellipse cx="315" cy="779.25" rx="1" ry="0.75" fill="white"/>
<ellipse cx="465" cy="779.25" rx="1" ry="0.75" fill="white"/>
<ellipse cx="615" cy="779.25" rx="1" ry="0.75" fill="white"/>
<ellipse cx="765" cy="779.25" rx="1" ry="0.75" fill="white"/>
<ellipse cx="915" cy="779.25" rx="1" ry="0.75" fill="white"/>
<ellipse cx="1065" cy="779.25" rx="1" ry="0.75" fill="white"/>
<ellipse cx="1215" cy="779.25" rx="1" ry="0.75" fill="white"/>
<ellipse cx="105" cy="861.75" rx="1" ry="0.75" fill="white"/>
<ellipse cx="255" cy="861.75" rx="1" ry="0.75" fill="white"/>
<ellipse cx="405" cy="861.75" rx="1" ry="0.75" fill="white"/>
<ellipse cx="555" cy="861.75" rx="1" ry="0.75" fill="white"/>
<ellipse cx="705" cy="861.75" rx="1" ry="0.75" fill="white"/>
<ellipse cx="855" cy="861.75" rx="1" ry="0.75" fill="white"/>
<ellipse cx="1005" cy="861.75" rx="1" ry="0.75" fill="white"/>
<ellipse cx="1155" cy="861.75" rx="1" ry="0.75" fill="white"/>
<ellipse cx="1305" cy="861.75" rx="1" ry="0.75" fill="white"/>
<ellipse cx="48" cy="76.5" rx="2" ry="1.5" fill="white"/>
<ellipse cx="348" cy="84" rx="2" ry="1.5" fill="white"/>
<ellipse cx="648" cy="76.5" rx="2" ry="1.5" fill="white"/>
<ellipse cx="948" cy="69" rx="2" ry="1.5" fill="white"/>
<ellipse cx="1248" cy="76.5" rx="2" ry="1.5" fill="white"/>
<ellipse cx="1548" cy="84" rx="2" ry="1.5" fill="white"/>
<ellipse cx="298" cy="235.5" rx="2" ry="1.5" fill="white"/>
<ellipse cx="598" cy="228" rx="2" ry="1.5" fill="white"/>
<ellipse cx="898" cy="220.5" rx="2" ry="1.5" fill="white"/>
<ellipse cx="1198" cy="228" rx="2" ry="1.5" fill="white"/>
<ellipse cx="1498" cy="234" rx="2" ry="1.5" fill="white"/>
<ellipse cx="248" cy="385.5" rx="1.99999" ry="1.50001" fill="white"/>
<ellipse cx="548" cy="378" rx="2" ry="1.49999" fill="white"/>
<ellipse cx="848" cy="370.5" rx="2" ry="1.50001" fill="white"/>
<ellipse cx="1148" cy="378" rx="2" ry="1.49999" fill="white"/>
<ellipse cx="1448" cy="384" rx="2" ry="1.49999" fill="white"/>
<ellipse cx="108" cy="528" rx="2" ry="1.5" fill="white"/>
<ellipse cx="408" cy="535.5" rx="2" ry="1.5" fill="white"/>
<ellipse cx="708" cy="528" rx="2" ry="1.5" fill="white"/>
<ellipse cx="1008" cy="520.5" rx="2" ry="1.5" fill="white"/>
<ellipse cx="1308" cy="528" rx="2" ry="1.5" fill="white"/>
<ellipse cx="1608" cy="534" rx="2" ry="1.5" fill="white"/>
<ellipse cx="221" cy="685.5" rx="1.99999" ry="1.50009" fill="white"/>
<ellipse cx="521" cy="678" rx="2" ry="1.5" fill="white"/>
<ellipse cx="821" cy="670.5" rx="2" ry="1.5" fill="white"/>
<ellipse cx="1121" cy="678" rx="2" ry="1.5" fill="white"/>
<ellipse cx="1421" cy="684" rx="2" ry="1.49993" fill="white"/>
<ellipse cx="244" cy="814.5" rx="2.00001" ry="1.5" fill="white"/>
<ellipse cx="544" cy="807" rx="2" ry="1.5" fill="white"/>
<ellipse cx="844" cy="799.5" rx="1.99997" ry="1.5" fill="white"/>
<ellipse cx="1144" cy="807" rx="2" ry="1.5" fill="white"/>
<ellipse cx="1444" cy="814.5" rx="2" ry="1.5" fill="white"/>
<ellipse cx="88" cy="16.5" rx="2" ry="1.5" fill="white"/>
<ellipse cx="388" cy="9" rx="2" ry="1.5" fill="white"/>
<ellipse cx="988" cy="9" rx="2" ry="1.5" fill="white"/>
<ellipse cx="1288" cy="16.5" rx="2" ry="1.5" fill="white"/>
<ellipse cx="208" cy="168" rx="2" ry="1.5" fill="white"/>
<ellipse cx="508" cy="160.5" rx="2" ry="1.5" fill="white"/>
<ellipse cx="808" cy="153" rx="2" ry="1.5" fill="white"/>
<ellipse cx="1108" cy="160.5" rx="2" ry="1.5" fill="white"/>
<ellipse cx="1408" cy="166.5" rx="2" ry="1.5" fill="white"/>
<ellipse cx="158" cy="318" rx="2" ry="1.5" fill="white"/>
<ellipse cx="458" cy="310.5" rx="2" ry="1.5" fill="white"/>
<ellipse cx="758" cy="303" rx="2" ry="1.5" fill="white"/>
<ellipse cx="1058" cy="310.5" rx="2" ry="1.5" fill="white"/>
<ellipse cx="1358" cy="318" rx="2" ry="1.5" fill="white"/>
<ellipse cx="108" cy="468" rx="2" ry="1.5" fill="white"/>
<ellipse cx="408" cy="460.5" rx="2" ry="1.5" fill="white"/>
<ellipse cx="708" cy="453" rx="2" ry="1.5" fill="white"/>
<ellipse cx="1008" cy="460.5" rx="2" ry="1.5" fill="white"/>
<ellipse cx="1308" cy="468" rx="2" ry="1.5" fill="white"/>
<ellipse cx="268" cy="618" rx="2" ry="1.5" fill="white"/>
<ellipse cx="568" cy="610.5" rx="2" ry="1.5" fill="white"/>
<ellipse cx="868" cy="603" rx="2" ry="1.5" fill="white"/>
<ellipse cx="1168" cy="610.5" rx="2" ry="1.5" fill="white"/>
<ellipse cx="1468" cy="616.5" rx="2" ry="1.5" fill="white"/>
<ellipse cx="81" cy="766.5" rx="2" ry="1.50009" fill="white"/>
<ellipse cx="381" cy="759" rx="2" ry="1.49998" fill="white"/>
<ellipse cx="681" cy="751.5" rx="2" ry="1.5" fill="white"/>
<ellipse cx="981" cy="759" rx="2" ry="1.49998" fill="white"/>
<ellipse cx="1281" cy="766.5" rx="2" ry="1.50009" fill="white"/>
<ellipse cx="104" cy="897" rx="2" ry="1.5" fill="white"/>
<ellipse cx="404" cy="889.5" rx="2" ry="1.5" fill="white"/>
<ellipse cx="704" cy="882" rx="2" ry="1.5" fill="white"/>
<ellipse cx="1004" cy="889.5" rx="2" ry="1.5" fill="white"/>
<ellipse cx="1304" cy="897" rx="2" ry="1.5" fill="white"/>
<ellipse cx="1478" cy="76.5" rx="2" ry="1.5" fill="white"/>
<ellipse cx="1428" cy="228" rx="2" ry="1.5" fill="white"/>
<ellipse cx="1378" cy="378" rx="2" ry="1.49999" fill="white"/>
<ellipse cx="1538" cy="528" rx="2" ry="1.5" fill="white"/>
<ellipse cx="1351" cy="678" rx="2" ry="1.5" fill="white"/>
<ellipse cx="1374" cy="807" rx="2" ry="1.5" fill="white"/>
<ellipse cx="1218" cy="9" rx="2" ry="1.5" fill="white"/>
<ellipse cx="1518" cy="16.5" rx="2" ry="1.5" fill="white"/>
<ellipse cx="1338" cy="160.5" rx="2" ry="1.5" fill="white"/>
<ellipse cx="1288" cy="310.5" rx="2" ry="1.5" fill="white"/>
<ellipse cx="1588" cy="318" rx="2" ry="1.5" fill="white"/>
<ellipse cx="1538" cy="468" rx="2" ry="1.5" fill="white"/>
<ellipse cx="1398" cy="610.5" rx="2" ry="1.5" fill="white"/>
<ellipse cx="1211" cy="759" rx="2" ry="1.49998" fill="white"/>
<ellipse cx="1511" cy="766.5" rx="2" ry="1.50009" fill="white"/>
<ellipse cx="1234" cy="889.5" rx="2" ry="1.5" fill="white"/>
<ellipse cx="1534" cy="897" rx="2" ry="1.5" fill="white"/>
<ellipse cx="1410" cy="45.75" rx="1" ry="0.75" fill="white"/>
<ellipse cx="1560" cy="45.75" rx="1" ry="0.75" fill="white"/>
<ellipse cx="1360" cy="122.25" rx="1" ry="0.75" fill="white"/>
<ellipse cx="1510" cy="122.25" rx="1" ry="0.75" fill="white"/>
<ellipse cx="1420" cy="197.25" rx="1" ry="0.75" fill="white"/>
<ellipse cx="1570" cy="197.25" rx="1" ry="0.75" fill="white"/>
<ellipse cx="1400" cy="272.25" rx="1" ry="0.75" fill="white"/>
<ellipse cx="1550" cy="272.25" rx="1" ry="0.75" fill="white"/>
<ellipse cx="1460" cy="347.25" rx="1" ry="0.749966" fill="white"/>
<ellipse cx="1610" cy="347.25" rx="1" ry="0.749966" fill="white"/>
<ellipse cx="1380" cy="422.25" rx="1" ry="0.75" fill="white"/>
<ellipse cx="1530" cy="422.25" rx="1" ry="0.75" fill="white"/>
<ellipse cx="1410" cy="497.25" rx="1" ry="0.75" fill="white"/>
<ellipse cx="1560" cy="497.25" rx="1" ry="0.75" fill="white"/>
<ellipse cx="1480" cy="579.75" rx="1" ry="0.75" fill="white"/>
<ellipse cx="1420" cy="662.25" rx="1" ry="0.75" fill="white"/>
<ellipse cx="1570" cy="662.25" rx="1" ry="0.75" fill="white"/>
<ellipse cx="1500" cy="743.25" rx="1" ry="0.75" fill="white"/>
<ellipse cx="1440" cy="825.75" rx="1" ry="0.75" fill="white"/>
<ellipse cx="1590" cy="825.75" rx="1" ry="0.75" fill="white"/>
<ellipse cx="1460" cy="53.25" rx="1" ry="0.75" fill="white"/>
<ellipse cx="1610" cy="53.25" rx="1" ry="0.75" fill="white"/>
<ellipse cx="1410" cy="129.75" rx="1" ry="0.75" fill="white"/>
<ellipse cx="1560" cy="129.75" rx="1" ry="0.75" fill="white"/>
<ellipse cx="1470" cy="204.75" rx="1" ry="0.75" fill="white"/>
<ellipse cx="1450" cy="279.75" rx="1" ry="0.75" fill="white"/>
<ellipse cx="1600" cy="279.75" rx="1" ry="0.75" fill="white"/>
<ellipse cx="1510" cy="354.75" rx="1" ry="0.749989" fill="white"/>
<ellipse cx="1430" cy="429.75" rx="1" ry="0.75" fill="white"/>
<ellipse cx="1580" cy="429.75" rx="1" ry="0.75" fill="white"/>
<ellipse cx="1460" cy="504.75" rx="1" ry="0.75" fill="white"/>
<ellipse cx="1610" cy="504.75" rx="1" ry="0.75" fill="white"/>
<ellipse cx="1530" cy="587.25" rx="1" ry="0.75" fill="white"/>
<ellipse cx="1470" cy="669.75" rx="1" ry="0.75" fill="white"/>
<ellipse cx="1550" cy="750.75" rx="1" ry="0.749931" fill="white"/>
<ellipse cx="1490" cy="833.25" rx="1" ry="0.75" fill="white"/>
<ellipse cx="1324" cy="8.25" rx="1" ry="0.75" fill="white"/>
<ellipse cx="1474" cy="8.25" rx="1" ry="0.75" fill="white"/>
<ellipse cx="1354" cy="83.25" rx="1" ry="0.75" fill="white"/>
<ellipse cx="1504" cy="83.25" rx="1" ry="0.75" fill="white"/>
<ellipse cx="1304" cy="159.75" rx="1" ry="0.75" fill="white"/>
<ellipse cx="1454" cy="159.75" rx="1" ry="0.75" fill="white"/>
<ellipse cx="1604" cy="159.75" rx="1" ry="0.75" fill="white"/>
<ellipse cx="1364" cy="234.75" rx="1" ry="0.75" fill="white"/>
<ellipse cx="1514" cy="234.75" rx="1" ry="0.75" fill="white"/>
<ellipse cx="1344" cy="309.75" rx="1" ry="0.75" fill="white"/>
<ellipse cx="1494" cy="309.75" rx="1" ry="0.75" fill="white"/>
<ellipse cx="1404" cy="384.75" rx="1" ry="0.749989" fill="white"/>
<ellipse cx="1554" cy="384.75" rx="1" ry="0.749989" fill="white"/>
<ellipse cx="1324" cy="459.75" rx="1" ry="0.75" fill="white"/>
<ellipse cx="1474" cy="459.75" rx="1" ry="0.75" fill="white"/>
<ellipse cx="1354" cy="534.75" rx="1" ry="0.75" fill="white"/>
<ellipse cx="1504" cy="534.75" rx="1" ry="0.75" fill="white"/>
<ellipse cx="1424" cy="617.25" rx="1" ry="0.75" fill="white"/>
<ellipse cx="1574" cy="617.25" rx="1" ry="0.75" fill="white"/>
<ellipse cx="1364" cy="699.75" rx="1" ry="0.749977" fill="white"/>
<ellipse cx="1514" cy="699.75" rx="1" ry="0.749977" fill="white"/>
<ellipse cx="1444" cy="780.75" rx="1" ry="0.75" fill="white"/>
<ellipse cx="1594" cy="780.75" rx="1" ry="0.75" fill="white"/>
<ellipse cx="1384" cy="863.25" rx="1" ry="0.75" fill="white"/>
<ellipse cx="1534" cy="863.25" rx="1" ry="0.75" fill="white"/>
<g filter="url(#filter1_d_307_2)">
<path d="M1673.91 507.235C1668.8 514.59 1632.21 507.871 1592.18 492.227C1552.15 476.583 1523.85 457.94 1528.96 450.585C1534.07 443.23 1570.66 449.949 1610.69 465.593C1650.71 481.237 1679.02 499.881 1673.91 507.235Z" fill="url(#paint0_linear_307_2)"/>
<path d="M1658.47 494.146C1656.98 496.286 1633.05 489.139 1605.02 478.183C1576.98 467.227 1555.47 456.61 1556.95 454.47C1558.44 452.33 1582.37 459.477 1610.4 470.433C1638.43 481.39 1659.95 492.006 1658.47 494.146Z" fill="#101220"/>
</g>
</g>
<defs>
<filter id="filter0_d_307_2" x="0" y="0" width="1620" height="920" filterUnits="userSpaceOnUse" color-interpolation-filters="sRGB">
<feFlood flood-opacity="0" result="BackgroundImageFix"/>
<feColorMatrix in="SourceAlpha" type="matrix" values="0 0 0 0 0 0 0 0 0 0 0 0 0 0 0 0 0 0 127 0" result="hardAlpha"/>
<feOffset dy="4"/>
<feGaussianBlur stdDeviation="5"/>
<feColorMatrix type="matrix" values="0 0 0 0 0 0 0 0 0 0 0 0 0 0 0 0 0 0 0.25 0"/>
<feBlend mode="normal" in2="BackgroundImageFix" result="effect1_dropShadow_307_2"/>
<feBlend mode="normal" in="SourceGraphic" in2="effect1_dropShadow_307_2" result="shape"/>
</filter>
<filter id="filter1_d_307_2" x="571.496" y="447.603" width="1559.5" height="1197.64" filterUnits="userSpaceOnUse" color-interpolation-filters="sRGB">
<feFlood flood-opacity="0" result="BackgroundImageFix"/>
<feColorMatrix in="SourceAlpha" type="matrix" values="0 0 0 0 0 0 0 0 0 0 0 0 0 0 0 0 0 0 127 0" result="hardAlpha"/>
<feOffset dy="4"/>
<feGaussianBlur stdDeviation="2"/>
<feColorMatrix type="matrix" values="0 0 0 0 0 0 0 0 0 0 0 0 0 0 0 0 0 0 0.25 0"/>
<feBlend mode="normal" in2="BackgroundImageFix" result="effect1_dropShadow_307_2"/>
<feBlend mode="normal" in="SourceGraphic" in2="effect1_dropShadow_307_2" result="shape"/>
</filter>
<linearGradient id="paint0_linear_307_2" x1="1521.09" y1="446.24" x2="1660.88" y2="526.71" gradientUnits="userSpaceOnUse">
<stop stop-color="#2E303E"/>
<stop offset="1" stop-color="#292B39"/>
</linearGradient>
<clipPath id="clip0_307_2">
<rect width="1600" height="900" fill="white" transform="translate(10 6)"/>
</clipPath>
</defs>
</svg>
