<svg width="137" height="36" viewBox="0 0 137 36" fill="none" xmlns="http://www.w3.org/2000/svg">
<rect x="0.25" y="0.25" width="136.5" height="35.5" rx="4.75" stroke="white" stroke-width="0.5"/>
<path d="M31.04 25.1C29.7867 25.1133 28.8133 24.8667 28.12 24.36C27.4267 23.8533 26.94 23.0467 26.66 21.94C26.3933 20.8333 26.26 19.3867 26.26 17.6C26.26 15.9067 26.4 14.5133 26.68 13.42C26.9733 12.3267 27.4667 11.52 28.16 11C28.8667 10.4667 29.8467 10.2 31.1 10.2C31.5667 10.2 32.0733 10.22 32.62 10.26C33.18 10.3 33.7333 10.3533 34.28 10.42C34.8267 10.4867 35.32 10.5667 35.76 10.66V11.52C35.4933 11.4933 35.1133 11.46 34.62 11.42C34.14 11.3667 33.6 11.3267 33 11.3C32.4133 11.26 31.8267 11.24 31.24 11.24C30.24 11.24 29.46 11.46 28.9 11.9C28.3533 12.3267 27.9667 13.0067 27.74 13.94C27.5267 14.8733 27.42 16.1067 27.42 17.64C27.42 19.28 27.5267 20.5667 27.74 21.5C27.9667 22.42 28.36 23.0733 28.92 23.46C29.48 23.8467 30.2733 24.04 31.3 24.04C31.9667 24.04 32.6533 23.9467 33.36 23.76C34.08 23.5733 34.7 23.3733 35.22 23.16V18.38H31.38V17.54C31.7667 17.4867 32.2467 17.44 32.82 17.4C33.3933 17.36 34 17.34 34.64 17.34C34.9733 17.34 35.2867 17.3467 35.58 17.36C35.8733 17.3733 36.1267 17.3933 36.34 17.42V25H35.5L35.3 23.96C34.7933 24.2133 34.16 24.4667 33.4 24.72C32.6533 24.96 31.8667 25.0867 31.04 25.1ZM44.8083 25.12C43.8749 25.12 43.0616 25.0333 42.3683 24.86C41.6749 24.6867 41.0949 24.3467 40.6283 23.84C40.1749 23.3333 39.8283 22.5933 39.5883 21.62C39.3616 20.6467 39.2483 19.3533 39.2483 17.74C39.2483 16.1267 39.3683 14.8267 39.6083 13.84C39.8483 12.84 40.2016 12.08 40.6683 11.56C41.1349 11.0267 41.7149 10.6667 42.4083 10.48C43.1016 10.2933 43.9016 10.2 44.8083 10.2C45.7549 10.2 46.5749 10.2933 47.2683 10.48C47.9616 10.6667 48.5349 11.0267 48.9883 11.56C49.4549 12.08 49.8016 12.84 50.0283 13.84C50.2549 14.8267 50.3683 16.1267 50.3683 17.74C50.3683 19.3533 50.2549 20.6467 50.0283 21.62C49.8016 22.5933 49.4549 23.3333 48.9883 23.84C48.5216 24.3467 47.9416 24.6867 47.2483 24.86C46.5549 25.0333 45.7416 25.12 44.8083 25.12ZM44.8083 24.08C45.5949 24.08 46.2683 24.0067 46.8283 23.86C47.3883 23.7 47.8416 23.4067 48.1883 22.98C48.5349 22.54 48.7883 21.9 48.9483 21.06C49.1216 20.22 49.2083 19.1133 49.2083 17.74C49.2083 16.3 49.1216 15.1467 48.9483 14.28C48.7883 13.4133 48.5283 12.7667 48.1683 12.34C47.8216 11.9 47.3683 11.6067 46.8083 11.46C46.2616 11.3133 45.5949 11.24 44.8083 11.24C44.0749 11.24 43.4349 11.3133 42.8883 11.46C42.3416 11.6067 41.8816 11.9 41.5083 12.34C41.1483 12.7667 40.8749 13.4133 40.6883 14.28C40.5016 15.1467 40.4083 16.3 40.4083 17.74C40.4083 19.1133 40.4816 20.22 40.6283 21.06C40.7883 21.9 41.0416 22.54 41.3883 22.98C41.7349 23.4067 42.1883 23.7 42.7483 23.86C43.3083 24.0067 43.9949 24.08 44.8083 24.08ZM58.7294 25V10.32H59.8894V17.34H67.8094V10.32H68.9694V25H67.8094V18.38H59.8894V25H58.7294ZM77.4255 25.12C76.4921 25.12 75.6788 25.0333 74.9855 24.86C74.2921 24.6867 73.7121 24.3467 73.2455 23.84C72.7921 23.3333 72.4455 22.5933 72.2055 21.62C71.9788 20.6467 71.8655 19.3533 71.8655 17.74C71.8655 16.1267 71.9855 14.8267 72.2255 13.84C72.4655 12.84 72.8188 12.08 73.2855 11.56C73.7521 11.0267 74.3321 10.6667 75.0255 10.48C75.7188 10.2933 76.5188 10.2 77.4255 10.2C78.3721 10.2 79.1921 10.2933 79.8855 10.48C80.5788 10.6667 81.1521 11.0267 81.6055 11.56C82.0721 12.08 82.4188 12.84 82.6455 13.84C82.8721 14.8267 82.9855 16.1267 82.9855 17.74C82.9855 19.3533 82.8721 20.6467 82.6455 21.62C82.4188 22.5933 82.0721 23.3333 81.6055 23.84C81.1388 24.3467 80.5588 24.6867 79.8655 24.86C79.1721 25.0333 78.3588 25.12 77.4255 25.12ZM77.4255 24.08C78.2121 24.08 78.8855 24.0067 79.4455 23.86C80.0055 23.7 80.4588 23.4067 80.8055 22.98C81.1521 22.54 81.4055 21.9 81.5655 21.06C81.7388 20.22 81.8255 19.1133 81.8255 17.74C81.8255 16.3 81.7388 15.1467 81.5655 14.28C81.4055 13.4133 81.1455 12.7667 80.7855 12.34C80.4388 11.9 79.9855 11.6067 79.4255 11.46C78.8788 11.3133 78.2121 11.24 77.4255 11.24C76.6921 11.24 76.0521 11.3133 75.5055 11.46C74.9588 11.6067 74.4988 11.9 74.1255 12.34C73.7655 12.7667 73.4921 13.4133 73.3055 14.28C73.1188 15.1467 73.0255 16.3 73.0255 17.74C73.0255 19.1133 73.0988 20.22 73.2455 21.06C73.4055 21.9 73.6588 22.54 74.0055 22.98C74.3521 23.4067 74.8055 23.7 75.3655 23.86C75.9255 24.0067 76.6121 24.08 77.4255 24.08ZM85.0677 25L86.7277 10.32H87.9877L92.0477 23.46L96.0477 10.32H97.3277L99.0277 25H97.9077L96.4077 12.06L92.5877 25H91.5077L87.6077 12.1L86.1877 25H85.0677ZM104.483 25.08C104.163 25.08 103.823 25.0533 103.463 25C103.116 24.9467 102.796 24.8333 102.503 24.66C102.209 24.4733 101.969 24.2 101.783 23.84C101.596 23.4667 101.503 22.9667 101.503 22.34V13.14C101.503 12.42 101.636 11.8533 101.903 11.44C102.183 11.0267 102.529 10.7333 102.943 10.56C103.369 10.3867 103.809 10.3067 104.263 10.32C105.396 10.3333 106.456 10.3533 107.443 10.38C108.443 10.4067 109.403 10.44 110.323 10.48V11.38H104.503C103.943 11.38 103.496 11.5333 103.163 11.84C102.829 12.1333 102.663 12.6133 102.663 13.28V17.18L109.483 17.28V18.14L102.663 18.24V22.12C102.663 22.6667 102.756 23.0733 102.943 23.34C103.143 23.6067 103.389 23.7867 103.683 23.88C103.989 23.96 104.309 24 104.643 24H110.323V24.9C109.389 24.94 108.423 24.9733 107.423 25C106.423 25.0267 105.443 25.0533 104.483 25.08Z" fill="white"/>
</svg>
