<svg width="137" height="36" viewBox="0 0 137 36" fill="none" xmlns="http://www.w3.org/2000/svg">
<rect x="0.25" y="0.25" width="136.5" height="35.5" rx="4.75" stroke="white" stroke-width="0.5"/>
<path d="M34.04 25.1C32.7867 25.1133 31.8133 24.8667 31.12 24.36C30.4267 23.8533 29.94 23.0467 29.66 21.94C29.3933 20.8333 29.26 19.3867 29.26 17.6C29.26 15.9067 29.4 14.5133 29.68 13.42C29.9733 12.3267 30.4667 11.52 31.16 11C31.8667 10.4667 32.8467 10.2 34.1 10.2C34.5667 10.2 35.0733 10.22 35.62 10.26C36.18 10.3 36.7333 10.3533 37.28 10.42C37.8267 10.4867 38.32 10.5667 38.76 10.66V11.52C38.4933 11.4933 38.1133 11.46 37.62 11.42C37.14 11.3667 36.6 11.3267 36 11.3C35.4133 11.26 34.8267 11.24 34.24 11.24C33.24 11.24 32.46 11.46 31.9 11.9C31.3533 12.3267 30.9667 13.0067 30.74 13.94C30.5267 14.8733 30.42 16.1067 30.42 17.64C30.42 19.28 30.5267 20.5667 30.74 21.5C30.9667 22.42 31.36 23.0733 31.92 23.46C32.48 23.8467 33.2733 24.04 34.3 24.04C34.9667 24.04 35.6533 23.9467 36.36 23.76C37.08 23.5733 37.7 23.3733 38.22 23.16V18.38H34.38V17.54C34.7667 17.4867 35.2467 17.44 35.82 17.4C36.3933 17.36 37 17.34 37.64 17.34C37.9733 17.34 38.2867 17.3467 38.58 17.36C38.8733 17.3733 39.1267 17.3933 39.34 17.42V25H38.5L38.3 23.96C37.7933 24.2133 37.16 24.4667 36.4 24.72C35.6533 24.96 34.8667 25.0867 34.04 25.1ZM47.8083 25.12C46.8749 25.12 46.0616 25.0333 45.3683 24.86C44.6749 24.6867 44.0949 24.3467 43.6283 23.84C43.1749 23.3333 42.8283 22.5933 42.5883 21.62C42.3616 20.6467 42.2483 19.3533 42.2483 17.74C42.2483 16.1267 42.3683 14.8267 42.6083 13.84C42.8483 12.84 43.2016 12.08 43.6683 11.56C44.1349 11.0267 44.7149 10.6667 45.4083 10.48C46.1016 10.2933 46.9016 10.2 47.8083 10.2C48.7549 10.2 49.5749 10.2933 50.2683 10.48C50.9616 10.6667 51.5349 11.0267 51.9883 11.56C52.4549 12.08 52.8016 12.84 53.0283 13.84C53.2549 14.8267 53.3683 16.1267 53.3683 17.74C53.3683 19.3533 53.2549 20.6467 53.0283 21.62C52.8016 22.5933 52.4549 23.3333 51.9883 23.84C51.5216 24.3467 50.9416 24.6867 50.2483 24.86C49.5549 25.0333 48.7416 25.12 47.8083 25.12ZM47.8083 24.08C48.5949 24.08 49.2683 24.0067 49.8283 23.86C50.3883 23.7 50.8416 23.4067 51.1883 22.98C51.5349 22.54 51.7883 21.9 51.9483 21.06C52.1216 20.22 52.2083 19.1133 52.2083 17.74C52.2083 16.3 52.1216 15.1467 51.9483 14.28C51.7883 13.4133 51.5283 12.7667 51.1683 12.34C50.8216 11.9 50.3683 11.6067 49.8083 11.46C49.2616 11.3133 48.5949 11.24 47.8083 11.24C47.0749 11.24 46.4349 11.3133 45.8883 11.46C45.3416 11.6067 44.8816 11.9 44.5083 12.34C44.1483 12.7667 43.8749 13.4133 43.6883 14.28C43.5016 15.1467 43.4083 16.3 43.4083 17.74C43.4083 19.1133 43.4816 20.22 43.6283 21.06C43.7883 21.9 44.0416 22.54 44.3883 22.98C44.7349 23.4067 45.1883 23.7 45.7483 23.86C46.3083 24.0067 46.9949 24.08 47.8083 24.08ZM61.7294 25V10.32H66.9094C68.1094 10.32 69.016 10.6267 69.6294 11.24C70.256 11.84 70.5694 12.78 70.5694 14.06C70.5694 14.9933 70.356 15.74 69.9294 16.3C69.516 16.86 69.036 17.22 68.4894 17.38C68.8094 17.46 69.176 17.6267 69.5894 17.88C70.0027 18.12 70.356 18.4867 70.6494 18.98C70.9427 19.4733 71.0894 20.12 71.0894 20.92C71.0894 21.9733 70.9227 22.8 70.5894 23.4C70.2694 23.9867 69.8027 24.4 69.1894 24.64C68.5894 24.88 67.8827 25 67.0694 25H61.7294ZM62.8894 16.96H67.0094C67.7027 16.96 68.276 16.7133 68.7294 16.22C69.1827 15.7133 69.4227 15.04 69.4494 14.2C69.4894 13.1467 69.2627 12.4133 68.7694 12C68.2894 11.5733 67.6627 11.36 66.8894 11.36H62.8894V16.96ZM62.8894 23.96H67.0494C67.6227 23.96 68.1294 23.8733 68.5694 23.7C69.0094 23.5267 69.3494 23.2067 69.5894 22.74C69.8427 22.2733 69.9694 21.6067 69.9694 20.74C69.9694 19.8467 69.6827 19.1533 69.1094 18.66C68.5494 18.1533 67.8627 17.9 67.0494 17.9H62.8894V23.96ZM72.8034 25L77.9834 10.32H79.4834L84.6634 25H83.4434L81.8234 20.44H75.6234L74.0234 25H72.8034ZM75.9234 19.4H81.4834L78.7234 11.36L75.9234 19.4ZM91.6461 25.12C90.7528 25.12 89.9794 25.02 89.3261 24.82C88.6861 24.62 88.1528 24.26 87.7261 23.74C87.3128 23.2067 87.0061 22.4467 86.8061 21.46C86.6061 20.4733 86.5061 19.1933 86.5061 17.62C86.5061 16.14 86.6061 14.92 86.8061 13.96C87.0194 12.9867 87.3394 12.2267 87.7661 11.68C88.1928 11.1333 88.7394 10.7533 89.4061 10.54C90.0728 10.3133 90.8661 10.2 91.7861 10.2C92.1194 10.2 92.5261 10.22 93.0061 10.26C93.4861 10.3 93.9794 10.36 94.4861 10.44C94.9928 10.5067 95.4594 10.5867 95.8861 10.68V11.54C95.6728 11.5 95.3528 11.46 94.9261 11.42C94.4994 11.3667 94.0194 11.3267 93.4861 11.3C92.9661 11.26 92.4461 11.24 91.9261 11.24C91.1528 11.24 90.4928 11.3333 89.9461 11.52C89.4128 11.6933 88.9794 12.0133 88.6461 12.48C88.3128 12.9333 88.0661 13.58 87.9061 14.42C87.7461 15.2467 87.6661 16.3133 87.6661 17.62C87.6661 18.9933 87.7394 20.1067 87.8861 20.96C88.0461 21.8 88.2861 22.4467 88.6061 22.9C88.9394 23.3533 89.3728 23.6667 89.9061 23.84C90.4394 24 91.0861 24.08 91.8461 24.08C92.8461 24.08 93.6661 24.0533 94.3061 24C94.9594 23.9467 95.4861 23.8867 95.8861 23.82V24.68C95.2594 24.8133 94.5594 24.92 93.7861 25C93.0128 25.08 92.2994 25.12 91.6461 25.12ZM98.4481 25V10.32H99.6081V17.14H102.408L106.728 10.32H107.968L103.328 17.66L108.008 25H106.748L102.388 18.18H99.6081V25H98.4481Z" fill="white"/>
</svg>
