<svg width="393" height="472" viewBox="0 0 393 472" fill="none" xmlns="http://www.w3.org/2000/svg">
<path d="M77.9988 336.133V303.315H6.96819L0 285.557L51.0252 169.345H90.5865L46.08 270.272H77.9988V241.95L85.4166 221.495H116.886V270.272H131.946V297.246L116.886 303.315V336.133H77.9988Z" fill="#3E404E"/>
<g filter="url(#filter0_d_563_209)">
<path d="M275.522 224.504C294.614 268.151 274.708 319.01 231.062 338.101C187.415 357.193 136.556 337.287 117.465 293.64C98.3736 249.994 118.279 199.135 161.926 180.044C205.572 160.952 256.431 180.858 275.522 224.504Z" fill="url(#paint0_linear_563_209)"/>
<path d="M162.158 233.853C165.096 240.568 162.034 248.393 155.32 251.33C148.605 254.268 140.78 251.206 137.843 244.492C134.905 237.777 137.967 229.952 144.681 227.015C151.396 224.077 159.221 227.139 162.158 233.853Z" fill="url(#paint1_linear_563_209)"/>
<path d="M243.205 198.717C244.891 200.673 244.573 203.232 242.493 204.431C240.413 205.631 237.36 205.017 235.673 203.061C233.987 201.104 234.305 198.546 236.385 197.346C238.465 196.147 241.518 196.76 243.205 198.717Z" fill="url(#paint2_linear_563_209)"/>
<path d="M273.681 260.713C276.307 261.627 277.41 265.312 276.145 268.945C274.881 272.577 271.727 274.781 269.101 273.866C266.476 272.952 265.373 269.267 266.637 265.634C267.902 262.002 271.056 259.798 273.681 260.713Z" fill="url(#paint3_linear_563_209)"/>
<path d="M193.974 175.932C194.144 177.413 191.183 178.968 187.362 179.405C183.541 179.843 180.306 178.997 180.136 177.516C179.967 176.035 182.927 174.48 186.748 174.043C190.57 173.606 193.805 174.452 193.974 175.932Z" fill="url(#paint4_linear_563_209)"/>
<path d="M226.351 308.63C228.204 318.281 220.425 327.887 208.975 330.086C197.524 332.285 186.74 326.245 184.886 316.594C183.033 306.943 190.812 297.337 202.263 295.138C213.713 292.939 224.497 298.98 226.351 308.63Z" fill="url(#paint5_linear_563_209)"/>
<path d="M167.389 176.59C167.965 177.767 164.534 180.626 159.727 182.974C154.92 185.323 150.557 186.272 149.981 185.094C149.406 183.917 152.836 181.058 157.643 178.709C162.45 176.361 166.814 175.412 167.389 176.59Z" fill="#C00C14"/>
<path d="M168.145 178.137C169.138 180.169 166.046 183.721 161.239 186.069C156.432 188.418 151.73 188.674 150.737 186.642C149.744 184.61 152.836 181.058 157.643 178.71C162.45 176.361 167.152 176.105 168.145 178.137Z" fill="#C00C14"/>
<path d="M164.638 176.833C164.805 177.176 162.212 178.787 158.845 180.432C155.479 182.077 152.614 183.132 152.446 182.79C152.279 182.447 154.872 180.836 158.239 179.191C161.606 177.546 164.47 176.49 164.638 176.833Z" fill="#400003"/>
<path d="M107.249 271.788C109.289 271.167 112.999 277.415 115.536 285.744C118.072 294.073 118.474 301.329 116.433 301.95C114.392 302.572 110.682 296.323 108.146 287.994C105.61 279.665 105.208 272.41 107.249 271.788Z" fill="url(#paint6_linear_563_209)"/>
<path d="M109.929 270.972C113.45 269.899 118.361 275.782 120.897 284.111C123.433 292.44 122.635 300.061 119.114 301.133C115.592 302.206 110.682 296.323 108.146 287.994C105.609 279.665 106.408 272.044 109.929 270.972Z" fill="url(#paint7_linear_563_209)"/>
<path d="M106.932 276.272C107.526 276.091 109.447 280.673 111.223 286.506C113 292.34 113.958 297.215 113.364 297.396C112.771 297.577 110.849 292.994 109.073 287.161C107.297 281.328 106.338 276.452 106.932 276.272Z" fill="#400104"/>
<path d="M180.004 342.329C180.084 341.2 187.202 340.424 195.902 340.597C204.602 340.77 211.591 341.826 211.511 342.955C211.431 344.085 204.313 344.861 195.613 344.688C186.912 344.515 179.924 343.459 180.004 342.329Z" fill="url(#paint8_linear_563_209)"/>
<path d="M180.109 340.845C180.247 338.896 187.412 337.456 196.112 337.628C204.813 337.801 211.754 339.522 211.616 341.471C211.478 343.42 204.313 344.861 195.613 344.688C186.913 344.515 179.971 342.795 180.109 340.845Z" fill="url(#paint9_linear_563_209)"/>
<path d="M184.137 343.265C184.16 342.936 189.118 342.768 195.212 342.889C201.305 343.01 206.226 343.375 206.203 343.703C206.18 344.032 201.221 344.2 195.128 344.079C189.034 343.958 184.113 343.594 184.137 343.265Z" fill="#150303"/>
<path d="M269.63 307.47C267.934 306.698 269.114 300.461 272.266 293.539C275.419 286.618 279.349 281.633 281.045 282.405C282.74 283.177 281.56 289.414 278.408 296.336C275.255 303.258 271.325 308.243 269.63 307.47Z" fill="url(#paint10_linear_563_209)"/>
<path d="M267.401 306.457C264.475 305.124 264.658 298.433 267.81 291.511C270.962 284.589 275.89 280.058 278.816 281.391C281.742 282.724 281.559 289.415 278.407 296.337C275.255 303.259 270.327 307.789 267.401 306.457Z" fill="url(#paint11_linear_563_209)"/>
<path d="M272.427 304.718C271.934 304.493 273.324 300.381 275.531 295.533C277.739 290.685 279.929 286.938 280.422 287.162C280.916 287.387 279.526 291.499 277.318 296.347C275.111 301.195 272.921 304.942 272.427 304.718Z" fill="#130406"/>
<path d="M270.089 211.407C269.129 212.061 266.188 209.417 263.519 205.501C260.849 201.586 259.463 197.881 260.422 197.228C261.382 196.574 264.323 199.218 266.993 203.133C269.662 207.049 271.048 210.753 270.089 211.407Z" fill="url(#paint12_linear_563_209)"/>
<path d="M268.829 212.266C267.173 213.395 263.667 211.135 260.998 207.22C258.329 203.304 257.507 199.215 259.162 198.087C260.818 196.958 264.324 199.218 266.993 203.133C269.662 207.049 270.484 211.138 268.829 212.266Z" fill="url(#paint13_linear_563_209)"/>
<path d="M269.526 209.026C269.247 209.216 267.505 207.147 265.635 204.405C263.766 201.663 262.477 199.286 262.756 199.095C263.035 198.905 264.777 200.974 266.646 203.716C268.516 206.458 269.805 208.836 269.526 209.026Z" fill="#3D0002"/>
<path d="M216.353 247.467C216.353 252.047 212.64 255.761 208.059 255.761C203.478 255.761 199.765 252.047 199.765 247.467C199.765 242.886 203.478 239.173 208.059 239.173C212.64 239.173 216.353 242.886 216.353 247.467Z" fill="#91080D"/>
<path d="M144.692 308.07C142.61 309.863 138.498 308.504 135.509 305.034C132.519 301.563 131.783 297.296 133.865 295.502C135.948 293.708 140.059 295.067 143.049 298.538C146.039 302.008 146.775 306.276 144.692 308.07Z" fill="#79080D"/>
<path d="M209.718 191.067C209.718 193.815 206.005 196.043 201.424 196.043C196.844 196.043 193.13 193.815 193.13 191.067C193.13 188.319 196.844 186.091 201.424 186.091C206.005 186.091 209.718 188.319 209.718 191.067Z" fill="#BD0C14"/>
<path d="M258.665 296.004C260.472 298.075 259.139 302.195 255.687 305.207C252.235 308.219 247.972 308.981 246.165 306.91C244.358 304.839 245.692 300.719 249.143 297.707C252.595 294.696 256.858 293.933 258.665 296.004Z" fill="#580508"/>
</g>
<g filter="url(#filter1_d_563_209)">
<path d="M338.744 336.133V303.315H267.714L260.745 285.557L311.771 169.345H351.332L306.825 270.272H338.744V241.95L346.162 221.495H377.631V270.272H392.691V297.246L377.631 303.315V336.133H338.744Z" fill="#3E404E"/>
</g>
<path d="M143.25 415.3C140.85 415.3 138.733 415.083 136.9 414.65C135.1 414.183 133.583 413.3 132.35 412C131.15 410.7 130.25 408.833 129.65 406.4C129.05 403.933 128.75 400.7 128.75 396.7C128.75 392.7 129.05 389.467 129.65 387C130.283 384.5 131.2 382.6 132.4 381.3C133.633 379.967 135.15 379.067 136.95 378.6C138.783 378.1 140.883 377.85 143.25 377.85C145.683 377.85 147.8 378.1 149.6 378.6C151.433 379.067 152.95 379.967 154.15 381.3C155.383 382.6 156.3 384.5 156.9 387C157.5 389.467 157.8 392.7 157.8 396.7C157.8 400.7 157.483 403.933 156.85 406.4C156.25 408.833 155.35 410.7 154.15 412C152.95 413.3 151.433 414.183 149.6 414.65C147.8 415.083 145.683 415.3 143.25 415.3ZM143.25 410.8C144.983 410.8 146.45 410.633 147.65 410.3C148.883 409.933 149.867 409.267 150.6 408.3C151.367 407.3 151.917 405.867 152.25 404C152.583 402.133 152.75 399.7 152.75 396.7C152.75 393.567 152.583 391.05 152.25 389.15C151.917 387.217 151.367 385.767 150.6 384.8C149.867 383.833 148.883 383.183 147.65 382.85C146.45 382.517 144.983 382.35 143.25 382.35C141.617 382.35 140.2 382.517 139 382.85C137.8 383.183 136.817 383.833 136.05 384.8C135.283 385.767 134.7 387.217 134.3 389.15C133.933 391.05 133.75 393.567 133.75 396.7C133.75 399.7 133.9 402.133 134.2 404C134.533 405.867 135.067 407.3 135.8 408.3C136.533 409.267 137.5 409.933 138.7 410.3C139.933 410.633 141.45 410.8 143.25 410.8ZM177.771 415.3C175.371 415.3 173.255 415.083 171.421 414.65C169.621 414.183 168.105 413.3 166.871 412C165.671 410.7 164.771 408.833 164.171 406.4C163.571 403.933 163.271 400.7 163.271 396.7C163.271 392.7 163.571 389.467 164.171 387C164.805 384.5 165.721 382.6 166.921 381.3C168.155 379.967 169.671 379.067 171.471 378.6C173.305 378.1 175.405 377.85 177.771 377.85C180.205 377.85 182.321 378.1 184.121 378.6C185.955 379.067 187.471 379.967 188.671 381.3C189.905 382.6 190.821 384.5 191.421 387C192.021 389.467 192.321 392.7 192.321 396.7C192.321 400.7 192.005 403.933 191.371 406.4C190.771 408.833 189.871 410.7 188.671 412C187.471 413.3 185.955 414.183 184.121 414.65C182.321 415.083 180.205 415.3 177.771 415.3ZM177.771 410.8C179.505 410.8 180.971 410.633 182.171 410.3C183.405 409.933 184.388 409.267 185.121 408.3C185.888 407.3 186.438 405.867 186.771 404C187.105 402.133 187.271 399.7 187.271 396.7C187.271 393.567 187.105 391.05 186.771 389.15C186.438 387.217 185.888 385.767 185.121 384.8C184.388 383.833 183.405 383.183 182.171 382.85C180.971 382.517 179.505 382.35 177.771 382.35C176.138 382.35 174.721 382.517 173.521 382.85C172.321 383.183 171.338 383.833 170.571 384.8C169.805 385.767 169.221 387.217 168.821 389.15C168.455 391.05 168.271 393.567 168.271 396.7C168.271 399.7 168.421 402.133 168.721 404C169.055 405.867 169.588 407.3 170.321 408.3C171.055 409.267 172.021 409.933 173.221 410.3C174.455 410.633 175.971 410.8 177.771 410.8ZM198.693 415V378.15H213.643C214.743 378.15 215.876 378.3 217.043 378.6C218.21 378.867 219.276 379.417 220.243 380.25C221.243 381.083 222.043 382.3 222.643 383.9C223.243 385.467 223.543 387.567 223.543 390.2C223.543 392.833 223.226 394.967 222.593 396.6C221.993 398.233 221.193 399.483 220.193 400.35C219.193 401.217 218.11 401.8 216.943 402.1C215.776 402.4 214.66 402.55 213.593 402.55C213.06 402.55 212.326 402.533 211.393 402.5C210.493 402.467 209.543 402.417 208.543 402.35C207.543 402.283 206.61 402.217 205.743 402.15C204.876 402.083 204.21 402.017 203.743 401.95V415H198.693ZM203.743 398.05H212.893C213.96 398.05 214.91 397.817 215.743 397.35C216.61 396.883 217.276 396.083 217.743 394.95C218.243 393.783 218.493 392.217 218.493 390.25C218.493 388.283 218.243 386.75 217.743 385.65C217.276 384.55 216.643 383.783 215.843 383.35C215.043 382.883 214.16 382.65 213.193 382.65H203.743V398.05ZM239.812 415.3C238.745 415.3 237.495 415.25 236.062 415.15C234.662 415.083 233.278 414.983 231.912 414.85C230.578 414.683 229.462 414.5 228.562 414.3V410.4C229.862 410.5 231.528 410.6 233.562 410.7C235.628 410.767 237.645 410.8 239.612 410.8C241.045 410.8 242.312 410.667 243.412 410.4C244.545 410.133 245.428 409.633 246.062 408.9C246.728 408.167 247.062 407.133 247.062 405.8V403.65C247.062 402.15 246.645 401 245.812 400.2C245.012 399.4 243.778 399 242.112 399H238.362C235.195 399 232.728 398.3 230.962 396.9C229.195 395.5 228.312 393.1 228.312 389.7V387.65C228.312 384.15 229.262 381.65 231.162 380.15C233.095 378.617 235.828 377.85 239.362 377.85C240.528 377.85 241.778 377.917 243.112 378.05C244.445 378.15 245.728 378.283 246.962 378.45C248.228 378.617 249.295 378.783 250.162 378.95V382.85C248.662 382.75 246.978 382.65 245.112 382.55C243.278 382.417 241.545 382.35 239.912 382.35C237.812 382.35 236.145 382.733 234.912 383.5C233.712 384.233 233.112 385.7 233.112 387.9V389.4C233.112 391.2 233.578 392.45 234.512 393.15C235.478 393.85 236.845 394.2 238.612 394.2H242.662C245.795 394.2 248.112 395.033 249.612 396.7C251.112 398.367 251.862 400.483 251.862 403.05V405.65C251.862 408.283 251.328 410.3 250.262 411.7C249.195 413.067 247.745 414.017 245.912 414.55C244.112 415.05 242.078 415.3 239.812 415.3ZM259.363 404.95L258.713 378.2H263.763L263.013 404.95H259.363ZM259.763 415.05C259.163 415.05 258.863 414.767 258.863 414.2V409.85C258.863 409.25 259.163 408.95 259.763 408.95H262.613C263.213 408.95 263.513 409.25 263.513 409.85V414.2C263.513 414.767 263.213 415.05 262.613 415.05H259.763Z" fill="white"/>
<path d="M76.43 462V439.98H85.01C85.65 439.98 86.29 440.07 86.93 440.25C87.59 440.41 88.19 440.73 88.73 441.21C89.29 441.69 89.74 442.38 90.08 443.28C90.42 444.18 90.59 445.37 90.59 446.85C90.59 448.35 90.41 449.57 90.05 450.51C89.69 451.43 89.22 452.14 88.64 452.64C88.06 453.14 87.43 453.48 86.75 453.66C86.09 453.84 85.46 453.93 84.86 453.93C84.54 453.93 84.08 453.92 83.48 453.9C82.88 453.88 82.23 453.86 81.53 453.84C80.83 453.8 80.17 453.77 79.55 453.75C78.95 453.71 78.49 453.68 78.17 453.66V462H76.43ZM78.17 452.37H84.65C85.41 452.37 86.1 452.21 86.72 451.89C87.36 451.57 87.87 451.02 88.25 450.24C88.65 449.44 88.85 448.31 88.85 446.85C88.85 445.43 88.66 444.34 88.28 443.58C87.9 442.8 87.41 442.27 86.81 441.99C86.23 441.69 85.59 441.54 84.89 441.54H78.17V452.37ZM91.4884 462L99.2584 439.98H101.508L109.278 462H107.448L105.018 455.16H95.7184L93.3184 462H91.4884ZM96.1684 453.6H104.508L100.368 441.54L96.1684 453.6ZM119.212 462.15C117.332 462.17 115.872 461.8 114.832 461.04C113.792 460.28 113.062 459.07 112.642 457.41C112.242 455.75 112.042 453.58 112.042 450.9C112.042 448.36 112.252 446.27 112.672 444.63C113.112 442.99 113.852 441.78 114.892 441C115.952 440.2 117.422 439.8 119.302 439.8C120.002 439.8 120.762 439.83 121.582 439.89C122.422 439.95 123.252 440.03 124.072 440.13C124.892 440.23 125.632 440.35 126.292 440.49V441.78C125.892 441.74 125.322 441.69 124.582 441.63C123.862 441.55 123.052 441.49 122.152 441.45C121.272 441.39 120.392 441.36 119.512 441.36C118.012 441.36 116.842 441.69 116.002 442.35C115.182 442.99 114.602 444.01 114.262 445.41C113.942 446.81 113.782 448.66 113.782 450.96C113.782 453.42 113.942 455.35 114.262 456.75C114.602 458.13 115.192 459.11 116.032 459.69C116.872 460.27 118.062 460.56 119.602 460.56C120.602 460.56 121.632 460.42 122.692 460.14C123.772 459.86 124.702 459.56 125.482 459.24V452.07H119.722V450.81C120.302 450.73 121.022 450.66 121.882 450.6C122.742 450.54 123.652 450.51 124.612 450.51C125.112 450.51 125.582 450.52 126.022 450.54C126.462 450.56 126.842 450.59 127.162 450.63V462H125.902L125.602 460.44C124.842 460.82 123.892 461.2 122.752 461.58C121.632 461.94 120.452 462.13 119.212 462.15ZM136.535 462.12C136.055 462.12 135.545 462.08 135.005 462C134.485 461.92 134.005 461.75 133.565 461.49C133.125 461.21 132.765 460.8 132.485 460.26C132.205 459.7 132.065 458.95 132.065 458.01V444.21C132.065 443.13 132.265 442.28 132.665 441.66C133.085 441.04 133.605 440.6 134.225 440.34C134.865 440.08 135.525 439.96 136.205 439.98C137.905 440 139.495 440.03 140.975 440.07C142.475 440.11 143.915 440.16 145.295 440.22V441.57H136.565C135.725 441.57 135.055 441.8 134.555 442.26C134.055 442.7 133.805 443.42 133.805 444.42V450.27L144.035 450.42V451.71L133.805 451.86V457.68C133.805 458.5 133.945 459.11 134.225 459.51C134.525 459.91 134.895 460.18 135.335 460.32C135.795 460.44 136.275 460.5 136.775 460.5H145.295V461.85C143.895 461.91 142.445 461.96 140.945 462C139.445 462.04 137.975 462.08 136.535 462.12ZM158.297 462V439.98H159.767L171.947 458.97V439.98H173.687V462H172.247L160.037 443.01V462H158.297ZM185.89 462.18C184.49 462.18 183.27 462.05 182.23 461.79C181.19 461.53 180.32 461.02 179.62 460.26C178.94 459.5 178.42 458.39 178.06 456.93C177.72 455.47 177.55 453.53 177.55 451.11C177.55 448.69 177.73 446.74 178.09 445.26C178.45 443.76 178.98 442.62 179.68 441.84C180.38 441.04 181.25 440.5 182.29 440.22C183.33 439.94 184.53 439.8 185.89 439.8C187.31 439.8 188.54 439.94 189.58 440.22C190.62 440.5 191.48 441.04 192.16 441.84C192.86 442.62 193.38 443.76 193.72 445.26C194.06 446.74 194.23 448.69 194.23 451.11C194.23 453.53 194.06 455.47 193.72 456.93C193.38 458.39 192.86 459.5 192.16 460.26C191.46 461.02 190.59 461.53 189.55 461.79C188.51 462.05 187.29 462.18 185.89 462.18ZM185.89 460.62C187.07 460.62 188.08 460.51 188.92 460.29C189.76 460.05 190.44 459.61 190.96 458.97C191.48 458.31 191.86 457.35 192.1 456.09C192.36 454.83 192.49 453.17 192.49 451.11C192.49 448.95 192.36 447.22 192.1 445.92C191.86 444.62 191.47 443.65 190.93 443.01C190.41 442.35 189.73 441.91 188.89 441.69C188.07 441.47 187.07 441.36 185.89 441.36C184.79 441.36 183.83 441.47 183.01 441.69C182.19 441.91 181.5 442.35 180.94 443.01C180.4 443.65 179.99 444.62 179.71 445.92C179.43 447.22 179.29 448.95 179.29 451.11C179.29 453.17 179.4 454.83 179.62 456.09C179.86 457.35 180.24 458.31 180.76 458.97C181.28 459.61 181.96 460.05 182.8 460.29C183.64 460.51 184.67 460.62 185.89 460.62ZM203.493 462V441.54H196.443V439.98H212.283V441.54H205.233V462H203.493ZM223.412 462V444.21C223.412 443.13 223.612 442.28 224.012 441.66C224.432 441.04 224.952 440.6 225.572 440.34C226.212 440.08 226.872 439.96 227.552 439.98C228.932 440 230.402 440.03 231.962 440.07C233.542 440.09 235.102 440.14 236.642 440.22V441.57H227.882C227.042 441.57 226.372 441.81 225.872 442.29C225.392 442.75 225.152 443.46 225.152 444.42V450.72L235.382 450.87V452.16L225.152 452.31V462H223.412ZM248.117 462.18C246.717 462.18 245.497 462.05 244.457 461.79C243.417 461.53 242.547 461.02 241.847 460.26C241.167 459.5 240.647 458.39 240.287 456.93C239.947 455.47 239.777 453.53 239.777 451.11C239.777 448.69 239.957 446.74 240.317 445.26C240.677 443.76 241.207 442.62 241.907 441.84C242.607 441.04 243.477 440.5 244.517 440.22C245.557 439.94 246.757 439.8 248.117 439.8C249.537 439.8 250.767 439.94 251.807 440.22C252.847 440.5 253.707 441.04 254.387 441.84C255.087 442.62 255.607 443.76 255.947 445.26C256.287 446.74 256.457 448.69 256.457 451.11C256.457 453.53 256.287 455.47 255.947 456.93C255.607 458.39 255.087 459.5 254.387 460.26C253.687 461.02 252.817 461.53 251.777 461.79C250.737 462.05 249.517 462.18 248.117 462.18ZM248.117 460.62C249.297 460.62 250.307 460.51 251.147 460.29C251.987 460.05 252.667 459.61 253.187 458.97C253.707 458.31 254.087 457.35 254.327 456.09C254.587 454.83 254.717 453.17 254.717 451.11C254.717 448.95 254.587 447.22 254.327 445.92C254.087 444.62 253.697 443.65 253.157 443.01C252.637 442.35 251.957 441.91 251.117 441.69C250.297 441.47 249.297 441.36 248.117 441.36C247.017 441.36 246.057 441.47 245.237 441.69C244.417 441.91 243.727 442.35 243.167 443.01C242.627 443.65 242.217 444.62 241.937 445.92C241.657 447.22 241.517 448.95 241.517 451.11C241.517 453.17 241.627 454.83 241.847 456.09C242.087 457.35 242.467 458.31 242.987 458.97C243.507 459.61 244.187 460.05 245.027 460.29C245.867 460.51 246.897 460.62 248.117 460.62ZM268.416 462.18C266.776 462.18 265.356 461.98 264.156 461.58C262.976 461.16 262.066 460.45 261.426 459.45C260.786 458.43 260.466 457.03 260.466 455.25V439.98H262.206V455.25C262.206 456.65 262.456 457.74 262.956 458.52C263.456 459.28 264.166 459.82 265.086 460.14C266.006 460.44 267.116 460.59 268.416 460.59C269.736 460.59 270.856 460.44 271.776 460.14C272.696 459.82 273.396 459.28 273.876 458.52C274.376 457.74 274.626 456.65 274.626 455.25V439.98H276.366V455.25C276.366 457.03 276.046 458.43 275.406 459.45C274.786 460.45 273.876 461.16 272.676 461.58C271.496 461.98 270.076 462.18 268.416 462.18ZM281.431 462V439.98H282.901L295.081 458.97V439.98H296.821V462H295.381L283.171 443.01V462H281.431ZM301.225 462V439.98H309.745C312.305 439.98 314.125 440.91 315.205 442.77C316.305 444.63 316.855 447.37 316.855 450.99C316.855 453.25 316.585 455.2 316.045 456.84C315.525 458.48 314.735 459.75 313.675 460.65C312.635 461.55 311.325 462 309.745 462H301.225ZM302.965 460.44H309.625C310.885 460.44 311.915 460.05 312.715 459.27C313.535 458.47 314.135 457.36 314.515 455.94C314.915 454.52 315.115 452.87 315.115 450.99C315.115 448.71 314.925 446.88 314.545 445.5C314.185 444.12 313.595 443.12 312.775 442.5C311.975 441.86 310.925 441.54 309.625 441.54H302.965V460.44Z" fill="white"/>
<g opacity="0.2">
<path d="M198.787 198.916C224.678 198.916 245.666 195.529 245.666 191.351C245.666 187.174 224.678 183.787 198.787 183.787C172.896 183.787 151.908 187.174 151.908 191.351C151.908 195.529 172.896 198.916 198.787 198.916Z" fill="#371A45"/>
</g>
<path d="M243.444 140.025C243.333 140.525 243.182 141.008 242.997 141.472C241.863 144.325 239.403 146.49 236.351 147.205C227.845 149.206 209.842 151.633 188.708 143.902C188.708 143.902 184.184 102.204 192.951 81.2987C192.951 81.2987 212.511 77.2402 238.838 85.4072C241.087 86.1018 242.93 87.5892 244.102 89.509C244.934 90.8718 245.431 92.456 245.488 94.1281C245.87 105.195 246.22 127.609 243.444 140.025V140.025Z" fill="white"/>
<path d="M218.383 150.559C209.801 150.559 199.463 149.265 188.247 145.162C187.767 144.987 187.428 144.554 187.373 144.046C187.187 142.33 182.911 101.764 191.714 80.7781C191.885 80.3703 192.246 80.0726 192.68 79.9829C193.492 79.8145 212.88 75.9497 239.237 84.1239C243.619 85.4825 246.67 89.4839 246.829 94.0807C247.242 106.031 247.523 127.929 244.755 140.317C243.853 144.352 240.675 147.57 236.657 148.513C232.425 149.507 226.117 150.559 218.382 150.559L218.383 150.559ZM189.96 142.926C210.286 150.144 227.519 147.901 236.043 145.899C239.065 145.189 241.456 142.769 242.134 139.731C244.837 127.635 244.554 105.996 244.145 94.1734C244.026 90.7175 241.734 87.7097 238.442 86.689C215.507 79.5764 197.591 81.8925 193.916 82.491C186.403 101.415 189.399 137.039 189.96 142.926V142.926Z" fill="#371A45"/>
<path d="M243.166 90.018C243.168 90.0138 243.132 90.0005 243.105 89.9891C243.078 89.9771 243.045 89.9657 243.013 89.9542C242.949 89.9302 242.882 89.9073 242.812 89.8863C242.676 89.84 242.529 89.8045 242.385 89.7642C242.092 89.6938 241.791 89.6319 241.486 89.5886C240.875 89.4995 240.246 89.461 239.616 89.4935C238.987 89.5242 238.349 89.5988 237.725 89.7564C237.094 89.8935 236.484 90.1238 235.875 90.3764L235.847 90.3879C235.597 90.4913 235.31 90.3728 235.207 90.1226C235.117 89.9049 235.195 89.6601 235.382 89.532C235.971 89.1266 236.587 88.7345 237.254 88.4338C237.913 88.1126 238.614 87.8732 239.334 87.6844C240.054 87.4937 240.799 87.3807 241.555 87.3313C241.933 87.3061 242.315 87.3025 242.701 87.3127C242.896 87.3235 243.089 87.3307 243.288 87.3518C243.386 87.3596 243.487 87.3716 243.59 87.3861L243.747 87.4089C243.803 87.4186 243.85 87.4246 243.934 87.445C244.645 87.6573 245.049 88.4055 244.837 89.1158C244.624 89.8261 243.877 90.2303 243.166 90.018V90.018Z" fill="#371A45"/>
<g opacity="0.2">
<path d="M239.861 142.854C240.757 142.411 241.539 141.804 242.258 141.112C241.123 143.965 238.663 146.131 235.611 146.846C227.105 148.847 209.103 151.273 187.968 143.543C187.968 143.543 183.444 101.845 192.212 80.9391C192.212 80.9391 211.772 76.8806 238.099 85.0475C240.347 85.7422 242.19 87.2296 243.362 89.1494C242.18 89.2534 241.009 89.7099 240.163 90.5122C237.85 92.7009 237.346 96.1417 236.981 99.3035C236.199 106.007 235.416 112.71 234.634 119.41C233.987 124.956 233.342 130.501 232.694 136.043C232.452 138.124 232.284 140.471 233.644 142.065C235.105 143.777 237.844 143.855 239.861 142.854V142.854Z" fill="#371A45"/>
</g>
<path d="M267.538 105.275C266.568 107.541 259.771 105.275 259.771 105.275C259.771 105.275 261.389 109.807 264.303 112.72C264.927 113.345 265.494 114.104 265.918 114.943C267.478 118.014 267.17 122.153 261.067 124.698C253.296 127.933 248.117 121.784 245.206 117.575C245.206 117.575 241.967 127.48 231.934 125.604C231.934 125.604 234.199 134.405 231.611 140.881C229.02 147.356 229.346 167.423 229.346 167.423C229.346 167.423 231.286 184.253 229.346 188.463C227.402 192.672 207.547 195.583 198.702 190.729C198.702 190.729 181.763 193.964 171.405 191.699C164.99 190.296 164.409 185.912 166.208 182.548C167.309 180.481 169.31 178.799 171.405 178.43C171.405 178.43 167.235 138.293 168.511 120.166C168.511 120.166 158.457 122.754 152.63 119.193C146.803 115.635 141.301 103.333 141.301 103.333C141.301 103.333 135.799 107.542 131.267 103.01C126.736 98.4783 140.331 94.5948 140.331 94.5948C140.331 94.5948 137.417 92.6882 138.713 89.9558C140.005 87.2199 141.734 89.8115 145.903 88.949C150.075 88.083 155.832 89.2341 162.737 96.428C162.737 96.428 165.188 91.43 172.344 87.1832C177.916 83.8668 186.349 81.007 198.702 81.3221C212.475 81.6746 225.512 84.7726 233.028 90.4827C236.411 93.0539 238.677 96.1555 239.379 99.7744C239.379 99.7744 248.442 97.0992 255.887 97.626C263.333 98.1529 268.509 103.01 267.538 105.276V105.275Z" fill="white"/>
<g opacity="0.2">
<path d="M265.917 114.943C262.45 117.541 257.656 118.34 253.561 116.893C249.537 115.474 246.351 111.943 245.228 107.84C244.992 106.978 243.987 106.609 243.249 107.113C241.976 107.984 240.656 108.779 239.211 109.3C237.143 110.049 234.753 110.179 233.064 108.551C234.931 105.822 236.794 103.089 238.832 100.146C238.916 99.9818 238.999 99.8134 238.728 99.4279C237.224 101.831 234.032 103.033 231.316 102.214C229.937 101.799 228.743 100.883 227.903 99.6991C226.669 97.9586 227.084 95.5233 228.807 94.2651C230.343 93.144 231.762 91.872 233.028 90.4821C225.512 84.7726 212.474 81.6739 198.702 81.3215C186.349 81.0057 177.916 83.8656 172.344 87.1825C190.609 100.505 204.439 100.959 211.459 100.415C214.499 100.18 217.043 102.76 216.701 105.791C216.472 107.825 215.721 109.784 214.367 111.375C211.715 114.5 207.805 116.266 203.901 117.514C193.048 120.979 181.437 121.15 170.051 120.737C169.756 124.386 169.46 128.038 169.165 131.693C182.999 136.059 197.763 137.43 212.609 136.263C214.581 136.108 215.413 138.73 213.7 139.718C208.255 142.86 201.988 144.585 195.7 144.587C187.023 144.587 178.386 141.311 171.891 135.554C172.005 143.855 178.416 151.646 186.586 153.425C185.821 159.152 185.905 164.993 186.885 170.683C187.234 175.402 187.583 180.119 187.553 184.284C181.122 188.49 171.891 187.678 166.208 182.548C164.409 185.912 164.989 190.296 171.404 191.699C181.763 193.964 198.701 190.729 198.701 190.729C207.546 195.582 227.401 192.672 229.345 188.463C231.285 184.253 229.345 167.423 229.345 167.423C229.345 167.423 229.02 147.356 231.611 140.88C234.199 134.405 231.933 125.604 231.933 125.604C241.966 127.48 245.206 117.575 245.206 117.575C248.116 121.784 253.296 127.933 261.066 124.697C267.169 122.153 267.478 118.014 265.917 114.943V114.943ZM216.126 183.609C214.672 186.509 211.43 188.218 208.201 188.503C204.968 188.788 201.746 187.838 198.788 186.431C198.933 181.89 201.937 178.721 201.178 178.459C204.172 168.694 202.038 157.51 196.744 149.611C201.575 149.083 206.35 148.053 210.969 146.547C212.959 145.899 215.025 147.313 215.17 149.401C215.779 158.138 216.385 166.877 216.992 175.613C217.18 178.321 217.341 181.181 216.126 183.608V183.609Z" fill="#371A45"/>
</g>
<path d="M211.482 194.592C206.747 194.592 201.983 193.901 198.488 192.133C195.619 192.649 180.781 195.124 171.117 193.01C164.731 191.613 163.98 187.618 163.98 185.823C163.98 185.778 163.98 185.735 163.982 185.693C164.053 182.21 166.723 178.648 169.954 177.441C169.377 171.69 166.923 146.166 166.923 128.486C166.923 126.107 166.967 123.871 167.066 121.843C163.78 122.439 156.69 123.248 151.93 120.338C146.963 117.305 142.393 108.675 140.731 105.27C138.107 106.633 133.839 107.48 130.318 103.959C129.297 102.938 128.999 101.939 129 101.12C129 100.798 129.046 100.505 129.113 100.248C129.894 97.2352 134.841 95.0508 137.872 93.976C137.39 93.2441 137.036 92.3527 137.036 91.3543C137.036 90.733 137.173 90.0709 137.5 89.3798C138.684 86.8724 140.594 87.2501 141.988 87.5274C142.982 87.7246 144.109 87.9478 145.631 87.6332C149.421 86.8477 155.347 87.4227 162.486 94.2767C163.596 92.6763 165.749 90.0685 169.369 87.5087C174.522 83.864 183.8 79.5992 198.735 79.9793C209.145 80.2451 218.899 82.0741 226.2 85.1294C233.867 88.3387 238.725 92.8086 240.348 98.1194C243.198 97.388 250.022 95.8645 255.982 96.2862C261.847 96.7012 266.613 99.7012 268.291 102.45C268.822 103.321 269 104.066 269 104.673C269 105.13 268.9 105.509 268.773 105.804C267.848 107.965 264.744 107.849 262.151 107.313C262.871 108.713 263.922 110.442 265.252 111.771C266.69 113.21 268.056 115.525 268.056 118.074C268.056 118.518 268.014 118.97 267.924 119.425C267.544 121.348 266.135 124.039 261.583 125.938C253.728 129.208 248.257 123.823 245.483 120.248C243.62 123.61 239.761 127.49 233.629 127.161C233.895 128.663 234.197 130.915 234.197 133.413C234.197 135.91 233.875 138.835 232.857 141.38C230.872 146.341 230.675 160.094 230.675 165.337V165.347C230.675 166.413 230.683 167.126 230.686 167.338C230.834 168.637 231.55 175.2 231.55 180.961C231.55 184.325 231.306 187.415 230.564 189.027C229.903 190.458 228.049 191.683 225.052 192.67C221.642 193.793 216.579 194.595 211.481 194.595L211.482 194.592ZM198.701 189.386C198.925 189.386 199.148 189.442 199.347 189.551C205.224 192.776 217.168 192.437 224.213 190.117C226.728 189.289 227.893 188.405 228.126 187.899C228.666 186.727 228.871 184.184 228.871 181.137C228.871 176.807 228.459 171.458 228.011 167.576C228.006 167.532 228.003 167.488 228.003 167.443C228 167.285 227.988 166.443 227.988 165.138C227.988 159.607 228.211 145.761 230.365 140.381C231.232 138.211 231.51 135.732 231.51 133.447C231.51 129.417 230.647 125.991 230.633 125.938C230.605 125.828 230.591 125.716 230.591 125.605C230.591 125.268 230.717 124.939 230.953 124.687C231.266 124.352 231.73 124.2 232.18 124.284C240.908 125.916 243.812 117.513 243.931 117.154C244.091 116.671 244.512 116.319 245.016 116.247C245.519 116.175 246.021 116.392 246.311 116.812C249.454 121.358 253.913 126.222 260.551 123.459C263.288 122.318 264.927 120.742 265.29 118.904C265.346 118.621 265.372 118.338 265.372 118.058C265.372 116.33 264.385 114.703 263.353 113.671C260.262 110.579 258.576 105.924 258.506 105.728C258.454 105.58 258.428 105.427 258.428 105.277C258.428 104.931 258.561 104.593 258.811 104.337C259.171 103.97 259.708 103.84 260.195 104.003C263.013 104.939 265.82 105.165 266.308 104.733C266.311 104.721 266.313 104.703 266.313 104.679C266.313 104.555 266.261 104.279 265.999 103.85C264.712 101.741 260.698 99.3132 255.793 98.9656C248.674 98.4616 239.848 101.036 239.759 101.062C239.396 101.169 239.005 101.118 238.682 100.922C238.358 100.725 238.133 100.402 238.061 100.031C235.853 88.6731 216.685 83.1248 198.668 82.6647C184.576 82.3002 175.881 86.2367 171.069 89.5975C165.877 93.2236 163.96 96.9856 163.941 97.0235C163.746 97.4139 163.372 97.6875 162.941 97.7531C162.509 97.818 162.072 97.6725 161.77 97.3573C156.283 91.6412 151.036 89.2553 146.177 90.2633C144.121 90.6891 142.586 90.3842 141.465 90.1623C140.633 89.9971 140.121 90.1194 139.928 90.5292C139.791 90.8173 139.735 91.0927 139.734 91.3507C139.733 92.532 140.912 93.3668 141.074 93.4756C141.449 93.7282 141.67 94.1504 141.67 94.5937C141.67 94.6629 141.665 94.732 141.654 94.8018C141.573 95.3172 141.203 95.7413 140.701 95.8856C137.354 96.8443 132.182 99.1075 131.713 100.922C131.702 100.964 131.686 101.026 131.686 101.109C131.686 101.304 131.774 101.616 132.218 102.061C135.847 105.69 140.302 102.405 140.49 102.263C140.817 102.017 141.239 101.931 141.635 102.034C142.031 102.135 142.361 102.411 142.528 102.784C142.581 102.903 147.929 114.749 153.331 118.047C158.599 121.266 168.083 118.89 168.178 118.866C168.595 118.759 169.04 118.859 169.371 119.136C169.678 119.391 169.854 119.769 169.854 120.165C169.854 120.197 169.853 120.228 169.851 120.261C169.685 122.617 169.613 125.358 169.613 128.342C169.612 147.913 172.704 177.944 172.74 178.291C172.745 178.337 172.748 178.384 172.748 178.429C172.748 179.074 172.286 179.638 171.638 179.752C169.137 180.193 166.721 183.107 166.667 185.748C166.667 185.779 166.666 185.811 166.666 185.841C166.667 188.687 169.392 189.884 171.692 190.387C181.659 192.568 198.284 189.442 198.45 189.41C198.534 189.394 198.618 189.386 198.702 189.386H198.701ZM200.142 182.937C200.087 182.937 200.032 182.934 199.977 182.927C199.367 182.852 198.887 182.373 198.809 181.764C198.798 181.675 197.66 172.865 195.623 168.655C195.469 168.336 195.447 167.97 195.561 167.636C195.583 167.571 197.789 161.06 197.658 157.328C197.636 156.694 198.061 156.131 198.677 155.978C199.292 155.825 199.932 156.125 200.208 156.696C200.459 157.214 206.295 169.523 201.392 182.083C201.189 182.603 200.689 182.937 200.142 182.937ZM198.272 167.989C199.167 170.023 199.876 172.729 200.397 175.18C200.996 170.612 200.375 166.349 199.589 163.195C199.118 165.275 198.551 167.12 198.272 167.989V167.989Z" fill="#371A45"/>
<path d="M231.706 126.927L231.541 126.89L231.424 126.857L231.195 126.791L230.783 126.642C230.514 126.539 230.266 126.42 230.01 126.306L229.289 125.92C229.057 125.782 228.834 125.635 228.607 125.493C228.376 125.355 228.169 125.191 227.956 125.034C227.747 124.874 227.528 124.722 227.328 124.554L226.738 124.038C226.542 123.866 226.341 123.698 226.166 123.509L225.623 122.955C225.442 122.771 225.258 122.589 225.099 122.389C224.771 121.995 224.433 121.61 224.116 121.21L223.223 119.976C223.068 119.774 222.938 119.558 222.806 119.344L222.407 118.701C221.849 117.859 221.423 116.952 220.944 116.073C220.707 115.632 220.525 115.168 220.314 114.717C220.112 114.261 219.899 113.811 219.708 113.353C219.361 112.424 218.994 111.503 218.666 110.57L217.776 107.747C217.64 107.318 217.879 106.86 218.307 106.725C218.724 106.594 219.167 106.815 219.316 107.22L219.332 107.264L220.319 109.962C220.676 110.848 221.07 111.717 221.442 112.594C221.645 113.024 221.868 113.443 222.08 113.868C222.3 114.288 222.493 114.723 222.735 115.129C223.225 115.935 223.664 116.775 224.219 117.531L224.616 118.111C224.748 118.304 224.877 118.499 225.027 118.677L225.895 119.768C226.198 120.116 226.518 120.447 226.827 120.788C226.978 120.963 227.149 121.114 227.316 121.269L227.816 121.735C227.977 121.897 228.157 122.033 228.333 122.173L228.861 122.595C229.038 122.731 229.228 122.847 229.409 122.974C229.593 123.098 229.773 123.231 229.966 123.331C230.156 123.438 230.345 123.551 230.535 123.654L231.113 123.93C231.305 124.002 231.5 124.088 231.688 124.149L231.966 124.236L232.088 124.265L232.147 124.279C232.152 124.279 232.157 124.279 232.161 124.281L232.369 124.342C233.076 124.548 233.483 125.29 233.276 125.998C233.078 126.676 232.386 127.076 231.706 126.928L231.706 126.927Z" fill="#371A45"/>
<path d="M167.179 119.987C167.547 117.751 167.988 115.59 168.478 113.413C168.969 111.243 169.518 109.086 170.122 106.944C170.72 104.801 171.41 102.681 172.149 100.579C172.899 98.4794 173.752 96.4141 174.689 94.3848C174.868 93.9969 175.327 93.8273 175.716 94.0065C176.093 94.1809 176.264 94.6206 176.109 95.0013L176.101 95.0181C175.276 97.0306 174.531 99.0767 173.887 101.161C173.252 103.247 172.667 105.35 172.17 107.478C171.668 109.604 171.221 111.744 170.83 113.893C170.443 116.036 170.097 118.214 169.84 120.343L169.837 120.367C169.748 121.103 169.079 121.628 168.342 121.539C167.605 121.45 167.081 120.781 167.169 120.045C167.171 120.027 167.175 120.005 167.178 119.988L167.179 119.987Z" fill="#371A45"/>
<path d="M167.824 116.046C168.415 113.853 169.063 111.682 169.768 109.534C169.902 109.126 170.341 108.904 170.749 109.038C171.114 109.158 171.33 109.524 171.275 109.892C170.946 112.1 170.676 114.313 170.467 116.525C170.396 117.266 169.739 117.81 168.998 117.74C168.257 117.669 167.713 117.012 167.783 116.271C167.791 116.196 167.803 116.124 167.822 116.054L167.824 116.045L167.824 116.046Z" fill="#39005E"/>
<path d="M151.288 119.247C151.205 116.987 151.255 114.709 151.533 112.437C151.817 110.168 152.296 107.9 153.103 105.715C153.902 103.531 155.03 101.431 156.535 99.5891C157.289 98.6719 158.132 97.816 159.076 97.0666C159.544 96.6877 160.043 96.3431 160.564 96.0219C160.824 95.8607 161.095 95.7116 161.373 95.5678C161.514 95.4968 161.653 95.4271 161.803 95.3609L162.031 95.2617L162.153 95.2124L162.307 95.1558L162.444 95.1083C163.112 94.8762 163.842 95.2304 164.074 95.8986C164.202 96.2703 164.148 96.666 163.961 96.9794C163.9 97.0786 163.817 97.25 163.746 97.3926L163.531 97.8533C163.388 98.1642 163.253 98.4842 163.122 98.8066C162.859 99.4519 162.617 100.112 162.388 100.779C162.16 101.448 161.949 102.124 161.751 102.806C161.553 103.489 161.373 104.178 161.201 104.871L161.199 104.878C161.114 105.217 160.771 105.422 160.433 105.338C160.128 105.262 159.931 104.977 159.956 104.675C160.014 103.947 160.08 103.218 160.167 102.489C160.253 101.76 160.353 101.031 160.473 100.302C160.596 99.5734 160.733 98.8451 160.897 98.1155C160.98 97.7504 161.067 97.386 161.166 97.0191L161.321 96.4664C161.38 96.2733 161.427 96.1085 161.512 95.8788L163.165 97.7017L163.056 97.7456L162.906 97.8112C162.803 97.8563 162.697 97.9098 162.592 97.9622C162.382 98.0716 162.169 98.1877 161.961 98.3176C161.545 98.5744 161.136 98.8553 160.748 99.1698C159.966 99.7899 159.255 100.512 158.611 101.294C157.328 102.865 156.336 104.695 155.623 106.645C154.902 108.594 154.462 110.663 154.199 112.761C153.941 114.863 153.893 117.003 153.972 119.143V119.15C154 119.891 153.421 120.514 152.68 120.541C151.939 120.569 151.316 119.99 151.289 119.249L151.288 119.247Z" fill="#371A45"/>
<path d="M235.63 127.114C235.213 127.114 234.803 126.921 234.54 126.558C228.781 118.592 230.192 111.416 232.39 106.799C234.729 101.883 238.373 98.8601 238.527 98.7338C239.1 98.2641 239.946 98.3471 240.417 98.9203C240.886 99.4934 240.803 100.338 240.231 100.809C240.184 100.848 236.843 103.642 234.777 108.032C232.078 113.768 232.731 119.472 236.716 124.984C237.151 125.586 237.016 126.425 236.415 126.859C236.177 127.031 235.902 127.113 235.63 127.113V127.114Z" fill="#371A45"/>
<path d="M244.033 118.232C243.894 117.888 243.801 117.601 243.698 117.289C243.599 116.984 243.505 116.679 243.419 116.374C243.244 115.763 243.087 115.153 242.948 114.54C242.672 113.316 242.461 112.087 242.312 110.858C242.291 110.685 242.415 110.527 242.588 110.506C242.731 110.489 242.864 110.57 242.917 110.696V110.698C243.393 111.818 243.92 112.906 244.498 113.956C244.788 114.481 245.091 114.996 245.405 115.497C245.562 115.749 245.724 115.995 245.887 116.238C246.048 116.473 246.225 116.731 246.377 116.92C246.848 117.506 246.754 118.362 246.169 118.834C245.583 119.305 244.726 119.211 244.255 118.625C244.171 118.521 244.104 118.407 244.056 118.289L244.033 118.232L244.033 118.232Z" fill="#371A45"/>
<path d="M261.112 105.206C261.112 105.329 261.106 105.381 261.1 105.461L261.079 105.673C261.063 105.812 261.044 105.946 261.02 106.079C260.973 106.345 260.914 106.605 260.84 106.862C260.697 107.375 260.5 107.874 260.247 108.348C259.746 109.295 258.999 110.134 258.104 110.697C257.658 110.978 257.185 111.196 256.705 111.362C256.221 111.511 255.736 111.63 255.25 111.682C254.282 111.807 253.331 111.76 252.41 111.633C252.177 111.602 252.014 111.386 252.047 111.153C252.075 110.944 252.251 110.791 252.455 110.785H252.459C253.332 110.757 254.194 110.645 254.986 110.4C255.386 110.287 255.757 110.12 256.11 109.943C256.455 109.75 256.772 109.53 257.049 109.279C257.605 108.774 257.987 108.139 258.213 107.444C258.327 107.097 258.4 106.734 258.436 106.366C258.456 106.183 258.464 105.998 258.463 105.817C258.463 105.727 258.46 105.636 258.455 105.55L258.445 105.425C258.441 105.393 258.435 105.334 258.431 105.344C258.393 104.603 258.963 103.972 259.704 103.934C260.444 103.897 261.075 104.467 261.113 105.207L261.112 105.206Z" fill="#371A45"/>
<path d="M197.432 191.166C196.719 189.401 196.35 187.367 196.693 185.316C196.866 184.297 197.217 183.289 197.757 182.38C198.031 181.926 198.345 181.498 198.718 181.096C198.915 180.892 199.085 180.708 199.4 180.476C199.628 180.316 199.837 180.191 200.053 180.064C201.76 179.09 203.623 178.535 205.515 178.379C207.403 178.219 209.298 178.488 211.012 179.123C211.277 179.221 211.412 179.515 211.314 179.779C211.231 180.003 211.008 180.134 210.782 180.11H210.775C209.075 179.931 207.4 179.993 205.814 180.367C205.023 180.553 204.254 180.807 203.519 181.125C202.79 181.454 202.079 181.828 201.451 182.275C201.298 182.385 201.14 182.503 201.02 182.608C200.984 182.641 200.852 182.779 200.755 182.9C200.547 183.157 200.357 183.453 200.197 183.762C199.875 184.383 199.659 185.065 199.552 185.779C199.333 187.21 199.548 188.748 199.97 190.291L199.975 190.308C200.171 191.024 199.749 191.764 199.033 191.96C198.368 192.141 197.683 191.791 197.431 191.166H197.432Z" fill="#371A45"/>
<path d="M171.072 177.128C171.165 177.109 171.228 177.102 171.296 177.091C171.365 177.081 171.43 177.073 171.494 177.066C171.623 177.051 171.752 177.036 171.877 177.028C172.131 177.004 172.381 176.994 172.63 176.983C173.128 176.968 173.622 176.976 174.114 177.002C175.097 177.057 176.069 177.205 177.017 177.437C177.494 177.538 177.957 177.7 178.419 177.842C178.872 178.021 179.33 178.173 179.763 178.394C180.648 178.781 181.46 179.311 182.235 179.858C182.452 180.011 182.504 180.31 182.351 180.527C182.214 180.722 181.957 180.784 181.749 180.682L181.719 180.668C180.922 180.278 180.121 179.916 179.274 179.696C178.861 179.56 178.427 179.492 178.007 179.396C177.575 179.337 177.153 179.257 176.72 179.236C175.861 179.163 174.998 179.169 174.148 179.257C173.724 179.302 173.303 179.361 172.89 179.44C172.684 179.482 172.478 179.523 172.28 179.574C172.178 179.597 172.082 179.625 171.986 179.652C171.937 179.665 171.89 179.678 171.847 179.693C171.803 179.707 171.753 179.722 171.735 179.731C171.062 180.069 170.241 179.797 169.903 179.123C169.565 178.449 169.837 177.629 170.51 177.291C170.62 177.235 170.735 177.196 170.85 177.173L171.071 177.129L171.072 177.128Z" fill="#371A45"/>
<path d="M214.69 171.957C207.63 171.957 202.096 170.832 201.717 170.753C200.991 170.602 200.525 169.891 200.676 169.165C200.827 168.439 201.539 167.974 202.264 168.124C202.412 168.155 217.243 171.161 229.035 167.228C229.739 166.994 230.499 167.374 230.734 168.077C230.968 168.78 230.588 169.541 229.885 169.776C224.865 171.45 219.433 171.958 214.69 171.958L214.69 171.957Z" fill="#371A45"/>
<path d="M183.715 172.349C176.533 172.349 170.514 170.47 170.111 170.342C169.404 170.116 169.014 169.361 169.24 168.654C169.466 167.948 170.22 167.558 170.926 167.783C171.076 167.831 186.003 172.475 196.185 166.893C196.835 166.536 197.652 166.774 198.008 167.425C198.365 168.075 198.127 168.891 197.476 169.248C193.164 171.612 188.211 172.349 183.715 172.349Z" fill="#371A45"/>
<path d="M199 158.625C198.453 158.625 197.938 158.288 197.739 157.745L194.851 149.867C194.596 149.171 194.953 148.4 195.649 148.144C196.345 147.889 197.117 148.247 197.372 148.943L200.26 156.82C200.516 157.517 200.158 158.288 199.462 158.543C199.31 158.599 199.154 158.626 199 158.626L199 158.625Z" fill="#371A45"/>
<path d="M175.368 141.757C175.953 142.143 176.613 142.524 177.256 142.879C177.909 143.229 178.564 143.574 179.234 143.889C180.569 144.529 181.944 145.079 183.333 145.576C183.68 145.701 184.029 145.821 184.381 145.929C184.732 146.042 185.083 146.153 185.439 146.251C186.143 146.467 186.856 146.649 187.571 146.822C189.003 147.16 190.451 147.42 191.908 147.601C192.636 147.704 193.37 147.743 194.101 147.817C194.834 147.853 195.567 147.914 196.302 147.908C196.669 147.91 197.037 147.921 197.404 147.915L198.507 147.895C198.876 147.896 199.242 147.859 199.61 147.84C199.977 147.814 200.346 147.803 200.713 147.766C203.654 147.518 206.577 146.984 209.497 146.277L209.501 146.276C209.85 146.192 210.201 146.406 210.286 146.755C210.361 147.066 210.199 147.378 209.916 147.502C207.085 148.749 204.056 149.576 200.963 150.021C199.414 150.214 197.85 150.362 196.283 150.344C195.499 150.36 194.716 150.306 193.933 150.277C193.151 150.218 192.37 150.149 191.594 150.036C190.042 149.823 188.496 149.54 186.988 149.114C186.234 148.904 185.483 148.683 184.743 148.429C184.372 148.307 184.007 148.166 183.642 148.026C183.275 147.891 182.914 147.743 182.554 147.591C181.111 146.993 179.716 146.285 178.374 145.492C177.707 145.088 177.048 144.673 176.414 144.217C175.772 143.762 175.17 143.295 174.56 142.744C174.298 142.509 174.277 142.105 174.514 141.843C174.728 141.606 175.08 141.567 175.339 141.738L175.368 141.757L175.368 141.757Z" fill="#371A45"/>
<path d="M229.557 124.587C227.929 124.718 226.364 124.772 224.888 124.772C217.06 124.772 211.581 123.224 211.283 123.137C209.5 122.62 208.473 120.76 208.99 118.978C209.503 117.199 211.363 116.175 213.142 116.685C213.246 116.715 217.301 117.836 223.236 118.028C225.569 121.683 227.899 123.596 229.557 124.587V124.587Z" fill="white"/>
<path d="M224.887 126.114C216.783 126.114 211.142 124.495 210.906 124.426C209.702 124.076 208.704 123.279 208.098 122.181C207.491 121.081 207.35 119.811 207.7 118.604C208.417 116.122 211.024 114.681 213.513 115.395C213.552 115.406 217.468 116.498 223.279 116.686C223.722 116.7 224.13 116.932 224.368 117.305C226.601 120.803 228.797 122.568 230.245 123.434C230.747 123.733 230.997 124.323 230.865 124.891C230.733 125.46 230.247 125.878 229.665 125.925C228.105 126.05 226.498 126.113 224.888 126.113L224.887 126.114ZM212.215 117.896C211.341 117.896 210.534 118.47 210.28 119.35C210.13 119.869 210.19 120.413 210.45 120.883C210.709 121.354 211.138 121.697 211.657 121.847C211.713 121.864 217.164 123.429 224.888 123.429C225.217 123.429 225.546 123.426 225.874 123.42C224.807 122.397 223.651 121.067 222.492 119.342C216.721 119.081 212.807 117.986 212.768 117.975C212.584 117.922 212.398 117.896 212.215 117.896H212.215Z" fill="#371A45"/>
<path d="M171.662 109.005C171.775 109.374 171.819 109.874 171.732 110.296L171.699 110.451L171.679 110.522L171.65 110.622L171.591 110.822C171.512 111.088 171.443 111.356 171.37 111.623L170.948 113.234C170.809 113.771 170.682 114.311 170.559 114.852C170.437 115.393 170.313 115.935 170.203 116.478L170.19 116.544C170.077 117.103 169.533 117.464 168.974 117.352C168.953 117.347 168.93 117.342 168.909 117.336L168.096 117.116L167.69 117.006L167.488 116.951C167.416 116.93 167.323 116.894 167.243 116.866C166.579 116.623 165.975 116.228 165.503 115.708C164.54 114.686 164.142 113.185 164.441 111.826C164.587 111.151 164.892 110.504 165.336 109.967C165.782 109.433 166.354 109.014 166.987 108.732C167.621 108.454 168.317 108.302 169.031 108.298C169.205 108.311 169.393 108.305 169.563 108.327C169.744 108.352 169.869 108.356 170.156 108.417C170.666 108.524 171.207 108.751 171.662 109.005V109.005ZM169.38 110.421C169.312 110.546 169.332 110.645 169.319 110.623C169.345 110.618 169.207 110.563 169.126 110.526C169.034 110.486 168.951 110.465 168.86 110.437C168.5 110.354 168.106 110.384 167.747 110.52C167.39 110.662 167.08 110.91 166.836 111.201C166.596 111.497 166.434 111.853 166.354 112.229C166.189 112.977 166.446 113.787 166.977 114.321C167.235 114.594 167.568 114.792 167.921 114.899C167.967 114.912 168.001 114.927 168.058 114.941L168.247 114.983L168.625 115.067L169.379 115.236L168.085 116.094L168.352 114.421L168.629 112.748L168.918 111.076L169.068 110.241L169.104 110.031L169.122 109.927L169.126 109.9C169.129 109.889 169.129 109.882 169.126 109.896C169.122 109.912 169.119 109.93 169.117 109.948C169.095 110.098 169.203 110.326 169.38 110.422L169.38 110.421Z" fill="#371A45"/>
<path d="M139.243 93.8068C139.294 93.7443 139.327 93.71 139.361 93.6757C139.396 93.639 139.43 93.6035 139.463 93.5734C139.529 93.5109 139.595 93.4447 139.662 93.3894C139.793 93.2709 139.929 93.1621 140.066 93.0574C140.339 92.8469 140.628 92.6635 140.921 92.4927C141.514 92.1583 142.157 91.9111 142.819 91.7721C143.478 91.6314 144.156 91.5917 144.804 91.6825C145.131 91.7066 145.442 91.795 145.751 91.8702C146.059 91.9501 146.347 92.0807 146.638 92.1841C146.911 92.2809 147.053 92.5805 146.956 92.8529C146.874 93.0833 146.648 93.2204 146.415 93.1987L146.321 93.1897C146.056 93.1657 145.798 93.1133 145.54 93.1103C145.282 93.1127 145.029 93.0995 144.782 93.144C144.286 93.1921 143.818 93.3431 143.392 93.5512C142.964 93.7581 142.574 94.0305 142.232 94.3547C142.063 94.5207 141.901 94.6897 141.758 94.872C141.686 94.9628 141.617 95.0536 141.556 95.1456C141.521 95.1913 141.497 95.2364 141.468 95.2809C141.453 95.3038 141.443 95.3242 141.433 95.3435C141.421 95.3645 141.41 95.3856 141.419 95.3808C140.984 95.9816 140.144 96.1163 139.544 95.6815C138.943 95.2467 138.808 94.407 139.243 93.8068H139.243Z" fill="#371A45"/>
<g opacity="0.2">
<path d="M172.348 101.986C169.872 104.756 166.735 106.931 163.273 108.279C161.501 108.968 159.535 109.444 157.708 108.914C155.882 108.385 154.327 106.555 154.554 104.637C151.969 104.015 149.658 102.403 148.102 100.254C146.926 98.6305 144.798 98.0351 142.943 98.7941C139.025 100.396 134.71 101.03 130.5 100.584C131.23 102.568 132.916 104.175 134.933 104.809C136.949 105.442 139.252 105.09 140.986 103.881C142.629 109.501 146.52 114.429 151.605 117.332C156.689 120.235 162.911 121.081 168.558 119.366C170.079 113.582 171.307 107.723 172.348 101.986V101.986Z" fill="#371A45"/>
</g>
<path d="M206.861 132.421L172.866 127.751C170.526 127.429 168.889 125.272 169.211 122.932L171.935 103.105C172.257 100.765 174.414 99.1285 176.754 99.4503L210.75 104.12C213.09 104.442 214.726 106.6 214.405 108.94L211.681 128.766C211.359 131.107 209.201 132.743 206.861 132.421Z" fill="white"/>
<path d="M207.447 133.804C207.193 133.804 206.937 133.787 206.679 133.752L172.683 129.082C169.614 128.659 167.459 125.819 167.881 122.749L170.605 102.922C171.026 99.8527 173.866 97.7001 176.937 98.1193L210.933 102.79C214.002 103.212 216.157 106.052 215.735 109.122L213.011 128.949C212.625 131.761 210.21 133.805 207.448 133.805L207.447 133.804ZM176.17 100.752C174.728 100.752 173.466 101.819 173.264 103.287L170.54 123.113C170.32 124.716 171.445 126.199 173.048 126.42L207.044 131.09C208.646 131.313 210.13 130.186 210.35 128.583L213.074 108.756C213.294 107.152 212.17 105.67 210.566 105.449L176.571 100.779C176.436 100.76 176.302 100.751 176.17 100.751V100.752Z" fill="#371A45"/>
<path d="M201.255 132.953C200.998 132.953 200.739 132.936 200.479 132.9L172.683 129.082C169.614 128.659 167.459 125.819 167.881 122.749L170.605 102.922C171.026 99.8527 173.866 97.7001 176.937 98.1193L204.733 101.938C207.803 102.36 209.958 105.201 209.535 108.27L206.812 128.097C206.607 129.584 205.836 130.903 204.64 131.81C203.653 132.558 202.473 132.953 201.255 132.953V132.953ZM176.17 100.752C174.728 100.752 173.466 101.819 173.264 103.287L170.54 123.113C170.32 124.716 171.445 126.199 173.048 126.42L200.844 130.239C201.621 130.348 202.392 130.144 203.016 129.67C203.641 129.196 204.044 128.507 204.15 127.731L206.874 107.904C207.094 106.301 205.969 104.818 204.366 104.597L176.57 100.779C176.436 100.76 176.302 100.751 176.169 100.751L176.17 100.752Z" fill="#371A45"/>
<path d="M200.811 117.234C202.609 115.436 202.609 112.521 200.811 110.723C199.013 108.926 196.099 108.926 194.301 110.723C192.503 112.521 192.503 115.436 194.301 117.234C196.099 119.031 199.013 119.031 200.811 117.234Z" fill="#4599F4"/>
<g opacity="0.7">
<path d="M197.995 111.951C199.809 111.951 201.373 113.003 202.123 114.528C202.145 114.348 202.16 114.165 202.16 113.979C202.16 111.436 200.098 109.375 197.556 109.375C195.014 109.375 192.953 111.436 192.953 113.979C192.953 114.706 193.126 115.393 193.427 116.004C193.699 113.721 195.639 111.95 197.995 111.95L197.995 111.951Z" fill="white"/>
</g>
<path d="M197.556 119.925C194.277 119.925 191.609 117.257 191.609 113.979C191.609 110.7 194.277 108.032 197.556 108.032C200.835 108.032 203.502 110.7 203.502 113.979C203.502 117.258 200.834 119.925 197.556 119.925V119.925ZM197.556 110.718C195.758 110.718 194.295 112.18 194.295 113.979C194.295 115.777 195.758 117.239 197.556 117.239C199.354 117.239 200.817 115.776 200.817 113.979C200.817 112.181 199.354 110.718 197.556 110.718V110.718Z" fill="#371A45"/>
<path d="M185.375 130.041C185.321 130.041 185.268 130.038 185.213 130.031C184.477 129.942 183.952 129.274 184.04 128.538L185.086 119.83C185.192 118.946 184.852 118.073 184.177 117.494L182.156 115.761C180.811 114.608 180.126 112.869 180.324 111.108L181.554 100.143C181.636 99.4059 182.301 98.8785 183.038 98.9579C183.774 99.0409 184.305 99.7048 184.222 100.442L182.992 111.407C182.894 112.283 183.235 113.149 183.904 113.722L185.926 115.455C187.283 116.619 187.966 118.374 187.753 120.15L186.707 128.858C186.625 129.54 186.045 130.041 185.375 130.041H185.375Z" fill="#371A45"/>
<g opacity="0.2">
<path d="M213.96 105.779C213.147 108.815 213.663 112.029 213.538 115.169C213.413 118.31 212.362 121.785 209.578 123.246C207.658 124.254 205.357 124.07 203.201 123.852C192.225 122.74 181.273 121.393 170.355 119.81C168.663 121.692 169.567 124.897 171.54 126.48C173.513 128.063 176.157 128.458 178.664 128.796C187.272 129.957 195.881 131.117 204.489 132.277C205.991 132.48 207.619 132.659 208.933 131.906C210.421 131.054 211.06 129.269 211.524 127.618C213.528 120.492 214.435 113.058 213.96 105.779V105.779Z" fill="#371A45"/>
</g>
<g opacity="0.2">
<path d="M259.771 105.466C259.808 107.626 258.458 109.747 256.485 110.628C254.512 111.508 252.032 111.098 250.448 109.628C249.644 108.881 249.053 107.711 249.472 106.697C249.788 105.934 250.58 105.486 251.348 105.182C254.089 104.096 257.256 104.132 259.771 105.467V105.466Z" fill="#371A45"/>
</g>
<path d="M245.793 38.6108C245.793 38.6108 255.293 43.2419 256.137 45.1563C257.704 48.7054 255.539 68.5247 249.879 73.2262C247.662 75.0672 232.567 75.5953 232.567 75.5953L245.793 38.6108H245.793Z" fill="white"/>
<path d="M232.567 75.5966C232.567 75.5966 247.662 75.0673 249.878 73.2257C252.087 71.3919 253.766 67.2504 254.893 62.674C254.714 62.8076 249.028 66.8739 239.36 56.6662C239.355 56.6602 239.348 56.6542 239.343 56.6482L232.567 75.5966V75.5966Z" fill="#E2E2E2"/>
<path d="M201.237 55.4272L201.222 55.5968L201.121 55.5036L201.237 55.4272Z" fill="#D8D8D8"/>
<path d="M201.121 55.5033L201.006 55.5767L201.021 55.4077L201.121 55.5033Z" fill="#D8D8D8"/>
<path d="M167.058 69.6025C167.058 69.6025 152.31 66.3427 150.465 64.13C148.625 61.9257 147.726 57.5484 147.448 52.8433L147.445 52.8403C147.008 45.4961 148.072 37.3466 149.404 35.3919C150.582 33.6628 160.764 30.8306 160.764 30.8306L163.834 49.7393L167.059 69.6025H167.058Z" fill="white"/>
<path d="M167.058 69.6025C167.058 69.6025 152.309 66.3427 150.465 64.13C148.625 61.9257 147.726 57.5484 147.447 52.8433C147.599 53.0069 152.453 58.038 163.812 49.7537C163.819 49.7489 163.827 49.7441 163.833 49.7393L167.058 69.6025V69.6025Z" fill="#D8D8D8"/>
<path d="M232.567 76.9384C232.139 76.9384 231.736 76.7345 231.483 76.388C231.22 76.029 231.153 75.5623 231.303 75.1437L244.528 38.1592C244.657 37.7995 244.933 37.512 245.286 37.3683C245.64 37.2246 246.038 37.2378 246.381 37.405C249.371 38.8623 256.424 42.4818 257.366 44.6151C259.119 48.5888 256.973 69.0805 250.737 74.2601C248.353 76.2401 236.263 76.8109 232.614 76.9384C232.598 76.9384 232.583 76.939 232.567 76.939V76.9384ZM246.548 40.488L234.503 74.1699C241.038 73.8469 247.977 73.0603 249.021 72.1936C251.199 70.3844 253.208 65.2752 254.395 58.527C255.543 51.9996 255.431 46.8825 254.909 45.6989C254.426 44.8526 250.429 42.4655 246.547 40.488H246.548Z" fill="#371A45"/>
<path d="M167.059 70.9448C166.963 70.9448 166.866 70.9346 166.769 70.913C163.205 70.1251 151.419 67.3705 149.434 64.9906C144.241 58.765 145.849 38.2246 148.294 34.6352C149.607 32.7076 157.201 30.4281 160.404 29.5374C160.772 29.4351 161.166 29.4941 161.488 29.7004C161.81 29.9061 162.028 30.2393 162.09 30.6158L168.385 69.3865C168.456 69.8256 168.305 70.2718 167.982 70.5774C167.73 70.8155 167.399 70.9442 167.06 70.9442L167.059 70.9448ZM159.681 32.5398C155.506 33.7799 151.141 35.4044 150.501 36.1641C149.785 37.2166 148.746 42.2278 148.691 48.8557C148.633 55.7073 149.682 61.0962 151.496 63.2704C152.365 64.3127 159.046 66.345 165.414 67.8486L159.681 32.5398V32.5398Z" fill="#371A45"/>
<path d="M202.136 92.9792C227.44 92.9792 247.954 72.4661 247.954 47.162C247.954 21.8578 227.44 1.34473 202.136 1.34473C176.832 1.34473 156.319 21.8578 156.319 47.162C156.319 72.4661 176.832 92.9792 202.136 92.9792Z" fill="white"/>
<path d="M247.764 51.3354C245.459 76.5346 223.162 95.0932 197.963 92.7879C172.764 90.4826 154.202 68.186 156.508 42.9867C156.752 40.326 157.217 37.738 157.89 35.2444C159.626 57.0635 176.853 75.1164 199.391 77.1781C221.93 79.2405 242.144 64.6128 247.811 43.4709C248.019 46.0451 248.008 48.6746 247.764 51.3354Z" fill="#D8D8D8"/>
<path d="M202.22 94.0841C200.773 94.0841 199.32 94.018 197.862 93.8844C185.382 92.7429 174.094 86.8091 166.076 77.177C158.059 67.5449 154.272 55.3669 155.414 42.887C156.555 30.4071 162.489 19.118 172.121 11.1008C181.753 3.08299 193.932 -0.703091 206.411 0.438446C218.891 1.57998 230.179 7.51381 238.197 17.1459C246.214 26.778 250.001 38.956 248.86 51.4359C247.718 63.9158 241.784 75.2049 232.152 83.2221C223.645 90.3029 213.153 94.0835 202.22 94.0835V94.0841ZM202.058 2.44065C191.637 2.44065 181.638 6.04389 173.53 12.7927C164.349 20.434 158.694 31.1932 157.606 43.0879C156.518 54.9826 160.126 66.5892 167.768 75.769C175.409 84.9494 186.168 90.6048 198.062 91.6928C209.958 92.782 221.564 89.1722 230.743 81.5308C239.924 73.8895 245.579 63.1303 246.667 51.2362L247.763 51.3367L246.667 51.2362C247.755 39.3415 244.147 27.7349 236.505 18.5545C228.864 9.37407 218.105 3.71871 206.211 2.6307C204.822 2.5038 203.435 2.44065 202.058 2.44065V2.44065Z" fill="#371A45"/>
<path d="M202.22 94.0841C200.773 94.0841 199.32 94.018 197.862 93.8844C185.382 92.7429 174.094 86.8091 166.076 77.177C158.059 67.5449 154.272 55.3669 155.414 42.887C156.555 30.4071 162.489 19.118 172.121 11.1008C181.753 3.08299 193.932 -0.703091 206.411 0.438446C218.891 1.57998 230.179 7.51381 238.197 17.1459C246.214 26.778 250.001 38.956 248.86 51.4359C247.718 63.9158 241.784 75.2049 232.152 83.2221C223.645 90.3029 213.153 94.0835 202.22 94.0835V94.0841ZM202.058 2.44065C191.637 2.44065 181.638 6.04389 173.53 12.7927C164.349 20.434 158.694 31.1932 157.606 43.0879C156.518 54.9826 160.126 66.5892 167.768 75.769C175.409 84.9494 186.168 90.6048 198.062 91.6928C209.958 92.782 221.564 89.1722 230.743 81.5308C239.924 73.8895 245.579 63.1303 246.667 51.2362L247.763 51.3367L246.667 51.2362C247.755 39.3415 244.147 27.7349 236.505 18.5545C228.864 9.37407 218.105 3.71871 206.211 2.6307C204.822 2.5038 203.435 2.44065 202.058 2.44065V2.44065Z" fill="#371A45"/>
<path d="M202.22 94.0841C200.773 94.0841 199.32 94.018 197.862 93.8844C185.382 92.7429 174.094 86.8091 166.076 77.177C158.059 67.5449 154.272 55.3669 155.414 42.887C156.555 30.4071 162.489 19.118 172.121 11.1008C181.753 3.08299 193.932 -0.703091 206.411 0.438446C218.891 1.57998 230.179 7.51381 238.197 17.1459C246.214 26.778 250.001 38.956 248.86 51.4359C247.718 63.9158 241.784 75.2049 232.152 83.2221C223.645 90.3029 213.153 94.0835 202.22 94.0835V94.0841ZM202.058 2.44065C191.637 2.44065 181.638 6.04389 173.53 12.7927C164.349 20.434 158.694 31.1932 157.606 43.0879C156.518 54.9826 160.126 66.5892 167.768 75.769C175.409 84.9494 186.168 90.6048 198.062 91.6928C209.958 92.782 221.564 89.1722 230.743 81.5308C239.924 73.8895 245.579 63.1303 246.667 51.2362L247.763 51.3367L246.667 51.2362C247.755 39.3415 244.147 27.7349 236.505 18.5545C228.864 9.37407 218.105 3.71871 206.211 2.6307C204.822 2.5038 203.435 2.44065 202.058 2.44065V2.44065Z" fill="#371A45"/>
<path d="M202.168 94.3229C200.733 94.3229 199.29 94.258 197.839 94.1251C176.443 92.168 159.087 76.0283 155.603 54.8642C155.596 54.8353 155.59 54.8058 155.585 54.7757C154.946 50.8706 154.807 46.8638 155.173 42.8654C155.335 41.0936 155.597 39.3331 155.95 37.6323C160.77 14.1014 182.475 -1.99073 206.433 0.199121C230.399 2.39138 248.823 22.1632 249.287 46.189C249.323 47.9301 249.26 49.7044 249.099 51.4594C248.734 55.4518 247.872 59.3666 246.537 63.0961C246.526 63.125 246.515 63.1532 246.503 63.1815C239.725 81.9928 221.886 94.3229 202.168 94.3235V94.3229ZM158.242 54.365C161.504 74.3533 177.885 89.6022 198.083 91.4505C218.281 93.2975 237.16 81.2753 243.998 62.209C244.009 62.1759 244.022 62.1428 244.036 62.1109C245.278 58.6184 246.082 54.9526 246.424 51.2134C246.576 49.5582 246.635 47.885 246.602 46.2413C246.164 23.5838 228.79 4.94029 206.187 2.87253C183.592 0.802366 163.124 15.9816 158.579 38.1741C158.246 39.78 157.999 41.4388 157.846 43.1096C157.504 46.853 157.63 50.6029 158.221 54.2579C158.229 54.2934 158.236 54.3289 158.241 54.365H158.242Z" fill="#371A45"/>
<path d="M247.267 40.3254C246.801 40.3254 246.372 40.0277 246.221 39.5664C240.545 22.1739 224.643 9.81664 205.711 8.08449C186.793 6.35174 168.914 15.6109 160.17 31.6688C159.894 32.1764 159.273 32.3833 158.748 32.144C158.222 31.9046 157.971 31.3001 158.173 30.7588C165.531 10.981 185.367 -1.48625 206.411 0.437765C227.468 2.36478 244.715 18.2362 248.352 39.0353C248.452 39.6036 248.095 40.1528 247.534 40.2923C247.445 40.3145 247.356 40.3254 247.267 40.3254ZM201.194 5.67692C202.758 5.67692 204.33 5.74789 205.912 5.89284C220.131 7.19376 232.719 14.2324 240.892 24.8443C233.778 12.5267 220.977 3.98086 206.21 2.63002C191.45 1.27858 177.314 7.35735 168.081 18.1743C176.936 10.2232 188.707 5.67692 201.194 5.67692V5.67692Z" fill="#371A45"/>
<path d="M247.76 51.3374C247.398 55.2865 246.547 59.0774 245.271 62.6445C245.271 62.6445 245.266 62.6445 245.266 62.6482C235.952 77.2163 217.938 88.8361 198.484 87.0559C179.03 85.2762 163.428 70.5806 156.912 54.5642C156.912 54.56 156.908 54.5594 156.908 54.5594C156.296 50.8196 156.146 46.9373 156.507 42.9882C156.666 41.2615 156.918 39.5648 157.262 37.906C164.976 21.438 184.073 10.7594 205.286 12.7002C226.504 14.6417 243.35 28.6174 247.942 46.215C247.977 47.9044 247.917 49.6143 247.759 51.3368L247.76 51.3374Z" fill="#371A45"/>
<g opacity="0.35">
<path d="M247.762 51.3383C247.4 55.2874 246.549 59.0783 245.272 62.6454C245.272 62.6454 245.268 62.6454 245.268 62.649C235.954 77.2172 217.94 88.8358 198.486 87.0562C179.032 85.2765 163.429 70.5821 156.913 54.5657C156.913 54.5615 156.91 54.5609 156.91 54.5609C156.546 52.3325 156.346 50.0561 156.319 47.7405C165.497 60.1693 179.606 69.8916 196.167 71.4066C217.263 73.3367 236.879 61.448 247.881 45.9873C247.903 46.0649 247.926 46.1389 247.944 46.2159C247.979 47.9053 247.919 49.6158 247.761 51.3377L247.762 51.3383Z" fill="#111A28"/>
</g>
<path d="M202.425 88.3357C201.074 88.3357 199.727 88.2743 198.384 88.1516C189.023 87.2952 179.95 83.4381 172.146 76.9973C165.079 71.1651 159.317 63.3662 155.915 55.0332C155.871 54.9412 155.84 54.842 155.822 54.7373C155.186 50.852 155.048 46.865 155.412 42.8877C155.573 41.1255 155.834 39.3741 156.186 37.6816C156.203 37.598 156.23 37.5162 156.267 37.4386C160.201 29.0395 166.919 22.1205 175.694 17.4287C184.619 12.6574 194.887 10.6444 205.388 11.6037C215.89 12.5648 225.624 16.4104 233.537 22.7256C241.316 28.9343 246.666 36.9605 249.009 45.9364C249.03 46.02 249.042 46.1054 249.044 46.1914C249.08 47.9266 249.017 49.6912 248.857 51.4366C248.494 55.4079 247.636 59.3035 246.308 63.0144C246.272 63.1148 246.223 63.2074 246.163 63.2904C241.306 70.8674 234.223 77.4899 226.214 81.9435C218.638 86.1554 210.49 88.3345 202.426 88.3351L202.425 88.3357ZM157.974 54.2526C163.911 68.7455 178.749 84.1454 198.585 85.96C218.423 87.7763 235.811 75.3235 244.279 62.1489C245.52 58.6503 246.322 54.9797 246.665 51.2369C246.813 49.6166 246.874 47.9795 246.846 46.3677C242.18 28.7334 225.457 15.6508 205.188 13.7966C184.922 11.9423 166.104 21.7675 158.315 38.2566C157.993 39.8282 157.754 41.4533 157.604 43.0892C157.262 46.8368 157.386 50.5916 157.974 54.2526H157.974Z" fill="#371A45"/>
<g opacity="0.5">
<path d="M240.732 51.0124C241.833 46.7062 240.196 42.5686 237.076 41.771C233.956 40.9733 230.534 43.8175 229.433 48.1238C228.332 52.43 229.969 56.5676 233.089 57.3652C236.21 58.1629 239.632 55.3187 240.732 51.0124Z" fill="white"/>
</g>
<g opacity="0.5">
<path d="M229.754 66.1609C230.528 64.273 229.842 62.2046 228.222 61.5409C226.602 60.8773 224.662 61.8697 223.888 63.7575C223.115 65.6454 223.801 67.7138 225.421 68.3775C227.041 69.0412 228.981 68.0488 229.754 66.1609Z" fill="white"/>
</g>
<g opacity="0.5">
<path d="M165.409 57.566C165.409 57.566 159.791 33.9155 172.914 25.5831C186.038 17.2507 203.972 18.5637 203.471 19.6842C203.471 19.6842 183.271 23.0793 174.385 38.226C167.533 49.906 165.41 57.566 165.41 57.566H165.409Z" fill="white"/>
</g>
<defs>
<filter id="filter0_d_563_209" x="94.9465" y="168.792" width="187.827" height="180.56" filterUnits="userSpaceOnUse" color-interpolation-filters="sRGB">
<feFlood flood-opacity="0" result="BackgroundImageFix"/>
<feColorMatrix in="SourceAlpha" type="matrix" values="0 0 0 0 0 0 0 0 0 0 0 0 0 0 0 0 0 0 127 0" result="hardAlpha"/>
<feOffset dx="-7"/>
<feGaussianBlur stdDeviation="2"/>
<feColorMatrix type="matrix" values="0 0 0 0 0 0 0 0 0 0 0 0 0 0 0 0 0 0 0.4 0"/>
<feBlend mode="normal" in2="BackgroundImageFix" result="effect1_dropShadow_563_209"/>
<feBlend mode="normal" in="SourceGraphic" in2="effect1_dropShadow_563_209" result="shape"/>
</filter>
<filter id="filter1_d_563_209" x="249.745" y="165.345" width="142.946" height="174.787" filterUnits="userSpaceOnUse" color-interpolation-filters="sRGB">
<feFlood flood-opacity="0" result="BackgroundImageFix"/>
<feColorMatrix in="SourceAlpha" type="matrix" values="0 0 0 0 0 0 0 0 0 0 0 0 0 0 0 0 0 0 127 0" result="hardAlpha"/>
<feOffset dx="-7"/>
<feGaussianBlur stdDeviation="2"/>
<feColorMatrix type="matrix" values="0 0 0 0 0 0 0 0 0 0 0 0 0 0 0 0 0 0 0.4 0"/>
<feBlend mode="normal" in2="BackgroundImageFix" result="effect1_dropShadow_563_209"/>
<feBlend mode="normal" in="SourceGraphic" in2="effect1_dropShadow_563_209" result="shape"/>
</filter>
<linearGradient id="paint0_linear_563_209" x1="161.926" y1="180.044" x2="231.062" y2="338.101" gradientUnits="userSpaceOnUse">
<stop stop-color="#C50D15"/>
<stop offset="1" stop-color="#280001"/>
</linearGradient>
<linearGradient id="paint1_linear_563_209" x1="144.681" y1="227.015" x2="155.32" y2="251.33" gradientUnits="userSpaceOnUse">
<stop stop-color="#1F0406"/>
<stop offset="1" stop-color="#A8111A"/>
</linearGradient>
<linearGradient id="paint2_linear_563_209" x1="236.385" y1="197.346" x2="240.976" y2="205.306" gradientUnits="userSpaceOnUse">
<stop stop-color="#190306"/>
<stop offset="1" stop-color="#E0131F"/>
</linearGradient>
<linearGradient id="paint3_linear_563_209" x1="266.637" y1="265.634" x2="276.145" y2="268.945" gradientUnits="userSpaceOnUse">
<stop stop-color="#2E0508"/>
<stop offset="1" stop-color="#7D060D"/>
</linearGradient>
<linearGradient id="paint4_linear_563_209" x1="186.748" y1="174.043" x2="187.362" y2="179.405" gradientUnits="userSpaceOnUse">
<stop stop-color="#420609"/>
<stop offset="1" stop-color="#DF131E"/>
</linearGradient>
<linearGradient id="paint5_linear_563_209" x1="202.263" y1="295.138" x2="208.975" y2="330.086" gradientUnits="userSpaceOnUse">
<stop stop-color="#150305"/>
<stop offset="1" stop-color="#70090F"/>
</linearGradient>
<linearGradient id="paint6_linear_563_209" x1="116.824" y1="302.207" x2="108.53" y2="270.689" gradientUnits="userSpaceOnUse">
<stop stop-color="#6F060A"/>
<stop offset="1" stop-color="#8C080E"/>
</linearGradient>
<linearGradient id="paint7_linear_563_209" x1="119.713" y1="301.327" x2="110.909" y2="269.932" gradientUnits="userSpaceOnUse">
<stop stop-color="#6F060A"/>
<stop offset="1" stop-color="#8C080E"/>
</linearGradient>
<linearGradient id="paint8_linear_563_209" x1="213.035" y1="342.292" x2="179.944" y2="343.973" gradientUnits="userSpaceOnUse">
<stop stop-color="#2A0001"/>
<stop offset="1" stop-color="#360103"/>
</linearGradient>
<linearGradient id="paint9_linear_563_209" x1="213.176" y1="340.306" x2="179.966" y2="340.298" gradientUnits="userSpaceOnUse">
<stop stop-color="#2A0001"/>
<stop offset="1" stop-color="#360103"/>
</linearGradient>
<linearGradient id="paint10_linear_563_209" x1="269.436" y1="307.183" x2="281.047" y2="282.301" gradientUnits="userSpaceOnUse">
<stop stop-color="#380103"/>
<stop offset="1" stop-color="#470205"/>
</linearGradient>
<linearGradient id="paint11_linear_563_209" x1="267.012" y1="306.08" x2="278.526" y2="281.152" gradientUnits="userSpaceOnUse">
<stop stop-color="#380103"/>
<stop offset="1" stop-color="#470205"/>
</linearGradient>
<linearGradient id="paint12_linear_563_209" x1="259.482" y1="196.043" x2="271.094" y2="210.972" gradientUnits="userSpaceOnUse">
<stop stop-color="#92090E"/>
<stop offset="1" stop-color="#82070C"/>
</linearGradient>
<linearGradient id="paint13_linear_563_209" x1="258.157" y1="196.947" x2="269.386" y2="212.197" gradientUnits="userSpaceOnUse">
<stop stop-color="#92090E"/>
<stop offset="1" stop-color="#82070C"/>
</linearGradient>
</defs>
</svg>
