<svg width="500" height="300" viewBox="0 0 500 300" fill="none" xmlns="http://www.w3.org/2000/svg">
<path d="M222.938 56.6576L442.201 61.8618C465.739 61.8618 484.62 68.1527 484.62 75.9952L471.119 120.387C471.119 128.23 456.062 133.923 432.525 133.923L384.611 134.202L395.884 150.657L352.62 133.923L311.12 135.197C294.62 134.202 241.62 136.192 222.938 135.197H165.12L127.12 128.658L98.6204 120.387L81.1204 104.657C28.1203 46.6568 199.402 56.6576 222.938 56.6576Z" fill="white" stroke="black" stroke-width="2" stroke-linecap="round" stroke-linejoin="round"/>
<path d="M127.708 83.8342V105.578H129.7V83.8342H127.708ZM121.036 90.9862V92.6182H128.356V90.9862H121.036ZM112.996 86.2582V99.6982H114.964V86.2582H112.996ZM112.996 98.6422V100.322H114.676C118.108 100.322 121.156 100.106 124.612 99.4342L124.372 97.7542C121.036 98.4502 118.036 98.6422 114.676 98.6422H112.996ZM136.37 93.9622V95.5942H151.274V93.9622H136.37ZM133.898 101.138V102.818H153.554V101.138H133.898ZM142.682 94.6582V101.81H144.674V94.6582H142.682ZM136.37 85.5622V94.6822H138.362V87.1942H151.058V85.5622H136.37ZM162.703 93.7462V95.3782H182.383V93.7462H162.703ZM171.511 94.4422V97.7542H173.455V94.4422H171.511ZM171.463 98.7622V99.4342C171.463 101.738 168.055 103.514 164.143 103.922L164.791 105.458C169.327 104.93 173.167 102.746 173.167 99.4342V98.7622H171.463ZM171.799 98.7622V99.4342C171.799 102.818 175.663 104.93 180.175 105.458L180.823 103.922C176.887 103.538 173.503 101.81 173.503 99.4342V98.7622H171.799ZM172.519 84.1462C167.791 84.1462 164.887 85.6102 164.887 88.1302C164.887 90.6502 167.791 92.1142 172.519 92.1142C177.223 92.1142 180.151 90.6502 180.151 88.1302C180.151 85.6102 177.223 84.1462 172.519 84.1462ZM172.519 85.6822C175.975 85.6822 178.111 86.5702 178.111 88.1302C178.111 89.6662 175.975 90.5782 172.519 90.5782C169.039 90.5782 166.927 89.6662 166.927 88.1302C166.927 86.5702 169.039 85.6822 172.519 85.6822ZM194.597 84.3142C189.893 84.3142 186.965 85.8502 186.965 88.4182C186.965 90.9862 189.893 92.4982 194.597 92.4982C199.277 92.4982 202.229 90.9862 202.229 88.4182C202.229 85.8502 199.277 84.3142 194.597 84.3142ZM194.597 85.8982C198.029 85.8982 200.189 86.8102 200.189 88.4182C200.189 90.0022 198.029 90.9382 194.597 90.9382C191.141 90.9382 189.005 90.0022 189.005 88.4182C189.005 86.8102 191.141 85.8982 194.597 85.8982ZM187.181 98.0902V105.242H201.989V98.0902H187.181ZM200.045 99.6982V103.634H189.149V99.6982H200.045ZM184.781 94.3702V95.9782H204.389V94.3702H184.781ZM216.939 84.6502V86.2822H223.155V84.6502H216.939ZM206.883 93.0982V94.7302H226.467V93.0982H206.883ZM216.099 89.4022V94.1302H218.067V89.4022H216.099ZM222.339 84.6502V85.5622C222.339 86.7862 222.339 88.6822 221.715 91.5622L223.659 91.7782C224.259 88.9462 224.259 86.8102 224.259 85.5622V84.6502H222.339ZM208.563 84.6502V86.2822H214.275V84.6502H208.563ZM213.219 84.6502V85.4902C213.219 86.6902 213.219 88.5382 212.211 91.4902L214.155 91.8022C215.139 88.9222 215.139 86.7382 215.139 85.4902V84.6502H213.219ZM215.643 98.6902V99.0022C215.643 101.378 212.283 103.418 208.539 103.898L209.259 105.434C213.579 104.786 217.347 102.338 217.347 99.0022V98.6902H215.643ZM215.979 98.6902V99.0022C215.979 102.362 219.747 104.786 224.043 105.434L224.787 103.898C221.043 103.418 217.659 101.378 217.659 99.0022V98.6902H215.979ZM209.427 97.7302V99.3142H223.899V97.7302H209.427ZM215.643 95.5222V98.3062H217.659V95.5222H215.643ZM250.399 83.8342V105.53H252.391V83.8342H250.399ZM251.911 92.7382V94.4182H255.943V92.7382H251.911ZM235.591 87.2902V88.9222H248.383V87.2902H235.591ZM242.071 90.7222C239.023 90.7222 236.791 92.7862 236.791 95.7142C236.791 98.6422 239.023 100.706 242.071 100.706C245.143 100.706 247.351 98.6422 247.351 95.7142C247.351 92.7862 245.143 90.7222 242.071 90.7222ZM242.071 92.3782C244.039 92.3782 245.455 93.7462 245.455 95.7142C245.455 97.6582 244.039 99.0502 242.071 99.0502C240.103 99.0502 238.687 97.6582 238.687 95.7142C238.687 93.7462 240.103 92.3782 242.071 92.3782ZM241.039 84.0982V88.0342H243.031V84.0982H241.039ZM273.917 92.4742V94.1542H277.925V92.4742H273.917ZM272.453 83.8102V105.53H274.469V83.8102H272.453ZM258.629 85.9462V99.3862H260.621V85.9462H258.629ZM258.629 98.3542V100.034H260.357C263.645 100.034 266.981 99.8182 270.677 99.0502L270.437 97.3942C266.861 98.1382 263.573 98.3542 260.357 98.3542H258.629ZM302.385 83.8582V96.1702H304.401V83.8582H302.385ZM290.385 97.4182V105.242H304.401V97.4182H290.385ZM302.433 99.0022V103.634H292.329V99.0022H302.433ZM292.257 84.6742V86.7862C292.257 89.9542 290.025 92.8822 286.761 94.0582L287.745 95.6422C291.417 94.2742 293.913 90.8182 293.913 86.7862V84.6742H292.257ZM292.617 84.6742V86.7862C292.617 90.7222 295.113 93.9622 298.737 95.2102L299.721 93.6502C296.505 92.5702 294.249 89.8582 294.249 86.7862V84.6742H292.617ZM314.479 85.4902C311.311 85.4902 309.079 88.4422 309.079 93.0502C309.079 97.6822 311.311 100.634 314.479 100.634C317.623 100.634 319.879 97.6822 319.879 93.0502C319.879 88.4422 317.623 85.4902 314.479 85.4902ZM314.479 87.2902C316.567 87.2902 317.983 89.5462 317.983 93.0502C317.983 96.5782 316.567 98.8822 314.479 98.8822C312.391 98.8822 310.975 96.5782 310.975 93.0502C310.975 89.5462 312.391 87.2902 314.479 87.2902ZM324.583 83.8102V105.554H326.551V83.8102H324.583ZM319.231 92.0902V93.7222H325.447V92.0902H319.231ZM330.773 101.114V102.77H350.429V101.114H330.773ZM339.557 95.9302V101.594H341.549V95.9302H339.557ZM333.077 85.3702V96.4582H348.077V85.3702H346.109V89.2342H335.045V85.3702H333.077ZM335.045 90.8422H346.109V94.8262H335.045V90.8422ZM358.588 86.9302V90.4582C358.588 94.2022 355.972 98.2822 352.828 99.7702L353.98 101.354C357.436 99.6502 360.196 95.0422 360.196 90.4582V86.9302H358.588ZM358.972 86.9302V90.4582C358.972 94.9702 361.756 99.1942 365.26 100.826L366.388 99.2422C363.196 97.8742 360.58 94.1302 360.58 90.4582V86.9302H358.972ZM353.548 86.0422V87.7222H365.668V86.0422H353.548ZM368.596 83.8342V105.53H370.588V83.8342H368.596ZM387.656 85.0582C384.44 85.0582 382.064 87.1222 382.064 90.0742C382.064 93.0262 384.44 95.0902 387.656 95.0902C390.896 95.0902 393.272 93.0262 393.272 90.0742C393.272 87.1222 390.896 85.0582 387.656 85.0582ZM387.656 86.6902C389.768 86.6902 391.352 88.1062 391.352 90.0742C391.352 92.0422 389.768 93.4582 387.656 93.4582C385.592 93.4582 384.008 92.0422 384.008 90.0742C384.008 88.1062 385.592 86.6902 387.656 86.6902ZM396.512 83.8342V94.6342H398.504V83.8342H396.512ZM397.64 88.7062V90.3382H401.72V88.7062H397.64ZM383.936 103.322V104.954H384.968C386.456 104.954 388.448 104.858 390.536 104.186L390.2 102.578C388.352 103.202 386.264 103.322 384.968 103.322H383.936ZM383.936 96.9862V103.898H385.88V96.9862H383.936ZM389.744 97.1302V98.6182H400.64V97.1302H389.744ZM395.216 99.3862C392.84 99.3862 391.184 100.562 391.184 102.434C391.184 104.33 392.84 105.506 395.216 105.506C397.568 105.506 399.224 104.33 399.224 102.434C399.224 100.562 397.568 99.3862 395.216 99.3862ZM395.216 100.802C396.512 100.802 397.448 101.45 397.448 102.434C397.448 103.442 396.512 104.09 395.216 104.09C393.872 104.09 392.96 103.442 392.96 102.434C392.96 101.45 393.872 100.802 395.216 100.802ZM394.232 95.1862V98.2822H396.176V95.1862H394.232ZM411.27 85.4182V86.0662C411.27 90.1702 408.726 93.3622 403.95 95.3302L404.958 96.7942C410.382 94.4902 413.262 90.6022 413.262 85.4182H411.27ZM404.886 85.4182V87.0742H412.038V85.4182H404.886ZM420.126 83.8342V96.3622H422.022V83.8342H420.126ZM411.03 90.0022V91.6102H416.262V90.0022H411.03ZM415.83 84.2902V96.0262H417.702V84.2902H415.83ZM409.374 97.1062V98.5222C409.374 100.634 407.718 102.986 405.006 103.97L405.99 105.458C409.11 104.258 410.91 101.378 410.91 98.5222V97.1062H409.374ZM409.806 97.1062V98.5222C409.806 101.426 411.198 104.402 414.342 105.65L415.182 104.162C412.566 103.058 411.294 100.73 411.294 98.5222V97.1062H409.806ZM417.342 97.1062V98.5222C417.342 100.394 416.07 102.962 413.454 104.162L414.342 105.65C417.414 104.33 418.83 101.09 418.83 98.5222V97.1062H417.342ZM417.75 97.1062V98.5222C417.75 101.546 419.526 104.306 422.67 105.458L423.654 103.97C420.918 103.058 419.286 100.802 419.286 98.5222V97.1062H417.75ZM441.604 83.8342V105.53H443.596V83.8342H441.604ZM427.204 85.9462V99.3862H429.172V85.9462H427.204ZM427.204 98.2102V99.9382H428.98C432.412 99.9382 435.844 99.6742 439.612 98.9062L439.372 97.2022C435.7 97.9702 432.268 98.2102 428.98 98.2102H427.204ZM451.18 98.7491V98.6468C451.191 97.5616 451.305 96.698 451.521 96.0559C451.737 95.4139 452.044 94.894 452.441 94.4963C452.839 94.0985 453.316 93.7321 453.873 93.3968C454.208 93.1923 454.51 92.9508 454.777 92.6724C455.044 92.3883 455.254 92.0616 455.407 91.6923C455.566 91.323 455.646 90.9139 455.646 90.465C455.646 89.9082 455.515 89.4252 455.254 89.0162C454.993 88.6071 454.643 88.2917 454.206 88.0701C453.768 87.8485 453.282 87.7377 452.748 87.7377C452.282 87.7377 451.833 87.8343 451.402 88.0275C450.97 88.2207 450.609 88.5247 450.319 88.9395C450.029 89.3542 449.862 89.8968 449.816 90.5673H447.669C447.714 89.6014 447.964 88.7747 448.419 88.0872C448.879 87.3997 449.484 86.8741 450.234 86.5105C450.99 86.1468 451.828 85.965 452.748 85.965C453.748 85.965 454.618 86.1639 455.356 86.5616C456.1 86.9593 456.674 87.5048 457.078 88.198C457.487 88.8912 457.691 89.6809 457.691 90.5673C457.691 91.1923 457.595 91.7576 457.402 92.2633C457.214 92.769 456.941 93.2207 456.583 93.6184C456.231 94.0162 455.805 94.3684 455.305 94.6752C454.805 94.9877 454.404 95.3173 454.103 95.6639C453.802 96.0048 453.583 96.411 453.447 96.8826C453.311 97.3542 453.237 97.9423 453.225 98.6468V98.7491H451.18ZM452.271 103.795C451.85 103.795 451.49 103.644 451.189 103.343C450.887 103.042 450.737 102.681 450.737 102.26C450.737 101.84 450.887 101.479 451.189 101.178C451.49 100.877 451.85 100.726 452.271 100.726C452.691 100.726 453.052 100.877 453.353 101.178C453.654 101.479 453.805 101.84 453.805 102.26C453.805 102.539 453.734 102.795 453.592 103.028C453.456 103.26 453.271 103.448 453.038 103.59C452.811 103.726 452.555 103.795 452.271 103.795Z" fill="black"/>
<path d="M445.262 212.448C445.262 212.448 459.694 218.983 476.214 213.265L479.573 212.448C479.573 212.448 486.108 211.268 489.829 212.448C493.551 213.628 494.095 220.708 494.912 231.509C495.729 242.311 495.275 252.93 494.277 254.927C493.278 256.924 489.012 257.287 485.472 257.287C485.472 257.287 484.201 262.461 484.473 271.084C484.746 279.707 486.924 293.05 486.47 295.591C486.016 298.132 485.2 298.95 481.569 299.04C477.938 299.131 463.778 299.04 463.778 299.04C463.778 299.04 461.1 298.36 461.282 294.774C461.463 291.189 464.504 290.735 464.504 290.735C464.504 290.735 464.849 283.131 463.869 280.569C462.999 278.298 460.873 274.216 460.873 274.216C460.873 274.216 459.693 279.979 459.284 284.336C458.876 288.693 459.148 295.274 459.148 295.274C459.148 295.274 458.831 297.68 456.108 297.77C453.385 297.861 438.136 298.315 435.277 297.589C432.417 296.863 432.508 292.37 433.461 290.464C434.414 288.557 437.727 288.24 437.727 288.24C437.727 288.24 438.877 268.634 440.571 257.5L441.224 241.417L438.699 240.696L438.882 234.144L441.6 233.9L441.802 229.515C441.802 229.515 424.717 228.575 414.43 220.588C404.143 212.6 402.449 209.817 402.812 204.491C403.175 199.166 408.44 196.867 412.796 197.835C417.153 198.803 425.893 207.913 431.464 210.27C436.184 212.267 445.261 212.449 445.261 212.449L445.262 212.448Z" fill="white"/>
<path d="M461.193 235.731C462.221 234.703 462.221 233.036 461.193 232.008C460.165 230.98 458.498 230.98 457.47 232.008C456.442 233.036 456.442 234.703 457.47 235.731C458.498 236.759 460.165 236.759 461.193 235.731Z" fill="#22A7F0"/>
<g opacity="0.3">
<path d="M403.3 202.373C403.3 202.373 403.69 204.34 405.536 205.762C407.381 207.184 411.012 203.59 411.012 203.59C411.012 203.59 410.346 206.229 408.833 207.698C407.321 209.168 406.103 209.004 404.87 209.06C403.637 209.116 403.116 208.478 403.075 208.314C403.033 208.15 402.093 204.462 403.3 202.374L403.3 202.373Z" fill="#371A45"/>
</g>
<g opacity="0.3">
<path d="M409.045 208.465C409.045 208.465 413.765 216.986 424.567 221.615C435.368 226.245 445.111 219.132 445.111 219.132L442.236 227.022C442.236 227.022 442.302 229.317 440.814 229.3C439.327 229.284 431.941 228.484 424.033 225.73C416.126 222.977 410.631 217.273 408.726 215.904C406.822 214.536 404.44 211.2 404.031 210.292C403.622 209.385 404.031 209.187 404.031 209.187C404.031 209.187 405.279 209.555 406.64 209.345C408.002 209.135 409.046 208.465 409.046 208.465H409.045Z" fill="#371A45"/>
</g>
<g opacity="0.3">
<path d="M438.785 237.658C438.784 237.702 441.404 237.84 441.404 237.84L441.261 240.703L440.406 241.017L438.879 240.746C438.879 240.746 438.712 240.246 438.714 240.179C438.716 240.111 438.785 237.658 438.785 237.658V237.658Z" fill="#371A45"/>
</g>
<g opacity="0.3">
<path d="M442.59 245.691L442.902 241.416C442.902 241.416 454.294 242.174 456.699 242.084C459.104 241.993 460.375 236.501 460.375 236.501C460.375 236.501 457.425 236.411 456.699 234.731C455.972 233.052 457.245 232.267 457.245 232.267C457.245 232.267 458.741 234.686 459.921 234.595C461.101 234.505 461.736 233.869 461.736 233.869L461.418 232.267L461.056 231.464L461.328 229.301H467.047L467.556 233.233L467.402 236.138L472.675 236.093L472.615 237.658C472.615 237.658 473.071 239.452 472.13 241.07C471.189 242.688 469.998 245.161 468.9 246.126C467.803 247.091 466.986 247.453 466.986 247.453L465.599 247.052L464.567 248.214C464.567 248.214 447.214 248.164 445.671 247.574C444.128 246.984 442.591 245.69 442.591 245.69L442.59 245.691Z" fill="#371A45"/>
</g>
<g opacity="0.2">
<path d="M432.821 294.625C432.821 294.625 446.26 296.105 450.375 294.593C454.49 293.08 455.458 273.716 455.095 270.267C454.732 266.817 445.958 265.607 444.687 259.798C446.079 258.225 448.802 259.733 453.492 260.583L452.328 259.112L452.199 258.779C452.199 258.779 460.783 261.977 473.188 256.228C485.593 250.479 489.191 242.881 489.903 237.18C489.903 237.18 489.876 247.656 485.934 250.731L486.499 251.342C486.499 251.342 485.947 254.541 485.93 254.634C485.914 254.728 484.084 262.551 484.553 272.873C485.021 283.195 487.802 295.379 485.487 297.618C483.173 299.857 470.155 298.927 470.155 298.927C470.155 298.927 463.555 298.97 463.426 298.907C463.297 298.845 461.947 297.63 461.947 297.63L461.206 296.953V296.045C461.206 296.045 474.035 296.65 477.787 295.016C481.539 293.382 480.933 282.248 480.026 273.897C479.118 265.546 474.86 263.817 465.079 264.167C465.079 264.167 460.274 265.047 459.49 264.934C458.705 264.82 457.992 265.07 457.924 265.342C457.856 265.615 460.6 273.469 460.644 273.589C460.688 273.708 460.726 274.961 460.726 274.961C460.726 274.961 459.512 280.992 459.164 284.865C458.816 288.737 459.128 294.697 459.128 294.697C459.128 294.697 459.073 296.906 457.122 297.436C455.17 297.966 435.89 297.701 435.89 297.701C435.89 297.701 433.183 297.416 432.82 294.625L432.821 294.625Z" fill="#371A45"/>
</g>
<g opacity="0.2">
<path d="M481.374 214.931C481.374 214.931 488.344 214.597 489.903 215.504C491.463 216.412 492.734 229.215 493.036 238.758C493.339 248.301 493.278 253.177 491.463 254.347C489.647 255.517 485.518 255.517 485.518 255.517L486.743 250.419L487.275 249.061C487.275 249.061 490.704 242.129 489.903 234.232C489.103 226.335 485.13 219.579 485.033 219.419C484.936 219.26 481.374 214.931 481.374 214.931V214.931Z" fill="#371A45"/>
</g>
<path d="M475.347 299.886C470.111 299.886 463.868 299.846 463.774 299.846C463.709 299.846 463.644 299.837 463.58 299.821C462.434 299.529 460.309 298.091 460.479 294.735C460.623 291.896 462.405 290.566 463.724 290.108C463.802 287.688 463.81 282.665 463.118 280.857C462.672 279.691 461.875 278.014 461.221 276.687C460.844 278.755 460.327 281.847 460.086 284.412C459.688 288.663 459.95 295.175 459.953 295.241C459.955 295.287 459.953 295.333 459.947 295.379C459.806 296.445 458.828 298.484 456.135 298.574C453.147 298.673 438.085 299.131 435.079 298.368C433.981 298.089 433.128 297.346 432.612 296.219C431.736 294.306 431.991 291.607 432.742 290.103C433.603 288.382 435.814 287.754 436.965 287.539C437.182 284.04 438.267 267.328 439.77 257.423L440.396 242.017L438.479 241.469C438.125 241.368 437.885 241.04 437.896 240.673L438.079 234.121C438.091 233.713 438.405 233.379 438.812 233.342L440.83 233.162L440.963 230.261C437.418 229.969 423.155 228.38 413.938 221.223C403.727 213.295 401.61 210.314 402.01 204.437C402.174 202.035 403.249 200.027 405.119 198.628C407.264 197.024 410.199 196.434 412.972 197.05C415.434 197.597 418.95 200.363 422.672 203.291C425.894 205.827 429.227 208.45 431.779 209.529C436.3 211.442 445.189 211.642 445.278 211.644C445.387 211.646 445.495 211.671 445.593 211.716C445.735 211.78 459.945 218.046 475.951 212.505C475.974 212.497 475.999 212.49 476.023 212.484L479.382 211.667C479.397 211.663 479.413 211.66 479.429 211.657C479.704 211.608 486.205 210.456 490.072 211.682C494.321 213.029 494.875 220.357 495.714 231.449C496.498 241.816 496.162 252.955 494.996 255.288C494.078 257.125 491.252 258.02 486.125 258.088C485.815 259.681 485.064 264.322 485.277 271.06C485.41 275.256 485.996 280.567 486.513 285.253C487.133 290.877 487.502 294.392 487.262 295.734C486.71 298.827 485.437 299.749 481.589 299.846C480.38 299.876 477.992 299.886 475.347 299.886L475.347 299.886ZM463.902 298.238C465.279 298.247 478.148 298.322 481.549 298.238C484.915 298.154 485.315 297.488 485.679 295.451C485.89 294.27 485.416 289.976 484.915 285.431C484.395 280.715 483.805 275.37 483.67 271.111C483.397 262.477 484.639 257.313 484.692 257.097C484.78 256.738 485.102 256.485 485.473 256.485C491.674 256.485 493.2 255.285 493.558 254.57C494.351 252.985 494.976 243.003 494.111 231.572C493.35 221.507 492.8 214.236 489.587 213.217C486.205 212.144 480.156 213.165 479.738 213.237L476.441 214.039C460.543 219.527 446.769 213.978 445.084 213.25C443.793 213.215 435.665 212.921 431.152 211.012C428.402 209.849 424.983 207.159 421.677 204.557C418.261 201.869 414.728 199.089 412.623 198.622C410.337 198.113 407.831 198.61 406.082 199.918C404.599 201.027 403.746 202.628 403.615 204.547C403.283 209.422 404.727 212.035 414.924 219.954C424.889 227.691 441.679 228.704 441.847 228.713C442.288 228.737 442.626 229.112 442.606 229.553L442.404 233.939C442.386 234.341 442.074 234.667 441.673 234.703L439.668 234.882L439.521 240.096L441.446 240.646C441.804 240.748 442.044 241.08 442.029 241.452L441.376 257.534C441.375 257.564 441.372 257.593 441.368 257.622C439.698 268.592 438.543 288.093 438.531 288.288C438.508 288.684 438.2 289.004 437.805 289.042C437.006 289.121 434.796 289.596 434.181 290.825C433.609 291.969 433.429 294.142 434.075 295.551C434.39 296.239 434.848 296.651 435.475 296.811C437.793 297.399 449.518 297.187 456.082 296.968C457.891 296.908 458.274 295.561 458.342 295.223C458.31 294.4 458.096 288.405 458.485 284.263C458.893 279.913 460.074 274.114 460.086 274.056C460.154 273.723 460.425 273.468 460.762 273.421C461.1 273.373 461.43 273.544 461.587 273.846C461.675 274.014 463.745 277.996 464.62 280.284C465.648 282.972 465.322 290.457 465.308 290.774C465.29 291.158 465.003 291.476 464.623 291.533C464.384 291.573 462.227 292.01 462.085 294.817C461.956 297.385 463.487 298.095 463.902 298.239L463.902 298.238Z" fill="#371A45"/>
<path d="M441.225 242.222C441.152 242.222 441.077 242.211 441.004 242.191L439.368 241.723C438.941 241.602 438.694 241.156 438.816 240.729C438.938 240.302 439.383 240.054 439.81 240.177L440.473 240.366L440.798 233.86C440.82 233.416 441.198 233.075 441.641 233.097C442.085 233.119 442.427 233.496 442.405 233.94L442.029 241.457C442.017 241.703 441.894 241.929 441.694 242.071C441.556 242.17 441.392 242.221 441.226 242.221L441.225 242.222Z" fill="#371A45"/>
<path d="M457.97 246.931C456.474 246.931 454.674 246.909 452.503 246.856C446.734 246.716 441.07 246.424 441.013 246.421C440.574 246.398 440.234 246.025 440.252 245.584L440.422 241.384C440.44 240.94 440.818 240.594 441.258 240.613C441.702 240.631 442.047 241.006 442.029 241.45L441.891 244.854C452.105 245.365 463.065 245.535 464.55 244.954C464.804 244.46 465.179 242.157 465.117 236.282C465.08 232.773 464.902 229.535 464.774 228.246C461.974 228.359 450.704 228.958 442.613 229.399L442.404 233.937C442.384 234.381 442.011 234.724 441.564 234.703C441.12 234.683 440.777 234.306 440.798 233.863L441.04 228.598C441.059 228.186 441.387 227.855 441.8 227.832C465.199 226.556 465.47 226.609 465.601 226.637C465.755 226.667 466.129 226.795 466.26 227.309C466.466 228.118 466.698 232.709 466.729 236.577C466.799 245.194 465.986 245.871 465.595 246.196C465.269 246.468 464.712 246.931 457.97 246.931V246.931Z" fill="#371A45"/>
<path d="M455.095 246.886C454.651 246.886 454.291 246.526 454.291 246.082V239.764C448.273 239.585 448.128 239.444 447.873 239.197C447.554 238.889 447.434 238.773 447.629 228.264C447.637 227.82 447.999 227.478 448.447 227.475C448.891 227.483 449.245 227.85 449.236 228.293C449.165 232.144 449.127 236.425 449.174 237.919C450.258 238.009 452.806 238.114 455.117 238.178C455.553 238.191 455.899 238.547 455.899 238.982V246.082C455.899 246.525 455.539 246.886 455.095 246.886H455.095Z" fill="#371A45"/>
<path d="M459.332 237.307C457.437 237.307 455.895 235.765 455.895 233.87C455.895 231.975 457.437 230.434 459.332 230.434C461.226 230.434 462.768 231.975 462.768 233.87C462.768 235.765 461.227 237.307 459.332 237.307V237.307ZM459.332 232.043C458.324 232.043 457.504 232.862 457.504 233.87C457.504 234.879 458.324 235.698 459.332 235.698C460.339 235.698 461.16 234.878 461.16 233.87C461.16 232.863 460.339 232.043 459.332 232.043Z" fill="#371A45"/>
<path d="M472.674 239.394H467.773C467.341 239.394 466.986 239.053 466.969 238.622L466.742 233.034C466.733 232.819 466.811 232.61 466.958 232.453C467.105 232.296 467.308 232.204 467.523 232.198L468.08 232.182C467.939 230.603 467.748 228.971 467.595 228.223H467.589C467.019 228.223 466.09 228.226 465.447 228.229H465.443C465.001 228.229 464.641 227.872 464.639 227.429C464.637 226.985 464.995 226.623 465.439 226.621C466.398 226.616 468.03 226.611 468.185 226.62C468.991 226.669 469.176 227.366 469.487 230.111C469.572 230.864 469.644 231.623 469.692 232.158H472.311C472.735 232.158 473.086 232.487 473.114 232.91L473.477 238.537C473.491 238.759 473.413 238.977 473.261 239.139C473.109 239.302 472.896 239.393 472.674 239.393L472.674 239.394ZM468.545 237.785H471.817L471.558 233.767H468.965L468.383 233.783L468.546 237.785H468.545Z" fill="#371A45"/>
<path d="M465.079 246.383C464.717 246.383 464.388 246.136 464.299 245.769C464.194 245.337 464.458 244.902 464.89 244.797C465.523 244.643 467.299 244.17 468.083 243.797C468.433 243.333 468.821 240.921 468.92 238.556C468.939 238.112 469.312 237.769 469.758 237.786C470.202 237.805 470.547 238.179 470.528 238.623C470.364 242.521 469.803 244.736 468.858 245.208C467.791 245.742 465.373 246.334 465.271 246.36C465.207 246.375 465.142 246.382 465.079 246.382V246.383Z" fill="#371A45"/>
<path d="M485.474 258.093C485.428 258.093 485.382 258.089 485.335 258.081C484.897 258.005 484.604 257.589 484.68 257.152L485.951 249.8C485.972 249.674 486.023 249.556 486.1 249.454C486.121 249.425 488.424 246.236 489.028 239.337C489.646 232.272 486.315 217.191 477.741 213.559C477.332 213.385 477.141 212.913 477.314 212.505C477.488 212.095 477.96 211.904 478.369 212.078C487.78 216.065 491.303 231.793 490.63 239.477C490.054 246.055 488.025 249.469 487.505 250.249L486.264 257.425C486.197 257.817 485.856 258.093 485.473 258.093H485.474Z" fill="#371A45"/>
<path d="M461.569 263.997C457.76 263.997 454.895 262.854 453.242 261.438C450.76 259.312 451.339 257.873 451.48 257.607C451.598 257.383 451.815 257.228 452.066 257.188C455.068 256.714 460.248 255.494 461.364 254.241C462.251 253.244 462.889 251.043 463.355 249.437C463.864 247.682 464.11 246.892 464.634 246.543C465.435 246.009 466.601 246.292 467.293 246.543C468.143 245.865 470.577 243.548 471.896 238.39C472.006 237.96 472.443 237.701 472.874 237.81C473.304 237.92 473.564 238.358 473.454 238.789C471.668 245.777 467.971 248.052 467.815 248.145C467.588 248.28 467.309 248.296 467.069 248.187C466.533 247.945 465.821 247.795 465.573 247.863C465.399 248.161 465.124 249.112 464.9 249.885C464.363 251.737 463.694 254.043 462.565 255.312C460.957 257.117 455.12 258.289 453.007 258.662C453.144 259.003 453.493 259.536 454.288 260.218C454.83 260.682 459.877 264.639 470.018 260.625C478.473 257.279 486.089 249.456 486.165 249.377C486.473 249.058 486.982 249.049 487.302 249.357C487.621 249.666 487.63 250.175 487.322 250.495C487.002 250.826 479.385 258.647 470.611 262.12C467.214 263.465 464.172 263.998 461.57 263.998L461.569 263.997Z" fill="#371A45"/>
<path d="M471.507 232.956C471.166 230.292 470.855 227.604 470.371 224.955C470.301 224.564 470.232 224.17 470.175 223.771C470.154 223.649 470.333 223.585 470.392 223.696C471.779 226.152 472.833 228.867 473.107 231.693C473.142 232.13 473.152 232.515 473.115 232.97C473.012 233.954 471.592 233.935 471.506 232.956L471.507 232.956Z" fill="#371A45"/>
<path d="M481.813 255.151C481.507 255.151 481.214 254.975 481.08 254.678C478.702 249.423 471.022 242.759 470.944 242.693C470.608 242.402 470.571 241.894 470.861 241.558C471.151 241.222 471.659 241.185 471.995 241.474C472.321 241.756 480.021 248.435 482.545 254.015C482.729 254.42 482.549 254.896 482.144 255.079C482.037 255.128 481.924 255.151 481.813 255.151H481.813Z" fill="#371A45"/>
<path d="M468.205 247.5C468.253 249.264 468.822 250.909 469.558 252.501C469.646 252.76 469.742 253.022 469.776 253.347C469.78 253.389 469.75 253.427 469.707 253.432C469.096 253.252 468.636 252.826 468.295 252.361C467.321 251.088 466.67 249.515 466.593 247.902C466.586 247.728 466.589 247.598 466.6 247.408C466.627 246.965 467.007 246.629 467.449 246.656C467.895 246.681 468.219 247.067 468.206 247.5L468.205 247.5Z" fill="#371A45"/>
<path d="M441.056 228.474C441.688 225.423 442.792 222.515 444.21 219.754C444.68 218.827 445.259 217.941 446.021 217.227C446.068 217.182 446.152 217.228 446.138 217.292C445.721 219.33 444.81 221.081 444.241 223.047C443.645 224.908 443.086 226.934 442.626 228.819C442.359 229.82 440.88 229.498 441.056 228.473L441.056 228.474Z" fill="#371A45"/>
<path d="M459.497 283.256C459.415 283.256 459.332 283.244 459.25 283.217C451.163 280.605 438.411 282.477 438.283 282.496C437.844 282.562 437.435 282.26 437.369 281.82C437.303 281.381 437.605 280.972 438.044 280.905C438.581 280.824 451.295 278.957 459.745 281.686C460.167 281.822 460.4 282.276 460.263 282.699C460.153 283.039 459.837 283.256 459.497 283.256H459.497Z" fill="#371A45"/>
<path d="M485.488 284.082C485.44 284.082 485.391 284.078 485.341 284.069C476.397 282.419 464.526 284.058 464.407 284.074C463.967 284.136 463.56 283.83 463.499 283.39C463.437 282.95 463.743 282.543 464.183 282.482C464.678 282.412 476.427 280.788 485.633 282.487C486.07 282.568 486.359 282.987 486.278 283.424C486.207 283.811 485.868 284.083 485.488 284.083L485.488 284.082Z" fill="#371A45"/>
<path d="M437.686 287.437C439.245 287.344 440.775 287.596 442.265 288.024C443.163 288.314 444.05 288.555 444.711 289.328C444.75 289.372 444.722 289.448 444.663 289.454C443.994 289.563 443.426 289.486 442.855 289.399C441.203 289.14 439.442 289.063 437.77 289.044C436.728 289.05 436.652 287.54 437.686 287.438L437.686 287.437Z" fill="#371A45"/>
<path d="M464.341 289.949C466.836 289.448 469.431 289.543 471.871 290.26C472.681 290.499 473.466 290.899 474.065 291.538C474.092 291.567 474.091 291.613 474.061 291.64C473.191 291.67 472.398 291.454 471.618 291.349C470.848 291.237 470.074 291.176 469.295 291.166C467.747 291.151 466.159 291.291 464.636 291.529C463.615 291.666 463.339 290.191 464.341 289.949Z" fill="#371A45"/>
<path d="M460.874 275.021C460.546 275.021 460.239 274.82 460.119 274.494L456.761 265.341C456.608 264.924 456.822 264.462 457.239 264.309C457.656 264.157 458.118 264.37 458.271 264.787L461.629 273.939C461.782 274.356 461.568 274.818 461.151 274.971C461.059 275.004 460.966 275.021 460.874 275.021V275.021Z" fill="#371A45"/>
<path d="M446.54 260.975C451.191 263.167 456.368 264.301 461.518 264.043C462.487 264.033 463.455 263.884 464.428 263.812C465.192 263.688 465.949 263.566 466.721 263.473C467.027 263.434 467.144 263.879 466.849 263.99C466.115 264.265 465.37 264.525 464.622 264.761C460.14 265.977 455.25 265.856 450.907 264.158C449.217 263.488 447.6 262.634 446.224 261.408C445.991 261.197 446.26 260.811 446.54 260.975V260.975Z" fill="#371A45"/>
<path d="M417.51 223.472C417.232 223.472 416.963 223.329 416.813 223.072C416.59 222.688 416.721 222.196 417.105 221.973C424.901 217.445 427.45 208.347 427.475 208.256C427.591 207.828 428.032 207.574 428.461 207.69C428.889 207.806 429.143 208.248 429.027 208.676C428.92 209.075 426.294 218.496 417.913 223.364C417.785 223.438 417.647 223.473 417.509 223.473L417.51 223.472Z" fill="#371A45"/>
<path d="M405.801 210.153C404.492 210.153 403.303 209.874 403.108 209.825C402.676 209.719 402.413 209.283 402.52 208.851C402.626 208.42 403.062 208.157 403.493 208.263C404.188 208.434 406.242 208.774 407.376 208.301C407.657 208.184 408.727 207.48 410.668 203.333C410.62 203.236 410.549 203.11 410.492 203.007C410.194 202.471 409.785 201.737 409.785 200.922C409.785 199.58 411.678 197.764 412.258 197.239C412.588 196.941 413.096 196.966 413.394 197.296C413.692 197.625 413.666 198.134 413.337 198.432C412.32 199.353 411.393 200.54 411.393 200.922C411.393 201.303 411.673 201.821 411.898 202.225C412.2 202.769 412.487 203.282 412.216 203.823C412.202 203.851 412.176 203.907 412.139 203.987C410.547 207.391 409.192 209.289 407.993 209.787C407.331 210.062 406.546 210.153 405.801 210.153H405.801Z" fill="#371A45"/>
<g opacity="0.2">
<path d="M445.111 213.174C445.111 213.174 448.481 219.367 461.733 219.377C474.985 219.386 481.113 210.179 481.113 210.179C481.113 210.179 470.571 207.365 467.402 207.365C464.232 207.365 448.707 210.179 448.707 210.179L445.11 213.174H445.111Z" fill="#371A45"/>
</g>
<path d="M430.477 195.051C432.443 200.199 435.723 204.882 440.18 208.573C441.09 209.326 442.044 210.037 443.048 210.701C443.534 211.026 444.037 211.339 444.549 211.644C446.098 212.557 447.691 213.331 449.315 213.97C450.715 214.524 452.139 214.976 453.574 215.331C455.306 215.761 457.057 216.047 458.811 216.196C459.45 216.248 460.089 216.283 460.728 216.302C472.414 216.618 483.935 210.872 490.376 200.277C499.866 184.672 494.733 164.459 478.916 155.13C475.868 153.336 472.645 152.07 469.361 151.319C468.978 151.228 468.591 151.147 468.202 151.074C467.165 150.873 466.124 150.722 465.081 150.62C462.67 150.386 460.253 150.416 457.874 150.695C455.496 150.972 453.151 151.5 450.891 152.268C450.172 152.512 449.461 152.779 448.758 153.072C447.704 153.512 446.673 154.002 445.664 154.55C440.636 157.267 436.25 161.298 433.089 166.498C427.629 175.474 427.01 185.974 430.477 195.051L430.477 195.051Z" fill="white"/>
<path d="M461.645 216.389C461.339 216.389 461.033 216.385 460.726 216.377C460.087 216.358 459.441 216.322 458.805 216.27C457.028 216.119 455.262 215.828 453.555 215.404C452.096 215.042 450.66 214.583 449.288 214.04C447.648 213.395 446.04 212.611 444.511 211.708C443.949 211.373 443.457 211.064 443.005 210.763C442.021 210.111 441.054 209.394 440.132 208.631C435.779 205.026 432.416 200.34 430.406 195.077C426.782 185.585 427.736 175.153 433.025 166.457C436.082 161.427 440.44 157.286 445.628 154.483C446.61 153.949 447.653 153.45 448.729 153.001C449.42 152.713 450.14 152.442 450.866 152.196C453.132 151.426 455.487 150.895 457.865 150.619C460.265 150.337 462.695 150.312 465.088 150.544C466.128 150.645 467.18 150.798 468.216 150.999C468.623 151.075 469.014 151.157 469.378 151.244C472.727 152.01 475.95 153.295 478.954 155.064C486.652 159.604 492.077 166.834 494.232 175.421C496.369 183.94 495.022 192.781 490.44 200.316C484.377 210.29 473.406 216.389 461.644 216.389H461.645ZM430.548 195.023C432.548 200.261 435.896 204.926 440.228 208.514C441.146 209.274 442.109 209.988 443.089 210.637C443.538 210.937 444.029 211.244 444.588 211.578C446.11 212.476 447.71 213.256 449.343 213.898C450.71 214.44 452.139 214.897 453.592 215.257C455.291 215.679 457.049 215.969 458.817 216.119C459.451 216.171 460.094 216.207 460.73 216.225C472.79 216.55 484.118 210.424 490.311 200.237C494.872 192.737 496.212 183.937 494.085 175.458C491.941 166.91 486.54 159.714 478.877 155.194C475.887 153.433 472.679 152.154 469.343 151.391C468.981 151.305 468.593 151.223 468.188 151.147C467.156 150.947 466.108 150.795 465.073 150.694C462.691 150.463 460.271 150.488 457.882 150.769C455.514 151.044 453.17 151.572 450.914 152.338C450.191 152.584 449.474 152.854 448.786 153.14C447.715 153.588 446.677 154.084 445.7 154.616C440.535 157.406 436.197 161.528 433.154 166.535C427.889 175.191 426.94 185.574 430.547 195.023L430.548 195.023Z" fill="#371A45"/>
<g opacity="0.2">
<path d="M490.376 200.275C483.936 210.872 472.413 216.618 460.727 216.3C460.089 216.282 459.45 216.247 458.811 216.195C457.058 216.046 455.307 215.76 453.574 215.331C452.14 214.974 450.715 214.524 449.317 213.97C447.69 213.332 446.099 212.558 444.549 211.645C444.038 211.337 443.535 211.026 443.047 210.702C442.044 210.037 441.09 209.324 440.18 208.573C435.722 204.881 432.442 200.199 430.477 195.05C429.396 192.222 428.712 189.254 428.448 186.238C430.437 191.109 433.619 195.531 437.871 199.053C438.78 199.808 439.734 200.518 440.738 201.182C441.224 201.507 441.727 201.819 442.24 202.125C443.79 203.039 445.382 203.812 447.005 204.451C448.406 205.004 449.829 205.456 451.263 205.812C452.995 206.241 454.748 206.527 456.5 206.676C457.141 206.728 457.779 206.763 458.418 206.781C470.105 207.098 481.626 201.353 488.067 190.756C491.826 184.575 493.288 177.672 492.704 171.01C496.484 180.247 495.978 191.065 490.375 200.275L490.376 200.275Z" fill="#371A45"/>
</g>
<path d="M461.646 216.897C461.334 216.897 461.024 216.892 460.712 216.884C460.063 216.865 459.408 216.829 458.763 216.776C456.958 216.622 455.166 216.327 453.433 215.896C451.952 215.529 450.495 215.063 449.1 214.511C447.437 213.857 445.806 213.061 444.253 212.145C443.682 211.804 443.182 211.491 442.724 211.185C441.725 210.524 440.744 209.796 439.808 209.022C435.388 205.362 431.973 200.602 429.932 195.258C426.251 185.618 427.221 175.024 432.591 166.193C435.696 161.086 440.12 156.882 445.387 154.036C446.382 153.495 447.441 152.989 448.533 152.533C449.236 152.24 449.966 151.965 450.704 151.714C453.003 150.934 455.393 150.395 457.807 150.114C460.242 149.828 462.709 149.803 465.138 150.039C466.194 150.141 467.262 150.297 468.314 150.5C468.725 150.577 469.125 150.661 469.497 150.75C472.893 151.526 476.163 152.831 479.213 154.626C487.029 159.236 492.538 166.577 494.725 175.297C496.895 183.948 495.528 192.927 490.875 200.579C484.72 210.704 473.584 216.896 461.646 216.896L461.646 216.897ZM431.022 194.842C432.991 199.998 436.287 204.591 440.552 208.123C441.456 208.871 442.405 209.575 443.369 210.214C443.813 210.509 444.296 210.813 444.849 211.142C446.346 212.025 447.921 212.794 449.529 213.426C450.876 213.96 452.284 214.409 453.714 214.764C455.388 215.18 457.119 215.466 458.861 215.613C459.484 215.664 460.118 215.699 460.745 215.718C472.615 216.039 483.78 210.006 489.878 199.973C494.368 192.59 495.688 183.928 493.594 175.581C491.483 167.166 486.166 160.082 478.621 155.632C475.675 153.898 472.516 152.637 469.232 151.886C468.873 151.801 468.493 151.72 468.096 151.647C467.077 151.449 466.045 151.299 465.026 151.2C462.679 150.972 460.296 150.997 457.943 151.273C455.61 151.545 453.302 152.065 451.079 152.82C450.366 153.061 449.661 153.327 448.983 153.61C447.928 154.05 446.906 154.539 445.944 155.062C440.858 157.81 436.586 161.869 433.589 166.8C428.407 175.32 427.473 185.542 431.023 194.843L431.022 194.842Z" fill="#371A45"/>
<path d="M461.645 217.117C461.332 217.117 461.02 217.113 460.706 217.104C460.053 217.086 459.394 217.049 458.745 216.996C456.928 216.841 455.124 216.544 453.379 216.111C451.889 215.742 450.422 215.273 449.019 214.717C447.345 214.058 445.703 213.257 444.141 212.336C443.565 211.993 443.063 211.677 442.601 211.37C441.597 210.705 440.609 209.972 439.667 209.192C435.218 205.508 431.78 200.717 429.725 195.337C426.019 185.633 426.995 174.969 432.402 166.078C435.527 160.938 439.98 156.706 445.282 153.842C446.283 153.297 447.349 152.788 448.447 152.329C449.154 152.034 449.889 151.757 450.632 151.506C452.946 150.719 455.351 150.177 457.78 149.895C460.231 149.607 462.713 149.582 465.159 149.819C466.221 149.922 467.296 150.078 468.355 150.283C468.768 150.361 469.172 150.446 469.547 150.536C472.963 151.316 476.255 152.63 479.323 154.437C487.191 159.077 492.736 166.467 494.938 175.244C497.123 183.953 495.746 192.992 491.062 200.694C484.867 210.886 473.66 217.118 461.644 217.118L461.645 217.117ZM431.229 194.763C433.184 199.884 436.457 204.445 440.693 207.953C441.591 208.696 442.532 209.394 443.491 210.03C443.933 210.324 444.413 210.625 444.962 210.952C446.448 211.829 448.013 212.593 449.61 213.221C450.949 213.751 452.346 214.198 453.767 214.55C455.43 214.962 457.149 215.246 458.879 215.393C459.498 215.444 460.128 215.479 460.751 215.497C472.542 215.813 483.631 209.823 489.689 199.858C494.147 192.526 495.458 183.923 493.379 175.635C491.283 167.278 486.002 160.242 478.508 155.822C475.582 154.099 472.444 152.847 469.182 152.101C468.825 152.016 468.448 151.937 468.055 151.863C467.041 151.667 466.016 151.517 465.004 151.419C462.673 151.193 460.307 151.218 457.968 151.492C455.651 151.762 453.357 152.279 451.15 153.028C450.441 153.269 449.741 153.533 449.068 153.813C448.02 154.25 447.004 154.736 446.049 155.255C440.997 157.985 436.754 162.017 433.778 166.913C428.631 175.375 427.703 185.526 431.229 194.762L431.229 194.763Z" fill="#371A45"/>
<path d="M434.493 202.493C452.017 218.444 479.716 212.456 484.322 189.592C487.456 174.037 474.427 159.027 459.08 157.04C447.911 155.594 436.357 159 429.314 175.475C429.314 175.475 427.338 183.241 428.774 188.78C430.21 194.319 432.555 199.466 432.555 199.466L434.493 202.493V202.493Z" fill="#371A45"/>
<path d="M484.321 189.593C479.716 212.456 452.016 218.444 434.493 202.495L434.1 201.881C454.908 208.491 477.92 198.749 483.013 175.717C484.718 180.044 485.288 184.792 484.321 189.592V189.593Z" fill="#220F2D"/>
<path d="M457.099 215.445C454.473 215.445 451.816 215.157 449.182 214.573L449.089 214.545C447.423 213.889 445.79 213.092 444.235 212.176C443.663 211.834 443.163 211.52 442.704 211.215C441.705 210.553 440.723 209.824 439.785 209.049C435.36 205.385 431.942 200.62 429.899 195.27C426.214 185.62 427.184 175.015 432.561 166.175C435.668 161.062 440.098 156.854 445.37 154.005L445.426 153.975L445.487 153.956C449.677 152.703 454.384 152.401 459.477 153.061C468.639 154.247 477.443 159.608 483.026 167.403C488.05 174.415 489.95 182.578 488.376 190.386C486.662 198.892 482.103 205.764 475.193 210.259C469.952 213.668 463.626 215.446 457.099 215.446V215.445ZM449.497 213.375C458.341 215.327 467.458 213.813 474.518 209.221C481.143 204.912 485.516 198.314 487.163 190.141C488.668 182.673 486.842 174.854 482.02 168.123C476.633 160.603 468.146 155.43 459.318 154.288C454.423 153.654 449.91 153.936 445.902 155.124C440.847 157.868 436.601 161.91 433.618 166.817C428.442 175.329 427.507 185.539 431.055 194.829C433.022 199.98 436.313 204.567 440.575 208.096C441.478 208.843 442.424 209.546 443.389 210.184C443.832 210.48 444.315 210.783 444.866 211.112C446.348 211.985 447.906 212.748 449.497 213.376L449.497 213.375Z" fill="#371A45"/>
<path d="M457.059 212.08C448.868 212.08 440.609 208.897 434.076 202.951C434.036 202.914 434.001 202.873 433.971 202.827L432.034 199.8C432.018 199.775 432.004 199.749 431.991 199.723C431.968 199.671 429.607 194.463 428.175 188.935C426.716 183.307 428.632 175.646 428.714 175.322C428.722 175.291 428.732 175.261 428.745 175.232C434.858 160.932 445.091 154.606 459.16 156.427C467.33 157.484 475.18 162.264 480.158 169.214C484.638 175.468 486.333 182.749 484.93 189.715C482.894 199.819 476.216 207.421 466.608 210.57C463.51 211.586 460.289 212.081 457.059 212.081L457.059 212.08ZM434.97 202.09C443.744 210.039 455.712 212.838 466.222 209.393C475.394 206.386 481.77 199.125 483.716 189.47C485.051 182.844 483.429 175.907 479.151 169.935C474.369 163.26 466.836 158.669 459.001 157.655C445.562 155.914 435.774 161.977 429.903 175.673C429.747 176.31 428.05 183.521 429.373 188.625C430.713 193.794 432.883 198.685 433.101 199.17L434.97 202.09V202.09Z" fill="#371A45"/>
<path d="M497.15 187.593C496.669 194.069 492.516 199.215 487.871 199.086C483.226 198.957 479.851 193.602 480.331 187.126C480.333 187.086 480.337 187.043 480.342 187.002C480.864 180.584 484.997 175.504 489.609 175.633C493.198 175.733 496.028 178.951 496.91 183.395C497.168 184.703 497.259 186.12 497.15 187.593V187.593Z" fill="white"/>
<g opacity="0.2">
<path d="M497.15 187.593C496.669 194.069 492.516 199.215 487.871 199.086C483.226 198.957 479.851 193.602 480.331 187.126C480.333 187.086 480.337 187.042 480.342 187.002C480.803 187.68 481.549 188.357 482.642 188.166C484.557 187.832 488.251 183.761 488.251 183.761C488.251 183.761 492.005 183.577 496.91 183.395C497.169 184.703 497.259 186.12 497.15 187.592L497.15 187.593Z" fill="#371A45"/>
</g>
<path d="M488.039 199.892C487.976 199.892 487.912 199.891 487.849 199.889C485.857 199.834 484.025 198.94 482.548 197.305C480.361 194.884 479.233 191.056 479.529 187.066C480.039 180.178 484.573 174.683 489.633 174.829C491.624 174.884 493.457 175.778 494.934 177.413C497.12 179.835 498.249 183.662 497.953 187.653C497.449 194.454 493.022 199.892 488.039 199.892V199.892ZM489.437 176.434C485.284 176.434 481.575 181.213 481.133 187.184C480.869 190.745 481.844 194.125 483.741 196.227C484.916 197.528 486.352 198.238 487.893 198.281C492.099 198.396 495.9 193.577 496.349 187.533C496.613 183.972 495.637 180.592 493.74 178.49C492.565 177.189 491.13 176.479 489.588 176.436C489.538 176.434 489.488 176.434 489.438 176.434L489.437 176.434Z" fill="#371A45"/>
<path d="M498.133 189.354C498.924 184.256 496.539 179.653 492.805 179.074C489.072 178.495 485.404 182.158 484.613 187.256C483.822 192.354 486.207 196.956 489.941 197.535C493.674 198.115 497.342 194.451 498.133 189.354Z" fill="white"/>
<path d="M490.695 197.674C489.719 197.674 488.772 197.393 487.897 196.837C484.558 194.714 483.389 189.159 485.292 184.455C486.365 181.801 488.214 179.884 490.365 179.195C491.92 178.696 493.466 178.893 494.834 179.763C498.173 181.886 499.342 187.441 497.44 192.145C496.366 194.798 494.517 196.716 492.367 197.405C491.806 197.585 491.246 197.674 490.695 197.674V197.674ZM492.035 179.084C491.5 179.084 490.957 179.17 490.412 179.345C488.307 180.019 486.493 181.904 485.437 184.514C483.562 189.152 484.703 194.62 487.982 196.704C489.309 197.548 490.809 197.739 492.319 197.255C494.424 196.581 496.237 194.696 497.293 192.086C499.169 187.448 498.028 181.98 494.749 179.896C493.901 179.356 492.981 179.084 492.035 179.084Z" fill="#371A45"/>
<g opacity="0.2">
<path d="M484.63 192.002C484.335 190.258 484.508 188.424 485.043 186.731C486.045 190.649 489.339 192.465 492.694 190.803C494.861 189.73 496.554 187.449 497.38 184.828C497.445 185.075 497.498 185.333 497.543 185.597C498.293 190.039 496.01 195.073 492.444 196.841C488.878 198.61 485.38 196.44 484.63 192.002V192.002Z" fill="#371A45"/>
</g>
<path d="M490.762 198.663C490.727 198.663 490.693 198.663 490.658 198.662C489.178 198.633 487.808 197.969 486.697 196.744C484.906 194.77 483.997 191.543 484.265 188.112C484.716 182.329 488.188 177.856 492.181 177.939C493.661 177.968 495.031 178.631 496.142 179.857C497.932 181.831 498.841 185.058 498.574 188.488C498.127 194.221 494.705 198.663 490.762 198.663ZM492.078 179.546C489.021 179.546 486.244 183.422 485.869 188.237C485.635 191.235 486.39 194.011 487.888 195.663C488.695 196.552 489.664 197.033 490.69 197.053C493.77 197.108 496.592 193.215 496.971 188.363C497.205 185.365 496.45 182.589 494.951 180.937C494.145 180.047 493.176 179.567 492.15 179.547C492.126 179.547 492.102 179.546 492.078 179.546Z" fill="#371A45"/>
<g opacity="0.5">
<path d="M466.255 164.06C466.255 164.06 451.309 163.074 442.024 170.429C442.014 170.437 442.004 170.444 441.994 170.452C440.042 172.002 438.549 174.044 437.657 176.353C436.477 179.407 436.118 181.681 435.881 183.694C435.16 189.818 435.985 192.819 435.985 192.819C432.832 189.184 431.273 185.286 431.821 180.18C431.877 179.676 431.953 179.159 432.048 178.631C432.069 178.509 432.093 178.389 432.12 178.268C432.117 178.267 432.119 178.264 432.122 178.262C432.391 177.205 432.797 175.829 433.387 174.315C435.164 169.748 438.596 163.916 444.918 161.743C456.74 157.68 466.842 163.479 466.255 164.06V164.06Z" fill="white"/>
</g>
<g opacity="0.5">
<path d="M475.005 185.354C477.441 184.97 479.057 182.391 478.616 179.593C478.174 176.796 475.842 174.839 473.406 175.224C470.971 175.608 469.355 178.188 469.796 180.985C470.238 183.783 472.57 185.739 475.005 185.354Z" fill="white"/>
</g>
<g opacity="0.5">
<path d="M476.103 191.558C477.089 191.307 477.655 190.184 477.366 189.05C477.077 187.917 476.043 187.202 475.057 187.453C474.071 187.704 473.505 188.827 473.794 189.961C474.083 191.094 475.117 191.81 476.103 191.558Z" fill="white"/>
</g>
<path d="M450.801 234.506H433.734L434.074 243.219H435.84L437.844 256.471C443.806 257.833 450.859 257.984 450.859 257.984C450.859 257.984 457.795 257.833 463.758 256.471L465.761 243.219H467.527L467.867 234.506H450.8H450.801Z" fill="#C16540"/>
<g opacity="0.2">
<path d="M439.589 256.831V252.34C439.589 252.34 448.783 252.431 452.128 250.661C455.474 248.891 455.837 243.218 455.837 243.218H435.527V239.724C435.527 239.724 449.71 239.935 453.038 239.338C456.366 238.74 457.092 236.078 457.092 236.078H465.762L465.08 242.916L463.93 243.219L461.363 256.831C461.363 256.831 449.801 259.31 439.589 256.831V256.831Z" fill="#371A45"/>
</g>
<path d="M465.762 244.023H435.84C435.396 244.023 435.036 243.663 435.036 243.219C435.036 242.774 435.396 242.414 435.84 242.414H465.762C466.207 242.414 466.567 242.774 466.567 243.219C466.567 243.663 466.207 244.023 465.762 244.023H465.762Z" fill="#371A45"/>
<g opacity="0.4">
<path d="M433.916 236.253C433.916 236.253 447.35 236.17 451.071 236.079C454.793 235.988 456.064 234.657 456.064 234.657L433.734 234.506L433.916 236.253V236.253Z" fill="white"/>
</g>
<path d="M450.859 258.788C450.854 258.788 450.848 258.788 450.842 258.788C450.551 258.782 443.638 258.62 437.665 257.255C437.342 257.182 437.098 256.918 437.048 256.592L435.148 244.023H434.074C433.642 244.023 433.287 243.682 433.27 243.25L432.931 234.536C432.923 234.318 433.003 234.105 433.155 233.948C433.307 233.79 433.516 233.701 433.735 233.701H467.868C468.087 233.701 468.296 233.79 468.447 233.948C468.599 234.105 468.68 234.318 468.671 234.536L468.332 243.25C468.315 243.682 467.96 244.023 467.528 244.023H466.454L464.554 256.592C464.504 256.918 464.26 257.182 463.937 257.255C457.964 258.619 451.163 258.782 450.877 258.788C450.871 258.788 450.866 258.788 450.86 258.788H450.859ZM438.557 255.805C444.107 256.993 450.478 257.17 450.859 257.179C451.237 257.169 457.503 256.992 463.046 255.805L464.967 243.099C465.026 242.705 465.364 242.415 465.762 242.415H466.755L467.032 235.31H434.571L434.848 242.415H435.84C436.238 242.415 436.576 242.705 436.635 243.099L438.556 255.805H438.557Z" fill="#371A45"/>
<path d="M447.509 221.712C447.509 221.712 452.614 227.183 453.492 234.505H449.051C449.051 234.505 449.407 229.422 447.955 226.275C447.955 226.275 444.702 220.72 447.508 221.712H447.509Z" fill="#58E849"/>
<g opacity="0.3">
<path d="M446.252 221.942C446.252 221.942 451.358 227.412 452.235 234.734L449.052 234.504C449.052 234.504 449.407 228.907 447.955 225.76C447.955 225.76 445.776 222.069 446.252 221.941V221.942Z" fill="#371A45"/>
</g>
<path d="M453.492 235.309H449.051C448.828 235.309 448.615 235.217 448.463 235.054C448.311 234.891 448.233 234.672 448.249 234.449C448.252 234.401 448.569 229.569 447.24 226.647C446.138 224.758 445.019 222.304 445.887 221.254C446.169 220.913 446.727 220.583 447.777 220.955C447.899 220.998 448.009 221.07 448.097 221.165C448.313 221.396 453.392 226.913 454.29 234.41C454.317 234.638 454.246 234.867 454.094 235.039C453.941 235.211 453.722 235.31 453.492 235.31V235.309ZM449.889 233.701H452.562C451.606 228.129 448.211 223.777 447.204 222.586C447.355 223.299 447.946 224.666 448.65 225.869C448.662 225.891 448.675 225.915 448.686 225.938C449.853 228.468 449.926 232.067 449.89 233.701H449.889Z" fill="#371A45"/>
<path d="M447.955 225.247C447.955 225.247 450.012 230.452 441.601 236.775C433.19 243.098 420.906 243.461 420.906 243.461C420.906 243.461 418.525 230.632 429.186 222.947C439.847 215.262 448.682 217.441 447.955 225.247H447.955Z" fill="#58E849"/>
<g opacity="0.4">
<path d="M421.254 242.613C421.254 242.613 420.738 235.179 427.804 227.423C434.87 219.666 443.961 218.553 443.961 218.553C443.961 218.553 439.735 216.524 432.408 220.885C425.081 225.246 419.605 231.842 421.254 242.613V242.613Z" fill="white"/>
</g>
<path d="M420.906 244.265C420.519 244.265 420.186 243.989 420.115 243.607C420.09 243.471 419.502 240.208 420.256 235.946C420.954 231.996 422.989 226.422 428.715 222.294C435.183 217.632 441.652 216.137 445.599 218.394C447.885 219.701 449.007 222.096 448.77 225.152C449.09 226.237 450.068 231.416 442.084 237.417C433.567 243.82 421.441 244.249 420.93 244.264C420.922 244.264 420.914 244.264 420.906 244.264L420.906 244.265ZM441.32 218.971C438.034 218.971 433.823 220.595 429.656 223.6C420.942 229.881 421.321 239.895 421.605 242.615C424.33 242.418 434.164 241.359 441.118 236.132C448.862 230.311 447.275 225.727 447.204 225.535C447.162 225.422 447.143 225.292 447.154 225.172C447.387 222.666 446.573 220.805 444.8 219.791C443.836 219.239 442.654 218.972 441.32 218.972V218.971Z" fill="#371A45"/>
<path d="M447.718 226.014C443.864 225.282 439.951 226.815 436.698 228.814C433.222 230.955 430.502 233.985 427.555 236.814C427.505 236.867 427.409 236.797 427.448 236.733C428.437 234.897 429.718 233.242 431.156 231.731C433.328 229.469 435.82 227.419 438.659 226.013C441.558 224.585 444.974 223.703 448.191 224.477C449.207 224.812 448.749 226.302 447.718 226.014H447.718Z" fill="#371A45"/>
<g opacity="0.2">
<path d="M421.254 242.993C421.254 242.993 435.141 238.772 439.589 232.509C444.036 226.246 443.961 225.144 443.961 225.144C443.961 225.144 435.52 225.784 428.25 235.818C428.25 235.818 429.514 230.103 434.869 225.701C440.224 221.299 447.81 222.668 447.81 222.668C447.81 222.668 447.924 224.203 447.955 224.43C447.985 224.657 448.175 226.79 448.175 226.79C448.175 226.79 448.081 232.305 441.055 237.173C434.028 242.041 423.795 243.355 421.254 242.992V242.993Z" fill="#371A45"/>
</g>
<path d="M452.552 230.485C452.552 230.485 453.776 235.425 463.126 235.992C472.475 236.558 481.515 230.711 481.515 230.711C481.515 230.711 476.559 219.875 464.881 219.405C453.202 218.935 447.969 224.975 452.552 230.485V230.485Z" fill="#58E849"/>
<g opacity="0.4">
<path d="M480.824 230.248C480.824 230.248 477.33 224.399 468.204 222.084C459.078 219.769 451.95 223.461 451.95 223.461C451.95 223.461 453.939 219.829 461.487 219.46C469.034 219.09 476.411 221.324 480.824 230.248Z" fill="white"/>
</g>
<path d="M464.432 236.836C463.982 236.836 463.531 236.823 463.077 236.795C454.193 236.257 452.177 231.876 451.831 230.875C450.01 228.616 449.602 226.175 450.684 223.984C452.462 220.382 457.914 218.318 464.913 218.602C469.898 218.803 474.476 220.903 478.153 224.674C480.918 227.509 482.194 230.262 482.247 230.378C482.413 230.741 482.287 231.171 481.952 231.388C481.592 231.621 473.418 236.836 464.432 236.837V236.836ZM453.331 230.285C453.384 230.481 454.635 234.673 463.174 235.19C470.767 235.65 478.275 231.677 480.451 230.414C479.188 228.152 474.269 220.589 464.848 220.21C458.589 219.958 453.596 221.719 452.126 224.697C451.311 226.347 451.672 228.171 453.17 229.972C453.246 230.063 453.301 230.17 453.331 230.285V230.285Z" fill="#371A45"/>
<path d="M451.914 229.996C453.218 228.466 455.067 227.549 456.943 226.935C461.455 225.588 466.41 226.278 470.786 227.753C471.643 228.104 472.492 228.47 473.307 228.907C473.372 228.939 473.338 229.049 473.263 229.033C471.444 228.785 469.693 228.385 467.905 228.054C467.151 227.946 466.333 227.847 465.576 227.745C464.578 227.705 463.575 227.593 462.584 227.652C460.007 227.697 457.344 228.211 455.096 229.502C454.391 229.908 453.711 230.403 453.171 231C452.493 231.796 451.285 230.841 451.914 229.996V229.996Z" fill="#371A45"/>
<g opacity="0.2">
<path d="M481.021 230.532C481.021 230.532 468.819 234.276 462.357 231.78C455.895 229.284 455.377 228.418 455.377 228.418C455.377 228.418 461.792 224.695 472.248 228.621C472.248 228.621 468.366 224.951 462.218 224.307C456.069 223.663 451.315 228.473 451.315 228.473C451.315 228.473 452.031 229.685 452.128 229.87C452.224 230.056 453.196 231.756 453.196 231.756C453.196 231.756 456.132 235.857 463.727 236.019C471.322 236.181 479.379 232.072 481.021 230.533L481.021 230.532Z" fill="#371A45"/>
</g>
<path d="M399.425 219.377L402.057 216.313C402.057 216.313 400.423 213.448 401.331 211.451C402.238 209.453 412.768 197.018 414.311 196.746C415.854 196.473 416.671 196.746 416.671 196.746C416.671 196.746 420.846 194.476 425.657 197.835C430.467 201.194 433.728 204.098 432.461 208.091C431.193 212.085 427.502 217.259 427.502 217.259H433.191L438.183 214.832C438.183 214.832 444.746 216.883 441.056 226.92C441.056 226.92 437.161 226.125 434.429 225.008L421.255 226.609L417.51 231.692C417.51 231.692 404.236 233.023 399.425 219.377L399.425 219.377Z" fill="#22A7F0"/>
<g opacity="0.3">
<path d="M403.401 214.604C403.401 214.604 402.482 212.992 402.769 212.085C403.055 211.177 413.826 198.924 414.34 198.621C414.855 198.318 415.804 198.348 415.804 198.348L415.22 199.586L403.4 214.604L403.401 214.604Z" fill="#371A45"/>
</g>
<g opacity="0.2">
<path d="M400.073 221.014L402.713 218.883C402.713 218.883 405.415 219.975 411.012 219.948C416.609 219.921 424.933 207.697 424.933 207.697C424.933 207.697 428.016 209.141 430.678 208.465C430.678 208.465 427.078 215.08 425.262 217.258C425.262 217.258 421.499 216.47 419.635 217.258C417.77 218.046 416.276 218.705 415.974 220.417C415.671 222.13 416.518 222.493 421.253 222.977C425.989 223.461 436.79 221.736 436.79 221.736L437.97 216.078C437.97 216.078 439.906 217.44 440.451 221.313C440.995 225.186 439.588 226.774 439.588 226.774L434.714 225.007L433.34 224.853L421.98 226.519L420.678 227.001C420.678 227.001 417.712 231.327 417.508 231.418C417.305 231.509 413.832 232.932 407.778 229.558C401.723 226.184 400.073 221.014 400.073 221.014H400.073Z" fill="#371A45"/>
</g>
<g opacity="0.3">
<path d="M430.603 206.594C431.186 205.787 429.121 203.299 425.99 201.037C422.859 198.775 419.847 197.597 419.264 198.405C418.681 199.212 420.746 201.701 423.877 203.962C427.008 206.224 430.019 207.402 430.603 206.594Z" fill="#371A45"/>
</g>
<g opacity="0.4">
<path d="M406.142 214.548C405.823 214.413 415.919 200.855 416.99 201.269C418.061 201.683 418.306 203.239 417.467 204.654C416.628 206.068 408.181 215.412 406.142 214.548V214.548Z" fill="white"/>
</g>
<g opacity="0.4">
<path d="M415.988 221.419C415.988 221.419 418.197 218.964 419.43 218.882C420.664 218.801 432.634 218.834 432.821 218.741C433.008 218.648 437.44 217.065 437.44 217.065V215.443L436.76 215.262C436.76 215.262 433.19 217.349 432.615 217.349C432.04 217.349 419.998 217.379 419.998 217.379C419.998 217.379 419.454 217.241 418.062 218.081C416.67 218.922 415.669 220.617 415.988 221.282" fill="white"/>
</g>
<path d="M416.529 232.532C415.195 232.532 412.748 232.371 410.005 231.41C406.263 230.099 401.257 226.994 398.666 219.644C398.571 219.373 398.627 219.071 398.815 218.853L401.097 216.195C400.629 215.192 399.777 212.925 400.599 211.117C401.145 209.914 404.287 206.027 406.974 202.924C412.804 196.194 413.833 196.013 414.171 195.953C415.332 195.748 416.146 195.821 416.577 195.899C417.669 195.417 421.638 194.049 426.117 197.175C430.712 200.383 434.713 203.65 433.227 208.335C432.31 211.226 430.213 214.643 429.022 216.455H433.005L437.831 214.109C438.015 214.019 438.227 214.003 438.423 214.064C438.521 214.095 440.844 214.846 442.141 217.48C443.373 219.98 443.261 223.249 441.81 227.197C441.673 227.57 441.284 227.788 440.895 227.708C440.736 227.675 437.071 226.921 434.32 225.831L421.696 227.365L418.157 232.168C418.022 232.352 417.816 232.469 417.59 232.492C417.544 232.496 417.162 232.533 416.529 232.533V232.532ZM400.341 219.544C402.273 224.699 405.681 228.172 410.476 229.87C413.483 230.936 416.158 230.947 417.085 230.911L420.606 226.131C420.738 225.953 420.937 225.836 421.157 225.809L434.33 224.209C434.467 224.193 434.605 224.211 434.732 224.263C436.69 225.063 439.308 225.704 440.531 225.981C441.605 222.767 441.661 220.148 440.697 218.191C439.939 216.651 438.746 215.957 438.214 215.711L433.541 217.982C433.432 218.036 433.311 218.063 433.19 218.063H427.501C427.2 218.063 426.924 217.894 426.787 217.627C426.649 217.359 426.672 217.037 426.847 216.792C426.883 216.741 430.48 211.673 431.693 207.848C432.745 204.532 430.221 202.002 425.195 198.494C420.877 195.48 417.205 197.372 417.051 197.454C416.856 197.557 416.624 197.578 416.416 197.508C416.416 197.508 415.739 197.315 414.485 197.531C412.892 198.218 402.891 209.959 402.062 211.783C401.461 213.106 402.359 215.214 402.755 215.915C402.922 216.209 402.887 216.579 402.666 216.836L400.34 219.544L400.341 219.544Z" fill="#371A45"/>
<path d="M402.056 217.117C401.881 217.117 401.706 217.061 401.559 216.945C401.21 216.67 401.15 216.165 401.424 215.815L414.908 198.683L415.937 196.414C416.121 196.009 416.597 195.83 417.002 196.014C417.407 196.197 417.586 196.674 417.402 197.078L416.332 199.436C416.306 199.495 416.272 199.55 416.232 199.601L402.688 216.81C402.53 217.012 402.294 217.117 402.056 217.117Z" fill="#371A45"/>
<path d="M429.927 207.643C427.682 207.643 423.924 204.986 423.406 204.612C422.759 204.145 417.127 199.987 418.612 197.932C420.096 195.878 425.814 199.916 426.461 200.384C427.108 200.851 432.739 205.009 431.255 207.064C430.957 207.476 430.489 207.643 429.927 207.643V207.643ZM420.016 198.946C420.273 199.628 421.615 201.334 424.348 203.308C427.081 205.282 429.122 206.02 429.851 206.05C429.594 205.367 428.251 203.661 425.519 201.687C422.786 199.714 420.745 198.976 420.016 198.946Z" fill="#371A45"/>
<path d="M417.882 227.579C417.667 227.579 417.387 227.528 417.078 227.344C416.136 226.779 415.486 225.291 415.09 222.794C414.418 218.562 417.673 216.806 419.489 216.468C419.537 216.46 419.586 216.455 419.636 216.455H427.502C427.947 216.455 428.307 216.815 428.307 217.26C428.307 217.704 427.947 218.064 427.502 218.064H419.718C419.127 218.194 416.122 219.035 416.678 222.542C417.12 225.324 417.771 225.877 417.904 225.962C417.924 225.96 417.944 225.958 417.965 225.957L421.217 225.805C421.661 225.788 422.038 226.128 422.058 226.571C422.079 227.015 421.735 227.391 421.292 227.412L418.105 227.56C418.043 227.571 417.968 227.579 417.882 227.579H417.882ZM417.738 226C417.738 226 417.738 226 417.738 226C417.738 226 417.738 226 417.738 226Z" fill="#371A45"/>
<path d="M434.429 225.813C434.191 225.813 433.956 225.708 433.797 225.507C431.334 222.39 432.358 217.31 432.403 217.095C432.494 216.66 432.92 216.382 433.355 216.472C433.789 216.563 434.068 216.988 433.978 217.423C433.968 217.468 433.065 221.985 435.059 224.509C435.335 224.858 435.275 225.363 434.927 225.639C434.779 225.755 434.603 225.812 434.429 225.812V225.813Z" fill="#371A45"/>
<path d="M438.715 227.173C438.482 227.173 438.25 227.072 438.091 226.877C434.15 222.043 437.312 214.809 437.448 214.504C437.629 214.098 438.104 213.916 438.51 214.098C438.916 214.278 439.097 214.754 438.917 215.159C438.888 215.225 436.026 221.798 439.338 225.86C439.619 226.205 439.567 226.712 439.223 226.992C439.074 227.114 438.894 227.173 438.715 227.173L438.715 227.173Z" fill="#371A45"/>
</svg>
