<svg width="500" height="300" viewBox="0 0 500 300" fill="none" xmlns="http://www.w3.org/2000/svg">
<g clip-path="url(#clip0_484_634)">
<path d="M223.317 61.0002L442.581 65.9275C466.118 65.9275 485 71.8838 485 79.3092L471.498 121.34C471.498 128.765 456.442 134.156 432.905 134.156L384.99 134.42L396.264 150L325.486 134.721L252.44 135.362C228.903 135.362 198.375 128.759 198.375 121.334L177 76.8592C177 69.4337 199.782 61 223.318 61L223.317 61.0002Z" fill="white" stroke="black" stroke-width="2" stroke-linecap="round" stroke-linejoin="round"/>
<path d="M232.064 87.152V108.896H234.032V87.152H232.064ZM227.384 95.072V96.704H232.64V95.072H227.384ZM221.696 90.272V93.512C221.696 97.376 219.128 101.48 216.008 103.016L217.184 104.6C220.616 102.824 223.304 98.192 223.304 93.512V90.272H221.696ZM222.104 90.272V93.512C222.104 97.976 224.744 102.44 228.176 104.144L229.352 102.584C226.208 101.096 223.688 97.136 223.688 93.512V90.272H222.104ZM216.8 89.384V91.04H228.608V89.384H216.8ZM247.356 88.208V89.816H261.324V88.208H247.356ZM245.028 97.352V98.96H264.612V97.352H245.028ZM253.068 92.984V97.592H255.036V92.984H253.068ZM260.172 88.208V89.744C260.172 91.352 260.172 93.128 259.62 95.624L261.564 95.84C262.116 93.32 262.116 91.376 262.116 89.744V88.208H260.172ZM253.74 100.664V101.624C253.74 104.48 250.404 106.664 246.42 107.216L247.188 108.8C251.628 108.056 255.444 105.488 255.444 101.624V100.664H253.74ZM254.028 100.664V101.624C254.028 105.488 257.82 108.056 262.308 108.8L263.052 107.216C259.092 106.664 255.732 104.48 255.732 101.624V100.664H254.028ZM275.89 95.6V97.256H279.994V95.6H275.89ZM283.618 87.176V108.872H285.538V87.176H283.618ZM279.322 87.632V107.792H281.218V87.632H279.322ZM271.978 88.976C269.17 88.976 267.37 91.88 267.37 96.536C267.37 101.192 269.17 104.096 271.978 104.096C274.786 104.096 276.61 101.192 276.61 96.536C276.61 91.88 274.786 88.976 271.978 88.976ZM271.978 90.824C273.706 90.824 274.786 93.032 274.786 96.536C274.786 100.04 273.706 102.248 271.978 102.248C270.274 102.248 269.194 100.04 269.194 96.536C269.194 93.032 270.274 90.824 271.978 90.824ZM295.91 97.088V98.72H315.59V97.088H295.91ZM304.718 97.784V101.096H306.662V97.784H304.718ZM304.67 102.104V102.776C304.67 105.08 301.262 106.856 297.35 107.264L297.998 108.8C302.534 108.272 306.374 106.088 306.374 102.776V102.104H304.67ZM305.006 102.104V102.776C305.006 106.16 308.87 108.272 313.382 108.8L314.03 107.264C310.094 106.88 306.71 105.152 306.71 102.776V102.104H305.006ZM305.726 87.488C300.998 87.488 298.094 88.952 298.094 91.472C298.094 93.992 300.998 95.456 305.726 95.456C310.43 95.456 313.358 93.992 313.358 91.472C313.358 88.952 310.43 87.488 305.726 87.488ZM305.726 89.024C309.182 89.024 311.318 89.912 311.318 91.472C311.318 93.008 309.182 93.92 305.726 93.92C302.246 93.92 300.134 93.008 300.134 91.472C300.134 89.912 302.246 89.024 305.726 89.024ZM327.805 87.656C323.101 87.656 320.173 89.192 320.173 91.76C320.173 94.328 323.101 95.84 327.805 95.84C332.485 95.84 335.437 94.328 335.437 91.76C335.437 89.192 332.485 87.656 327.805 87.656ZM327.805 89.24C331.237 89.24 333.397 90.152 333.397 91.76C333.397 93.344 331.237 94.28 327.805 94.28C324.349 94.28 322.213 93.344 322.213 91.76C322.213 90.152 324.349 89.24 327.805 89.24ZM320.389 101.432V108.584H335.197V101.432H320.389ZM333.253 103.04V106.976H322.357V103.04H333.253ZM317.989 97.712V99.32H337.597V97.712H317.989ZM350.147 87.992V89.624H356.363V87.992H350.147ZM340.091 96.44V98.072H359.675V96.44H340.091ZM349.307 92.744V97.472H351.275V92.744H349.307ZM355.547 87.992V88.904C355.547 90.128 355.547 92.024 354.923 94.904L356.867 95.12C357.467 92.288 357.467 90.152 357.467 88.904V87.992H355.547ZM341.771 87.992V89.624H347.483V87.992H341.771ZM346.427 87.992V88.832C346.427 90.032 346.427 91.88 345.419 94.832L347.363 95.144C348.347 92.264 348.347 90.08 348.347 88.832V87.992H346.427ZM348.851 102.032V102.344C348.851 104.72 345.491 106.76 341.747 107.24L342.467 108.776C346.787 108.128 350.555 105.68 350.555 102.344V102.032H348.851ZM349.187 102.032V102.344C349.187 105.704 352.955 108.128 357.251 108.776L357.995 107.24C354.251 106.76 350.867 104.72 350.867 102.344V102.032H349.187ZM342.635 101.072V102.656H357.107V101.072H342.635ZM348.851 98.864V101.648H350.867V98.864H348.851ZM365.385 100.064V107.936H367.377V101.552H379.113V100.064H365.385ZM365.385 107.12V108.584H379.617V107.12H365.385ZM366.705 103.568V105.008H378.897V103.568H366.705ZM363.057 88.304V97.928H373.089V88.304H371.145V91.52H365.025V88.304H363.057ZM365.025 93.056H371.145V96.344H365.025V93.056ZM377.001 87.176V98.936H378.993V87.176H377.001ZM378.129 92.072V93.728H382.185V92.072H378.129ZM399.991 87.152V108.896H401.983V87.152H399.991ZM390.535 88.832C387.343 88.832 385.039 91.784 385.039 96.392C385.039 101.024 387.343 103.976 390.535 103.976C393.751 103.976 396.055 101.024 396.055 96.392C396.055 91.784 393.751 88.832 390.535 88.832ZM390.535 90.632C392.671 90.632 394.135 92.888 394.135 96.392C394.135 99.92 392.671 102.224 390.535 102.224C388.423 102.224 386.935 99.92 386.935 96.392C386.935 92.888 388.423 90.632 390.535 90.632ZM418.475 100.52V101.696C418.475 103.784 416.843 106.112 414.107 107.096L415.115 108.584C418.235 107.384 420.011 104.528 420.011 101.696V100.52H418.475ZM418.907 100.52V101.696C418.907 104.576 420.323 107.552 423.443 108.776L424.283 107.264C421.691 106.208 420.395 103.88 420.395 101.696V100.52H418.907ZM426.491 100.52V101.696C426.491 103.568 425.171 106.088 422.603 107.264L423.443 108.776C426.539 107.456 427.979 104.24 427.979 101.696V100.52H426.491ZM426.899 100.52V101.696C426.899 104.696 428.627 107.432 431.795 108.584L432.803 107.096C430.043 106.16 428.435 103.928 428.435 101.696V100.52H426.899ZM428.843 87.2V99.584H430.859V87.2H428.843ZM419.219 88.448C415.931 88.448 413.555 90.512 413.555 93.512C413.555 96.512 415.931 98.552 419.219 98.552C422.507 98.552 424.859 96.512 424.859 93.512C424.859 90.512 422.507 88.448 419.219 88.448ZM419.219 90.104C421.379 90.104 422.939 91.496 422.939 93.512C422.939 95.528 421.379 96.896 419.219 96.896C417.059 96.896 415.499 95.528 415.499 93.512C415.499 91.496 417.059 90.104 419.219 90.104ZM440.937 88.832C437.769 88.832 435.537 91.784 435.537 96.392C435.537 101.024 437.769 103.976 440.937 103.976C444.081 103.976 446.337 101.024 446.337 96.392C446.337 91.784 444.081 88.832 440.937 88.832ZM440.937 90.632C443.025 90.632 444.441 92.888 444.441 96.392C444.441 99.92 443.025 102.224 440.937 102.224C438.849 102.224 437.433 99.92 437.433 96.392C437.433 92.888 438.849 90.632 440.937 90.632ZM451.041 87.152V108.896H453.009V87.152H451.041ZM445.689 95.432V97.064H451.905V95.432H445.689Z" fill="black"/>
<path d="M445.642 212.79C445.642 212.79 460.074 219.325 476.594 213.607L479.952 212.79C479.952 212.79 486.488 211.61 490.209 212.79C493.931 213.97 494.475 221.05 495.292 231.851C496.109 242.652 495.655 253.272 494.656 255.269C493.658 257.266 489.392 257.629 485.852 257.629C485.852 257.629 484.581 262.802 484.853 271.426C485.125 280.049 487.304 293.392 486.85 295.933C486.396 298.474 485.579 299.292 481.948 299.382C478.318 299.473 464.158 299.382 464.158 299.382C464.158 299.382 461.48 298.702 461.661 295.116C461.843 291.531 464.884 291.077 464.884 291.077C464.884 291.077 465.229 283.473 464.248 280.911C463.379 278.64 461.253 274.557 461.253 274.557C461.253 274.557 460.073 280.321 459.664 284.678C459.255 289.035 459.528 295.616 459.528 295.616C459.528 295.616 459.21 298.021 456.487 298.112C453.764 298.203 438.515 298.656 435.656 297.931C432.797 297.205 432.888 292.712 433.841 290.805C434.794 288.899 438.107 288.582 438.107 288.582C438.107 288.582 439.257 268.976 440.951 257.842L441.604 241.759L439.078 241.038L439.262 234.485L441.98 234.242L442.181 229.857C442.181 229.857 425.096 228.917 414.81 220.93C404.522 212.942 402.828 210.158 403.191 204.833C403.555 199.508 408.819 197.209 413.176 198.177C417.533 199.145 426.272 208.255 431.844 210.612C436.564 212.609 445.641 212.791 445.641 212.791L445.642 212.79Z" fill="white"/>
<path d="M461.573 236.072C462.601 235.044 462.601 233.378 461.573 232.35C460.545 231.322 458.878 231.322 457.85 232.35C456.822 233.378 456.822 235.044 457.85 236.072C458.878 237.1 460.545 237.1 461.573 236.072Z" fill="#22A7F0"/>
<g opacity="0.3">
<path d="M403.68 202.715C403.68 202.715 404.07 204.681 405.915 206.104C407.761 207.526 411.392 203.932 411.392 203.932C411.392 203.932 410.726 206.571 409.213 208.04C407.7 209.51 406.483 209.345 405.25 209.402C404.016 209.458 403.496 208.82 403.454 208.656C403.413 208.492 402.473 204.803 403.679 202.715L403.68 202.715Z" fill="#371A45"/>
</g>
<g opacity="0.3">
<path d="M409.425 208.807C409.425 208.807 414.145 217.328 424.946 221.957C435.748 226.586 445.49 219.474 445.49 219.474L442.616 227.364C442.616 227.364 442.681 229.659 441.194 229.642C439.706 229.626 432.32 228.825 424.413 226.072C416.505 223.319 411.01 217.615 409.106 216.246C407.201 214.877 404.819 211.542 404.411 210.634C404.002 209.727 404.411 209.528 404.411 209.528C404.411 209.528 405.658 209.896 407.02 209.686C408.382 209.476 409.426 208.807 409.426 208.807H409.425Z" fill="#371A45"/>
</g>
<g opacity="0.3">
<path d="M439.165 238C439.164 238.044 441.784 238.181 441.784 238.181L441.641 241.045L440.786 241.359L439.258 241.088C439.258 241.088 439.092 240.588 439.094 240.52C439.096 240.453 439.165 238 439.165 238V238Z" fill="#371A45"/>
</g>
<g opacity="0.3">
<path d="M442.969 246.033L443.282 241.758C443.282 241.758 454.674 242.516 457.079 242.425C459.484 242.335 460.754 236.843 460.754 236.843C460.754 236.843 457.805 236.753 457.079 235.073C456.352 233.394 457.624 232.609 457.624 232.609C457.624 232.609 459.121 235.028 460.301 234.937C461.481 234.846 462.116 234.211 462.116 234.211L461.798 232.609L461.435 231.806L461.708 229.643H467.426L467.935 233.575L467.782 236.48L473.054 236.435L472.994 237.999C472.994 237.999 473.451 239.794 472.51 241.411C471.569 243.029 470.377 245.503 469.28 246.468C468.183 247.433 467.366 247.795 467.366 247.795L465.979 247.394L464.947 248.556C464.947 248.556 447.594 248.506 446.051 247.916C444.508 247.326 442.97 246.032 442.97 246.032L442.969 246.033Z" fill="#371A45"/>
</g>
<g opacity="0.2">
<path d="M433.201 294.967C433.201 294.967 446.64 296.447 450.755 294.934C454.87 293.422 455.838 274.058 455.475 270.608C455.112 267.159 446.337 265.949 445.067 260.14C446.459 258.567 449.181 260.075 453.871 260.925L452.707 259.454L452.578 259.121C452.578 259.121 461.163 262.319 473.568 256.57C485.973 250.821 489.57 243.223 490.283 237.521C490.283 237.521 490.256 247.997 486.314 251.073L486.879 251.683C486.879 251.683 486.326 254.883 486.31 254.976C486.294 255.069 484.464 262.893 484.932 273.215C485.401 283.537 488.181 295.721 485.867 297.96C483.552 300.199 470.534 299.269 470.534 299.269C470.534 299.269 463.934 299.311 463.805 299.249C463.677 299.187 462.327 297.972 462.327 297.972L461.586 297.294V296.387C461.586 296.387 474.415 296.992 478.167 295.358C481.918 293.724 481.313 282.59 480.406 274.239C479.498 265.888 475.24 264.159 465.459 264.509C465.459 264.509 460.653 265.389 459.869 265.275C459.085 265.162 458.372 265.412 458.303 265.684C458.235 265.956 460.979 273.811 461.023 273.93C461.068 274.05 461.105 275.303 461.105 275.303C461.105 275.303 459.892 281.334 459.544 285.206C459.196 289.079 459.508 295.038 459.508 295.038C459.508 295.038 459.453 297.248 457.501 297.778C455.55 298.307 436.269 298.043 436.269 298.043C436.269 298.043 433.563 297.758 433.2 294.967L433.201 294.967Z" fill="#371A45"/>
</g>
<g opacity="0.2">
<path d="M481.754 215.273C481.754 215.273 488.724 214.938 490.283 215.846C491.843 216.753 493.113 229.557 493.416 239.1C493.718 248.643 493.658 253.518 491.843 254.689C490.027 255.859 485.897 255.859 485.897 255.859L487.123 250.761L487.654 249.403C487.654 249.403 491.084 242.471 490.283 234.574C489.483 226.677 485.509 219.92 485.413 219.761C485.316 219.602 481.754 215.273 481.754 215.273V215.273Z" fill="#371A45"/>
</g>
<path d="M475.727 300.228C470.49 300.228 464.247 300.188 464.153 300.188C464.088 300.188 464.023 300.179 463.96 300.163C462.813 299.871 460.689 298.432 460.859 295.076C461.003 292.237 462.785 290.907 464.104 290.45C464.182 288.03 464.189 283.007 463.498 281.199C463.051 280.033 462.255 278.356 461.601 277.029C461.224 279.097 460.706 282.188 460.466 284.753C460.067 289.005 460.33 295.517 460.333 295.583C460.335 295.629 460.333 295.675 460.326 295.721C460.186 296.787 459.208 298.826 456.515 298.915C453.527 299.015 438.464 299.473 435.459 298.709C434.36 298.43 433.507 297.687 432.992 296.561C432.116 294.648 432.37 291.949 433.122 290.445C433.983 288.724 436.193 288.096 437.344 287.881C437.561 284.382 438.647 267.67 440.15 257.764L440.775 242.359L438.858 241.811C438.505 241.71 438.265 241.382 438.275 241.015L438.459 234.463C438.47 234.055 438.785 233.721 439.191 233.684L441.209 233.503L441.343 230.602C437.798 230.311 423.535 228.722 414.317 221.565C404.107 213.637 401.989 210.656 402.39 204.779C402.554 202.377 403.628 200.368 405.498 198.97C407.644 197.366 410.579 196.775 413.351 197.392C415.814 197.939 419.329 200.705 423.051 203.633C426.274 206.169 429.607 208.792 432.158 209.871C436.68 211.784 445.569 211.984 445.658 211.986C445.766 211.988 445.874 212.012 445.973 212.057C446.114 212.121 460.324 218.388 476.33 212.847C476.354 212.839 476.378 212.832 476.403 212.826L479.762 212.009C479.777 212.005 479.793 212.002 479.809 211.999C480.084 211.949 486.585 210.798 490.452 212.024C494.7 213.371 495.255 220.699 496.093 231.791C496.878 242.157 496.542 253.297 495.376 255.63C494.457 257.467 491.632 258.361 486.505 258.43C486.194 260.023 485.444 264.663 485.657 271.401C485.79 275.598 486.376 280.909 486.893 285.595C487.513 291.219 487.882 294.734 487.642 296.075C487.09 299.169 485.817 300.091 481.968 300.188C480.76 300.218 478.371 300.228 475.726 300.228L475.727 300.228ZM464.282 298.58C465.659 298.588 478.528 298.664 481.929 298.58C485.294 298.495 485.695 297.83 486.059 295.793C486.27 294.612 485.796 290.318 485.294 285.772C484.774 281.056 484.184 275.711 484.05 271.453C483.777 262.819 485.018 257.654 485.071 257.439C485.16 257.079 485.482 256.827 485.853 256.827C492.054 256.827 493.58 255.627 493.938 254.912C494.731 253.326 495.355 243.345 494.491 231.914C493.729 221.849 493.18 214.577 489.967 213.558C486.585 212.486 480.535 213.507 480.118 213.579L476.821 214.381C460.922 219.869 447.149 214.319 445.463 213.592C444.173 213.557 436.045 213.263 431.532 211.354C428.782 210.19 425.363 207.501 422.057 204.899C418.64 202.211 415.108 199.431 413.003 198.963C410.717 198.455 408.211 198.952 406.462 200.26C404.979 201.368 404.126 202.97 403.995 204.889C403.663 209.764 405.107 212.377 415.304 220.295C425.269 228.033 442.058 229.046 442.227 229.055C442.667 229.079 443.006 229.454 442.986 229.895L442.784 234.281C442.766 234.682 442.453 235.009 442.052 235.044L440.047 235.224L439.901 240.437L441.826 240.987C442.183 241.089 442.424 241.422 442.409 241.793L441.756 257.876C441.755 257.906 441.752 257.935 441.747 257.964C440.078 268.933 438.922 288.434 438.911 288.63C438.888 289.026 438.579 289.345 438.185 289.384C437.386 289.463 435.176 289.937 434.561 291.166C433.989 292.311 433.809 294.484 434.454 295.893C434.77 296.581 435.227 296.993 435.855 297.152C438.173 297.741 449.898 297.528 456.462 297.31C458.271 297.25 458.654 295.903 458.722 295.565C458.69 294.742 458.476 288.747 458.865 284.605C459.272 280.254 460.454 274.456 460.466 274.398C460.534 274.064 460.805 273.81 461.142 273.763C461.479 273.715 461.81 273.886 461.967 274.188C462.054 274.356 464.124 278.337 465 280.626C466.028 283.313 465.702 290.798 465.687 291.116C465.67 291.5 465.383 291.818 465.003 291.875C464.763 291.914 462.607 292.351 462.465 295.159C462.335 297.727 463.866 298.436 464.281 298.581L464.282 298.58Z" fill="#371A45"/>
<path d="M441.605 242.564C441.531 242.564 441.457 242.553 441.384 242.533L439.748 242.065C439.321 241.943 439.073 241.498 439.196 241.071C439.318 240.644 439.763 240.395 440.19 240.519L440.853 240.708L441.178 234.202C441.2 233.758 441.577 233.417 442.021 233.438C442.465 233.461 442.806 233.838 442.784 234.282L442.409 241.799C442.397 242.044 442.273 242.27 442.074 242.413C441.935 242.512 441.771 242.563 441.606 242.563L441.605 242.564Z" fill="#371A45"/>
<path d="M458.35 247.273C456.853 247.273 455.054 247.25 452.883 247.198C447.114 247.058 441.45 246.765 441.393 246.762C440.953 246.74 440.613 246.367 440.631 245.926L440.802 241.726C440.819 241.282 441.198 240.936 441.638 240.955C442.082 240.973 442.427 241.348 442.409 241.791L442.27 245.196C452.485 245.707 463.444 245.877 464.93 245.296C465.183 244.802 465.558 242.499 465.497 236.624C465.46 233.115 465.282 229.877 465.153 228.588C462.353 228.701 451.084 229.3 442.993 229.741L442.784 234.279C442.764 234.723 442.39 235.065 441.944 235.045C441.5 235.025 441.157 234.648 441.178 234.204L441.42 228.94C441.439 228.527 441.767 228.197 442.179 228.174C465.579 226.898 465.85 226.951 465.981 226.978C466.135 227.009 466.509 227.136 466.64 227.651C466.845 228.46 467.078 233.051 467.109 236.919C467.178 245.535 466.365 246.213 465.975 246.538C465.649 246.809 465.091 247.273 458.35 247.273V247.273Z" fill="#371A45"/>
<path d="M455.475 247.228C455.03 247.228 454.67 246.868 454.67 246.423V240.106C448.653 239.927 448.508 239.786 448.253 239.539C447.933 239.231 447.814 239.115 448.008 228.606C448.017 228.162 448.378 227.82 448.827 227.816C449.271 227.825 449.625 228.191 449.616 228.635C449.545 232.486 449.506 236.767 449.554 238.261C450.638 238.35 453.185 238.455 455.497 238.52C455.933 238.533 456.279 238.889 456.279 239.324V246.423C456.279 246.867 455.919 247.228 455.474 247.228H455.475Z" fill="#371A45"/>
<path d="M459.711 237.649C457.816 237.649 456.275 236.107 456.275 234.212C456.275 232.316 457.816 230.775 459.711 230.775C461.606 230.775 463.148 232.317 463.148 234.212C463.148 236.107 461.607 237.649 459.711 237.649V237.649ZM459.711 232.384C458.703 232.384 457.883 233.204 457.883 234.212C457.883 235.22 458.704 236.04 459.711 236.04C460.719 236.04 461.539 235.22 461.539 234.212C461.539 233.205 460.719 232.384 459.711 232.384Z" fill="#371A45"/>
<path d="M473.054 239.736H468.152C467.721 239.736 467.366 239.395 467.349 238.964L467.122 233.376C467.113 233.161 467.191 232.952 467.338 232.795C467.484 232.638 467.688 232.545 467.903 232.54L468.46 232.524C468.319 230.944 468.128 229.313 467.974 228.565H467.969C467.399 228.565 466.47 228.568 465.827 228.571H465.823C465.38 228.571 465.021 228.213 465.019 227.771C465.017 227.326 465.375 226.965 465.819 226.963C466.778 226.958 468.41 226.953 468.564 226.962C469.37 227.011 469.556 227.708 469.867 230.453C469.952 231.206 470.024 231.964 470.071 232.499H472.691C473.115 232.499 473.466 232.829 473.493 233.252L473.856 238.879C473.871 239.101 473.792 239.319 473.64 239.481C473.488 239.644 473.276 239.735 473.053 239.735L473.054 239.736ZM468.925 238.127H472.196L471.937 234.108H469.345L468.763 234.125L468.926 238.127H468.925Z" fill="#371A45"/>
<path d="M465.459 246.725C465.097 246.725 464.768 246.478 464.678 246.111C464.573 245.679 464.838 245.244 465.269 245.139C465.903 244.984 467.679 244.511 468.462 244.139C468.813 243.675 469.2 241.263 469.3 238.897C469.319 238.453 469.692 238.111 470.138 238.128C470.582 238.146 470.926 238.521 470.908 238.965C470.744 242.863 470.182 245.078 469.238 245.55C468.171 246.084 465.752 246.676 465.65 246.701C465.586 246.717 465.522 246.724 465.459 246.724V246.725Z" fill="#371A45"/>
<path d="M485.853 258.435C485.808 258.435 485.762 258.431 485.715 258.423C485.277 258.347 484.984 257.931 485.06 257.494L486.33 250.142C486.352 250.016 486.403 249.898 486.479 249.796C486.501 249.767 488.804 246.577 489.407 239.679C490.026 232.614 486.694 217.533 478.121 213.901C477.712 213.727 477.521 213.255 477.694 212.846C477.867 212.437 478.339 212.246 478.748 212.419C488.16 216.407 491.682 232.134 491.009 239.819C490.434 246.397 488.404 249.811 487.884 250.591L486.644 257.767C486.576 258.159 486.236 258.435 485.852 258.435H485.853Z" fill="#371A45"/>
<path d="M461.949 264.339C458.14 264.339 455.274 263.196 453.621 261.779C451.139 259.653 451.719 258.215 451.86 257.948C451.978 257.724 452.195 257.57 452.445 257.53C455.448 257.056 460.627 255.836 461.743 254.583C462.63 253.586 463.268 251.385 463.735 249.779C464.243 248.024 464.49 247.234 465.014 246.884C465.815 246.351 466.981 246.634 467.672 246.884C468.522 246.207 470.957 243.89 472.275 238.732C472.385 238.302 472.823 238.043 473.254 238.152C473.684 238.262 473.944 238.7 473.834 239.13C472.047 246.119 468.351 248.394 468.194 248.487C467.968 248.622 467.689 248.637 467.449 248.528C466.913 248.287 466.201 248.137 465.953 248.205C465.779 248.503 465.504 249.454 465.279 250.227C464.742 252.079 464.074 254.385 462.944 255.653C461.337 257.459 455.5 258.631 453.387 259.004C453.524 259.345 453.873 259.878 454.668 260.559C455.21 261.024 460.256 264.981 470.398 260.967C478.852 257.62 486.468 249.798 486.544 249.719C486.853 249.399 487.362 249.39 487.682 249.699C488.001 250.008 488.01 250.517 487.701 250.836C487.381 251.168 479.765 258.989 470.99 262.462C467.594 263.807 464.551 264.34 461.949 264.34L461.949 264.339Z" fill="#371A45"/>
<path d="M471.886 233.298C471.546 230.633 471.234 227.945 470.75 225.297C470.681 224.905 470.611 224.512 470.555 224.112C470.534 223.99 470.713 223.927 470.771 224.038C472.158 226.494 473.212 229.209 473.487 232.035C473.522 232.472 473.531 232.857 473.494 233.311C473.392 234.296 471.972 234.277 471.886 233.297L471.886 233.298Z" fill="#371A45"/>
<path d="M482.192 255.493C481.886 255.493 481.593 255.317 481.459 255.02C479.082 249.765 471.401 243.101 471.324 243.034C470.988 242.744 470.951 242.236 471.24 241.9C471.531 241.564 472.038 241.526 472.375 241.816C472.701 242.098 480.401 248.777 482.925 254.357C483.108 254.762 482.928 255.238 482.524 255.421C482.416 255.469 482.303 255.493 482.193 255.493H482.192Z" fill="#371A45"/>
<path d="M468.585 247.842C468.632 249.606 469.202 251.251 469.937 252.842C470.025 253.101 470.122 253.364 470.155 253.688C470.16 253.731 470.129 253.769 470.087 253.774C469.475 253.594 469.016 253.167 468.674 252.703C467.7 251.43 467.05 249.857 466.973 248.243C466.965 248.07 466.968 247.94 466.979 247.75C467.006 247.307 467.387 246.971 467.829 246.998C468.275 247.023 468.599 247.409 468.585 247.842L468.585 247.842Z" fill="#371A45"/>
<path d="M441.435 228.815C442.067 225.764 443.171 222.857 444.59 220.095C445.06 219.169 445.638 218.283 446.401 217.569C446.448 217.524 446.532 217.57 446.518 217.634C446.101 219.672 445.19 221.423 444.62 223.389C444.024 225.25 443.465 227.276 443.006 229.161C442.739 230.162 441.259 229.839 441.436 228.815L441.435 228.815Z" fill="#371A45"/>
<path d="M459.877 283.598C459.795 283.598 459.712 283.585 459.629 283.559C451.543 280.947 438.791 282.819 438.663 282.838C438.224 282.904 437.815 282.602 437.748 282.162C437.682 281.723 437.984 281.314 438.424 281.247C438.961 281.166 451.675 279.299 460.124 282.028C460.547 282.164 460.779 282.617 460.642 283.04C460.533 283.381 460.217 283.598 459.877 283.598H459.877Z" fill="#371A45"/>
<path d="M485.868 284.424C485.819 284.424 485.77 284.419 485.721 284.411C476.777 282.76 464.906 284.4 464.787 284.416C464.346 284.477 463.94 284.172 463.878 283.732C463.816 283.292 464.122 282.885 464.562 282.823C465.058 282.754 476.807 281.13 486.013 282.829C486.45 282.91 486.738 283.329 486.658 283.766C486.586 284.153 486.248 284.424 485.867 284.424L485.868 284.424Z" fill="#371A45"/>
<path d="M438.066 287.779C439.625 287.686 441.154 287.938 442.645 288.366C443.543 288.656 444.43 288.897 445.09 289.67C445.13 289.714 445.101 289.789 445.043 289.795C444.374 289.905 443.806 289.828 443.235 289.74C441.582 289.482 439.822 289.405 438.15 289.386C437.108 289.392 437.031 287.882 438.065 287.78L438.066 287.779Z" fill="#371A45"/>
<path d="M464.72 290.291C467.216 289.789 469.811 289.884 472.251 290.602C473.06 290.841 473.846 291.241 474.444 291.88C474.472 291.909 474.47 291.955 474.441 291.981C473.571 292.012 472.778 291.796 471.997 291.691C471.228 291.579 470.454 291.518 469.675 291.508C468.127 291.493 466.539 291.633 465.016 291.87C463.994 292.008 463.718 290.532 464.72 290.291Z" fill="#371A45"/>
<path d="M461.254 275.363C460.926 275.363 460.618 275.161 460.499 274.835L457.14 265.683C456.987 265.266 457.201 264.804 457.618 264.651C458.036 264.499 458.498 264.712 458.65 265.129L462.009 274.281C462.162 274.698 461.948 275.16 461.531 275.313C461.439 275.346 461.345 275.362 461.254 275.362V275.363Z" fill="#371A45"/>
<path d="M446.919 261.317C451.57 263.509 456.748 264.643 461.897 264.385C462.867 264.375 463.835 264.225 464.808 264.154C465.571 264.03 466.328 263.907 467.101 263.814C467.407 263.776 467.524 264.22 467.228 264.332C466.495 264.606 465.749 264.867 465.001 265.103C460.52 266.319 455.63 266.197 451.287 264.499C449.596 263.83 447.98 262.976 446.603 261.75C446.371 261.539 446.64 261.153 446.919 261.317V261.317Z" fill="#371A45"/>
<path d="M417.889 223.814C417.612 223.814 417.343 223.67 417.193 223.414C416.97 223.03 417.1 222.537 417.485 222.315C425.281 217.786 427.829 208.689 427.854 208.598C427.971 208.169 428.412 207.916 428.841 208.032C429.269 208.148 429.523 208.589 429.407 209.018C429.299 209.417 426.673 218.838 418.292 223.706C418.165 223.779 418.026 223.815 417.889 223.815L417.889 223.814Z" fill="#371A45"/>
<path d="M406.18 210.495C404.871 210.495 403.683 210.216 403.487 210.167C403.056 210.06 402.793 209.625 402.899 209.193C403.006 208.762 403.442 208.499 403.873 208.605C404.568 208.776 406.621 209.115 407.755 208.643C408.037 208.526 409.107 207.821 411.048 203.675C410.999 203.578 410.929 203.451 410.872 203.349C410.573 202.813 410.165 202.079 410.165 201.263C410.165 199.921 412.058 198.105 412.638 197.581C412.967 197.283 413.476 197.308 413.773 197.638C414.072 197.967 414.046 198.475 413.717 198.774C412.699 199.695 411.773 200.882 411.773 201.263C411.773 201.645 412.053 202.163 412.277 202.567C412.58 203.111 412.866 203.624 412.596 204.165C412.582 204.193 412.556 204.249 412.519 204.329C410.927 207.733 409.571 209.631 408.373 210.129C407.711 210.404 406.926 210.495 406.181 210.495H406.18Z" fill="#371A45"/>
<g opacity="0.2">
<path d="M445.49 213.516C445.49 213.516 448.861 219.709 462.112 219.719C475.364 219.728 481.492 210.521 481.492 210.521C481.492 210.521 470.951 207.707 467.781 207.707C464.612 207.707 449.087 210.521 449.087 210.521L445.49 213.516H445.49Z" fill="#371A45"/>
</g>
<path d="M430.857 195.393C432.823 200.541 436.102 205.224 440.56 208.915C441.469 209.668 442.424 210.379 443.427 211.043C443.914 211.367 444.417 211.68 444.929 211.986C446.478 212.899 448.07 213.673 449.695 214.312C451.094 214.866 452.519 215.317 453.953 215.673C455.685 216.103 457.437 216.388 459.19 216.537C459.83 216.589 460.469 216.625 461.107 216.643C472.794 216.96 484.315 211.214 490.755 200.619C500.246 185.013 495.113 164.801 479.296 155.472C476.248 153.678 473.025 152.411 469.74 151.661C469.358 151.57 468.97 151.489 468.582 151.416C467.545 151.215 466.503 151.063 465.461 150.962C463.05 150.728 460.632 150.757 458.253 151.037C455.875 151.314 453.531 151.842 451.27 152.61C450.551 152.854 449.841 153.121 449.137 153.414C448.084 153.854 447.052 154.344 446.044 154.892C441.016 157.609 436.629 161.64 433.469 166.839C428.009 175.816 427.39 186.316 430.856 195.393L430.857 195.393Z" fill="white"/>
<path d="M462.025 216.731C461.718 216.731 461.412 216.727 461.105 216.719C460.467 216.7 459.82 216.664 459.184 216.612C457.408 216.461 455.642 216.17 453.935 215.746C452.476 215.384 451.04 214.925 449.667 214.381C448.028 213.736 446.42 212.952 444.89 212.05C444.329 211.715 443.836 211.406 443.385 211.105C442.4 210.453 441.434 209.736 440.511 208.973C436.159 205.368 432.796 200.682 430.786 195.419C427.161 185.927 428.116 175.495 433.404 166.799C436.462 161.769 440.82 157.628 446.008 154.825C446.989 154.291 448.033 153.792 449.108 153.343C449.8 153.055 450.519 152.784 451.246 152.537C453.512 151.768 455.866 151.237 458.244 150.961C460.645 150.678 463.074 150.654 465.468 150.886C466.508 150.987 467.56 151.14 468.596 151.341C469.002 151.417 469.394 151.499 469.757 151.586C473.107 152.352 476.329 153.637 479.333 155.406C487.031 159.946 492.457 167.176 494.611 175.763C496.748 184.282 495.401 193.123 490.819 200.657C484.756 210.632 473.786 216.731 462.024 216.731H462.025ZM430.928 195.365C432.928 200.603 436.276 205.268 440.608 208.856C441.526 209.616 442.488 210.33 443.469 210.979C443.918 211.278 444.408 211.586 444.968 211.92C446.49 212.818 448.09 213.598 449.723 214.24C451.089 214.782 452.519 215.238 453.971 215.599C455.671 216.021 457.429 216.311 459.197 216.461C459.83 216.512 460.474 216.549 461.109 216.567C473.17 216.892 484.498 210.766 490.69 200.579C495.251 193.079 496.592 184.279 494.465 175.799C492.321 167.252 486.92 160.056 479.257 155.536C476.266 153.775 473.059 152.495 469.723 151.733C469.361 151.647 468.973 151.565 468.567 151.489C467.536 151.289 466.488 151.137 465.453 151.036C463.07 150.805 460.651 150.829 458.262 151.11C455.894 151.386 453.55 151.914 451.294 152.68C450.57 152.925 449.854 153.195 449.166 153.482C448.095 153.929 447.056 154.426 446.079 154.957C440.915 157.748 436.577 161.87 433.533 166.877C428.269 175.532 427.319 185.916 430.927 195.364L430.928 195.365Z" fill="#371A45"/>
<g opacity="0.2">
<path d="M490.755 200.617C484.316 211.214 472.793 216.96 461.107 216.642C460.468 216.624 459.83 216.589 459.191 216.536C457.437 216.388 455.686 216.102 453.954 215.673C452.519 215.316 451.094 214.865 449.696 214.312C448.07 213.674 446.479 212.899 444.929 211.986C444.418 211.679 443.915 211.368 443.427 211.044C442.423 210.378 441.47 209.666 440.56 208.915C436.102 205.223 432.822 200.541 430.856 195.392C429.776 192.564 429.092 189.596 428.828 186.58C430.817 191.451 433.998 195.873 438.251 199.395C439.159 200.15 440.114 200.86 441.118 201.524C441.604 201.849 442.107 202.16 442.62 202.467C444.17 203.38 445.761 204.154 447.385 204.793C448.785 205.346 450.209 205.797 451.643 206.154C453.375 206.583 455.128 206.869 456.88 207.017C457.52 207.069 458.159 207.105 458.798 207.122C470.484 207.44 482.005 201.695 488.446 191.098C492.206 184.917 493.668 178.014 493.084 171.352C496.863 180.589 496.357 191.406 490.755 200.617L490.755 200.617Z" fill="#371A45"/>
</g>
<path d="M462.025 217.238C461.714 217.238 461.403 217.234 461.091 217.226C460.443 217.207 459.788 217.171 459.143 217.118C457.338 216.964 455.545 216.668 453.812 216.238C452.332 215.871 450.874 215.405 449.48 214.853C447.817 214.199 446.185 213.403 444.632 212.487C444.061 212.146 443.562 211.833 443.103 211.527C442.105 210.866 441.124 210.138 440.188 209.364C435.768 205.703 432.353 200.944 430.312 195.6C426.631 185.96 427.6 175.366 432.971 166.535C436.075 161.428 440.5 157.224 445.767 154.378C446.762 153.837 447.821 153.33 448.913 152.875C449.615 152.582 450.345 152.306 451.084 152.056C453.383 151.276 455.773 150.737 458.187 150.456C460.622 150.17 463.089 150.145 465.518 150.38C466.574 150.483 467.642 150.639 468.693 150.842C469.105 150.919 469.504 151.003 469.876 151.092C473.272 151.868 476.543 153.173 479.592 154.968C487.409 159.578 492.918 166.919 495.105 175.639C497.275 184.29 495.907 193.269 491.254 200.921C485.099 211.046 473.964 217.238 462.026 217.238L462.025 217.238ZM431.402 195.184C433.371 200.34 436.666 204.933 440.932 208.465C441.836 209.213 442.784 209.916 443.749 210.555C444.193 210.851 444.676 211.154 445.228 211.484C446.725 212.367 448.301 213.135 449.909 213.768C451.256 214.301 452.664 214.751 454.094 215.106C455.767 215.522 457.499 215.807 459.24 215.955C459.863 216.006 460.498 216.041 461.125 216.06C472.995 216.381 484.16 210.347 490.258 200.315C494.748 192.932 496.068 184.269 493.974 175.923C491.863 167.508 486.545 160.423 479 155.974C476.055 154.239 472.896 152.979 469.612 152.228C469.253 152.142 468.873 152.062 468.476 151.988C467.456 151.791 466.424 151.641 465.406 151.542C463.059 151.314 460.676 151.338 458.323 151.615C455.99 151.886 453.681 152.406 451.459 153.161C450.746 153.403 450.04 153.669 449.363 153.952C448.308 154.392 447.286 154.881 446.324 155.404C441.238 158.152 436.966 162.211 433.969 167.142C428.787 175.662 427.852 185.884 431.403 195.184L431.402 195.184Z" fill="#371A45"/>
<path d="M462.025 217.459C461.712 217.459 461.399 217.455 461.085 217.446C460.433 217.427 459.774 217.391 459.125 217.338C457.308 217.183 455.504 216.885 453.759 216.452C452.269 216.083 450.802 215.614 449.399 215.059C447.725 214.4 446.083 213.599 444.52 212.678C443.945 212.334 443.442 212.019 442.981 211.711C441.977 211.047 440.989 210.313 440.047 209.534C435.597 205.85 432.16 201.058 430.105 195.679C426.399 185.975 427.375 175.31 432.782 166.42C435.906 161.28 440.36 157.048 445.661 154.183C446.662 153.639 447.728 153.129 448.827 152.671C449.534 152.376 450.269 152.099 451.012 151.847C453.326 151.061 455.731 150.519 458.16 150.237C460.61 149.949 463.093 149.923 465.538 150.161C466.601 150.264 467.676 150.42 468.734 150.625C469.148 150.703 469.551 150.788 469.926 150.877C473.342 151.658 476.634 152.971 479.703 154.778C487.571 159.419 493.116 166.808 495.318 175.586C497.502 184.295 496.126 193.334 491.441 201.036C485.246 211.227 474.039 217.46 462.024 217.46L462.025 217.459ZM431.608 195.105C433.564 200.226 436.837 204.787 441.073 208.295C441.97 209.038 442.912 209.736 443.871 210.371C444.312 210.666 444.792 210.967 445.341 211.294C446.827 212.171 448.393 212.934 449.99 213.563C451.328 214.093 452.726 214.539 454.147 214.892C455.809 215.304 457.529 215.588 459.259 215.735C459.877 215.786 460.508 215.821 461.131 215.839C472.921 216.155 484.011 210.165 490.068 200.2C494.527 192.868 495.838 184.265 493.759 175.977C491.662 167.62 486.381 160.584 478.887 156.163C475.962 154.441 472.824 153.189 469.562 152.443C469.204 152.358 468.828 152.279 468.435 152.205C467.421 152.009 466.396 151.859 465.384 151.761C463.053 151.535 460.686 151.56 458.348 151.834C456.031 152.103 453.737 152.621 451.53 153.37C450.821 153.61 450.12 153.874 449.448 154.155C448.4 154.592 447.384 155.078 446.429 155.597C441.377 158.327 437.134 162.359 434.157 167.255C429.011 175.717 428.083 185.868 431.609 195.104L431.608 195.105Z" fill="#371A45"/>
<path d="M434.873 202.835C452.397 218.786 480.096 212.798 484.702 189.934C487.836 174.379 474.807 159.369 459.46 157.382C448.291 155.936 436.737 159.341 429.694 175.817C429.694 175.817 427.718 183.583 429.154 189.122C430.589 194.661 432.935 199.808 432.935 199.808L434.873 202.835V202.835Z" fill="#371A45"/>
<path d="M484.701 189.935C480.096 212.798 452.396 218.786 434.872 202.837L434.48 202.222C455.288 208.833 478.299 199.091 483.393 176.059C485.097 180.386 485.668 185.134 484.701 189.934V189.935Z" fill="#220F2D"/>
<path d="M457.479 215.787C454.853 215.787 452.196 215.499 449.561 214.915L449.469 214.886C447.803 214.231 446.169 213.434 444.615 212.517C444.043 212.176 443.543 211.862 443.084 211.556C442.085 210.895 441.102 210.166 440.165 209.391C435.74 205.726 432.321 200.962 430.279 195.612C426.594 185.962 427.564 175.357 432.941 166.516C436.048 161.404 440.478 157.195 445.75 154.347L445.806 154.316L445.867 154.298C450.057 153.044 454.764 152.743 459.857 153.402C469.019 154.588 477.822 159.95 483.406 167.745C488.43 174.757 490.329 182.919 488.756 190.728C487.042 199.234 482.482 206.106 475.572 210.601C470.331 214.01 464.006 215.787 457.479 215.787V215.787ZM449.877 213.717C458.721 215.668 467.838 214.155 474.898 209.563C481.523 205.254 485.895 198.656 487.543 190.483C489.048 183.015 487.221 175.196 482.4 168.465C477.012 160.944 468.526 155.772 459.698 154.63C454.803 153.995 450.29 154.277 446.282 155.466C441.227 158.21 436.98 162.252 433.998 167.159C428.821 175.671 427.887 185.881 431.434 195.171C433.401 200.322 436.693 204.909 440.954 208.438C441.857 209.185 442.804 209.888 443.768 210.526C444.212 210.821 444.695 211.124 445.246 211.454C446.727 212.327 448.286 213.09 449.876 213.718L449.877 213.717Z" fill="#371A45"/>
<path d="M457.439 212.422C449.247 212.422 440.989 209.239 434.456 203.293C434.415 203.256 434.38 203.214 434.351 203.169L432.413 200.142C432.397 200.117 432.383 200.091 432.371 200.064C432.347 200.012 429.987 194.805 428.554 189.277C427.095 183.649 429.011 175.988 429.094 175.664C429.102 175.633 429.112 175.603 429.124 175.573C435.237 161.274 445.471 154.947 459.54 156.768C467.709 157.826 475.56 162.606 480.538 169.556C485.018 175.81 486.713 183.091 485.309 190.056C483.274 200.161 476.596 207.762 466.988 210.912C463.889 211.927 460.669 212.423 457.439 212.423L457.439 212.422ZM435.35 202.432C444.124 210.381 456.091 213.18 466.602 209.735C475.774 206.728 482.15 199.466 484.095 189.812C485.43 183.186 483.809 176.249 479.531 170.277C474.749 163.601 467.216 159.01 459.38 157.996C445.942 156.256 436.153 162.318 430.283 176.014C430.127 176.652 428.43 183.862 429.753 188.967C431.093 194.136 433.263 199.027 433.481 199.512L435.35 202.432V202.432Z" fill="#371A45"/>
<path d="M497.529 187.935C497.049 194.411 492.895 199.557 488.251 199.428C483.606 199.299 480.23 193.944 480.71 187.468C480.713 187.427 480.717 187.384 480.721 187.344C481.244 180.926 485.377 175.846 489.989 175.975C493.577 176.075 496.408 179.293 497.289 183.737C497.548 185.045 497.638 186.462 497.529 187.935V187.935Z" fill="white"/>
<g opacity="0.2">
<path d="M497.529 187.935C497.049 194.41 492.895 199.557 488.251 199.428C483.606 199.299 480.23 193.944 480.71 187.468C480.713 187.427 480.717 187.384 480.721 187.344C481.182 188.022 481.929 188.699 483.022 188.508C484.937 188.173 488.63 184.103 488.63 184.103C488.63 184.103 492.385 183.919 497.29 183.736C497.548 185.045 497.639 186.461 497.53 187.934L497.529 187.935Z" fill="#371A45"/>
</g>
<path d="M488.419 200.233C488.355 200.233 488.292 200.232 488.228 200.231C486.237 200.175 484.404 199.282 482.928 197.647C480.741 195.226 479.613 191.398 479.908 187.408C480.419 180.52 484.953 175.025 490.012 175.171C492.004 175.226 493.836 176.12 495.313 177.755C497.5 180.176 498.628 184.004 498.332 187.994C497.828 194.796 493.402 200.234 488.419 200.234V200.233ZM489.817 176.776C485.663 176.776 481.955 181.555 481.512 187.526C481.248 191.087 482.224 194.467 484.121 196.569C485.296 197.869 486.731 198.58 488.273 198.622C492.478 198.738 496.28 193.918 496.728 187.874C496.992 184.314 496.017 180.933 494.12 178.832C492.945 177.531 491.509 176.821 489.968 176.778C489.918 176.776 489.868 176.776 489.818 176.776L489.817 176.776Z" fill="#371A45"/>
<path d="M498.513 189.695C499.304 184.597 496.918 179.995 493.185 179.416C489.451 178.836 485.783 182.5 484.992 187.597C484.201 192.695 486.587 197.298 490.32 197.877C494.054 198.456 497.722 194.793 498.513 189.695Z" fill="white"/>
<path d="M491.075 198.016C490.099 198.016 489.152 197.735 488.277 197.179C484.938 195.056 483.769 189.501 485.671 184.797C486.745 182.143 488.594 180.226 490.744 179.537C492.3 179.038 493.845 179.235 495.214 180.105C498.553 182.228 499.722 187.782 497.819 192.486C496.746 195.14 494.897 197.058 492.747 197.747C492.185 197.926 491.626 198.016 491.075 198.016V198.016ZM492.414 179.425C491.88 179.425 491.337 179.512 490.792 179.687C488.686 180.361 486.873 182.246 485.817 184.856C483.942 189.493 485.083 194.962 488.361 197.046C489.689 197.89 491.188 198.081 492.698 197.597C494.804 196.922 496.617 195.038 497.673 192.427C499.549 187.79 498.407 182.321 495.129 180.237C494.28 179.698 493.361 179.425 492.414 179.425Z" fill="#371A45"/>
<g opacity="0.2">
<path d="M485.01 192.344C484.715 190.6 484.888 188.766 485.423 187.073C486.425 190.991 489.719 192.807 493.073 191.145C495.241 190.072 496.934 187.791 497.759 185.17C497.824 185.417 497.877 185.675 497.922 185.939C498.672 190.381 496.39 195.415 492.824 197.183C489.257 198.951 485.76 196.782 485.01 192.344V192.344Z" fill="#371A45"/>
</g>
<path d="M491.141 199.005C491.106 199.005 491.072 199.005 491.038 199.004C489.557 198.974 488.188 198.311 487.076 197.086C485.286 195.111 484.377 191.885 484.644 188.454C485.096 182.67 488.568 178.198 492.56 178.28C494.041 178.31 495.41 178.973 496.522 180.198C498.312 182.173 499.221 185.399 498.954 188.83C498.506 194.563 495.085 199.005 491.141 199.005ZM492.458 179.888C489.401 179.888 486.624 183.764 486.248 188.579C486.015 191.577 486.77 194.353 488.268 196.005C489.074 196.894 490.043 197.375 491.07 197.395C494.15 197.45 496.972 193.557 497.351 188.704C497.584 185.707 496.829 182.931 495.331 181.279C494.525 180.389 493.556 179.909 492.529 179.888C492.505 179.888 492.482 179.888 492.458 179.888Z" fill="#371A45"/>
<g opacity="0.5">
<path d="M466.635 164.402C466.635 164.402 451.689 163.415 442.403 170.771C442.393 170.779 442.384 170.786 442.374 170.794C440.421 172.343 438.928 174.386 438.037 176.695C436.857 179.749 436.498 182.022 436.26 184.036C435.54 190.16 436.364 193.161 436.364 193.161C433.211 189.526 431.652 185.628 432.201 180.521C432.257 180.018 432.332 179.501 432.428 178.973C432.449 178.851 432.473 178.731 432.499 178.61C432.497 178.609 432.498 178.606 432.502 178.603C432.771 177.547 433.177 176.171 433.767 174.657C435.543 170.09 438.976 164.258 445.298 162.085C457.12 158.022 467.222 163.821 466.635 164.402V164.402Z" fill="white"/>
</g>
<g opacity="0.5">
<path d="M475.385 185.696C477.82 185.312 479.437 182.732 478.995 179.935C478.554 177.137 476.221 175.181 473.786 175.566C471.351 175.95 469.734 178.53 470.176 181.327C470.617 184.125 472.95 186.081 475.385 185.696Z" fill="white"/>
</g>
<g opacity="0.5">
<path d="M476.483 191.9C477.469 191.649 478.034 190.526 477.745 189.392C477.456 188.259 476.423 187.543 475.436 187.795C474.45 188.046 473.885 189.169 474.174 190.303C474.463 191.436 475.497 192.151 476.483 191.9Z" fill="white"/>
</g>
<path d="M451.18 234.848H434.114L434.453 243.561H436.219L438.223 256.813C444.185 258.175 451.238 258.326 451.238 258.326C451.238 258.326 458.175 258.175 464.137 256.813L466.141 243.561H467.907L468.246 234.848H451.18H451.18Z" fill="#C16540"/>
<g opacity="0.2">
<path d="M439.969 257.173V252.682C439.969 252.682 449.162 252.773 452.508 251.003C455.853 249.233 456.216 243.56 456.216 243.56H435.907V240.065C435.907 240.065 450.089 240.276 453.418 239.679C456.746 239.082 457.472 236.42 457.472 236.42H466.142L465.459 243.258L464.31 243.561L461.742 257.173C461.742 257.173 450.18 259.652 439.969 257.173V257.173Z" fill="#371A45"/>
</g>
<path d="M466.141 244.365H436.22C435.776 244.365 435.415 244.005 435.415 243.56C435.415 243.116 435.776 242.756 436.22 242.756H466.142C466.586 242.756 466.946 243.116 466.946 243.56C466.946 244.005 466.586 244.365 466.142 244.365H466.141Z" fill="#371A45"/>
<g opacity="0.4">
<path d="M434.296 236.595C434.296 236.595 447.73 236.512 451.451 236.421C455.173 236.33 456.443 234.999 456.443 234.999L434.114 234.848L434.296 236.595V236.595Z" fill="white"/>
</g>
<path d="M451.239 259.13C451.233 259.13 451.228 259.13 451.222 259.13C450.93 259.124 444.018 258.961 438.044 257.597C437.722 257.523 437.478 257.26 437.428 256.933L435.528 244.365H434.453C434.022 244.365 433.667 244.024 433.65 243.592L433.311 234.878C433.302 234.66 433.383 234.447 433.535 234.29C433.686 234.132 433.896 234.043 434.114 234.043H468.247C468.466 234.043 468.675 234.132 468.827 234.29C468.978 234.447 469.059 234.66 469.051 234.878L468.711 243.592C468.695 244.024 468.34 244.365 467.908 244.365H466.834L464.933 256.933C464.884 257.26 464.64 257.523 464.317 257.597C458.344 258.961 451.543 259.124 451.257 259.13C451.251 259.13 451.245 259.13 451.239 259.13H451.239ZM438.937 256.147C444.487 257.335 450.858 257.511 451.239 257.521C451.616 257.511 457.882 257.334 463.425 256.147L465.346 243.441C465.406 243.047 465.744 242.756 466.142 242.756H467.134L467.411 235.651H434.95L435.227 242.756H436.22C436.618 242.756 436.956 243.047 437.015 243.441L438.936 256.147H438.937Z" fill="#371A45"/>
<path d="M447.888 222.054C447.888 222.054 452.994 227.525 453.871 234.847H449.431C449.431 234.847 449.787 229.764 448.334 226.617C448.334 226.617 445.082 221.062 447.888 222.054H447.888Z" fill="#58E849"/>
<g opacity="0.3">
<path d="M446.632 222.284C446.632 222.284 451.737 227.754 452.615 235.076L449.431 234.846C449.431 234.846 449.787 229.249 448.335 226.102C448.335 226.102 446.156 222.411 446.632 222.283V222.284Z" fill="#371A45"/>
</g>
<path d="M453.871 235.651H449.431C449.208 235.651 448.995 235.558 448.843 235.395C448.691 235.232 448.613 235.013 448.628 234.791C448.632 234.743 448.948 229.911 447.62 226.989C446.518 225.1 445.399 222.646 446.266 221.596C446.549 221.255 447.106 220.925 448.156 221.297C448.278 221.34 448.388 221.412 448.476 221.506C448.692 221.738 453.772 227.255 454.67 234.751C454.697 234.98 454.626 235.209 454.473 235.381C454.321 235.553 454.102 235.651 453.871 235.651V235.651ZM450.269 234.043H452.942C451.986 228.471 448.591 224.118 447.584 222.928C447.734 223.64 448.325 225.008 449.029 226.211C449.042 226.233 449.054 226.256 449.065 226.28C450.233 228.81 450.306 232.408 450.27 234.043H450.269Z" fill="#371A45"/>
<path d="M448.335 225.588C448.335 225.588 450.392 230.794 441.981 237.117C433.57 243.439 421.286 243.803 421.286 243.803C421.286 243.803 418.904 230.974 429.566 223.289C440.226 215.604 449.061 217.782 448.335 225.588H448.335Z" fill="#58E849"/>
<g opacity="0.4">
<path d="M421.633 242.955C421.633 242.955 421.118 235.521 428.184 227.765C435.25 220.008 444.34 218.895 444.34 218.895C444.34 218.895 440.114 216.866 432.788 221.227C425.461 225.588 419.984 232.184 421.633 242.955V242.955Z" fill="white"/>
</g>
<path d="M421.285 244.607C420.899 244.607 420.565 244.331 420.495 243.949C420.469 243.813 419.881 240.55 420.635 236.287C421.334 232.338 423.369 226.764 429.095 222.636C435.563 217.974 442.032 216.479 445.979 218.736C448.264 220.042 449.386 222.438 449.15 225.493C449.47 226.579 450.447 231.758 442.464 237.759C433.947 244.162 421.821 244.591 421.309 244.606C421.301 244.606 421.294 244.606 421.286 244.606L421.285 244.607ZM441.7 219.313C438.413 219.313 434.203 220.937 430.035 223.941C421.322 230.223 421.7 240.236 421.985 242.957C424.71 242.759 434.544 241.701 441.498 236.474C449.242 230.653 447.655 226.069 447.584 225.876C447.542 225.763 447.523 225.634 447.534 225.514C447.767 223.008 446.953 221.147 445.18 220.133C444.216 219.581 443.034 219.314 441.7 219.314V219.313Z" fill="#371A45"/>
<path d="M448.098 226.356C444.244 225.623 440.33 227.156 437.077 229.156C433.602 231.297 430.881 234.327 427.934 237.156C427.884 237.208 427.789 237.139 427.828 237.075C428.816 235.238 430.098 233.583 431.536 232.072C433.707 229.811 436.2 227.761 439.039 226.354C441.937 224.927 445.354 224.045 448.57 224.818C449.586 225.154 449.129 226.644 448.097 226.356H448.098Z" fill="#371A45"/>
<g opacity="0.2">
<path d="M421.633 243.334C421.633 243.334 435.521 239.114 439.968 232.85C444.416 226.587 444.34 225.486 444.34 225.486C444.34 225.486 435.899 226.126 428.63 236.16C428.63 236.16 429.893 230.445 435.249 226.043C440.604 221.641 448.19 223.01 448.19 223.01C448.19 223.01 448.304 224.545 448.334 224.772C448.364 224.999 448.555 227.132 448.555 227.132C448.555 227.132 448.461 232.646 441.434 237.515C434.407 242.383 424.175 243.697 421.633 243.334V243.334Z" fill="#371A45"/>
</g>
<path d="M452.932 230.826C452.932 230.826 454.156 235.767 463.505 236.333C472.854 236.9 481.895 231.053 481.895 231.053C481.895 231.053 476.939 220.217 465.26 219.747C453.581 219.276 448.348 225.316 452.932 230.826V230.826Z" fill="#58E849"/>
<g opacity="0.4">
<path d="M481.204 230.59C481.204 230.59 477.709 224.74 468.584 222.426C459.458 220.111 452.329 223.803 452.329 223.803C452.329 223.803 454.319 220.171 461.867 219.802C469.414 219.432 476.79 221.666 481.204 230.59Z" fill="white"/>
</g>
<path d="M464.812 237.178C464.362 237.178 463.91 237.165 463.457 237.137C454.572 236.599 452.557 232.218 452.211 231.217C450.39 228.958 449.982 226.517 451.064 224.326C452.842 220.724 458.294 218.66 465.293 218.944C470.277 219.145 474.856 221.244 478.533 225.016C481.298 227.851 482.573 230.604 482.626 230.72C482.792 231.083 482.667 231.513 482.332 231.73C481.971 231.963 473.798 237.178 464.812 237.178V237.178ZM453.71 230.627C453.764 230.823 455.015 235.015 463.554 235.532C471.147 235.991 478.654 232.019 480.831 230.756C479.567 228.494 474.649 220.931 465.228 220.551C458.969 220.3 453.976 222.061 452.506 225.038C451.691 226.688 452.052 228.512 453.55 230.314C453.626 230.405 453.681 230.512 453.71 230.627V230.627Z" fill="#371A45"/>
<path d="M452.294 230.338C453.598 228.808 455.447 227.891 457.323 227.277C461.834 225.93 466.789 226.619 471.166 228.095C472.022 228.445 472.872 228.812 473.687 229.248C473.751 229.281 473.718 229.39 473.643 229.375C471.824 229.126 470.073 228.727 468.284 228.396C467.531 228.288 466.712 228.189 465.956 228.087C464.958 228.047 463.954 227.935 462.963 227.994C460.386 228.039 457.724 228.553 455.475 229.844C454.77 230.249 454.09 230.744 453.55 231.342C452.873 232.138 451.665 231.183 452.294 230.338V230.338Z" fill="#371A45"/>
<g opacity="0.2">
<path d="M481.4 230.874C481.4 230.874 469.198 234.617 462.736 232.122C456.274 229.626 455.756 228.76 455.756 228.76C455.756 228.76 462.172 225.037 472.628 228.963C472.628 228.963 468.746 225.293 462.597 224.649C456.449 224.005 451.695 228.815 451.695 228.815C451.695 228.815 452.411 230.026 452.508 230.212C452.604 230.398 453.576 232.098 453.576 232.098C453.576 232.098 456.511 236.199 464.107 236.361C471.702 236.523 479.758 232.414 481.401 230.874L481.4 230.874Z" fill="#371A45"/>
</g>
<path d="M399.804 219.719L402.437 216.654C402.437 216.654 400.803 213.79 401.71 211.792C402.618 209.795 413.147 197.36 414.69 197.087C416.234 196.815 417.05 197.087 417.05 197.087C417.05 197.087 421.226 194.818 426.036 198.177C430.847 201.535 434.107 204.44 432.84 208.433C431.573 212.427 427.882 217.601 427.882 217.601H433.57L438.563 215.174C438.563 215.174 445.125 217.225 441.435 227.262C441.435 227.262 437.54 226.467 434.808 225.35L421.634 226.951L417.89 232.033C417.89 232.033 404.615 233.365 399.805 219.719L399.804 219.719Z" fill="#22A7F0"/>
<g opacity="0.3">
<path d="M403.78 214.946C403.78 214.946 402.862 213.334 403.148 212.427C403.435 211.519 414.206 199.265 414.72 198.963C415.234 198.66 416.183 198.69 416.183 198.69L415.599 199.928L403.78 214.946L403.78 214.946Z" fill="#371A45"/>
</g>
<g opacity="0.2">
<path d="M400.453 221.355L403.093 219.224C403.093 219.224 405.795 220.317 411.392 220.29C416.989 220.263 425.313 208.039 425.313 208.039C425.313 208.039 428.396 209.483 431.058 208.806C431.058 208.806 427.458 215.421 425.642 217.6C425.642 217.6 421.879 216.812 420.014 217.6C418.15 218.388 416.656 219.047 416.353 220.759C416.051 222.472 416.898 222.835 421.633 223.319C426.368 223.803 437.17 222.078 437.17 222.078L438.35 216.42C438.35 216.42 440.286 217.782 440.83 221.655C441.375 225.527 439.968 227.116 439.968 227.116L435.094 225.349L433.72 225.195L422.36 226.861L421.058 227.342C421.058 227.342 418.092 231.669 417.888 231.76C417.684 231.85 414.212 233.273 408.158 229.9C402.103 226.526 400.452 221.355 400.452 221.355H400.453Z" fill="#371A45"/>
</g>
<g opacity="0.3">
<path d="M430.982 206.936C431.566 206.129 429.5 203.64 426.369 201.379C423.238 199.117 420.227 197.939 419.644 198.746C419.06 199.554 421.126 202.042 424.257 204.304C427.388 206.565 430.399 207.744 430.982 206.936Z" fill="#371A45"/>
</g>
<g opacity="0.4">
<path d="M406.521 214.89C406.203 214.755 416.299 201.197 417.37 201.611C418.441 202.025 418.685 203.581 417.846 204.996C417.007 206.41 408.56 215.754 406.521 214.89V214.89Z" fill="white"/>
</g>
<g opacity="0.4">
<path d="M416.368 221.76C416.368 221.76 418.577 219.305 419.81 219.224C421.043 219.143 433.014 219.176 433.201 219.082C433.387 218.989 437.82 217.407 437.82 217.407V215.785L437.14 215.604C437.14 215.604 433.57 217.691 432.995 217.691C432.42 217.691 420.378 217.721 420.378 217.721C420.378 217.721 419.833 217.583 418.441 218.423C417.049 219.264 416.049 220.958 416.368 221.624" fill="white"/>
</g>
<path d="M416.909 232.874C415.575 232.874 413.128 232.712 410.385 231.752C406.642 230.441 401.637 227.336 399.046 219.986C398.95 219.714 399.007 219.413 399.194 219.194L401.477 216.537C401.009 215.534 400.157 213.267 400.978 211.459C401.525 210.256 404.667 206.369 407.354 203.266C413.183 196.536 414.212 196.354 414.551 196.295C415.711 196.09 416.525 196.163 416.957 196.241C418.049 195.759 422.018 194.39 426.497 197.517C431.092 200.725 435.093 203.992 433.607 208.677C432.69 211.568 430.593 214.985 429.401 216.797H433.385L438.211 214.451C438.395 214.361 438.607 214.345 438.802 214.406C438.9 214.437 441.223 215.188 442.521 217.822C443.753 220.322 443.641 223.591 442.19 227.539C442.053 227.912 441.664 228.13 441.274 228.049C441.116 228.017 437.451 227.263 434.7 226.173L422.076 227.707L418.536 232.51C418.402 232.694 418.196 232.811 417.969 232.834C417.923 232.838 417.541 232.874 416.909 232.874V232.874ZM400.721 219.886C402.653 225.041 406.061 228.514 410.856 230.212C413.863 231.278 416.538 231.289 417.464 231.253L420.986 226.473C421.117 226.294 421.316 226.178 421.536 226.151L434.71 224.551C434.846 224.534 434.985 224.553 435.111 224.605C437.07 225.405 439.688 226.046 440.911 226.323C441.985 223.109 442.041 220.49 441.077 218.533C440.318 216.992 439.126 216.298 438.594 216.053L433.921 218.324C433.812 218.377 433.691 218.405 433.569 218.405H427.881C427.58 218.405 427.304 218.236 427.166 217.969C427.028 217.701 427.052 217.379 427.227 217.134C427.263 217.083 430.86 212.014 432.073 208.19C433.125 204.874 430.601 202.344 425.575 198.836C421.256 195.821 417.585 197.714 417.43 197.795C417.236 197.899 417.004 197.92 416.795 197.85C416.795 197.85 416.119 197.657 414.865 197.873C413.271 198.56 403.271 210.301 402.442 212.124C401.841 213.448 402.738 215.556 403.135 216.256C403.302 216.551 403.267 216.921 403.046 217.178L400.72 219.885L400.721 219.886Z" fill="#371A45"/>
<path d="M402.435 217.459C402.261 217.459 402.086 217.402 401.939 217.287C401.589 217.012 401.529 216.506 401.804 216.157L415.287 199.025L416.317 196.756C416.5 196.351 416.977 196.172 417.382 196.355C417.786 196.539 417.965 197.016 417.782 197.42L416.712 199.778C416.685 199.837 416.651 199.892 416.611 199.943L403.068 217.152C402.91 217.353 402.674 217.459 402.435 217.459Z" fill="#371A45"/>
<path d="M430.306 207.984C428.062 207.984 424.303 205.328 423.786 204.954C423.139 204.487 417.507 200.329 418.992 198.274C420.476 196.22 426.193 200.258 426.84 200.725C427.487 201.192 433.119 205.351 431.634 207.405C431.337 207.818 430.869 207.984 430.306 207.984V207.984ZM420.396 199.288C420.653 199.97 421.995 201.676 424.728 203.65C427.46 205.624 429.502 206.362 430.231 206.391C429.973 205.709 428.631 204.003 425.899 202.029C423.166 200.056 421.124 199.318 420.396 199.288Z" fill="#371A45"/>
<path d="M418.262 227.921C418.047 227.921 417.767 227.87 417.458 227.686C416.516 227.121 415.865 225.633 415.469 223.136C414.798 218.904 418.053 217.148 419.868 216.81C419.917 216.801 419.966 216.797 420.016 216.797H427.882C428.326 216.797 428.686 217.157 428.686 217.601C428.686 218.046 428.326 218.406 427.882 218.406H420.097C419.506 218.536 416.501 219.377 417.058 222.884C417.499 225.665 418.151 226.219 418.283 226.304C418.304 226.301 418.324 226.299 418.344 226.298L421.597 226.147C422.04 226.13 422.417 226.469 422.437 226.913C422.458 227.357 422.115 227.733 421.672 227.754L418.485 227.902C418.423 227.913 418.348 227.921 418.262 227.921H418.262ZM418.118 226.342C418.118 226.342 418.118 226.342 418.117 226.342C418.117 226.342 418.117 226.342 418.118 226.342Z" fill="#371A45"/>
<path d="M434.808 226.155C434.571 226.155 434.336 226.05 434.177 225.849C431.713 222.732 432.738 217.652 432.783 217.437C432.873 217.002 433.3 216.723 433.734 216.814C434.169 216.905 434.448 217.33 434.357 217.765C434.348 217.81 433.444 222.327 435.439 224.851C435.714 225.2 435.655 225.705 435.307 225.981C435.159 226.097 434.983 226.154 434.808 226.154V226.155Z" fill="#371A45"/>
<path d="M439.095 227.515C438.861 227.515 438.63 227.414 438.471 227.219C434.53 222.385 437.691 215.151 437.827 214.845C438.008 214.44 438.483 214.258 438.89 214.439C439.295 214.62 439.477 215.096 439.297 215.501C439.267 215.567 436.406 222.14 439.718 226.202C439.999 226.547 439.947 227.053 439.603 227.334C439.453 227.456 439.273 227.514 439.095 227.514L439.095 227.515Z" fill="#371A45"/>
</g>
<defs>
<clipPath id="clip0_484_634">
<rect width="500" height="300" fill="white"/>
</clipPath>
</defs>
</svg>
