<svg width="500" height="300" viewBox="0 0 500 300" fill="none" xmlns="http://www.w3.org/2000/svg">
<g clip-path="url(#clip0_484_878)">
<path d="M413.496 183.613L412.901 202.401H415.29L413.496 183.613Z" fill="#21DD00"/>
<path d="M408.728 192.153C406.064 189.039 403.402 191.491 400.741 195.953C400.531 196.306 400.737 196.76 401.14 196.837C405.538 197.675 409.548 199.024 409.877 195.57C409.995 194.326 409.54 193.103 408.727 192.153H408.728Z" fill="#21DD00"/>
<g opacity="0.6">
<path d="M409.035 192.552C406.586 190.463 404.138 192.846 401.689 196.942C401.506 196.904 401.324 196.869 401.141 196.834C400.737 196.757 400.531 196.304 400.742 195.951C403.402 191.489 406.065 189.037 408.728 192.152C408.837 192.28 408.941 192.414 409.035 192.552V192.552Z" fill="white"/>
</g>
<path d="M412.046 187.75C411.021 184.332 408.897 182.084 405 181.724C404.516 181.679 404.14 182.137 404.269 182.606C405.336 186.486 407.912 188.515 412.017 188.667" fill="#21DD00"/>
<g opacity="0.6">
<path d="M412.047 187.75L412.032 188.236C410.894 185.441 408.833 183.635 405.375 183.315C405.043 183.284 404.762 183.49 404.659 183.774C404.512 183.405 404.382 183.016 404.27 182.605C404.14 182.137 404.516 181.678 404.999 181.724C408.897 182.082 411.021 184.332 412.047 187.75Z" fill="white"/>
</g>
<path d="M416.216 191.987C418.038 188.317 421.218 190.044 424.889 193.721C425.178 194.012 425.089 194.502 424.717 194.676C420.658 196.563 417.099 198.85 415.936 195.582C415.517 194.404 415.66 193.107 416.216 191.988L416.216 191.987Z" fill="#21DD00"/>
<g opacity="0.6">
<path d="M425.016 193.91C421.78 190.938 419.014 189.833 417.364 193.159C416.808 194.279 416.665 195.575 417.085 196.753C417.127 196.87 417.171 196.979 417.221 197.083C416.665 196.865 416.226 196.397 415.936 195.582C415.518 194.402 415.661 193.106 416.217 191.988C418.038 188.317 421.22 190.044 424.889 193.721C424.946 193.778 424.987 193.842 425.016 193.91Z" fill="white"/>
</g>
<path d="M414.662 187.09C415.687 183.671 417.811 181.423 421.708 181.064C422.192 181.019 422.568 181.477 422.439 181.945C421.372 185.826 418.796 187.855 414.69 188.007" fill="#21DD00"/>
<g opacity="0.6">
<path d="M422.443 181.92C418.827 182.406 416.826 184.61 415.839 187.898V187.912C415.47 187.96 415.088 187.993 414.69 188.008L414.662 187.092C415.688 183.674 417.812 181.424 421.71 181.066C422.184 181.02 422.555 181.461 422.443 181.92V181.92Z" fill="white"/>
</g>
<path d="M413.593 183.723C410.274 180.347 409.988 176.317 412.736 171.631C413.127 170.965 414.09 170.944 414.503 171.596C417.208 175.872 417.059 179.926 413.594 183.723H413.593Z" fill="#21DD00"/>
<g opacity="0.6">
<path d="M414.657 172.004C414.49 172.09 414.341 172.224 414.233 172.402C411.886 176.402 411.752 179.927 413.832 182.972C413.687 183.15 413.531 183.325 413.372 183.503C410.055 180.127 409.769 176.097 412.517 171.414C412.908 170.745 413.869 170.727 414.282 171.376C414.415 171.584 414.542 171.796 414.657 172.004V172.004Z" fill="white"/>
</g>
<path d="M413.495 183.615L415.29 202.403H412.901L413.495 183.615M413.496 182.407C413.483 182.407 413.47 182.407 413.457 182.407C412.82 182.427 412.308 182.939 412.288 183.576L411.693 202.364C411.683 202.691 411.805 203.009 412.032 203.244C412.26 203.479 412.573 203.611 412.9 203.611H415.29C415.63 203.611 415.955 203.467 416.184 203.216C416.413 202.964 416.525 202.627 416.493 202.288L414.699 183.5C414.639 182.878 414.117 182.406 413.496 182.406L413.496 182.407Z" fill="#232323"/>
<path d="M407.079 198.471C405.816 198.471 404.306 198.157 402.666 197.816C402.127 197.705 401.576 197.59 401.018 197.484C400.616 197.407 400.277 197.139 400.11 196.767C399.943 196.395 399.967 195.964 400.176 195.615C402.324 192.012 404.17 190.262 405.986 190.107C407.134 190.008 408.228 190.553 409.229 191.724C410.188 192.845 410.664 194.27 410.534 195.632C410.44 196.626 410.063 197.372 409.417 197.848C408.803 198.301 408.008 198.471 407.08 198.471L407.079 198.471ZM401.358 196.207C401.891 196.309 402.418 196.419 402.934 196.526C405.364 197.031 407.659 197.508 408.634 196.788C408.971 196.54 409.163 196.121 409.221 195.508C409.317 194.499 408.955 193.433 408.227 192.581C407.507 191.74 406.809 191.361 406.097 191.421C404.772 191.534 403.221 193.099 401.358 196.207Z" fill="#232323"/>
<path d="M400.738 196.548C401.333 195.987 401.986 195.485 402.675 195.031C403.366 194.58 404.098 194.181 404.877 193.869C405.267 193.715 405.668 193.58 406.08 193.475C406.494 193.373 406.918 193.3 407.35 193.262C407.782 193.229 408.222 193.237 408.662 193.286C409.102 193.339 409.537 193.445 409.964 193.588C410.252 193.684 410.407 193.996 410.311 194.284C410.215 194.572 409.903 194.728 409.615 194.632C409.596 194.625 409.577 194.618 409.559 194.61L409.547 194.603C409.212 194.45 408.863 194.32 408.499 194.233C408.133 194.151 407.756 194.1 407.373 194.085C406.989 194.076 406.601 194.098 406.212 194.148C405.824 194.202 405.437 194.285 405.053 194.389C404.286 194.6 403.536 194.904 402.813 195.268C402.092 195.636 401.391 196.057 400.738 196.547L400.738 196.548Z" fill="#232323"/>
<path d="M412.018 189.327C412.009 189.327 412.001 189.327 411.993 189.327C407.596 189.163 404.783 186.961 403.633 182.781C403.515 182.351 403.615 181.889 403.902 181.546C404.187 181.206 404.624 181.028 405.06 181.068C408.93 181.425 411.493 183.61 412.678 187.562C412.751 187.806 412.676 188.059 412.505 188.225C412.617 188.348 412.683 188.513 412.676 188.692C412.663 189.048 412.371 189.327 412.018 189.327V189.327ZM404.934 182.38C404.929 182.38 404.922 182.381 404.913 182.392C404.898 182.409 404.903 182.424 404.904 182.431C405.843 185.843 407.979 187.66 411.425 187.97C411.421 187.96 411.418 187.95 411.415 187.94C410.385 184.506 408.267 182.687 404.939 182.38C404.937 182.38 404.936 182.38 404.934 182.38V182.38Z" fill="#232323"/>
<path d="M407.351 184.199C408.308 184.699 409.241 185.251 410.15 185.851C411.056 186.458 411.94 187.109 412.751 187.913C412.967 188.128 412.968 188.477 412.753 188.693C412.539 188.91 412.19 188.91 411.973 188.696C411.951 188.674 411.932 188.651 411.914 188.627L411.91 188.621C411.32 187.79 410.583 187.014 409.809 186.282C409.03 185.551 408.21 184.853 407.351 184.2V184.199Z" fill="#232323"/>
<path d="M418.08 197.889C417.675 197.889 417.294 197.824 416.94 197.679C416.197 197.374 415.65 196.743 415.316 195.802C414.857 194.512 414.971 193.015 415.627 191.694C416.312 190.314 417.237 189.52 418.377 189.333C420.175 189.038 422.393 190.286 425.356 193.255C425.643 193.543 425.773 193.954 425.701 194.355C425.63 194.757 425.367 195.1 424.996 195.272C424.481 195.511 423.974 195.757 423.479 195.997C421.42 196.996 419.582 197.887 418.08 197.887L418.08 197.889ZM416.807 192.28C416.309 193.283 416.218 194.406 416.558 195.361C416.764 195.941 417.053 196.301 417.44 196.459C418.563 196.919 420.671 195.896 422.904 194.812C423.378 194.583 423.862 194.348 424.354 194.118C421.788 191.56 419.9 190.424 418.589 190.635C417.882 190.751 417.3 191.289 416.807 192.281V192.28Z" fill="#232323"/>
<path d="M425.038 194.298C424.285 193.981 423.503 193.744 422.714 193.564C421.924 193.388 421.122 193.276 420.327 193.258C419.929 193.251 419.534 193.266 419.144 193.309C418.755 193.355 418.373 193.428 418.003 193.531C417.635 193.638 417.282 193.78 416.947 193.949C416.615 194.123 416.308 194.333 416.022 194.564L416.012 194.573C415.775 194.764 415.428 194.727 415.238 194.49C415.047 194.254 415.084 193.907 415.321 193.716C415.337 193.704 415.353 193.692 415.37 193.681C415.748 193.439 416.145 193.23 416.558 193.07C416.972 192.916 417.397 192.801 417.824 192.727C418.253 192.659 418.682 192.626 419.107 192.623C419.533 192.624 419.955 192.657 420.371 192.711C421.203 192.824 422.01 193.032 422.79 193.3C423.568 193.573 424.324 193.899 425.038 194.298L425.038 194.298Z" fill="#232323"/>
<path d="M414.69 188.667C414.337 188.667 414.045 188.388 414.032 188.032C414.025 187.853 414.091 187.687 414.203 187.565C414.032 187.399 413.957 187.146 414.03 186.902C415.215 182.951 417.778 180.766 421.648 180.408C422.088 180.366 422.521 180.546 422.806 180.886C423.093 181.229 423.193 181.691 423.075 182.122C421.925 186.302 419.112 188.503 414.715 188.667C414.707 188.667 414.699 188.667 414.69 188.667ZM421.774 181.72C421.774 181.72 421.771 181.72 421.769 181.72C418.441 182.028 416.323 183.846 415.293 187.28C415.29 187.29 415.286 187.3 415.283 187.31C418.729 187 420.865 185.183 421.804 181.771C421.806 181.764 421.81 181.749 421.795 181.731C421.786 181.721 421.779 181.72 421.774 181.72V181.72Z" fill="#232323"/>
<path d="M419.957 183.541C419.1 184.195 418.279 184.893 417.5 185.623C416.726 186.356 415.989 187.132 415.399 187.962L415.397 187.966C415.221 188.214 414.876 188.272 414.628 188.096C414.38 187.92 414.321 187.576 414.497 187.327C414.515 187.302 414.537 187.277 414.558 187.255C415.368 186.451 416.253 185.799 417.159 185.193C418.068 184.593 419.001 184.041 419.958 183.541H419.957Z" fill="#232323"/>
<path d="M413.593 184.383C413.416 184.383 413.247 184.312 413.123 184.186C409.584 180.588 409.263 176.251 412.168 171.299C412.47 170.785 413.006 170.471 413.604 170.461C414.202 170.449 414.743 170.744 415.059 171.244C417.998 175.889 417.668 180.237 414.08 184.168C413.958 184.302 413.786 184.38 413.605 184.383C413.601 184.383 413.597 184.383 413.593 184.383V184.383ZM413.632 171.779H413.626C413.562 171.78 413.401 171.801 413.305 171.965C410.846 176.158 410.933 179.689 413.577 182.737C416.31 179.408 416.428 175.873 413.945 171.95C413.849 171.797 413.699 171.779 413.632 171.779V171.779Z" fill="#232323"/>
<path d="M412.687 183.21L413.647 176.096L414.544 183.219C414.609 183.732 414.246 184.2 413.732 184.265C413.219 184.33 412.751 183.966 412.686 183.453C412.676 183.372 412.677 183.288 412.687 183.211L412.687 183.21Z" fill="#232323"/>
<path d="M412.241 197.565C412.091 197.565 411.941 197.514 411.817 197.41L409.471 195.433C409.193 195.198 409.157 194.782 409.392 194.504C409.626 194.226 410.042 194.19 410.32 194.425L412.666 196.402C412.945 196.637 412.98 197.052 412.745 197.331C412.615 197.485 412.429 197.565 412.241 197.565V197.565Z" fill="#232323"/>
<path d="M422.736 208.477H404.823C404.335 208.477 403.924 208.111 403.868 207.627L403.386 203.474C403.32 202.904 403.766 202.402 404.341 202.402H423.218C423.793 202.402 424.24 202.903 424.173 203.474L423.691 207.627C423.635 208.111 423.225 208.477 422.736 208.477V208.477Z" fill="#F74C00"/>
<g opacity="0.3">
<path d="M424.172 203.474L423.691 207.627C423.634 208.112 423.225 208.477 422.736 208.477H418.131C418.618 208.477 419.029 208.112 419.086 207.627L419.567 203.474C419.633 202.903 419.187 202.402 418.612 202.402H423.219C423.792 202.402 424.24 202.903 424.172 203.474Z" fill="#232323"/>
</g>
<path d="M422.412 208.477L420.975 218.393C420.822 219.448 419.919 220.23 418.853 220.23H408.706C407.641 220.23 406.737 219.448 406.584 218.393L405.147 208.477" fill="#F74C00"/>
<g opacity="0.3">
<path d="M422.413 208.477L420.976 218.394C420.822 219.448 419.919 220.23 418.854 220.23H414.833C415.899 220.23 416.804 219.448 416.955 218.394L417.31 215.943C417.701 213.251 415.996 210.698 413.359 210.027L407.271 208.477H422.413V208.477Z" fill="#232323"/>
</g>
<g opacity="0.6">
<path d="M405.634 207.627L405.284 204.601C405.235 204.181 405.552 203.808 405.974 203.788L421.17 203.073L419.957 202.402C419.957 202.402 412.763 202.628 412.654 202.637C412.557 202.645 407.285 202.457 406.018 202.412C406.049 202.409 406.078 202.402 406.109 202.402H404.34C403.767 202.402 403.319 202.903 403.387 203.474L403.868 207.627C403.925 208.112 404.334 208.477 404.824 208.477H406.59C406.102 208.477 405.691 208.112 405.634 207.627Z" fill="white"/>
</g>
<g opacity="0.6">
<path d="M410.474 220.23H408.706C407.64 220.23 406.737 219.448 406.583 218.394L405.147 208.477H406.915L408.352 218.394C408.504 219.448 409.409 220.23 410.474 220.23Z" fill="white"/>
</g>
<path d="M493.99 250.089L486.995 253.266C486.022 253.709 484.919 253.773 483.901 253.446L482.124 252.877L478.585 240.512L471.203 214.711L480.399 208.182L482.333 209.056C483.818 209.726 485.013 210.915 485.666 212.409C488.86 219.711 491.167 227.315 492.538 235.235C493.375 240.066 493.863 245.016 493.99 250.089V250.089Z" fill="white"/>
<path d="M480.399 230.917L472.438 249.852L449.862 254.407C445.571 251.83 444.514 246.911 444.514 246.911L441.458 237.846L440.964 236.378L439.314 237.185L438.877 237.4L435.933 231.521L433.217 226.099L433.195 226.053C435.816 223.282 438.347 220.795 440.685 218.917C440.779 218.84 440.872 218.765 440.964 218.693L447.884 217.651L461.848 215.547L475.509 213.49L476.68 217.212L479.771 227.028L480.336 230.517L480.399 230.917V230.917Z" fill="white"/>
<g opacity="0.3">
<path d="M493.99 250.09L486.995 253.267C486.022 253.711 484.919 253.774 483.901 253.447L482.124 252.878L478.585 240.513C483.357 239.654 488.748 237.205 492.538 235.236C493.375 240.067 493.863 245.017 493.99 250.09V250.09Z" fill="#232323"/>
</g>
<path d="M439.905 236.873C439.712 236.981 439.514 237.086 439.314 237.185L438.877 237.4L438.875 237.398C438.055 237.791 437.183 238.149 436.275 238.477C434.494 239.123 432.532 238.984 430.864 238.086C425.921 235.423 421.389 231.363 417.206 226.119C416.995 225.853 416.683 225.688 416.345 225.677C413.053 225.572 410.228 224.625 407.849 222.872C406.985 222.232 406.311 221.362 405.968 220.354C405.924 220.231 405.887 220.106 405.856 219.978C405.18 217.252 407.743 217.072 409.541 220.011H418.331C419.524 220.011 420.541 219.148 420.734 217.972L421.171 215.312C422.402 211.672 425.381 212.777 424.904 215.573C424.777 216.32 424.713 217.08 424.796 217.832C424.851 218.317 424.941 218.799 425.06 219.275C425.207 219.855 425.567 220.365 426.079 220.679C428.751 222.322 431.13 224.128 433.217 226.099C433.982 226.815 434.707 227.558 435.392 228.322L436.73 230.858L439.905 236.873V236.873Z" fill="white"/>
<path d="M492.38 262.121L491.582 269.808L490.578 279.461C490.488 280.338 489.761 281.012 488.88 281.037C482.687 281.206 480.446 277.453 481.283 270.651L469.186 269.234C466.409 268.909 463.883 267.424 462.307 265.115C462.231 265.003 462.156 264.889 462.083 264.775L479.321 256.635L479.905 256.773L490.33 259.236C491.641 259.544 492.52 260.78 492.38 262.121Z" fill="white"/>
<path d="M484.033 246.294C483.185 255.857 475.722 261.976 462.123 263.769C462.123 263.769 462.415 264.939 461.389 265.965L460.409 281.32C460.295 283.139 458.876 284.594 457.063 284.787C452.261 285.299 447.691 284.912 443.33 283.726C441.735 283.291 440.166 282.75 438.624 282.107C437.809 281.764 437.277 280.942 437.337 280.059C437.576 276.425 440.981 272.95 446.377 274.057L446.882 261.815C446.959 259.922 447.484 258.065 448.455 256.439C451.314 251.661 455.938 248.46 463.788 248.133L477.231 234.259L480.417 230.97L480.786 230.59C482.331 234.14 483.332 237.451 483.803 240.5C483.807 240.522 483.809 240.547 483.814 240.568V240.579C484.121 242.601 484.194 244.508 484.033 246.294V246.294Z" fill="white"/>
<g opacity="0.3">
<path d="M491.582 269.808L490.578 279.461C490.488 280.338 489.761 281.012 488.88 281.037C482.687 281.206 480.446 277.453 481.283 270.651L469.186 269.234C466.409 268.909 463.883 267.424 462.307 265.115C462.231 265.003 462.156 264.889 462.083 264.775L479.321 256.635L479.905 256.773C479.905 256.773 478.139 263.092 472.253 264.052L482.542 265.229C485.176 275.331 488.168 277.361 491.582 269.808Z" fill="#232323"/>
</g>
<path d="M485.216 254.422C484.695 254.422 484.173 254.342 483.667 254.18L481.889 253.611C481.485 253.482 481.262 253.048 481.392 252.644C481.521 252.24 481.953 252.016 482.358 252.146L484.136 252.715C484.974 252.983 485.876 252.931 486.677 252.567L493.206 249.601C492.818 236.75 490.045 224.344 484.96 212.717C484.388 211.408 483.342 210.356 482.016 209.757L480.082 208.884C479.695 208.709 479.523 208.253 479.698 207.866C479.873 207.479 480.328 207.308 480.715 207.482L482.649 208.356C484.323 209.112 485.644 210.443 486.369 212.101C491.6 224.064 494.423 236.839 494.758 250.071C494.765 250.379 494.588 250.662 494.307 250.79L487.313 253.968C486.647 254.27 485.932 254.423 485.216 254.423L485.216 254.422Z" fill="#232323"/>
<path d="M497.413 247.249C497.226 247.563 497.015 247.857 496.784 248.132C496.782 248.134 496.78 248.136 496.778 248.139C496.037 249.017 495.093 249.683 494.043 250.07C493.056 250.435 491.98 250.553 490.899 250.369C490.444 250.292 490.04 250.173 489.704 250.026C489.034 249.736 488.623 249.338 488.581 248.954C488.548 248.655 488.733 248.365 489.181 248.132C488.467 248.317 487.772 248.264 487.107 247.941C486.837 247.809 486.593 247.633 486.377 247.427C486.373 247.422 486.371 247.418 486.366 247.416C486.147 247.205 485.958 246.961 485.797 246.7C485.551 246.3 485.351 245.909 485.202 245.529C485.2 245.524 485.198 245.522 485.198 245.518H485.195C484.396 243.496 484.938 241.743 486.911 240.278C486.054 236.752 484.664 233.608 482.682 230.886L480.336 230.517L479.881 230.446C475.5 229.746 472.022 228.225 469.995 225.393L472.607 219.756L475.509 213.49L479.09 215.265L482.75 217.08C486.439 218.908 489.721 221.428 492.395 224.482C494.405 226.775 496.073 229.372 497.312 232.206C499.513 237.248 500.179 242.609 497.413 247.249Z" fill="white"/>
<path d="M477.97 215.371C477.821 215.371 477.67 215.32 477.546 215.216C477.268 214.982 477.232 214.566 477.467 214.288C480.306 210.914 484.582 210.39 484.763 210.37C485.124 210.328 485.451 210.588 485.492 210.95C485.534 211.311 485.275 211.637 484.914 211.68C484.875 211.684 480.969 212.174 478.475 215.137C478.345 215.292 478.158 215.371 477.97 215.371V215.371Z" fill="#232323"/>
<g opacity="0.3">
<path d="M479.09 215.265C478.319 215.953 477.515 216.603 476.68 217.212C475.393 218.157 474.033 219.007 472.607 219.756C468.072 222.137 462.894 223.489 457.395 223.489C451.279 223.489 445.56 221.819 440.685 218.917C438.114 217.388 435.779 215.516 433.742 213.367C437.943 215.793 442.75 217.311 447.884 217.651C448.609 217.697 449.341 217.722 450.079 217.722C454.231 217.722 458.201 216.95 461.848 215.547L475.509 213.49L479.09 215.265V215.265Z" fill="#232323"/>
</g>
<path d="M470.263 225.201C470.969 226.102 471.823 226.879 472.796 227.479C473.273 227.79 473.788 228.046 474.305 228.289C474.832 228.516 475.364 228.73 475.915 228.9C477.01 229.251 478.141 229.501 479.288 229.673C479.855 229.758 480.445 229.831 481.035 229.904L482.801 230.125H482.802C483.007 230.154 483.181 230.265 483.295 230.42L483.304 230.433C484.354 231.875 485.241 233.434 485.961 235.059C486.683 236.685 487.24 238.376 487.658 240.094V240.096C487.734 240.394 487.621 240.696 487.394 240.876L487.37 240.895C487.037 241.157 486.709 241.426 486.45 241.733C486.189 242.037 485.973 242.363 485.826 242.707C485.547 243.397 485.548 244.166 485.809 244.938C485.936 245.323 486.107 245.706 486.326 246.077C486.379 246.166 486.434 246.271 486.485 246.348C486.536 246.428 486.59 246.506 486.648 246.579C486.762 246.727 486.888 246.859 487.022 246.973C487.157 247.086 487.3 247.18 487.451 247.253C487.612 247.328 487.776 247.389 487.943 247.423C488.277 247.496 488.628 247.478 488.99 247.387C489.4 247.283 489.817 247.532 489.921 247.942C490.002 248.264 489.867 248.59 489.607 248.766L489.534 248.815C489.498 248.839 489.462 248.861 489.425 248.881C489.387 248.903 489.382 248.922 489.354 248.937C489.331 248.954 489.347 248.957 489.33 248.961C489.33 248.961 489.341 248.953 489.341 248.948C489.343 248.941 489.337 248.935 489.346 248.924C489.352 248.914 489.352 248.901 489.348 248.89C489.346 248.88 489.354 248.873 489.35 248.864C489.336 248.843 489.354 248.852 489.347 248.853C489.349 248.861 489.371 248.882 489.376 248.901C489.403 248.925 489.424 248.95 489.449 248.978C489.57 249.094 489.772 249.211 489.985 249.306C490.198 249.407 490.445 249.475 490.69 249.541C491.695 249.784 492.767 249.711 493.742 249.357C494.719 249.004 495.598 248.371 496.26 247.56L496.497 247.246C496.571 247.139 496.639 247.027 496.712 246.918C496.85 246.687 496.979 246.433 497.114 246.192C497.185 246.071 497.243 245.945 497.298 245.818L497.468 245.438C497.592 245.188 497.672 244.922 497.77 244.661C498.509 242.562 498.62 240.267 498.273 238.03C497.919 235.788 497.144 233.6 496.146 231.524C496.031 231.26 495.885 231.011 495.756 230.753C495.62 230.5 495.498 230.238 495.349 229.991C495.059 229.494 494.779 228.99 494.458 228.511C493.847 227.534 493.152 226.612 492.429 225.714C490.958 223.94 489.3 222.315 487.46 220.921C486.551 220.209 485.583 219.577 484.601 218.972C484.099 218.687 483.607 218.384 483.09 218.127L482.32 217.727L481.525 217.332L475.167 214.181C474.786 213.992 474.631 213.531 474.819 213.15C475.008 212.77 475.469 212.614 475.85 212.803L482.208 215.955L483.003 216.349L483.807 216.766C484.349 217.037 484.866 217.354 485.392 217.654C486.424 218.288 487.439 218.953 488.394 219.7C490.327 221.164 492.07 222.871 493.617 224.738C494.378 225.682 495.108 226.653 495.752 227.682C496.09 228.186 496.385 228.717 496.69 229.241C496.847 229.501 496.976 229.777 497.119 230.043C497.255 230.314 497.408 230.577 497.531 230.855C498.579 233.039 499.406 235.356 499.792 237.794C499.978 239.012 500.048 240.257 499.963 241.501C499.879 242.744 499.635 243.985 499.221 245.169C499.112 245.463 499.018 245.763 498.88 246.046L498.687 246.475C498.625 246.619 498.559 246.761 498.481 246.897C498.328 247.172 498.188 247.446 498.022 247.722C497.932 247.86 497.846 248 497.752 248.135L497.454 248.53C496.621 249.552 495.513 250.353 494.265 250.804C493.02 251.257 491.631 251.352 490.334 251.038C490.007 250.952 489.682 250.862 489.358 250.712C489.035 250.563 488.711 250.391 488.398 250.102C488.32 250.024 488.243 249.939 488.169 249.854C488.096 249.748 488.024 249.652 487.964 249.526C487.845 249.276 487.763 248.936 487.844 248.596C487.856 248.509 487.888 248.438 487.919 248.363C487.95 248.291 487.985 248.213 488.023 248.15C488.103 248.041 488.194 247.913 488.284 247.834C488.372 247.758 488.468 247.668 488.558 247.612C488.647 247.557 488.737 247.502 488.828 247.449L489.373 248.877C488.824 249.019 488.21 249.057 487.622 248.928C487.329 248.867 487.047 248.764 486.783 248.639C486.51 248.507 486.257 248.34 486.032 248.15C485.807 247.96 485.608 247.748 485.434 247.524C485.346 247.412 485.266 247.296 485.19 247.178C485.112 247.058 485.058 246.954 484.991 246.841C484.732 246.401 484.513 245.922 484.346 245.413C484.173 244.907 484.075 244.353 484.077 243.788C484.077 243.223 484.189 242.646 484.405 242.12C484.626 241.595 484.939 241.131 485.291 240.723C485.642 240.31 486.046 239.979 486.453 239.661L486.164 240.46V240.459C485.764 238.82 485.235 237.217 484.555 235.684C483.876 234.151 483.044 232.69 482.06 231.339L482.563 231.646H482.562L480.812 231.316C480.229 231.207 479.647 231.098 479.047 230.971C477.86 230.717 476.684 230.38 475.545 229.936C474.972 229.72 474.417 229.456 473.87 229.179C473.331 228.884 472.798 228.576 472.302 228.208C471.296 227.497 470.421 226.598 469.726 225.586C469.623 225.435 469.662 225.231 469.811 225.127C469.955 225.028 470.15 225.06 470.256 225.195L470.262 225.202L470.263 225.201Z" fill="#232323"/>
<path d="M488.769 247.482L488.884 247.424C488.912 247.41 488.944 247.4 488.968 247.38C489.025 247.349 489.074 247.308 489.126 247.267C489.224 247.179 489.307 247.068 489.368 246.941C489.49 246.687 489.52 246.372 489.415 246.085C489.363 245.943 489.279 245.805 489.159 245.667C489.043 245.537 488.91 245.423 488.753 245.338C488.442 245.161 488.04 245.093 487.626 245.098H487.623C487.492 245.1 487.384 244.994 487.382 244.863C487.381 244.748 487.462 244.65 487.57 244.628C488.022 244.531 488.526 244.496 489.031 244.652C489.282 244.727 489.523 244.855 489.737 245.012C489.944 245.166 490.146 245.368 490.303 245.612C490.617 246.098 490.716 246.723 490.586 247.307C490.522 247.6 490.401 247.885 490.227 248.141C490.137 248.266 490.04 248.388 489.927 248.497C489.874 248.556 489.812 248.603 489.751 248.654L489.594 248.78C489.261 249.048 488.774 248.994 488.507 248.661C488.239 248.328 488.293 247.841 488.626 247.574C488.668 247.54 488.712 247.511 488.758 247.488L488.769 247.482V247.482Z" fill="#232323"/>
<path d="M481.965 231.164L481.097 227.71C481.052 227.532 481.161 227.352 481.338 227.307C481.489 227.269 481.642 227.341 481.712 227.472L483.399 230.609C483.602 230.986 483.461 231.455 483.084 231.658C482.707 231.86 482.237 231.719 482.034 231.342C482.004 231.286 481.98 231.223 481.965 231.164H481.965Z" fill="#232323"/>
<path d="M480.487 230.541C476.391 233.193 470.726 234.442 464.105 234.833C463.445 234.873 462.941 235.439 462.98 236.099L463.172 239.393C463.209 240.043 463.761 240.544 464.413 240.523C471.98 240.27 478.28 238.762 482.542 235.234" fill="white"/>
<path d="M481.49 230.282C482.269 232.097 482.966 233.952 483.529 235.856C484.092 237.76 484.522 239.714 484.736 241.707C484.951 243.698 484.945 245.732 484.622 247.735C484.303 249.737 483.655 251.704 482.665 253.494C481.66 255.276 480.317 256.855 478.775 258.172C477.233 259.492 475.497 260.554 473.683 261.404C471.867 262.255 469.971 262.898 468.051 263.399C466.129 263.9 464.18 264.261 462.223 264.529L462.868 263.58L462.885 263.659L462.895 263.718C462.901 263.755 462.906 263.792 462.91 263.826C462.919 263.897 462.922 263.963 462.927 264.031C462.931 264.165 462.93 264.299 462.918 264.43C462.895 264.693 462.844 264.954 462.756 265.203C462.668 265.451 462.558 265.693 462.414 265.909C462.276 266.131 462.108 266.325 461.933 266.508L462.157 266.013L461.291 279.587L461.183 281.283C461.18 281.348 461.171 281.435 461.161 281.521L461.133 281.775C461.097 281.942 461.074 282.113 461.022 282.276C460.935 282.608 460.798 282.925 460.639 283.227C460.308 283.826 459.843 284.35 459.285 284.743C458.726 285.133 458.081 285.408 457.407 285.512L457.155 285.549L456.938 285.57L456.506 285.609C456.218 285.633 455.931 285.666 455.642 285.68L454.777 285.731C454.488 285.747 454.199 285.749 453.911 285.759C453.333 285.784 452.754 285.767 452.176 285.767C451.598 285.744 451.019 285.735 450.442 285.687C449.287 285.617 448.137 285.48 446.994 285.296C445.85 285.12 444.718 284.871 443.597 284.585C442.474 284.304 441.372 283.95 440.282 283.566L439.468 283.268L438.663 282.947L438.461 282.867C438.392 282.838 438.336 282.819 438.239 282.772C438.062 282.695 437.897 282.592 437.74 282.481C437.43 282.25 437.16 281.964 436.964 281.63C436.765 281.298 436.634 280.923 436.586 280.534C436.57 280.437 436.57 280.339 436.563 280.241C436.565 280.148 436.564 280.033 436.574 279.959L436.631 279.485L436.66 279.249L436.712 279.017L436.82 278.554C436.86 278.401 436.919 278.253 436.968 278.103C437.024 277.955 437.062 277.8 437.136 277.659C437.636 276.497 438.432 275.465 439.431 274.688C440.435 273.916 441.636 273.425 442.862 273.215C444.091 273.003 445.338 273.067 446.527 273.301L446.532 273.302L445.609 274.024L445.981 264.989L446.074 262.731L446.123 261.59C446.144 261.19 446.183 260.79 446.243 260.393C446.477 258.809 447.016 257.243 447.871 255.879C448.694 254.545 449.696 253.307 450.868 252.249C452.034 251.186 453.358 250.301 454.772 249.629C456.189 248.96 457.688 248.508 459.202 248.218C460.718 247.933 462.251 247.811 463.775 247.802C463.957 247.8 464.105 247.947 464.106 248.129C464.107 248.301 463.976 248.443 463.808 248.459H463.802C462.316 248.598 460.845 248.818 459.418 249.185C457.99 249.545 456.61 250.059 455.335 250.748C454.055 251.428 452.885 252.289 451.866 253.302C450.849 254.317 449.975 255.469 449.227 256.706C448.485 257.9 447.989 259.232 447.773 260.626C447.716 260.974 447.681 261.324 447.659 261.676C447.638 262.029 447.627 262.423 447.61 262.794L447.517 265.052L447.145 274.087C447.127 274.511 446.77 274.84 446.346 274.823C446.317 274.821 446.289 274.819 446.262 274.815L446.222 274.808H446.218C445.183 274.605 444.131 274.557 443.124 274.731C442.119 274.903 441.164 275.297 440.368 275.908C439.577 276.524 438.948 277.342 438.551 278.26C438.49 278.371 438.464 278.495 438.419 278.611C438.381 278.73 438.332 278.846 438.301 278.967L438.217 279.332L438.175 279.514L438.153 279.7L438.107 280.071C438.097 280.18 438.099 280.252 438.111 280.344C438.131 280.517 438.19 280.688 438.284 280.842C438.373 280.998 438.502 281.13 438.645 281.239C438.72 281.29 438.795 281.34 438.879 281.375C438.909 281.391 438.986 281.42 439.048 281.446L439.241 281.523L440.016 281.832L440.798 282.118C441.846 282.486 442.904 282.827 443.981 283.096C445.056 283.37 446.141 283.609 447.237 283.778C448.332 283.954 449.436 284.085 450.544 284.153C451.097 284.198 451.652 284.207 452.206 284.229C452.761 284.228 453.317 284.245 453.871 284.221C454.149 284.212 454.426 284.209 454.704 284.194L455.536 284.145C455.814 284.132 456.09 284.1 456.367 284.077L456.782 284.039L456.988 284.02L457.156 283.994C457.604 283.928 458.027 283.743 458.397 283.487C458.765 283.228 459.071 282.881 459.289 282.49C459.392 282.29 459.483 282.084 459.539 281.867C459.576 281.761 459.586 281.648 459.613 281.539L459.631 281.371C459.637 281.316 459.644 281.262 459.648 281.185L459.756 279.489L460.622 265.915C460.634 265.732 460.708 265.569 460.824 265.444L460.846 265.42C460.947 265.311 461.045 265.202 461.118 265.081C461.198 264.963 461.253 264.836 461.3 264.706C461.347 264.577 461.373 264.44 461.385 264.303C461.391 264.235 461.392 264.167 461.39 264.1C461.387 264.068 461.386 264.035 461.382 264.006C461.381 263.99 461.379 263.977 461.377 263.965L461.374 263.949C461.374 263.946 461.371 263.937 461.376 263.954L462.021 263.005C465.819 262.481 469.593 261.616 473.03 260.013C474.742 259.211 476.358 258.217 477.777 257.003C479.194 255.791 480.411 254.358 481.322 252.744C482.218 251.122 482.808 249.337 483.103 247.494C483.401 245.65 483.41 243.752 483.207 241.871C482.795 238.1 481.587 234.421 480.08 230.896L480.077 230.888C479.91 230.497 480.091 230.046 480.481 229.879C480.872 229.712 481.323 229.892 481.49 230.282L481.49 230.282Z" fill="#232323"/>
<path d="M463.408 245.944L458.632 246.188C458.627 246.19 458.621 246.19 458.616 246.19C458.606 246.19 458.592 246.193 458.579 246.193L452.553 246.5L442.682 247.006H442.649C441.416 247.052 440.377 246.1 440.314 244.868L439.703 232.936C439.639 231.693 440.597 230.632 441.84 230.568L458.766 229.702H458.768L462.567 229.509C463.812 229.445 464.871 230.403 464.935 231.647L465.546 243.578C465.609 244.822 464.652 245.883 463.408 245.944V245.944Z" fill="white"/>
<path d="M442.565 247.778C440.967 247.778 439.628 246.521 439.545 244.907L438.935 232.975C438.893 232.169 439.169 231.394 439.71 230.794C440.252 230.194 440.994 229.841 441.801 229.8L462.527 228.741C464.194 228.649 465.617 229.942 465.703 231.607L465.863 234.729C465.885 235.153 465.559 235.514 465.134 235.536C464.703 235.556 464.348 235.232 464.327 234.807L464.167 231.685C464.125 230.866 463.425 230.237 462.605 230.276L441.88 231.335C441.061 231.377 440.429 232.077 440.47 232.896L441.081 244.828C441.123 245.647 441.828 246.279 442.642 246.237L463.369 245.176C463.765 245.156 464.13 244.983 464.396 244.689C464.662 244.394 464.798 244.013 464.778 243.617L464.62 240.523C464.598 240.099 464.924 239.738 465.348 239.716C465.766 239.686 466.134 240.02 466.155 240.445L466.313 243.538C466.355 244.345 466.079 245.12 465.537 245.72C464.995 246.319 464.252 246.672 463.446 246.711L442.721 247.772C442.669 247.775 442.616 247.776 442.565 247.776V247.778Z" fill="#232323"/>
<path d="M442.648 247.663C442.3 247.663 442.009 247.39 441.991 247.038C441.972 246.674 442.252 246.365 442.615 246.346L458.545 245.533C458.545 245.533 458.55 245.533 458.552 245.533C458.562 245.532 458.571 245.532 458.58 245.532C459.449 245.468 460.118 244.711 460.074 243.84L459.454 231.697C459.424 231.088 459.057 230.554 458.496 230.303C458.164 230.155 458.015 229.765 458.164 229.433C458.313 229.1 458.702 228.952 459.035 229.1C460.051 229.555 460.716 230.525 460.77 231.631L461.39 243.773C461.472 245.361 460.247 246.741 458.66 246.848C458.656 246.848 458.651 246.848 458.647 246.849C458.632 246.85 458.618 246.851 458.604 246.851L442.682 247.663C442.671 247.664 442.659 247.664 442.648 247.664L442.648 247.663Z" fill="#232323"/>
<g opacity="0.3">
<path d="M442.649 247.005L452.553 246.5L442.682 247.005H442.649Z" fill="#232323"/>
</g>
<g opacity="0.3">
<path d="M463.408 245.944L458.632 246.188C459.862 246.098 460.796 245.041 460.732 243.807L460.113 231.664C460.069 230.781 459.522 230.043 458.768 229.702L462.567 229.509C463.812 229.445 464.871 230.403 464.935 231.647L465.095 234.768C464.768 234.793 464.438 234.815 464.104 234.834C463.445 234.874 462.94 235.441 462.98 236.1L463.171 239.393C463.21 240.043 463.762 240.546 464.412 240.524C464.739 240.513 465.065 240.5 465.388 240.485L465.546 243.578C465.609 244.822 464.652 245.883 463.408 245.944V245.944Z" fill="#232323"/>
</g>
<path d="M451.04 247.235C450.694 247.235 450.403 246.964 450.383 246.614L449.982 239.639C449.974 239.492 449.893 239.359 449.765 239.285L447.324 237.851C446.811 237.55 446.488 237.016 446.458 236.423L446.153 230.345C446.135 229.981 446.415 229.672 446.779 229.654C447.147 229.631 447.452 229.915 447.47 230.279L447.774 236.357C447.782 236.505 447.863 236.639 447.991 236.714L450.433 238.148C450.941 238.446 451.264 238.975 451.297 239.563L451.699 246.538C451.719 246.902 451.442 247.213 451.078 247.234C451.065 247.234 451.053 247.235 451.04 247.235L451.04 247.235Z" fill="#232323"/>
<path d="M455.31 240.481C456.43 240.393 457.24 239.066 457.118 237.518C456.997 235.97 455.99 234.786 454.869 234.874C453.749 234.962 452.939 236.288 453.061 237.837C453.182 239.385 454.189 240.569 455.31 240.481Z" fill="#22A7F0"/>
<g opacity="0.6">
<path d="M453.935 238.721C453.814 237.172 454.624 235.846 455.744 235.758C456.054 235.734 456.354 235.81 456.63 235.961C456.206 235.257 455.558 234.825 454.865 234.88C453.745 234.967 452.935 236.294 453.056 237.842C453.144 238.962 453.697 239.889 454.419 240.284C454.158 239.85 453.981 239.312 453.935 238.721Z" fill="white"/>
</g>
<path d="M455.192 241.149C454.5 241.149 453.82 240.811 453.305 240.204C452.791 239.6 452.469 238.779 452.399 237.893C452.33 237.007 452.519 236.146 452.933 235.469C453.381 234.735 454.067 234.28 454.814 234.222C456.325 234.104 457.619 235.531 457.772 237.471C457.924 239.412 456.863 241.024 455.357 241.142C455.302 241.147 455.247 241.149 455.192 241.149ZM454.983 235.533C454.961 235.533 454.939 235.534 454.917 235.536C454.477 235.57 454.19 235.939 454.058 236.156C453.792 236.592 453.666 237.187 453.714 237.79C453.761 238.393 453.978 238.961 454.309 239.35C454.473 239.544 454.812 239.869 455.254 239.828C455.998 239.77 456.549 238.738 456.457 237.575C456.369 236.446 455.702 235.534 454.984 235.534L454.983 235.533Z" fill="#232323"/>
<path d="M464.369 241.294C463.322 241.294 462.465 240.492 462.404 239.439L462.212 236.145C462.149 235.063 462.977 234.131 464.059 234.067C471.146 233.648 476.383 232.283 480.069 229.897C480.426 229.666 480.902 229.768 481.133 230.125C481.363 230.481 481.262 230.957 480.905 231.188C476.99 233.723 471.509 235.167 464.15 235.603C463.914 235.617 463.733 235.82 463.747 236.056L463.939 239.35C463.952 239.577 464.145 239.756 464.372 239.756C464.377 239.756 464.381 239.756 464.387 239.756C472.442 239.488 478.22 237.815 482.052 234.644C482.378 234.373 482.863 234.418 483.134 234.746C483.405 235.073 483.359 235.558 483.032 235.828C478.929 239.225 472.846 241.013 464.438 241.293C464.415 241.294 464.392 241.294 464.369 241.294V241.294Z" fill="#232323"/>
<path d="M443.287 223.65C443.189 223.883 443.094 224.174 443.022 224.45C442.944 224.729 442.884 225.015 442.826 225.3C442.717 225.874 442.648 226.457 442.601 227.041C442.551 227.625 442.542 228.214 442.54 228.8C442.541 229.093 442.554 229.387 442.559 229.68L442.609 230.56L442.611 230.582C442.635 231.008 442.31 231.372 441.885 231.396C441.46 231.42 441.096 231.096 441.071 230.67C441.069 230.64 441.07 230.606 441.071 230.577L441.131 229.65C441.162 229.341 441.187 229.032 441.223 228.725C441.3 228.109 441.385 227.496 441.513 226.888C441.637 226.279 441.784 225.676 441.974 225.082C442.072 224.786 442.173 224.491 442.293 224.201C442.413 223.906 442.534 223.633 442.71 223.33C442.802 223.172 443.003 223.119 443.16 223.211C443.305 223.295 443.362 223.473 443.297 223.623L443.286 223.65H443.287Z" fill="#232323"/>
<path d="M449.862 255.175C449.727 255.175 449.59 255.14 449.467 255.066C444.942 252.349 443.809 247.286 443.763 247.072C443.674 246.656 443.938 246.248 444.353 246.158C444.767 246.068 445.177 246.333 445.266 246.747C445.276 246.793 446.318 251.381 450.258 253.747C450.622 253.966 450.74 254.438 450.521 254.802C450.377 255.042 450.123 255.175 449.862 255.175V255.175Z" fill="#232323"/>
<path d="M433.195 226.823C433.005 226.823 432.815 226.753 432.666 226.612C432.358 226.32 432.345 225.834 432.636 225.525C435.801 222.183 438.295 219.82 440.487 218.089C440.821 217.826 441.304 217.883 441.567 218.216C441.83 218.549 441.774 219.033 441.44 219.296C439.308 220.98 436.866 223.295 433.753 226.582C433.602 226.742 433.398 226.823 433.195 226.823Z" fill="#232323"/>
<path d="M435.147 228.543C434.345 227.909 433.578 227.261 432.799 226.629C432.021 225.997 431.241 225.375 430.457 224.757C429.673 224.142 428.894 223.516 428.082 222.932C427.676 222.641 427.264 222.355 426.847 222.079C426.637 221.944 426.428 221.804 426.216 221.672L425.897 221.473C425.784 221.401 425.706 221.355 425.545 221.249C424.98 220.86 424.563 220.28 424.364 219.636C424.309 219.461 424.289 219.342 424.259 219.207L424.172 218.81C424.114 218.542 424.076 218.257 424.049 217.98C423.997 217.424 424 216.869 424.043 216.324C424.065 216.052 424.096 215.782 424.136 215.514L424.151 215.414L424.16 215.337C424.165 215.287 424.174 215.237 424.177 215.188C424.182 215.09 424.188 214.993 424.182 214.899C424.169 214.522 424.049 214.182 423.865 213.988C423.679 213.791 423.484 213.736 423.24 213.795C422.991 213.853 422.703 214.088 422.468 214.405C422.235 214.732 422.043 215.129 421.898 215.557L421.897 215.56C421.761 215.962 421.324 216.178 420.922 216.041C420.52 215.905 420.304 215.468 420.441 215.066V215.065C420.623 214.53 420.868 213.997 421.228 213.495C421.415 213.247 421.63 213.006 421.895 212.795C422.16 212.585 422.479 212.404 422.849 212.307C423.217 212.209 423.635 212.206 424.02 212.323C424.407 212.437 424.744 212.67 424.996 212.945C425.507 213.506 425.692 214.203 425.719 214.835C425.727 214.996 425.72 215.152 425.71 215.308C425.705 215.386 425.693 215.461 425.684 215.538L425.67 215.651L425.657 215.739C425.622 215.975 425.595 216.21 425.576 216.445C425.539 216.914 425.538 217.38 425.58 217.836C425.603 218.066 425.632 218.286 425.681 218.516L425.757 218.863C425.782 218.977 425.808 219.108 425.831 219.176C425.933 219.504 426.144 219.792 426.418 219.981L427.038 220.372C427.257 220.508 427.472 220.651 427.689 220.791C428.123 221.073 428.554 221.358 428.979 221.652C429.833 222.236 430.679 222.836 431.474 223.502C432.27 224.166 433.023 224.884 433.724 225.649C434.423 226.415 435.079 227.223 435.636 228.102C435.735 228.258 435.689 228.465 435.533 228.564C435.41 228.641 435.255 228.629 435.147 228.544L435.146 228.543L435.147 228.543Z" fill="#232323"/>
<path d="M425.814 219.12L426.234 223.256C426.252 223.437 426.12 223.6 425.938 223.619C425.78 223.635 425.636 223.537 425.589 223.391L424.309 219.437C424.178 219.031 424.4 218.595 424.806 218.464C425.213 218.332 425.649 218.555 425.78 218.961C425.797 219.013 425.808 219.069 425.814 219.121L425.814 219.12Z" fill="#232323"/>
<path d="M422.736 209.245H404.823C403.944 209.245 403.205 208.587 403.104 207.714L402.622 203.563C402.566 203.073 402.721 202.581 403.049 202.212C403.377 201.844 403.848 201.633 404.341 201.633H423.218C423.711 201.633 424.182 201.844 424.51 202.212C424.838 202.581 424.994 203.073 424.937 203.563L424.455 207.714C424.354 208.587 423.615 209.245 422.736 209.245ZM404.341 203.171C404.27 203.171 404.223 203.206 404.197 203.235C404.171 203.264 404.142 203.314 404.15 203.385L404.632 207.537C404.643 207.634 404.725 207.707 404.823 207.707H422.737C422.834 207.707 422.917 207.634 422.928 207.537L423.41 203.385C423.418 203.314 423.389 203.264 423.363 203.235C423.336 203.205 423.29 203.171 423.219 203.171H404.341V203.171Z" fill="#232323"/>
<path d="M406.554 218.958C406.178 218.958 405.849 218.682 405.794 218.299L404.386 208.586C404.324 208.166 404.616 207.776 405.036 207.715C405.456 207.654 405.847 207.945 405.908 208.366L407.316 218.079C407.377 218.499 407.086 218.889 406.665 218.95C406.628 218.955 406.591 218.958 406.554 218.958Z" fill="#232323"/>
<path d="M418.634 220.781H409.541C409.116 220.781 408.772 220.436 408.772 220.012C408.772 219.587 409.116 219.243 409.541 219.243H418.634C419.312 219.243 419.897 218.736 419.995 218.064L421.34 208.581C421.399 208.16 421.789 207.869 422.209 207.927C422.63 207.987 422.922 208.376 422.863 208.797L421.518 218.283C421.31 219.708 420.071 220.781 418.634 220.781H418.634Z" fill="#232323"/>
<path d="M434.006 239.645C432.794 239.645 431.587 239.348 430.499 238.761C425.62 236.133 420.945 232.041 416.604 226.596C416.53 226.504 416.426 226.448 416.32 226.445C412.906 226.335 409.903 225.341 407.393 223.489C406.244 222.641 405.433 221.46 405.111 220.163C404.584 218.048 405.721 217.391 406.081 217.24C407.25 216.751 408.801 217.569 409.958 219.242H411.262C411.686 219.242 412.031 219.586 412.031 220.011C412.031 220.435 411.686 220.78 411.262 220.78H409.541C409.273 220.78 409.024 220.64 408.885 220.412C407.974 218.923 406.98 218.53 406.675 218.659C406.551 218.711 406.421 219.064 406.602 219.792C406.839 220.743 407.443 221.616 408.305 222.252C410.559 223.915 413.272 224.809 416.369 224.908C416.926 224.926 417.45 225.192 417.806 225.638C422.016 230.919 426.532 234.879 431.227 237.408C432.695 238.199 434.439 238.326 436.011 237.755C437.417 237.244 438.568 236.736 439.529 236.201C439.9 235.995 440.368 236.127 440.575 236.498C440.781 236.869 440.648 237.337 440.277 237.544C439.244 238.12 438.02 238.661 436.536 239.2C435.716 239.497 434.859 239.645 434.005 239.645H434.006Z" fill="#232323"/>
<path d="M410.037 219.422L411.145 220.93C411.255 221.081 411.223 221.293 411.072 221.404C410.966 221.482 410.83 221.489 410.72 221.435L409.045 220.599C408.654 220.404 408.496 219.929 408.691 219.538C408.886 219.147 409.361 218.988 409.752 219.183C409.867 219.241 409.964 219.325 410.036 219.423L410.037 219.422Z" fill="#232323"/>
<path d="M416.166 224.93L419.278 224.634C419.461 224.617 419.623 224.751 419.64 224.934C419.655 225.085 419.566 225.222 419.431 225.275L416.525 226.425C416.126 226.583 415.674 226.388 415.517 225.989C415.359 225.59 415.555 225.139 415.953 224.981C416.022 224.954 416.095 224.937 416.165 224.93L416.166 224.93Z" fill="#232323"/>
<path d="M423.916 233.875C423.552 233.875 423.258 233.581 423.257 233.217C423.256 232.853 423.55 232.558 423.914 232.557C426.989 232.55 430.852 228.53 431.296 224.875C431.34 224.513 431.671 224.256 432.03 224.3C432.391 224.344 432.648 224.672 432.605 225.034C432.074 229.405 427.689 233.867 423.918 233.875H423.916H423.916Z" fill="#232323"/>
<path d="M452.491 282.794C446.755 282.794 440.706 281.347 437.195 279.687C436.866 279.531 436.725 279.138 436.881 278.809C437.036 278.48 437.429 278.339 437.758 278.495C442.855 280.905 453.489 282.859 460.201 280.26C460.54 280.129 460.922 280.297 461.053 280.636C461.185 280.975 461.016 281.357 460.677 281.489C458.286 282.414 455.43 282.794 452.492 282.794L452.491 282.794Z" fill="#232323"/>
<path d="M446.499 273.298C446.731 273.357 446.906 273.419 447.1 273.488C447.29 273.556 447.475 273.63 447.658 273.708C448.023 273.864 448.377 274.042 448.72 274.239C449.063 274.434 449.392 274.654 449.705 274.893C450.022 275.126 450.309 275.399 450.585 275.675C450.714 275.804 450.713 276.014 450.584 276.142C450.471 276.255 450.296 276.268 450.168 276.183L450.152 276.172C449.856 275.975 449.559 275.786 449.239 275.637C448.923 275.482 448.597 275.348 448.263 275.238C447.93 275.126 447.593 275.033 447.251 274.961C447.08 274.926 446.91 274.894 446.74 274.869C446.575 274.844 446.388 274.821 446.255 274.815C445.827 274.798 445.495 274.437 445.512 274.01C445.53 273.583 445.89 273.251 446.317 273.268C446.372 273.27 446.425 273.278 446.476 273.291L446.499 273.297V273.298Z" fill="#232323"/>
<path d="M461.389 266.624C461.275 266.624 461.159 266.594 461.054 266.532C457.213 264.256 449.78 262.965 447.15 264.714C446.846 264.916 446.437 264.833 446.236 264.53C446.034 264.227 446.117 263.818 446.419 263.616C449.782 261.381 457.896 263.128 461.725 265.398C462.038 265.583 462.142 265.988 461.956 266.301C461.833 266.509 461.614 266.624 461.389 266.624H461.389Z" fill="#232323"/>
<path d="M461.571 264.304L459.817 261.873C459.71 261.724 459.744 261.516 459.892 261.409C460.014 261.321 460.176 261.327 460.29 261.414L462.673 263.231C463.015 263.491 463.081 263.979 462.82 264.32C462.56 264.662 462.072 264.728 461.731 264.467C461.669 264.421 461.615 264.363 461.572 264.304H461.571Z" fill="#232323"/>
<path d="M488.489 281.81C485.768 281.81 483.695 281.046 482.322 279.536C480.731 277.786 480.098 275.027 480.436 271.326L469.097 269.997C466.066 269.641 463.36 268.02 461.673 265.548C461.591 265.428 461.512 265.308 461.434 265.185C461.206 264.827 461.312 264.352 461.67 264.124C462.029 263.896 462.504 264.001 462.732 264.36C462.8 264.468 462.871 264.575 462.943 264.681C464.379 266.785 466.687 268.165 469.276 268.469L481.371 269.887C481.574 269.91 481.76 270.014 481.886 270.175C482.012 270.336 482.07 270.541 482.045 270.744C481.599 274.369 482.075 276.978 483.46 278.501C484.586 279.74 486.399 280.335 488.858 280.267C489.352 280.254 489.762 279.873 489.813 279.381L491.615 262.039C491.714 261.087 491.086 260.202 490.154 259.982L479.145 257.382C478.731 257.285 478.475 256.87 478.573 256.457C478.67 256.044 479.084 255.789 479.498 255.886L490.507 258.486C492.189 258.883 493.323 260.479 493.145 262.198L491.343 279.54C491.212 280.797 490.162 281.77 488.9 281.805C488.762 281.808 488.624 281.81 488.488 281.81L488.489 281.81Z" fill="#232323"/>
<path d="M472.169 270.242C471.898 270.242 471.645 270.075 471.548 269.806C470.531 266.976 472.284 260.945 472.359 260.69C472.462 260.341 472.828 260.141 473.177 260.244C473.526 260.346 473.726 260.712 473.624 261.062C473.146 262.687 472.065 267.346 472.789 269.36C472.912 269.702 472.734 270.08 472.392 270.203C472.319 270.229 472.243 270.242 472.169 270.242L472.169 270.242Z" fill="#232323"/>
<path d="M480.53 270.488L481.603 267.617C481.667 267.445 481.859 267.357 482.031 267.421C482.173 267.474 482.257 267.613 482.247 267.757L482.033 270.814C482.003 271.242 481.632 271.565 481.203 271.535C480.775 271.505 480.453 271.133 480.483 270.705C480.488 270.63 480.505 270.555 480.53 270.488L480.53 270.488Z" fill="#232323"/>
<path d="M487.729 281.685C487.707 281.685 487.685 281.684 487.663 281.682C487.301 281.646 487.036 281.323 487.073 280.96L489.266 259.148C489.302 258.785 489.628 258.523 489.987 258.558C490.35 258.594 490.614 258.917 490.578 259.28L488.385 281.092C488.35 281.432 488.064 281.685 487.729 281.685V281.685Z" fill="#232323"/>
<path d="M485.538 254.298C485.201 254.298 484.913 254.04 484.883 253.698C484.874 253.605 484.028 244.314 482.661 238.112C482.583 237.757 482.807 237.405 483.163 237.326C483.519 237.247 483.87 237.473 483.948 237.828C485.333 244.113 486.187 253.485 486.195 253.579C486.228 253.942 485.96 254.262 485.598 254.295C485.578 254.297 485.558 254.298 485.538 254.298V254.298Z" fill="#232323"/>
<path d="M484.116 233.767C483.988 233.767 483.86 233.73 483.746 233.653C483.445 233.449 483.367 233.04 483.571 232.738C483.619 232.667 488.479 225.647 495.586 227.904C495.933 228.014 496.125 228.385 496.015 228.732C495.905 229.079 495.534 229.27 495.187 229.161C489.024 227.202 484.837 233.222 484.662 233.479C484.534 233.666 484.327 233.767 484.116 233.767V233.767Z" fill="#232323"/>
<g opacity="0.3">
<path d="M497.413 247.25C497.226 247.564 497.015 247.858 496.784 248.133C496.782 248.135 496.78 248.137 496.778 248.139C495.769 249.06 494.86 249.679 494.043 250.071C492.079 251.015 490.651 250.651 489.704 250.027C489.194 249.69 488.823 249.28 488.581 248.954C488.344 248.64 488.229 248.407 488.229 248.407C487.537 248.405 486.927 248.052 486.377 247.428C486.373 247.423 486.371 247.419 486.366 247.417C485.945 246.933 485.56 246.292 485.202 245.529C485.2 245.525 485.198 245.523 485.195 245.518H485.198C487.331 246.58 488.726 246.45 489.627 245.518C496.94 243.299 498.333 236.64 492.395 224.482C494.405 226.776 496.073 229.373 497.312 232.207C499.513 237.249 500.179 242.61 497.413 247.25V247.25Z" fill="#232323"/>
</g>
<g opacity="0.3">
<path d="M462.123 263.767C462.123 263.767 462.415 264.938 461.389 265.964L460.409 281.319C460.295 283.138 458.876 284.592 457.063 284.786C452.261 285.298 447.691 284.911 443.33 283.725C443.339 283.727 443.35 283.729 443.359 283.731C454.073 286.045 455.659 276.747 455.659 276.747C455.659 276.747 457.197 266.421 456.797 263.767C456.398 261.111 457.692 259.94 457.692 259.94C458.781 259.784 459.282 259.231 458.48 257.798C475.074 258.506 481.331 244.638 477.231 234.258C476.241 231.747 474.643 229.437 472.438 227.59C475.004 229.303 477.673 230.305 480.399 230.916L480.417 230.969L483.803 240.499L483.811 240.523C483.811 240.523 483.811 240.539 483.814 240.567V240.578C483.831 240.978 483.939 243.505 484.033 246.293C483.185 255.856 475.722 261.975 462.123 263.767V263.767Z" fill="#232323"/>
</g>
<g opacity="0.3">
<path d="M442.15 226.362L441.838 228.372C441.838 228.372 441.803 229.3 441.753 230.574C440.553 230.681 439.641 231.721 439.703 232.936L439.905 236.895L439.314 237.185L438.877 237.4L438.875 237.398C438.055 237.791 437.183 238.149 436.275 238.476C434.494 239.122 432.532 238.984 430.864 238.085C425.921 235.423 421.389 231.363 417.206 226.118C416.995 225.853 416.683 225.688 416.345 225.677C413.053 225.571 410.228 224.624 407.849 222.871C406.985 222.232 406.311 221.362 405.968 220.354C406.085 220.448 406.206 220.549 406.335 220.661C410.507 224.28 416.334 222.427 418.64 222.647C420.947 222.867 420.398 224.515 420.398 224.515L433.602 231.745C434.351 232.153 435.276 232.066 435.933 231.521L436.73 230.857L442.15 226.362V226.362Z" fill="#232323"/>
</g>
<g opacity="0.2">
<path d="M454.506 300.107C472.595 300.107 487.259 298.189 487.259 295.823C487.259 293.457 472.595 291.539 454.506 291.539C436.417 291.539 421.753 293.457 421.753 295.823C421.753 298.189 436.417 300.107 454.506 300.107Z" fill="#232323"/>
</g>
<path d="M426.701 205.403C429.542 210.05 433.575 214.007 438.574 216.788C439.594 217.354 440.65 217.872 441.745 218.337C442.277 218.564 442.822 218.777 443.375 218.981C445.044 219.588 446.732 220.052 448.427 220.379C449.886 220.665 451.352 220.846 452.81 220.932C454.571 221.037 456.324 220.997 458.055 220.825C458.685 220.76 459.313 220.679 459.936 220.581C471.349 218.775 481.504 211.109 485.846 199.65C492.245 182.771 483.602 164.06 466.547 157.856C463.261 156.664 459.901 156.016 456.574 155.881C456.185 155.861 455.794 155.853 455.404 155.853C454.359 155.845 453.32 155.886 452.289 155.976C449.905 156.184 447.56 156.65 445.3 157.351C443.039 158.05 440.857 158.988 438.799 160.143C438.145 160.51 437.502 160.898 436.872 161.309C435.928 161.927 435.014 162.59 434.134 163.305C429.74 166.855 426.207 171.563 424.076 177.187C420.394 186.897 421.692 197.211 426.701 205.403V205.403Z" fill="white"/>
<path d="M454.746 221.075C454.096 221.075 453.448 221.056 452.805 221.018C451.322 220.93 449.843 220.744 448.41 220.464C446.7 220.134 444.996 219.662 443.346 219.062C442.742 218.839 442.207 218.628 441.711 218.416C440.636 217.96 439.566 217.437 438.533 216.863C433.65 214.147 429.533 210.2 426.628 205.448C421.388 196.878 420.429 186.566 423.996 177.157C426.058 171.715 429.545 166.902 434.08 163.239C434.938 162.542 435.862 161.869 436.826 161.238C437.445 160.833 438.095 160.439 438.758 160.068C440.82 158.91 443.013 157.969 445.275 157.269C447.557 156.561 449.915 156.097 452.282 155.89C453.312 155.8 454.363 155.761 455.405 155.766C455.823 155.766 456.207 155.776 456.579 155.795C459.973 155.933 463.337 156.6 466.577 157.775C474.88 160.796 481.462 166.841 485.108 174.798C488.726 182.691 489.017 191.527 485.926 199.68C481.731 210.752 471.778 218.793 459.95 220.665C459.325 220.763 458.69 220.845 458.064 220.91C456.96 221.02 455.851 221.075 454.747 221.075L454.746 221.075ZM426.774 205.359C429.664 210.085 433.759 214.011 438.616 216.714C439.643 217.285 440.708 217.804 441.778 218.258C442.272 218.469 442.804 218.679 443.404 218.901C445.046 219.498 446.741 219.967 448.442 220.296C449.868 220.574 451.339 220.76 452.814 220.847C454.542 220.949 456.302 220.914 458.045 220.74C458.669 220.676 459.301 220.594 459.922 220.497C471.689 218.634 481.592 210.635 485.765 199.619C488.839 191.51 488.55 182.721 484.952 174.869C481.324 166.954 474.777 160.941 466.517 157.936C463.294 156.766 459.947 156.103 456.569 155.966C456.2 155.947 455.818 155.938 455.403 155.937C454.361 155.929 453.32 155.971 452.296 156.06C449.941 156.266 447.595 156.728 445.324 157.433C443.073 158.129 440.892 159.065 438.84 160.217C438.181 160.586 437.534 160.978 436.917 161.381C435.959 162.009 435.04 162.678 434.186 163.372C429.675 167.016 426.206 171.803 424.155 177.218C420.606 186.577 421.56 196.834 426.773 205.359H426.774Z" fill="#232323"/>
<g opacity="0.3">
<path d="M485.846 199.649C481.505 211.11 471.348 218.776 459.936 220.581C459.312 220.679 458.685 220.76 458.055 220.825C456.324 220.998 454.571 221.036 452.81 220.933C451.352 220.846 449.886 220.665 448.427 220.38C446.732 220.054 445.045 219.59 443.374 218.983C442.822 218.777 442.278 218.565 441.745 218.339C440.65 217.874 439.595 217.354 438.574 216.788C433.575 214.007 429.541 210.051 426.701 205.403C425.139 202.851 423.938 200.091 423.136 197.208C425.95 201.581 429.841 205.303 434.61 207.956C435.629 208.525 436.685 209.042 437.78 209.507C438.311 209.734 438.856 209.946 439.41 210.151C441.081 210.758 442.767 211.222 444.461 211.549C445.922 211.834 447.386 212.015 448.844 212.102C450.605 212.205 452.36 212.166 454.089 211.994C454.72 211.929 455.347 211.847 455.971 211.749C467.383 209.944 477.539 202.279 481.881 190.817C484.416 184.132 484.589 177.16 482.816 170.793C488.159 179.085 489.624 189.687 485.846 199.649V199.649Z" fill="#232323"/>
</g>
<path d="M454.746 221.647C454.085 221.647 453.426 221.628 452.771 221.589C451.262 221.5 449.758 221.31 448.3 221.025C446.562 220.69 444.828 220.21 443.15 219.599C442.534 219.372 441.991 219.157 441.486 218.941C440.393 218.478 439.306 217.947 438.255 217.363C433.285 214.598 429.096 210.581 426.14 205.746C420.806 197.023 419.83 186.528 423.461 176.952C425.558 171.415 429.106 166.519 433.72 162.792C434.592 162.083 435.532 161.399 436.512 160.757C437.143 160.345 437.804 159.944 438.478 159.567C440.575 158.39 442.806 157.432 445.106 156.721C447.427 156 449.825 155.528 452.233 155.318C453.281 155.227 454.35 155.184 455.41 155.192C455.833 155.192 456.227 155.202 456.608 155.221C460.056 155.362 463.478 156.039 466.773 157.236C475.222 160.309 481.919 166.461 485.63 174.558C489.313 182.592 489.608 191.585 486.463 199.882C482.195 211.146 472.071 219.326 460.041 221.231C459.404 221.33 458.76 221.413 458.123 221.478C456.999 221.591 455.87 221.646 454.747 221.646L454.746 221.647ZM427.263 205.059C430.101 209.701 434.123 213.557 438.895 216.211C439.905 216.773 440.95 217.283 442.002 217.729C442.489 217.937 443.011 218.144 443.604 218.362C445.214 218.948 446.88 219.409 448.552 219.731C449.954 220.006 451.399 220.188 452.849 220.273C454.546 220.374 456.275 220.339 457.99 220.168C458.602 220.105 459.223 220.025 459.835 219.93C471.398 218.099 481.129 210.239 485.23 199.415C488.25 191.451 487.966 182.818 484.432 175.107C480.869 167.333 474.437 161.426 466.322 158.474C463.155 157.324 459.867 156.673 456.547 156.537C456.182 156.519 455.81 156.51 455.404 156.51C454.378 156.501 453.353 156.543 452.347 156.63C450.032 156.833 447.727 157.286 445.495 157.979C443.283 158.663 441.139 159.584 439.122 160.716C438.474 161.079 437.838 161.464 437.233 161.86C436.29 162.477 435.388 163.135 434.55 163.816C430.116 167.397 426.708 172.101 424.693 177.42C421.207 186.612 422.144 196.686 427.264 205.059H427.263Z" fill="#232323"/>
<path d="M454.746 221.839C454.081 221.839 453.418 221.82 452.759 221.78C451.243 221.691 449.73 221.5 448.264 221.213C446.516 220.876 444.773 220.394 443.084 219.779C442.465 219.551 441.919 219.335 441.411 219.118C440.312 218.652 439.218 218.118 438.161 217.531C433.163 214.75 428.95 210.71 425.976 205.847C420.612 197.073 419.63 186.517 423.282 176.886C425.391 171.317 428.959 166.392 433.6 162.644C434.476 161.931 435.421 161.243 436.407 160.598C437.041 160.183 437.707 159.781 438.384 159.401C440.493 158.217 442.736 157.254 445.049 156.538C447.383 155.814 449.794 155.339 452.215 155.128C453.269 155.036 454.346 154.992 455.41 155.001C455.836 155.001 456.232 155.011 456.617 155.031C460.083 155.172 463.524 155.854 466.837 157.056C475.335 160.147 482.07 166.335 485.803 174.479C489.507 182.56 489.804 191.605 486.641 199.95C482.349 211.278 472.167 219.505 460.069 221.42C459.429 221.52 458.781 221.604 458.141 221.67C457.011 221.782 455.875 221.838 454.745 221.838L454.746 221.839ZM427.426 204.96C430.247 209.574 434.245 213.407 438.987 216.045C439.991 216.603 441.031 217.111 442.076 217.554C442.56 217.761 443.08 217.967 443.669 218.184C445.269 218.766 446.926 219.225 448.587 219.545C449.982 219.818 451.418 219.999 452.86 220.084C454.547 220.184 456.266 220.149 457.971 219.979C458.579 219.917 459.197 219.837 459.806 219.742C471.301 217.922 480.975 210.108 485.051 199.348C488.053 191.432 487.771 182.851 484.258 175.188C480.716 167.46 474.324 161.589 466.257 158.654C463.109 157.512 459.839 156.864 456.54 156.729C456.176 156.711 455.807 156.702 455.404 156.702C454.385 156.694 453.364 156.735 452.364 156.822C450.063 157.023 447.771 157.474 445.552 158.163C443.353 158.843 441.221 159.758 439.216 160.883C438.571 161.245 437.94 161.627 437.338 162.021C436.401 162.634 435.503 163.288 434.67 163.965C430.262 167.525 426.875 172.201 424.872 177.488C421.407 186.625 422.339 196.638 427.427 204.96H427.426Z" fill="#232323"/>
<path d="M431.949 211.911C451.86 224.241 477.691 213.414 478.032 190.365C478.264 174.684 462.891 162.456 447.62 163.301C436.506 163.916 425.895 169.314 422.032 186.596C422.032 186.596 421.516 194.498 423.913 199.621C426.31 204.743 429.519 209.32 429.519 209.32L431.95 211.911H431.949Z" fill="#232323"/>
<path d="M478.032 190.365C477.691 213.412 451.859 224.239 431.949 211.911L431.457 211.385C452.87 214.046 473.468 200.419 474.251 177.119C476.69 181.016 478.103 185.526 478.032 190.365L478.032 190.365Z" fill="#020202"/>
<path d="M449.664 221.169C449.243 221.169 448.822 221.162 448.4 221.147L448.281 221.134C446.535 220.797 444.797 220.316 443.113 219.704C442.494 219.475 441.95 219.26 441.443 219.043C440.347 218.579 439.255 218.046 438.201 217.46C433.215 214.686 429.011 210.656 426.045 205.804C420.694 197.052 419.714 186.522 423.357 176.914C425.462 171.358 429.022 166.445 433.651 162.706L433.713 162.657L433.783 162.62C437.648 160.634 442.188 159.485 447.278 159.203C456.438 158.695 466.005 162.33 472.87 168.924C479.051 174.86 482.39 182.488 482.273 190.403C482.144 199.022 478.94 206.562 473.008 212.208C466.986 217.939 458.537 221.169 449.664 221.169L449.664 221.169ZM448.513 219.613C457.405 219.907 465.95 216.802 471.947 211.095C477.574 205.74 480.612 198.577 480.735 190.381C480.845 182.897 477.674 175.67 471.805 170.033C465.241 163.73 456.108 160.255 447.363 160.739C442.521 161.007 438.213 162.088 434.556 163.953C430.169 167.514 426.795 172.183 424.796 177.459C421.323 186.619 422.256 196.658 427.358 205.002C430.186 209.627 434.194 213.47 438.948 216.115C439.955 216.675 440.997 217.184 442.045 217.628C442.53 217.835 443.052 218.041 443.642 218.259C445.227 218.836 446.867 219.291 448.513 219.613V219.613Z" fill="#232323"/>
<path d="M449.764 217.918C443.526 217.918 437.173 216.144 431.502 212.632L431.407 212.573L428.823 209.807C428.691 209.618 425.544 205.111 423.143 199.981C420.683 194.721 421.162 186.871 421.184 186.539L421.203 186.409C424.582 171.293 433.455 163.233 447.574 162.452C455.772 161.999 464.326 165.249 470.467 171.146C475.999 176.458 478.988 183.288 478.883 190.377C478.731 200.651 473.572 209.319 464.728 214.159C460.137 216.672 454.991 217.918 449.765 217.918L449.764 217.918ZM432.491 211.246C442.377 217.323 454.406 217.87 463.912 212.668C472.203 208.13 477.039 199.996 477.183 190.351C477.281 183.739 474.477 177.354 469.288 172.371C463.482 166.794 455.396 163.719 447.667 164.148C434.421 164.881 426.08 172.473 422.876 186.712C422.836 187.46 422.518 194.633 424.683 199.26C426.889 203.975 429.835 208.282 430.181 208.783L432.491 211.245V211.246Z" fill="#232323"/>
<path d="M492.58 188.191C493.269 194.573 490.026 200.35 485.336 201.093C480.646 201.836 476.286 197.264 475.598 190.882C475.592 190.842 475.589 190.799 475.586 190.759C474.951 184.426 478.185 178.717 482.842 177.98C486.465 177.405 489.891 180.003 491.58 184.156C492.077 185.379 492.424 186.739 492.58 188.19V188.191Z" fill="white"/>
<path d="M484.327 201.334C482.803 201.334 481.307 200.8 479.949 199.76C477.522 197.903 475.835 194.591 475.436 190.899C475.431 190.859 475.428 190.813 475.425 190.77C474.783 184.378 478.099 178.566 482.817 177.819C486.389 177.252 489.973 179.775 491.73 184.095C492.246 185.366 492.586 186.738 492.741 188.172C493.438 194.629 490.127 200.497 485.362 201.252C485.016 201.307 484.671 201.334 484.327 201.334ZM483.818 178.064C483.502 178.064 483.185 178.089 482.867 178.139C478.316 178.86 475.123 184.513 475.748 190.742C475.751 190.784 475.754 190.824 475.759 190.861C476.148 194.469 477.788 197.699 480.146 199.503C481.738 200.721 483.524 201.215 485.311 200.932C489.908 200.203 493.097 194.495 492.419 188.207C492.267 186.803 491.934 185.46 491.43 184.217C489.888 180.427 486.912 178.064 483.818 178.064H483.818Z" fill="#232323"/>
<g opacity="0.3">
<path d="M492.58 188.189C493.269 194.571 490.026 200.348 485.336 201.091C480.646 201.834 476.286 197.262 475.598 190.88C475.593 190.84 475.589 190.798 475.586 190.757C476.173 191.33 477.045 191.848 478.108 191.458C479.972 190.775 482.946 186.129 482.946 186.129C482.946 186.129 486.685 185.248 491.58 184.154C492.076 185.377 492.424 186.737 492.58 188.188L492.58 188.189Z" fill="#232323"/>
</g>
<path d="M484.322 202.021C482.649 202.021 481.012 201.439 479.531 200.306C476.919 198.307 475.177 194.905 474.753 190.971C474.018 184.156 477.587 177.951 482.71 177.14C484.778 176.812 486.831 177.374 488.648 178.765C491.26 180.763 493.002 184.166 493.427 188.099C494.162 194.914 490.592 201.119 485.47 201.93C485.086 201.991 484.704 202.021 484.323 202.021H484.322ZM483.845 178.75C483.555 178.75 483.266 178.773 482.976 178.818C478.734 179.49 475.803 184.86 476.442 190.789C476.811 194.211 478.352 197.264 480.564 198.956C482.002 200.056 483.607 200.505 485.203 200.251C489.445 199.58 492.376 194.209 491.736 188.281C491.367 184.859 489.827 181.806 487.615 180.114C486.438 179.213 485.149 178.75 483.845 178.75V178.75Z" fill="#232323"/>
<path d="M487.049 199.43C490.906 199.386 493.986 195.213 493.927 190.11C493.868 185.007 490.693 180.906 486.836 180.951C482.978 180.995 479.899 185.168 479.958 190.271C480.016 195.374 483.191 199.475 487.049 199.43Z" fill="white"/>
<path d="M486.996 199.529C486.329 199.529 485.659 199.402 484.999 199.148C481.255 197.707 479.073 192.523 480.135 187.59C480.727 184.841 482.217 182.641 484.224 181.557C485.715 180.751 487.327 180.641 488.883 181.24C492.627 182.681 494.809 187.865 493.747 192.798C493.155 195.547 491.665 197.747 489.658 198.831C488.8 199.295 487.901 199.529 486.996 199.529ZM486.887 181.037C486.01 181.037 485.14 181.263 484.308 181.713C482.348 182.773 480.89 184.929 480.309 187.627C479.265 192.478 481.397 197.571 485.063 198.982C486.569 199.561 488.13 199.455 489.574 198.674C491.535 197.614 492.992 195.458 493.573 192.76C494.618 187.909 492.485 182.816 488.82 181.405C488.181 181.16 487.532 181.037 486.887 181.037V181.037Z" fill="#232323"/>
<g opacity="0.3">
<path d="M480.8 194.815C480.188 193.176 480.03 191.362 480.261 189.616C481.976 193.236 485.615 194.385 488.684 192.143C490.668 190.695 491.956 188.162 492.311 185.461C492.421 185.689 492.521 185.93 492.615 186.178C494.171 190.353 492.789 195.672 489.525 198.056C486.262 200.441 482.356 198.988 480.8 194.815H480.8Z" fill="#232323"/>
</g>
<path d="M487.19 200.206C485.971 200.206 484.771 199.778 483.677 198.944C481.582 197.348 480.125 194.413 479.781 191.096C479.2 185.502 481.92 180.419 485.846 179.765C487.358 179.514 488.873 179.925 490.225 180.955C492.32 182.552 493.776 185.486 494.121 188.805C494.702 194.399 491.981 199.481 488.056 200.135C487.767 200.183 487.478 200.207 487.19 200.207L487.19 200.206ZM486.702 181.233C486.501 181.233 486.299 181.249 486.098 181.283C482.959 181.805 480.812 186.136 481.311 190.937C481.613 193.84 482.846 196.377 484.609 197.721C485.616 198.488 486.72 198.797 487.804 198.617C490.943 198.094 493.091 193.764 492.591 188.963C492.29 186.059 491.057 183.522 489.293 182.178C488.473 181.554 487.588 181.233 486.702 181.233V181.233Z" fill="#232323"/>
<g opacity="0.5">
<path d="M456.037 169.478C456.037 169.478 441.651 171.185 434.124 179.822C434.116 179.831 434.108 179.84 434.1 179.849C432.517 181.668 431.459 183.874 431.02 186.228C430.439 189.339 430.5 191.565 430.63 193.522C431.029 199.472 432.344 202.179 432.344 202.179C428.703 199.282 426.531 195.851 426.149 190.898C426.112 190.41 426.093 189.905 426.09 189.386C426.089 189.266 426.091 189.148 426.094 189.028C426.092 189.027 426.093 189.025 426.096 189.021C426.164 187.969 426.307 186.589 426.6 185.045C427.481 180.388 429.712 174.235 435.339 171.05C445.86 165.095 456.492 168.821 456.037 169.478V169.478Z" fill="white"/>
<path d="M432.8 202.75L432.243 202.307C428.281 199.154 426.352 195.64 425.987 190.911C425.951 190.427 425.931 189.915 425.928 189.387C425.927 189.276 425.928 189.164 425.931 189.052L425.915 188.992L425.937 188.963C426.025 187.64 426.194 186.312 426.441 185.015C427.321 180.359 429.566 174.132 435.259 170.91C440.536 167.923 445.671 167.45 449.047 167.582C452.897 167.731 455.652 168.706 456.112 169.21C456.271 169.383 456.206 169.52 456.17 169.57L456.129 169.631L456.056 169.639C455.913 169.656 441.645 171.439 434.246 179.929L434.221 179.956C432.667 181.742 431.615 183.921 431.179 186.257C430.587 189.427 430.668 191.664 430.791 193.511C431.183 199.352 432.476 202.082 432.489 202.108L432.8 202.749L432.8 202.75ZM426.256 189.057C426.253 189.166 426.251 189.275 426.252 189.385C426.256 189.906 426.275 190.411 426.31 190.887C426.652 195.317 428.398 198.661 431.952 201.65C431.548 200.554 430.763 197.937 430.468 193.533C430.345 191.666 430.262 189.405 430.861 186.198C431.308 183.806 432.386 181.574 433.978 179.743L434.001 179.716C440.954 171.739 453.871 169.623 455.781 169.349C455.614 169.229 455.238 169.027 454.499 168.787C451 167.651 443.043 166.877 435.419 171.192C429.834 174.354 427.627 180.487 426.76 185.076C426.513 186.375 426.344 187.707 426.257 189.032L426.256 189.057L426.256 189.057Z" fill="#232323"/>
</g>
<g opacity="0.5">
<path d="M469.564 187.737C471.861 186.924 472.965 184.125 472.03 181.486C471.095 178.848 468.476 177.369 466.179 178.183C463.882 178.996 462.777 181.795 463.712 184.434C464.647 187.072 467.267 188.551 469.564 187.737Z" fill="white"/>
<path d="M468.266 188.117C466.271 188.117 464.314 186.67 463.543 184.435C463.051 183.008 463.122 181.467 463.739 180.206C464.256 179.148 465.118 178.369 466.167 178.01C468.552 177.194 471.26 178.749 472.199 181.475C472.692 182.902 472.62 184.444 472.004 185.705C471.487 186.762 470.625 187.541 469.576 187.9C469.146 188.047 468.705 188.117 468.266 188.117H468.266ZM463.85 184.329C464.732 186.887 467.253 188.351 469.472 187.593C470.438 187.262 471.234 186.541 471.713 185.562C472.292 184.378 472.358 182.926 471.894 181.58C471.011 179.023 468.491 177.56 466.272 178.317C465.305 178.647 464.509 179.369 464.031 180.348C463.452 181.532 463.386 182.983 463.85 184.33V184.329Z" fill="#232323"/>
</g>
<g opacity="0.5">
<path d="M471.753 193.554C472.666 193.131 473.012 191.938 472.526 190.889C472.04 189.839 470.906 189.331 469.994 189.754C469.081 190.177 468.735 191.37 469.221 192.419C469.707 193.469 470.841 193.977 471.753 193.554Z" fill="white"/>
<path d="M471.075 193.867C470.263 193.867 469.446 193.33 469.057 192.454C468.794 191.861 468.768 191.197 468.987 190.634C469.172 190.158 469.517 189.789 469.959 189.596C470.962 189.157 472.186 189.725 472.69 190.861C472.953 191.454 472.979 192.118 472.761 192.681C472.576 193.157 472.231 193.526 471.788 193.719C471.559 193.82 471.317 193.867 471.075 193.867ZM469.354 192.322C469.786 193.296 470.82 193.789 471.658 193.422C472.021 193.264 472.305 192.959 472.458 192.564C472.646 192.08 472.623 191.507 472.394 190.993C471.962 190.019 470.928 189.526 470.09 189.893C469.727 190.052 469.443 190.357 469.289 190.752C469.102 191.235 469.125 191.808 469.354 192.322V192.322Z" fill="#232323"/>
</g>
<path d="M222.964 56L442.228 61.2042C465.765 61.2042 484.647 67.4951 484.647 75.3376L471.145 119.729C471.145 127.572 456.088 133.266 432.552 133.266L384.637 133.545L395.91 150L352.647 133.266L337.526 133.545C321.026 132.55 339.026 133.266 296.026 133.545H251.026H222.964H202.526L182.026 128.342L158.026 119.729L150.026 114.842C97.0262 56.8421 199.428 56 222.964 56Z" fill="white" stroke="black" stroke-width="2" stroke-linecap="round" stroke-linejoin="round"/>
<path d="M183.864 86.152V107.872H185.88V86.152H183.864ZM185.328 94.96V96.616H189.336V94.96H185.328ZM178.32 88.504V88.816C178.32 94.552 175.32 99.184 169.32 102.232L170.424 103.768C177.432 100.24 180.264 94.672 180.264 88.504H178.32ZM170.328 88.504V90.136H179.352V88.504H170.328ZM196.606 88.504V90.256C196.606 93.352 194.446 96.16 191.182 97.312L192.19 98.896C195.838 97.576 198.238 94.24 198.238 90.256V88.504H196.606ZM196.966 88.504V90.232C196.966 93.928 199.27 97.024 202.894 98.224L203.854 96.664C200.662 95.608 198.598 93.064 198.598 90.232V88.504H196.966ZM191.782 87.784V89.416H203.374V87.784H191.782ZM206.11 86.176V99.256H208.102V86.176H206.11ZM207.55 91.672V93.352H211.318V91.672H207.55ZM201.19 99.832C196.774 99.832 194.062 101.296 194.062 103.816C194.062 106.36 196.774 107.824 201.19 107.824C205.606 107.824 208.318 106.36 208.318 103.816C208.318 101.296 205.606 99.832 201.19 99.832ZM201.19 101.44C204.406 101.44 206.374 102.304 206.374 103.816C206.374 105.352 204.406 106.264 201.19 106.264C197.974 106.264 196.006 105.352 196.006 103.816C196.006 102.304 197.974 101.44 201.19 101.44ZM236.474 86.176V99.904H238.37V86.176H236.474ZM232.946 92.056V93.712H237.05V92.056H232.946ZM231.842 86.608V99.136H233.714V86.608H231.842ZM219.986 88.768V90.352H230.978V88.768H219.986ZM225.506 91.456C222.77 91.456 220.874 92.944 220.874 95.176C220.874 97.432 222.77 98.896 225.506 98.896C228.218 98.896 230.114 97.432 230.114 95.176C230.114 92.944 228.218 91.456 225.506 91.456ZM225.506 92.944C227.186 92.944 228.338 93.832 228.338 95.176C228.338 96.544 227.186 97.408 225.506 97.408C223.802 97.408 222.65 96.544 222.65 95.176C222.65 93.832 223.802 92.944 225.506 92.944ZM224.522 86.344V89.656H226.466V86.344H224.522ZM231.266 100.288C226.706 100.288 224.018 101.632 224.018 104.056C224.018 106.456 226.706 107.824 231.266 107.824C235.778 107.824 238.49 106.456 238.49 104.056C238.49 101.632 235.778 100.288 231.266 100.288ZM231.266 101.824C234.554 101.824 236.522 102.616 236.522 104.056C236.522 105.496 234.554 106.312 231.266 106.312C227.93 106.312 225.986 105.496 225.986 104.056C225.986 102.616 227.93 101.824 231.266 101.824ZM242.16 97.36V98.992H261.768V97.36H242.16ZM250.992 94.12V97.864H252.96V94.12H250.992ZM244.344 101.104V102.736H257.352V107.872H259.344V101.104H244.344ZM244.776 86.68V94.792H259.224V86.68H257.232V89.128H246.744V86.68H244.776ZM246.744 90.688H257.232V93.208H246.744V90.688ZM280.631 86.2V99.616H282.527V86.2H280.631ZM277.103 92.128V93.76H281.207V92.128H277.103ZM276.023 86.512V99.304H277.919V86.512H276.023ZM264.143 88.648V90.232H275.135V88.648H264.143ZM269.663 91.312C266.927 91.312 265.031 92.776 265.031 95.032C265.031 97.288 266.927 98.752 269.663 98.752C272.375 98.752 274.271 97.288 274.271 95.032C274.271 92.776 272.375 91.312 269.663 91.312ZM269.663 92.824C271.343 92.824 272.495 93.688 272.495 95.032C272.495 96.376 271.343 97.264 269.663 97.264C267.959 97.264 266.807 96.376 266.807 95.032C266.807 93.688 267.959 92.824 269.663 92.824ZM268.679 86.272V89.584H270.623V86.272H268.679ZM269.975 100.264V101.008C269.975 102.976 268.343 105.208 265.631 106.12L266.567 107.608C269.711 106.48 271.511 103.744 271.511 101.008V100.264H269.975ZM270.431 100.264V101.008C270.431 103.768 271.823 106.648 274.919 107.8L275.759 106.288C273.167 105.304 271.895 103.096 271.895 101.008V100.264H270.431ZM277.943 100.264V101.008C277.943 102.808 276.622 105.184 274.103 106.288L274.919 107.8C277.991 106.552 279.407 103.456 279.407 101.008V100.264H277.943ZM278.351 100.264V101.008C278.351 103.888 280.127 106.528 283.295 107.608L284.255 106.12C281.519 105.256 279.887 103.12 279.887 101.008V100.264H278.351ZM287.565 97.216V98.848H289.197C293.277 98.848 295.869 98.704 298.893 98.128L298.701 96.496C295.749 97.072 293.205 97.216 289.197 97.216H287.565ZM287.565 87.952V97.72H289.533V89.584H297.501V87.952H287.565ZM302.181 86.176V102.016H304.173V86.176H302.181ZM296.109 92.176V93.784H302.637V92.176H296.109ZM290.301 105.904V107.536H304.749V105.904H290.301ZM290.301 100.84V106.84H292.293V100.84H290.301ZM323.953 86.728V87.784C323.953 90.688 320.161 93.232 316.321 93.808L317.113 95.392C321.505 94.624 325.657 91.72 325.657 87.784V86.728H323.953ZM324.265 86.728V87.784C324.265 91.624 328.441 94.6 332.833 95.344L333.577 93.784C329.809 93.208 325.969 90.616 325.969 87.784V86.728H324.265ZM315.145 97.216V98.848H334.801V97.216H315.145ZM324.121 98.224V103.216H326.113V98.224H324.121ZM317.641 105.76V107.392H332.617V105.76H317.641ZM317.641 101.128V106.288H319.609V101.128H317.641ZM352.079 86.176V102.04H354.071V86.176H352.079ZM353.447 92.752V94.408H357.287V92.752H353.447ZM346.151 87.856V88.72C346.151 92.896 342.719 96.256 337.247 97.936L338.111 99.568C344.327 97.576 348.263 93.472 348.263 87.856H346.151ZM338.135 87.856V89.488H347.159V87.856H338.135ZM340.535 105.76V107.392H355.031V105.76H340.535ZM340.535 100.432V106.408H342.527V100.432H340.535ZM369.117 86.536C364.317 86.536 361.485 87.88 361.485 90.304C361.485 92.728 364.317 94.072 369.117 94.072C373.893 94.072 376.749 92.728 376.749 90.304C376.749 87.88 373.893 86.536 369.117 86.536ZM369.117 88.048C372.645 88.048 374.685 88.864 374.685 90.304C374.685 91.744 372.645 92.56 369.117 92.56C365.565 92.56 363.525 91.744 363.525 90.304C363.525 88.864 365.565 88.048 369.117 88.048ZM359.301 95.512V97.12H378.909V95.512H359.301ZM361.677 98.968V100.504H374.445V102.424H361.725V106.504H363.693V103.864H376.413V98.968H361.677ZM361.725 106.072V107.632H377.061V106.072H361.725ZM393.673 88.384V90.136C393.673 93.208 391.441 96.088 388.201 97.24L389.233 98.824C392.857 97.48 395.305 94.096 395.305 90.136V88.384H393.673ZM394.057 88.384V90.136C394.057 93.76 396.385 97.024 399.913 98.32L400.921 96.736C397.777 95.632 395.665 92.92 395.665 90.136V88.384H394.057ZM399.745 91.816V93.472H404.569V91.816H399.745ZM388.825 87.664V89.272H400.417V87.664H388.825ZM391.513 100.336V101.968H403.993V107.872H405.985V100.336H391.513ZM403.993 86.176V99.16H405.985V86.176H403.993ZM416.015 87.832C412.847 87.832 410.615 90.784 410.615 95.392C410.615 100.024 412.847 102.976 416.015 102.976C419.159 102.976 421.415 100.024 421.415 95.392C421.415 90.784 419.159 87.832 416.015 87.832ZM416.015 89.632C418.103 89.632 419.519 91.888 419.519 95.392C419.519 98.92 418.103 101.224 416.015 101.224C413.927 101.224 412.511 98.92 412.511 95.392C412.511 91.888 413.927 89.632 416.015 89.632ZM426.119 86.152V107.896H428.087V86.152H426.119ZM420.767 94.432V96.064H426.983V94.432H420.767ZM438.237 88.48V89.776C438.237 91.912 436.053 93.832 432.885 94.504L433.677 96.016C437.397 95.2 439.893 92.776 439.893 89.776V88.48H438.237ZM438.645 88.48V89.776C438.645 92.656 441.117 94.912 444.741 95.704L445.581 94.168C442.485 93.568 440.253 91.792 440.253 89.776V88.48H438.645ZM433.581 87.76V89.368H444.981V87.76H433.581ZM438.189 98.296V107.2H440.157V98.296H438.189ZM448.125 86.176V107.896H450.117V86.176H448.125ZM432.477 99.448C436.461 99.448 441.717 99.376 446.589 98.512L446.469 97.024C441.741 97.72 436.245 97.768 432.213 97.768L432.477 99.448ZM443.205 101.104V102.664H448.629V101.104H443.205ZM457.688 88.5455L457.517 101.091H455.54L455.369 88.5455H457.688ZM456.528 106.136C456.108 106.136 455.747 105.986 455.446 105.685C455.145 105.384 454.994 105.023 454.994 104.602C454.994 104.182 455.145 103.821 455.446 103.52C455.747 103.219 456.108 103.068 456.528 103.068C456.949 103.068 457.31 103.219 457.611 103.52C457.912 103.821 458.062 104.182 458.062 104.602C458.062 104.881 457.991 105.136 457.849 105.369C457.713 105.602 457.528 105.79 457.295 105.932C457.068 106.068 456.813 106.136 456.528 106.136Z" fill="black"/>
</g>
<defs>
<clipPath id="clip0_484_878">
<rect width="500" height="300" fill="white"/>
</clipPath>
</defs>
</svg>
